<svg width="32" height="32" viewBox="0 0 32 32" fill="none" xmlns="http://www.w3.org/2000/svg">
<path d="M2 12.1333C2 8.58633 2 6.81283 2.69029 5.45806C3.29749 4.26637 4.26637 3.29749 5.45806 2.69029C6.81283 2 8.58633 2 12.1333 2H19.8667C23.4137 2 25.1872 2 26.5419 2.69029C27.7336 3.29749 28.7025 4.26637 29.3097 5.45806C30 6.81283 30 8.58633 30 12.1333V19.8667C30 23.4137 30 25.1872 29.3097 26.5419C28.7025 27.7336 27.7336 28.7025 26.5419 29.3097C25.1872 30 23.4137 30 19.8667 30H12.1333C8.58633 30 6.81283 30 5.45806 29.3097C4.26637 28.7025 3.29749 27.7336 2.69029 26.5419C2 25.1872 2 23.4137 2 19.8667V12.1333Z" fill="#001E36"/>
<path d="M8.19884 9.18896C7.10054 9.18896 6.00178 9.21556 4.90439 9.21556C4.83687 9.21556 4.80298 9.26083 4.80298 9.3504V21.6045C4.80298 21.7073 4.8423 21.7888 4.9213 21.7888L6.96537 21.7894C7.06674 21.7894 7.11746 21.7317 7.11752 21.6163V17.8729C10.0913 17.8729 12.777 16.9671 12.7778 13.4443C12.7875 10.713 10.7242 9.18946 8.19884 9.18896ZM9.28861 15.3698C8.60757 15.6044 7.83165 15.606 7.11752 15.5431V11.5572C7.88942 11.4637 8.78205 11.4396 9.49987 11.7595C10.1578 12.066 10.4991 12.7802 10.4799 13.5021C10.4799 14.3466 10.0992 15.0878 9.28861 15.3698Z" fill="#31A8FF"/>
<path d="M16.6129 15.8898C16.2193 15.7114 15.4261 15.4211 15.4132 14.8692C15.4122 14.307 16.025 14.2013 16.4608 14.2145C17.2009 14.2178 17.9683 14.3819 18.6089 14.7729C18.6903 14.8327 18.7839 14.7473 18.7779 14.6574V12.7127C18.7783 12.6142 18.7629 12.4989 18.6596 12.4623C18.0138 12.1203 17.2252 12.0707 16.5116 12.0772C15.7681 12.0772 15.1485 12.2184 14.6529 12.5008C13.7394 12.9925 13.1953 13.9929 13.1998 15.0425C13.1878 15.9156 13.5676 16.7374 14.2389 17.276C14.6944 17.6368 15.198 17.9286 15.7344 18.1425C16.1673 18.3251 16.981 18.5789 17.0184 19.1823C17.0358 19.7787 16.2939 19.8562 15.8694 19.8562C14.9977 19.8428 14.1016 19.5982 13.3743 19.0977C13.2955 19.0583 13.2077 19.1292 13.2178 19.216V21.2955C13.2218 21.385 13.2776 21.4684 13.3574 21.5046C14.104 21.9019 14.985 22.0414 15.8188 22.032C17.599 22.032 19.3423 21.0172 19.2995 18.9896C19.3291 17.3311 17.986 16.4156 16.6129 15.8898Z" fill="#31A8FF"/>
<path d="M27.0541 10.4479C26.4396 10.1933 25.74 10.1667 25.0855 10.1737C21.7243 10.1737 19.5011 12.7513 19.5011 16.1301C19.4605 19.3875 21.5443 22.0306 24.8269 22.0171C25.5446 22.0201 26.2963 21.9675 26.9713 21.6989C27.0886 21.6433 27.1589 21.5122 27.142 21.3808V19.5959C27.1581 19.4482 27.0476 19.381 26.9007 19.4374C26.3195 19.661 25.6852 19.6914 25.0703 19.6875C23.0697 19.6757 21.7998 18.0534 21.8349 16.0607C21.7894 14.1405 23.0583 12.5298 25.0247 12.434C25.6828 12.4019 26.3728 12.4984 26.9584 12.8152C27.0801 12.89 27.191 12.7621 27.1787 12.6375V10.7311C27.1901 10.6225 27.1411 10.511 27.0541 10.4479Z" fill="#31A8FF"/>
</svg>
