<svg width="32" height="32" viewBox="0 0 32 32" fill="none" xmlns="http://www.w3.org/2000/svg">
<path d="M16 2C8.27812 2 2 8.27812 2 16C2 23.7219 8.27812 30 16 30C23.7219 30 30 23.7219 30 16C30 8.27812 23.7219 2 16 2Z" fill="#FF5A5F"/>
<path d="M16.0001 19.6867C15.0822 18.5322 14.5423 17.5201 14.3623 16.6542C14.1824 15.9506 14.2544 15.3914 14.5603 14.9765C14.8843 14.4894 15.3702 14.2549 16.0001 14.2549C16.63 14.2549 17.1159 14.4894 17.4399 14.9765C17.7458 15.3914 17.8178 15.9506 17.6378 16.6542C17.4399 17.5382 16.8999 18.5484 16.0001 19.6867ZM21.0249 22.3566C19.4951 23.0241 17.9816 21.9597 16.6858 20.5165C18.8292 17.8268 19.2252 15.7342 18.3055 14.3794C17.7656 13.6037 16.9917 13.2248 16.0001 13.2248C14.0024 13.2248 12.9028 14.9206 13.3347 16.8887C13.5867 17.9531 14.2526 19.1636 15.3144 20.5165C14.5179 21.4012 13.473 22.4047 12.2189 22.519C10.4011 22.7896 8.97757 21.0217 9.62547 19.1978L14.2346 9.63307C14.6279 8.91403 15.1135 8.29812 15.9983 8.29812C16.6462 8.29812 17.1501 8.67696 17.3661 8.98363L22.3711 19.1978C22.8615 20.432 22.2396 21.8308 21.0249 22.3566ZM23.3465 18.837L19.0614 9.90367C18.2515 8.244 17.6756 7.25 16.0001 7.25C14.3443 7.25 13.6406 8.40455 12.9208 9.90367L8.65362 18.837C7.73576 21.3644 9.62547 23.5833 11.9129 23.5833C12.0569 23.5833 12.1998 23.5653 12.3448 23.5653C13.5327 23.421 14.7583 22.6633 16.0001 21.3085C17.2419 22.6615 18.4675 23.421 19.6553 23.5653C19.8003 23.5653 19.9433 23.5833 20.0872 23.5833C22.3747 23.5851 24.2644 21.3644 23.3465 18.837Z" fill="white"/>
</svg>
