<svg width="32" height="32" viewBox="0 0 32 32" fill="none" xmlns="http://www.w3.org/2000/svg">
<path fill-rule="evenodd" clip-rule="evenodd" d="M27.2431 17.9154H21.4701C21.0936 17.9111 20.7714 18.1872 20.715 18.5627C20.3871 20.9285 18.3794 22.6881 16.0105 22.6861L17.5736 29.8858C23.2368 29.1397 27.5957 24.4752 27.9982 18.7302C28.0129 18.5192 27.9399 18.3115 27.7967 18.157C27.6534 18.0024 27.4529 17.9149 27.2431 17.9154Z" fill="#2684FF"/>
<path fill-rule="evenodd" clip-rule="evenodd" d="M4.11377 19.4879C4.90824 25.5024 9.99375 29.9959 16.0109 30V22.6861C13.3963 22.6861 11.2749 20.552 11.2687 17.9154L4.11377 19.4879Z" fill="url(#paint0_linear_14216_28502)"/>
<path fill-rule="evenodd" clip-rule="evenodd" d="M4 17.8012V17.9154H11.2682C11.2744 15.2788 13.3958 13.1448 16.0104 13.1448L14.4511 5.94507C8.52674 6.72352 4.07207 11.7771 4 17.8012Z" fill="url(#paint1_linear_14216_28502)"/>
<path fill-rule="evenodd" clip-rule="evenodd" d="M17.2527 17.7327L25.5592 10.5329C25.7217 10.3884 25.8148 10.1804 25.8148 9.96184C25.8148 9.74329 25.7217 9.53528 25.5592 9.39073L17.2527 2.17958C17.0286 1.98882 16.7152 1.94618 16.4489 2.07022C16.1827 2.19426 16.0117 2.46255 16.0105 2.7583V17.1539C16.0117 17.4497 16.1827 17.718 16.4489 17.842C16.7152 17.9661 17.0286 17.9234 17.2527 17.7327Z" fill="#2684FF"/>
<defs>
<linearGradient id="paint0_linear_14216_28502" x1="10.0642" y1="6.03646" x2="10.0642" y2="22.5338" gradientUnits="userSpaceOnUse">
<stop stop-color="#0052CC"/>
<stop offset="1" stop-color="#2684FF"/>
</linearGradient>
<linearGradient id="paint1_linear_14216_28502" x1="10.0071" y1="6.03645" x2="10.0071" y2="22.5338" gradientUnits="userSpaceOnUse">
<stop stop-color="#0052CC"/>
<stop offset="1" stop-color="#2684FF"/>
</linearGradient>
</defs>
</svg>
