<svg width="32" height="32" viewBox="0 0 32 32" fill="none" xmlns="http://www.w3.org/2000/svg">
<path d="M16 2C8.27812 2 2 8.27812 2 16C2 23.7219 8.27812 30 16 30C23.7219 30 30 23.7219 30 16C30 8.27812 23.7219 2 16 2Z" fill="white"/>
<path d="M16.0022 6C10.0803 6 5.44525 13.801 5 20.3895C6.85671 23.7275 11.3404 25 16.0022 25C20.664 25 25.1433 23.7459 27 20.3895C26.5592 13.801 21.9197 6 16.0022 6Z" fill="#B3DCFF"/>
<path d="M22.8548 14.193C21.5547 12.4548 19.8983 10.6106 18.9366 10.6106C17.9748 10.6106 15.29 15.5347 14.0388 15.5347C12.7876 15.5347 12.1643 13.294 10.6504 13.3032C8.58444 13.3032 6.56299 19.5966 6.56299 19.5966C6.56299 19.5966 7.40007 23.4371 16.1538 23.4371C24.9075 23.4371 25.6065 19.6611 25.6065 19.6611C24.971 17.7006 24.0425 15.8555 22.8548 14.193Z" fill="#5ECC62"/>
<path d="M11.3093 19.0708C11.3093 18.8437 11.3743 18.6218 11.4962 18.433C11.618 18.2442 11.7911 18.097 11.9937 18.0101C12.1963 17.9233 12.4192 17.9005 12.6343 17.9448C12.8494 17.9891 13.0469 18.0985 13.202 18.259C13.357 18.4196 13.4626 18.6241 13.5054 18.8468C13.5482 19.0695 13.5262 19.3003 13.4423 19.5101C13.3584 19.7199 13.2163 19.8992 13.034 20.0253C12.8516 20.1515 12.6373 20.2188 12.418 20.2188C12.124 20.2188 11.842 20.0979 11.6341 19.8826C11.4261 19.6673 11.3093 19.3753 11.3093 19.0708ZM18.4735 19.0708C18.4735 19.2978 18.5385 19.5198 18.6603 19.7086C18.7821 19.8974 18.9553 20.0445 19.1579 20.1314C19.3605 20.2183 19.5834 20.241 19.7984 20.1967C20.0135 20.1525 20.2111 20.0431 20.3661 19.8826C20.5212 19.722 20.6267 19.5174 20.6695 19.2948C20.7123 19.0721 20.6903 18.8412 20.6064 18.6315C20.5225 18.4217 20.3804 18.2424 20.1981 18.1162C20.0158 17.9901 19.8014 17.9228 19.5821 17.9228C19.4366 17.9228 19.2924 17.9525 19.1579 18.0101C19.0234 18.0678 18.9011 18.1524 18.7982 18.259C18.6952 18.3656 18.6136 18.4922 18.5579 18.6315C18.5021 18.7707 18.4735 18.92 18.4735 19.0708ZM18.2731 20.7536C18.306 20.6716 18.3081 20.5798 18.2789 20.4963C18.2496 20.4128 18.1912 20.3437 18.1152 20.3026C18.0392 20.2615 17.951 20.2514 17.8681 20.2743C17.7853 20.2972 17.7137 20.3514 17.6676 20.4263C17.4923 20.7084 17.2479 20.9373 16.9592 21.0896C16.6705 21.2419 16.348 21.3121 16.0246 21.2931C15.6921 21.301 15.3628 21.2245 15.0655 21.0702C14.7682 20.9159 14.512 20.6885 14.3192 20.4078C14.2686 20.3357 14.1935 20.286 14.109 20.2686C14.0246 20.2512 13.9369 20.2673 13.8634 20.3138C13.7899 20.3603 13.7359 20.4337 13.7123 20.5195C13.6887 20.6052 13.6972 20.6971 13.736 20.7767C13.99 21.1605 14.3321 21.473 14.7316 21.6862C15.131 21.8995 15.5753 22.0068 16.0246 21.9985C16.4728 22.0192 16.9181 21.9145 17.3138 21.6955C17.7094 21.4765 18.0408 21.1511 18.2731 20.7536Z" fill="black"/>
<path d="M14.1945 17.6463C12.8365 17.6463 12.1374 16.2631 11.759 15.401C11.4206 14.631 11.3582 13.4092 10.3965 13.3769C10.4826 13.3396 10.5747 13.3193 10.6681 13.317C12.182 13.317 12.8231 15.5485 14.0565 15.5485C15.2898 15.5485 17.9792 10.6106 18.9365 10.6106C19.1494 10.6223 19.3568 10.6855 19.542 10.795C19.447 10.7765 19.349 10.7815 19.2562 10.8095C19.1634 10.8375 19.0782 10.8879 19.0077 10.9564C18.7005 11.2838 15.8776 17.6463 14.1945 17.6463Z" fill="#00AD45"/>
</svg>
