<svg width="32" height="32" viewBox="0 0 32 32" fill="none" xmlns="http://www.w3.org/2000/svg">
<path d="M29.0838 19.8789C27.2157 27.3743 19.6241 31.9513 12.1149 30.082C4.61947 28.2082 0.0498602 20.6165 1.918 13.1211C3.78614 5.62568 11.3732 1.04871 18.864 2.91799C26.3778 4.76435 30.9474 12.3789 29.0838 19.8789Z" fill="#F7931A"/>
<path d="M22.1294 14.6609C22.3811 12.7943 20.9628 11.8198 19.0183 11.1609L19.6222 8.63544L18.085 8.26485L17.4994 10.7354C17.0922 10.6394 16.6804 10.5433 16.2732 10.4609L16.8588 7.99034L15.3033 7.61975L14.6994 10.1452C14.3699 10.0675 14.036 10.008 13.7065 9.93021L11.5882 9.42237L11.1994 11.0557C11.1994 11.0557 12.3477 11.3073 12.3065 11.3302C12.9288 11.4858 13.0477 11.893 13.0248 12.2041L12.3431 15.0819C12.3843 15.1002 12.4392 15.1002 12.4987 15.1413C12.4392 15.123 12.4026 15.123 12.3431 15.1047L11.4098 19.1309C11.332 19.323 11.1353 19.5975 10.7098 19.5015C10.7281 19.5198 9.57975 19.227 9.57975 19.227L8.85229 20.9976L10.8562 21.4642C11.2268 21.5603 11.5974 21.6381 11.9451 21.7387L11.3412 24.2871L12.8784 24.6577L13.4824 22.1322C13.9124 22.2466 14.3196 22.3472 14.7085 22.4433L14.1046 24.9505L15.6418 25.3211L16.2458 22.7727C18.8719 23.2394 20.8346 23.0244 21.6307 20.6315C22.2712 18.7237 21.5712 17.6348 20.1712 16.9165C21.1961 16.6832 21.9373 16.0198 22.1294 14.6609ZM18.6706 19.6158C18.2222 21.5237 14.9967 20.5309 13.9628 20.2792L14.7588 16.8936C15.8111 17.1498 19.1373 17.6165 18.6706 19.6158ZM19.0961 14.6609C18.6889 16.3904 16.0033 15.5577 15.1294 15.3426L15.8706 12.2727C16.7262 12.4832 19.5261 12.8537 19.0961 14.6609Z" fill="white"/>
</svg>
