<svg width="32" height="32" viewBox="0 0 32 32" fill="none" xmlns="http://www.w3.org/2000/svg">
<path d="M16 2C8.26811 2 2 8.26811 2 16C2 23.7319 8.26811 30.0001 16 30.0001C23.7319 30.0001 30 23.7319 30 16C30 8.26811 23.7319 2 16 2Z" fill="url(#paint0_linear_14216_28594)"/>
<path d="M16.0001 24.9427C11.0612 24.9427 7.05737 20.9389 7.05737 16C7.05737 11.0611 11.0612 7.05725 16.0001 7.05725C20.939 7.05725 24.9429 11.0611 24.9429 16C24.9429 20.9389 20.939 24.9427 16.0001 24.9427Z" fill="white"/>
<path d="M7.63257 16H16V7.63257C11.3788 7.63257 7.63257 11.3789 7.63257 16ZM16 16V24.3675C20.6211 24.3675 24.3674 20.6212 24.3674 16H16Z" fill="url(#paint1_linear_14216_28594)"/>
<path fill-rule="evenodd" clip-rule="evenodd" d="M8.24326 7.35932C8.67344 7.09263 9.13165 7.17946 9.42808 7.46758C9.88356 7.91032 9.81657 8.42224 9.3833 8.93858L7.48704 11.1984L4.6604 8.8265L6.45854 6.68363C6.8307 6.2401 7.35105 5.8859 7.84549 6.30078C7.85463 6.30845 7.86345 6.31581 7.87201 6.32295C8.0064 6.43506 8.074 6.49146 8.24824 6.80918C8.29187 6.92909 8.32543 7.14639 8.24326 7.35932ZM7.44122 7.22351C7.25936 7.07096 6.97658 7.06483 6.85145 7.21398L5.77143 8.50105L6.43954 9.0617L7.50737 7.78913C7.64166 7.62917 7.64117 7.3913 7.44122 7.22351ZM7.62552 10.0569L8.75135 8.7152C8.90087 8.53704 8.87927 8.25942 8.66112 8.07646C8.46839 7.91468 8.18264 7.95916 8.05448 8.1119L6.91954 9.46451L7.62552 10.0569Z" fill="white"/>
<path d="M17.4391 3.87635L16.4683 6.44933H15.6624L14.6916 3.87635V6.44933H13.9539V2.76434H15.0623L16.0653 5.38909L17.0683 2.76434H18.1768V6.44933H17.4391V3.87635Z" fill="white"/>
<path d="M24.9984 9.94894L26.3874 7.98241L25.7758 7.22704L23.5634 8.17684L25.0111 6.28306L24.4409 5.57897L22.1291 8.55264L22.8048 9.38035L24.9887 8.48164L24.9966 8.49141L23.6635 10.4407L24.3326 11.2737L27.722 9.63072L27.1518 8.92663L24.9984 9.94894Z" fill="white"/>
<defs>
<linearGradient id="paint0_linear_14216_28594" x1="6.27673" y1="6.2767" x2="25.1832" y2="26.2635" gradientUnits="userSpaceOnUse">
<stop offset="0.0273393" stop-color="#949AA0"/>
<stop offset="0.403335" stop-color="#1A1D1E"/>
<stop offset="1" stop-color="#040606"/>
</linearGradient>
<linearGradient id="paint1_linear_14216_28594" x1="16" y1="7.63257" x2="16" y2="24.3675" gradientUnits="userSpaceOnUse">
<stop stop-color="#7CD1F4"/>
<stop offset="1" stop-color="#1274B9"/>
</linearGradient>
</defs>
</svg>
