<svg width="32" height="32" viewBox="0 0 32 32" fill="none" xmlns="http://www.w3.org/2000/svg">
<path d="M16 29.5C23.4558 29.5 29.5 23.4558 29.5 16C29.5 8.54416 23.4558 2.5 16 2.5C8.54416 2.5 2.5 8.54416 2.5 16C2.5 23.4558 8.54416 29.5 16 29.5Z" fill="#7D2AE7"/>
<path d="M16 29.5C23.4558 29.5 29.5 23.4558 29.5 16C29.5 8.54416 23.4558 2.5 16 2.5C8.54416 2.5 2.5 8.54416 2.5 16C2.5 23.4558 8.54416 29.5 16 29.5Z" fill="url(#paint0_radial_20449_40537)"/>
<path d="M16 29.5C23.4558 29.5 29.5 23.4558 29.5 16C29.5 8.54416 23.4558 2.5 16 2.5C8.54416 2.5 2.5 8.54416 2.5 16C2.5 23.4558 8.54416 29.5 16 29.5Z" fill="url(#paint1_radial_20449_40537)"/>
<path d="M16 29.5C23.4558 29.5 29.5 23.4558 29.5 16C29.5 8.54416 23.4558 2.5 16 2.5C8.54416 2.5 2.5 8.54416 2.5 16C2.5 23.4558 8.54416 29.5 16 29.5Z" fill="url(#paint2_radial_20449_40537)"/>
<path d="M16 29.5C23.4558 29.5 29.5 23.4558 29.5 16C29.5 8.54416 23.4558 2.5 16 2.5C8.54416 2.5 2.5 8.54416 2.5 16C2.5 23.4558 8.54416 29.5 16 29.5Z" fill="url(#paint3_radial_20449_40537)"/>
<path d="M21.828 18.7693C21.7166 18.7693 21.6186 18.8634 21.5165 19.0689C20.3644 21.4052 18.3743 23.0584 16.0714 23.0584C13.4087 23.0584 11.7597 20.6546 11.7597 17.3339C11.7597 11.7089 14.8938 8.45666 17.6466 8.45666C18.9329 8.45666 19.7185 9.26503 19.7185 10.5514C19.7185 12.0782 18.8511 12.8866 18.8511 13.425C18.8511 13.6667 19.0014 13.8131 19.2996 13.8131C20.4974 13.8131 21.9032 12.4367 21.9032 10.4923C21.9032 8.60705 20.2623 7.22128 17.5096 7.22128C12.9602 7.22128 8.91699 11.439 8.91699 17.2748C8.91699 21.7921 11.4965 24.7771 15.4766 24.7771C19.701 24.7771 22.1437 20.5741 22.1437 19.2099C22.1437 18.9077 21.9892 18.7693 21.828 18.7693Z" fill="white"/>
<defs>
<radialGradient id="paint0_radial_20449_40537" cx="0" cy="0" r="1" gradientUnits="userSpaceOnUse" gradientTransform="translate(7.71539 26.4307) rotate(-49.416) scale(20.8822)">
<stop stop-color="#6420FF"/>
<stop offset="1" stop-color="#6420FF" stop-opacity="0"/>
</radialGradient>
<radialGradient id="paint1_radial_20449_40537" cx="0" cy="0" r="1" gradientUnits="userSpaceOnUse" gradientTransform="translate(9.64785 5.56942) rotate(54.703) scale(23.5485)">
<stop stop-color="#00C4CC"/>
<stop offset="1" stop-color="#00C4CC" stop-opacity="0"/>
</radialGradient>
<radialGradient id="paint2_radial_20449_40537" cx="0" cy="0" r="1" gradientUnits="userSpaceOnUse" gradientTransform="translate(7.71526 26.4305) rotate(-45.1954) scale(20.6294 9.48774)">
<stop stop-color="#6420FF"/>
<stop offset="1" stop-color="#6420FF" stop-opacity="0"/>
</radialGradient>
<radialGradient id="paint3_radial_20449_40537" cx="0" cy="0" r="1" gradientUnits="userSpaceOnUse" gradientTransform="translate(13.5416 6.1379) rotate(66.5198) scale(21.257 35.6102)">
<stop stop-color="#00C4CC" stop-opacity="0.725916"/>
<stop offset="0.0001" stop-color="#00C4CC"/>
<stop offset="1" stop-color="#00C4CC" stop-opacity="0"/>
</radialGradient>
</defs>
</svg>
