<svg width="32" height="32" viewBox="0 0 32 32" fill="none" xmlns="http://www.w3.org/2000/svg">
<path fill-rule="evenodd" clip-rule="evenodd" d="M19.4935 2.50293C22.1262 2.50293 23.4215 2.50293 24.8435 2.94978C25.6067 3.22613 26.2997 3.66687 26.8736 4.2408C27.4476 4.81473 27.8883 5.50781 28.1646 6.27098C28.6115 7.68098 28.6115 8.98832 28.6115 11.6091V19.4954C28.6115 22.1131 28.6115 23.4204 28.1646 24.8335C27.8883 25.5966 27.4476 26.2897 26.8736 26.8636C26.2997 27.4376 25.6067 27.8783 24.8435 28.1547C23.4335 28.6015 22.1262 28.6015 19.5056 28.6015H11.5953C8.97764 28.6015 7.67033 28.6015 6.25734 28.1547C5.4942 27.8783 4.80113 27.4376 4.22722 26.8636C3.6533 26.2897 3.21257 25.5966 2.93623 24.8335C2.50146 23.4235 2.50146 22.1282 2.50146 19.4954V11.597C2.50146 8.97927 2.50146 7.67192 2.94831 6.2589C3.22465 5.49574 3.66538 4.80265 4.23929 4.22872C4.81321 3.65479 5.50627 3.21405 6.26942 2.9377C7.66731 2.50293 8.97764 2.50293 11.5953 2.50293H19.4935Z" fill="url(#paint0_linear_14570_116858)"/>
<path d="M16.2088 11.0564C17.4914 11.0584 18.732 11.514 19.7111 12.3426C19.8122 12.4343 19.9445 12.4837 20.0809 12.4809C20.2173 12.4781 20.3475 12.4232 20.4448 12.3275L21.4532 11.3161C21.5037 11.2659 21.5433 11.2058 21.5695 11.1396C21.5957 11.0733 21.6079 11.0024 21.6053 10.9312C21.6028 10.86 21.5855 10.7902 21.5547 10.726C21.5238 10.6618 21.48 10.6047 21.426 10.5582C20.634 9.88449 19.7182 9.3717 18.7299 9.04861L19.0318 7.56011C19.0475 7.48361 19.0459 7.40457 19.0273 7.32874C19.0086 7.25291 18.9732 7.1822 18.9238 7.12176C18.8743 7.06131 18.812 7.01266 18.7414 6.97933C18.6708 6.94599 18.5936 6.92883 18.5155 6.92908H16.5742C16.4539 6.92896 16.3371 6.96989 16.2433 7.0451C16.1494 7.12031 16.084 7.2253 16.0579 7.34272L15.7861 8.67422C13.2017 8.80103 11.0098 10.0812 11.0098 12.7049C11.0098 14.9724 12.8213 15.9476 14.7355 16.63C16.547 17.3033 17.5071 17.5539 17.5071 18.5019C17.5071 19.45 16.55 20.0478 15.14 20.0478C13.7717 20.0696 12.4497 19.5523 11.4596 18.6076C11.3614 18.511 11.2291 18.4569 11.0913 18.4569C10.9535 18.4569 10.8212 18.511 10.7229 18.6076L9.64208 19.6644C9.59158 19.7131 9.55142 19.7715 9.52399 19.8361C9.49656 19.9006 9.48242 19.9701 9.48242 20.0403C9.48242 20.1104 9.49656 20.1799 9.52399 20.2445C9.55142 20.309 9.59158 20.3674 9.64208 20.4162C10.5228 21.2411 11.5977 21.8299 12.7669 22.1281L12.465 23.5079C12.4491 23.585 12.4503 23.6646 12.4685 23.7412C12.4867 23.8178 12.5215 23.8894 12.5705 23.951C12.6195 24.0127 12.6814 24.0628 12.7518 24.0979C12.8223 24.1329 12.8996 24.1521 12.9783 24.154H14.9257C15.0469 24.1547 15.1647 24.1136 15.2592 24.0378C15.3538 23.9619 15.4193 23.8558 15.445 23.7374L15.7258 22.43C18.8235 22.2398 20.7165 20.5732 20.7165 18.1336C20.7165 15.8873 18.8295 14.9392 16.5379 14.1663C15.2276 13.6741 14.0954 13.3511 14.0954 12.3789C14.0954 11.4067 15.1521 11.0564 16.2088 11.0564Z" fill="white"/>
<defs>
<linearGradient id="paint0_linear_14570_116858" x1="15.5444" y1="28.5894" x2="15.5444" y2="2.50293" gradientUnits="userSpaceOnUse">
<stop stop-color="#00C244"/>
<stop offset="1" stop-color="#00D64B"/>
</linearGradient>
</defs>
</svg>
