<svg width="32" height="32" viewBox="0 0 32 32" fill="none" xmlns="http://www.w3.org/2000/svg">
<path d="M16.0007 2.00382C16.0007 2.00382 24.2529 1.63483 28.628 9.8999H15.2986C15.2986 9.8999 12.783 9.81911 10.6342 12.8599C10.0169 14.1363 9.35344 15.451 10.098 18.042C9.02541 16.2313 4.40356 8.21234 4.40356 8.21234C4.40356 8.21234 7.66356 2.33057 16.0006 2.00382H16.0007Z" fill="#EF3F36"/>
<path d="M28.1996 22.9857C28.1996 22.9857 24.3918 30.2935 15.0247 29.9322C16.1821 27.937 21.6912 18.4302 21.6912 18.4302C21.6912 18.4302 23.0222 16.3005 21.452 12.9253C20.6533 11.7528 19.8393 10.5265 17.216 9.87293C19.3263 9.85383 28.6048 9.87293 28.6048 9.87293C28.6048 9.87293 32.0807 15.6278 28.1996 22.9857Z" fill="#FCD900"/>
<path d="M3.85931 23.0434C3.85931 23.0434 -0.588992 16.1045 4.41095 8.20074C5.56452 10.1959 11.0737 19.7027 11.0737 19.7027C11.0737 19.7027 12.262 21.9171 15.9772 22.2475C17.3932 22.1438 18.8669 22.0554 20.7497 20.1217C19.7117 21.9517 15.0551 29.9476 15.0551 29.9476C15.0551 29.9476 8.31134 30.0707 3.8592 23.0434H3.85931Z" fill="#61BC5B"/>
<path d="M15.0208 30.0013L16.8957 22.2053C16.8957 22.2053 18.9559 22.0437 20.6844 20.1563C19.6118 22.0362 15.0208 30.0013 15.0208 30.0013Z" fill="#5AB055"/>
<path d="M9.71973 16.089C9.71973 12.6524 12.5168 9.8653 15.9658 9.8653C19.4148 9.8653 22.2119 12.6524 22.2119 16.089C22.2119 19.5258 19.4148 22.3128 15.9658 22.3128C12.5168 22.309 9.71973 19.5258 9.71973 16.089Z" fill="white"/>
<path d="M10.7654 16.0891C10.7654 13.2291 13.0918 10.9071 15.9661 10.9071C18.8364 10.9071 21.1667 13.2252 21.1667 16.0891C21.1667 18.9493 18.8403 21.2713 15.9661 21.2713C13.0957 21.2713 10.7654 18.9493 10.7654 16.0891Z" fill="url(#paint0_linear_14216_28632)"/>
<path d="M28.6009 9.87685L20.881 12.1334C20.881 12.1334 19.716 10.4303 17.2122 9.87685C19.3842 9.86528 28.6009 9.87685 28.6009 9.87685Z" fill="#EACA05"/>
<path d="M9.94759 17.7577C8.86337 15.8855 4.40356 8.21234 4.40356 8.21234L10.1211 13.848C10.1211 13.848 9.53465 15.0513 9.75465 16.7735L9.94748 17.7577H9.94759Z" fill="#DF3A32"/>
<defs>
<linearGradient id="paint0_linear_14216_28632" x1="15.9658" y1="10.9803" x2="15.9658" y2="20.9593" gradientUnits="userSpaceOnUse">
<stop stop-color="#86BBE5"/>
<stop offset="1" stop-color="#1072BA"/>
</linearGradient>
</defs>
</svg>
