<svg width="32" height="32" viewBox="0 0 32 32" fill="none" xmlns="http://www.w3.org/2000/svg">
<path d="M16.0005 2.00385C16.0005 2.00385 24.2527 1.63486 28.6278 9.89993H15.2983C15.2983 9.89993 12.7828 9.81914 10.634 12.86C10.0167 14.1363 9.3532 15.451 10.0978 18.0421C9.02517 16.2314 4.40332 8.21237 4.40332 8.21237C4.40332 8.21237 7.66332 2.3306 16.0004 2.00385H16.0005Z" fill="#EF3F36"/>
<path d="M28.1994 22.9857C28.1994 22.9857 24.3915 30.2935 15.0244 29.9321C16.1818 27.937 21.691 18.4302 21.691 18.4302C21.691 18.4302 23.022 16.3005 21.4518 12.9253C20.6531 11.7528 19.8391 10.5265 17.2157 9.87292C19.3261 9.85381 28.6045 9.87292 28.6045 9.87292C28.6045 9.87292 32.0805 15.6278 28.1994 22.9857Z" fill="#FCD900"/>
<path d="M3.85931 23.0434C3.85931 23.0434 -0.588992 16.1045 4.41095 8.20076C5.56452 10.196 11.0737 19.7028 11.0737 19.7028C11.0737 19.7028 12.262 21.9171 15.9772 22.2475C17.3932 22.1438 18.8669 22.0554 20.7497 20.1218C19.7117 21.9517 15.0551 29.9477 15.0551 29.9477C15.0551 29.9477 8.31134 30.0707 3.8592 23.0434H3.85931Z" fill="#61BC5B"/>
<path d="M15.0208 30.0014L16.8957 22.2053C16.8957 22.2053 18.9559 22.0438 20.6844 20.1563C19.6118 22.0362 15.0208 30.0014 15.0208 30.0014Z" fill="#5AB055"/>
<path d="M9.71973 16.089C9.71973 12.6524 12.5168 9.86528 15.9658 9.86528C19.4148 9.86528 22.2119 12.6524 22.2119 16.089C22.2119 19.5258 19.4148 22.3128 15.9658 22.3128C12.5168 22.3089 9.71973 19.5258 9.71973 16.089Z" fill="white"/>
<path d="M10.7651 16.0891C10.7651 13.229 13.0916 10.9071 15.9658 10.9071C18.8361 10.9071 21.1664 13.2252 21.1664 16.0891C21.1664 18.9493 18.8401 21.2712 15.9658 21.2712C13.0954 21.2712 10.7651 18.9493 10.7651 16.0891Z" fill="url(#paint0_linear_14216_26969)"/>
<path d="M28.6007 9.87685L20.8808 12.1334C20.8808 12.1334 19.7157 10.4303 17.2119 9.87685C19.384 9.86528 28.6007 9.87685 28.6007 9.87685Z" fill="#EACA05"/>
<path d="M9.94735 17.7577C8.86313 15.8855 4.40332 8.21234 4.40332 8.21234L10.1209 13.848C10.1209 13.848 9.53441 15.0513 9.75441 16.7735L9.94724 17.7577H9.94735Z" fill="#DF3A32"/>
<defs>
<linearGradient id="paint0_linear_14216_26969" x1="15.9656" y1="10.9803" x2="15.9656" y2="20.9593" gradientUnits="userSpaceOnUse">
<stop stop-color="#86BBE5"/>
<stop offset="1" stop-color="#1072BA"/>
</linearGradient>
</defs>
</svg>
