<svg width="32" height="32" viewBox="0 0 32 32" fill="none" xmlns="http://www.w3.org/2000/svg">
<path fill-rule="evenodd" clip-rule="evenodd" d="M15.0117 12.5602C14.9117 12.4947 14.8117 12.4291 14.7123 12.363C14.2927 12.6326 13.8744 12.9033 13.4561 13.1741C12.6691 13.6835 11.8822 14.1929 11.0869 14.694C10.8 13.8245 10.1816 13.1263 9.30931 12.8545C8.69388 12.6628 7.93062 12.6878 7.14138 12.7137C6.66548 12.7293 6.18012 12.7452 5.71204 12.7141V18.5695C6.19123 18.5473 6.66733 18.5608 7.12866 18.5739C7.62556 18.5881 8.10534 18.6017 8.55345 18.5695C9.93903 18.4699 10.7764 17.6265 11.129 16.5054C11.7227 16.8938 12.3064 17.2923 12.89 17.6909C13.5029 18.1093 14.1158 18.5278 14.7403 18.9346C15.1416 18.6778 15.5454 18.4147 15.9498 18.1513C16.7252 17.6463 17.5026 17.14 18.2675 16.6738V18.5695H22.2289V16.7019C21.9945 16.6984 21.7548 16.7003 21.515 16.7021C21.1246 16.7052 20.7342 16.7082 20.3671 16.688V12.7141H18.2675V14.7081C18.0077 14.8743 17.7486 15.0411 17.4895 15.2079C16.7966 15.6541 16.1038 16.1002 15.3981 16.5335C15.3429 16.4973 15.2852 16.4635 15.2276 16.4297C15.1263 16.3703 15.0249 16.3108 14.9363 16.2386C15.3333 15.9812 15.7261 15.7196 16.1189 15.4581C16.6543 15.1016 17.1898 14.7451 17.7358 14.3991C17.3447 14.1033 16.9276 13.8337 16.504 13.5706C15.6323 14.1302 14.7573 14.6863 13.8822 15.2424C13.809 15.2889 13.7357 15.3355 13.6625 15.382C13.5911 15.3272 13.5148 15.2773 13.4384 15.2275C13.3622 15.1777 13.286 15.1278 13.2146 15.0731C13.6056 14.8232 13.9943 14.571 14.383 14.3187C14.9292 13.9643 15.4754 13.6098 16.028 13.2617C15.7033 13.0138 15.3574 12.787 15.0117 12.5602ZM7.71358 16.702V14.5957C7.71237 14.5758 7.71134 14.5559 7.72752 14.5536C8.3337 14.5146 8.77054 14.5774 9.02927 14.8765C9.41697 15.3248 9.3285 16.1661 8.88931 16.5054C8.62309 16.7112 8.28755 16.7077 7.85736 16.7032C7.81056 16.7027 7.76265 16.7022 7.71358 16.702Z" fill="#0083CA"/>
<path d="M24.8742 12.7141H22.7746C22.7583 12.7164 22.7594 12.7361 22.7605 12.756L22.7605 18.5696H26.7218V16.702H24.8742V12.7141Z" fill="#0083CA"/>
<path fill-rule="evenodd" clip-rule="evenodd" d="M16.4338 2H15.566C11.3727 2.23159 8.33182 3.85109 6.1039 6.08629C3.88618 8.31113 2.22774 11.3142 2.01669 15.5507C2.01904 15.567 2.01367 15.5757 2.00269 15.5788V16.4213C2.22309 20.674 3.87254 23.6461 6.10384 25.8997C8.33514 28.1533 11.3454 29.7607 15.566 29.9999H16.4198C20.7244 29.7875 23.5761 28.1177 25.8959 25.9138C28.1042 23.5936 29.7827 20.7419 29.997 16.4213V15.5788C29.7766 11.3261 28.1272 8.35388 25.8959 6.10033C23.6646 3.84679 20.6549 2.2388 16.4338 2ZM10.569 4.85053C11.245 4.51516 11.9908 4.23144 12.8225 4.00803C13.6604 3.78291 14.5787 3.66134 15.5521 3.61484C17.5322 3.52026 19.381 3.9611 20.8011 4.55567C22.2648 5.16846 23.5069 6.0163 24.5384 7.01301C26.623 9.0274 28.2026 11.6689 28.3875 15.5647C28.4853 17.6212 28.0333 19.3189 27.4357 20.7884C26.2541 23.6935 24.1221 25.7989 21.4169 27.1635C20.0365 27.8597 18.3705 28.2933 16.4478 28.3852C14.4434 28.4809 12.6634 28.0536 11.2269 27.4444C8.32193 26.2124 6.22286 24.1854 4.8441 21.4343C4.14593 20.041 3.70397 18.4065 3.61242 16.4634C3.46721 13.3812 4.46991 11.0308 5.62796 9.20359C6.81443 7.33167 8.51131 5.87129 10.569 4.85053Z" fill="#0083CA"/>
</svg>
