<svg width="32" height="32" viewBox="0 0 32 32" fill="none" xmlns="http://www.w3.org/2000/svg">
<path d="M26.4129 6.91815C24.4709 6.06453 22.3944 5.44413 20.2236 5.0909C19.957 5.54375 19.6455 6.15283 19.4308 6.63738C17.1231 6.31133 14.8366 6.31133 12.5714 6.63738C12.3567 6.15283 12.0381 5.54375 11.7692 5.0909C9.596 5.44413 7.51719 6.06679 5.57524 6.92268C1.6583 12.4836 0.596486 17.9065 1.1274 23.2524C3.72532 25.0751 6.243 26.1823 8.71822 26.9068C9.32936 26.1166 9.87442 25.2766 10.344 24.3913C9.4497 24.072 8.59317 23.6781 7.78382 23.2206C7.99854 23.0713 8.20855 22.915 8.41148 22.7543C13.3478 24.9234 18.7111 24.9234 23.5885 22.7543C23.7937 22.915 24.0037 23.0713 24.2161 23.2206C23.4044 23.6803 22.5455 24.0743 21.6512 24.3935C22.1208 25.2766 22.6634 26.1189 23.2769 26.9091C25.7545 26.1845 28.2746 25.0774 30.8725 23.2524C31.4955 17.0552 29.8083 11.6821 26.4129 6.91815ZM11.0165 19.9647C9.53465 19.9647 8.31945 18.665 8.31945 17.0823C8.31945 15.4996 9.50869 14.1977 11.0165 14.1977C12.5243 14.1977 13.7394 15.4973 13.7135 17.0823C13.7159 18.665 12.5243 19.9647 11.0165 19.9647ZM20.9835 19.9647C19.5016 19.9647 18.2864 18.665 18.2864 17.0823C18.2864 15.4996 19.4757 14.1977 20.9835 14.1977C22.4912 14.1977 23.7064 15.4973 23.6805 17.0823C23.6805 18.665 22.4912 19.9647 20.9835 19.9647Z" fill="#5865F2"/>
</svg>
