<svg width="32" height="32" viewBox="0 0 32 32" fill="none" xmlns="http://www.w3.org/2000/svg">
<rect x="1" y="1" width="30" height="30" rx="15" fill="#FFD663"/>
<path fill-rule="evenodd" clip-rule="evenodd" d="M1.07406 14.5C1.02508 14.9934 1 15.4938 1 16C1 24.2843 7.71573 31 16 31C24.2843 31 31 24.2843 31 16C31 15.4937 30.9749 14.9934 30.9259 14.5C30.1733 22.08 23.778 28 16 28C8.22198 28 1.82665 22.08 1.07406 14.5Z" fill="#FFD04C"/>
<path fill-rule="evenodd" clip-rule="evenodd" d="M11.6838 22.9487C12.2077 23.1233 12.7741 22.8401 12.9487 22.3162C13.3511 21.109 14.4356 20 16 20C17.5645 20 18.6489 21.109 19.0513 22.3162C19.226 22.8401 19.7923 23.1233 20.3163 22.9487C20.8402 22.774 21.1234 22.2077 20.9487 21.6837C20.3511 19.8909 18.6461 18 16 18C13.3539 18 11.6489 19.8909 11.0513 21.6837C10.8767 22.2077 11.1599 22.774 11.6838 22.9487Z" fill="#52565F"/>
<path fill-rule="evenodd" clip-rule="evenodd" d="M25.6466 15.6465C25.5126 15.7804 25.4659 15.9785 25.5258 16.1581L26.2095 18.2094L24.1582 17.5257C23.9786 17.4658 23.7805 17.5125 23.6466 17.6465C23.5126 17.7804 23.4659 17.9785 23.5258 18.1581L24.5258 21.1581C24.6131 21.4201 24.8963 21.5617 25.1582 21.4744C25.4202 21.387 25.5618 21.1039 25.4745 20.8419L24.7907 18.7906L26.842 19.4744C27.0217 19.5342 27.2197 19.4875 27.3537 19.3536C27.4876 19.2197 27.5343 19.0216 27.4745 18.8419L26.7907 16.7906L28.842 17.4744C29.104 17.5617 29.3871 17.4201 29.4745 17.1581C29.5618 16.8962 29.4202 16.613 29.1582 16.5257L26.1582 15.5257C25.9786 15.4658 25.7805 15.5125 25.6466 15.6465Z" fill="#FB9C74"/>
<path fill-rule="evenodd" clip-rule="evenodd" d="M6.35344 15.6465C6.48736 15.7804 6.53412 15.9785 6.47423 16.1581L5.79046 18.2094L7.84178 17.5257C8.02144 17.4658 8.21953 17.5125 8.35344 17.6465C8.48736 17.7804 8.53412 17.9785 8.47423 18.1581L7.47423 21.1581C7.38691 21.4201 7.10375 21.5617 6.84178 21.4744C6.57981 21.387 6.43823 21.1039 6.52555 20.8419L7.20932 18.7906L5.15801 19.4744C4.97834 19.5342 4.78025 19.4875 4.64634 19.3536C4.51242 19.2197 4.46566 19.0216 4.52555 18.8419L5.20932 16.7906L3.15801 17.4744C2.89603 17.5617 2.61287 17.4201 2.52555 17.1581C2.43823 16.8962 2.57981 16.613 2.84178 16.5257L5.84178 15.5257C6.02145 15.4658 6.21953 15.5125 6.35344 15.6465Z" fill="#FB9C74"/>
<circle cx="21" cy="13" r="2" fill="#52565F"/>
<path fill-rule="evenodd" clip-rule="evenodd" d="M24.9487 10.6838C24.774 10.1599 24.2077 9.8767 23.6837 10.0513L17.6837 12.0513C17.1598 12.226 16.8766 12.7923 17.0513 13.3163C17.2259 13.8402 17.7923 14.1234 18.3162 13.9487L24.3162 11.9487C24.8401 11.7741 25.1233 11.2077 24.9487 10.6838Z" fill="#52565F"/>
<circle cx="11" cy="13" r="2" fill="#52565F"/>
<path fill-rule="evenodd" clip-rule="evenodd" d="M7.05134 10.6838C7.22599 10.1599 7.79231 9.8767 8.31625 10.0513L14.3163 12.0513C14.8402 12.226 15.1234 12.7923 14.9487 13.3163C14.7741 13.8402 14.2077 14.1234 13.6838 13.9487L7.6838 11.9487C7.15986 11.7741 6.8767 11.2077 7.05134 10.6838Z" fill="#52565F"/>
</svg>
