<svg width="32" height="32" viewBox="0 0 32 32" fill="none" xmlns="http://www.w3.org/2000/svg">
<path d="M29.1361 18.9311C27.268 26.4266 19.6763 31.0035 12.1672 29.1343C4.67172 27.2604 0.102106 19.6688 1.97024 12.1734C3.83838 4.67793 11.4254 0.100958 18.9163 1.97023C26.43 3.8166 30.9996 11.4311 29.1361 18.9311Z" fill="#ECEFF0"/>
<path d="M15.5654 19.6357C15.5013 19.6575 15.4647 19.6017 15.4211 19.5761C13.2843 18.315 11.1498 17.053 9.01772 15.7901C8.99707 15.7797 8.97564 15.7709 8.95361 15.7638V15.7356L8.99144 15.7138C9.04514 15.6997 9.09801 15.6826 9.14978 15.6625L14.1852 13.3714C14.6339 13.1669 15.0827 12.9656 15.5314 12.7631H15.5634C15.5634 12.8272 15.5634 12.8842 15.5634 12.9451C15.5652 15.1755 15.5658 17.4057 15.5654 19.6357Z" fill="#343535"/>
<path d="M15.5685 12.7646H15.5365C15.5365 12.7005 15.5429 12.6364 15.5429 12.5691C15.5429 10.0639 15.5429 7.55848 15.5429 5.05284C15.5355 4.98849 15.5399 4.92333 15.5557 4.86053H15.5692C15.8327 5.24964 16.0622 5.65991 16.3045 6.06185C18.2242 9.24614 20.1428 12.43 22.0604 15.6134C22.079 15.6448 22.0938 15.6775 22.1104 15.7122C22.0561 15.7006 22.0028 15.6849 21.9508 15.6654C21.5989 15.5064 21.2457 15.3448 20.8969 15.1827C20.3508 14.9326 19.8044 14.6831 19.2578 14.4339L16.6244 13.2409C16.2737 13.0794 15.9211 12.9223 15.5685 12.7646Z" fill="#2F3030"/>
<path d="M15.5578 4.85722C15.542 4.92002 15.5376 4.98518 15.545 5.04953C15.545 7.55474 15.545 10.0602 15.545 12.5658C15.545 12.6299 15.5412 12.694 15.5386 12.7613C15.0899 12.9639 14.6411 13.1652 14.1924 13.3697L9.15699 15.6608C9.10522 15.6808 9.05236 15.6979 8.99865 15.712C9.14417 15.4095 9.33328 15.1351 9.50572 14.8454C11.5037 11.5243 13.5031 8.2039 15.504 4.88414C15.5172 4.86575 15.5316 4.84819 15.5469 4.83157L15.5578 4.85722Z" fill="#828384"/>
<path d="M15.5685 12.7646C15.9211 12.9223 16.2738 13.0794 16.6257 13.2384L19.2592 14.4314C19.8062 14.6801 20.3526 14.9297 20.8983 15.1801C21.2496 15.341 21.6035 15.5039 21.9522 15.6629C22.0042 15.6824 22.0575 15.698 22.1118 15.7097C22.1759 15.7898 22.081 15.793 22.0522 15.8103C21.5054 16.1372 20.956 16.4597 20.4079 16.784C18.8348 17.7148 17.2621 18.6454 15.6898 19.5758C15.6501 19.5989 15.607 19.6159 15.5654 19.6357C15.5654 17.4062 15.5655 15.1767 15.5655 12.9467C15.5661 12.8858 15.5679 12.8255 15.5685 12.7646Z" fill="#131313"/>
<path d="M15.5428 20.9022L19.6616 18.4746C20.4479 18.0105 21.2338 17.5459 22.0193 17.0809L22.0905 17.0418C22.0975 17.106 22.0533 17.1399 22.0264 17.1771C20.2315 19.7075 18.4365 22.2371 16.6416 24.7658C16.3018 25.2453 15.9627 25.7274 15.6198 26.203C15.6018 26.228 15.5743 26.3453 15.5191 26.221C15.5627 26.1838 15.5435 26.1338 15.5435 26.0928C15.5439 24.362 15.5437 22.6318 15.5428 20.9022Z" fill="#2F3030"/>
<path d="M15.5425 20.9025C15.5425 22.6321 15.5425 24.3612 15.5425 26.0899C15.5425 26.1341 15.5617 26.1841 15.5181 26.2181C15.4265 26.163 15.3867 26.0642 15.3258 25.9828C13.2445 23.0511 11.1644 20.119 9.08523 17.1864C9.05895 17.1492 9.03459 17.1095 9.00766 17.0685C9.06151 17.037 9.09036 17.08 9.12177 17.0986C11.2265 18.3414 13.3309 19.5852 15.4348 20.8301C15.4739 20.8545 15.5072 20.8795 15.5425 20.9025Z" fill="#828384"/>
<path d="M15.5583 4.85718L15.5429 4.83346C15.5711 4.81551 15.5673 4.84179 15.5718 4.85526L15.5583 4.85718Z" fill="#393939"/>
</svg>
