<svg width="32" height="32" viewBox="0 0 32 32" fill="none" xmlns="http://www.w3.org/2000/svg">
<path d="M2.58536 17.4132C1.80488 16.6327 1.80488 15.3673 2.58536 14.5868L14.5868 2.58536C15.3673 1.80488 16.6327 1.80488 17.4132 2.58536L29.4146 14.5868C30.1951 15.3673 30.1951 16.6327 29.4146 17.4132L17.4132 29.4146C16.6327 30.1951 15.3673 30.1951 14.5868 29.4146L2.58536 17.4132Z" fill="#EE513B"/>
<path d="M12.1492 5.06164L10.9338 6.27698L14.0727 9.41589C13.9458 9.68831 13.8749 9.99213 13.8749 10.3125C13.8749 11.2221 14.4464 11.9982 15.2499 12.3014V19.9799C14.4464 20.283 13.8749 21.0592 13.8749 21.9688C13.8749 23.1424 14.8263 24.0938 15.9999 24.0938C17.1735 24.0938 18.1249 23.1424 18.1249 21.9688C18.1249 21.1441 17.6551 20.4292 16.9686 20.0769V12.3118L19.9692 15.3123C19.8484 15.5792 19.7811 15.8755 19.7811 16.1875C19.7811 17.3611 20.7325 18.3125 21.9061 18.3125C23.0797 18.3125 24.0311 17.3611 24.0311 16.1875C24.0311 15.0139 23.0797 14.0625 21.9061 14.0625C21.6781 14.0625 21.4584 14.0984 21.2525 14.1649L18.03 10.9424C18.0917 10.7434 18.1249 10.5318 18.1249 10.3125C18.1249 9.1389 17.1735 8.1875 15.9999 8.1875C15.7806 8.1875 15.569 8.22073 15.37 8.28242L12.1492 5.06164Z" fill="white"/>
</svg>
