<svg width="32" height="32" viewBox="0 0 32 32" fill="none" xmlns="http://www.w3.org/2000/svg">
<path d="M2 11.9556C2 8.47078 2 6.7284 2.67818 5.39739C3.27473 4.22661 4.22661 3.27473 5.39739 2.67818C6.7284 2 8.47078 2 11.9556 2H20.0444C23.5292 2 25.2716 2 26.6026 2.67818C27.7734 3.27473 28.7253 4.22661 29.3218 5.39739C30 6.7284 30 8.47078 30 11.9556V20.0444C30 23.5292 30 25.2716 29.3218 26.6026C28.7253 27.7734 27.7734 28.7253 26.6026 29.3218C25.2716 30 23.5292 30 20.0444 30H11.9556C8.47078 30 6.7284 30 5.39739 29.3218C4.22661 28.7253 3.27473 27.7734 2.67818 26.6026C2 25.2716 2 23.5292 2 20.0444V11.9556Z" fill="white"/>
<path d="M11.9085 19.6783L8.48712 25.7168C8.48712 25.7168 8.37344 25.6615 8.21899 25.547C8.70458 25.9206 9.17658 25.9999 9.17658 25.9999H22.6136C23.355 25.9999 23.5094 25.7168 23.5094 25.7168C23.5119 25.7156 23.5131 25.7143 23.5156 25.7131L20.0967 19.6783H11.9085Z" fill="#4285F4"/>
<path d="M20.0967 19.6783H26.9974C26.9628 20.4985 26.607 20.9779 26.607 20.9779L26.3475 21.4282C26.329 21.4546 26.3179 21.4697 26.3179 21.4697L25.7532 22.4611L24.4855 24.6676C24.4484 24.757 24.4052 24.8387 24.3595 24.9167C24.3422 24.9432 24.3261 24.9721 24.3076 24.9973C24.3026 25.0048 24.2977 25.0123 24.2927 25.0199C24.1358 25.2413 23.9604 25.4124 23.7849 25.547C23.6305 25.6627 23.5168 25.7168 23.5168 25.7168L20.0967 19.6783Z" fill="#EA4335"/>
<path d="M11.9086 19.6783H5.00781C5.04241 20.4985 5.39826 20.9779 5.39826 20.9779L5.65773 21.4282C5.67627 21.4546 5.68739 21.4697 5.68739 21.4697L6.25205 22.4611L7.51976 24.6676C7.55683 24.757 7.60008 24.8387 7.6458 24.9167C7.66309 24.9432 7.67915 24.9721 7.69769 24.9973C7.70263 25.0048 7.70757 25.0123 7.71252 25.0199C7.86944 25.2413 8.04489 25.4124 8.22034 25.547C8.37479 25.6627 8.48847 25.7168 8.48847 25.7168L11.9086 19.6783Z" fill="#1967D2"/>
<path d="M16.0022 12.4509L12.5413 6.34322C12.6562 6.22622 12.7884 6.14948 12.9206 6.0979C11.9 6.43379 11.4317 7.57986 11.4317 7.57986L5.1092 18.7348C5.02023 19.0845 4.99552 19.4003 5.00664 19.6783H11.9074L16.0022 12.4509Z" fill="#34A853"/>
<path d="M16.002 12.4509L20.0967 19.6783H26.9975C27.0086 19.4003 26.9839 19.0845 26.8949 18.7348L20.5724 7.57986C20.5724 7.57986 20.1029 6.43379 19.0835 6.0979C19.2145 6.14948 19.3479 6.22622 19.4628 6.34322L16.002 12.4509Z" fill="#FBBC05"/>
<path d="M16.0019 12.4512L19.4628 6.34346C19.3479 6.22646 19.2144 6.14973 19.0835 6.09815C18.9327 6.04908 18.7709 6.01637 18.5954 6.00757H18.4125H13.5913H13.4084C13.2342 6.01512 13.0711 6.04783 12.9203 6.09815C12.7894 6.14973 12.6559 6.22646 12.541 6.34346L16.0019 12.4512Z" fill="#188038"/>
</svg>
