<svg width="32" height="32" viewBox="0 0 32 32" fill="none" xmlns="http://www.w3.org/2000/svg">
<path d="M27.8141 14.4263L5.84852 2.36263C4.91007 1.85315 4.0704 1.90087 3.55986 2.37838C3.19776 2.71269 3 3.2539 3 3.95425V28.0337C3 28.7345 3.21401 29.2757 3.55986 29.6097C4.08676 30.1032 4.91007 30.1508 5.84852 29.6254L27.8141 17.5616C29.3953 16.7022 29.3953 15.3018 27.8141 14.4263Z" fill="#F1471D"/>
<path d="M25.9363 18.6213C26.2001 17.7461 26.332 16.8068 26.332 15.8522C26.332 10.234 21.6058 5.66638 15.7934 5.66638C9.98087 5.66638 5.25513 10.234 5.25513 15.8522C5.25513 20.5631 8.56497 24.526 13.0602 25.6881L25.9363 18.6213Z" fill="#FCD117"/>
<path d="M22.5861 16.0021C22.5861 19.518 19.6377 22.3682 15.9997 22.3682C12.362 22.3682 9.41333 19.518 9.41333 16.0021C9.41333 12.486 12.362 9.63599 15.9997 9.63599C19.6375 9.63588 22.5861 12.4859 22.5861 16.0021Z" fill="#F48B15"/>
<path d="M16.0001 12.66V16.5747C15.7695 16.4479 15.5061 16.368 15.2262 16.368C14.37 16.368 13.6948 17.0369 13.6948 17.848C13.6948 18.6761 14.3863 19.3285 15.2262 19.3285C16.0827 19.3285 16.8235 18.6597 16.8235 17.848V14.2515H18.3053V12.66H16.0001Z" fill="white"/>
</svg>
