<svg width="32" height="32" viewBox="0 0 32 32" fill="none" xmlns="http://www.w3.org/2000/svg">
<circle cx="16" cy="16" r="14" fill="#F8591A"/>
<path d="M22.4485 18.2072C21.617 17.8564 20.9239 17.1435 20.4071 16.4214C19.8141 15.5923 19.2067 14.7775 18.5422 14.0047C17.9173 13.2788 17.2528 12.5832 16.531 11.9547C15.8108 11.327 15.0269 10.73 14.1636 10.3154C13.5849 10.0363 12.9887 9.82649 12.3718 9.64951C12.3018 9.63006 12.1134 9.54452 12.0578 9.63046C12.0236 9.6837 12.0498 9.78315 12.0569 9.84198C12.0721 9.96999 12.0872 10.0976 12.1031 10.2251C12.2875 11.7563 12.3575 13.3726 11.8821 14.8594C11.6269 15.6607 11.1619 16.393 10.5418 16.9606C10.0275 17.4305 9.29373 17.9064 8.56479 17.8724C6.45596 17.7833 7.40235 14.303 7.80003 13.1309C8.99449 9.66855 12.353 7.2705 15.9999 7.2705C20.752 7.2705 24.7002 11.2809 24.6696 16.0001C24.6584 17.4025 24.2085 18.9495 22.4485 18.2072ZM26.5663 12.9437C25.2419 8.35633 21.0146 5 15.9999 5C10.986 5 6.7579 8.35633 5.43347 12.9437C4.96071 14.5823 4.87553 16.3183 5.18443 17.9948C6.12286 23.1182 10.6066 27 15.9999 27C21.3941 27 25.877 23.1182 26.8169 17.9948C27.1245 16.318 27.0378 14.5825 26.5663 12.9437Z" fill="white"/>
</svg>
