<svg width="32" height="32" viewBox="0 0 32 32" fill="none" xmlns="http://www.w3.org/2000/svg">
<path fill-rule="evenodd" clip-rule="evenodd" d="M9.85633 2C4.10398 2 2 4.10361 2 9.8548V22.1452C2 27.8964 4.10398 30 9.85633 30H22.1399C27.8921 30 30 27.8964 30 22.1452V9.8548C30 4.10361 27.896 2 22.1437 2H9.85633Z" fill="url(#paint0_linear_14216_28608)"/>
<path fill-rule="evenodd" clip-rule="evenodd" d="M14.2135 18.2394H15.3376L14.7736 16.9279L14.2135 18.2394ZM13.9367 18.9004L13.6031 19.6635H12.8438L14.4585 16.0002H15.1148L16.7229 19.6635H15.9434L15.6141 18.9004H13.9367ZM26.155 19.6608H26.8889V16H26.155V19.6608ZM23.2341 18.0882H24.5869V17.4207H23.2341V16.6704H25.1979V16.0027H22.5005V19.6633H25.2685V18.9956H23.2341V18.0882ZM20.3182 18.5207L19.4862 16H18.8791L18.0471 18.5207L17.2374 16.002H16.4457L17.7235 19.6655H18.339L19.1723 17.2591L20.0057 19.6655H20.6265L21.901 16.002H21.1297L20.3182 18.5207ZM11.7236 18.0983C11.7236 18.6942 11.4276 19.0127 10.8902 19.0127C10.3499 19.0127 10.0524 18.685 10.0524 18.0729V16.0025H9.30861V18.0983C9.30861 19.1292 9.88158 19.7204 10.8801 19.7204C11.8885 19.7204 12.4667 19.118 12.4667 18.0677V16.0002H11.7236V18.0983ZM7.53414 16.0002H8.27746V19.6657H7.53414V18.1771H5.85486V19.6657H5.11108V16.0002H5.85486V17.4788H7.53414V16.0002Z" fill="white"/>
<path fill-rule="evenodd" clip-rule="evenodd" d="M15.9999 11.3333C13.4265 11.3333 11.3333 9.23986 11.3333 6.66663H11.9924C11.9924 8.87618 13.7904 10.6739 15.9999 10.6739C18.2095 10.6739 20.0074 8.87618 20.0074 6.66663H20.6666C20.6666 9.23986 18.5732 11.3333 15.9999 11.3333Z" fill="white"/>
<defs>
<linearGradient id="paint0_linear_14216_28608" x1="16" y1="2" x2="16" y2="30" gradientUnits="userSpaceOnUse">
<stop stop-color="#FB6361"/>
<stop offset="1" stop-color="#ED3E45"/>
</linearGradient>
</defs>
</svg>
