<svg width="32" height="32" viewBox="0 0 32 32" fill="none" xmlns="http://www.w3.org/2000/svg">
<g clip-path="url(#clip0_14216_28483)">
<path d="M27.0628 25.1429L32 12.0229L17.0514 8.68571L15.0857 14.2629L27.0628 25.1429Z" fill="#247CE6"/>
<path d="M32.0001 25.6457L24.4572 32L9.41724 28.1143L13.4401 20.8L32.0001 25.6457Z" fill="url(#paint0_linear_14216_28483)"/>
<path d="M4.43424 15.9086L0.594238 4.93714L17.5542 0L16.1828 14.1714L4.43424 15.9086Z" fill="url(#paint1_linear_14216_28483)"/>
<path d="M27.9314 18.5143L23.1771 10.3771L23.2686 10.3314L17.5543 0L0 18.9714V32L31.9086 25.6457L27.9314 18.5143Z" fill="url(#paint2_linear_14216_28483)"/>
<path d="M6.12573 6.1257H25.8743V25.8743H6.12573V6.1257Z" fill="black"/>
<path d="M7.95435 22.1714H15.3601V23.4057H7.95435V22.1714Z" fill="white"/>
<path d="M11.2001 8.68571H12.8458L16.3201 16.8686H14.4458L13.7144 15.04H10.2858L9.5544 16.8686H7.72583L11.2001 8.68571ZM13.0744 13.44L11.9773 10.7886L10.8801 13.44H13.0744Z" fill="white"/>
<path d="M15.8628 12.8457C15.8628 10.4685 17.6456 8.54853 20.1599 8.54853C21.7142 8.54853 22.6285 9.05139 23.4057 9.82853L22.2628 11.1542C21.6228 10.56 20.9828 10.24 20.1599 10.24C18.7885 10.24 17.7828 11.3828 17.7828 12.8C17.7828 14.2171 18.7428 15.4057 20.1599 15.4057C21.1199 15.4057 21.6685 15.04 22.3085 14.4457L23.4514 15.5885C22.5828 16.5028 21.6685 17.0514 20.0685 17.0514C17.6457 17.0514 15.8628 15.1771 15.8628 12.8457Z" fill="white"/>
</g>
<defs>
<linearGradient id="paint0_linear_14216_28483" x1="9.42501" y1="26.4023" x2="32.0001" y2="26.4023" gradientUnits="userSpaceOnUse">
<stop offset="0.194" stop-color="#00DAF0"/>
<stop offset="0.903" stop-color="#247CE6"/>
</linearGradient>
<linearGradient id="paint1_linear_14216_28483" x1="0.582353" y1="7.96114" x2="17.5588" y2="7.96114" gradientUnits="userSpaceOnUse">
<stop offset="0.194" stop-color="#00DAF0"/>
<stop offset="0.903" stop-color="#247CE6"/>
</linearGradient>
<linearGradient id="paint2_linear_14216_28483" x1="20.9719" y1="33.0158" x2="5.11863" y2="10.891" gradientUnits="userSpaceOnUse">
<stop offset="0.091" stop-color="#1DDF93"/>
<stop offset="0.484" stop-color="#00DAF0"/>
<stop offset="0.903" stop-color="#247CE6"/>
</linearGradient>
<clipPath id="clip0_14216_28483">
<rect width="32" height="32" fill="white"/>
</clipPath>
</defs>
</svg>
