<svg width="32" height="32" viewBox="0 0 32 32" fill="none" xmlns="http://www.w3.org/2000/svg">
<path d="M26.1825 10.2222L30.5441 19.9122L24.3773 30.4471L9.56445 18.3781L17.1398 11.0766L26.1825 10.2222Z" fill="url(#paint0_linear_14216_28476)"/>
<path d="M19.8854 19.5415L24.3773 30.4475L10.6927 25.7435L9.56445 18.3785L19.8854 19.5415Z" fill="#BB4EFC"/>
<path d="M11.0999 4.31224L17.3975 7.53967L11.7298 24.7008L0.31543 24.582L2.76754 19.1442L0.31543 12.1952L11.0999 4.31224Z" fill="#078EFC"/>
<path d="M19.0002 0.218969L21.9785 10.3538L0.31543 12.1952L7.20503 0.218969H19.0002Z" fill="url(#paint1_linear_14216_28476)"/>
<path d="M30.544 6.63723L17.8702 9.64523L0.31543 24.5819L11.6379 30.4475L21.4734 20.3076L30.544 6.63723Z" fill="url(#paint2_linear_14216_28476)"/>
<path d="M5.35352 5.25714H25.5057V25.4094H5.35352V5.25714Z" fill="black"/>
<path d="M7.36865 22.0841H14.9257V23.2933H7.36865V22.0841Z" fill="white"/>
<path d="M6.67734 11.8308V11.8061C6.59505 9.38558 8.49082 7.35632 10.9114 7.27449C10.9525 7.27312 10.9932 7.27221 11.0344 7.27221C12.2412 7.21049 13.4207 7.64478 14.2993 8.47449L13.1473 9.94009C12.5754 9.35861 11.79 9.03723 10.9745 9.05095C9.56511 9.15426 8.50134 10.3716 8.58819 11.7819V11.8066C8.47025 13.2196 9.52031 14.4603 10.9333 14.5783C10.9905 14.5828 11.0481 14.586 11.1057 14.5869C11.7215 14.6052 12.3263 14.4201 12.8268 14.0608V12.8082H10.9868V11.1428H14.596V14.9499C13.63 15.8436 12.3624 16.3401 11.0463 16.341C8.68648 16.3972 6.72808 14.5293 6.67185 12.1696C6.66957 12.0567 6.67139 11.9437 6.67734 11.8308Z" fill="white"/>
<path d="M15.3639 11.8308V11.8062C15.2994 9.36729 17.224 7.33804 19.6633 7.27358C22.1026 7.20912 24.1314 9.13369 24.1959 11.573C24.1977 11.6425 24.1977 11.7124 24.1963 11.7819V11.8066C24.2608 14.2455 22.3362 16.2747 19.8969 16.3392C17.4581 16.4036 15.4288 14.4791 15.3643 12.0398C15.3625 11.9703 15.3625 11.9008 15.3639 11.8308ZM22.2855 11.8308V11.8062C22.3705 10.3707 21.2757 9.13872 19.8402 9.05369C19.816 9.05232 19.7922 9.05141 19.768 9.05049C18.3527 9.08615 17.2345 10.2619 17.2702 11.6772C17.2711 11.712 17.2724 11.7467 17.2747 11.7819V11.8066C17.1897 13.242 18.2846 14.474 19.72 14.5591C19.7442 14.5604 19.768 14.5614 19.7922 14.5623C21.2075 14.5266 22.3257 13.3508 22.2901 11.9355C22.2891 11.9008 22.2878 11.8656 22.2855 11.8308Z" fill="white"/>
<defs>
<linearGradient id="paint0_linear_14216_28476" x1="24.7788" y1="12.508" x2="16.2259" y2="25.5487" gradientUnits="userSpaceOnUse">
<stop offset="0.174" stop-color="#078EFC"/>
<stop offset="0.204" stop-color="#118AFC"/>
<stop offset="0.435" stop-color="#5971FC"/>
<stop offset="0.627" stop-color="#8E5EFC"/>
<stop offset="0.77" stop-color="#AF52FC"/>
<stop offset="0.849" stop-color="#BB4EFC"/>
</linearGradient>
<linearGradient id="paint1_linear_14216_28476" x1="3.30726" y1="13.7758" x2="20.6523" y2="0.726541" gradientUnits="userSpaceOnUse">
<stop offset="0.174" stop-color="#078EFC"/>
<stop offset="0.204" stop-color="#118AFC"/>
<stop offset="0.435" stop-color="#5971FC"/>
<stop offset="0.627" stop-color="#8E5EFC"/>
<stop offset="0.77" stop-color="#AF52FC"/>
<stop offset="0.849" stop-color="#BB4EFC"/>
</linearGradient>
<linearGradient id="paint2_linear_14216_28476" x1="4.51512" y1="26.6258" x2="26.3208" y2="12.6137" gradientUnits="userSpaceOnUse">
<stop stop-color="#078EFC"/>
<stop offset="0.106" stop-color="#15A7D3"/>
<stop offset="0.228" stop-color="#23BFAA"/>
<stop offset="0.348" stop-color="#2DD28B"/>
<stop offset="0.463" stop-color="#35DF74"/>
<stop offset="0.573" stop-color="#39E767"/>
<stop offset="0.67" stop-color="#3BEA62"/>
</linearGradient>
</defs>
</svg>
