<svg width="32" height="32" viewBox="0 0 32 32" fill="none" xmlns="http://www.w3.org/2000/svg">
<g clip-path="url(#clip0_14216_28519)">
<path d="M28.0229 0.411447C27.2458 0.0457328 26.3772 -0.0456958 25.5086 0.0457328C25.3715 0.0457328 4.80005 1.78288 4.80005 1.78288L19.3372 18.9257L21.9886 19.0629L30.3086 10.0572C33.0972 7.26859 32.5029 2.28573 28.0229 0.411447Z" fill="url(#paint0_linear_14216_28519)"/>
<path d="M24.5028 21.5772L23.9085 22.4915L16.5943 13.5772L9.50854 18.3315L21.2571 31.0857C21.4857 31.3143 21.8057 31.4972 22.1257 31.68C22.7657 32 23.4971 32.0915 24.2285 31.8629C24.9143 31.68 25.4171 31.3143 25.8285 30.9029C25.8743 30.8572 30.7657 26.0115 30.7657 26.0115L24.5028 21.5772Z" fill="url(#paint1_linear_14216_28519)"/>
<path d="M20.8915 19.0172L8.96007 3.84001C8.45722 3.10858 7.68007 2.51429 6.67436 2.10287C5.89722 1.78287 4.98293 1.69144 4.16007 1.87429C-0.228498 2.83429 -1.23421 7.63429 1.60007 10.1943L9.87436 18.6972L20.8915 19.0172Z" fill="url(#paint2_linear_14216_28519)"/>
<path d="M28.8915 18.5143C27.3372 18.0571 26.4686 18.1943 24.4115 18.1485L7.04007 15.68L2.05721 20.4343C-1.09707 23.5428 -0.594216 28.9828 4.06864 31.3143C5.25721 31.9085 6.58293 32.0914 7.81721 31.9085C16.6401 30.2628 27.7029 27.6114 27.7944 27.6114C27.9772 27.5657 28.2058 27.52 28.3886 27.4743C31.2686 26.6057 32.4572 23.9085 31.7715 21.6228C31.4058 20.3428 30.4001 18.9714 28.8915 18.5143Z" fill="url(#paint3_linear_14216_28519)"/>
<path d="M6.12573 6.1257H25.8743V25.8743H6.12573V6.1257Z" fill="black"/>
<path d="M8 22.1714H15.4057V23.4057H8V22.1714Z" fill="white"/>
<path d="M16.3201 8.73145H20.1601C21.1201 8.73145 21.8516 9.00573 22.3087 9.46287C22.6744 9.82859 22.8573 10.2857 22.8573 10.88V10.9257C22.8573 11.84 22.3544 12.3886 21.7601 12.7086C22.7201 13.0743 23.3144 13.6229 23.3144 14.7657V14.8114C23.3144 16.32 22.0801 17.0972 20.2058 17.0972H16.2744V8.73145H16.3201ZM21.1201 11.1543C21.1201 10.6057 20.7087 10.2857 19.9316 10.2857H18.1487V12.0229H19.8401C20.6173 12.0686 21.1201 11.7943 21.1201 11.1543ZM20.2058 13.5772H18.103V15.4057H20.2516C21.0744 15.4057 21.5316 15.1314 21.5316 14.4914V14.4457C21.5773 13.9429 21.1658 13.5772 20.2058 13.5772Z" fill="white"/>
<path d="M7.95435 8.73145H9.78292V12.0229H13.1658V8.73145H14.9943V17.0057H13.1658V13.6686H9.78292V17.0057H7.95435V8.73145Z" fill="white"/>
</g>
<defs>
<linearGradient id="paint0_linear_14216_28519" x1="18.4755" y1="0.406419" x2="18.096" y2="17.9767" gradientUnits="userSpaceOnUse">
<stop offset="0.328" stop-color="#00B8F1"/>
<stop offset="0.973" stop-color="#9758FB"/>
</linearGradient>
<linearGradient id="paint1_linear_14216_28519" x1="26.672" y1="29.2649" x2="5.4546" y2="6.23363" gradientUnits="userSpaceOnUse">
<stop stop-color="#FFEE45"/>
<stop offset="1" stop-color="#9758FB"/>
</linearGradient>
<linearGradient id="paint2_linear_14216_28519" x1="14.1829" y1="4.33784" x2="9.77927" y2="13.7518" gradientUnits="userSpaceOnUse">
<stop offset="0.328" stop-color="#00B8F1"/>
<stop offset="0.79" stop-color="#9758FB"/>
</linearGradient>
<linearGradient id="paint3_linear_14216_28519" x1="-1.48976" y1="23.8281" x2="31.4588" y2="23.8281" gradientUnits="userSpaceOnUse">
<stop stop-color="#00B8F1"/>
<stop offset="0.306" stop-color="#9758FB"/>
<stop offset="0.989" stop-color="#FFEE45"/>
</linearGradient>
<clipPath id="clip0_14216_28519">
<rect width="32" height="32" fill="white"/>
</clipPath>
</defs>
</svg>
