<svg width="32" height="32" viewBox="0 0 32 32" fill="none" xmlns="http://www.w3.org/2000/svg">
<g clip-path="url(#clip0_14216_28488)">
<path d="M22.7656 6.9486L16.457 16.7772L26.697 32L31.9999 10.56L22.7656 6.9486Z" fill="url(#paint0_linear_14216_28488)"/>
<path d="M23.36 7.17714L22.4 0L8.59424 15.36L12.6171 19.3371L9.50852 32H26.6971L23.36 7.17714Z" fill="url(#paint1_linear_14216_28488)"/>
<path d="M22.4 0H5.30286L0 21.5314H25.4171L22.4 0Z" fill="url(#paint2_linear_14216_28488)"/>
<path d="M25.2799 21.5314L23.3599 7.17714L22.3999 0L19.0627 10.5143L25.2799 21.5314Z" fill="url(#paint3_linear_14216_28488)"/>
<path d="M25.8716 25.8815L6.12301 25.9324L6.07206 6.18384L25.8206 6.13288L25.8716 25.8815Z" fill="black"/>
<path d="M8.04395 22.2267L15.4496 22.2076L15.4528 23.4418L8.04713 23.461L8.04395 22.2267Z" fill="white"/>
<path d="M16.4572 15.1772H15.5886V13.6686H16.7315L17.0058 11.9314H15.9543V10.4229H17.2343L17.5086 8.73144H19.0629L18.7886 10.4229H20.4801L20.7543 8.73144H22.3086L22.0343 10.4229H22.9029V11.9314H21.7601L21.4858 13.6686H22.5372V15.1772H21.2572L20.9372 16.9143H19.3829L19.7029 15.1772H18.0115L17.6915 16.9143H16.1372L16.4572 15.1772ZM19.9772 13.6686L20.2515 11.9314H18.5601L18.2858 13.6686H19.9772Z" fill="white"/>
<path d="M7.95416 8.73144H11.7027C12.7542 8.73144 13.5313 9.00573 14.0799 9.5543C14.537 10.0114 14.7656 10.6514 14.7656 11.4286V11.4743C14.7656 12.16 14.6284 12.6629 14.2627 13.0743C13.9427 13.4857 13.5313 13.8057 12.9827 13.9886L14.9942 16.9143H12.8913L11.1999 14.4H9.69131V16.9143H7.90845L7.95416 8.73144ZM11.5656 12.7086C12.0227 12.7086 12.3427 12.6172 12.5713 12.3886C12.7999 12.16 12.937 11.8857 12.937 11.5657V11.52C12.937 11.1086 12.7999 10.8343 12.5713 10.6514C12.3427 10.4686 11.977 10.3772 11.5199 10.3772H9.73702V12.7086H11.5656Z" fill="white"/>
</g>
<defs>
<linearGradient id="paint0_linear_14216_28488" x1="10.489" y1="34.6455" x2="34.1882" y2="9.43637" gradientUnits="userSpaceOnUse">
<stop offset="0.016" stop-color="#B35BA3"/>
<stop offset="0.404" stop-color="#C41E57"/>
<stop offset="0.468" stop-color="#C41E57"/>
<stop offset="0.65" stop-color="#EB8523"/>
<stop offset="0.952" stop-color="#FEBD11"/>
</linearGradient>
<linearGradient id="paint1_linear_14216_28488" x1="8.10007" y1="33.5049" x2="31.797" y2="8.29806" gradientUnits="userSpaceOnUse">
<stop offset="0.016" stop-color="#B35BA3"/>
<stop offset="0.404" stop-color="#C41E57"/>
<stop offset="0.468" stop-color="#C41E57"/>
<stop offset="0.704" stop-color="#EB8523"/>
</linearGradient>
<linearGradient id="paint2_linear_14216_28488" x1="0.835658" y1="24.4242" x2="22.32" y2="4.2176" gradientUnits="userSpaceOnUse">
<stop offset="0.016" stop-color="#B35BA3"/>
<stop offset="0.661" stop-color="#C41E57"/>
</linearGradient>
<linearGradient id="paint3_linear_14216_28488" x1="22.8086" y1="-5.2832" x2="22.3354" y2="10.9874" gradientUnits="userSpaceOnUse">
<stop offset="0.5" stop-color="#C41E57"/>
<stop offset="0.667" stop-color="#D13F48"/>
<stop offset="0.795" stop-color="#D94F39"/>
<stop offset="0.866" stop-color="#DD5433"/>
</linearGradient>
<clipPath id="clip0_14216_28488">
<rect width="32" height="32" fill="white"/>
</clipPath>
</defs>
</svg>
