<svg width="32" height="32" viewBox="0 0 32 32" fill="none" xmlns="http://www.w3.org/2000/svg">
<g clip-path="url(#clip0_14216_28525)">
<path d="M32 12.4512L28.9788 10.8571L9.5662 0L1.74951 8.19246L9.883 18.7739L27.6741 20.2958L32 12.4512Z" fill="url(#paint0_linear_14216_28525)"/>
<path d="M23.0505 7.3746L20.2382 0.506027L12.6368 7.98671L5.37964 22.9458L22.5879 32L32 26.5051L23.0505 7.3746Z" fill="url(#paint1_linear_14216_28525)"/>
<path d="M9.56617 0L0 6.44343L3.55611 28.4215L12.7305 31.9493L24.5851 22.3191L9.56617 0Z" fill="url(#paint2_linear_14216_28525)"/>
<path d="M6.08081 6.03109H26.0186V25.9689H6.08081V6.03109Z" fill="black"/>
<path d="M7.875 22.2304H15.3516V23.4766H7.875V22.2304Z" fill="white"/>
<path d="M7.87524 8.62304H11.7133C12.1561 8.59688 12.5997 8.65825 13.0188 8.80365C13.4378 8.94904 13.8242 9.17561 14.1556 9.4704C14.6259 9.98687 14.8762 10.6664 14.8534 11.3645C14.8753 11.9325 14.7121 12.4923 14.3885 12.9597C14.065 13.4271 13.5984 13.7768 13.0591 13.9564L15.1027 16.947H12.9594L11.165 14.2554H9.71948V16.947H7.87524V8.62304ZM11.5637 12.6604C12.4609 12.6604 12.9594 12.162 12.9594 11.4642C12.9594 10.6667 12.4111 10.2679 11.5139 10.2679H9.66964V12.6604H11.5637V12.6604Z" fill="white"/>
<path d="M16.4983 8.62306H19.788C22.4298 8.62306 24.2241 10.4175 24.2241 12.81C24.2241 15.1527 22.4298 16.9969 19.788 16.9969H16.4983V8.62306ZM18.3425 10.2679V15.3022H19.788C20.1231 15.3232 20.4588 15.2736 20.7734 15.1565C21.088 15.0393 21.3745 14.8574 21.6142 14.6223C21.8539 14.3873 22.0415 14.1045 22.1649 13.7923C22.2882 13.4801 22.3445 13.1454 22.3301 12.81C22.3497 12.471 22.2974 12.1317 22.1766 11.8144C22.0558 11.4971 21.8692 11.2089 21.6292 10.9688C21.3891 10.7287 21.1009 10.5422 20.7836 10.4214C20.4663 10.3006 20.127 10.2483 19.788 10.2679H18.3425Z" fill="white"/>
</g>
<defs>
<linearGradient id="paint0_linear_14216_28525" x1="32.1033" y1="19.877" x2="-2.34512" y2="3.72937" gradientUnits="userSpaceOnUse">
<stop stop-color="#C90F5E"/>
<stop offset="0.221" stop-color="#C90F5E"/>
<stop offset="0.236" stop-color="#C90F5E"/>
<stop offset="0.356" stop-color="#CA135C"/>
<stop offset="0.466" stop-color="#CE1E57"/>
<stop offset="0.574" stop-color="#D4314E"/>
<stop offset="0.678" stop-color="#DC4B41"/>
<stop offset="0.782" stop-color="#E66D31"/>
<stop offset="0.883" stop-color="#F3961D"/>
<stop offset="0.942" stop-color="#FCB20F"/>
</linearGradient>
<linearGradient id="paint1_linear_14216_28525" x1="11.2727" y1="4.24408" x2="21.0505" y2="31.2439" gradientUnits="userSpaceOnUse">
<stop offset="0.042" stop-color="#077CFB"/>
<stop offset="0.445" stop-color="#C90F5E"/>
<stop offset="0.958" stop-color="#077CFB"/>
</linearGradient>
<linearGradient id="paint2_linear_14216_28525" x1="7.95246" y1="3.62697" x2="15.1744" y2="29.2933" gradientUnits="userSpaceOnUse">
<stop offset="0.277" stop-color="#C90F5E"/>
<stop offset="0.974" stop-color="#FCB20F"/>
</linearGradient>
<clipPath id="clip0_14216_28525">
<rect width="32" height="32" fill="white"/>
</clipPath>
</defs>
</svg>
