<svg width="32" height="32" viewBox="0 0 32 32" fill="none" xmlns="http://www.w3.org/2000/svg">
<g clip-path="url(#clip0_14216_28500)">
<path d="M18.1486 21.8972L15.36 6.3543C15.1772 5.25716 14.8115 4.16002 14.1258 3.10859C13.2115 1.64573 11.7486 0.640015 10.1029 0.228586C3.61147 -1.3257 -1.18853 5.16573 1.64576 10.9257L8.41147 25.4172C8.59433 25.8743 8.86862 26.3314 9.18862 26.7429C9.73719 27.4743 10.4686 28.0229 11.3372 28.2972C15.7258 29.6686 19.2458 25.7829 18.1486 21.8972Z" fill="url(#paint0_linear_14216_28500)"/>
<path d="M30.8115 12.1143C30.1715 11.1085 29.2572 10.3314 28.2058 9.87425L11.6572 0.777111C11.2001 0.54854 10.6972 0.319968 10.1487 0.182825C3.06295 -1.46289 -2.01134 6.30854 2.51438 12.3428C3.20009 13.2571 4.16009 13.9885 5.25723 14.4L21.9429 21.8971C22.3087 22.1257 22.6744 22.2628 23.0858 22.4C29.4858 24.4114 34.3315 17.6457 30.8115 12.1143Z" fill="url(#paint1_linear_14216_28500)"/>
<path d="M30.8114 12.1143C29.9885 10.8343 28.7085 9.92001 27.1999 9.5543C25.5999 9.18858 24.0914 9.32572 22.8114 9.8743L5.21136 16.5029C5.21136 16.5029 5.11993 16.5486 4.93707 16.6857C0.411361 18.4686 -1.82864 24.3657 1.8285 29.2572C2.65136 30.3543 3.79422 31.1772 5.07422 31.5429C7.49707 32.2743 9.69136 32 11.4742 31.04H11.5199L28.7085 21.8514C28.7085 21.8514 28.7085 21.8514 28.7542 21.8057C31.7714 20.0686 33.1885 15.8172 30.8114 12.1143Z" fill="url(#paint2_linear_14216_28500)"/>
<path d="M22.9942 5.85141C23.5428 4.61712 23.4971 3.10855 22.5828 1.73712C22.0799 0.914266 21.2571 0.365695 20.3428 0.137123C18.2856 -0.365734 16.5485 0.594266 15.7256 2.05712L1.59993 19.2C1.59993 19.2 1.59993 19.2 1.59993 19.2457C-0.411501 21.8971 -0.731501 25.8286 1.8285 29.2571C2.65136 30.3543 3.79421 31.1771 5.07421 31.5428C9.87421 33.0514 13.8971 30.4 15.1771 26.6057L22.9942 5.85141Z" fill="url(#paint3_linear_14216_28500)"/>
<path d="M6.12573 6.1257H25.8743V25.8743H6.12573V6.1257Z" fill="black"/>
<path d="M8 22.1714H15.4057V23.4057H8V22.1714Z" fill="white"/>
<path d="M10.4686 10.3772H8V8.73145H14.7657V10.3772H12.2514V16.9143H10.4686V10.3772Z" fill="white"/>
<path d="M14.8572 12.8457C14.8572 10.5143 16.5943 8.59426 19.1086 8.59426C20.6629 8.59426 21.5772 9.09712 22.3543 9.87426L21.2115 11.2C20.5715 10.6057 19.9315 10.2857 19.1086 10.2857C17.7372 10.2857 16.7315 11.4285 16.7315 12.8457V12.8C16.7315 14.2171 17.6915 15.36 19.1086 15.36C20.0229 15.36 20.6172 14.9943 21.2572 14.4L22.4 15.5428C21.5772 16.4571 20.6172 17.0057 19.0629 17.0057C16.64 17.0514 14.8572 15.1771 14.8572 12.8457Z" fill="white"/>
</g>
<defs>
<linearGradient id="paint0_linear_14216_28500" x1="0.811017" y1="14.2962" x2="18.3616" y2="14.2962" gradientUnits="userSpaceOnUse">
<stop stop-color="#905CFB"/>
<stop offset="0.068" stop-color="#776CF9"/>
<stop offset="0.173" stop-color="#5681F7"/>
<stop offset="0.286" stop-color="#3B92F5"/>
<stop offset="0.41" stop-color="#269FF4"/>
<stop offset="0.547" stop-color="#17A9F3"/>
<stop offset="0.711" stop-color="#0FAEF2"/>
<stop offset="0.968" stop-color="#0CB0F2"/>
</linearGradient>
<linearGradient id="paint1_linear_14216_28500" x1="2.42798" y1="4.42008" x2="31.6472" y2="20.053" gradientUnits="userSpaceOnUse">
<stop stop-color="#905CFB"/>
<stop offset="0.068" stop-color="#776CF9"/>
<stop offset="0.173" stop-color="#5681F7"/>
<stop offset="0.286" stop-color="#3B92F5"/>
<stop offset="0.41" stop-color="#269FF4"/>
<stop offset="0.547" stop-color="#17A9F3"/>
<stop offset="0.711" stop-color="#0FAEF2"/>
<stop offset="0.968" stop-color="#0CB0F2"/>
</linearGradient>
<linearGradient id="paint2_linear_14216_28500" x1="-8.81561" y1="32.3749" x2="25.5922" y2="15.1708" gradientUnits="userSpaceOnUse">
<stop stop-color="#3BEA62"/>
<stop offset="0.117" stop-color="#31DE80"/>
<stop offset="0.302" stop-color="#24CEA8"/>
<stop offset="0.484" stop-color="#1AC1C9"/>
<stop offset="0.659" stop-color="#12B7DF"/>
<stop offset="0.824" stop-color="#0EB2ED"/>
<stop offset="0.968" stop-color="#0CB0F2"/>
</linearGradient>
<linearGradient id="paint3_linear_14216_28500" x1="17.8029" y1="2.67427" x2="2.47902" y2="35.4327" gradientUnits="userSpaceOnUse">
<stop stop-color="#3BEA62"/>
<stop offset="0.094" stop-color="#2FDB87"/>
<stop offset="0.196" stop-color="#24CEA8"/>
<stop offset="0.306" stop-color="#1BC3C3"/>
<stop offset="0.426" stop-color="#14BAD8"/>
<stop offset="0.56" stop-color="#10B5E7"/>
<stop offset="0.719" stop-color="#0DB1EF"/>
<stop offset="0.968" stop-color="#0CB0F2"/>
</linearGradient>
<clipPath id="clip0_14216_28500">
<rect width="32" height="32" fill="white"/>
</clipPath>
</defs>
</svg>
