<svg width="32" height="32" viewBox="0 0 32 32" fill="none" xmlns="http://www.w3.org/2000/svg">
<g clip-path="url(#clip0_14216_28512)">
<path d="M30.583 21.7143C30.4915 21.6229 24.5944 15.9543 24.5944 15.9543C24.5944 15.9543 29.0744 11.2 30.263 10.0114C30.6287 9.64573 30.9487 9.28001 31.1773 8.82287C32.823 6.0343 31.863 2.46859 29.0744 0.822872C27.0173 -0.365699 24.4573 -0.182842 22.6287 1.18859C22.3087 1.41716 22.0344 1.64573 21.7601 1.92001C21.623 2.10287 15.4058 7.77144 10.0115 12.7086L20.1144 19.1086L9.50868 31.04C8.86868 31.4972 8.22868 31.7714 7.54297 31.9086C7.68011 31.9086 7.77154 31.9086 7.90868 31.8629C10.0115 31.5429 27.9773 28.5257 28.8458 28.3429C29.8973 28.16 30.8573 27.52 31.4515 26.56C32.4573 24.9143 32.0001 22.8572 30.583 21.7143Z" fill="url(#paint0_linear_14216_28512)"/>
<path d="M20.9829 13.9429C20.8001 12.7086 20.1601 11.7029 19.2458 10.9714C18.2858 10.24 10.8801 2.56 10.0572 1.69143C8.77723 0.457145 6.94866 -0.228569 5.07437 0.0914308C1.87437 0.548574 -0.365625 3.56572 0.137232 6.76572C0.365803 8.36572 1.28009 9.73715 2.46866 10.6057C3.65723 11.52 12.9829 17.92 13.5772 18.3771C14.5372 19.1086 15.8172 19.52 17.0972 19.2914C19.6115 18.8343 21.3944 16.4571 20.9829 13.9429Z" fill="url(#paint1_linear_14216_28512)"/>
<path d="M10.5143 30.9943C10.56 30.9943 21.1657 19.0628 21.1657 19.0628L10.4686 12.2971C6.6743 15.7714 3.1543 18.9257 2.33144 19.7028C1.82858 20.16 1.32573 20.7543 0.960012 21.3943C-1.0057 24.7771 0.137155 29.0743 3.52001 31.04C4.89144 31.8171 8.00001 32.7771 10.5143 30.9943Z" fill="url(#paint2_linear_14216_28512)"/>
<path d="M6.12573 6.1257H25.8743V25.8743H6.12573V6.1257Z" fill="black"/>
<path d="M7.95435 22.1714H15.3601V23.4057H7.95435V22.1714Z" fill="white"/>
<path d="M19.0172 10.3772H16.5029V8.73145H23.3144V10.3772H20.8001V16.9143H19.0172V10.3772Z" fill="white"/>
<path d="M10.8801 13.6686L7.77148 8.73145H9.87434L11.7943 11.9772L13.8058 8.73145H15.8629L12.7086 13.6229V16.9143H10.8801V13.6686Z" fill="white"/>
</g>
<defs>
<linearGradient id="paint0_linear_14216_28512" x1="3.23805" y1="25.03" x2="29.3057" y2="13.147" gradientUnits="userSpaceOnUse">
<stop stop-color="#905CFB"/>
<stop offset="0.165" stop-color="#6677F8"/>
<stop offset="0.378" stop-color="#3596F5"/>
<stop offset="0.54" stop-color="#17A9F3"/>
<stop offset="0.632" stop-color="#0CB0F2"/>
</linearGradient>
<linearGradient id="paint1_linear_14216_28512" x1="13.8561" y1="12.8599" x2="0.488316" y2="1.0528" gradientUnits="userSpaceOnUse">
<stop stop-color="#905CFB"/>
<stop offset="0.072" stop-color="#A554E6"/>
<stop offset="0.252" stop-color="#D641B5"/>
<stop offset="0.39" stop-color="#F43597"/>
<stop offset="0.468" stop-color="#FF318C"/>
</linearGradient>
<linearGradient id="paint2_linear_14216_28512" x1="2.27795" y1="26.8274" x2="33.8391" y2="6.94079" gradientUnits="userSpaceOnUse">
<stop stop-color="#905CFB"/>
<stop offset="0.165" stop-color="#6677F8"/>
<stop offset="0.378" stop-color="#3596F5"/>
<stop offset="0.54" stop-color="#17A9F3"/>
<stop offset="0.632" stop-color="#0CB0F2"/>
</linearGradient>
<clipPath id="clip0_14216_28512">
<rect width="32" height="32" fill="white"/>
</clipPath>
</defs>
</svg>
