<svg width="32" height="32" viewBox="0 0 32 32" fill="none" xmlns="http://www.w3.org/2000/svg">
<path d="M15.9947 3C8.26662 3 2 7.97177 2 14.1072C2 18.074 4.6181 21.5489 8.56102 23.5218L7.14157 28.6258C7.14157 28.6258 7.11528 28.8638 7.26774 28.9537C7.4202 29.0436 7.60421 28.9749 7.60421 28.9749C8.04581 28.9114 12.7037 25.6163 13.5186 25.045C14.3229 25.1614 15.1588 25.2196 16.0053 25.2196C23.7334 25.2196 30 20.2478 30 14.1124C30 7.97706 23.7229 3 15.9947 3Z" fill="black"/>
<path d="M8.25617 17.9787C7.80931 17.9787 7.44656 17.6296 7.44656 17.2012V12.3722H6.18482C5.74847 12.3722 5.39624 12.0178 5.39624 11.5788C5.39624 11.1398 5.75373 10.7855 6.18482 10.7855H10.3223C10.7586 10.7855 11.1108 11.1398 11.1108 11.5788C11.1108 12.0178 10.7534 12.3722 10.3223 12.3722H9.06053V17.2012C9.06053 17.6243 8.69252 17.9787 8.25092 17.9787H8.25617ZM15.3377 17.9681C15.0012 17.9681 14.7436 17.8306 14.6647 17.6084L14.2652 16.5506H11.8048L11.4053 17.6084C11.3264 17.8306 11.0688 17.9681 10.7323 17.9681C10.5536 17.9681 10.3801 17.9311 10.2171 17.8623C9.99631 17.7565 9.78077 17.4762 10.0279 16.7093L11.9573 11.5947C12.0939 11.2033 12.5093 10.8013 13.035 10.7908C13.5607 10.7802 13.9813 11.2033 14.1127 11.5947L16.0421 16.7093C16.2892 17.4762 16.0737 17.7671 15.8529 17.8623C15.6952 17.9364 15.5164 17.9681 15.3377 17.9681ZM13.8393 15.112L13.035 12.8059L12.2306 15.112H13.8393ZM17.3407 17.8623C16.9201 17.8623 16.5679 17.5291 16.5679 17.1218V11.5947C16.5679 11.1451 16.9359 10.7802 17.3932 10.7802C17.8506 10.7802 18.2186 11.1504 18.2186 11.5947V16.3655H19.9325C20.3531 16.3655 20.7053 16.6987 20.7053 17.106C20.7053 17.5132 20.3583 17.8464 19.9325 17.8464L17.3407 17.8623ZM21.0155 17.1536V11.6C21.0155 11.1504 21.3835 10.7855 21.8251 10.7855C22.2667 10.7855 22.6347 11.1557 22.6347 11.6V13.3454L24.8953 11.0711C25.1441 10.8207 25.6146 10.8427 25.8994 11.1293C26.167 11.3985 26.2366 11.8535 25.9573 12.1395L24.1067 13.9907L26.0939 16.6352C26.361 16.9791 26.2962 17.5147 25.9362 17.7671C25.5814 18.0316 25.06 17.9434 24.8059 17.6084L22.9133 15.0855L22.6347 15.3658V17.1377C22.6347 18.1931 21.0155 18.2337 21.0155 17.1536Z" fill="#FFE812"/>
</svg>
