<svg width="32" height="32" viewBox="0 0 32 32" fill="none" xmlns="http://www.w3.org/2000/svg">
<path d="M30 14.4979C30 8.1579 23.7199 2.99998 15.9999 2.99998C8.28094 2.99998 2 8.1579 2 14.4979C2 20.1816 6.98063 24.9416 13.7084 25.8418C14.1644 25.9412 14.7849 26.146 14.9419 26.5404C15.0831 26.8986 15.0342 27.4598 14.987 27.8215C14.987 27.8215 14.8227 28.8214 14.7873 29.0343C14.7264 29.3926 14.5061 30.4353 15.9999 29.7981C17.4942 29.1609 24.0626 24.9935 26.9998 21.572C29.0287 19.3204 30 17.0353 30 14.4979Z" fill="#2CCF54"/>
<path d="M25.3377 12.9685C25.4883 12.9685 25.6098 12.8453 25.6098 12.6928V11.7002C25.6098 11.548 25.4883 11.4242 25.3377 11.4242H21.4148C21.2641 11.4242 21.1421 11.5502 21.1421 11.6999V17.8656C21.1421 18.0148 21.2638 18.1412 21.4142 18.1412H25.3377C25.4883 18.1412 25.6098 18.0175 25.6098 17.8656V16.8727C25.6098 16.7207 25.4883 16.597 25.3377 16.597H22.6697V15.5547H25.3377C25.4883 15.5547 25.6098 15.4313 25.6098 15.2791V14.2864C25.6098 14.1342 25.4883 14.0105 25.3377 14.0105H22.6697V12.9685H25.3377Z" fill="white"/>
<path d="M10.7884 16.597H8.12013V11.6999C8.12013 11.5477 7.99802 11.4242 7.84773 11.4242H6.86545C6.71489 11.4242 6.59277 11.5477 6.59277 11.6999V17.8653C6.59277 18.015 6.71435 18.1412 6.86518 18.1412H10.7884C10.9389 18.1412 11.0605 18.0175 11.0605 17.8653V16.8727C11.0605 16.7205 10.9389 16.597 10.7884 16.597Z" fill="white"/>
<path d="M19.9147 11.4244H18.9327C18.7821 11.4244 18.66 11.5478 18.66 11.6995V15.3631L15.8645 11.5467C15.8128 11.4684 15.729 11.4295 15.6375 11.4244H14.6558C14.5052 11.4244 14.3828 11.5478 14.3828 11.6995V17.866C14.3828 18.018 14.5052 18.1411 14.6558 18.1411H15.6375C15.7883 18.1411 15.9104 18.018 15.9104 17.866V14.2035L18.7094 18.0247C18.7597 18.0967 18.845 18.1411 18.9327 18.1411H19.9147C20.0655 18.1411 20.1874 18.018 20.1874 17.866V11.6995C20.1874 11.5478 20.0655 11.4244 19.9147 11.4244Z" fill="white"/>
<path d="M13.1553 11.4244H12.1733C12.0228 11.4244 11.9004 11.5478 11.9004 11.6995V17.866C11.9004 18.018 12.0228 18.1411 12.1733 18.1411H13.1553C13.3059 18.1411 13.428 18.018 13.428 17.866V11.6995C13.428 11.5478 13.3059 11.4244 13.1553 11.4244Z" fill="white"/>
</svg>
