<svg width="32" height="32" viewBox="0 0 32 32" fill="none" xmlns="http://www.w3.org/2000/svg">
<path opacity="0.26" d="M5.30599 19.4874L5.3014 13.9286V12.264H2.00049V2.99994L15.9203 3.06777L20.2746 3.07737C25.4858 3.07737 29.9993 7.15203 29.9993 12.5335V28.9434H15.0307C9.82419 28.9434 5.30599 24.8639 5.30599 19.4873V19.4874Z" fill="black"/>
<path d="M27.9998 24.652V12.7213C27.9998 8.73535 24.6179 5.50422 20.4452 5.50422H16.1141V5.49462L4.40088 5.44171V9.79479H6.19893C7.45406 9.79479 7.67576 10.6903 7.67576 11.9298L7.68505 19.6257C7.68505 23.6116 11.067 26.8426 15.2351 26.8426H25.5262C26.8454 26.8426 27.9999 25.9791 27.9999 24.6519L27.9998 24.652Z" fill="url(#paint0_linear_14216_28643)"/>
<path opacity="0.175" d="M26.9783 25.66C24.3466 23.7855 22.4827 21.6322 20.9125 18.7817C17.8175 12.8723 18.5412 9.93866 10.8767 9.24695C8.66491 9.24695 7.19267 8.74097 4.8645 8.74097V9.57896C4.8645 9.57896 5.78453 10.0617 6.59321 10.0617C7.79913 10.0617 8.00836 10.9262 8.00836 12.1171L8.01601 19.4932C8.01601 23.323 11.2703 26.4268 15.275 26.4268H25.1578C25.8832 26.4268 26.5348 26.1314 26.9783 25.66Z" fill="url(#paint1_linear_14216_28643)"/>
<path d="M17.819 9.97644C16.8799 9.97644 16.0455 10.3368 15.3751 11.0368C14.705 11.7365 14.3531 12.6099 14.3531 13.5956V18.5784H16.5396V13.5955C16.5396 13.2177 16.6589 12.9223 16.9199 12.6498C17.1818 12.3765 17.4591 12.2527 17.819 12.2527C18.1866 12.2527 18.4597 12.3759 18.7222 12.6498C18.9832 12.9222 19.1025 13.2177 19.1025 13.5955V18.5783H21.289V13.5955C21.289 13.2177 21.4082 12.9223 21.6693 12.6498C21.9318 12.3758 22.2049 12.2527 22.5725 12.2527C22.9325 12.2527 23.2097 12.3765 23.4716 12.6498C23.7325 12.9222 23.8519 13.2177 23.8519 13.5955L23.8638 19.4175C23.8638 20.6595 22.7194 21.7062 21.2494 21.7062L14.1986 21.6776C13.0642 21.6776 12.0952 20.5362 12.0952 19.0695V8.10602H10.0276V19.4913C10.0276 20.6993 10.4552 21.7586 11.2872 22.6153C11.9983 23.3407 12.8535 23.77 13.8144 23.8761V23.9172H21.6653C22.8717 23.9172 23.9316 23.4535 24.7867 22.5538H24.7907C25.5179 21.7816 25.943 20.8562 26.0462 19.8147L26.0384 13.5956C26.0384 12.6099 25.6865 11.7365 25.0164 11.0368C24.346 10.3368 23.5115 9.97644 22.5725 9.97644C21.6506 9.97644 20.844 10.3307 20.1918 10.9795C19.5415 10.3317 18.7405 9.97644 17.819 9.97644Z" fill="black" fill-opacity="0.08"/>
<path d="M17.6445 10.0359C16.7053 10.0359 15.8708 10.3963 15.2004 11.0962C14.5303 11.796 14.1784 12.6693 14.1784 13.6551V18.6377H16.365V13.6551C16.365 13.2773 16.4842 12.9819 16.7453 12.7094C17.0071 12.436 17.2845 12.3122 17.6445 12.3122C18.012 12.3122 18.2852 12.4355 18.5476 12.7094C18.8087 12.9818 18.9279 13.2773 18.9279 13.6551V18.6377H21.1144V13.6551C21.1144 13.2773 21.2336 12.9819 21.4947 12.7094C21.7572 12.4353 22.0303 12.3122 22.3979 12.3122C22.7579 12.3122 23.0352 12.436 23.297 12.7094C23.5581 12.9818 23.6773 13.2773 23.6773 13.6551L23.6892 19.477C23.6892 20.7191 22.5449 21.7657 21.0748 21.7657L14.0239 21.737C12.8895 21.737 11.9206 20.5957 11.9206 19.1291V8.16547H9.85278V19.5508C9.85278 20.7587 10.2804 21.8181 11.1124 22.6746C11.8235 23.4001 12.6788 23.8704 13.6397 23.9766H21.4908C22.6971 23.9766 23.7572 23.5129 24.6122 22.6132H24.6162C25.3435 21.8409 25.7685 20.9156 25.8718 19.8742L25.864 13.6551C25.864 12.6693 25.5121 11.7959 24.8419 11.0962C24.1715 10.3963 23.3369 10.0359 22.3979 10.0359C21.4761 10.0359 20.6695 10.3902 20.0172 11.0389C19.3669 10.3912 18.5658 10.0359 17.6445 10.0359Z" fill="white"/>
<path d="M15.1667 28.4949C10.1963 28.4949 5.8832 24.6005 5.8832 19.468L5.87883 13.2359V11.6467H2.72754V3.72858L20.1725 3.80239C25.1472 3.80239 29.4558 7.69222 29.4558 12.8294V28.4949H15.1667ZM27.4313 24.2927V12.8294C27.4313 8.99968 24.1819 5.89528 20.1726 5.89528L4.75691 5.83514V9.55405H6.01762C6.87355 9.55405 7.9035 10.3854 7.9035 11.6053L7.91246 19.4633C7.91246 23.2931 11.1619 26.3975 15.1666 26.3975H25.0544C26.322 26.3975 27.4313 25.5678 27.4313 24.2927Z" fill="white"/>
<defs>
<linearGradient id="paint0_linear_14216_28643" x1="6.65317" y1="8.17247" x2="19.347" y2="21.6397" gradientUnits="userSpaceOnUse">
<stop stop-color="#C7F994"/>
<stop offset="1" stop-color="#87CF3E"/>
</linearGradient>
<linearGradient id="paint1_linear_14216_28643" x1="9.24547" y1="24.6119" x2="17.1541" y2="12.6143" gradientUnits="userSpaceOnUse">
<stop stop-color="#3D3D3D"/>
<stop offset="1" stop-opacity="0.114"/>
</linearGradient>
</defs>
</svg>
