<svg width="32" height="32" viewBox="0 0 32 32" fill="none" xmlns="http://www.w3.org/2000/svg">
<path d="M30 16C30 23.728 23.735 30 16 30C8.265 30 2 23.728 2 16C2 8.265 8.265 2 16 2C23.735 2 30 8.265 30 16Z" fill="white"/>
<path d="M11.3068 21.91C11.1815 21.7232 11.0718 21.4713 10.9829 21.1699C9.3762 19.358 10.6174 16.6916 11.8451 14.881C11.9628 14.6874 12.091 14.5004 12.2304 14.3215C13.167 13.1577 13.4094 12.3478 13.4815 11.2521C13.49 11.0481 13.4731 10.7781 13.4537 10.4678C13.3547 8.8837 13.19 6.25174 16.0164 6.0184C19.5493 5.72669 19.2616 8.97105 19.2355 10.8732C19.2344 10.9519 19.2333 11.0285 19.2325 11.1024C19.223 12.249 19.8214 13.0341 20.446 13.8535C20.6741 14.1528 20.9057 14.4566 21.1125 14.7843C21.1186 14.794 21.1247 14.8038 21.1308 14.8135C22.2223 16.3877 23.2998 18.737 21.8 20.9653C21.5892 21.7259 21.27 22.424 20.8439 22.9921C19.3141 25.0052 17.9543 24.8008 16.8925 24.6412C16.5722 24.5931 16.279 24.549 16.0164 24.5711C15.5802 24.5977 15.2306 24.6682 14.9286 24.7292C13.7613 24.9648 13.3051 25.0569 11.3068 21.91Z" fill="black"/>
<path d="M18.0141 7.7947C17.9814 8.7271 16.9923 9.53699 15.8067 9.61186C14.6211 9.68672 13.691 8.97891 13.7237 8.04651C13.7565 7.11412 14.7456 6.30422 15.9312 6.22936C17.1168 6.1613 18.0469 6.8623 18.0141 7.7947Z" fill="url(#paint0_linear_14216_28597)"/>
<path fill-rule="evenodd" clip-rule="evenodd" d="M15.8656 10.0611C15.8751 10.5681 16.1073 11.0004 16.4334 11.1956C15.3695 11.1003 14.0512 11.4893 14.0512 12.2253C14.0348 13.4705 13.3418 15.0197 12.8429 16.1348C12.7447 16.3545 12.654 16.5573 12.5774 16.7376C12.2686 17.5023 12.0833 18.3201 12.0614 19.1223C11.2435 17.9949 11.8378 16.5486 12.1582 15.9209C12.5846 15.0948 12.5764 14.9918 12.4108 15.1854C11.7759 16.265 10.5803 18.4334 12.0775 19.7361C12.125 20.3178 12.2667 20.8815 12.5185 21.3996C14.5228 25.4423 18.2761 23.7816 19.5141 21.6854C19.6788 21.3874 19.812 21.0991 19.9177 20.8205C19.9797 20.8595 20.0461 20.8897 20.1167 20.9096C20.739 21.0933 21.6691 20.3923 21.8918 19.9568C22.1604 19.3783 21.8853 18.9835 20.9683 18.5139C20.9215 18.4908 20.8753 18.469 20.8297 18.4487C21.1814 16.9678 20.2122 15.4278 19.52 14.7744C19.3909 14.7426 19.3727 14.8158 19.5731 15.0157C20.009 15.4335 20.9572 16.923 20.4442 18.3093C20.3597 18.2866 20.2784 18.2706 20.2009 18.2618C20.0433 17.316 19.6231 16.5802 19.3294 16.066C19.2629 15.9495 19.2029 15.8444 19.1538 15.7508C19.055 15.5619 18.9368 15.3663 18.8114 15.1589C18.3283 14.3596 17.739 13.3844 17.739 11.9395C17.6651 11.6216 17.3651 11.4096 16.9658 11.2925C17.4293 11.199 17.7772 10.6575 17.7652 10.0066C17.7521 9.30564 17.3132 8.74756 16.7892 8.76117C16.2652 8.77478 15.846 9.36008 15.8656 10.0611ZM16.2979 10.2176C16.2914 10.6056 16.4748 10.9186 16.7172 10.9186C16.953 10.9186 17.156 10.6056 17.1626 10.2244C17.1691 9.83649 16.9857 9.52343 16.7434 9.52343C16.501 9.52343 16.3045 9.83649 16.2979 10.2176Z" fill="url(#paint1_linear_14216_28597)"/>
<path fill-rule="evenodd" clip-rule="evenodd" d="M14.5556 11.15C14.9355 11.1296 15.2106 10.6192 15.1779 10.0134C15.1451 9.40772 14.8111 8.93812 14.4311 8.95854C14.0512 8.97895 13.7761 9.48939 13.8089 10.0951C13.8416 10.7008 14.1757 11.1704 14.5556 11.15ZM14.7848 10.2244C14.8176 10.5443 14.6997 10.8165 14.5294 10.8438C14.3591 10.8642 14.1953 10.626 14.1626 10.3061C14.1298 9.98622 14.2477 9.71399 14.418 9.68676C14.5883 9.66634 14.7521 9.90455 14.7848 10.2244Z" fill="url(#paint2_linear_14216_28597)"/>
<path d="M18.6693 17.1528C18.6693 18.3506 17.5623 19.9023 15.6627 19.8887C13.7042 19.9023 12.8723 18.3506 12.8723 17.1528C12.8723 15.9549 14.1693 14.9817 15.7675 14.9817C17.3723 14.9885 18.6693 15.9549 18.6693 17.1528Z" fill="url(#paint3_linear_14216_28597)"/>
<path d="M11.6931 15.2947C12.3351 14.2807 13.691 12.7221 11.9486 15.5125C10.5338 17.8129 11.4246 19.2898 11.8831 19.6981C13.2062 20.9232 13.1538 21.7467 12.1124 21.1001C9.87873 19.7185 10.3438 17.3909 11.6931 15.2947Z" fill="url(#paint4_linear_14216_28597)"/>
<path d="M11.2084 25.1019C9.74116 24.2921 7.61234 25.2585 8.38526 23.067C8.54247 22.5702 8.156 21.8215 8.40491 21.3383C8.69967 20.7462 9.33504 20.8755 9.71496 20.4808C10.0883 20.0724 10.3241 19.3646 11.025 19.4735C11.7193 19.5824 12.1844 20.4672 12.6691 21.5561C13.0294 22.332 14.3001 23.4277 14.215 24.2989C14.1102 25.6328 12.6495 25.8846 11.2084 25.1019Z" fill="url(#paint5_linear_14216_28597)"/>
<path fill-rule="evenodd" clip-rule="evenodd" d="M9.87664 20.6403C9.51984 21.0305 8.86452 20.937 8.60152 21.4476C8.43261 21.7755 8.61716 22.2795 8.64206 22.6386C8.67282 23.0822 8.30503 23.7109 8.49233 24.0898C8.70268 24.5153 9.65296 24.4601 10.0707 24.5211C11.1019 24.6718 12.8063 26.0064 13.7388 24.9413C14.6504 23.9 12.8982 22.5824 12.4684 21.6567C12.1889 21.0288 11.7706 19.8248 10.992 19.7026C10.4431 19.6174 10.1931 20.2942 9.87664 20.6403ZM11.0583 19.2445C12.0278 19.3965 12.5129 20.6534 12.8707 21.4571C13.4138 22.6226 15.2747 23.8753 14.0686 25.253C12.9732 26.5042 11.2438 25.1603 10.0086 24.9798C9.39166 24.8897 8.41858 24.9544 8.09576 24.3014C7.81821 23.7399 8.2362 23.2314 8.1974 22.6719C8.16434 22.1951 7.97565 21.6831 8.2077 21.2305C8.52537 20.5943 9.13864 20.7484 9.55546 20.319C9.99809 19.8327 10.2634 19.121 11.0583 19.2445Z" fill="#E68C3F"/>
<path d="M10.8679 23.2848C8.37884 21.6106 9.54478 21.0389 9.91814 20.7735C10.3701 20.4332 10.3767 19.7798 10.9334 19.8411C11.4902 19.9023 11.8177 20.6169 12.1911 21.5017C12.4662 22.1346 13.4225 22.9785 13.3505 23.7068C13.2588 24.5643 11.9422 23.9994 10.8679 23.2848Z" fill="url(#paint6_linear_14216_28597)"/>
<path d="M20.9879 15.7099C20.4311 14.5189 18.6626 11.4971 21.0731 15.0089C23.2674 18.1872 21.7281 20.3991 21.453 20.6169C21.1779 20.8347 20.2543 21.2771 20.5228 20.508C20.7979 19.739 22.1604 18.2825 20.9879 15.7099Z" fill="url(#paint7_linear_14216_28597)"/>
<path d="M21.3809 24.7276C22.4551 23.3733 24.846 23.6523 23.2346 21.7943C22.894 21.3928 22.9988 20.5352 22.5796 20.1677C22.0883 19.7185 21.5447 20.0861 21.0468 19.8547C20.549 19.6028 20.025 19.1196 19.4158 19.4599C18.8067 19.807 18.7412 20.7054 18.6822 21.8896C18.6298 22.7403 17.8831 24.1628 18.2826 24.9454C18.8591 26.1569 20.3591 25.9935 21.3809 24.7276Z" fill="url(#paint8_linear_14216_28597)"/>
<path fill-rule="evenodd" clip-rule="evenodd" d="M21.8102 19.698C22.0856 19.6907 22.4155 19.71 22.7253 19.9923C23.1106 20.332 23.1144 20.8865 23.2597 21.3508C23.4317 21.9007 24.0346 22.2148 23.9985 22.8595C23.9396 23.9135 22.1143 24.1673 21.5525 24.8757C21.0126 25.5445 20.3302 25.9428 19.6826 25.9964C18.7005 26.0778 17.8892 25.252 17.9467 24.2437C17.9933 23.4275 18.4091 22.6859 18.4598 21.8762C18.489 21.2898 18.5205 20.7462 18.6265 20.3048C18.7336 19.8587 18.9266 19.4746 19.3088 19.2568C20.1458 18.7892 20.9544 19.7204 21.8102 19.698ZM19.5223 19.6635C19.2958 19.7929 19.1517 20.0314 19.0591 20.4169C18.9654 20.8071 18.9345 21.3071 18.9048 21.9044C18.8548 22.716 18.4382 23.457 18.3918 24.2711C18.3504 24.9971 18.908 25.5959 19.6471 25.5346C20.1489 25.493 20.7277 25.1762 21.2096 24.5795C21.6402 24.0371 23.5142 23.5335 23.5534 22.8326C23.579 22.375 22.977 21.9457 22.8356 21.4941C22.725 21.1406 22.7192 20.593 22.436 20.3448C22.255 20.1793 22.0646 20.1547 21.8214 20.1611C21.1167 20.1796 20.1765 19.299 19.5223 19.6635Z" fill="#E68C3F"/>
<path d="M20.9158 22.9173C22.5796 20.3651 21.3416 20.3855 20.9224 20.1881C20.5032 19.9839 20.0643 19.5824 19.573 19.8614C19.0818 20.1473 19.0556 20.8823 19.0425 21.8487C19.0228 22.5429 18.466 23.7067 18.8001 24.3533C19.2062 25.1087 20.1888 24.013 20.9158 22.9173Z" fill="url(#paint9_linear_14216_28597)"/>
<path d="M21.7479 19.9363C21.5514 20.2902 20.7523 20.8483 20.2217 20.6986C19.678 20.5557 19.4291 19.7594 19.5405 19.1605C19.6387 18.4799 20.2217 18.4459 20.9553 18.7862C21.7348 19.1537 21.9771 19.4667 21.7479 19.9363Z" fill="black"/>
<path d="M21.2108 19.7389C21.0863 19.9839 20.5623 20.3719 20.1955 20.2698C19.8287 20.1677 19.6453 19.6164 19.7042 19.2013C19.7566 18.7317 20.1496 18.7044 20.6475 18.9358C21.1846 19.1945 21.3549 19.4122 21.2108 19.7389Z" fill="url(#paint10_linear_14216_28597)"/>
<path d="M17.6344 13.3891C17.6147 14.6278 16.8352 14.9204 15.8527 14.9204C14.8702 14.9204 14.1562 14.7367 14.071 13.3891C14.071 12.5452 14.8702 12.0552 15.8527 12.0552C16.8352 12.0484 17.6344 12.5384 17.6344 13.3891Z" fill="url(#paint11_linear_14216_28597)"/>
<path d="M14.6407 10.0542C14.6604 10.2312 14.5883 10.3877 14.4835 10.4013C14.3787 10.4149 14.2805 10.2788 14.2608 10.0951C14.2412 9.91811 14.3132 9.76158 14.418 9.74797C14.5228 9.73436 14.6211 9.87728 14.6407 10.0542Z" fill="url(#paint12_linear_14216_28597)"/>
<path d="M16.3963 9.99981C16.3767 10.2176 16.4749 10.3945 16.6125 10.4082C16.75 10.4218 16.881 10.2516 16.9007 10.0406C16.9203 9.82286 16.8221 9.64591 16.6845 9.63229C16.547 9.61868 16.416 9.78883 16.3963 9.99981Z" fill="url(#paint13_linear_14216_28597)"/>
<path d="M14.4376 10.8574C14.6996 10.6056 15.335 9.8365 16.5402 10.6396C16.763 10.7893 16.9464 10.8029 17.3721 10.9935C18.2302 11.361 17.8241 12.2458 16.9071 12.5452C16.514 12.6745 16.1603 13.1714 15.4529 13.1237C14.8437 13.0897 14.6865 12.6745 14.3132 12.4499C13.6516 12.062 13.5533 11.538 13.9136 11.2589C14.2739 10.9799 14.4114 10.8778 14.4376 10.8574Z" fill="url(#paint14_linear_14216_28597)"/>
<path fill-rule="evenodd" clip-rule="evenodd" d="M13.9938 11.3703C13.8568 11.4764 13.8132 11.6175 13.8585 11.7735C13.9515 12.0938 14.6221 12.5346 14.8789 12.7502C15.0249 12.8728 15.1919 12.97 15.4618 12.985C16.0398 13.024 16.3608 12.5793 16.8672 12.4126C17.2002 12.3039 17.9049 11.8882 17.6714 11.4119C17.4723 11.0055 16.8013 10.9804 16.468 10.7564C15.8943 10.3742 15.4768 10.377 15.1793 10.4842C14.8533 10.6017 14.289 11.1416 13.9938 11.3703ZM15.0916 10.2216C15.4786 10.0821 15.9817 10.1022 16.6131 10.5229C17.0281 10.8019 17.6595 10.775 17.9098 11.2858C18.2287 11.9366 17.456 12.5116 16.9475 12.6777C16.403 12.857 16.0988 13.3062 15.4452 13.2624C15.1063 13.2433 14.8888 13.1159 14.7108 12.9664C14.3413 12.6562 13.717 12.3614 13.5743 11.8695C13.4951 11.5967 13.6106 11.3205 13.8339 11.1475C14.1948 10.8679 14.6825 10.3691 15.0916 10.2216Z" fill="#E68C3F"/>
<path fill-rule="evenodd" clip-rule="evenodd" d="M17.4743 11.5669C17.477 11.618 17.4393 11.6617 17.3901 11.6645C16.6968 11.7038 16.2097 12.4949 15.4267 12.4949C14.9886 12.4949 14.6418 12.2835 14.3939 12.0803C14.3439 12.0393 13.9031 11.6994 13.9031 11.6128C13.9031 11.5616 13.943 11.5201 13.9922 11.5201C14.0844 11.5201 14.3623 11.8217 14.4657 11.9065C14.6992 12.098 15.0461 12.3096 15.4267 12.3096C16.2018 12.3096 16.6774 11.5193 17.3804 11.4794C17.4296 11.4767 17.4716 11.5158 17.4743 11.5669Z" fill="#E68C3F"/>
<path d="M14.8439 10.7893C14.9749 10.6668 15.3876 10.3333 15.9312 10.6736C16.0492 10.7416 16.1671 10.8165 16.3374 10.9186C16.6845 11.1296 16.5142 11.4358 16.095 11.6264C15.905 11.7081 15.5906 11.885 15.3548 11.8714C15.0928 11.8442 14.916 11.6672 14.7457 11.5515C14.4247 11.3338 14.4443 11.15 14.595 11.0071C14.7064 10.8982 14.8308 10.7961 14.8439 10.7893Z" fill="url(#paint15_linear_14216_28597)"/>
<defs>
<linearGradient id="paint0_linear_14216_28597" x1="16.0581" y1="6.30635" x2="15.8366" y2="9.30617" gradientUnits="userSpaceOnUse">
<stop stop-color="white" stop-opacity="0.8"/>
<stop offset="1" stop-color="white" stop-opacity="0"/>
</linearGradient>
<linearGradient id="paint1_linear_14216_28597" x1="12.8966" y1="22.6723" x2="11.2506" y2="17.2717" gradientUnits="userSpaceOnUse">
<stop stop-color="#FFEED7"/>
<stop offset="1" stop-color="#BDBFC2"/>
</linearGradient>
<linearGradient id="paint2_linear_14216_28597" x1="12.8966" y1="22.6723" x2="11.2506" y2="17.2717" gradientUnits="userSpaceOnUse">
<stop stop-color="#FFEED7"/>
<stop offset="1" stop-color="#BDBFC2"/>
</linearGradient>
<linearGradient id="paint3_linear_14216_28597" x1="15.7616" y1="15.6308" x2="15.7782" y2="19.6274" gradientUnits="userSpaceOnUse">
<stop stop-color="white" stop-opacity="0.8"/>
<stop offset="1" stop-color="white" stop-opacity="0"/>
</linearGradient>
<linearGradient id="paint4_linear_14216_28597" x1="11.7195" y1="14.1055" x2="11.7195" y2="19.9372" gradientUnits="userSpaceOnUse">
<stop stop-color="white" stop-opacity="0.65"/>
<stop offset="1" stop-color="white" stop-opacity="0"/>
</linearGradient>
<linearGradient id="paint5_linear_14216_28597" x1="11.4281" y1="22.4373" x2="10.5349" y2="25.4213" gradientUnits="userSpaceOnUse">
<stop stop-color="#FFA63F"/>
<stop offset="1" stop-color="#FFFF00"/>
</linearGradient>
<linearGradient id="paint6_linear_14216_28597" x1="11.2462" y1="19.9044" x2="11.4114" y2="24.3241" gradientUnits="userSpaceOnUse">
<stop stop-color="white" stop-opacity="0.65"/>
<stop offset="1" stop-color="white" stop-opacity="0"/>
</linearGradient>
<linearGradient id="paint7_linear_14216_28597" x1="21.0328" y1="13.5359" x2="21.0305" y2="18.8051" gradientUnits="userSpaceOnUse">
<stop stop-color="white" stop-opacity="0.65"/>
<stop offset="1" stop-color="white" stop-opacity="0"/>
</linearGradient>
<linearGradient id="paint8_linear_14216_28597" x1="19.8815" y1="21.5298" x2="22.2651" y2="24.7799" gradientUnits="userSpaceOnUse">
<stop stop-color="#FFA63F"/>
<stop offset="1" stop-color="#FFFF00"/>
</linearGradient>
<linearGradient id="paint9_linear_14216_28597" x1="20.5201" y1="18.9332" x2="19.6866" y2="22.8604" gradientUnits="userSpaceOnUse">
<stop stop-color="white" stop-opacity="0.65"/>
<stop offset="1" stop-color="white" stop-opacity="0"/>
</linearGradient>
<linearGradient id="paint10_linear_14216_28597" x1="20.3755" y1="18.8617" x2="20.5688" y2="20.1823" gradientUnits="userSpaceOnUse">
<stop stop-color="white" stop-opacity="0.65"/>
<stop offset="1" stop-color="white" stop-opacity="0"/>
</linearGradient>
<linearGradient id="paint11_linear_14216_28597" x1="15.8501" y1="13.1247" x2="15.8685" y2="14.7138" gradientUnits="userSpaceOnUse">
<stop stop-color="white" stop-opacity="0.65"/>
<stop offset="1" stop-color="white" stop-opacity="0"/>
</linearGradient>
<linearGradient id="paint12_linear_14216_28597" x1="14.4337" y1="9.78294" x2="14.5341" y2="10.3483" gradientUnits="userSpaceOnUse">
<stop stop-color="white" stop-opacity="0.65"/>
<stop offset="1" stop-color="white" stop-opacity="0"/>
</linearGradient>
<linearGradient id="paint13_linear_14216_28597" x1="16.6684" y1="9.65564" x2="16.575" y2="10.3544" gradientUnits="userSpaceOnUse">
<stop stop-color="white" stop-opacity="0.65"/>
<stop offset="1" stop-color="white" stop-opacity="0"/>
</linearGradient>
<linearGradient id="paint14_linear_14216_28597" x1="15.7646" y1="10.7838" x2="15.7807" y2="13.1096" gradientUnits="userSpaceOnUse">
<stop stop-color="#FFA63F"/>
<stop offset="1" stop-color="#FFFF00"/>
</linearGradient>
<linearGradient id="paint15_linear_14216_28597" x1="15.5103" y1="10.5638" x2="15.506" y2="11.7936" gradientUnits="userSpaceOnUse">
<stop stop-color="white" stop-opacity="0.65"/>
<stop offset="1" stop-color="white" stop-opacity="0"/>
</linearGradient>
</defs>
</svg>
