<svg width="32" height="32" viewBox="0 0 32 32" fill="none" xmlns="http://www.w3.org/2000/svg">
<mask id="mask0_14216_28429" style="mask-type:alpha" maskUnits="userSpaceOnUse" x="0" y="6" width="32" height="20">
<path d="M7.82979 26C3.50549 26 0 22.5675 0 18.3333C0 14.1921 3.35322 10.8179 7.54613 10.6716C9.27535 7.87166 12.4144 6 16 6C20.6308 6 24.5169 9.12183 25.5829 13.3335C29.1316 13.3603 32 16.1855 32 19.6667C32 23.0527 29 26 25.8723 25.9914L7.82979 26Z" fill="#C4C4C4"/>
</mask>
<g mask="url(#mask0_14216_28429)">
<path d="M7.82968 26C5.37775 26 3.18908 24.8965 1.75342 23.1689L18.0424 16.3334L30.7084 23.4646C29.5921 24.921 27.9062 26 25.9999 25.9914C23.1249 26 12.0624 26 7.82968 26Z" fill="url(#paint0_linear_14216_28429)"/>
<path d="M25.578 13.3148L18.0425 16.3333L30.7085 23.4645C31.5194 22.4064 31.9999 21.0915 31.9999 19.6667C31.9999 16.1856 29.1316 13.3603 25.5828 13.3335C25.5812 13.3273 25.5796 13.321 25.578 13.3148Z" fill="url(#paint1_linear_14216_28429)"/>
<path d="M7.0647 10.7028L18.0425 16.3333L25.5781 13.3148C24.5054 9.11261 20.624 6 16 6C12.4144 6 9.27533 7.87166 7.54611 10.6716C7.38434 10.6773 7.22382 10.6877 7.0647 10.7028Z" fill="url(#paint2_linear_14216_28429)"/>
<path d="M1.7535 23.1689L18.0425 16.3333L7.06471 10.7028C3.09947 11.0794 0 14.3519 0 18.3333C0 20.1667 0.657197 21.8497 1.7535 23.1689Z" fill="url(#paint3_linear_14216_28429)"/>
</g>
<defs>
<linearGradient id="paint0_linear_14216_28429" x1="4.42542" y1="24.6667" x2="27.2304" y2="23.2762" gradientUnits="userSpaceOnUse">
<stop stop-color="#2086B8"/>
<stop offset="1" stop-color="#46D3F6"/>
</linearGradient>
<linearGradient id="paint1_linear_14216_28429" x1="23.8297" y1="19.6666" x2="30.2103" y2="15.208" gradientUnits="userSpaceOnUse">
<stop stop-color="#1694DB"/>
<stop offset="1" stop-color="#62C3FE"/>
</linearGradient>
<linearGradient id="paint2_linear_14216_28429" x1="8.51062" y1="7.33333" x2="23.3338" y2="15.9348" gradientUnits="userSpaceOnUse">
<stop stop-color="#0D3D78"/>
<stop offset="1" stop-color="#063B83"/>
</linearGradient>
<linearGradient id="paint3_linear_14216_28429" x1="-0.340429" y1="20" x2="14.5634" y2="14.4651" gradientUnits="userSpaceOnUse">
<stop stop-color="#16589B"/>
<stop offset="1" stop-color="#1464B7"/>
</linearGradient>
</defs>
</svg>
