<svg width="32" height="32" viewBox="0 0 32 32" fill="none" xmlns="http://www.w3.org/2000/svg">
<path d="M30.899 12.6098C30.6034 12.5254 30.2741 12.4855 29.5805 12.398C26.7098 12.2777 19.6154 11.9958 16.0002 11.9958C12.3851 11.9958 5.29056 12.2775 2.42016 12.398C1.72624 12.4855 1.39664 12.5254 1.10112 12.6098C0.19856 12.8272 0 13.1583 0 13.8188V18.3457C0 19.0064 0.69264 19.4516 1.17008 19.5413C1.64784 19.6318 1.95008 19.6679 2.45264 19.7168C5.02016 19.8793 10.977 20.218 16 20.2234C21.0232 20.2185 26.9797 19.8794 29.5474 19.7168C30.0498 19.6679 30.3522 19.6316 30.8301 19.5413C31.3074 19.4514 32 19.0064 32 18.3457V13.8188C32 13.1583 31.8016 12.8272 30.899 12.6098Z" fill="url(#paint0_linear_14216_28577)"/>
<path d="M27.5685 19.3684C27.5542 19.413 27.5384 19.4623 27.531 19.4866C26.0291 24.3672 21.4579 27.9169 16.051 27.9169C10.6014 27.9169 6.00144 24.3124 4.536 19.3732C3.64032 19.5352 3.33776 19.5968 2.45264 19.7171C4.09264 25.6449 9.55888 30 16.051 30C22.5459 30 28.0141 25.6403 29.651 19.7077C28.8712 19.6092 28.4118 19.5348 27.5685 19.3684Z" fill="url(#paint1_radial_14216_28577)"/>
<path d="M27.2763 19.3826C26.906 19.594 26.4451 19.7974 26.0766 19.9162C26.0716 19.9283 26.0507 19.982 26.0462 19.9945C24.4523 23.922 20.5776 26.6943 16.0508 26.6943C11.4956 26.6943 7.60108 23.8883 6.02572 19.922C5.60188 19.8018 4.96828 19.5065 4.72844 19.3832C4.63868 19.3788 4.59036 19.3762 4.53516 19.3733C6.0006 24.3119 10.6014 27.917 16.051 27.917C21.476 27.917 26.059 24.3449 27.5459 19.4411C27.5491 19.4316 27.5656 19.3777 27.5691 19.3685C27.4832 19.372 27.3518 19.3826 27.2763 19.3826Z" fill="url(#paint2_radial_14216_28577)"/>
<path d="M4.48808 12.7879C5.90056 7.76702 10.5417 4.08305 16.051 4.08305C21.5444 4.08305 26.1761 7.74675 27.6023 12.7475C27.6068 12.7651 27.6098 12.7743 27.6148 12.7913C28.4337 12.6973 29.1673 12.5521 29.6857 12.4107C29.6762 12.3785 29.6738 12.3719 29.6657 12.3402C28.0447 6.38339 22.5634 2 16.051 2C9.51656 2 4.02088 6.41184 2.41992 12.3981C3.14008 12.5997 3.6676 12.6842 4.48808 12.7879Z" fill="url(#paint3_radial_14216_28577)"/>
<path d="M4.77629 12.7771C5.11629 12.6336 5.44525 12.4047 5.95805 12.2574C7.48685 8.19871 11.4283 5.30849 16.0507 5.30849C20.6587 5.30849 24.5904 8.18089 26.1288 12.22C26.1342 12.2337 26.1398 12.2504 26.1441 12.2607C26.4088 12.3544 27.1885 12.6774 27.431 12.7855C27.4654 12.7863 27.5388 12.7889 27.6147 12.791C27.6102 12.7765 27.6061 12.7619 27.6022 12.7472C26.1753 7.74812 21.5438 4.08557 16.0507 4.08557C10.5429 4.08557 5.90173 7.76791 4.48877 12.7878C4.57037 12.7879 4.72573 12.7807 4.77629 12.7771Z" fill="url(#paint4_radial_14216_28577)"/>
<path d="M15.963 4.42506C21.1171 4.42506 25.6859 7.56542 27.4164 12.7417L27.4305 12.7857C27.4574 12.7857 27.5555 12.7893 27.6142 12.7913C27.6096 12.7725 27.6048 12.7615 27.6017 12.7475C26.1748 7.74837 21.5433 4.08582 16.0502 4.08582C10.5424 4.08582 5.90124 7.76815 4.48828 12.788C4.59836 12.7862 4.65132 12.7862 4.77612 12.7772C6.32332 7.86298 10.8468 4.42506 15.963 4.42506Z" fill="white"/>
<path d="M30.6426 12.9376C29.8822 12.8431 29.3638 12.8532 27.5117 12.788C27.4275 12.7849 27.3419 12.7823 27.255 12.7791C23.8966 12.6614 18.8518 12.5042 16 12.5042C13.1483 12.5042 8.10368 12.6614 4.7448 12.7791C4.65808 12.7823 4.5728 12.7849 4.4888 12.788C2.63632 12.8532 2.11808 12.8431 1.3576 12.9376C0.59728 13.0329 0 13.3731 0 13.9517V18.1497C0 18.7286 0.71952 19.1974 1.35744 19.1974C1.35744 19.1974 9.4768 19.7096 16 19.7156C22.5234 19.7096 30.6426 19.1974 30.6426 19.1974C31.2805 19.1974 32 18.7286 32 18.1497V13.9517C32 13.3731 31.4029 13.0329 30.6426 12.9376Z" fill="url(#paint5_radial_14216_28577)"/>
<path d="M27.2763 19.3826C25.6829 24.2127 21.2016 27.5774 16.1397 27.5774C11.0262 27.5774 6.48893 24.4864 4.72797 19.3826C4.66333 19.3792 4.59933 19.3766 4.53613 19.3728C6.00125 24.3116 10.6029 27.9168 16.0526 27.9168C21.5041 27.9168 26.1062 24.3093 27.5701 19.3679C27.4737 19.3725 27.376 19.3779 27.2763 19.3826Z" fill="white"/>
<path d="M8.51035 23.6375C7.43867 22.5944 6.58555 21.3318 6.02555 19.9217C5.60171 19.8013 4.96827 19.5059 4.72827 19.3826C4.98474 19.9259 5.28711 20.4453 5.63195 20.9348C6.33739 21.8736 7.19243 22.7104 8.16571 23.4184C8.27899 23.4943 8.39387 23.5672 8.51035 23.6375Z" fill="#4D4D4D"/>
<path d="M27.2856 19.3823L27.2759 19.3826C26.9056 19.594 26.445 19.7974 26.0762 19.9162C26.0712 19.9283 26.0503 19.982 26.046 19.9945C25.5416 21.2374 24.8088 22.3645 23.8984 23.325C25.3234 22.2605 26.4856 20.9157 27.2856 19.3823Z" fill="#8C8C8C"/>
<path d="M4.53559 19.3735V19.3732L4.53191 19.3738C3.63911 19.5355 3.33623 19.5975 2.45239 19.7172C2.52359 19.9755 2.60247 20.23 2.68839 20.482L4.53559 19.3735Z" fill="#252525"/>
<path d="M22.5018 14.7969C22.2349 14.1874 22.3297 14.2513 21.7487 14.2356C21.7015 14.2192 21.5756 14.2192 21.4031 14.2192C21.2309 14.2192 21.1993 14.2192 21.0578 14.2356C20.5087 14.2356 20.6028 14.2035 20.4146 14.6044C20.4146 14.6044 19.4721 16.7694 19.0644 17.6675L19.0487 17.6995C18.9703 17.8596 19.0175 17.8596 19.1428 17.8596H19.9906C20.0537 17.8596 20.0847 17.8282 20.1004 17.7955C20.1004 17.7955 20.226 17.5228 20.3829 17.1381H22.4548C22.6119 17.5071 22.7217 17.7794 22.7217 17.7955C22.7373 17.8437 22.7845 17.8596 22.8314 17.8596H23.7105C23.8361 17.8596 23.8676 17.8764 23.8205 17.7634C23.6633 17.3787 22.6431 15.1332 22.5018 14.7969ZM20.6965 16.3683C20.9634 15.727 21.2306 15.1016 21.2306 15.0854C21.2465 15.0532 21.2778 15.0372 21.3247 15.0372C21.3405 15.0208 21.3879 15.0208 21.4348 15.0208C21.4663 15.0208 21.513 15.0208 21.5289 15.0372C21.5601 15.0372 21.5921 15.0532 21.6071 15.1014C21.6705 15.2775 21.9053 15.8231 22.125 16.3683H20.6965ZM9.39541 14.1872C9.47381 14.1872 9.48965 14.2191 9.48965 14.2833V17.7158C9.48965 17.7956 9.47381 17.8283 9.37989 17.8283H8.56357C8.46965 17.8283 8.45397 17.812 8.45397 17.7158V14.2833C8.45397 14.2191 8.46965 14.1872 8.53221 14.1872H9.39541ZM7.65317 14.2191C7.74709 14.2191 7.76325 14.251 7.76325 14.3316V17.7479C7.76325 17.8444 7.74709 17.8604 7.65317 17.8604H6.69557C6.13077 17.8604 6.08357 17.8604 5.89541 17.5399C5.50293 16.9146 4.32549 15.0701 4.32549 15.0701V17.7482C4.32549 17.8448 4.30981 17.8605 4.21589 17.8605H3.50933C3.41525 17.8605 3.39941 17.8448 3.39941 17.7482V14.3316C3.39941 14.2513 3.41525 14.2191 3.50933 14.2191H4.32549C4.93765 14.2191 5.01605 14.2032 5.23621 14.524C5.40869 14.8129 6.83701 17.0581 6.83701 17.0581V14.3316C6.83701 14.2513 6.85269 14.2191 6.94709 14.2191H7.65317ZM28.6074 14.2191C28.7021 14.2191 28.7175 14.251 28.7175 14.3316V17.7479C28.7175 17.8444 28.7018 17.8604 28.6074 17.8604H27.6508C27.0852 17.8604 27.038 17.8604 26.8498 17.5399C26.457 16.9141 25.2799 15.0697 25.2799 15.0697V17.7481C25.2799 17.8445 25.2642 17.8602 25.1698 17.8602H24.4639C24.3698 17.8602 24.3537 17.8445 24.3537 17.7481V14.3316C24.3537 14.2513 24.37 14.2191 24.4639 14.2191H25.2799C25.8921 14.2191 25.9708 14.2032 26.1901 14.524C26.3786 14.8129 27.7914 17.0581 27.7914 17.0581V14.3316C27.7914 14.2513 27.8073 14.2191 27.9015 14.2191H28.6074ZM12.99 15.615C13.618 15.6789 14.0733 15.7911 14.1988 16.4007C14.1988 16.4485 14.2146 16.609 14.2146 16.7856C14.2146 16.8981 14.2146 17.0419 14.1831 17.1704C14.0735 17.7477 13.6493 17.8599 12.9905 17.8599H10.353C10.2588 17.8599 10.2429 17.8442 10.2429 17.7477V17.1704C10.2429 17.074 10.2588 17.058 10.353 17.058H13.021C13.1311 17.058 13.1625 17.0261 13.178 16.9455V16.8011V16.705C13.1621 16.6406 13.1466 16.5444 13.0055 16.5287C12.7071 16.5127 11.8284 16.4323 11.2316 16.3683C10.4625 16.2881 10.2743 15.9516 10.2428 15.6627C10.2271 15.5663 10.2271 15.4381 10.2271 15.3258C10.2271 15.2295 10.2271 15.0853 10.2428 14.9728C10.3529 14.4592 10.7297 14.2191 11.3885 14.2191H13.9469C14.0415 14.2191 14.073 14.2354 14.073 14.3154V14.909C14.073 14.9886 14.0415 15.021 13.9469 15.005H11.4357C11.3258 15.005 11.2789 15.053 11.2629 15.1652V15.3096C11.2629 15.3898 11.3101 15.4541 11.4199 15.4696C11.7188 15.5023 12.6445 15.5824 12.99 15.615ZM17.5258 15.615C18.1543 15.6789 18.6092 15.7911 18.7349 16.4007C18.7349 16.4485 18.7506 16.609 18.7506 16.7856C18.7506 16.8981 18.7506 17.0419 18.7193 17.1704C18.6097 17.7477 18.186 17.8599 17.5265 17.8599H14.8892C14.7949 17.8599 14.7791 17.8442 14.7791 17.7477V17.1704C14.7791 17.074 14.7949 17.058 14.8892 17.058H17.5577C17.6674 17.058 17.6983 17.0261 17.7145 16.9455V16.8011V16.705C17.6981 16.6406 17.6671 16.5444 17.5417 16.5287C17.2436 16.5127 16.3645 16.4323 15.7682 16.3683C14.9988 16.2881 14.8265 15.9516 14.7791 15.6627C14.7634 15.5663 14.7634 15.4381 14.7634 15.3258C14.7634 15.2295 14.7634 15.0853 14.7791 14.9728C14.8892 14.4592 15.2658 14.2191 15.9249 14.2191H18.4837C18.5775 14.2191 18.6093 14.2354 18.6093 14.3154V14.909C18.6093 14.9886 18.5775 15.021 18.4837 15.005H15.9721C15.8623 15.005 15.8154 15.053 15.7994 15.1652V15.3096C15.7994 15.3898 15.8309 15.4541 15.9567 15.4696C16.2549 15.5023 17.1807 15.5824 17.5258 15.615Z" fill="url(#paint6_radial_14216_28577)"/>
<defs>
<linearGradient id="paint0_linear_14216_28577" x1="16" y1="2.41325" x2="16" y2="25.2042" gradientUnits="userSpaceOnUse">
<stop offset="0.194" stop-color="white"/>
<stop offset="0.208" stop-color="#F8F8F8"/>
<stop offset="0.366" stop-color="#AEAEAE"/>
<stop offset="0.513" stop-color="#707070"/>
<stop offset="0.647" stop-color="#404040"/>
<stop offset="0.764" stop-color="#1D1D1D"/>
<stop offset="0.86" stop-color="#080808"/>
<stop offset="0.922"/>
</linearGradient>
<radialGradient id="paint1_radial_14216_28577" cx="0" cy="0" r="1" gradientUnits="userSpaceOnUse" gradientTransform="translate(61.0186 32.8926) scale(46.472 47.4863)">
<stop offset="0.202" stop-color="white"/>
<stop offset="0.368" stop-color="#E4E4E4"/>
<stop offset="0.594" stop-color="#C4C4C4"/>
<stop offset="1" stop-color="#333333"/>
</radialGradient>
<radialGradient id="paint2_radial_14216_28577" cx="0" cy="0" r="1" gradientUnits="userSpaceOnUse" gradientTransform="translate(23.8899 37.3205) scale(27.071 27.6619)">
<stop offset="0.202" stop-color="white"/>
<stop offset="0.368" stop-color="#E4E4E4"/>
<stop offset="0.594" stop-color="#C4C4C4"/>
<stop offset="1" stop-color="#333333"/>
</radialGradient>
<radialGradient id="paint3_radial_14216_28577" cx="0" cy="0" r="1" gradientUnits="userSpaceOnUse" gradientTransform="translate(7.0172 -3.62887) scale(22.3141 22.8011)">
<stop offset="0.202" stop-color="white"/>
<stop offset="0.382" stop-color="#FDFDFD"/>
<stop offset="0.487" stop-color="#F4F4F4"/>
<stop offset="0.573" stop-color="#E6E6E6"/>
<stop offset="0.648" stop-color="#D2D2D2"/>
<stop offset="0.689" stop-color="#C4C4C4"/>
<stop offset="1" stop-color="#333333"/>
</radialGradient>
<radialGradient id="paint4_radial_14216_28577" cx="0" cy="0" r="1" gradientUnits="userSpaceOnUse" gradientTransform="translate(12.3768 22.4137) scale(14.267 14.5784)">
<stop offset="0.202" stop-color="white"/>
<stop offset="0.368" stop-color="#E4E4E4"/>
<stop offset="0.594" stop-color="#C4C4C4"/>
<stop offset="1" stop-color="#333333"/>
</radialGradient>
<radialGradient id="paint5_radial_14216_28577" cx="0" cy="0" r="1" gradientUnits="userSpaceOnUse" gradientTransform="translate(15.7856 4.88443) scale(21.5123 21.9818)">
<stop offset="0.202" stop-color="white"/>
<stop offset="0.397" stop-color="#FDFDFD"/>
<stop offset="0.51" stop-color="#F4F4F4"/>
<stop offset="0.603" stop-color="#E6E6E6"/>
<stop offset="0.684" stop-color="#D2D2D2"/>
<stop offset="0.728" stop-color="#C4C4C4"/>
<stop offset="1" stop-color="#4D4D4D"/>
</radialGradient>
<radialGradient id="paint6_radial_14216_28577" cx="0" cy="0" r="1" gradientUnits="userSpaceOnUse" gradientTransform="translate(16.2837 7.08575) scale(14.4898 14.806)">
<stop offset="0.111" stop-color="#4D4D4D"/>
<stop offset="0.248" stop-color="#494949"/>
<stop offset="0.355" stop-color="#404040"/>
<stop offset="0.451" stop-color="#2F2F2F"/>
<stop offset="0.541" stop-color="#181818"/>
<stop offset="0.611"/>
</radialGradient>
</defs>
</svg>
