<svg width="32" height="32" viewBox="0 0 32 32" fill="none" xmlns="http://www.w3.org/2000/svg">
<path d="M10.8085 27C21.372 27 27.1513 18.5351 27.1513 11.1965C27.1513 10.9586 27.1459 10.7153 27.1349 10.4773C28.2592 9.69112 29.2294 8.71728 30 7.60158C28.9529 8.05206 27.8412 8.34626 26.7029 8.47414C27.9015 7.77939 28.799 6.68796 29.2289 5.40219C28.1013 6.04839 26.8682 6.50423 25.5823 6.75017C24.716 5.85999 23.5705 5.27059 22.323 5.07309C21.0754 4.87558 19.7954 5.08098 18.6807 5.65753C17.566 6.23407 16.6788 7.14965 16.1562 8.2627C15.6335 9.37575 15.5047 10.6243 15.7895 11.8153C13.5062 11.7045 11.2726 11.1309 9.23331 10.1318C7.19403 9.13272 5.39464 7.73035 3.9518 6.01563C3.21847 7.23825 2.99407 8.68501 3.3242 10.0619C3.65434 11.4387 4.51424 12.6424 5.72914 13.4282C4.81707 13.4002 3.92497 13.1627 3.12656 12.7354V12.8042C3.12575 14.0872 3.58445 15.331 4.42469 16.3239C5.26494 17.3169 6.43488 17.9979 7.73562 18.2511C6.89073 18.4746 6.00398 18.5072 5.14398 18.3463C5.51103 19.4497 6.22517 20.4148 7.18673 21.1069C8.1483 21.7989 9.30931 22.1834 10.5077 22.2067C8.47316 23.7522 5.95987 24.5904 3.37266 24.5864C2.91383 24.5858 2.45547 24.5586 2 24.505C4.62833 26.1356 7.68579 27.0016 10.8085 27Z" fill="#0C8BD9"/>
</svg>
