<svg width="32" height="32" viewBox="0 0 32 32" fill="none" xmlns="http://www.w3.org/2000/svg">
<mask id="mask0_20449_40535" style="mask-type:luminance" maskUnits="userSpaceOnUse" x="3" y="4" width="25" height="25">
<path d="M4.72219 4.44269C4.46322 4.44269 4.22594 4.55192 4.06497 4.73093C3.91993 4.88249 3.82978 5.08868 3.82324 5.31289V5.37248C3.82612 5.47883 3.84702 5.57866 3.88439 5.67038C3.88596 5.67849 3.88936 5.68502 3.89223 5.69312C3.9215 5.76237 3.95835 5.82666 4.00512 5.8865C4.02106 5.90923 4.0391 5.93014 4.05843 5.94922C4.06157 5.95418 4.06627 5.95888 4.07124 5.96385L6.93665 9.36575L7.97122 10.5937L11.0689 14.27L12.1035 15.4961L14.8769 18.7888L15.9097 20.0149V28.6159C15.9664 28.6159 16.0213 28.6143 16.0759 28.6096C16.6189 28.5712 17.1089 28.3389 17.4779 27.9827C17.4797 27.9827 17.4797 27.9827 17.4797 27.9808L17.7842 27.6184L25.2233 18.7888L27.7696 15.7653C27.7824 15.7525 27.7936 15.7379 27.8051 15.7235C27.8597 15.6558 27.9031 15.5798 27.9353 15.4961C27.9758 15.3963 27.9967 15.2868 27.9967 15.1705V5.3419C27.9967 5.10488 27.9047 4.8872 27.7534 4.72936C27.5906 4.55192 27.3567 4.44269 27.0956 4.44269H4.72219Z" fill="white"/>
</mask>
<g mask="url(#mask0_20449_40535)">
<path fill-rule="evenodd" clip-rule="evenodd" d="M4.72219 4.44269C4.46322 4.44269 4.22594 4.55192 4.06497 4.73093C3.91993 4.88249 3.82978 5.08868 3.82324 5.31289V5.37248C3.82612 5.47883 3.84702 5.57866 3.88439 5.67038C3.88596 5.67849 3.88936 5.68502 3.89223 5.69312C3.9215 5.76237 3.95835 5.82666 4.00512 5.8865C4.02106 5.90923 4.0391 5.93014 4.05843 5.94922C4.06157 5.95418 4.06627 5.95888 4.07124 5.96385L6.93665 9.36575L7.97122 10.5937L11.0689 14.27L12.1035 15.4961L14.8769 18.7888L15.9097 20.0149V28.6159C15.9664 28.6159 16.0213 28.6143 16.0759 28.6096C16.6189 28.5712 17.1089 28.3389 17.4779 27.9827C17.4797 27.9827 17.4797 27.9827 17.4797 27.9808L17.7842 27.6184L25.2233 18.7888L27.7696 15.7653C27.7824 15.7525 27.7936 15.7379 27.8051 15.7235C27.8597 15.6558 27.9031 15.5798 27.9353 15.4961C27.9758 15.3963 27.9967 15.2868 27.9967 15.1705V5.3419C27.9967 5.10488 27.9047 4.8872 27.7534 4.72936C27.5906 4.55192 27.3567 4.44269 27.0956 4.44269H4.72219Z" fill="url(#paint0_linear_20449_40535)"/>
</g>
<path fill-rule="evenodd" clip-rule="evenodd" d="M15.91 24.9385V28.6158C15.3008 28.6158 14.7481 28.3741 14.3418 27.9824C14.3402 27.9824 14.3402 27.9824 14.3402 27.9811L14.0358 27.6184L6.59666 18.7888L4.06497 15.7831C4.05843 15.7799 4.05373 15.7734 4.05033 15.7668L4.01009 15.7203C4.00695 15.7169 4.00512 15.7138 4.00225 15.7104C3.95364 15.6445 3.91183 15.5735 3.88439 15.4961C3.84728 15.4044 3.82638 15.3046 3.82324 15.2013V15.1402C3.82324 15.1209 3.82481 15.1013 3.82821 15.0819C3.84572 14.8791 3.93274 14.6983 4.06497 14.5567C4.22777 14.3811 4.46296 14.27 4.72219 14.27H6.91914L7.95215 15.4961L10.7256 18.7888L15.2731 24.1859L15.9084 24.9401L15.91 24.9385Z" fill="#FCD1CA"/>
<path fill-rule="evenodd" clip-rule="evenodd" d="M15.91 20.0157V24.938L15.9084 24.9396L15.2739 24.1857L10.7264 18.7891L7.95241 15.4969L6.91914 14.27L4.04824 10.8645C4.03622 10.8511 4.0242 10.836 4.01218 10.8206C3.95939 10.7529 3.91549 10.6774 3.88361 10.594C3.84755 10.502 3.82638 10.4022 3.82324 10.2966V10.236C3.82925 10.011 3.91993 9.80847 4.06497 9.65455C4.22673 9.47606 4.46218 9.36578 4.72219 9.36578H6.93717L7.97201 10.594L11.0695 14.27L12.1027 15.4969L14.8767 18.7891L15.91 20.0157Z" fill="#FF9D8D"/>
<defs>
<linearGradient id="paint0_linear_20449_40535" x1="2176.21" y1="-281.738" x2="314.756" y2="1579.76" gradientUnits="userSpaceOnUse">
<stop stop-color="#FF6660"/>
<stop offset="1" stop-color="#FB4444"/>
</linearGradient>
</defs>
</svg>
