<svg width="32" height="32" viewBox="0 0 32 32" fill="none" xmlns="http://www.w3.org/2000/svg">
<path d="M15.308 9.05271C14.9971 11.1524 14.7478 12.9215 14.3001 15.6752C15.5107 15.6501 18.2608 16.112 18.8655 12.3486C19.3669 9.21693 17.134 8.9279 15.308 9.05271Z" fill="#21262E"/>
<path d="M25.7999 24.1952C26.2706 25.2007 25.7963 26.4714 24.8128 26.9834C24.2483 27.2774 23.6043 27.5514 22.9596 27.7041C22.3105 27.8576 21.2553 28.0512 19.9093 28.1043C19.8456 28.1064 19.7818 28.1078 19.7195 28.1078C17.973 28.1078 16.2236 27.1498 15.4686 25.983C15.2737 26.386 14.5689 27.1943 13.336 27.575C12.5566 27.816 11.6168 28.1078 9.65534 28.1057C7.89814 28.1043 6.89667 27.3412 6.36585 26.6994C5.5227 25.6804 5.39876 24.386 5.56353 23.514L5.57212 23.4724C6.23404 20.282 7.14238 14.4842 7.55928 11.5784L7.56359 11.5497C7.67822 10.7444 7.79428 9.93838 7.86304 9.12733C7.89745 8.71856 7.92035 8.30834 7.92467 7.89819C7.92892 7.51021 7.891 7.12297 7.89526 6.73502C7.89958 6.37001 7.96046 5.99926 8.13953 5.67656C8.42965 5.15378 8.96191 4.74216 9.52426 4.56288C10.141 4.36639 10.7865 4.28608 11.4276 4.2158C12.0831 4.14409 12.7393 4.0731 13.399 4.02576C13.6627 4.00712 13.9263 3.99134 14.1899 3.97844C14.7293 3.95334 15.2702 3.94043 15.8103 3.94043C17.1879 3.94043 18.574 3.96338 19.9301 4.23086C21.3134 4.50336 22.7096 5.02614 23.8006 5.94117C24.5478 6.56793 25.1416 7.35962 25.5864 8.2252C25.9783 8.98819 26.1366 9.79061 26.2304 10.4052C26.3358 11.0929 26.358 11.7921 26.2978 12.4834C26.2577 12.9423 26.1932 13.3447 26.1008 13.7125C25.9038 14.4956 25.5671 15.2457 25.0993 15.942C24.58 16.7158 23.9138 17.4171 23.0635 18.0862C23.5813 19.5247 24.9295 22.3372 25.7999 24.1952ZM10.3352 6.88131C10.3674 7.41484 10.3724 7.95412 10.3488 8.48977C10.3244 9.03693 10.275 9.58266 10.212 10.1262C10.1497 10.6684 10.0737 11.2084 9.99708 11.7483C9.98845 11.8072 9.98062 11.866 9.97199 11.9255C9.72986 13.6135 9.47627 15.3002 9.20905 16.984C8.92899 18.7524 8.61447 20.5129 8.30001 22.2755C8.15385 23.0967 7.8265 24.1494 8.27423 24.9339C8.67397 25.6338 9.69763 25.7184 10.4111 25.6481C13.0108 25.3935 13.4234 24.8399 13.4234 24.8399C12.9055 24.2899 13.3554 21.7808 13.8776 18.4074H15.7251L17.6585 24.0131C17.6585 24.0131 18.2287 25.75 19.8133 25.6661C21.8428 25.5592 23.3356 25.1139 23.5506 24.8679C22.9252 24.533 21.1393 20.2504 20.1651 17.1052C20.6364 16.8305 21.0935 16.5308 21.524 16.1951C22.1136 15.7355 22.6587 15.2049 23.0771 14.5817C23.3772 14.1342 23.6064 13.6408 23.7375 13.1173C23.807 12.8412 23.8457 12.5529 23.8701 12.2697C23.9138 11.7713 23.8973 11.2679 23.8214 10.7738C23.749 10.299 23.6401 9.77053 23.4195 9.34098C23.0075 8.53926 22.4252 7.84007 21.6314 7.39261C20.2919 6.63821 18.7481 6.49407 17.243 6.41447C15.6119 6.3277 13.9728 6.37933 12.3503 6.56865C12.1691 6.59016 10.328 6.74506 10.3352 6.88131Z" fill="#21262E"/>
</svg>
