<svg width="32" height="32" viewBox="0 0 32 32" fill="none" xmlns="http://www.w3.org/2000/svg">
<path fill-rule="evenodd" clip-rule="evenodd" d="M22.5939 19.8408L8.89136 27.9999L26.6335 26.7926L28 8.85266L22.5939 19.8408Z" fill="url(#paint0_linear_14216_28462)"/>
<path fill-rule="evenodd" clip-rule="evenodd" d="M26.6626 26.7804L25.1376 16.2259L20.9839 21.7261L26.6626 26.7804Z" fill="url(#paint1_linear_14216_28462)"/>
<path fill-rule="evenodd" clip-rule="evenodd" d="M26.6832 26.7804L15.5112 25.901L8.95068 27.977L26.6832 26.7804Z" fill="url(#paint2_linear_14216_28462)"/>
<path fill-rule="evenodd" clip-rule="evenodd" d="M8.96649 27.9794L11.7574 18.8109L5.61597 20.1277L8.96649 27.9794Z" fill="url(#paint3_linear_14216_28462)"/>
<path fill-rule="evenodd" clip-rule="evenodd" d="M4 23.2031L5.7116 20.0729L4.32706 16.3438L4 23.2031Z" fill="url(#paint4_linear_14216_28462)"/>
<path fill-rule="evenodd" clip-rule="evenodd" d="M27.4173 11.8118L20.4704 6.12213L18.5359 12.3936L27.4173 11.8118Z" fill="url(#paint5_linear_14216_28462)"/>
<path fill-rule="evenodd" clip-rule="evenodd" d="M24.1686 4.09348L20.0828 6.35767L17.5051 4.06311L24.1686 4.09348Z" fill="url(#paint6_linear_14216_28462)"/>
<path fill-rule="evenodd" clip-rule="evenodd" d="M4.23511 16.2259L5.62813 20.1883L11.6811 18.8265L18.5917 12.3862L20.542 6.17431L17.4711 4L12.2503 5.95931C10.6055 7.49347 7.41363 10.529 7.29855 10.5861C7.18469 10.6444 5.19084 14.4233 4.23511 16.2259Z" fill="white"/>
<path d="M11.7222 18.7881L18.5916 12.3862L18.5946 12.3764L20.9827 21.7565L11.7222 18.7881Z" fill="url(#paint7_linear_14216_28462)"/>
<path fill-rule="evenodd" clip-rule="evenodd" d="M9.12643 9.10786C12.6914 5.56337 17.2871 3.46923 19.0508 5.25363C20.8134 7.03802 18.9442 11.3745 15.3793 14.9178C11.8144 18.461 7.27553 20.6706 5.51305 18.8862C3.74936 17.103 5.5615 12.6511 9.12643 9.10786Z" fill="url(#paint8_linear_14216_28462)"/>
<path fill-rule="evenodd" clip-rule="evenodd" d="M8.96655 27.9757L11.7356 18.778L20.932 21.7407C17.6069 24.8673 13.9088 27.5105 8.96655 27.9757Z" fill="url(#paint9_linear_14216_28462)"/>
<path fill-rule="evenodd" clip-rule="evenodd" d="M4 23.1618C4.13082 27.8811 7.52617 27.9514 8.97249 27.9928L5.63166 20.1688L4 23.1618Z" fill="#9E1209"/>
<path fill-rule="evenodd" clip-rule="evenodd" d="M5.61703 20.1786L5.09253 26.4416C6.08218 27.7972 7.44371 27.915 8.87187 27.8093C7.83861 25.2305 5.77451 20.0741 5.61703 20.1786Z" fill="url(#paint10_linear_14216_28462)"/>
<path fill-rule="evenodd" clip-rule="evenodd" d="M18.6038 12.368L20.9646 21.7455C23.7422 18.8169 26.2351 15.6684 27.456 11.774L18.6038 12.368Z" fill="url(#paint11_linear_14216_28462)"/>
<path fill-rule="evenodd" clip-rule="evenodd" d="M11.7319 18.778L15.4337 25.9399C17.6226 24.7495 19.3366 23.2991 20.9065 21.7455L11.7319 18.778Z" fill="url(#paint12_radial_14216_28462)"/>
<path fill-rule="evenodd" clip-rule="evenodd" d="M27.4319 11.8215C28.3768 8.9621 28.5948 4.86007 24.1394 4.09845L20.4836 6.12335L27.4319 11.8215Z" fill="url(#paint13_linear_14216_28462)"/>
<path fill-rule="evenodd" clip-rule="evenodd" d="M18.6169 12.3827C20.7513 13.6982 25.0528 16.3401 25.1401 16.3887C25.2756 16.4653 26.9946 13.482 27.3846 11.796L18.6169 12.3827Z" fill="url(#paint14_radial_14216_28462)"/>
<path fill-rule="evenodd" clip-rule="evenodd" d="M20.4619 6.13906L27.8159 7.17398C27.4234 5.5062 26.2181 4.42998 24.1637 4.09351L20.4619 6.13906Z" fill="url(#paint15_linear_14216_28462)"/>
<defs>
<linearGradient id="paint0_linear_14216_28462" x1="25.086" y1="30.1826" x2="20.0017" y2="21.2308" gradientUnits="userSpaceOnUse">
<stop stop-color="#FB7655"/>
<stop offset="0.41" stop-color="#E42B1E"/>
<stop offset="0.99" stop-color="#990000"/>
<stop offset="1" stop-color="#990000"/>
</linearGradient>
<linearGradient id="paint1_linear_14216_28462" x1="27.6081" y1="22.6526" x2="21.0718" y2="18.2785" gradientUnits="userSpaceOnUse">
<stop stop-color="#871101"/>
<stop offset="0.99" stop-color="#911209"/>
<stop offset="1" stop-color="#911209"/>
</linearGradient>
<linearGradient id="paint2_linear_14216_28462" x1="22.3874" y1="30.4543" x2="15.8512" y2="26.0804" gradientUnits="userSpaceOnUse">
<stop stop-color="#871101"/>
<stop offset="0.99" stop-color="#911209"/>
<stop offset="1" stop-color="#911209"/>
</linearGradient>
<linearGradient id="paint3_linear_14216_28462" x1="8.68744" y1="19.4742" x2="9.70448" y2="26.0656" gradientUnits="userSpaceOnUse">
<stop stop-color="white"/>
<stop offset="0.23" stop-color="#E57252"/>
<stop offset="0.46" stop-color="#DE3B20"/>
<stop offset="0.99" stop-color="#A60003"/>
<stop offset="1" stop-color="#A60003"/>
</linearGradient>
<linearGradient id="paint4_linear_14216_28462" x1="4.47282" y1="17.7935" x2="4.87073" y2="21.7663" gradientUnits="userSpaceOnUse">
<stop stop-color="white"/>
<stop offset="0.31" stop-color="#DE4024"/>
<stop offset="0.99" stop-color="#BF190B"/>
<stop offset="1" stop-color="#BF190B"/>
</linearGradient>
<linearGradient id="paint5_linear_14216_28462" x1="21.8189" y1="7.10008" x2="22.9406" y2="11.9205" gradientUnits="userSpaceOnUse">
<stop stop-color="white"/>
<stop offset="0.18" stop-color="#E46342"/>
<stop offset="0.4" stop-color="#C82410"/>
<stop offset="0.99" stop-color="#A80D00"/>
<stop offset="1" stop-color="#A80D00"/>
</linearGradient>
<linearGradient id="paint6_linear_14216_28462" x1="18.4119" y1="5.40189" x2="23.2253" y2="3.00187" gradientUnits="userSpaceOnUse">
<stop stop-color="white"/>
<stop offset="0.54" stop-color="#C81F11"/>
<stop offset="0.99" stop-color="#BF0905"/>
<stop offset="1" stop-color="#BF0905"/>
</linearGradient>
<linearGradient id="paint7_linear_14216_28462" x1="15.6447" y1="13.3186" x2="16.0195" y2="20.0463" gradientUnits="userSpaceOnUse">
<stop stop-color="white"/>
<stop offset="0.23" stop-color="#E4714E"/>
<stop offset="0.56" stop-color="#BE1A0D"/>
<stop offset="0.99" stop-color="#A80D00"/>
<stop offset="1" stop-color="#A80D00"/>
</linearGradient>
<linearGradient id="paint8_linear_14216_28462" x1="1.7524" y1="22.8406" x2="20.408" y2="3.71065" gradientUnits="userSpaceOnUse">
<stop stop-color="#BD0012"/>
<stop offset="0.07" stop-color="white"/>
<stop offset="0.17" stop-color="white"/>
<stop offset="0.27" stop-color="#C82F1C"/>
<stop offset="0.33" stop-color="#820C01"/>
<stop offset="0.46" stop-color="#A31601"/>
<stop offset="0.72" stop-color="#B31301"/>
<stop offset="0.99" stop-color="#E82609"/>
<stop offset="1" stop-color="#E82609"/>
</linearGradient>
<linearGradient id="paint9_linear_14216_28462" x1="16.0013" y1="24.7754" x2="10.3963" y2="23.3958" gradientUnits="userSpaceOnUse">
<stop stop-color="#8C0C01"/>
<stop offset="0.54" stop-color="#990C00"/>
<stop offset="0.99" stop-color="#A80D0E"/>
<stop offset="1" stop-color="#A80D0E"/>
</linearGradient>
<linearGradient id="paint10_linear_14216_28462" x1="7.23051" y1="27.9704" x2="5.19951" y2="21.099" gradientUnits="userSpaceOnUse">
<stop stop-color="#8B2114"/>
<stop offset="0.43" stop-color="#9E100A"/>
<stop offset="0.99" stop-color="#B3100C"/>
<stop offset="1" stop-color="#B3100C"/>
</linearGradient>
<linearGradient id="paint11_linear_14216_28462" x1="25.6253" y1="18.0315" x2="20.6353" y2="13.5715" gradientUnits="userSpaceOnUse">
<stop stop-color="#7E110B"/>
<stop offset="0.99" stop-color="#9E0C00"/>
<stop offset="1" stop-color="#9E0C00"/>
</linearGradient>
<radialGradient id="paint12_radial_14216_28462" cx="0" cy="0" r="1" gradientUnits="userSpaceOnUse" gradientTransform="translate(12.975 21.7043) scale(8.10906 8.13164)">
<stop stop-color="#A30C00"/>
<stop offset="0.99" stop-color="#800E08"/>
<stop offset="1" stop-color="#800E08"/>
</radialGradient>
<linearGradient id="paint13_linear_14216_28462" x1="27.4541" y1="9.82296" x2="24.9673" y2="7.17171" gradientUnits="userSpaceOnUse">
<stop stop-color="#79130D"/>
<stop offset="0.99" stop-color="#9E120B"/>
<stop offset="1" stop-color="#9E120B"/>
</linearGradient>
<radialGradient id="paint14_radial_14216_28462" cx="0" cy="0" r="1" gradientUnits="userSpaceOnUse" gradientTransform="translate(21.4227 13.6433) scale(6.09995 6.11692)">
<stop stop-color="#A80D00"/>
<stop offset="0.99" stop-color="#7E0E08"/>
<stop offset="1" stop-color="#7E0E08"/>
</radialGradient>
<linearGradient id="paint15_linear_14216_28462" x1="22.7321" y1="5.19012" x2="27.2663" y2="7.18603" gradientUnits="userSpaceOnUse">
<stop stop-color="#B31000"/>
<stop offset="0.44" stop-color="#910F08"/>
<stop offset="0.99" stop-color="#791C12"/>
<stop offset="1" stop-color="#791C12"/>
</linearGradient>
</defs>
</svg>
