<svg width="32" height="32" viewBox="0 0 32 32" fill="none" xmlns="http://www.w3.org/2000/svg">
<path d="M16 30C23.732 30 30 23.732 30 16C30 8.26801 23.732 2 16 2C8.26801 2 2 8.26801 2 16C2 23.732 8.26801 30 16 30Z" fill="url(#paint0_linear_14216_26972)"/>
<path d="M16 28.95C23.1521 28.95 28.9501 23.1521 28.9501 16C28.9501 8.8479 23.1521 3.04999 16 3.04999C8.84796 3.04999 3.05005 8.8479 3.05005 16C3.05005 23.1521 8.84796 28.95 16 28.95Z" fill="url(#paint1_radial_14216_26972)"/>
<path d="M14.8844 27.025C14.9719 27.0359 15.0375 27.1015 15.0375 27.189L14.9609 28.2063C14.9501 28.2938 14.8734 28.3594 14.7859 28.3485C14.6984 28.3375 14.6328 28.2719 14.6328 28.1844L14.7094 27.1671C14.7203 27.0798 14.7969 27.014 14.8844 27.025Z" fill="#F3F3F3"/>
<path d="M17.1048 27.025C17.1923 27.0141 17.2688 27.0688 17.2907 27.1563L17.4219 28.1625C17.4328 28.25 17.3672 28.3265 17.2796 28.3375C17.1923 28.3484 17.1157 28.2938 17.0938 28.2063L16.9626 27.2C16.9517 27.1125 17.0173 27.036 17.1048 27.025Z" fill="#F3F3F3"/>
<path d="M17.1046 27.0141C17.2031 27.0032 17.2906 27.0688 17.3015 27.1563L17.4328 28.1626C17.4438 28.2501 17.3781 28.3376 17.2796 28.3485C17.1811 28.3595 17.0936 28.2939 17.0826 28.2063L16.9514 27.2C16.9404 27.1125 17.0061 27.025 17.1046 27.0141ZM17.2687 28.3266C17.3453 28.3158 17.411 28.2391 17.4 28.1626L17.2687 27.1563C17.2577 27.0798 17.1811 27.025 17.1046 27.036C17.028 27.0469 16.9622 27.1235 16.9732 27.2L17.1046 28.2064C17.1155 28.2829 17.1921 28.3376 17.2687 28.3266Z" fill="white"/>
<path d="M14.8843 27.014C14.9828 27.025 15.0484 27.1016 15.0484 27.1891L14.9718 28.2064C14.9609 28.2939 14.8843 28.3704 14.7859 28.3595C14.6875 28.3485 14.6218 28.272 14.6218 28.1845L14.6984 27.1672C14.7093 27.0688 14.7859 27.0032 14.8843 27.014ZM14.7859 28.3376C14.8624 28.3376 14.9391 28.2829 14.9391 28.2064L15.0156 27.1891C15.0156 27.1125 14.9609 27.0469 14.8734 27.036C14.7968 27.036 14.7203 27.0906 14.7203 27.1673L14.6437 28.1845C14.6437 28.261 14.7093 28.3267 14.786 28.3376H14.7859Z" fill="white"/>
<path d="M24.5531 23.0438C24.6077 22.9781 24.7062 22.9563 24.7718 23.0111L25.5703 23.6344C25.6359 23.6891 25.6468 23.7875 25.5922 23.8532C25.5375 23.9187 25.4391 23.9407 25.3734 23.886L24.5749 23.2625C24.5094 23.2079 24.4983 23.1094 24.5531 23.0438Z" fill="#F3F3F3"/>
<path d="M25.7562 21.25C25.8 21.1735 25.8874 21.1406 25.9639 21.1735L26.8716 21.6329C26.9482 21.6656 26.981 21.7641 26.9373 21.8516C26.8935 21.9282 26.806 21.9611 26.7295 21.9282L25.8219 21.4688C25.7452 21.425 25.7124 21.3266 25.7562 21.25Z" fill="#F3F3F3"/>
<path d="M25.7453 21.2391C25.7892 21.1516 25.8876 21.1188 25.9751 21.1625L26.8829 21.6219C26.9704 21.6657 27.0032 21.7642 26.9594 21.8516C26.9157 21.9391 26.8172 21.9719 26.7298 21.9281L25.822 21.4688C25.7344 21.4361 25.7016 21.3266 25.7453 21.2391ZM26.9267 21.8406C26.9594 21.7641 26.9375 21.6766 26.861 21.6438L25.9532 21.1844C25.8875 21.1517 25.8001 21.1844 25.7563 21.25C25.7236 21.3266 25.7453 21.4141 25.8219 21.4469L26.7297 21.9063C26.8063 21.9391 26.8938 21.9173 26.9267 21.8406Z" fill="white"/>
<path d="M24.1485 21.4579C24.2033 21.3813 24.2908 21.3594 24.3673 21.4141L26.2705 22.6829C26.347 22.7266 26.358 22.8251 26.3143 22.9016C26.2595 22.9782 26.172 23 26.0954 22.9454L24.1923 21.6766C24.1158 21.6219 24.0939 21.5235 24.1485 21.4579Z" fill="#F3F3F3"/>
<path d="M24.1374 21.4469C24.1922 21.3703 24.3016 21.3484 24.3781 21.3922L26.2813 22.6609C26.3578 22.7156 26.3797 22.814 26.325 22.9015C26.2703 22.9782 26.1609 23 26.0845 22.9563L24.1812 21.6875C24.0937 21.6328 24.0827 21.5234 24.1374 21.4469ZM26.2922 22.8906C26.3359 22.8251 26.325 22.7265 26.2595 22.6828L24.3562 21.414C24.2906 21.3703 24.2031 21.3922 24.1593 21.4578C24.1156 21.5234 24.1266 21.6219 24.192 21.6656L26.0953 22.9344C26.1609 22.9782 26.2484 22.9563 26.2922 22.8907V22.8906Z" fill="white"/>
<path d="M24.5422 23.0329C24.5969 22.9563 24.7063 22.9454 24.7828 23.0001L25.5812 23.6235C25.6578 23.6781 25.6687 23.7875 25.614 23.8641C25.5593 23.9407 25.4499 23.9516 25.3735 23.8969L24.575 23.2735C24.4984 23.2188 24.4876 23.1094 24.5422 23.0329ZM25.5922 23.8532C25.6468 23.7875 25.6359 23.7 25.5703 23.6454L24.7719 23.0219C24.7063 22.9782 24.6188 22.9892 24.5641 23.0546C24.5094 23.1204 24.5203 23.2079 24.5859 23.2625L25.3843 23.886C25.4499 23.9298 25.5374 23.9187 25.5921 23.8532H25.5922Z" fill="white"/>
<path d="M22.9233 22.9344C22.989 22.8688 23.0875 22.8688 23.1421 22.9344L24.7609 24.5421C24.8266 24.6078 24.8156 24.7063 24.7609 24.7609C24.6954 24.8265 24.5968 24.8265 24.5422 24.7609L22.9233 23.1532C22.8687 23.0985 22.8687 22.989 22.9233 22.9344Z" fill="#F3F3F3"/>
<path d="M22.9234 22.9235C22.9555 22.8919 22.9987 22.8742 23.0437 22.8742C23.0888 22.8742 23.132 22.8919 23.1641 22.9235L24.7829 24.5312C24.8144 24.5633 24.8321 24.6065 24.8321 24.6515C24.8321 24.6965 24.8144 24.7398 24.7829 24.7719C24.7508 24.8034 24.7076 24.8211 24.6626 24.8211C24.6175 24.8211 24.5743 24.8034 24.5423 24.7719L22.9234 23.1642C22.8468 23.0984 22.8468 22.9892 22.9234 22.9235ZM24.761 24.75C24.8157 24.6953 24.8157 24.5969 24.761 24.5422L23.1422 22.9344C23.0875 22.8798 22.9891 22.8798 22.9344 22.9344C22.8797 22.989 22.8797 23.0875 22.9344 23.1421L24.5532 24.75C24.6078 24.8157 24.6955 24.8157 24.761 24.75Z" fill="white"/>
<path d="M23.0217 24.5641C23.0874 24.5094 23.1858 24.5094 23.2405 24.575L23.9078 25.3406C23.9624 25.4063 23.9515 25.5048 23.8858 25.5594C23.8203 25.6141 23.7217 25.6141 23.6671 25.5485L22.9998 24.7829C22.9452 24.7282 22.9561 24.6298 23.0217 24.5641Z" fill="#F3F3F3"/>
<path d="M23.011 24.5641C23.0876 24.4986 23.186 24.5094 23.2515 24.575L23.9188 25.3406C23.9844 25.4063 23.9734 25.5156 23.8969 25.5813C23.8203 25.6469 23.7219 25.636 23.6563 25.5704L22.989 24.8048C22.9344 24.7282 22.9344 24.6188 23.0109 24.5641H23.011ZM23.886 25.5594C23.9515 25.5048 23.9515 25.4172 23.9078 25.3517L23.2406 24.586C23.1859 24.5313 23.0984 24.5204 23.0328 24.575C22.9672 24.6298 22.9672 24.7173 23.0109 24.7828L23.6782 25.5485C23.7328 25.6141 23.8204 25.6141 23.8859 25.5594H23.886Z" fill="white"/>
<path d="M21.447 24.1485C21.5235 24.0938 21.622 24.1157 21.6658 24.1923L22.9345 26.0844C22.9783 26.1609 22.9564 26.2594 22.8908 26.3032C22.8142 26.3578 22.7158 26.3359 22.672 26.2594L21.4032 24.3671C21.3594 24.2907 21.3813 24.1921 21.4469 24.1485H21.447Z" fill="#F3F3F3"/>
<path d="M21.447 24.1375C21.5235 24.0829 21.6329 24.1048 21.6875 24.1813L22.9563 26.0734C23.0109 26.1499 22.989 26.2593 22.9016 26.3139C22.825 26.3687 22.7157 26.3468 22.6609 26.2702L21.3923 24.3781C21.3377 24.2907 21.3596 24.1923 21.447 24.1376V24.1375ZM22.8907 26.2921C22.9563 26.2483 22.9782 26.1608 22.9344 26.0952L21.6658 24.2031C21.622 24.1376 21.5345 24.1265 21.458 24.1704C21.3923 24.214 21.3704 24.3015 21.4142 24.3672L22.6828 26.2593C22.7266 26.3139 22.8251 26.3358 22.8906 26.292L22.8907 26.2921Z" fill="white"/>
<path d="M21.2171 25.7671C21.2936 25.7234 21.3921 25.7453 21.4358 25.8219L21.939 26.7079C21.9827 26.7844 21.9498 26.8829 21.8733 26.9266C21.7967 26.9704 21.6983 26.9485 21.6546 26.8719L21.1515 25.9859C21.1187 25.9094 21.1406 25.8109 21.217 25.7673L21.2171 25.7671Z" fill="#F3F3F3"/>
<path d="M21.2171 25.7563C21.3046 25.7125 21.4031 25.7344 21.4468 25.811L21.9499 26.697C21.9937 26.7736 21.9718 26.883 21.8844 26.9267C21.7968 26.9705 21.6983 26.9486 21.6546 26.872L21.1516 25.986C21.1077 25.9094 21.1296 25.811 21.217 25.7563H21.2171ZM21.8733 26.9159C21.9391 26.872 21.9718 26.7845 21.9281 26.7189L21.425 25.8329C21.3812 25.7673 21.2937 25.7454 21.2281 25.7781C21.1624 25.8219 21.1296 25.9094 21.1733 25.975L21.6766 26.8611C21.7093 26.9267 21.8077 26.9595 21.8733 26.9157V26.9159Z" fill="white"/>
<path d="M19.7625 25.0454C19.85 25.0126 19.9375 25.0454 19.9704 25.1219L20.8563 27.2328C20.8891 27.3094 20.8454 27.4078 20.7688 27.4406C20.6923 27.4734 20.5938 27.4406 20.5611 27.364L19.6751 25.2532C19.6423 25.1766 19.686 25.0782 19.7625 25.0454Z" fill="#F3F3F3"/>
<path d="M19.7626 25.0344C19.8501 25.0017 19.9485 25.0344 19.9923 25.1219L20.8782 27.2328C20.8941 27.2749 20.8926 27.3215 20.8742 27.3625C20.8557 27.4035 20.8218 27.4355 20.7798 27.4515C20.6923 27.4844 20.5938 27.4515 20.5501 27.364L19.6642 25.2532C19.6314 25.1765 19.6752 25.0782 19.7626 25.0344ZM20.7579 27.4297C20.8344 27.3969 20.8673 27.3094 20.8344 27.2438L19.9485 25.1328C19.9158 25.0563 19.8283 25.0234 19.7517 25.0563C19.6752 25.089 19.6422 25.1765 19.6752 25.2422L20.561 27.3532C20.6048 27.4297 20.6813 27.4625 20.7579 27.4297Z" fill="white"/>
<path d="M19.2264 26.5985C19.314 26.5657 19.4014 26.6094 19.4342 26.6969L19.7515 27.6594C19.7842 27.736 19.7296 27.8344 19.6531 27.8563C19.5656 27.8891 19.4781 27.8454 19.4453 27.7579L19.1281 26.7954C19.0953 26.7188 19.139 26.6313 19.2265 26.5985H19.2264Z" fill="#F3F3F3"/>
<path d="M12.7517 26.5876C12.8393 26.6095 12.8939 26.697 12.872 26.7845L12.5986 27.7688C12.5768 27.8563 12.4893 27.9 12.4018 27.8782C12.381 27.8732 12.3613 27.8641 12.344 27.8515C12.3266 27.8389 12.312 27.823 12.3008 27.8047C12.2896 27.7864 12.2821 27.7661 12.2788 27.7449C12.2755 27.7238 12.2764 27.7022 12.2814 27.6813L12.5549 26.697C12.5768 26.6095 12.6643 26.5658 12.7518 26.5876H12.7517Z" fill="#F3F3F3"/>
<path d="M19.2158 26.5876C19.2579 26.5718 19.3045 26.5732 19.3455 26.5917C19.3865 26.6101 19.4185 26.6441 19.4346 26.6861L19.7519 27.6485C19.7846 27.736 19.7299 27.8345 19.6423 27.8673C19.6003 27.8832 19.5536 27.8817 19.5126 27.8633C19.4716 27.8448 19.4396 27.8109 19.4236 27.7689L19.1064 26.8064C19.0845 26.7189 19.1283 26.6205 19.2158 26.5876ZM19.6424 27.8453C19.719 27.8235 19.7627 27.736 19.7409 27.6595L19.4236 26.697C19.4018 26.6205 19.3143 26.5876 19.2377 26.6095C19.1611 26.6314 19.1174 26.7189 19.1393 26.7955L19.4565 27.7579C19.462 27.7765 19.4715 27.7937 19.4841 27.8084C19.4968 27.8231 19.5124 27.8349 19.5299 27.8432C19.5475 27.8514 19.5666 27.8559 19.5859 27.8563C19.6053 27.8567 19.6246 27.853 19.6424 27.8454V27.8453Z" fill="white"/>
<path d="M12.7515 26.5768C12.8391 26.5986 12.9047 26.697 12.8718 26.7845L12.5984 27.7689C12.5766 27.8564 12.4781 27.9112 12.3906 27.8891C12.3031 27.8674 12.2375 27.7689 12.2703 27.6814L12.5437 26.697C12.5656 26.6095 12.6531 26.5548 12.7515 26.5767V26.5768ZM12.3906 27.8564C12.4672 27.8783 12.5547 27.8345 12.5766 27.758L12.8499 26.7736C12.8718 26.697 12.8281 26.6205 12.7406 26.5986C12.6641 26.5767 12.5766 26.6205 12.5547 26.697L12.2812 27.6814C12.2703 27.758 12.314 27.8345 12.3906 27.8564Z" fill="white"/>
<path d="M15.9782 25.7999C16.0657 25.7999 16.1423 25.8656 16.1423 25.9531V28.239C16.1423 28.3265 16.0657 28.3922 15.9782 28.3922C15.8908 28.3922 15.8142 28.3265 15.8142 28.239V25.9531C15.8252 25.8656 15.8908 25.7999 15.9782 25.7999Z" fill="#F3F3F3"/>
<path d="M15.9782 25.7889C16.0767 25.7889 16.1532 25.8655 16.1532 25.953V28.2389C16.1532 28.3264 16.0767 28.403 15.9782 28.403C15.8798 28.403 15.8032 28.3264 15.8032 28.2389V25.9531C15.8032 25.8656 15.8907 25.7889 15.9782 25.7889ZM15.9782 28.3812C16.0548 28.3812 16.1313 28.3156 16.1313 28.2389V25.9531C16.1313 25.8764 16.0657 25.8108 15.9782 25.8108C15.9017 25.8108 15.8251 25.8764 15.8251 25.9531V28.2389C15.836 28.3156 15.9017 28.3812 15.9782 28.3812Z" fill="white"/>
<path d="M10.7392 25.7455C10.8157 25.7892 10.8485 25.8766 10.8157 25.9532L10.3563 26.8609C10.3125 26.9374 10.225 26.9703 10.1375 26.9265C10.061 26.8828 10.0282 26.7953 10.061 26.7188L10.5205 25.8112C10.5642 25.7345 10.6517 25.7017 10.7392 25.7455Z" fill="#F3F3F3"/>
<path d="M10.7391 25.7344C10.8266 25.7781 10.8594 25.8767 10.8157 25.9641L10.3563 26.8718C10.3125 26.9593 10.214 26.9922 10.1266 26.9484C10.0391 26.9047 10.0063 26.8061 10.0501 26.7188L10.5094 25.8111C10.5532 25.7235 10.6516 25.6907 10.7391 25.7344ZM10.1376 26.9266C10.2141 26.9593 10.3016 26.9374 10.3344 26.8609L10.7938 25.9532C10.8265 25.8875 10.7938 25.8 10.7282 25.7563C10.6516 25.7236 10.5641 25.7454 10.5313 25.8219L10.0719 26.7296C10.0391 26.7953 10.0719 26.8828 10.1376 26.9265V26.9266Z" fill="white"/>
<path d="M14.064 25.6031C14.1515 25.6249 14.2061 25.7014 14.1952 25.7889L13.7467 28.0314C13.7248 28.1189 13.6483 28.1736 13.5608 28.1516C13.4733 28.1298 13.4187 28.0533 13.4296 27.9657L13.878 25.7233C13.889 25.6468 13.9765 25.5921 14.064 25.6031Z" fill="#F3F3F3"/>
<path d="M17.936 25.6032C18.0234 25.5813 18.111 25.636 18.1219 25.7235L18.5814 27.9658C18.6033 28.0532 18.5375 28.1299 18.45 28.1516C18.3626 28.1735 18.275 28.1189 18.2642 28.0314L17.8046 25.7891C17.7937 25.7125 17.8484 25.625 17.9359 25.6031L17.936 25.6032Z" fill="#F3F3F3"/>
<path d="M14.0642 25.592C14.1625 25.6139 14.2173 25.7016 14.2063 25.7889L13.7579 28.0313C13.736 28.1188 13.6485 28.1844 13.5501 28.1625C13.4517 28.1406 13.3969 28.0531 13.4079 27.9656L13.8563 25.7233C13.8782 25.6358 13.9657 25.5811 14.0641 25.5921L14.0642 25.592ZM13.5501 28.1406C13.6267 28.1515 13.7032 28.1078 13.7251 28.0313L14.1735 25.7889C14.1844 25.7124 14.1407 25.6358 14.0532 25.6139C13.9767 25.6031 13.9001 25.6468 13.8782 25.7235L13.4298 27.9656C13.4188 28.0531 13.4735 28.1188 13.5501 28.1406Z" fill="white"/>
<path d="M17.936 25.592C18.0343 25.5702 18.1218 25.6358 18.1437 25.7233L18.603 27.9658C18.6249 28.0532 18.5592 28.1516 18.4717 28.1626C18.3733 28.1845 18.2858 28.1189 18.264 28.0314L17.8046 25.7889C17.7828 25.7014 17.8375 25.6139 17.9358 25.5921L17.936 25.592ZM18.4498 28.1407C18.5265 28.1299 18.5811 28.0532 18.5702 27.9657L18.1108 25.7233C18.1 25.6468 18.0125 25.5921 17.9358 25.6139C17.8593 25.6249 17.8047 25.7014 17.8156 25.7889L18.275 28.0314C18.2967 28.1079 18.3733 28.1516 18.4499 28.1408L18.4498 28.1407Z" fill="white"/>
<path d="M12.2154 25.0454C12.3029 25.0781 12.3357 25.1766 12.3029 25.2531L11.428 27.3641C11.3952 27.4407 11.2967 27.4844 11.2202 27.4407C11.1436 27.3969 11.0998 27.3094 11.1326 27.2329L12.0076 25.1219C12.0403 25.0454 12.1389 25.0016 12.2153 25.0454H12.2154Z" fill="#F3F3F3"/>
<path d="M12.2156 25.0344C12.2576 25.0504 12.2915 25.0825 12.31 25.1235C12.3285 25.1645 12.3299 25.2111 12.314 25.2532L11.439 27.364C11.4061 27.4515 11.3077 27.4844 11.2092 27.4515C11.1672 27.4355 11.1333 27.4035 11.1148 27.3625C11.0964 27.3215 11.0949 27.2749 11.1108 27.2328L11.9858 25.1219C12.0296 25.0344 12.128 24.9907 12.2156 25.0344ZM11.2202 27.4297C11.2967 27.4625 11.3842 27.4297 11.4171 27.3532L12.2921 25.2423C12.3248 25.1657 12.2811 25.0891 12.2046 25.0563C12.128 25.0236 12.0405 25.0563 12.0077 25.1329L11.1327 27.2438C11.1108 27.3094 11.1436 27.3969 11.2202 27.4297Z" fill="white"/>
<path d="M8.92356 24.5313C8.98927 24.586 9.01106 24.6844 8.95642 24.75L8.32202 25.5484C8.26738 25.614 8.16893 25.625 8.10333 25.5703C8.03774 25.5157 8.01584 25.4172 8.07059 25.3515L8.70487 24.5531C8.75952 24.4876 8.85797 24.4766 8.92356 24.5313Z" fill="#F3F3F3"/>
<path d="M10.5203 24.1267C10.5968 24.1813 10.6187 24.2798 10.5641 24.3454L9.29528 26.2378C9.25158 26.3142 9.15302 26.3252 9.07659 26.2815C9.00004 26.2267 8.97813 26.1284 9.03278 26.0627L10.3016 24.1703C10.3453 24.0938 10.4437 24.0719 10.5203 24.1266V24.1267Z" fill="#F3F3F3"/>
<path d="M10.5205 24.1156C10.597 24.1704 10.6189 24.2798 10.5751 24.3563L9.30638 26.2486C9.25174 26.325 9.15328 26.3469 9.06578 26.2923C8.98923 26.2375 8.96733 26.1282 9.01102 26.0516L10.2799 24.1594C10.3345 24.0829 10.4439 24.061 10.5205 24.1156ZM9.07673 26.2704C9.14222 26.3141 9.24079 26.3031 9.28448 26.2377L10.5533 24.3454C10.597 24.2798 10.5752 24.1923 10.5095 24.1485C10.4439 24.1048 10.3455 24.1157 10.3018 24.1812L9.03292 26.0625C8.98923 26.1282 9.01102 26.2266 9.07673 26.2703V26.2704Z" fill="white"/>
<path d="M8.93452 24.5204C9.01107 24.575 9.02203 24.6844 8.96727 24.761L8.33297 25.5595C8.27832 25.636 8.16892 25.647 8.09237 25.5814C8.01582 25.5266 8.00486 25.4173 8.05962 25.3406L8.69392 24.5423C8.74857 24.4656 8.85797 24.4548 8.93452 24.5204ZM8.11427 25.5595C8.17975 25.6141 8.26737 25.6033 8.32201 25.5376L8.95643 24.7391C9.00023 24.6736 8.98917 24.586 8.92368 24.5313C8.85797 24.4766 8.77047 24.4875 8.71583 24.5532L8.08141 25.3516C8.03772 25.4173 8.04867 25.5156 8.11416 25.5595H8.11427Z" fill="white"/>
<path d="M9.03277 22.8907C9.09836 22.9562 9.09836 23.0548 9.03277 23.1094L7.41413 24.7172C7.34842 24.7829 7.25009 24.7719 7.19533 24.7172C7.14069 24.6625 7.12973 24.5531 7.19533 24.4985L8.80302 22.8907C8.86873 22.825 8.96717 22.825 9.03277 22.8907Z" fill="#F3F3F3"/>
<path d="M9.04376 22.8798C9.07527 22.9119 9.09293 22.955 9.09293 23C9.09293 23.045 9.07527 23.0882 9.04376 23.1203L7.42501 24.7283C7.39292 24.7598 7.34974 24.7774 7.30477 24.7774C7.2598 24.7774 7.21662 24.7598 7.18453 24.7283C7.15295 24.6962 7.13525 24.6529 7.13525 24.6079C7.13525 24.5629 7.15295 24.5197 7.18453 24.4876L8.80317 22.8798C8.83527 22.8482 8.87847 22.8306 8.92347 22.8306C8.96847 22.8306 9.01167 22.8482 9.04376 22.8798ZM7.19537 24.7172C7.25001 24.7719 7.34846 24.7719 7.4031 24.7172L9.02186 23.1093C9.07662 23.0547 9.07662 22.9562 9.02186 22.9016C8.96722 22.8468 8.86877 22.8468 8.81412 22.9016L7.19537 24.5093C7.14073 24.564 7.14073 24.6516 7.19537 24.7171V24.7172Z" fill="white"/>
<path d="M7.39221 22.9782C7.44685 23.0437 7.44685 23.1423 7.38125 23.1969L6.60471 23.8533C6.53911 23.908 6.44066 23.897 6.3859 23.8314C6.33125 23.7657 6.33125 23.6673 6.39685 23.6126L7.1734 22.9563C7.23911 22.9016 7.33745 22.9125 7.39221 22.9782Z" fill="#F3F3F3"/>
<path d="M7.40307 22.9671C7.46867 23.0438 7.45772 23.1531 7.39212 23.2078L6.61557 23.864C6.54997 23.9297 6.44057 23.9187 6.37497 23.8422C6.30926 23.7655 6.32021 23.6563 6.38581 23.6015L7.16247 22.9454C7.22796 22.8798 7.33748 22.8907 7.40296 22.9673L7.40307 22.9671ZM6.39676 23.8312C6.45152 23.8968 6.53902 23.8968 6.6045 23.8531L7.38117 23.1969C7.43581 23.1422 7.44677 23.0546 7.39212 22.9892C7.33736 22.9235 7.24986 22.9235 7.18438 22.9673L6.40771 23.6234C6.34211 23.678 6.34211 23.7657 6.39676 23.8311V23.8312Z" fill="white"/>
<path d="M7.82979 21.4031C7.88444 21.4797 7.86254 21.5781 7.78599 21.6219L5.8829 22.8906C5.80636 22.9343 5.70791 22.9124 5.66421 22.8468C5.60945 22.7703 5.63136 22.6718 5.70791 22.628L7.6111 21.3594C7.67681 21.3157 7.77515 21.3375 7.82991 21.4031H7.82979Z" fill="#F3F3F3"/>
<path d="M7.84065 21.4031C7.89529 21.4798 7.87339 21.5891 7.79684 21.6438L5.89379 22.9125C5.81724 22.9672 5.70784 22.9452 5.6532 22.8578C5.59844 22.7813 5.62045 22.6719 5.69689 22.6172L7.60006 21.3485C7.6766 21.2938 7.78589 21.3157 7.84054 21.4031H7.84065ZM5.6751 22.8359C5.71879 22.9015 5.80629 22.9234 5.87188 22.8797L7.77494 21.611C7.84065 21.5673 7.86244 21.4798 7.8078 21.4032C7.7641 21.3375 7.6766 21.3157 7.6109 21.3594L5.70784 22.6282C5.64224 22.6828 5.63129 22.7703 5.6751 22.8359Z" fill="white"/>
<path d="M6.20019 21.1735C6.244 21.25 6.2221 21.3484 6.14555 21.3922L5.25958 21.8953C5.18303 21.939 5.08458 21.9062 5.04089 21.8297C4.99708 21.7532 5.01898 21.6547 5.09553 21.6109L5.9815 21.1079C6.05804 21.0641 6.1565 21.0969 6.2003 21.1735H6.20019Z" fill="#F3F3F3"/>
<path d="M6.21123 21.1625C6.25492 21.25 6.23302 21.3484 6.15647 21.3923L5.27053 21.8953C5.19398 21.939 5.08458 21.9063 5.04089 21.8297C4.99708 21.7422 5.01898 21.6438 5.09553 21.6L5.98147 21.0969C6.05802 21.0531 6.16742 21.086 6.21111 21.1625H6.21123ZM5.05172 21.8188C5.09553 21.8953 5.18303 21.9172 5.24862 21.8734L6.13457 21.3703C6.20016 21.3265 6.22206 21.2391 6.18932 21.1735C6.14552 21.0969 6.05802 21.075 5.99242 21.1188L5.10648 21.6219C5.04089 21.6546 5.01898 21.7422 5.05184 21.8188H5.05172Z" fill="white"/>
<path d="M26.5877 19.2485C26.5927 19.2276 26.6018 19.208 26.6144 19.1907C26.627 19.1734 26.6429 19.1587 26.6612 19.1476C26.6794 19.1364 26.6997 19.1289 26.7209 19.1256C26.7421 19.1223 26.7637 19.1232 26.7845 19.1282L27.7689 19.4016C27.8564 19.4235 27.9001 19.5111 27.8783 19.5985C27.8733 19.6193 27.8642 19.639 27.8516 19.6563C27.839 19.6736 27.8231 19.6883 27.8048 19.6995C27.7865 19.7107 27.7662 19.7182 27.745 19.7215C27.7238 19.7248 27.7022 19.7239 27.6814 19.7189L26.697 19.4454C26.6095 19.4235 26.5658 19.336 26.5876 19.2485H26.5877Z" fill="#F3F3F3"/>
<path d="M26.5765 19.2485C26.5984 19.161 26.6969 19.0954 26.7844 19.1282L27.7688 19.4015C27.8563 19.4234 27.911 19.5219 27.8891 19.6094C27.8672 19.6969 27.7688 19.7624 27.6813 19.7297L26.6969 19.4563C26.6094 19.4344 26.5546 19.3469 26.5767 19.2486L26.5765 19.2485ZM27.8563 19.6094C27.8782 19.5328 27.8344 19.4453 27.7578 19.4234L26.7734 19.15C26.6969 19.1281 26.6203 19.1719 26.5984 19.2594C26.5767 19.336 26.6203 19.4234 26.6969 19.4453L27.6813 19.7188C27.7578 19.7297 27.8344 19.686 27.8563 19.6094Z" fill="white"/>
<path d="M25.0452 19.7735C25.078 19.686 25.1765 19.6531 25.2529 19.686L27.3639 20.5609C27.4405 20.5937 27.4842 20.6922 27.4514 20.7687C27.4186 20.8563 27.3201 20.889 27.2436 20.8563L25.1327 19.9813C25.0452 19.9486 25.0124 19.85 25.0452 19.7736V19.7735Z" fill="#F3F3F3"/>
<path d="M25.0344 19.7625C25.0504 19.7205 25.0825 19.6865 25.1235 19.6681C25.1645 19.6496 25.2111 19.6482 25.2532 19.6641L27.3641 20.5391C27.4516 20.572 27.4843 20.6704 27.4516 20.7689C27.4356 20.8109 27.4036 20.8449 27.3625 20.8633C27.3215 20.8818 27.2749 20.8832 27.2328 20.8673L25.1219 19.9923C25.0344 19.9485 25.0017 19.85 25.0344 19.7625ZM27.4297 20.7579C27.4624 20.6814 27.4297 20.5939 27.3532 20.561L25.2423 19.686C25.1657 19.6532 25.0892 19.6969 25.0563 19.7735C25.0236 19.85 25.0563 19.9375 25.1329 19.9704L27.2438 20.8454C27.3203 20.8673 27.4078 20.8345 27.4297 20.7579Z" fill="white"/>
<path d="M6.93285 19.7188C6.96559 19.8063 6.93285 19.8938 6.84535 19.9266L4.7344 20.8016C4.65785 20.8344 4.5594 20.7907 4.52666 20.7141C4.4938 20.6266 4.52666 20.5391 4.61416 20.5063L6.72511 19.6313C6.80166 19.5986 6.90011 19.6313 6.93285 19.7188Z" fill="#F3F3F3"/>
<path d="M6.9438 19.7079C6.97655 19.7954 6.9438 19.8938 6.8563 19.9375L4.74535 20.8125C4.70329 20.8284 4.65666 20.8269 4.61567 20.8085C4.57468 20.79 4.54268 20.7561 4.52666 20.7141C4.4938 20.6266 4.52666 20.5281 4.61416 20.4844L6.72511 19.6094C6.76717 19.5936 6.8138 19.5951 6.85479 19.6135C6.89578 19.632 6.92779 19.6659 6.9438 19.7079ZM4.54845 20.7031C4.5813 20.7798 4.6688 20.8126 4.7344 20.7906L6.84535 19.9156C6.9219 19.8829 6.95476 19.7954 6.9219 19.7188C6.88916 19.6423 6.80166 19.6094 6.73595 19.6313L4.625 20.5063C4.54845 20.5391 4.51571 20.6266 4.54845 20.7032V20.7031Z" fill="white"/>
<path d="M5.3908 19.1719C5.42354 19.2594 5.37985 19.3469 5.29234 19.3796L4.32984 19.6969C4.25329 19.7296 4.15484 19.675 4.13293 19.5984C4.10019 19.5109 4.14389 19.4235 4.23139 19.3907L5.19389 19.0735C5.27044 19.0407 5.35794 19.0844 5.3908 19.1719Z" fill="#F3F3F3"/>
<path d="M5.40142 19.161C5.43427 19.2485 5.39058 19.3469 5.29213 19.3798L4.32964 19.697C4.24214 19.7297 4.14369 19.6751 4.11084 19.5876C4.0781 19.5 4.12179 19.4016 4.22035 19.3688L5.18273 19.0515C5.27023 19.0298 5.36868 19.0735 5.40153 19.1611L5.40142 19.161ZM4.13285 19.5767C4.15476 19.6533 4.24226 19.6971 4.3188 19.6752L5.28129 19.3579C5.35784 19.3361 5.39069 19.2486 5.36879 19.172C5.34689 19.0955 5.25939 19.0517 5.18284 19.0736L4.22035 19.3909C4.14381 19.4236 4.11095 19.5002 4.13285 19.5767Z" fill="white"/>
<path d="M25.6034 17.936C25.6254 17.8485 25.7019 17.7937 25.7894 17.8048L28.0316 18.2532C28.1191 18.275 28.1738 18.3516 28.1519 18.4391C28.13 18.5266 28.0535 18.5813 27.966 18.5704L25.7237 18.1219C25.6471 18.111 25.5925 18.0235 25.6034 17.936Z" fill="#F3F3F3"/>
<path d="M25.5922 17.9359C25.6141 17.8375 25.7016 17.7829 25.7891 17.7937L28.0314 18.2422C28.1189 18.264 28.1845 18.3515 28.1626 18.4499C28.1408 18.5484 28.0533 18.6031 27.9658 18.5922L25.7234 18.1438C25.6359 18.1219 25.5813 18.0344 25.5922 17.9361V17.9359ZM28.1408 18.4499C28.1518 18.3734 28.1081 18.2969 28.0314 18.275L25.789 17.8266C25.7126 17.8157 25.6359 17.8594 25.614 17.9469C25.6032 18.0234 25.6469 18.1 25.7235 18.1219L27.9658 18.5703C28.0533 18.5812 28.1189 18.5265 28.1408 18.4499Z" fill="white"/>
<path d="M6.37505 17.8704C6.39684 17.9579 6.3422 18.0454 6.2547 18.0563L4.01245 18.4938C3.92495 18.5157 3.8484 18.45 3.82661 18.3625C3.80471 18.275 3.85936 18.1875 3.94686 18.1765L6.1891 17.7391C6.2766 17.7282 6.3641 17.7829 6.37494 17.8704H6.37505Z" fill="#F3F3F3"/>
<path d="M6.39676 17.8704C6.41866 17.9688 6.35307 18.0563 6.26557 18.0781L4.02331 18.5156C3.93581 18.5375 3.84831 18.4719 3.82652 18.3735C3.80461 18.275 3.87021 18.1875 3.95771 18.1657L6.19997 17.7282C6.28736 17.7063 6.37497 17.7719 6.39676 17.8704ZM3.84831 18.3626C3.85926 18.4391 3.93581 18.4938 4.01236 18.4829L6.25461 18.0454C6.33116 18.0344 6.38581 17.9469 6.36402 17.8704C6.35307 17.7938 6.27652 17.7391 6.19986 17.75L3.95771 18.1875C3.88116 18.2094 3.82652 18.286 3.84831 18.3625V18.3626Z" fill="white"/>
<path d="M27.0143 17.1375C27.0251 17.05 27.0908 16.9844 27.1783 16.9844L28.1955 17.061C28.2829 17.0719 28.3485 17.1485 28.3375 17.236C28.3267 17.3235 28.261 17.389 28.1735 17.389L27.1564 17.3125C27.0799 17.3015 27.0142 17.225 27.0142 17.1375H27.0143Z" fill="#F3F3F3"/>
<path d="M27.0032 17.1375C27.0141 17.0391 27.0907 16.9735 27.1782 16.9735L28.1955 17.05C28.2829 17.061 28.3595 17.1375 28.3485 17.236C28.3377 17.3344 28.261 17.4 28.1735 17.4L27.1563 17.3235C27.0688 17.3125 27.0032 17.225 27.0032 17.1375ZM28.3377 17.236C28.3485 17.1594 28.2829 17.0829 28.2064 17.0829L27.189 17.0063C27.1126 17.0063 27.0469 17.061 27.0359 17.1486C27.0251 17.225 27.0907 17.3016 27.1672 17.3016L28.1846 17.3781C28.261 17.3781 28.3267 17.3126 28.3377 17.236Z" fill="white"/>
<path d="M4.97502 17.0283C4.98586 17.1157 4.93122 17.1923 4.84372 17.2033L3.83752 17.3236C3.74991 17.3345 3.67336 17.2689 3.66252 17.1813C3.65157 17.0939 3.70622 17.0173 3.79372 17.0062L4.80002 16.886C4.87657 16.875 4.96407 16.9406 4.97502 17.0283Z" fill="#F3F3F3"/>
<path d="M4.98599 17.0282C4.99683 17.1265 4.93123 17.214 4.84373 17.225L3.83754 17.3453C3.74993 17.3563 3.66254 17.2907 3.65159 17.1922C3.64063 17.0938 3.70623 17.0063 3.79373 16.9954L4.80004 16.875C4.88743 16.8641 4.97504 16.9298 4.98588 17.0281L4.98599 17.0282ZM3.66243 17.1813C3.67338 17.2578 3.75004 17.3235 3.82659 17.3125L4.83278 17.1922C4.90933 17.1813 4.96409 17.1047 4.95314 17.0282C4.94218 16.9516 4.86564 16.886 4.78909 16.8969L3.78278 17.0173C3.70623 17.0282 3.65159 17.1047 3.66243 17.1813Z" fill="white"/>
<path d="M25.8003 16.0329C25.8003 15.9454 25.8658 15.8688 25.9534 15.8688H28.2393C28.3268 15.8688 28.3924 15.9454 28.3924 16.0329C28.3924 16.1204 28.3268 16.1969 28.2393 16.1969H25.9534C25.8659 16.1969 25.8003 16.1204 25.8003 16.0329Z" fill="#F3F3F3"/>
<path d="M25.7893 16.0329C25.7893 15.9344 25.8659 15.8579 25.9534 15.8579H28.2393C28.3268 15.8579 28.4034 15.9344 28.4034 16.0329C28.4034 16.1313 28.3268 16.2078 28.2393 16.2078H25.9534C25.8659 16.2078 25.7893 16.1313 25.7893 16.0329ZM28.3815 16.0438C28.3815 15.9673 28.3159 15.8907 28.2392 15.8907H25.9535C25.8769 15.8907 25.8112 15.9562 25.8112 16.0438C25.8112 16.1204 25.8769 16.1969 25.9535 16.1969H28.2394C28.316 16.1859 28.3816 16.1204 28.3816 16.0438H28.3815Z" fill="white"/>
<path d="M6.19993 15.9672C6.19993 16.0548 6.13444 16.1313 6.04683 16.1313H3.76101C3.67351 16.1313 3.60791 16.0548 3.60791 15.9673C3.60791 15.8798 3.67351 15.8031 3.76101 15.8031H6.04694C6.13444 15.8031 6.20015 15.8798 6.20015 15.9673L6.19993 15.9672Z" fill="#F3F3F3"/>
<path d="M6.21122 15.9671C6.21122 16.0657 6.13456 16.1421 6.04706 16.1421H3.76122C3.67372 16.1421 3.59717 16.0656 3.59717 15.9671C3.59717 15.8688 3.67372 15.7921 3.76122 15.7921H6.04717C6.13467 15.7921 6.21122 15.8688 6.21122 15.9671ZM3.61896 15.9563C3.61896 16.0328 3.68456 16.1094 3.76122 16.1094H6.04706C6.1236 16.1094 6.18931 16.0438 6.18931 15.9563C6.18931 15.8798 6.1236 15.8031 6.04706 15.8031H3.76122C3.68467 15.814 3.61907 15.8798 3.61907 15.9563H3.61896Z" fill="white"/>
<path d="M27.0251 14.9719C27.0141 14.8844 27.0688 14.8079 27.1563 14.7969L28.1624 14.6765C28.2499 14.6657 28.3266 14.7313 28.3374 14.8188C28.3484 14.9063 28.2938 14.9829 28.2063 14.9938L27.2 15.1141C27.1234 15.125 27.0359 15.0594 27.025 14.9719H27.0251Z" fill="#F3F3F3"/>
<path d="M27.0141 14.9719C27.0032 14.8735 27.0688 14.786 27.1563 14.775L28.1624 14.6548C28.2499 14.6438 28.3374 14.7094 28.3484 14.8079C28.3593 14.9063 28.2937 14.9938 28.2062 15.0047L27.2 15.125C27.1126 15.1359 27.025 15.0703 27.0141 14.9719ZM28.3374 14.8188C28.3266 14.7423 28.25 14.6766 28.1734 14.6875L27.1672 14.8079C27.0907 14.8188 27.0359 14.8954 27.0469 14.9719C27.0578 15.0484 27.1344 15.1141 27.2109 15.1032L28.2172 14.9828C28.2937 14.9719 28.3484 14.8954 28.3375 14.8188H28.3374Z" fill="white"/>
<path d="M4.98613 14.8625C4.97507 14.95 4.90947 15.0156 4.82197 15.0156L3.8047 14.939C3.71731 14.9281 3.65171 14.8515 3.66255 14.764C3.6735 14.6765 3.73921 14.6109 3.82671 14.6109L4.84387 14.6875C4.92042 14.6984 4.98613 14.775 4.98613 14.8625Z" fill="#E2E2E2"/>
<path d="M4.99667 14.8625C4.98572 14.961 4.90917 15.0266 4.82167 15.0266L3.80442 14.95C3.71703 14.9391 3.64049 14.8625 3.65144 14.7641C3.66228 14.6657 3.73894 14.6 3.82644 14.6L4.84358 14.6766C4.93108 14.6875 4.99667 14.775 4.99667 14.8625ZM3.66228 14.7641C3.65144 14.8406 3.71703 14.9173 3.79358 14.9173L4.81083 14.9938C4.88727 14.9938 4.95298 14.9391 4.96393 14.8516C4.97488 14.775 4.90917 14.6985 4.83263 14.6985L3.81537 14.6219C3.73894 14.6219 3.67323 14.6875 3.66228 14.7642V14.7641Z" fill="white"/>
<path d="M25.6252 14.1297C25.6033 14.0422 25.6579 13.9547 25.7454 13.9438L27.9875 13.5063C28.0749 13.4844 28.1516 13.55 28.1734 13.6375C28.1953 13.725 28.1406 13.8125 28.0531 13.8234L25.811 14.2609C25.7235 14.2718 25.636 14.2172 25.6251 14.1297H25.6252Z" fill="#F3F3F3"/>
<path d="M25.6031 14.1298C25.5812 14.0314 25.6468 13.9439 25.7343 13.9219L27.9766 13.4844C28.0641 13.4625 28.1516 13.5282 28.1734 13.6267C28.1953 13.725 28.1297 13.8125 28.0422 13.8344L25.7999 14.272C25.7125 14.2939 25.6249 14.2283 25.6031 14.1297V14.1298ZM28.1516 13.6375C28.1406 13.561 28.0641 13.5063 27.9875 13.5173L25.7453 13.9548C25.6687 13.9658 25.6141 14.0532 25.6359 14.1298C25.6468 14.2064 25.7234 14.261 25.8 14.2501L28.0422 13.8125C28.1187 13.7906 28.1734 13.7141 28.1516 13.6375Z" fill="white"/>
<path d="M6.39679 14.064C6.37488 14.1515 6.29834 14.2063 6.21084 14.1953L3.96869 13.7359C3.88119 13.714 3.82643 13.6375 3.84834 13.55C3.87024 13.4625 3.94679 13.4078 4.03429 13.4188L6.27655 13.8672C6.35309 13.889 6.40774 13.9765 6.39679 14.064Z" fill="#F3F3F3"/>
<path d="M6.40797 14.064C6.38607 14.1625 6.29857 14.2172 6.21107 14.2063L3.96894 13.7578C3.88144 13.7359 3.81584 13.6484 3.83775 13.5501C3.85954 13.4515 3.94704 13.3969 4.03454 13.4078L6.27678 13.8563C6.36428 13.8782 6.41892 13.9657 6.40797 14.064ZM3.85954 13.55C3.84859 13.6265 3.89228 13.7031 3.96894 13.725L6.21118 14.1734C6.28773 14.1844 6.36428 14.1407 6.38618 14.0531C6.39702 13.9765 6.35333 13.9 6.27667 13.8781L4.03465 13.4298C3.94715 13.4188 3.88155 13.4734 3.85965 13.55H3.85954Z" fill="white"/>
<path d="M25.0671 12.2813C25.0344 12.1938 25.0671 12.1063 25.1546 12.0736L27.2656 11.1986C27.3421 11.1657 27.4406 11.2094 27.4733 11.286C27.5062 11.3735 27.4733 11.461 27.3858 11.4937L25.275 12.3687C25.1983 12.4015 25.1 12.3687 25.0671 12.2813Z" fill="#F3F3F3"/>
<path d="M25.0564 12.2921C25.0237 12.2047 25.0564 12.1063 25.1439 12.0625L27.2548 11.1875C27.2969 11.1717 27.3435 11.1731 27.3845 11.1916C27.4255 11.21 27.4575 11.244 27.4735 11.286C27.5064 11.3735 27.4735 11.4719 27.386 11.5156L25.2752 12.3906C25.2331 12.4065 25.1865 12.405 25.1455 12.3866C25.1045 12.3682 25.0724 12.3342 25.0564 12.2922V12.2921ZM27.4517 11.2969C27.4189 11.2204 27.3314 11.1875 27.2658 11.2094L25.1548 12.0844C25.0783 12.1171 25.0454 12.2047 25.0783 12.2813C25.111 12.3578 25.1985 12.3907 25.2642 12.3688L27.3751 11.4938C27.4517 11.4611 27.4846 11.3735 27.4517 11.2969Z" fill="white"/>
<path d="M26.6095 12.8282C26.5768 12.7406 26.6204 12.6532 26.7079 12.6204L27.6703 12.3031C27.7469 12.2704 27.8453 12.325 27.8672 12.4016C27.9 12.4891 27.8563 12.5766 27.7688 12.6094L26.8064 12.9267C26.7298 12.9594 26.6423 12.9157 26.6095 12.8281V12.8282Z" fill="#F3F3F3"/>
<path d="M26.5984 12.8391C26.5656 12.7516 26.6093 12.6531 26.7079 12.6204L27.6702 12.3031C27.7577 12.2704 27.8561 12.325 27.889 12.4126C27.9217 12.5 27.878 12.5985 27.7795 12.6313L26.8172 12.9486C26.7297 12.9704 26.6312 12.9266 26.5984 12.8391ZM27.8671 12.4236C27.8452 12.3469 27.7577 12.3031 27.6811 12.325L26.7187 12.6423C26.6422 12.6641 26.6093 12.7516 26.6312 12.8282C26.6531 12.9048 26.7406 12.9485 26.8172 12.9266L27.7796 12.6094C27.8561 12.5767 27.889 12.5 27.8671 12.4235V12.4236Z" fill="white"/>
<path d="M5.41272 12.7517C5.4077 12.7725 5.39862 12.7921 5.38601 12.8095C5.37339 12.8268 5.35748 12.8414 5.3392 12.8526C5.32091 12.8638 5.3006 12.8712 5.27943 12.8745C5.25826 12.8779 5.23664 12.877 5.21582 12.8719L4.2314 12.5985C4.1439 12.5766 4.10021 12.4891 4.122 12.4016C4.12702 12.3808 4.1361 12.3611 4.14871 12.3438C4.16133 12.3265 4.17724 12.3118 4.19552 12.3007C4.21381 12.2895 4.23412 12.282 4.25529 12.2787C4.27646 12.2754 4.29808 12.2763 4.3189 12.2814L5.30332 12.5548C5.39082 12.5766 5.43451 12.6641 5.41272 12.7516V12.7517Z" fill="#F3F3F3"/>
<path d="M5.42331 12.7516C5.40152 12.839 5.30307 12.9047 5.21557 12.8719L4.23114 12.5984C4.14364 12.5765 4.08888 12.4781 4.11079 12.3907C4.13269 12.3031 4.23114 12.2375 4.31865 12.2704L5.30307 12.5438C5.39057 12.5657 5.44533 12.6532 5.42331 12.7515V12.7516ZM4.14364 12.3905C4.12174 12.4671 4.16555 12.5546 4.2421 12.5764L5.22652 12.8499C5.30307 12.8718 5.37962 12.828 5.40152 12.7405C5.42331 12.6639 5.37962 12.5764 5.30307 12.5546L4.31865 12.2812C4.2421 12.2703 4.16555 12.3139 4.14364 12.3906V12.3905Z" fill="white"/>
<path d="M6.95465 12.2266C6.92191 12.314 6.82335 12.3469 6.74691 12.314L4.63585 11.4391C4.5593 11.4063 4.5156 11.3079 4.54835 11.2313C4.5812 11.1438 4.67965 11.111 4.7562 11.1438L6.86715 12.0188C6.95465 12.0515 6.98751 12.15 6.95465 12.2265V12.2266Z" fill="#F3F3F3"/>
<path d="M6.96561 12.2375C6.9496 12.2795 6.91757 12.3135 6.87656 12.3319C6.83554 12.3504 6.78888 12.3518 6.74681 12.3359L4.63584 11.461C4.54834 11.4282 4.5156 11.3298 4.54834 11.2313C4.56436 11.1893 4.59638 11.1553 4.6374 11.1369C4.67841 11.1184 4.72507 11.117 4.76715 11.1329L6.87811 12.0079C6.96561 12.0515 6.99836 12.1501 6.96561 12.2375ZM4.57024 11.2423C4.5375 11.3188 4.57024 11.4063 4.64679 11.4391L6.75776 12.314C6.83431 12.3469 6.91086 12.3031 6.94371 12.2265C6.97645 12.15 6.94371 12.0625 6.86716 12.0298L4.7562 11.1548C4.67965 11.1329 4.59215 11.1657 4.57024 11.2423Z" fill="white"/>
<path d="M23.0766 7.46883C23.0112 7.41407 22.9893 7.31562 23.0439 7.25002L23.6782 6.45157C23.7329 6.38608 23.8313 6.37502 23.8969 6.42978C23.9626 6.48442 23.9844 6.58288 23.9297 6.64847L23.2954 7.44692C23.2408 7.51252 23.1423 7.52347 23.0768 7.46883H23.0766Z" fill="#F3F3F3"/>
<path d="M21.261 6.25477C21.1843 6.21096 21.1515 6.12346 21.1843 6.04692L21.6437 5.13919C21.6873 5.06253 21.7748 5.02968 21.8624 5.07348C21.939 5.11729 21.9717 5.20479 21.939 5.28122L21.4795 6.18906C21.4358 6.26561 21.3483 6.29857 21.2609 6.25477H21.261Z" fill="#F3F3F3"/>
<path d="M21.261 6.26573C21.1734 6.22192 21.1406 6.12347 21.1843 6.03597L21.6437 5.12823C21.6874 5.04062 21.786 5.00788 21.8734 5.05157C21.9609 5.09538 21.9937 5.19383 21.9499 5.28133L21.4906 6.18906C21.4468 6.27656 21.3484 6.30942 21.2609 6.26561L21.261 6.26573ZM21.8625 5.07348C21.7859 5.04073 21.6984 5.06252 21.6656 5.13907L21.2062 6.04692C21.1735 6.11252 21.2062 6.20002 21.2718 6.24382C21.3484 6.27656 21.4359 6.25477 21.4687 6.17823L21.9281 5.27038C21.9609 5.20478 21.9281 5.11728 21.8625 5.07348Z" fill="white"/>
<path d="M21.4799 7.8735C21.4034 7.81885 21.3815 7.7204 21.4361 7.6548L22.7049 5.76253C22.7486 5.68598 22.8472 5.67503 22.9236 5.71884C23.0003 5.77348 23.0221 5.87193 22.9674 5.93753L21.6986 7.8298C21.6549 7.90635 21.5565 7.92825 21.4799 7.8735Z" fill="#F3F3F3"/>
<path d="M21.4798 7.8844C21.4033 7.82976 21.3814 7.72036 21.4252 7.64381L22.6939 5.75159C22.7485 5.67504 22.847 5.65314 22.9345 5.7079C23.011 5.76254 23.0329 5.87194 22.9892 5.94849L21.7204 7.84071C21.6658 7.91726 21.5564 7.93905 21.4798 7.8844ZM22.9235 5.7298C22.858 5.686 22.7595 5.69695 22.7158 5.76254L21.447 7.65476C21.4033 7.72024 21.4251 7.80785 21.4908 7.85155C21.5564 7.89535 21.6548 7.8844 21.6985 7.81881L22.9673 5.93754C23.011 5.87194 22.9892 5.77349 22.9235 5.7298Z" fill="white"/>
<path d="M23.0657 7.47972C22.9892 7.42496 22.9783 7.31556 23.033 7.23901L23.6673 6.44065C23.7219 6.36398 23.8313 6.35303 23.9079 6.41874C23.9844 6.47339 23.9954 6.5828 23.9406 6.65935L23.3063 7.45782C23.2517 7.53437 23.1423 7.54532 23.0657 7.47972ZM23.886 6.44053C23.8205 6.38589 23.7329 6.39684 23.6782 6.46244L23.0438 7.26091C23.0002 7.32651 23.0111 7.41401 23.0766 7.46866C23.1423 7.52342 23.2298 7.51247 23.2844 7.44687L23.9188 6.64839C23.9626 6.5828 23.9515 6.48434 23.8861 6.44065L23.886 6.44053Z" fill="white"/>
<path d="M22.9672 9.10943C22.9016 9.04383 22.9016 8.94538 22.9672 8.89063L24.5858 7.28291C24.6515 7.21731 24.7498 7.22815 24.8046 7.28291C24.8592 7.33755 24.8702 7.44696 24.8046 7.5016L23.1969 9.10943C23.1312 9.17502 23.0328 9.17502 22.9672 9.10943Z" fill="#F3F3F3"/>
<path d="M22.9562 9.12034C22.9247 9.08825 22.907 9.04505 22.907 9.00004C22.907 8.95504 22.9247 8.91184 22.9562 8.87975L24.5749 7.2719C24.607 7.24032 24.6503 7.22263 24.6953 7.22263C24.7403 7.22263 24.7836 7.24032 24.8157 7.2719C24.8472 7.304 24.8649 7.3472 24.8649 7.3922C24.8649 7.4372 24.8472 7.4804 24.8157 7.5125L23.1968 9.12023C23.1647 9.15177 23.1215 9.16945 23.0765 9.16945C23.0315 9.16945 22.9883 9.15177 22.9562 9.12023V9.12034ZM24.8047 7.28286C24.7501 7.2281 24.6516 7.2281 24.597 7.28286L22.9781 8.89058C22.9234 8.94534 22.9234 9.04379 22.9781 9.09844C23.0328 9.1532 23.1312 9.1532 23.1859 9.09844L24.8047 7.49071C24.8593 7.43595 24.8593 7.34845 24.8047 7.28286Z" fill="white"/>
<path d="M24.6078 9.02188C24.5532 8.95628 24.5532 8.85783 24.6188 8.80308L25.3953 8.1469C25.4609 8.09226 25.5593 8.1031 25.6141 8.16881C25.6687 8.2344 25.6687 8.33285 25.6031 8.38749L24.8266 9.04378C24.7609 9.09842 24.6625 9.08747 24.6078 9.02188Z" fill="#F3F3F3"/>
<path d="M24.5968 9.03284C24.5312 8.95629 24.5422 8.84689 24.6077 8.79224L25.3842 8.13594C25.4498 8.07035 25.5592 8.0813 25.6248 8.15785C25.6905 8.23439 25.6796 8.3438 25.614 8.39844L24.8374 9.05474C24.7719 9.12022 24.6624 9.10939 24.5969 9.03284H24.5968ZM25.603 8.1688C25.5483 8.1032 25.4608 8.1032 25.3953 8.14689L24.6187 8.8032C24.5641 8.85784 24.5531 8.94534 24.6077 9.01094C24.6624 9.07653 24.75 9.07653 24.8155 9.03284L25.5921 8.37654C25.6577 8.32189 25.6577 8.23439 25.603 8.1688Z" fill="white"/>
<path d="M24.1705 10.5969C24.1158 10.5204 24.1377 10.4219 24.2143 10.3781L26.1173 9.10942C26.1938 9.06561 26.2923 9.08751 26.336 9.15322C26.3907 9.22977 26.3688 9.32822 26.2923 9.37192L24.3893 10.6406C24.3236 10.6844 24.2251 10.6625 24.1705 10.5969Z" fill="#F3F3F3"/>
<path d="M24.1592 10.5969C24.1046 10.5204 24.1265 10.411 24.2031 10.3563L26.1061 9.08753C26.1827 9.03288 26.2921 9.05479 26.3467 9.14229C26.4015 9.21883 26.3795 9.32824 26.303 9.38277L24.4 10.6517C24.3233 10.7064 24.214 10.6845 24.1592 10.597V10.5969ZM26.3248 9.16419C26.2811 9.09848 26.1936 9.07658 26.128 9.12038L24.2248 10.3891C24.1594 10.4329 24.1373 10.5204 24.1921 10.5969C24.2358 10.6625 24.3233 10.6844 24.389 10.6407L26.2921 9.37193C26.3577 9.31729 26.3686 9.22967 26.3248 9.16419Z" fill="white"/>
<path d="M25.8002 10.8267C25.7564 10.75 25.7783 10.6517 25.8548 10.6079L26.7408 10.1048C26.8173 10.061 26.9158 10.0938 26.9595 10.1703C27.0033 10.2469 26.9814 10.3452 26.9048 10.3891L26.0189 10.8922C25.9423 10.9359 25.8439 10.9032 25.8001 10.8265L25.8002 10.8267Z" fill="#F3F3F3"/>
<path d="M25.7894 10.8375C25.7456 10.75 25.7675 10.6516 25.8441 10.6079L26.73 10.1048C26.8066 10.061 26.916 10.0938 26.9597 10.1703C27.0035 10.2579 26.9816 10.3563 26.905 10.4L26.0191 10.9033C25.9425 10.9469 25.8331 10.9141 25.7894 10.8375ZM26.9487 10.1813C26.905 10.1048 26.8175 10.0829 26.7519 10.1266L25.866 10.6298C25.8004 10.6735 25.7785 10.761 25.8112 10.8266C25.855 10.9031 25.9425 10.925 26.0081 10.8813L26.8941 10.3781C26.9597 10.3454 26.9816 10.2579 26.9487 10.1813Z" fill="white"/>
<path d="M6.24379 10.75C6.20009 10.8266 6.11259 10.8595 6.03604 10.8266L5.12819 10.3673C5.05164 10.3344 5.01879 10.236 5.06259 10.1485C5.10629 10.0719 5.19379 10.0391 5.27033 10.0719L6.17808 10.5313C6.25474 10.575 6.28759 10.6736 6.24379 10.75Z" fill="#F3F3F3"/>
<path d="M6.25485 10.761C6.21104 10.8485 6.11259 10.8814 6.02509 10.8375L5.11735 10.3781C5.02985 10.3344 4.997 10.236 5.04081 10.1485C5.0845 10.061 5.18306 10.0281 5.27045 10.0719L6.17819 10.5313C6.2658 10.5641 6.29854 10.6736 6.25485 10.761ZM5.07355 10.1594C5.04081 10.236 5.06271 10.3235 5.13926 10.3563L6.04699 10.8158C6.1127 10.8485 6.2002 10.8158 6.2439 10.75C6.27664 10.6735 6.25485 10.586 6.1783 10.5531L5.25939 10.094C5.19379 10.0612 5.10629 10.083 5.07344 10.1595L5.07355 10.1594Z" fill="white"/>
<path d="M7.85138 10.5422C7.79674 10.6188 7.70923 10.6407 7.63268 10.586L5.74039 9.32824C5.66395 9.28444 5.653 9.18599 5.69669 9.10944C5.7405 9.03289 5.83895 9.01099 5.9155 9.06563L7.81864 10.3344C7.88424 10.3782 7.90614 10.4767 7.85138 10.5422Z" fill="#F3F3F3"/>
<path d="M7.86239 10.5531C7.80774 10.6298 7.69834 10.6516 7.62191 10.6079L5.72966 9.33905C5.65311 9.28441 5.63121 9.18596 5.68586 9.09857C5.74061 9.02191 5.85002 9 5.92656 9.04381L7.8187 10.3125C7.90619 10.3673 7.91715 10.4766 7.86239 10.5531ZM5.70776 9.10941C5.66407 9.175 5.67502 9.27346 5.7405 9.31715L7.6437 10.5861C7.70929 10.6299 7.79679 10.608 7.8406 10.5424C7.88429 10.4767 7.87334 10.3782 7.80786 10.3345L5.90455 9.06571C5.83895 9.02191 5.75145 9.04381 5.70765 9.10941H5.70776Z" fill="white"/>
<path d="M7.44684 8.95626C7.3922 9.02186 7.29374 9.04376 7.22815 8.98901L6.42968 8.36568C6.36409 8.31093 6.35313 8.21248 6.40778 8.14688C6.46243 8.08129 6.56088 8.05938 6.62659 8.11414L7.42494 8.73746C7.49065 8.79222 7.5016 8.89056 7.44684 8.95626Z" fill="#F3F3F3"/>
<path d="M7.45781 8.96714C7.40316 9.0438 7.29376 9.05475 7.21721 8.99999L6.41878 8.37666C6.34223 8.32202 6.33128 8.21262 6.38604 8.13618C6.44068 8.05952 6.55008 8.04857 6.62652 8.10333L7.42495 8.72666C7.50161 8.78142 7.51256 8.8907 7.45781 8.96736V8.96714ZM6.40783 8.14691C6.35318 8.21251 6.36414 8.3 6.42973 8.35465L7.22817 8.9782C7.29376 9.0219 7.38126 9.01094 7.4359 8.94535C7.49066 8.87975 7.47971 8.79225 7.41411 8.73761L6.61568 8.11406C6.55008 8.07036 6.46247 8.08131 6.40794 8.14691H6.40783Z" fill="white"/>
<path d="M9.0766 9.06563C9.01112 9.13134 8.91255 9.13134 8.8579 9.06563L7.22833 7.45788C7.16273 7.39228 7.17357 7.29383 7.22833 7.23907C7.29393 7.17359 7.39238 7.17359 7.44703 7.23907L9.06588 8.84694C9.13147 8.90158 9.13147 9.01099 9.07683 9.06575L9.0766 9.06563Z" fill="#F3F3F3"/>
<path d="M9.07664 9.07664C9.04455 9.10815 9.00137 9.12581 8.95639 9.12581C8.91142 9.12581 8.86824 9.10815 8.83615 9.07664L7.21725 7.46869C7.18567 7.43659 7.16797 7.39336 7.16797 7.34833C7.16797 7.3033 7.18567 7.26008 7.21725 7.22798C7.24934 7.19643 7.29254 7.17876 7.33754 7.17876C7.38255 7.17876 7.42575 7.19643 7.45784 7.22798L9.07664 8.83582C9.15318 8.90142 9.15318 9.01082 9.07664 9.07642V9.07664ZM7.23938 7.24988C7.18462 7.30464 7.18462 7.40309 7.23938 7.45762L8.85806 9.06546C8.91281 9.12022 9.01115 9.12022 9.0658 9.06546C9.12055 9.01082 9.12055 8.91237 9.0658 8.85772L7.44712 7.23904C7.39247 7.1844 7.30486 7.1844 7.23938 7.25V7.24988Z" fill="white"/>
<path d="M8.9781 7.43597C8.9125 7.49073 8.81405 7.49073 8.7593 7.42502L8.09205 6.65942C8.03752 6.59383 8.04836 6.49538 8.11407 6.44073C8.17955 6.38597 8.27811 6.38597 8.33276 6.45157L9 7.21728C9.05465 7.27192 9.0437 7.37038 8.9781 7.43597Z" fill="#F3F3F3"/>
<path d="M8.989 7.43598C8.91245 7.50158 8.814 7.49074 8.74829 7.42503L8.08115 6.65943C8.01555 6.59383 8.0265 6.48442 8.10305 6.41883C8.1796 6.35312 8.27805 6.36407 8.34365 6.42978L9.01091 7.19527C9.06555 7.27193 9.06555 7.38133 8.989 7.43598ZM8.114 6.44073C8.04829 6.49538 8.04829 6.58288 8.0921 6.64847L8.75936 7.41408C8.814 7.46883 8.9015 7.47979 8.9671 7.42503C9.0327 7.37038 9.0327 7.28277 8.989 7.21728L8.32175 6.45157C8.2671 6.38608 8.17949 6.38608 8.114 6.44073Z" fill="white"/>
<path d="M10.5532 7.85168C10.4767 7.90632 10.3782 7.88442 10.3344 7.80787L9.05478 5.91563C9.01097 5.83908 9.03287 5.74063 9.09847 5.69693C9.17502 5.64229 9.27347 5.66419 9.31728 5.74074L10.586 7.63287C10.6407 7.70942 10.6188 7.80787 10.5532 7.85156V7.85168Z" fill="#F3F3F3"/>
<path d="M10.5533 7.86255C10.4767 7.9173 10.3673 7.89529 10.3126 7.81885L9.04394 5.92658C8.9893 5.85003 9.0112 5.74074 9.09858 5.68609C9.17513 5.63134 9.28452 5.65324 9.33928 5.72979L10.6079 7.62195C10.6626 7.70945 10.6407 7.8079 10.5533 7.86255ZM9.10942 5.70788C9.04383 5.75158 9.02192 5.83908 9.06573 5.90479L10.3344 7.79695C10.3782 7.86254 10.4657 7.8735 10.5421 7.82969C10.6078 7.786 10.6297 7.6985 10.5859 7.6329L9.31738 5.75158C9.27357 5.68609 9.17513 5.66408 9.10965 5.70788H9.10942Z" fill="white"/>
<path d="M10.7829 6.23292C10.7064 6.27661 10.6079 6.25482 10.5643 6.17827L10.0611 5.29232C10.0174 5.21577 10.0501 5.11732 10.1268 5.07352C10.2033 5.02982 10.3018 5.05161 10.3455 5.12827L10.8485 6.01411C10.8814 6.09066 10.8595 6.18911 10.783 6.23292H10.7829Z" fill="#F3F3F3"/>
<path d="M10.7828 6.24388C10.6953 6.28757 10.5968 6.26578 10.5531 6.18912L10.0499 5.30328C10.0062 5.22661 10.0281 5.11732 10.1156 5.07352C10.2031 5.02982 10.3016 5.05161 10.3453 5.12827L10.8483 6.01412C10.8922 6.09067 10.8703 6.18912 10.7829 6.24388H10.7828ZM10.1266 5.08447C10.0609 5.12816 10.0281 5.21566 10.0718 5.28137L10.575 6.16733C10.6187 6.23281 10.7062 6.25483 10.7718 6.22197C10.8375 6.17828 10.8703 6.09067 10.8266 6.02507L10.3234 5.13911C10.2906 5.07363 10.1922 5.04066 10.1266 5.08447Z" fill="white"/>
<path d="M12.2374 6.95471C12.1501 6.98745 12.0625 6.95471 12.0297 6.87816L11.1438 4.7671C11.1111 4.69055 11.1548 4.5921 11.2313 4.55924C11.3188 4.5265 11.4063 4.55924 11.439 4.63579L12.3249 6.74674C12.3578 6.82329 12.3141 6.92174 12.2374 6.95448V6.95471Z" fill="#F3F3F3"/>
<path d="M19.2484 5.41257C19.2275 5.40755 19.2079 5.39847 19.1906 5.38586C19.1733 5.37324 19.1586 5.35734 19.1474 5.33905C19.1363 5.32076 19.1288 5.30045 19.1255 5.27928C19.1222 5.25811 19.1231 5.23649 19.1281 5.21567L19.4016 4.23138C19.4234 4.14388 19.5109 4.10007 19.5984 4.12198C19.6859 4.14388 19.7406 4.23138 19.7187 4.31888L19.4453 5.30328C19.4234 5.39067 19.3359 5.43448 19.2484 5.41257Z" fill="#F3F3F3"/>
<path d="M19.2485 5.42349C19.161 5.40158 19.0954 5.30313 19.1282 5.21575L19.4017 4.23124C19.4234 4.14386 19.5219 4.0891 19.6094 4.111C19.6969 4.1329 19.7625 4.23135 19.7297 4.31874L19.4563 5.30325C19.4344 5.39063 19.3469 5.44539 19.2486 5.42349H19.2485ZM19.6094 4.14386C19.5328 4.12195 19.4454 4.16576 19.4235 4.24231L19.1501 5.22658C19.1282 5.30313 19.1719 5.37979 19.2594 5.40158C19.336 5.42349 19.4235 5.37979 19.4454 5.30325L19.7188 4.31874C19.7297 4.24231 19.686 4.16576 19.6094 4.14374V4.14386Z" fill="white"/>
<path d="M19.7845 6.95471C19.697 6.92185 19.6643 6.8234 19.697 6.74685L20.572 4.63591C20.6047 4.55937 20.7033 4.51556 20.7797 4.55937C20.8673 4.59211 20.9002 4.69067 20.8673 4.76711L19.9924 6.87804C19.9596 6.95471 19.8611 6.9984 19.7846 6.95471H19.7845Z" fill="#F3F3F3"/>
<path d="M12.2377 6.96577C12.1503 6.99851 12.0518 6.96577 12.008 6.87815L11.122 4.76733C11.1062 4.72525 11.1076 4.67859 11.126 4.63758C11.1445 4.59656 11.1785 4.56454 11.2205 4.54852C11.308 4.51578 11.4064 4.54852 11.4503 4.63602L12.3361 6.74696C12.369 6.82351 12.3253 6.92196 12.2378 6.96577H12.2377ZM11.2424 4.57043C11.1658 4.60317 11.133 4.69078 11.1658 4.75638L12.0517 6.8672C12.0844 6.94375 12.1719 6.97649 12.2485 6.94375C12.325 6.91101 12.358 6.8234 12.325 6.7578L11.4392 4.64686C11.3954 4.57031 11.3188 4.53746 11.2423 4.57031L11.2424 4.57043Z" fill="white"/>
<path d="M19.7845 6.96578C19.7424 6.94977 19.7085 6.91774 19.69 6.87673C19.6716 6.83571 19.6701 6.78905 19.686 6.74698L20.561 4.63601C20.5939 4.54851 20.6923 4.51565 20.7908 4.54851C20.8328 4.56453 20.8668 4.59655 20.8852 4.63757C20.9037 4.67858 20.9051 4.72524 20.8892 4.76732L20.0142 6.87828C19.9704 6.96578 19.872 7.00948 19.7845 6.96578ZM20.7798 4.57041C20.7033 4.53767 20.6158 4.57041 20.5829 4.64696L19.7079 6.75793C19.6752 6.83448 19.7189 6.91103 19.7954 6.94388C19.872 6.97662 19.9595 6.94388 19.9923 6.86733L20.8673 4.75637C20.8892 4.69066 20.8564 4.60316 20.7798 4.57041Z" fill="white"/>
<path d="M12.7734 5.40168C12.6859 5.43442 12.5984 5.39062 12.5657 5.30323L12.2485 4.34063C12.2157 4.26408 12.2704 4.16563 12.3469 4.14384C12.4234 4.12194 12.5219 4.15479 12.5546 4.24229L12.8718 5.20478C12.9046 5.28133 12.8609 5.36883 12.7734 5.40157V5.40168Z" fill="#F3F3F3"/>
<path d="M12.7843 5.41256C12.7423 5.42841 12.6956 5.42695 12.6547 5.4085C12.6137 5.39005 12.5817 5.35611 12.5656 5.31411L12.2484 4.35161C12.2156 4.26411 12.2703 4.16577 12.3579 4.13291C12.3999 4.11706 12.4466 4.11852 12.4876 4.13697C12.5286 4.15542 12.5606 4.18936 12.5766 4.23136L12.8937 5.19386C12.9157 5.28136 12.8718 5.37982 12.7843 5.41256ZM12.3578 4.15482C12.2812 4.17661 12.2374 4.26411 12.2593 4.34065L12.5766 5.30327C12.5984 5.37982 12.6859 5.41256 12.7625 5.39065C12.8391 5.36886 12.8828 5.28136 12.8609 5.20482L12.5437 4.2422C12.5382 4.22364 12.5287 4.20645 12.5161 4.19177C12.5034 4.17708 12.4878 4.16523 12.4703 4.15697C12.4527 4.14872 12.4336 4.14425 12.4143 4.14386C12.3949 4.14347 12.3756 4.14716 12.3578 4.1547V4.15482Z" fill="white"/>
<path d="M17.9359 6.39694C17.8483 6.37504 17.7937 6.29849 17.8046 6.21099L18.253 3.96872C18.2749 3.88133 18.3515 3.82657 18.439 3.84847C18.5265 3.87038 18.5811 3.94693 18.5702 4.03443L18.1217 6.2767C18.1108 6.35313 18.0233 6.40789 17.9358 6.39694H17.9359Z" fill="#F3F3F3"/>
<path d="M14.0641 6.39689C13.9766 6.41879 13.8891 6.36414 13.8782 6.27653L13.4188 4.0344C13.3969 3.9469 13.4626 3.87035 13.55 3.84845C13.6376 3.82655 13.725 3.88119 13.7359 3.9688L14.1954 6.21105C14.2063 6.28748 14.1516 6.37498 14.0641 6.39689Z" fill="#F3F3F3"/>
<path d="M14.0641 6.40787C13.9656 6.42977 13.8781 6.36406 13.8562 6.27656L13.3968 4.03442C13.3749 3.94692 13.4406 3.84846 13.5281 3.83751C13.6266 3.81561 13.7141 3.88132 13.7359 3.96882L14.1954 6.21108C14.2172 6.29846 14.1625 6.38608 14.0641 6.40787ZM13.55 3.85942C13.4734 3.87037 13.4187 3.94692 13.4297 4.03442L13.8891 6.27667C13.9 6.35311 13.9874 6.40787 14.0641 6.38596C14.1406 6.37501 14.1953 6.29846 14.1843 6.21096L13.7249 3.96871C13.7031 3.89227 13.6266 3.84846 13.5499 3.85942H13.55Z" fill="white"/>
<path d="M17.9361 6.40782C17.8376 6.38592 17.7829 6.29842 17.7939 6.21092L18.2423 3.96868C18.2642 3.88129 18.3517 3.81558 18.45 3.83748C18.5484 3.85939 18.6032 3.94688 18.5923 4.03438L18.1438 6.27663C18.1219 6.36402 18.0344 6.41877 17.9361 6.40782ZM18.45 3.85939C18.3735 3.84843 18.2969 3.89213 18.275 3.96879L17.8267 6.21103C17.8158 6.28747 17.8595 6.36402 17.9469 6.38603C18.0235 6.39687 18.1 6.35306 18.1219 6.27652L18.5704 4.03438C18.5813 3.94688 18.5267 3.88129 18.45 3.85939Z" fill="white"/>
<path d="M14.8955 4.97504C14.808 4.98599 14.7314 4.93134 14.7095 4.84384L14.5783 3.83752C14.5674 3.75002 14.633 3.67347 14.7206 3.66252C14.808 3.65157 14.8845 3.70633 14.9064 3.79383L15.0376 4.80003C15.0486 4.88754 14.983 4.96409 14.8955 4.97504Z" fill="#F3F3F3"/>
<path d="M14.8954 4.98596C14.797 4.99691 14.7095 4.93131 14.6985 4.8437L14.5674 3.8375C14.5564 3.75 14.622 3.6625 14.7204 3.65155C14.8189 3.64071 14.9064 3.70631 14.9173 3.79381L15.0485 4.80001C15.0595 4.88751 14.9939 4.97501 14.8954 4.98596ZM14.7314 3.67345C14.6548 3.6844 14.5891 3.76095 14.6001 3.8375L14.7314 4.84381C14.7423 4.92036 14.8189 4.97501 14.8954 4.96406C14.972 4.95322 15.0377 4.87656 15.0267 4.80001L14.8954 3.79381C14.8845 3.71726 14.8079 3.6625 14.7314 3.67345Z" fill="white"/>
<path d="M17.1157 4.97501C17.0282 4.96406 16.9626 4.89846 16.9626 4.81096L17.0392 3.79369C17.05 3.7063 17.1267 3.64059 17.2142 3.65154C17.3017 3.66249 17.3673 3.7282 17.3673 3.8157L17.2907 4.83287C17.2798 4.92037 17.2032 4.98597 17.1157 4.97513V4.97501Z" fill="#F3F3F3"/>
<path d="M17.1157 4.98598C17.0173 4.97503 16.9517 4.89848 16.9517 4.81098L17.0282 3.79371C17.0392 3.70632 17.1157 3.62978 17.2142 3.64061C17.3125 3.65157 17.3782 3.72823 17.3782 3.81562L17.3017 4.83288C17.2907 4.93133 17.2142 4.99693 17.1157 4.98598ZM17.2142 3.66252C17.1376 3.66252 17.061 3.71728 17.061 3.79383L16.9844 4.81109C16.9844 4.88753 17.0392 4.95324 17.1267 4.96407C17.2032 4.96407 17.2798 4.90943 17.2798 4.83288L17.3563 3.81562C17.3563 3.73907 17.2907 3.67347 17.214 3.66252H17.2142Z" fill="white"/>
<path d="M16.0219 6.20003C15.9345 6.20003 15.8579 6.13443 15.8579 6.04693V3.76096C15.8579 3.67346 15.9345 3.60786 16.0219 3.60786C16.1094 3.60786 16.186 3.67346 16.186 3.76096V6.04693C16.175 6.13443 16.1094 6.20003 16.0219 6.20003Z" fill="#F3F3F3"/>
<path d="M16.0219 6.21096C15.9235 6.21096 15.8469 6.13441 15.8469 6.04691V3.76097C15.8469 3.67347 15.9235 3.59692 16.0219 3.59692C16.1204 3.59692 16.1969 3.67347 16.1969 3.76097V6.04691C16.1969 6.13441 16.1094 6.21096 16.0219 6.21096ZM16.0219 3.61871C15.9454 3.61871 15.8688 3.68442 15.8688 3.76097V6.04691C15.8688 6.12346 15.9344 6.18917 16.0219 6.18917C16.0985 6.18917 16.175 6.12346 16.175 6.04691V3.76097C16.1642 3.68442 16.0985 3.61871 16.0219 3.61871Z" fill="white"/>
<path d="M16.0767 28.9391C23.2288 28.9391 29.0267 23.1411 29.0267 15.9891C29.0267 8.83697 23.2288 3.03906 16.0767 3.03906C8.92462 3.03906 3.12671 8.83697 3.12671 15.9891C3.12671 23.1411 8.92462 28.9391 16.0767 28.9391Z" fill="url(#paint2_linear_14216_26972)" fill-opacity="0.2"/>
<path d="M25.0454 7.77501L14.6001 14.4688H14.5891V14.4797L14.5782 14.4906L8.05957 25.2423L17.6408 17.5313L17.6517 17.5205V17.5095L25.0455 7.77512L25.0454 7.77501Z" fill="black" fill-opacity="0.05"/>
<path d="M24.8484 7.15155L14.5234 14.4906L17.5859 17.5312L24.8484 7.15155Z" fill="#CD151E"/>
<path d="M14.5344 14.4688L16.0767 15.989L24.8484 7.15155L14.5344 14.4688Z" fill="#FA5153"/>
<path d="M14.5345 14.4688L17.597 17.5093L7.27197 24.8484L14.5345 14.4687V14.4688Z" fill="#ACACAC"/>
<path d="M7.27197 24.8484L16.0766 15.989L14.5344 14.4687L7.27197 24.8484Z" fill="#EEEEEE"/>
<defs>
<linearGradient id="paint0_linear_14216_26972" x1="16" y1="30" x2="16" y2="2" gradientUnits="userSpaceOnUse">
<stop offset="0.25" stop-color="#DBDBDA"/>
<stop offset="1" stop-color="white"/>
</linearGradient>
<radialGradient id="paint1_radial_14216_26972" cx="0" cy="0" r="1" gradientUnits="userSpaceOnUse" gradientTransform="translate(17.8195 13.1554) scale(15.8073 15.8073)">
<stop stop-color="#2ABCE1"/>
<stop offset="0.11363" stop-color="#2ABBE1"/>
<stop offset="1" stop-color="#3375F8"/>
</radialGradient>
<linearGradient id="paint2_linear_14216_26972" x1="15.8307" y1="12.2861" x2="9.78638" y2="23.1302" gradientUnits="userSpaceOnUse">
<stop stop-opacity="0"/>
<stop offset="1"/>
</linearGradient>
</defs>
</svg>
