<svg width="32" height="32" viewBox="0 0 32 32" fill="none" xmlns="http://www.w3.org/2000/svg">
<path d="M26.8666 5.12337C24.1522 1.18873 18.7483 0.0359091 14.8635 2.51698L8.01533 6.92779C6.14764 8.10567 4.8527 10.0354 4.47917 12.2157C4.15543 14.0452 4.42936 15.9248 5.30095 17.5538C4.70329 18.456 4.30485 19.4585 4.13053 20.511C3.73209 22.7415 4.25504 25.0472 5.54998 26.8766C8.28926 30.8113 13.6682 31.9641 17.553 29.483L24.4012 25.0973C26.2689 23.9194 27.5638 21.9897 27.9374 19.8093C28.2611 17.9799 27.9872 16.1002 27.1156 14.4713C27.7132 13.569 28.1117 12.5666 28.286 11.514C28.7093 9.25849 28.1864 6.95285 26.8666 5.12337Z" fill="#FF3E00"/>
<path d="M14.191 27.2525C11.9747 27.829 9.65873 26.9518 8.3638 25.0722C7.56692 23.9695 7.26809 22.5911 7.49221 21.2378C7.54201 21.0123 7.59182 20.8118 7.64162 20.5862L7.76614 20.1852L8.11477 20.4359C8.93656 21.0373 9.83305 21.4884 10.8042 21.7892L11.0533 21.8643L11.0284 22.115C11.0035 22.4658 11.1031 22.8417 11.3023 23.1425C11.7007 23.7189 12.398 23.9946 13.0704 23.8191C13.2198 23.769 13.3692 23.7189 13.4937 23.6437L20.317 19.258C20.6656 19.0324 20.8898 18.7066 20.9645 18.3056C21.0392 17.9047 20.9396 17.4786 20.7155 17.1528C20.317 16.5764 19.6197 16.3258 18.9474 16.5012C18.798 16.5513 18.6485 16.6015 18.524 16.6766L15.9093 18.3558C15.4859 18.6314 15.0128 18.8319 14.5147 18.9572C12.2984 19.5336 9.98246 18.6565 8.68753 16.7769C7.91555 15.6742 7.59182 14.2958 7.84084 12.9425C8.06497 11.6393 8.86185 10.4614 9.98246 9.75971L16.8307 5.37397C17.254 5.09829 17.7271 4.8978 18.2252 4.74743C20.4415 4.17102 22.7575 5.04817 24.0524 6.92777C24.8493 8.03047 25.1481 9.40885 24.924 10.7622C24.8742 10.9877 24.8244 11.1882 24.7497 11.4138L24.6252 11.8147L24.2765 11.5641C23.4547 10.9627 22.5582 10.5115 21.587 10.2108L21.338 10.1356L21.3629 9.88501C21.3878 9.53415 21.2882 9.15823 21.089 8.8575C20.6906 8.28109 19.9933 8.03047 19.3209 8.2059C19.1715 8.25603 19.0221 8.30615 18.8976 8.38133L12.0743 12.7671C11.7256 12.9926 11.5015 13.3184 11.4268 13.7194C11.3521 14.1204 11.4517 14.5464 11.6758 14.8722C12.0743 15.4486 12.7715 15.6993 13.4439 15.5238C13.5933 15.4737 13.7427 15.4236 13.8673 15.3484L16.482 13.6693C16.9054 13.3936 17.3785 13.1931 17.8766 13.0427C20.0929 12.4663 22.4088 13.3435 23.7038 15.2231C24.5006 16.3258 24.7995 17.7042 24.5753 19.0575C24.3512 20.3607 23.5543 21.5386 22.4337 22.2403L15.5855 26.626C15.1622 26.9017 14.689 27.1022 14.191 27.2525Z" fill="white"/>
</svg>
