<svg width="32" height="32" viewBox="0 0 32 32" fill="none" xmlns="http://www.w3.org/2000/svg">
<path fill-rule="evenodd" clip-rule="evenodd" d="M2 16C2 8.26801 8.26801 2 16 2C23.732 2 30 8.26801 30 16C30 23.732 23.732 30 16 30C8.26801 30 2 23.732 2 16Z" fill="#FF5000"/>
<path d="M15.0933 10.7744C24.1679 8.16888 24.6945 12.3721 24.6945 12.3721C24.6945 12.3721 25.2924 15.2758 24.8153 19.8299C24.3367 24.3839 18.4941 22.6929 18.4941 22.6929L18.8112 21.3884L20.1632 21.6841C22.6671 21.8454 22.423 19.6269 22.423 19.6269V13.1804C22.444 10.7332 20.1534 10.4791 16.0426 11.9697L17.0002 12.2322C16.916 12.519 16.6053 12.9646 16.2099 13.4548H21.7095V14.5822H18.6135V15.9943H21.6963V17.1217H18.6135V19.4885C19.074 19.3312 19.5056 19.1203 19.8799 18.839L19.6069 17.8064L21.0636 17.3479L22.2732 20.3588L20.4823 21.113L20.1632 19.9132C19.3651 20.5345 17.7004 21.4331 14.7987 21.3537C11.6963 21.4341 12.4915 17.8064 12.4915 17.8064L12.5712 17.7642H14.7512C14.7474 17.8848 14.7322 18.0246 14.7161 18.1728C14.6696 18.6009 14.6154 19.0992 14.807 19.4066C15.0164 19.746 15.563 19.8046 15.9109 19.8209C15.9407 19.8248 15.9721 19.8256 16.0035 19.8265C16.013 19.8268 16.0224 19.827 16.0318 19.8274V17.1217H12.8683V15.9943H16.0318V14.5822H15.2195C14.5075 15.3478 13.8587 15.9814 13.8587 15.9814L12.904 15.1349C13.5822 14.4115 14.2609 13.2677 14.6778 12.5011C14.3372 12.6425 13.9869 12.7914 13.6267 12.9532C13.271 13.4042 12.8683 13.8711 12.4171 14.3281C12.4337 14.3539 10.8576 13.433 10.8576 13.433C12.4871 12.0213 13.4007 9 13.4007 9L15.6687 9.64257C15.6687 9.64257 15.4779 10.0906 15.0933 10.7744Z" fill="white"/>
<path d="M10.1206 12.1953C11.0151 12.1953 11.7393 11.5348 11.7393 10.7245C11.7393 9.91426 11.0151 9.25284 10.1206 9.25284C9.22754 9.25284 8.50333 9.91426 8.50333 10.7245C8.50333 11.5348 9.22754 12.1953 10.1206 12.1953Z" fill="white"/>
<path d="M8.77921 12.7892L7.76385 14.377L9.64386 15.5659C9.64386 15.5659 10.8956 16.2144 10.301 17.4325C9.73781 18.5867 7 21.1128 7 21.1128L9.45498 22.6654C10.1024 21.2395 10.487 20.4308 10.739 19.9011C11.1466 19.0439 11.2068 18.9175 11.4705 18.0885C11.9085 16.717 12.0015 15.6716 11.2616 14.9183C10.304 13.9463 10.1978 13.8565 8.77921 12.7892Z" fill="white"/>
</svg>
