<svg width="32" height="32" viewBox="0 0 32 32" fill="none" xmlns="http://www.w3.org/2000/svg">
<path d="M0 15.9999C0 21.5138 7.17772 26 16 26C24.8222 26 32 21.5138 32 15.9999C31.9999 10.4856 24.8222 6 15.9999 6C7.1776 6 0 10.4856 0 15.9999ZM0.490986 15.9999C0.490986 10.757 7.44813 6.49129 16 6.49129C24.5516 6.49129 31.509 10.757 31.509 15.9999C31.509 21.244 24.5516 25.5096 16 25.5096C7.44813 25.5094 0.490986 21.2441 0.490986 15.9999Z" fill="black"/>
<path d="M14.4881 7.8179C10.7434 8.04631 8.02343 9.03771 7.55981 10.3438C7.5126 10.4755 7.48828 10.6142 7.48789 10.754C7.48789 10.9743 7.55024 11.1946 7.67397 11.4053C8.19368 12.2897 9.80693 13.0191 12.1027 13.4104L12.3457 13.4501L12.3865 13.2076C12.7633 10.9115 13.5905 9.10601 14.6568 8.25352L15.2609 7.76996L14.4881 7.8179ZM8.09781 11.158C8.01778 11.022 7.97838 10.8879 7.97838 10.7557C7.97838 10.6723 7.99274 10.5909 8.02245 10.508C8.37632 9.51024 10.7803 8.63875 13.8513 8.35761C12.9753 9.34742 12.3016 10.9424 11.9502 12.8802C9.9546 12.5114 8.51969 11.8763 8.09781 11.158ZM13.8034 13.3543L13.7554 13.6211L14.0263 13.6417C14.6688 13.6897 15.333 13.7155 15.9994 13.7155C16.6664 13.7155 17.3309 13.6897 17.9735 13.6417L18.2439 13.6211L18.1958 13.3543C17.8265 11.2825 17.0048 10.0449 15.9997 10.0449C14.994 10.0449 14.1727 11.2825 13.8034 13.3543ZM15.9999 10.5354C16.687 10.5354 17.3213 11.5632 17.6556 13.1676C17.1122 13.203 16.5587 13.2251 15.9994 13.2251C15.4408 13.2251 14.887 13.203 14.3443 13.1676C14.6775 11.5632 15.3128 10.5354 15.9999 10.5354ZM17.3425 8.25377C18.4084 9.10625 19.2364 10.912 19.6133 13.2078L19.6535 13.4503L19.8962 13.4106C22.1929 13.0194 23.807 12.2897 24.3249 11.4054C24.5263 11.0655 24.5646 10.6984 24.44 10.3442C23.9765 9.0382 21.2565 8.0468 17.512 7.81814L16.7401 7.7702L17.3425 8.25377ZM18.1494 8.35761C21.2195 8.63875 23.6234 9.51183 23.9763 10.508C24.007 10.5909 24.0213 10.6723 24.0213 10.7557C24.0213 10.8879 23.9811 11.022 23.9029 11.158C23.4795 11.8762 22.0441 12.5114 20.0495 12.8802C19.6981 10.9425 19.0254 9.34754 18.1494 8.35761ZM5.19032 11.3064C3.50734 12.7146 2.61792 14.3874 2.61792 16.145C2.61792 20.2795 7.66525 23.7743 14.3578 24.2724L15.1053 24.3284L14.5361 23.8427C13.0699 22.5898 12.1594 19.6171 12.1594 16.0842L12.1747 15.2495L11.9695 15.2078C8.44923 14.5776 5.94484 13.0991 5.58826 11.4434L5.50295 11.0459L5.19032 11.3064ZM3.1094 16.145C3.1094 14.6379 3.84538 13.1915 5.22726 11.9353C5.87107 13.6083 8.27665 15.0019 11.677 15.6504C11.6727 15.8419 11.6689 16.0842 11.6689 16.0842C11.6689 19.36 12.4471 22.189 13.7306 23.7153C7.6326 23.0654 3.1094 19.8839 3.1094 16.145ZM13.6035 15.7031L13.602 15.7921C13.602 19.076 14.6328 21.5535 15.9999 21.5535C17.3664 21.5535 18.3973 19.076 18.3973 15.7921L18.394 15.4378L18.1304 15.4604C17.4351 15.5212 16.7193 15.5513 16.0001 15.5513C15.2809 15.5513 14.5641 15.5212 13.8707 15.4604L13.6061 15.4364L13.6035 15.7031ZM17.9034 15.9664C17.8665 19.0218 16.9028 21.0635 15.9999 21.0635C15.0961 21.0635 14.1323 19.0218 14.0963 15.9664C14.7206 16.0123 15.3583 16.041 15.9999 16.041C16.6424 16.041 17.2783 16.0123 17.9034 15.9664ZM26.4106 11.4434C26.0544 13.0991 23.5495 14.5775 20.0304 15.2078L19.8242 15.246L19.8405 16.0841C19.8405 19.617 18.9295 22.5898 17.4637 23.8426L16.8946 24.3283L17.6411 24.2722C24.3342 23.7742 29.3817 20.2794 29.3817 16.1449C29.3817 14.3873 28.4913 12.7144 26.8083 11.3063L26.4966 11.0458L26.4106 11.4434ZM26.7716 11.9353C28.1545 13.1915 28.8909 14.6379 28.8909 16.145C28.8909 19.8839 24.368 23.0654 18.2693 23.7153C19.5529 22.189 20.3311 19.36 20.3311 16.0842C20.3311 16.0842 20.3263 15.8418 20.323 15.6504C23.7222 15.0019 26.1277 13.6081 26.7716 11.9353Z" fill="black"/>
<path d="M26.5846 10.1811C26.6072 10.2434 26.6279 10.3069 26.6441 10.3708C26.7366 10.7382 26.7175 11.0989 26.5975 11.4504C28.1942 12.7656 29.1354 14.3877 29.1354 16.1452C29.1354 20.5321 23.2542 24.0892 15.9999 24.0892C8.74505 24.0892 2.86427 20.5321 2.86427 16.1452C2.86427 14.3891 3.80647 12.7657 5.40119 11.4504C5.28225 11.0989 5.2631 10.7382 5.35565 10.3708C5.3748 10.3011 5.40032 10.2333 5.43188 10.1683C3.25313 11.7188 1.93213 13.7507 1.93213 15.9762C1.93213 20.8353 8.23 24.7741 15.9997 24.7741C23.7685 24.7741 30.0673 20.8353 30.0673 15.9762C30.0676 13.7554 28.7519 11.7281 26.5846 10.1811Z" fill="url(#paint0_linear_14216_28575)"/>
<path d="M18.4788 15.1121L18.1508 15.7045C18.1508 15.7477 18.1528 15.792 18.1528 15.837C18.1528 18.9912 17.1871 21.3828 15.9996 21.3828C14.8109 21.3828 13.8472 18.991 13.8472 15.837C13.8472 15.7873 13.8482 15.7378 13.8492 15.6902L13.5207 15.1121C13.511 15.3525 13.5063 15.5931 13.5063 15.8337C13.5063 19.4098 14.6226 22.1187 16.0001 22.1187C17.3775 22.1187 18.4948 19.4098 18.4948 15.8337C18.4943 15.5931 18.4889 15.3525 18.4788 15.1121Z" fill="url(#paint1_linear_14216_28575)"/>
<path d="M20.0721 15.4472L19.6694 14.9668H19.6661C19.6887 15.3485 19.7015 15.7364 19.7015 16.1305C19.7015 20.904 18.044 24.7736 16 24.7736C18.2918 24.7736 20.0851 21.1847 20.0851 16.1305C20.0851 15.8992 20.0803 15.6724 20.0721 15.4472Z" fill="url(#paint2_linear_14216_28575)"/>
<path d="M12.2994 16.1305C12.2994 15.7364 12.3122 15.3485 12.3343 14.9668H12.3316L11.9279 15.4457C11.9194 15.6739 11.9149 15.9021 11.9146 16.1305C11.9146 21.1847 13.7092 24.7736 16.0002 24.7736C13.9569 24.7736 12.2994 20.9039 12.2994 16.1305Z" fill="url(#paint3_linear_14216_28575)"/>
<path d="M17.9543 13.3974C17.3343 13.4439 16.6808 13.4693 15.9995 13.4693C15.3186 13.4693 14.6656 13.4439 14.0456 13.3974H14.0436L13.6384 13.6915C14.386 13.7566 15.1754 13.7935 15.9998 13.7935C16.8245 13.7935 17.6137 13.7566 18.3617 13.6915L17.9543 13.3974ZM25.14 10.315C24.6462 8.68468 20.5755 7.48743 16 7.48743C11.4252 7.48743 7.35456 8.68493 6.86075 10.315C6.43212 11.7293 8.77192 13.0382 12.4634 13.5573L12.1427 13.1673C9.15648 12.6597 7.38157 11.5773 7.79105 10.4266C8.28731 9.02933 11.8919 8.01758 15.9996 8.01758C20.1072 8.01758 23.7126 9.02958 24.2084 10.4266C24.6174 11.5775 22.8433 12.6598 19.8564 13.1673L19.5368 13.5573C23.2269 13.0382 25.5683 11.7293 25.14 10.315Z" fill="url(#paint4_linear_14216_28575)"/>
<path d="M14.0505 13.3974C14.3933 11.4946 15.137 10.3054 15.9996 10.3054C16.8631 10.3054 17.6062 11.4946 17.9495 13.3974H17.9564L18.3574 13.6881C18.0189 11.1752 17.0916 9.56927 16.0002 9.56927C14.908 9.56927 13.9811 11.1752 13.6431 13.6881L14.044 13.3974H14.0505Z" fill="url(#paint5_linear_14216_28575)"/>
<path d="M12.4687 13.5587C12.9405 10.0659 14.343 7.48706 16.0001 7.48706C14.2236 7.48706 12.7094 9.77172 12.1475 13.1741L12.4639 13.5587H12.4687Z" fill="url(#paint6_linear_14216_28575)"/>
<path d="M19.5319 13.5587H19.5352L19.8517 13.1741C19.2907 9.77172 17.7755 7.48706 16 7.48706C17.6571 7.48731 19.0606 10.0659 19.5319 13.5587Z" fill="url(#paint7_linear_14216_28575)"/>
<path d="M26.5976 11.4501C27.208 11.9531 27.7229 12.5019 28.1256 13.0847C27.9862 12.1577 27.617 11.2802 27.0516 10.532C26.899 10.4109 26.7433 10.2939 26.5844 10.1811C26.6072 10.2434 26.6278 10.3069 26.6437 10.3708C26.7366 10.738 26.7175 11.0986 26.5976 11.4501ZM5.40136 11.4501C5.28241 11.0986 5.26327 10.7379 5.35582 10.3706C5.37497 10.3009 5.40049 10.2331 5.43204 10.168C5.26831 10.286 5.10703 10.4074 4.9483 10.532C4.38373 11.2807 4.01462 12.158 3.87427 13.0847C4.277 12.5019 4.79094 11.9529 5.40136 11.4501Z" fill="#2D2F34"/>
<path d="M0.245605 15.9999C0.245605 10.6133 7.29862 6.24554 16.0001 6.24554C24.7004 6.24554 31.7535 10.6133 31.7535 15.9999C31.7535 21.3876 24.7004 25.7538 16.0001 25.7538C7.29862 25.7536 0.245605 21.3877 0.245605 15.9999ZM16 24.7738C23.7689 24.7738 30.0676 20.835 30.0676 15.9759C30.0676 11.1162 23.7689 7.17613 16 7.17613C8.23014 7.17613 1.9319 11.1165 1.9319 15.9759C1.9319 20.835 8.23026 24.7738 16 24.7738Z" fill="url(#paint8_linear_14216_28575)"/>
<path d="M12.2993 16.1306C12.2993 11.4072 13.9569 7.48743 15.9999 7.48743C18.0438 7.48743 19.7015 11.4072 19.7015 16.1306C19.7015 20.9042 18.0438 24.7738 15.9999 24.7738C13.9559 24.7738 12.2993 20.9041 12.2993 16.1306ZM15.9999 22.1186C17.3775 22.1186 18.4947 19.4097 18.4947 15.8351C18.4947 12.1254 17.3773 9.56941 15.9999 9.56941C14.6224 9.56941 13.5062 12.1254 13.5062 15.8351C13.5062 19.4097 14.6224 22.1186 15.9999 22.1186Z" fill="url(#paint9_linear_14216_28575)"/>
<path d="M5.35592 10.3704C5.76196 8.76462 10.6726 6.42749 16 6.42749C21.327 6.42749 26.0689 8.0974 26.6442 10.3704C27.2881 12.9182 22.5556 15.2239 16 15.2239C9.44325 15.2239 4.71101 12.9183 5.35592 10.3704ZM16 7.4873C11.4252 7.4873 7.3546 8.68481 6.86079 10.3149C6.30745 12.1411 10.3705 13.7933 16 13.7933C21.6306 13.7933 25.6929 12.1408 25.1401 10.3149C24.6463 8.68456 20.5757 7.4873 16 7.4873Z" fill="url(#paint10_linear_14216_28575)"/>
<path d="M13.5156 15.1074L13.5185 15.1094L13.8565 15.7046C14.5445 15.7634 15.26 15.797 15.9998 15.797C16.743 15.797 17.4602 15.7635 18.1528 15.7032L18.4817 15.1091L18.4837 15.1072C17.6926 15.1823 16.8631 15.224 16 15.224C15.1705 15.2245 14.3415 15.1856 13.5156 15.1074ZM26.6996 10.9216C26.6151 12.7433 23.8117 14.3573 19.6678 14.9656L19.6693 14.967L20.0735 15.4495C24.1282 14.7215 26.7956 12.9331 26.6996 10.9216ZM5.30011 10.9216C5.20424 12.9351 7.8714 14.7213 11.9253 15.4495L12.3305 14.967L12.3315 14.9656C8.18686 14.3574 5.38542 12.7434 5.30011 10.9216Z" fill="url(#paint11_linear_14216_28575)"/>
<defs>
<linearGradient id="paint0_linear_14216_28575" x1="15.9997" y1="23.6873" x2="15.9997" y2="12.5723" gradientUnits="userSpaceOnUse">
<stop stop-color="#F0F3F5"/>
<stop offset="0.056" stop-color="#E2E5E8"/>
<stop offset="0.138" stop-color="#D4D8DD"/>
<stop offset="0.242" stop-color="#CCD0D6"/>
<stop offset="0.44" stop-color="#CACED4"/>
<stop offset="0.568" stop-color="#B3B7BD"/>
<stop offset="0.835" stop-color="#797C83"/>
<stop offset="1" stop-color="#52545C"/>
</linearGradient>
<linearGradient id="paint1_linear_14216_28575" x1="18.3848" y1="19.3609" x2="12.8978" y2="16.1894" gradientUnits="userSpaceOnUse">
<stop stop-color="#F0F3F5"/>
<stop offset="0.056" stop-color="#E2E5E8"/>
<stop offset="0.138" stop-color="#D4D8DD"/>
<stop offset="0.242" stop-color="#CCD0D6"/>
<stop offset="0.44" stop-color="#CACED4"/>
<stop offset="0.568" stop-color="#B3B7BD"/>
<stop offset="0.835" stop-color="#797C83"/>
<stop offset="1" stop-color="#52545C"/>
</linearGradient>
<linearGradient id="paint2_linear_14216_28575" x1="18.0425" y1="6.16436" x2="18.0425" y2="22.1074" gradientUnits="userSpaceOnUse">
<stop stop-color="#F0F3F5"/>
<stop offset="0.056" stop-color="#E2E5E8"/>
<stop offset="0.138" stop-color="#D4D8DD"/>
<stop offset="0.242" stop-color="#CCD0D6"/>
<stop offset="0.44" stop-color="#CACED4"/>
<stop offset="0.568" stop-color="#B3B7BD"/>
<stop offset="0.835" stop-color="#797C83"/>
<stop offset="1" stop-color="#52545C"/>
</linearGradient>
<linearGradient id="paint3_linear_14216_28575" x1="13.9573" y1="6.16424" x2="13.9573" y2="22.1073" gradientUnits="userSpaceOnUse">
<stop stop-color="#F0F3F5"/>
<stop offset="0.056" stop-color="#E2E5E8"/>
<stop offset="0.138" stop-color="#D4D8DD"/>
<stop offset="0.242" stop-color="#CCD0D6"/>
<stop offset="0.44" stop-color="#CACED4"/>
<stop offset="0.568" stop-color="#B3B7BD"/>
<stop offset="0.835" stop-color="#797C83"/>
<stop offset="1" stop-color="#52545C"/>
</linearGradient>
<linearGradient id="paint4_linear_14216_28575" x1="16.0003" y1="15.2182" x2="16.0003" y2="9.19522" gradientUnits="userSpaceOnUse">
<stop stop-color="#F0F3F5"/>
<stop offset="0.056" stop-color="#E2E5E8"/>
<stop offset="0.138" stop-color="#D4D8DD"/>
<stop offset="0.242" stop-color="#CCD0D6"/>
<stop offset="0.44" stop-color="#CACED4"/>
<stop offset="0.568" stop-color="#B3B7BD"/>
<stop offset="0.835" stop-color="#797C83"/>
<stop offset="1" stop-color="#52545C"/>
</linearGradient>
<linearGradient id="paint5_linear_14216_28575" x1="18.0019" y1="14.1111" x2="14.2405" y2="10.9513" gradientUnits="userSpaceOnUse">
<stop stop-color="#F0F3F5"/>
<stop offset="0.056" stop-color="#E2E5E8"/>
<stop offset="0.138" stop-color="#D4D8DD"/>
<stop offset="0.242" stop-color="#CCD0D6"/>
<stop offset="0.44" stop-color="#CACED4"/>
<stop offset="0.568" stop-color="#B3B7BD"/>
<stop offset="0.835" stop-color="#797C83"/>
<stop offset="1" stop-color="#52545C"/>
</linearGradient>
<linearGradient id="paint6_linear_14216_28575" x1="14.0738" y1="6.24456" x2="14.0738" y2="15.7976" gradientUnits="userSpaceOnUse">
<stop stop-color="#F0F3F5"/>
<stop offset="0.056" stop-color="#E2E5E8"/>
<stop offset="0.138" stop-color="#D4D8DD"/>
<stop offset="0.242" stop-color="#CCD0D6"/>
<stop offset="0.44" stop-color="#CACED4"/>
<stop offset="0.568" stop-color="#B3B7BD"/>
<stop offset="0.835" stop-color="#797C83"/>
<stop offset="1" stop-color="#52545C"/>
</linearGradient>
<linearGradient id="paint7_linear_14216_28575" x1="17.9259" y1="6.24456" x2="17.9259" y2="15.7976" gradientUnits="userSpaceOnUse">
<stop stop-color="#F0F3F5"/>
<stop offset="0.056" stop-color="#E2E5E8"/>
<stop offset="0.138" stop-color="#D4D8DD"/>
<stop offset="0.242" stop-color="#CCD0D6"/>
<stop offset="0.44" stop-color="#CACED4"/>
<stop offset="0.568" stop-color="#B3B7BD"/>
<stop offset="0.835" stop-color="#797C83"/>
<stop offset="1" stop-color="#52545C"/>
</linearGradient>
<linearGradient id="paint8_linear_14216_28575" x1="15.9995" y1="6.24554" x2="15.9995" y2="25.7538" gradientUnits="userSpaceOnUse">
<stop stop-color="#F0F3F5"/>
<stop offset="0.253" stop-color="#EDF0F3"/>
<stop offset="0.406" stop-color="#E5E8EA"/>
<stop offset="0.531" stop-color="#D7DADC"/>
<stop offset="0.642" stop-color="#C3C5C9"/>
<stop offset="0.744" stop-color="#A9ABAF"/>
<stop offset="0.839" stop-color="#888B90"/>
<stop offset="0.926" stop-color="#63656B"/>
<stop offset="1" stop-color="#3D3F46"/>
</linearGradient>
<linearGradient id="paint9_linear_14216_28575" x1="16.0004" y1="6.24456" x2="16.0004" y2="25.754" gradientUnits="userSpaceOnUse">
<stop stop-color="#F0F3F5"/>
<stop offset="0.253" stop-color="#EDF0F3"/>
<stop offset="0.406" stop-color="#E5E8EA"/>
<stop offset="0.531" stop-color="#D7DADC"/>
<stop offset="0.642" stop-color="#C3C5C9"/>
<stop offset="0.744" stop-color="#A9ABAF"/>
<stop offset="0.839" stop-color="#888B90"/>
<stop offset="0.926" stop-color="#63656B"/>
<stop offset="1" stop-color="#3D3F46"/>
</linearGradient>
<linearGradient id="paint10_linear_14216_28575" x1="16" y1="6.24652" x2="16" y2="25.7555" gradientUnits="userSpaceOnUse">
<stop stop-color="#F0F3F5"/>
<stop offset="0.253" stop-color="#EDF0F3"/>
<stop offset="0.406" stop-color="#E5E8EA"/>
<stop offset="0.531" stop-color="#D7DADC"/>
<stop offset="0.642" stop-color="#C3C5C9"/>
<stop offset="0.744" stop-color="#A9ABAF"/>
<stop offset="0.839" stop-color="#888B90"/>
<stop offset="0.926" stop-color="#63656B"/>
<stop offset="1" stop-color="#3D3F46"/>
</linearGradient>
<linearGradient id="paint11_linear_14216_28575" x1="15.9999" y1="10.2918" x2="15.9999" y2="15.8518" gradientUnits="userSpaceOnUse">
<stop stop-color="#CACED4"/>
<stop offset="1" stop-color="#52545C"/>
</linearGradient>
</defs>
</svg>
