<svg width="32" height="32" viewBox="0 0 32 32" fill="none" xmlns="http://www.w3.org/2000/svg">
<path d="M2 16C2 8.26801 8.26801 2 16 2C23.732 2 30 8.26801 30 16C30 23.732 23.732 30 16 30C8.26801 30 2 23.732 2 16Z" fill="#59316B"/>
<path d="M17.0341 5.64229L16.4629 7.96739C17.272 6.32521 18.5572 5.0895 20.0329 4C18.9539 5.28452 17.9703 6.56916 17.3673 7.85369C18.3828 6.39022 19.7473 5.57729 21.2863 5.04069C19.2395 6.91062 17.6148 8.91715 16.3772 10.9334L15.3936 10.4944C15.5679 8.88465 16.1614 7.23589 17.0341 5.64229Z" fill="#ABCD03"/>
<path d="M14.4071 10.067L16.2794 10.863C16.2794 11.3509 16.2407 12.839 16.5384 13.278C19.6523 17.3878 19.1284 25.6259 15.9076 25.8373C11.0031 25.8373 9.13257 22.4228 9.13257 19.2845C9.13257 16.4227 12.4803 14.5203 14.4796 12.8293C14.9873 12.374 14.8991 11.3678 14.4071 10.067Z" fill="#FFFCDB"/>
<path d="M16.28 10.8343L16.9548 11.1871C16.8914 11.6422 16.9865 12.6505 17.4306 12.9105C19.3982 14.1626 21.2545 15.5284 21.9844 16.8942C24.5865 21.7073 20.1597 26.1625 16.3359 25.7397C18.4144 24.1624 19.0174 20.9268 18.2399 17.3982C17.9226 16.0161 17.4306 14.764 16.5579 13.3494C16.1799 12.655 16.3119 11.7938 16.28 10.8343Z" fill="white"/>
<path d="M15.9552 10.7155L17.3514 10.9106C16.9389 12.309 18.1607 13.2845 18.5573 13.5123C19.4458 14.0164 20.3026 14.5367 20.9849 15.1708C22.2702 16.374 23 18.0651 23 19.8537C23 21.626 22.2066 23.3333 20.8739 24.4715C19.6204 25.5447 17.891 26 16.2091 26C15.1619 26 14.2258 25.9513 13.2104 25.6097C10.894 24.813 9.16445 22.7805 9.02167 20.3414C8.89469 18.4389 9.30723 16.9918 10.7512 15.4796C11.4968 14.6829 13.0042 13.7723 14.0356 13.0406C14.5434 12.6828 15.0828 11.6746 14.0514 9.77231L14.2577 9.60968L15.7862 10.6588L14.4958 10.1138C14.6068 10.2764 14.9083 11.0081 14.9719 11.2195C15.1147 11.8211 15.0512 12.4066 14.9242 12.6666C14.2738 13.87 13.1631 14.1951 12.354 14.878C10.9259 16.0812 9.37101 17.0406 9.54551 20.3414C9.62486 21.9674 10.8625 23.9511 12.7187 24.878C13.766 25.3984 14.9719 25.6097 16.1936 25.6747C17.2883 25.7235 19.3827 25.0568 20.5251 24.0812C21.7468 23.0407 22.4291 21.4634 22.4291 19.8537C22.4291 18.2276 21.7944 16.6829 20.6044 15.5934C19.9221 14.9593 18.7957 14.1951 18.0976 13.7885C17.3995 13.3821 16.5268 12.2439 16.8123 11.1545L15.9552 10.7155Z" fill="black"/>
<path d="M15.5267 13.122C15.3839 13.8701 15.2252 15.2196 14.5906 15.7237C14.3208 15.9187 14.051 16.114 13.7655 16.309C12.6231 17.1058 11.4806 17.8536 10.9572 19.7724C10.8461 20.179 10.9414 20.6179 11.0366 21.0244C11.3222 22.1951 12.1313 23.4634 12.766 24.2115C12.766 24.244 12.893 24.3253 12.893 24.3578C13.4166 24.992 13.5753 25.1709 15.5585 25.626L15.5109 25.8538C14.3209 25.5286 13.3373 25.236 12.7184 24.5041C12.7184 24.4879 12.6073 24.374 12.6073 24.374C11.9409 23.5934 11.1316 22.2927 10.8303 21.0732C10.7192 20.5853 10.6241 20.2115 10.7509 19.7073C11.2903 17.7236 12.4645 16.9431 13.6545 16.1138C13.9243 15.935 14.2416 15.7723 14.4954 15.5609C14.9872 15.1871 15.2568 14.0488 15.5267 13.122Z" fill="black"/>
<path d="M16.0342 16.2113C16.0501 17.0569 15.9696 17.4811 16.1758 18.0828C16.3027 18.4405 16.7313 18.9283 16.8583 19.3999C17.0328 20.0341 17.2229 20.7332 17.2069 21.156C17.2069 21.6439 17.1771 22.554 16.9709 23.5297C16.8136 24.3359 16.4512 25.0277 15.8418 25.4198C15.2175 25.2881 14.4846 25.0632 14.0519 24.6831C13.2111 23.9352 12.4663 22.6845 12.371 21.595C12.2918 20.7008 13.0998 19.3819 14.2262 18.7153C15.1782 18.1462 15.3996 17.4976 15.6058 16.4569C15.3202 17.3675 15.0521 18.1308 14.1318 18.6186C12.799 19.334 12.1152 20.535 12.1786 21.6732C12.2738 23.1365 12.8456 24.1281 13.9721 24.9249C14.4481 25.2664 15.3373 25.6272 15.8926 25.7249V25.6505C16.3137 25.5696 16.859 24.8608 17.1306 23.9018C17.3687 23.04 17.4625 21.9371 17.4465 21.2379C17.4306 20.8314 17.2556 19.9511 16.9382 19.1543C16.7637 18.7154 16.4956 18.2764 16.321 17.9675C16.1308 17.6583 16.1295 16.9918 16.0342 16.2113Z" fill="black"/>
<path d="M15.9398 19.3998C15.9556 19.9689 16.1786 20.6981 16.2738 21.4462C16.3532 21.9991 16.3187 22.5544 16.3028 23.0423C16.2871 23.607 16.1036 24.6189 15.8526 25.1109C15.616 24.9997 15.5235 24.8729 15.3698 24.6682C15.1795 24.3917 15.0502 24.1153 14.9232 23.7901C14.8281 23.5462 14.7168 23.267 14.6691 22.9418C14.6057 22.454 14.6234 21.6909 15.1628 20.9104C15.5754 20.2925 15.6699 20.2455 15.8127 19.5301C15.6222 20.1642 15.4802 20.2288 15.0358 20.7653C14.544 21.3507 14.4622 22.2129 14.4622 22.9121C14.4622 23.2048 14.5761 23.5296 14.6872 23.8385C14.8141 24.1638 14.923 24.4876 15.0975 24.7314C15.3598 25.1268 15.6956 25.3516 15.8599 25.3937C15.8609 25.3939 15.8625 25.3934 15.8635 25.3937C15.867 25.3945 15.8711 25.3967 15.8744 25.3974V25.3788C16.1823 25.0271 16.3675 24.6776 16.4299 24.3259C16.5092 23.9031 16.5275 23.4794 16.5751 22.9753C16.6226 22.5525 16.5881 21.9831 16.4771 21.3978C16.3185 20.666 16.0508 19.92 15.9398 19.3998L15.9398 19.3998Z" fill="black"/>
<path d="M15.9868 12.4391C16.0028 13.2846 16.0662 14.862 16.2883 15.4798C16.3518 15.6911 16.9388 16.618 17.3512 17.7399C17.6369 18.5204 17.7003 19.2358 17.748 19.4472C17.9384 20.374 17.7003 21.935 17.3829 23.4147C17.2244 24.2114 16.6848 25.2033 16.0661 25.5936L15.9392 25.8212C16.2883 25.8049 17.145 24.9432 17.4465 23.87C17.9543 22.0488 18.1605 21.2033 17.9226 19.187C17.8909 18.9918 17.8115 18.3253 17.51 17.6097C17.0658 16.5202 16.4311 15.4797 16.3519 15.2682C16.209 14.9269 16.0186 13.4472 15.9868 12.4391Z" fill="black"/>
<path d="M16.2845 11.2827C16.2375 12.1516 16.2249 12.4716 16.3834 13.1057C16.5579 13.8049 17.4466 14.813 17.8115 15.9675C18.5096 18.1789 18.3351 21.0732 17.8273 23.3333C17.637 24.1299 16.7324 25.2846 15.8281 25.6584L16.4945 25.821C16.8594 25.8047 17.7955 24.9105 18.1605 23.8861C18.7474 22.2763 18.8586 20.3577 18.6205 18.3414C18.6046 18.1463 18.2872 16.4065 17.9859 15.6747C17.5574 14.5854 16.7958 13.6097 16.7165 13.3985C16.5739 13.0407 16.2604 12.2979 16.2845 11.2827Z" fill="black"/>
<rect x="15.7803" y="10.6712" width="0.492005" height="15.0036" fill="black"/>
</svg>
