<svg width="32" height="32" viewBox="0 0 32 32" fill="none" xmlns="http://www.w3.org/2000/svg">
<path d="M28.1658 18.6898C26.4311 25.6498 19.3818 29.8999 12.409 28.1641C5.4489 26.4241 1.20569 19.3747 2.94039 12.4147C4.67509 5.45467 11.7202 1.20462 18.676 2.94038C25.6531 4.65486 29.8963 11.7255 28.1658 18.6898Z" fill="#2775CA"/>
<path d="M7.98393 12.6823C6.41301 16.8532 8.57972 21.5657 12.8047 23.0823C12.9672 23.1907 13.1297 23.4073 13.1297 23.5697V24.3282C13.1297 24.4365 13.1297 24.4907 13.0755 24.5448C13.0214 24.7615 12.8047 24.8698 12.588 24.7615C9.55472 23.7865 7.22551 21.4573 6.25051 18.424C4.62551 13.2782 7.44222 7.80725 12.588 6.18225C12.6422 6.12817 12.7505 6.12817 12.8047 6.12817C13.0214 6.18225 13.1297 6.34475 13.1297 6.56146V7.31975C13.1297 7.59067 13.0214 7.75317 12.8047 7.86146C10.5839 8.67396 8.79643 10.4073 7.98393 12.6823Z" fill="white"/>
<path d="M18.0589 6.39896C18.113 6.18225 18.3297 6.07396 18.5464 6.18225C21.5255 7.15725 23.9089 9.48646 24.8839 12.574C26.5089 17.7198 23.6922 23.1907 18.5464 24.8157C18.4922 24.8698 18.3839 24.8698 18.3297 24.8698C18.113 24.8157 18.0047 24.6532 18.0047 24.4365V23.6782C18.0047 23.4073 18.113 23.2448 18.3297 23.1365C20.5505 22.324 22.338 20.5907 23.1505 18.3157C24.7214 14.1448 22.5547 9.43225 18.3297 7.91567C18.1672 7.80725 18.0047 7.59067 18.0047 7.37396V6.61567C18.0047 6.50725 18.0047 6.45317 18.0589 6.39896Z" fill="white"/>
<path d="M15.7297 14.5782C18.0047 14.849 19.1422 15.499 19.1422 17.3948C19.1422 18.8573 18.0589 19.9948 16.4339 20.2657V21.5657C16.3797 21.8365 16.2172 21.999 16.0005 21.999H15.188C14.9172 21.9448 14.7547 21.7823 14.7547 21.5657V20.2657C12.9672 19.9948 12.1005 19.0198 11.8839 17.6657V17.6115C11.8839 17.3948 12.0464 17.2323 12.263 17.2323H13.1839C13.3464 17.2323 13.5089 17.3407 13.563 17.5573C13.7255 18.3698 14.213 18.9657 15.6214 18.9657C16.6505 18.9657 17.4089 18.3699 17.4089 17.5032C17.4089 16.6365 16.9214 16.3115 15.4047 16.0407C13.1297 15.7698 12.0464 15.0657 12.0464 13.2782C12.0464 11.924 13.0755 10.8407 14.7005 10.624V9.37821C14.7547 9.10729 14.9172 8.94479 15.1339 8.94479H15.9464C16.2172 8.999 16.3797 9.1615 16.3797 9.37821V10.6782C17.6255 10.7865 18.6005 11.7073 18.8172 12.899V12.9532C18.8172 13.1698 18.6547 13.3323 18.438 13.3323H17.5714C17.4089 13.3323 17.2464 13.224 17.1922 13.0615C16.9214 12.249 16.3797 11.924 15.4047 11.924C14.3214 11.924 13.7797 12.4114 13.7797 13.1698C13.7797 13.9282 14.1047 14.3615 15.7297 14.5782Z" fill="white"/>
</svg>
