<svg width="32" height="32" viewBox="0 0 32 32" fill="none" xmlns="http://www.w3.org/2000/svg">
<path d="M25.574 2.00037C27.4667 2.97087 29.0923 5.51765 29.0108 8.9735C28.7634 13.2316 25.6954 16.9014 22.3573 20.2825C22.1704 16.1591 21.2794 13.5313 19.8882 9.83609C18.5748 6.11227 22.4148 2.11955 25.574 2.00037Z" fill="url(#paint0_linear_14216_28459)"/>
<path d="M17.5205 16.8196C17.0207 17.814 16.3159 18.9111 15.336 20.1377C13.6311 22.3002 11.9118 25.8465 12.4406 30.004C20.0806 29.1561 22.0208 22.9688 21.883 20.2924C21.878 20.2327 21.8727 20.1728 21.8671 20.1127C21.8668 20.1123 21.8665 20.112 21.8662 20.1116C21.872 20.1717 21.8777 20.2322 21.883 20.2924C20.6806 18.7342 19.2441 17.6598 17.5205 16.8196Z" fill="url(#paint1_linear_14216_28459)"/>
<path d="M18.4474 10.3226C20.364 13.3171 21.571 16.748 21.883 20.2921C20.6805 18.7337 19.2439 17.6595 17.52 16.8193C18.9112 14.0515 18.7159 12.0794 18.4474 10.3226Z" fill="url(#paint2_linear_14216_28459)"/>
<path d="M17.7254 9.26428C14.3432 4.63795 8.48476 2.4175 3.0413 4.58511C2.79139 7.83771 4.17375 12.6745 9.77931 14.2139C10.3968 14.3979 10.9659 14.5634 11.5017 14.7192C13.0142 15.1591 14.2615 15.5218 15.5839 16.0053C16.2667 16.2549 16.9113 16.5225 17.52 16.8192C18.9111 14.0515 18.7158 12.0794 18.4473 10.3226C18.4473 10.3226 17.8571 9.44436 17.7254 9.26428Z" fill="url(#paint3_linear_14216_28459)"/>
<defs>
<linearGradient id="paint0_linear_14216_28459" x1="24.3186" y1="2.00037" x2="24.3186" y2="20.2825" gradientUnits="userSpaceOnUse">
<stop stop-color="#73B723"/>
<stop offset="1" stop-color="#D8EE61"/>
</linearGradient>
<linearGradient id="paint1_linear_14216_28459" x1="20.4442" y1="20.1992" x2="11.3664" y2="26.9439" gradientUnits="userSpaceOnUse">
<stop stop-color="#98C9EA"/>
<stop offset="0.68865" stop-color="#026FB2"/>
<stop offset="1" stop-color="#086EB6"/>
</linearGradient>
<linearGradient id="paint2_linear_14216_28459" x1="18.8708" y1="13.4125" x2="22.7112" y2="14.9409" gradientUnits="userSpaceOnUse">
<stop stop-color="#D4C883"/>
<stop offset="1" stop-color="#A1D1A7"/>
</linearGradient>
<linearGradient id="paint3_linear_14216_28459" x1="3.01367" y1="4.58268" x2="14.7746" y2="15.0705" gradientUnits="userSpaceOnUse">
<stop stop-color="#D73721"/>
<stop offset="1" stop-color="#F7D768"/>
</linearGradient>
</defs>
</svg>
