<svg width="32" height="32" viewBox="0 0 32 32" fill="none" xmlns="http://www.w3.org/2000/svg">
<path fill-rule="evenodd" clip-rule="evenodd" d="M5.27813 20.6149L3.65641 21.1973L3.56934 25.9395L9.18318 23.9236C7.2577 23.2879 5.85159 22.1693 5.27813 20.6149Z" fill="#FDBD39"/>
<path fill-rule="evenodd" clip-rule="evenodd" d="M6.12683 15.5992L0.5 17.6197L3.65642 21.1973L5.27814 20.6149C4.70635 19.0651 5.05897 17.3131 6.12683 15.5992Z" fill="#F69833"/>
<path fill-rule="evenodd" clip-rule="evenodd" d="M15.5957 8.75647C8.43049 11.3294 3.81111 16.6386 5.27808 20.6149L31.2257 11.2976C29.7587 7.32123 22.761 6.18354 15.5957 8.75647Z" fill="#FECF33"/>
<path fill-rule="evenodd" clip-rule="evenodd" d="M20.9081 23.156C28.0733 20.5831 32.7014 15.2974 31.2257 11.2975L5.27808 20.6149C6.75371 24.6148 13.7428 25.7289 20.9081 23.156Z" fill="#EE6723"/>
<path fill-rule="evenodd" clip-rule="evenodd" d="M31.2257 11.2975L5.27808 20.6149C5.78617 21.9921 7.72372 22.6706 10.4423 22.6706C13.0928 22.6706 16.4855 22.0262 20.0227 20.7561C27.1879 18.1832 32.2291 14.0175 31.2257 11.2975Z" fill="#F69833"/>
<path fill-rule="evenodd" clip-rule="evenodd" d="M26.0615 9.24179C23.4111 9.24179 20.0183 9.88623 16.4812 11.1564C9.31594 13.7293 4.2747 17.895 5.27815 20.6149L31.2258 11.2975C30.7177 9.9203 28.7801 9.24179 26.0615 9.24179Z" fill="#FDBD39"/>
<path fill-rule="evenodd" clip-rule="evenodd" d="M24.6286 26.1906H24.6285C23.865 26.1906 22.7388 25.5128 21.2809 24.176C19.5561 22.5944 17.5804 20.2779 15.7176 17.6533C13.8548 15.0288 12.3242 12.4049 11.4076 10.2649C10.409 7.93285 10.2666 6.49896 10.9844 6.00301C11.1418 5.89439 11.3315 5.83936 11.5483 5.83936C12.1322 5.83936 13.2698 6.26665 15.3736 8.30238L15.4196 8.34687L15.4133 8.41014C15.399 8.55638 15.3857 8.70394 15.3739 8.84877L15.3504 9.13634L15.1441 8.93195C12.8774 6.6873 11.8796 6.44497 11.5557 6.44497C11.4634 6.44497 11.3898 6.46343 11.3371 6.49986C11.0258 6.7149 11.0057 7.76813 11.9739 10.0288C12.8741 12.1306 14.3825 14.7149 16.2212 17.3054C18.0599 19.8962 20.0054 22.1784 21.6993 23.7317C23.526 25.4066 24.3491 25.5875 24.6182 25.5875C24.7112 25.5875 24.7867 25.5679 24.8427 25.5291C25.1711 25.3023 25.1715 24.174 24.0919 21.7408L24.0423 21.6291L24.1508 21.5707C24.2593 21.5123 24.3643 21.4548 24.4627 21.3998L24.5926 21.3272L24.6526 21.4621C25.4181 23.1863 26.1337 25.3776 25.1954 26.026C25.0372 26.1352 24.8465 26.1906 24.6286 26.1906ZM24.6285 25.9247H24.6287L24.6285 26.0576L24.6285 25.9247Z" fill="#EE6723"/>
<path fill-rule="evenodd" clip-rule="evenodd" d="M21.082 23.0835L21.0711 23.216C20.8899 25.4193 20.413 28.0681 19.1693 28.1753C19.1443 28.1775 19.1184 28.1786 19.0924 28.1786C18.2476 28.1786 17.4483 26.9888 16.7169 24.6422C16.0248 22.4222 15.4877 19.4414 15.2046 16.2491C14.9215 13.0574 14.9258 10.03 15.2166 7.72454C15.5336 5.2123 16.137 3.90032 17.01 3.82502C17.0359 3.82268 17.0626 3.82147 17.089 3.82147C17.7019 3.82147 18.6255 4.5036 19.5711 7.68082L18.9537 7.79796C18.638 6.73622 18.2939 5.87267 17.9524 5.27929C17.6364 4.73044 17.3292 4.42818 17.0873 4.42818C17.0793 4.42818 17.0713 4.42851 17.0634 4.42917C16.685 4.46184 16.1339 5.36412 15.8267 7.79945C15.541 10.0636 15.5376 13.0456 15.8169 16.1963C16.0965 19.3475 16.6248 22.2837 17.3044 24.4639C17.6088 25.4404 17.9427 26.2452 18.2699 26.7912C18.5717 27.2948 18.8637 27.5721 19.0922 27.5721C19.1001 27.5721 19.1079 27.5718 19.1157 27.5711C19.4778 27.5399 20.1602 26.601 20.4473 23.2976L21.082 23.0835Z" fill="#EE6723"/>
</svg>
