<svg width="32" height="32" viewBox="0 0 32 32" fill="none" xmlns="http://www.w3.org/2000/svg">
<g clip-path="url(#clip0_14537_61169)">
<path d="M16 32C24.8366 32 32 24.8366 32 16C32 7.16344 24.8366 0 16 0C7.16344 0 0 7.16344 0 16C0 24.8366 7.16344 32 16 32Z" fill="#F0F0F0"/>
<path d="M27.196 4.5715C24.3102 1.744 20.3591 0 15.9999 0C14.6086 0 10.5378 1.744 7.6521 4.5715H27.196Z" fill="#6DA544"/>
<path d="M15.9999 13.7143H31.8367C31.6058 12.1003 31.1344 10.564 30.4593 9.14288H15.3043L15.9999 13.7143Z" fill="#6DA544"/>
<path d="M1.54065 22.8572H30.4593C31.1344 21.4361 31.6058 19.8997 31.8367 18.2857H0.163208C0.394146 19.8998 0.865458 21.4362 1.54065 22.8572Z" fill="#6DA544"/>
<path d="M4.80383 27.4285C7.68965 30.256 11.6408 32 16 32C20.3591 32 24.3103 30.256 27.1961 27.4285H4.80383Z" fill="#6DA544"/>
<path d="M16 0C7.93958 0 1.27246 5.96069 0.163208 13.7143H16V0Z" fill="#D80027"/>
<path d="M8.00007 12.2667L7.30444 10.8754V8.09282L9.04357 6.70151L10.7827 8.09282V10.1798L11.4783 9.48413V10.8754L10.087 12.2667H8.00007Z" fill="#F0F0F0"/>
<path d="M4.25846 8L4.44265 8.56688H5.03865L4.55646 8.91731L4.74071 9.48413L4.25846 9.13375L3.77621 9.48413L3.96046 8.91731L3.47827 8.56688H4.07427L4.25846 8Z" fill="#F0F0F0"/>
<path d="M5.64982 6.6087L5.834 7.17558H6.43007L5.94782 7.52602L6.132 8.09283L5.64982 7.74252L5.16763 8.09283L5.35188 7.52602L4.86963 7.17558H5.46557L5.64982 6.6087Z" fill="#F0F0F0"/>
<path d="M7.04105 5.21738L7.22524 5.78425H7.82118L7.33905 6.13469L7.52318 6.7015L7.04105 6.35119L6.5588 6.7015L6.74299 6.13469L6.26086 5.78425H6.8568L7.04105 5.21738Z" fill="#F0F0F0"/>
<path d="M13.8285 8L13.6443 8.56688H13.0483L13.5305 8.91731L13.3463 9.48413L13.8285 9.13375L14.3107 9.48413L14.1265 8.91731L14.6087 8.56688H14.0127L13.8285 8Z" fill="#F0F0F0"/>
<path d="M12.4372 6.6087L12.253 7.17558H11.6571L12.1392 7.52602L11.955 8.09283L12.4372 7.74252L12.9195 8.09283L12.7352 7.52602L13.2174 7.17558H12.6215L12.4372 6.6087Z" fill="#F0F0F0"/>
<path d="M11.0459 5.21738L10.8617 5.78425H10.2657L10.7479 6.13469L10.5637 6.7015L11.0459 6.35119L11.5281 6.7015L11.3439 6.13469L11.8261 5.78425H11.2301L11.0459 5.21738Z" fill="#F0F0F0"/>
<path d="M9.04349 4.52176L8.85924 5.08863H8.26331L8.74543 5.43901L8.56124 6.00582L9.04349 5.65551L9.52568 6.00582L9.34149 5.43901L9.82362 5.08863H9.22768L9.04349 4.52176Z" fill="#F0F0F0"/>
</g>
<defs>
<clipPath id="clip0_14537_61169">
<rect width="32" height="32" fill="white"/>
</clipPath>
</defs>
</svg>
