<svg width="32" height="32" viewBox="0 0 32 32" fill="none" xmlns="http://www.w3.org/2000/svg">
<g clip-path="url(#clip0_14537_61201)">
<path d="M16 32C24.8366 32 32 24.8366 32 16C32 7.16344 24.8366 0 16 0C7.16344 0 0 7.16344 0 16C0 24.8366 7.16344 32 16 32Z" fill="#D80027"/>
<path d="M25.0435 11.8756H19.2481C19.6059 11.5009 19.826 10.9937 19.826 10.4348C19.826 9.28225 18.8917 8.34787 17.7391 8.34787C17.013 8.34787 16.3738 8.71887 16 9.28143C15.6262 8.71887 14.9869 8.34787 14.2609 8.34787C13.1083 8.34787 12.1739 9.28225 12.1739 10.4348C12.1739 10.9937 12.3941 11.501 12.7519 11.8756H6.95654C6.95654 13.4124 8.29511 14.6581 9.83179 14.6581H9.73904C9.73904 16.195 10.9849 17.4408 12.5217 17.4408C12.5217 17.9386 12.6529 18.4052 12.8819 18.8092L10.5738 21.1174L12.3447 22.8881L14.8567 20.3762C14.955 20.4122 15.0569 20.4412 15.162 20.4609L13.644 23.8881L16 26.4348L18.3559 23.8879L16.838 20.4607C16.9432 20.4411 17.0449 20.4122 17.1433 20.3761L19.6553 22.888L21.4262 21.1172L19.118 18.809C19.347 18.4051 19.4782 17.9384 19.4782 17.4406C21.015 17.4406 22.2609 16.1949 22.2609 14.6579H22.1682C23.7049 14.6581 25.0435 13.4124 25.0435 11.8756Z" fill="black"/>
</g>
<defs>
<clipPath id="clip0_14537_61201">
<rect width="32" height="32" fill="white"/>
</clipPath>
</defs>
</svg>
