<svg width="32" height="32" viewBox="0 0 32 32" fill="none" xmlns="http://www.w3.org/2000/svg">
<g clip-path="url(#clip0_14537_61204)">
<path d="M16 0C24.8365 0 32 7.1635 32 16C32 24.8365 24.8365 32 16 32C16 31.3044 13.9131 16 13.9131 16L16 0Z" fill="#F0F0F0"/>
<path d="M16 32C7.1635 32 0 24.8365 0 16C0 7.1635 7.1635 0 16 0" fill="#496E2D"/>
<path d="M19.4376 12.931L18.1248 14.7401L15.9988 14.0506L17.3137 15.8581L16.001 17.6671L18.1263 16.9752L19.4412 18.7826L19.4398 16.5476L21.5651 15.8556L19.4391 15.1662L19.4376 12.931Z" fill="#D80027"/>
<path d="M17.3273 20.5218C14.83 20.5218 12.8055 18.4973 12.8055 16C12.8055 13.5028 14.83 11.4783 17.3273 11.4783C18.1059 11.4783 18.8386 11.6751 19.4782 12.0218C18.4747 11.0404 17.1024 10.4348 15.5881 10.4348C12.5145 10.4348 10.0229 12.9264 10.0229 15.9999C10.0229 19.0735 12.5146 21.5651 15.5881 21.5651C17.1025 21.5651 18.4748 20.9594 19.4782 19.9781C18.8386 20.3249 18.1059 20.5218 17.3273 20.5218Z" fill="#D80027"/>
</g>
<defs>
<clipPath id="clip0_14537_61204">
<rect width="32" height="32" fill="white"/>
</clipPath>
</defs>
</svg>
