<svg width="32" height="32" viewBox="0 0 32 32" fill="none" xmlns="http://www.w3.org/2000/svg">
<g clip-path="url(#clip0_14537_61218)">
<path d="M9.04353 30.4124C11.147 31.4295 13.5068 32 16 32C18.4932 32 20.853 31.4295 22.9565 30.4124L24.3478 16L22.9565 1.58763C20.853 0.5705 18.4932 0 16 0C13.5068 0 11.147 0.5705 9.04353 1.58763L7.65222 16L9.04353 30.4124Z" fill="#FFDA44"/>
<path d="M22.9565 30.4118C28.3085 27.8239 32 22.3433 32 16C32 9.6567 28.3085 4.17607 22.9565 1.5882V30.4118Z" fill="#D80027"/>
<path d="M9.0435 30.4118V1.5882C3.69156 4.17607 0 9.65663 0 16C0 22.3434 3.69156 27.8239 9.0435 30.4118Z" fill="#0052B4"/>
<path d="M16 21.5652C16 19.012 16 16 16 16H20.1739V18.0869C20.1739 18.4495 19.4783 19.778 17.7612 20.8696C17.1109 21.2831 16.4378 21.4161 16 21.5652Z" fill="#D80027"/>
<path d="M11.826 11.826H16V16H11.826V11.826Z" fill="#D80027"/>
<path d="M18.0869 10.4348C18.0869 9.66636 17.464 9.04349 16.6956 9.04349C16.4419 9.04349 16.2048 9.11249 16 9.23111C15.7952 9.11249 15.5581 9.04349 15.3044 9.04349C14.536 9.04349 13.9131 9.66636 13.9131 10.4348H10.4348V17.3912C10.4348 19.981 12.4914 21.4787 14.1043 22.255C13.9836 22.4612 13.9131 22.7004 13.9131 22.9565C13.9131 23.725 14.536 24.3479 15.3044 24.3479C15.5581 24.3479 15.7953 24.2789 16 24.1602C16.2048 24.2789 16.4419 24.3479 16.6956 24.3479C17.464 24.3479 18.0869 23.725 18.0869 22.9565C18.0869 22.7004 18.0164 22.4612 17.8957 22.255C19.5085 21.4787 21.5652 19.9811 21.5652 17.3912V10.4348H18.0869ZM19.4783 17.3912C19.4783 17.7538 19.4783 18.857 17.7613 19.9486C17.1109 20.3621 16.4378 20.6302 16 20.7793C15.5623 20.6302 14.8891 20.3621 14.2388 19.9486C12.5218 18.857 12.5218 17.7538 12.5218 17.3912V12.5217H19.4783V17.3912Z" fill="#FF9811"/>
</g>
<defs>
<clipPath id="clip0_14537_61218">
<rect width="32" height="32" fill="white"/>
</clipPath>
</defs>
</svg>
