<svg width="32" height="32" viewBox="0 0 32 32" fill="none" xmlns="http://www.w3.org/2000/svg">
<g clip-path="url(#clip0_14537_61226)">
<path d="M0 16C0 7.1635 7.1635 0 16 0C24.8365 0 32 7.1635 32 16C31.3044 16 16 18.0869 16 18.0869L0 16Z" fill="#D80027"/>
<path d="M32 16C32 24.8365 24.8365 32 16 32C7.1635 32 0 24.8365 0 16" fill="black"/>
<path d="M13.806 12.7258L15.1624 13.7101L14.6455 15.3044L16.0009 14.3184L17.3574 15.3028L16.8385 13.709L18.1938 12.7232L16.5178 12.7241L15.9989 11.1305L15.482 12.7247L13.806 12.7258Z" fill="#FFDA44"/>
<path d="M20 9.07182C18.7391 8.34389 17.3606 8.00032 16 8.0027V10.0892C17.0056 10.0874 18.0245 10.3411 18.9565 10.8793C21.7801 12.5095 22.751 16.133 21.1207 18.9566C19.4905 21.7803 15.8671 22.7512 13.0434 21.1209C12.2208 20.646 11.5567 20.0011 11.0672 19.2569L9.32495 20.4072C9.98726 21.414 10.887 22.2857 12 22.9282C15.8202 25.1338 20.7225 23.8203 22.9281 20C25.1337 16.1798 23.8202 11.2774 20 9.07182Z" fill="#FFDA44"/>
<path d="M11.3868 14.6087C10.8336 15.6199 11.205 16.8881 12.2162 17.4412L18.9942 21.145C18.5333 21.9875 18.7781 23.0131 19.6207 23.474L21.4516 24.4756C22.2941 24.9366 23.3511 24.6271 23.812 23.7845L24.8136 21.9536L11.3868 14.6087Z" fill="#FFDA44"/>
</g>
<defs>
<clipPath id="clip0_14537_61226">
<rect width="32" height="32" fill="white"/>
</clipPath>
</defs>
</svg>
