<svg width="32" height="32" viewBox="0 0 32 32" fill="none" xmlns="http://www.w3.org/2000/svg">
<g clip-path="url(#clip0_14537_61233)">
<path d="M32 16C32 24.8365 24.8365 32 16 32C7.1635 32 0 24.8365 0 16C0 16.0038 16 0.00175 16 0C24.8365 0 32 7.1635 32 16Z" fill="#0052B4"/>
<path d="M15.9572 16H16C16 15.9856 16 15.9716 16 15.9572C15.9858 15.9715 15.9715 15.9857 15.9572 16Z" fill="#F0F0F0"/>
<path d="M16 8.34781C16 5.5325 16 3.68781 16 0H15.9973C7.16194 0.0015 0 7.16431 0 16H8.34781V11.2993L13.0485 16H15.9572C15.9715 15.9858 15.9858 15.9715 16.0001 15.9572C16.0001 14.8793 16.0001 13.9174 16.0001 13.0486L11.2992 8.34781H16Z" fill="#F0F0F0"/>
<path d="M8.09466 2.08694C5.59223 3.51188 3.51179 5.59226 2.08691 8.09469V16H6.26085V6.26101V6.26088H16C16 4.94444 16 3.69032 16 2.08694H8.09466Z" fill="#D80027"/>
<path d="M16 14.0324L10.3153 8.34787H8.34778V8.34799L15.9998 16H16C16 16 16 14.6433 16 14.0324Z" fill="#D80027"/>
<path d="M27.0587 18.3421C27.5187 17.7091 27.826 16.9361 27.826 16V9.04349C27.2447 9.48024 26.5222 9.73912 25.7391 9.73912C24.6012 9.73912 23.591 9.19268 22.9565 8.34793C22.3219 9.19268 21.3117 9.73912 20.1739 9.73912C19.3907 9.73912 18.6682 9.48018 18.0869 9.04362V16C18.0869 16.9361 18.3942 17.7091 18.8543 18.3421H27.0587Z" fill="#F3F3F3"/>
<path d="M25.6115 14.7094C25.833 14.1691 26.0053 13.3792 26.0053 12.9862C26.0053 12.3546 25.1819 11.8427 25.1819 11.8427C25.1819 11.8427 24.3585 12.3546 24.3585 12.9862C24.3585 13.3793 24.5309 14.1691 24.7522 14.7094L24.2769 15.7826C24.5563 15.8962 24.8617 15.9594 25.182 15.9594C25.5023 15.9594 25.8076 15.8962 26.087 15.7826L25.6115 14.7094Z" fill="#FF9811"/>
<path d="M22.3934 11.2345C21.8149 11.3129 21.0447 11.5588 20.7043 11.7553C20.1574 12.0711 20.1256 13.0401 20.1256 13.0401C20.1256 13.0401 20.9807 13.4971 21.5276 13.1814C21.8681 12.9848 22.4659 12.4408 22.8229 11.9788L23.9902 11.8538C23.9489 11.5552 23.8506 11.2591 23.6907 10.9818C23.5304 10.7045 23.3232 10.4715 23.0851 10.2863L22.3934 11.2345Z" fill="#FF9811"/>
<path d="M20.9932 15.7591C21.3503 16.2209 21.9482 16.7648 22.2887 16.9614C22.8357 17.2772 23.6907 16.8202 23.6907 16.8202C23.6907 16.8202 23.6589 15.8512 23.112 15.5354C22.7715 15.3388 22.0014 15.0931 21.4228 15.0149L20.7311 14.0666C20.493 14.2517 20.2858 14.4848 20.1256 14.7619C19.9655 15.0393 19.8675 15.3352 19.826 15.6341L20.9932 15.7591Z" fill="#FF9811"/>
<path d="M18.6823 18.0871C19.9815 20.1718 22.9566 20.8696 22.9566 20.8696C22.9566 20.8696 25.9316 20.1718 27.2309 18.0871H18.6823Z" fill="#338AF3"/>
</g>
<defs>
<clipPath id="clip0_14537_61233">
<rect width="32" height="32" fill="white"/>
</clipPath>
</defs>
</svg>
