<svg width="32" height="32" viewBox="0 0 32 32" fill="none" xmlns="http://www.w3.org/2000/svg">
<g clip-path="url(#clip0_14537_61248)">
<path d="M0 16C0 17.0959 0.1105 18.1661 0.320437 19.2L16 20.1739L31.6796 19.2C31.8896 18.1661 32 17.0959 32 16C32 14.9041 31.8895 13.8339 31.6796 12.8L16 11.826L0.320437 12.8C0.1105 13.8339 0 14.9041 0 16H0Z" fill="#0052B4"/>
<path d="M31.6796 19.2H0.320435C1.80287 26.5031 8.25943 32 16 32C23.7406 32 30.1971 26.5031 31.6796 19.2Z" fill="#F0F0F0"/>
<path d="M0.320435 12.8H31.6797C30.1971 5.49688 23.7407 0 16 0C8.25931 0 1.80287 5.49688 0.320435 12.8Z" fill="black"/>
<path d="M22.9565 12.8H9.04346L11.886 11.4629L10.3723 8.71006L13.4588 9.30037L13.8501 6.18231L16 8.47569L18.15 6.18231L18.541 9.30037L21.6276 8.71006L20.1141 11.463L22.9565 12.8Z" fill="#FFDA44"/>
<path d="M0 16C0 24.8365 7.1635 32 16 32L3.19975 6.39944C1.19075 9.07376 0 12.3977 0 16Z" fill="#A2001D"/>
<path d="M16 32C24.8365 32 32 24.8365 32 16C32 12.3977 30.8092 9.07376 28.8002 6.39944L16 32Z" fill="#A2001D"/>
</g>
<defs>
<clipPath id="clip0_14537_61248">
<rect width="32" height="32" fill="white"/>
</clipPath>
</defs>
</svg>
