<svg width="32" height="32" viewBox="0 0 32 32" fill="none" xmlns="http://www.w3.org/2000/svg">
<g clip-path="url(#clip0_14537_61274)">
<path d="M32 16C32 24.8365 24.8365 32 16 32C7.1635 32 0 24.8365 0 16C0 16.0037 16 0.0018125 16 0C24.8365 0 32 7.1635 32 16Z" fill="#0052B4"/>
<path d="M15.9993 0C15.9987 0 15.998 4.6875e-05 15.9973 4.6875e-05L15.9993 0Z" fill="#F0F0F0"/>
<path d="M15.9572 16H16C16 15.9855 16 15.9716 16 15.9572C15.9857 15.9715 15.9715 15.9857 15.9572 16Z" fill="#F0F0F0"/>
<path d="M16 8.34787C16 5.53256 16 3.68775 16 6.10352e-05H15.9973C7.162 0.00149854 0 7.16431 0 16H8.34781V11.2992L13.0486 16H15.9572C15.9716 15.9857 15.9858 15.9715 16.0001 15.9572C16.0001 14.8792 16.0001 13.9174 16.0001 13.0487L11.2992 8.34787H16Z" fill="#F0F0F0"/>
<path d="M8.09466 2.08694C5.59223 3.51188 3.51185 5.59226 2.08691 8.09469V16H6.26085V6.26094V6.26088H16C16 4.94444 16 3.69032 16 2.08694H8.09466Z" fill="#D80027"/>
<path d="M16 14.0325L10.3155 8.34796H8.3479C8.3479 8.3479 8.3479 8.34796 8.3479 8.34796L16 16H16C16 16 16 14.6435 16 14.0325Z" fill="#D80027"/>
<path d="M9.64972 18.7827L10.5278 20.6188L12.5108 20.1605L11.6228 21.9918L13.2174 23.2564L11.232 23.7039L11.2375 25.7392L9.64972 24.4658L8.06197 25.7392L8.06753 23.7039L6.08203 23.2564L7.67672 21.9918L6.78859 20.1605L8.77166 20.6188L9.64972 18.7827Z" fill="#F0F0F0"/>
<path d="M23.9553 22.2609L24.3944 23.179L25.3859 22.9498L24.9418 23.8655L25.7392 24.4978L24.7464 24.7215L24.7492 25.7391L23.9553 25.1025L23.1614 25.7391L23.1642 24.7215L22.1715 24.4978L22.9688 23.8655L22.5248 22.9498L23.5163 23.179L23.9553 22.2609Z" fill="#F0F0F0"/>
<path d="M19.8708 12.5218L20.3098 13.4399L21.3013 13.2106L20.8573 14.1263L21.6546 14.7586L20.6619 14.9824L20.6646 16L19.8708 15.3633L19.0769 16L19.0796 14.9824L18.0869 14.7586L18.8842 14.1263L18.4402 13.2106L19.4317 13.4399L19.8708 12.5218Z" fill="#F0F0F0"/>
<path d="M23.9553 6.95651L24.3944 7.87464L25.3859 7.64545L24.9419 8.56114L25.7391 9.19339L24.7464 9.4172L24.7492 10.4348L23.9553 9.79814L23.1614 10.4348L23.1642 9.4172L22.1715 9.19339L22.9688 8.56114L22.5248 7.64545L23.5163 7.87464L23.9553 6.95651Z" fill="#F0F0F0"/>
<path d="M27.523 11.1305L27.962 12.0486L28.9535 11.8193L28.5095 12.735L29.3068 13.3673L28.3141 13.5911L28.3168 14.6087L27.523 13.9721L26.7291 14.6087L26.7318 13.5911L25.7391 13.3673L26.5364 12.735L26.0924 11.8193L27.0839 12.0486L27.523 11.1305Z" fill="#F0F0F0"/>
<path d="M24.9718 16L25.3172 17.0629H26.4348L25.5306 17.7198L25.876 18.7826L24.9718 18.1257L24.0677 18.7826L24.413 17.7198L23.5089 17.0629H24.6265L24.9718 16Z" fill="#F0F0F0"/>
</g>
<defs>
<clipPath id="clip0_14537_61274">
<rect width="32" height="32" fill="white"/>
</clipPath>
</defs>
</svg>
