<svg width="32" height="32" viewBox="0 0 32 32" fill="none" xmlns="http://www.w3.org/2000/svg">
<g clip-path="url(#clip0_14537_61302)">
<path d="M16 32C24.8366 32 32 24.8366 32 16C32 7.16344 24.8366 0 16 0C7.16344 0 0 7.16344 0 16C0 24.8366 7.16344 32 16 32Z" fill="#F0F0F0"/>
<path d="M0 16C0 22.0647 3.37438 27.3409 8.34781 30.0546V1.94543C3.37438 4.65906 0 9.93531 0 16Z" fill="#D80027"/>
<path d="M0 16C0 23.3924 5.01381 29.6128 11.8261 31.4488V0.551178C5.01381 2.38718 0 8.60755 0 16Z" fill="#0052B4"/>
<path d="M5.73914 5.56519V8.17387C5.73914 9.47056 6.79026 10.5217 8.08695 10.5217C9.38364 10.5217 10.4348 9.47056 10.4348 8.17387V5.56519H5.73914Z" fill="#D80027"/>
<path d="M8.08693 9.13045C7.5595 9.13045 7.13043 8.70139 7.13043 8.17395V6.95657H9.04349V8.17395C9.04349 8.70139 8.61437 9.13045 8.08693 9.13045Z" fill="#F0F0F0"/>
<path d="M17.3913 16.6956H13.2174C13.2174 15.9273 12.5944 15.3043 11.8261 15.3043C11.0577 15.3043 10.4347 15.9273 10.4347 16.6956H6.2608C6.2608 17.4641 6.93012 18.0869 7.69843 18.0869H7.65212C7.65212 18.8554 8.27493 19.4783 9.04343 19.4783C9.04343 20.2467 9.66624 20.8696 10.4347 20.8696H13.2174C13.9857 20.8696 14.6087 20.2467 14.6087 19.4783C15.3771 19.4783 16 18.8554 16 18.0869H15.9537C16.722 18.0869 17.3913 17.4641 17.3913 16.6956Z" fill="#FFDA44"/>
<path d="M17.9631 14.4692L17.5978 15.054L18.0409 15.582L17.3719 15.4154L17.0066 16L16.9584 15.3122L16.2894 15.1454L16.9288 14.8871L16.8807 14.1993L17.3239 14.7276L17.9631 14.4692Z" fill="#FFDA44"/>
<path d="M15.8316 12.6808L15.6884 13.3552L16.2855 13.6999L15.5997 13.7723L15.4564 14.4465L15.1759 13.8166L14.4902 13.8886L15.0027 13.4273L14.7223 12.7975L15.3193 13.1422L15.8316 12.6808Z" fill="#FFDA44"/>
<path d="M13.2173 11.7292L13.3132 12.4121L13.9922 12.5317L13.3725 12.834L13.4685 13.5168L12.9896 13.0208L12.3699 13.3231L12.6935 12.7142L12.2146 12.2184L12.8937 12.338L13.2173 11.7292Z" fill="#FFDA44"/>
<path d="M10.435 11.7292L10.7587 12.338L11.4377 12.2183L10.9587 12.7144L11.2824 13.3231L10.6628 13.0208L10.1838 13.5167L10.2798 12.834L9.6601 12.5318L10.339 12.4121L10.435 11.7292Z" fill="#FFDA44"/>
<path d="M7.82051 12.6808L8.33288 13.1422L8.92988 12.7975L8.64963 13.4275L9.16182 13.8887L8.47626 13.8166L8.1957 14.4465L8.05257 13.7721L7.36682 13.7001L7.96382 13.3553L7.82051 12.6808Z" fill="#FFDA44"/>
<path d="M5.68914 14.4692L6.32858 14.7276L6.77151 14.1994L6.72364 14.8873L7.36283 15.1456L6.69376 15.3122L6.64551 16L6.28045 15.4154L5.61145 15.5821L6.05464 15.054L5.68914 14.4692Z" fill="#FFDA44"/>
</g>
<defs>
<clipPath id="clip0_14537_61302">
<rect width="32" height="32" fill="white"/>
</clipPath>
</defs>
</svg>
