<svg width="32" height="32" viewBox="0 0 32 32" fill="none" xmlns="http://www.w3.org/2000/svg">
<g clip-path="url(#clip0_14537_61325)">
<path d="M16 6.10352e-05C24.8365 6.10352e-05 31.9999 7.16355 31.9999 16C31.9999 24.8365 24.8365 32 16 32C7.16349 32 0 24.8365 0 16" fill="#FFDA44"/>
<path d="M15.6522 7.11116H29.3049C28.4059 5.76822 27.3089 4.56948 26.0558 3.5556H15.6522V7.11116Z" fill="#D80027"/>
<path d="M15.6522 14.2223H31.9013C31.7649 12.9894 31.4886 11.799 31.0884 10.6668H15.6522V14.2223Z" fill="#D80027"/>
<path d="M0.91175 21.3334H31.0883C31.4884 20.2012 31.7648 19.0106 31.9012 17.7778H0.098877C0.235127 19.0107 0.511501 20.2013 0.91175 21.3334Z" fill="#D80027"/>
<path d="M5.94425 28.4444H26.0557C27.3088 27.4306 28.4059 26.2317 29.3049 24.8889H2.69519C3.59419 26.2317 4.69119 27.4306 5.94425 28.4444Z" fill="#D80027"/>
<path d="M16 6.10352e-05C7.16349 6.10352e-05 -6.24995e-05 7.16355 4.08967e-10 16.0002C3.65162 16 7.16349 16.0002 16 16.0002L16 6.10352e-05Z" fill="#4A1F63"/>
<path d="M13.2174 8.34785V9.73916H12.5218V8.34785H11.1305V9.73916H10.4349V6.95654H7.65226V9.73916H6.95658V8.34785H5.56533V9.73916H4.86964V8.34785H3.47827V12.5217H14.6088V8.34785H13.2174Z" fill="#F0F0F0"/>
</g>
<defs>
<clipPath id="clip0_14537_61325">
<rect width="32" height="32" fill="white"/>
</clipPath>
</defs>
</svg>
