<svg width="32" height="32" viewBox="0 0 32 32" fill="none" xmlns="http://www.w3.org/2000/svg">
<g clip-path="url(#clip0_14537_61337)">
<path d="M22.9565 1.58763C20.853 0.5705 18.4932 0 16 0C13.5069 0 11.147 0.5705 9.04353 1.58763L7.65222 16L9.04353 30.4124C11.147 31.4295 13.5069 32 16 32C18.4932 32 20.853 31.4295 22.9565 30.4124L24.3478 16L22.9565 1.58763Z" fill="#FFDA44"/>
<path d="M9.0435 1.58818C3.69163 4.17606 0 9.65662 0 16C0 22.3434 3.69163 27.8239 9.0435 30.4118V1.58818Z" fill="#0052B4"/>
<path d="M22.9565 1.58818V30.4118C28.3084 27.8239 32 22.3433 32 16C32 9.65668 28.3084 4.17606 22.9565 1.58818Z" fill="#0052B4"/>
<path d="M20.8696 9.73912L21.8029 10.2057L20.8696 9.73912L19.9362 9.2725C19.88 9.38506 18.6613 11.8646 18.4622 15.6522H17.0435V9.73912L16 8.34781L14.9565 9.73912V15.6522H13.5378C13.3387 11.8646 12.1201 9.38506 12.0638 9.2725L10.1971 10.2058C10.21 10.2314 11.4783 12.813 11.4783 16.6957V17.7392H14.9566V23.6522H17.0435V17.7392H20.5218V16.6956C20.5218 14.6882 20.8691 13.033 21.1605 11.9979C21.4782 10.8691 21.8009 10.2099 21.8041 10.2034L20.8696 9.73912Z" fill="black"/>
</g>
<defs>
<clipPath id="clip0_14537_61337">
<rect width="32" height="32" fill="white"/>
</clipPath>
</defs>
</svg>
