<svg width="32" height="32" viewBox="0 0 32 32" fill="none" xmlns="http://www.w3.org/2000/svg">
<g clip-path="url(#clip0_14537_61343)">
<path d="M16 32C24.8366 32 32 24.8366 32 16C32 7.16344 24.8366 0 16 0C7.16344 0 0 7.16344 0 16C0 24.8366 7.16344 32 16 32Z" fill="#F0F0F0"/>
<path d="M0.135498 18.0869C0.507748 20.944 1.63412 23.5637 3.30769 25.7409L11.8261 18.0869H0.135498Z" fill="#D80027"/>
<path d="M13.913 31.8646V20.1739L6.25903 28.6924C8.43635 30.3659 11.056 31.4924 13.913 31.8646Z" fill="#D80027"/>
<path d="M13.913 0.135437C11.056 0.507687 8.43635 1.63406 6.25903 3.30762L13.913 11.8261V0.135437Z" fill="#D80027"/>
<path d="M0.135498 13.9131H11.8261L3.30762 6.25906C1.63406 8.43631 0.507686 11.056 0.135498 13.9131Z" fill="#D80027"/>
<path d="M18.0869 0.135437V11.8261L25.741 3.30762C23.5637 1.63419 20.944 0.507625 18.0869 0.135437Z" fill="#D80027"/>
<path d="M31.8646 13.9131C31.4923 11.056 30.366 8.43632 28.6924 6.259L20.174 13.9131H31.8646Z" fill="#D80027"/>
<path d="M20.174 18.0869L28.6925 25.741C30.366 23.5637 31.4924 20.944 31.8646 18.0869H20.174Z" fill="#D80027"/>
<path d="M18.0869 31.8646C20.944 31.4923 23.5637 30.3659 25.741 28.6923L18.0869 20.1739V31.8646Z" fill="#D80027"/>
<path d="M28.6936 25.7423L18.9515 16.0001L18.9515 16L28.6936 6.25776C28.2735 5.71176 27.8139 5.18651 27.3138 4.68626C26.8136 4.18613 26.2883 3.72644 25.7423 3.30638L16.0001 13.0486H16L6.25783 3.30638C5.71183 3.72651 5.18652 4.18607 4.68627 4.68626C4.18615 5.18651 3.72646 5.71176 3.3064 6.25782L13.0486 15.9999L13.0486 16L3.30646 25.7423C3.72658 26.2882 4.18621 26.8135 4.68633 27.3138C5.18652 27.8139 5.71183 28.2736 6.2579 28.6936L16 18.9514L25.7423 28.6936C26.2882 28.2735 26.8135 27.8139 27.3138 27.3138C27.814 26.8135 28.2735 26.2882 28.6936 25.7423Z" fill="#496E2D"/>
<path d="M18.0869 31.8646V18.0871V18.087H31.8646C31.9536 17.4038 32 16.7073 32 16C32 15.2928 31.9536 14.5963 31.8646 13.9131H18.0871L18.087 13.9131V0.1355C17.4039 0.0465625 16.7074 0 16 0C15.2927 6.25e-05 14.5962 0.0465625 13.9131 0.1355L13.9131 13.9129V13.9131H0.1355C0.0465 14.5962 0 15.2927 0 16C6.25e-05 16.7074 0.0465 17.4038 0.1355 18.0869H13.913L13.9131 31.8646C14.5962 31.9535 15.2926 32 16 32C16.7074 32 17.4039 31.9535 18.0869 31.8646Z" fill="#F0F0F0"/>
</g>
<defs>
<clipPath id="clip0_14537_61343">
<rect width="32" height="32" fill="white"/>
</clipPath>
</defs>
</svg>
