<svg width="32" height="32" viewBox="0 0 32 32" fill="none" xmlns="http://www.w3.org/2000/svg">
<g clip-path="url(#clip0_14537_61356)">
<path d="M16 32C24.8366 32 32 24.8366 32 16C32 7.16344 24.8366 0 16 0C7.16344 0 0 7.16344 0 16C0 24.8366 7.16344 32 16 32Z" fill="#FCFCFC"/>
<path d="M6.60875 14.8406L4.86963 11.6854L6.60875 8.57968L8.34788 11.6854L6.60875 14.8406Z" fill="#A2001D"/>
<path d="M3.13048 14.8406L1.39136 11.6854L3.13048 8.57968L4.86961 11.6854L3.13048 14.8406Z" fill="#A2001D"/>
<path d="M6.60875 23.4203L4.86963 20.2651L6.60875 17.1594L8.34788 20.2651L6.60875 23.4203Z" fill="#A2001D"/>
<path d="M3.13048 23.4203L1.39136 20.2651L3.13048 17.1594L4.86961 20.2651L3.13048 23.4203Z" fill="#A2001D"/>
<path d="M8.34786 3.10575L7.85548 2.2265C6.97236 2.74975 6.14405 3.35556 5.38086 4.03331L6.60873 6.26088L8.34786 3.10575Z" fill="#A2001D"/>
<path d="M6.60867 25.7391L5.3678 27.9551C6.1303 28.6337 6.95805 29.2405 7.8408 29.7648L8.34786 28.8449L6.60867 25.7391Z" fill="#A2001D"/>
<path d="M9.73914 20.1739V30.7279C11.6622 31.5464 13.778 32 16 32C22.8794 32 28.7441 27.658 31.0048 21.5652L9.73914 20.1739Z" fill="#6DA544"/>
<path d="M31.0048 21.5652C31.648 19.8319 32 17.9571 32 16C32 7.1635 24.8365 0 16 0C13.7782 0 11.6622 0.453313 9.73914 1.27175V21.5653H31.0048V21.5652Z" fill="#A2001D"/>
</g>
<defs>
<clipPath id="clip0_14537_61356">
<rect width="32" height="32" fill="white"/>
</clipPath>
</defs>
</svg>
