<svg width="32" height="32" viewBox="0 0 32 32" fill="none" xmlns="http://www.w3.org/2000/svg">
<g clip-path="url(#clip0_14537_61371)">
<path d="M32 16C32 10.5087 29.2332 5.66413 25.0179 2.78263L16 2.08694L6.98206 2.78257C2.76687 5.66413 0 10.5088 0 16C0 21.4914 2.76687 26.3359 6.98206 29.2174L16 29.9131L25.0179 29.2174C29.2332 26.3359 32 21.4914 32 16Z" fill="#0052B4"/>
<path d="M25.0179 2.78262C22.4501 1.02725 19.3452 0 16 0C12.6548 0 9.54987 1.02725 6.98206 2.78262H25.0179Z" fill="#A2001D"/>
<path d="M6.98206 29.2174C9.54981 30.9728 12.6548 32 16 32C19.3452 32 22.4501 30.9728 25.0179 29.2174H6.98206Z" fill="#A2001D"/>
<path d="M16 23.6522C20.2262 23.6522 23.6522 20.2262 23.6522 16C23.6522 11.7738 20.2262 8.34781 16 8.34781C11.7738 8.34781 8.34784 11.7738 8.34784 16C8.34784 20.2262 11.7738 23.6522 16 23.6522Z" fill="#F0F0F0"/>
<path d="M16 22.2609C19.4578 22.2609 22.2609 19.4578 22.2609 16C22.2609 12.5422 19.4578 9.73912 16 9.73912C12.5422 9.73912 9.73914 12.5422 9.73914 16C9.73914 19.4578 12.5422 22.2609 16 22.2609Z" fill="#6DA544"/>
<path d="M16 20.1739C18.3052 20.1739 20.1739 18.3052 20.1739 16C20.1739 13.6948 18.3052 11.8261 16 11.8261C13.6948 11.8261 11.826 13.6948 11.826 16C11.826 18.3052 13.6948 20.1739 16 20.1739Z" fill="#F0F0F0"/>
<path d="M16 14.9565L13.7391 16V17.7391L16 19.1304L18.2609 17.7391V16L16 14.9565Z" fill="#0052B4"/>
<path d="M13.7391 13.9131H18.2609V16H13.7391V13.9131Z" fill="#FFDA44"/>
</g>
<defs>
<clipPath id="clip0_14537_61371">
<rect width="32" height="32" fill="white"/>
</clipPath>
</defs>
</svg>
