<svg width="32" height="32" viewBox="0 0 32 32" fill="none" xmlns="http://www.w3.org/2000/svg">
<g clip-path="url(#clip0_14537_61385)">
<path d="M32 16C32 24.8365 24.8365 32 16 32C7.1635 32 0 24.8365 0 16C0 16.0038 16 0.00175 16 0C24.8365 0 32 7.1635 32 16Z" fill="#D80027"/>
<path d="M16 7.65219V13.0486L10.4348 7.65219H16Z" fill="#0052B4"/>
<path d="M8.34785 16H13.0485L8.34785 9.73914L7.65222 14.6087L8.34785 16Z" fill="#0052B4"/>
<path d="M15.9572 16H16C16 15.9856 16 15.9716 16 15.9572C15.9857 15.9715 15.9715 15.9857 15.9572 16Z" fill="#F0F0F0"/>
<path d="M16 8.34781C16 5.5325 16 3.68781 16 0H15.9973C7.16194 0.0015 0 7.16431 0 16H8.34781V11.2993L13.0485 16H15.9572C15.9715 15.9858 15.9858 15.9715 16.0001 15.9572C16.0001 14.8793 16.0001 13.9174 16.0001 13.0486L11.2992 8.34781H16Z" fill="#F0F0F0"/>
<path d="M8.09466 2.08694C5.59223 3.51188 3.51179 5.59226 2.08691 8.09469V16.6956H6.26085V6.26101V6.26088H16.6956C16.6956 4.94444 16.6956 3.69032 16.6956 2.08694H8.09466Z" fill="#D80027"/>
<path d="M16.636 14.6684L10.3153 8.34782H8.34778V8.34795L16.6358 16.636H16.636C16.636 16.6361 16.636 15.2794 16.636 14.6684Z" fill="#D80027"/>
<path d="M18.0869 8.34781V15.9999C18.0869 19.7274 27.826 19.7274 27.826 15.9999V8.34781H18.0869Z" fill="#F3F3F3"/>
<path d="M18.0869 16V15.9999C18.0869 19.7274 22.9565 20.8696 22.9565 20.8696C22.9565 20.8696 27.826 19.7274 27.826 15.9999V16H18.0869Z" fill="#6DA544"/>
<path d="M22.9566 12.9391L20.6957 13.9131V16L22.9566 17.3913L25.2174 16V13.9131L22.9566 12.9391Z" fill="#A2001D"/>
<path d="M20.6957 11.8261H25.2174V13.913H20.6957V11.8261Z" fill="#338AF3"/>
</g>
<defs>
<clipPath id="clip0_14537_61385">
<rect width="32" height="32" fill="white"/>
</clipPath>
</defs>
</svg>
