<svg width="32" height="32" viewBox="0 0 32 32" fill="none" xmlns="http://www.w3.org/2000/svg">
<g clip-path="url(#clip0_14537_61401)">
<path d="M27.3137 27.3138C21.0653 33.5621 10.9347 33.5621 4.68628 27.3138C-1.56209 21.0654 -1.56209 10.9347 4.68628 4.68626C4.68853 4.68626 19.0649 0.438317 25.3133 6.68669C31.5618 12.9351 27.318 27.3094 27.3137 27.3138Z" fill="#FFDA44"/>
<path d="M27.3137 27.3137C33.5621 21.0654 33.5621 10.9347 27.3137 4.68624C21.0653 -1.56219 10.9347 -1.56213 4.68628 4.68624L27.3137 27.3137Z" fill="#D80027"/>
<path d="M20.1823 20.1838C19.525 20.4419 18.7613 20.4146 18.0988 20.0428C16.9281 19.3858 16.5103 17.8986 17.1675 16.7278L16.968 16.6159C18.9724 16.1326 20.4553 14.3133 20.4293 12.1663C20.4132 10.8314 19.8168 9.63725 18.8838 8.82013L17.423 10.3168C17.9753 10.7569 18.3333 11.432 18.3425 12.1916C18.3588 13.5341 17.2799 14.6395 15.9375 14.6557L15.9403 14.8843C14.5195 13.3901 12.2025 13.0156 10.3561 14.1116C9.20827 14.7931 8.47239 15.9066 8.23108 17.1231L10.2576 17.64C10.3626 16.9416 10.7682 16.294 11.4214 15.9062C12.5758 15.2209 14.0726 15.6026 14.7579 16.757L14.9546 16.6403C14.371 18.6177 15.2051 20.8116 17.0775 21.8626C18.2416 22.516 19.5739 22.5966 20.7481 22.1973L20.1823 20.1838ZM15.9543 16.0467L15.9541 16.0468L15.9543 16.0467Z" fill="#FF9811"/>
<path d="M21.9241 10.8363L20.7933 14.872L17.4001 14.2454L15.216 9.74326L9.31558 11.8371L8.85027 10.5258L7.30652 10.3356L8.46971 13.6137L12.5303 12.5752L13.6842 15.827L10.8772 19.9696L15.6408 24.0324L14.7378 25.091L15.345 26.5232L17.6024 23.8767L14.6728 20.8794L16.912 18.2542L21.9031 18.6138L23.0399 12.4569L24.4081 12.7096L25.3449 11.4678L21.9241 10.8363ZM15.9988 16.1089V16.109V16.1089Z" fill="#FFEACF"/>
</g>
<defs>
<clipPath id="clip0_14537_61401">
<rect width="32" height="32" fill="white"/>
</clipPath>
</defs>
</svg>
