<svg width="32" height="32" viewBox="0 0 32 32" fill="none" xmlns="http://www.w3.org/2000/svg">
<g clip-path="url(#clip0_14537_61416)">
<path d="M16 32C24.8366 32 32 24.8366 32 16C32 7.16344 24.8366 0 16 0C7.16344 0 0 7.16344 0 16C0 24.8366 7.16344 32 16 32Z" fill="#F0F0F0"/>
<path d="M16 0C10.3269 0 5.34375 2.95269 2.50275 7.40494L24.2002 29.7406C28.8716 26.9467 32 21.8389 32 16C32 7.1635 24.8365 0 16 0Z" fill="#FFDA44"/>
<path d="M32 16C32 11.8486 30.4189 8.06688 27.826 5.22325V26.7768C30.4189 23.9331 32 20.1514 32 16Z" fill="#0052B4"/>
<path d="M19.9868 30.1171L21.6627 30.116L22.1797 28.5217L22.6986 30.1154L23.5392 30.1149C24.0547 29.8389 24.5532 29.5357 25.033 29.2068L2.79306 6.96693C2.42656 7.50168 2.09231 8.06006 1.79175 8.63881L1.98937 9.24581L3.66531 9.24475L2.31006 10.2307L2.82894 11.8244L1.47244 10.8401L0.663375 11.4286C0.232063 12.8771 0 14.4114 0 16C0 24.8365 7.1635 32 16 32C17.8682 32 19.6614 31.6792 21.3281 31.0905L19.9868 30.1171ZM3.56869 15.3044L4.08556 13.7101L2.72919 12.7257L4.40512 12.7247L4.92206 11.1304L5.44094 12.7241L7.11687 12.723L5.76156 13.7089L6.28044 15.3026L4.92394 14.3184L3.56869 15.3044ZM7.02025 18.7826L7.53712 17.1884L6.18075 16.204L7.85669 16.2029L8.37362 14.6086L8.8925 16.2023L10.5684 16.2012L9.21319 17.1872L9.73206 18.7809L8.37556 17.7966L7.02025 18.7826ZM10.4717 22.2609L10.9886 20.6666L9.63225 19.6822L11.3082 19.6812L11.8251 18.0869L12.344 19.6806L14.0199 19.6795L12.6647 20.6654L13.1836 22.2591L11.8271 21.2747L10.4717 22.2609ZM15.2786 24.7532L13.9232 25.7391L14.4401 24.1449L13.0837 23.1605L14.7597 23.1594L15.2767 21.5651L15.7956 23.1588L17.4715 23.1577L16.1162 24.1437L16.6351 25.7374L15.2786 24.7532ZM17.3748 29.2174L17.8917 27.6231L16.5353 26.6387L18.2112 26.6377L18.7282 25.0434L19.2471 26.6371L20.923 26.636L19.5677 27.6219L20.0866 29.2156L18.7301 28.2312L17.3748 29.2174Z" fill="#0052B4"/>
</g>
<defs>
<clipPath id="clip0_14537_61416">
<rect width="32" height="32" fill="white"/>
</clipPath>
</defs>
</svg>
