<svg width="32" height="32" viewBox="0 0 32 32" fill="none" xmlns="http://www.w3.org/2000/svg">
<g clip-path="url(#clip0_14537_61422)">
<path d="M0.755622 11.1304C0.265497 12.6659 5.95813e-05 14.3018 0.000122081 15.9999C5.95813e-05 17.698 0.265497 19.3339 0.755685 20.8695L16.0001 21.5653L31.2445 20.8695C31.7346 19.3339 32.0001 17.6979 32.0001 16C32.0001 14.3019 31.7346 12.6659 31.2445 11.1304L16.0001 10.4348L0.755622 11.1304Z" fill="#F0F0F0"/>
<path d="M32 16C32 15.0508 31.9169 14.1211 31.7583 13.2173H0.24175C0.083125 14.1211 0 15.0507 0 15.9999C0 16.9492 0.0831875 17.8788 0.24175 18.7826H31.7583C31.9168 17.8788 32 16.9491 32 16Z" fill="black"/>
<path d="M16.0002 31.9999C23.1387 31.9999 29.1843 27.3248 31.2446 20.8694H0.755737C2.81605 27.3247 8.86174 31.9998 16.0002 31.9999Z" fill="#338AF3"/>
<path d="M16.0001 6.10377e-05C8.86168 6.10377e-05 2.81605 4.67525 0.755615 11.1304L31.2444 11.1304C29.1842 4.67525 23.1385 -6.39623e-05 16.0001 6.10377e-05Z" fill="#338AF3"/>
</g>
<defs>
<clipPath id="clip0_14537_61422">
<rect width="32" height="32" fill="white"/>
</clipPath>
</defs>
</svg>
