<svg width="32" height="32" viewBox="0 0 32 32" fill="none" xmlns="http://www.w3.org/2000/svg">
<g clip-path="url(#clip0_14537_61428)">
<path d="M16 32C24.8366 32 32 24.8366 32 16C32 7.16344 24.8366 0 16 0C7.16344 0 0 7.16344 0 16C0 24.8366 7.16344 32 16 32Z" fill="#6DA544"/>
<path d="M16 6.26087L29.2173 16L16 25.7391L2.78259 16L16 6.26087Z" fill="#FFDA44"/>
<path d="M16 21.5652C19.0736 21.5652 21.5652 19.0736 21.5652 16C21.5652 12.9264 19.0736 10.4348 16 10.4348C12.9264 10.4348 10.4348 12.9264 10.4348 16C10.4348 19.0736 12.9264 21.5652 16 21.5652Z" fill="#F0F0F0"/>
<path d="M13.2173 15.6522C12.2496 15.6522 11.3156 15.7994 10.4365 16.0725C10.4755 19.1125 12.9507 21.5653 16 21.5653C17.8855 21.5653 19.5507 20.6267 20.5574 19.1923C18.8351 17.0362 16.185 15.6522 13.2173 15.6522Z" fill="#0052B4"/>
<path d="M21.462 17.0663C21.529 16.721 21.5652 16.3648 21.5652 16C21.5652 12.9264 19.0736 10.4348 16 10.4348C13.7066 10.4348 11.7379 11.8224 10.8859 13.8035C11.639 13.6474 12.4187 13.5653 13.2174 13.5653C16.4497 13.5652 19.3739 14.9088 21.462 17.0663Z" fill="#0052B4"/>
</g>
<defs>
<clipPath id="clip0_14537_61428">
<rect width="32" height="32" fill="white"/>
</clipPath>
</defs>
</svg>
