<svg width="32" height="32" viewBox="0 0 32 32" fill="none" xmlns="http://www.w3.org/2000/svg">
<g clip-path="url(#clip0_14537_61493)">
<path d="M32 16C32 24.8365 24.8365 32 16 32C7.1635 32 0 24.8365 0 16C0 16.0038 16 0.00175 16 0C24.8365 0 32 7.1635 32 16Z" fill="#0052B4"/>
<path d="M15.9572 16H16C16 15.9856 16 15.9716 16 15.9572C15.9857 15.9715 15.9715 15.9858 15.9572 16Z" fill="#F0F0F0"/>
<path d="M16 8.34781C16 5.5325 16 3.68781 16 0H15.9973C7.16194 0.0015 0 7.16431 0 16H8.34781V11.2993L13.0485 16H15.9572C15.9715 15.9858 15.9858 15.9715 16.0001 15.9572C16.0001 14.8793 16.0001 13.9174 16.0001 13.0486L11.2992 8.34781H16Z" fill="#F0F0F0"/>
<path d="M8.09466 2.08694C5.59223 3.51187 3.51179 5.59225 2.08691 8.09469V16H6.26085V6.261V6.26087H16C16 4.94444 16 3.69031 16 2.08694H8.09466Z" fill="#D80027"/>
<path d="M22.9565 16L18.632 20.3246C19.4425 21.8877 21.0742 22.9565 22.9565 22.9565C24.8388 22.9565 26.4706 21.8877 27.2811 20.3246L22.9565 16Z" fill="#FFDA44"/>
<path d="M16 14.0324L10.3153 8.34787H8.34778V8.348L15.9998 16H16C16 16 16 14.6433 16 14.0324Z" fill="#D80027"/>
<path d="M18.0869 8.34781V15.9999V16C18.087 19.7274 22.9565 20.8696 22.9565 20.8696C22.9565 20.8696 27.826 19.7274 27.826 16V15.9999V8.34781H18.0869Z" fill="#6DA544"/>
<path d="M21.9131 11.8261H24V17.3913H21.9131V11.8261Z" fill="#F0F0F0"/>
<path d="M22.9565 12.8696C23.5328 12.8696 24 12.4024 24 11.8261C24 11.2498 23.5328 10.7826 22.9565 10.7826C22.3802 10.7826 21.913 11.2498 21.913 11.8261C21.913 12.4024 22.3802 12.8696 22.9565 12.8696Z" fill="#A2001D"/>
<path d="M19.4783 9.73913H20.8696V11.1304H19.4783V9.73913Z" fill="#FFDA44"/>
<path d="M19.4783 12.8696H20.8696V14.2609H19.4783V12.8696Z" fill="#FFDA44"/>
<path d="M19.4783 16H20.8696V17.3913H19.4783V16Z" fill="#FFDA44"/>
<path d="M25.0436 9.73913H26.4349V11.1304H25.0436V9.73913Z" fill="#FFDA44"/>
<path d="M25.0436 12.8696H26.4349V14.2609H25.0436V12.8696Z" fill="#FFDA44"/>
<path d="M25.0436 16H26.4349V17.3913H25.0436V16Z" fill="#FFDA44"/>
</g>
<defs>
<clipPath id="clip0_14537_61493">
<rect width="32" height="32" fill="white"/>
</clipPath>
</defs>
</svg>
