<svg width="32" height="32" viewBox="0 0 32 32" fill="none" xmlns="http://www.w3.org/2000/svg">
<g clip-path="url(#clip0_14537_61464)">
<path d="M16 32C24.8366 32 32 24.8366 32 16C32 7.16344 24.8366 0 16 0C7.16344 0 0 7.16344 0 16C0 24.8366 7.16344 32 16 32Z" fill="#F0F0F0"/>
<path d="M29.3331 17.9148C27.9998 17.9148 27.9998 16.6957 26.6664 16.6957C25.3331 16.6957 25.3331 17.9148 23.9998 17.9148C22.6666 17.9148 22.6665 16.6957 21.3333 16.6957C19.9999 16.6957 19.9999 17.9148 18.6666 17.9148C17.3332 17.9148 17.3331 16.6957 15.9997 16.6957C14.6664 16.6957 14.6664 17.9148 13.3331 17.9148C12 17.9148 12 16.6957 10.6667 16.6957C9.33325 16.6957 9.33325 17.9148 7.99981 17.9148C6.66638 17.9148 6.66638 16.6957 5.33294 16.6957C3.99981 16.6957 3.99981 17.9148 2.6665 17.9148C1.34038 17.9148 1.33269 16.7091 0.020752 16.6963C0.0576895 17.4281 0.145064 18.1466 0.277189 18.8493C1.33994 19.0054 1.433 20.0481 2.66663 20.0481C3.99994 20.0481 3.99994 18.8291 5.33306 18.8291C6.6665 18.8291 6.6665 20.0481 7.99994 20.0481C9.33338 20.0481 9.33338 18.8291 10.6668 18.8291C12.0001 18.8291 12.0001 20.0481 13.3333 20.0481C14.6666 20.0481 14.6666 18.8291 15.9998 18.8291C17.3333 18.8291 17.3333 20.0481 18.6667 20.0481C20.0001 20.0481 20.0001 18.8291 21.3334 18.8291C22.6667 18.8291 22.6667 20.0481 23.9999 20.0481C25.3333 20.0481 25.3333 18.8291 26.6665 18.8291C27.9999 18.8291 27.9999 20.0481 29.3332 20.0481C30.5669 20.0481 30.6599 19.0054 31.7228 18.8493C31.8549 18.1466 31.9422 17.4281 31.9793 16.6963C30.6671 16.7092 30.6593 17.9148 29.3331 17.9148Z" fill="#0052B4"/>
<path d="M26.6664 20.8696C25.3331 20.8696 25.3331 22.0887 23.9999 22.0887C22.6666 22.0887 22.6665 20.8696 21.3333 20.8696C20 20.8696 20 22.0887 18.6666 22.0887C17.3332 22.0887 17.3332 20.8696 15.9997 20.8696C14.6664 20.8696 14.6664 22.0887 13.3332 22.0887C12 22.0887 12 20.8696 10.6667 20.8696C9.3333 20.8696 9.3333 22.0887 7.99986 22.0887C6.66642 22.0887 6.66642 20.8696 5.33298 20.8696C3.99986 20.8696 3.99986 22.0887 2.66655 22.0887C1.68436 22.0887 1.42505 21.4276 0.823608 21.0793C1.18786 22.168 1.6663 23.2042 2.24411 24.1744C2.36923 24.2046 2.50836 24.222 2.66648 24.222C3.9998 24.222 3.9998 23.003 5.33292 23.003C6.66636 23.003 6.66636 24.222 7.9998 24.222C9.33323 24.222 9.33323 23.003 10.6667 23.003C12 23.003 12 24.222 13.3331 24.222C14.6664 24.222 14.6664 23.003 15.9997 23.003C17.3331 23.003 17.3331 24.222 18.6665 24.222C20 24.222 20 23.003 21.3332 23.003C22.6665 23.003 22.6665 24.222 23.9998 24.222C25.333 24.222 25.3331 23.003 26.6664 23.003C27.9998 23.003 27.9998 24.222 29.333 24.222C29.4913 24.222 29.6305 24.2046 29.7557 24.1744C30.3336 23.2042 30.812 22.168 31.1762 21.0794C30.5747 21.4276 30.3154 22.0888 29.333 22.0888C27.9999 22.0887 27.9999 20.8696 26.6664 20.8696Z" fill="#0052B4"/>
<path d="M31.6277 12.5588C30.6531 12.7611 30.5288 13.7409 29.3331 13.7409C27.9998 13.7409 27.9998 12.5218 26.6664 12.5218C25.3331 12.5218 25.3331 13.7409 23.9998 13.7409C22.6666 13.7409 22.6665 12.5218 21.3333 12.5218C19.9999 12.5218 19.9999 13.7409 18.6666 13.7409C17.3332 13.7409 17.3331 12.5218 15.9997 12.5218C15.2793 12.5218 14.948 12.8776 14.5854 13.2049V15.3382C14.948 15.011 15.2792 14.6552 15.9997 14.6552C17.3331 14.6552 17.3331 15.8742 18.6666 15.8742C20 15.8742 20 14.6552 21.3333 14.6552C22.6666 14.6552 22.6666 15.8742 23.9998 15.8742C25.3331 15.8742 25.3331 14.6552 26.6664 14.6552C27.9998 14.6552 27.9998 15.8742 29.3331 15.8742C30.5668 15.8742 30.6598 14.8316 31.7226 14.6754C31.7908 14.6754 31.8669 14.6748 31.9448 14.6738C31.8858 13.9543 31.7789 13.2482 31.6277 12.5588Z" fill="#0052B4"/>
<path d="M30.4589 9.14213C30.1826 9.37419 29.8632 9.56694 29.3331 9.56694C27.9998 9.56694 27.9998 8.34781 26.6664 8.34781C25.3331 8.34781 25.3331 9.56694 23.9998 9.56694C22.6666 9.56694 22.6665 8.34781 21.3333 8.34781C19.9999 8.34781 19.9999 9.56694 18.6666 9.56694C17.3332 9.56694 17.3331 8.34781 15.9997 8.34781C15.2793 8.34781 14.948 8.70369 14.5854 9.03094V11.1643C14.948 10.8371 15.2792 10.4812 15.9997 10.4812C17.3331 10.4812 17.3331 11.7002 18.6666 11.7002C19.9999 11.7002 19.9999 10.4812 21.3332 10.4812C22.6665 10.4812 22.6665 11.7002 23.9998 11.7002C25.333 11.7002 25.333 10.4812 26.6663 10.4812C27.9998 10.4812 27.9998 11.7002 29.333 11.7002C30.2791 11.7002 30.5546 11.0874 31.1109 10.7311C30.9213 10.1875 30.7036 9.65719 30.4589 9.14213Z" fill="#0052B4"/>
<path d="M26.7802 4.17719C26.7432 4.17519 26.7055 4.17394 26.6663 4.17394C25.333 4.17394 25.333 5.39306 23.9998 5.39306C22.6665 5.39306 22.6665 4.17394 21.3332 4.17394C19.9999 4.17394 19.9999 5.39306 18.6665 5.39306C17.333 5.39306 17.333 4.17394 15.9996 4.17394C15.2791 4.17394 14.9479 4.52981 14.5853 4.85706V6.99037C14.9479 6.66319 15.2791 6.30737 15.9996 6.30737C17.333 6.30737 17.333 7.52637 18.6665 7.52637C19.9999 7.52637 19.9999 6.30737 21.3331 6.30737C22.6665 6.30737 22.6665 7.52637 23.9997 7.52637C25.333 7.52637 25.333 6.30737 26.6663 6.30737C27.9997 6.30737 27.9997 7.52637 29.333 7.52637C29.4151 7.52637 29.4918 7.5215 29.5644 7.51281C28.79 6.27756 27.8522 5.15525 26.7802 4.17719Z" fill="#0052B4"/>
<path d="M20.0895 0.528376C19.7235 0.857626 19.3927 1.21925 18.6665 1.21925C17.3331 1.21925 17.3331 0.000250885 15.9997 0.000125885H15.9995C15.31 0.000188385 14.9771 0.326251 14.6318 0.641188V2.77456C14.977 2.45963 15.31 2.1335 15.9997 2.1335C17.3331 2.1335 17.3331 3.3525 18.6666 3.3525C20 3.3525 20 2.1335 21.3333 2.1335C22.6666 2.1335 22.6666 3.3525 23.9998 3.3525C24.5593 3.3525 24.8838 3.13775 25.1708 2.88863C23.6498 1.82269 21.9349 1.01481 20.0895 0.528376Z" fill="#0052B4"/>
<path d="M18.6665 30.4365C17.333 30.4365 17.333 29.2174 15.9996 29.2174C14.6663 29.2174 14.6663 30.4365 13.333 30.4365C11.9999 30.4365 11.9999 29.2174 10.6666 29.2174C9.6453 29.2174 9.40573 29.932 8.75073 30.2669C10.557 31.1865 12.5612 31.7727 14.6824 31.9456C15.0105 31.6459 15.3437 31.3507 15.9996 31.3507C16.6557 31.3507 16.9889 31.6459 17.317 31.9457C19.4384 31.7728 21.4427 31.1866 23.249 30.2669C22.5939 29.9321 22.3544 29.2173 21.3332 29.2173C19.9999 29.2174 19.9999 30.4365 18.6665 30.4365Z" fill="#0052B4"/>
<path d="M23.9998 26.2626C22.6665 26.2626 22.6665 25.0435 21.3333 25.0435C20 25.0435 20 26.2626 18.6666 26.2626C17.3331 26.2626 17.3331 25.0435 15.9997 25.0435C14.6664 25.0435 14.6664 26.2626 13.3331 26.2626C12 26.2626 12 25.0435 10.6667 25.0435C9.33326 25.0435 9.33326 26.2626 7.99983 26.2626C6.66639 26.2626 6.66639 25.0435 5.33295 25.0435C4.37414 25.0435 4.10489 25.6741 3.53333 26.0282C3.89158 26.4731 4.27245 26.8989 4.67551 27.3027C4.85608 27.2256 5.06795 27.1769 5.33289 27.1769C6.66633 27.1769 6.66633 28.3959 7.99976 28.3959C9.3332 28.3959 9.3332 27.1769 10.6666 27.1769C12 27.1769 12 28.3959 13.3331 28.3959C14.6664 28.3959 14.6664 27.1769 15.9996 27.1769C17.3331 27.1769 17.3331 28.3959 18.6665 28.3959C20 28.3959 20 27.1769 21.3332 27.1769C22.6665 27.1769 22.6665 28.3959 23.9998 28.3959C25.333 28.3959 25.3331 27.1769 26.6663 27.1769C26.9316 27.1769 27.1435 27.2256 27.3241 27.3028C27.7273 26.899 28.1081 26.4731 28.4664 26.0282C27.8948 25.6742 27.6255 25.0436 26.6664 25.0436C25.3331 25.0435 25.3331 26.2626 23.9998 26.2626Z" fill="#0052B4"/>
<path d="M15.9572 16H16C16 15.9856 16 15.9716 16 15.9572C15.9857 15.9715 15.9715 15.9858 15.9572 16Z" fill="#F0F0F0"/>
<path d="M16 8.34781V13.0486L10.4348 7.65219L16 8.34781Z" fill="#0052B4"/>
<path d="M8.34791 16H13.0485L8.34785 9.73913L7.65222 14.6087L8.34791 16Z" fill="#0052B4"/>
<path d="M16 8.34781C16 5.5325 16 3.68781 16 0H15.9973C7.162 0.0015 0 7.16431 0 16H8.34787V11.2993L13.0485 16H15.9572C15.9715 15.9858 15.9858 15.9715 16.0001 15.9572C16.0001 14.8793 16.0001 13.9174 16.0001 13.0486L11.2992 8.34781H16Z" fill="#F0F0F0"/>
<path d="M8.09466 2.08694C5.59223 3.51187 3.51185 5.59225 2.08691 8.09469V16H6.26085V6.261V6.26087H16C16 4.94444 16 3.69031 16 2.08694H8.09466Z" fill="#D80027"/>
<path d="M16 14.0324L10.3153 8.34787H8.34778V8.348L15.9998 16H16C16 16 16 14.6433 16 14.0324Z" fill="#D80027"/>
<path d="M20.8695 8.34781H27.1304L23.9999 11.4782L20.8695 8.34781Z" fill="#6DA544"/>
<path d="M23.3043 10.7826H24.6956V14.6087H23.3043V10.7826Z" fill="#A2001D"/>
<path d="M23.3043 20.8696H24.6956V24.6956H23.3043V20.8696Z" fill="#A2001D"/>
<path d="M28.174 18.7826C28.174 17.6301 27.2396 16.6957 26.087 16.6957C25.5524 16.6957 25.065 16.8969 24.6957 17.2275V16H25.3914V14.6087H24.6957V13.9131H23.3044V14.6087H22.6088V16H23.3044V17.2275C22.9351 16.8969 22.4477 16.6957 21.9131 16.6957C20.7605 16.6957 19.8262 17.6301 19.8262 18.7826C19.8262 19.4006 20.095 19.9556 20.5218 20.3378V21.5653H27.4783V20.3378C27.9052 19.9556 28.174 19.4006 28.174 18.7826Z" fill="#FFDA44"/>
<path d="M26.0869 18.0869C25.8675 18.0869 25.7138 18.1833 25.6235 18.2641L24.6956 19.0947H23.3043L22.3764 18.2641C22.2861 18.1833 22.1325 18.0869 21.913 18.0869C21.5295 18.0869 21.2174 18.399 21.2174 18.7826C21.2174 19.0527 21.3631 19.2234 21.4499 19.3013L21.9131 19.716V20.1739H26.087V19.716L26.5502 19.3013C26.637 19.2235 26.7827 19.0527 26.7827 18.7826C26.7826 18.399 26.4705 18.0869 26.0869 18.0869Z" fill="#D80027"/>
</g>
<defs>
<clipPath id="clip0_14537_61464">
<rect width="32" height="32" fill="white"/>
</clipPath>
</defs>
</svg>
