<svg width="32" height="32" viewBox="0 0 32 32" fill="none" xmlns="http://www.w3.org/2000/svg">
<g clip-path="url(#clip0_14537_61435)">
<path d="M0 16C0 7.1635 7.1635 0 16 0C24.8365 0 32 7.1635 32 16H0Z" fill="#F0F0F0"/>
<path d="M11.8261 15.1253L10.9514 16H11.8261V15.1253Z" fill="#0052B4"/>
<path d="M20.174 15.1254V16H21.0486L20.174 15.1254Z" fill="#0052B4"/>
<path d="M0.461625 12.174C0.160688 13.4 0 14.6812 0 16H5.04856L8.87456 12.174H0.461625Z" fill="#0052B4"/>
<path d="M23.1254 12.174L26.9514 16H32.0001C32.0001 14.6812 31.8393 13.4 31.5384 12.174H23.1254Z" fill="#0052B4"/>
<path d="M22.1414 12.174H20.1738L23.9998 16H25.9675L22.1414 12.174Z" fill="#D80027"/>
<path d="M11.826 14.1414V12.174H11.8259L7.99988 16H9.9675L11.826 14.1414Z" fill="#D80027"/>
<path d="M7.49515 2.44637C6.83565 2.86112 6.20859 3.3225 5.61853 3.82606H8.87478L7.49515 2.44637Z" fill="#0052B4"/>
<path d="M26.3815 3.82606C25.7914 3.32244 25.1644 2.86106 24.505 2.44637L23.1254 3.82606H26.3815Z" fill="#0052B4"/>
<path d="M18.0869 10.0869H30.8713C30.2664 8.567 29.435 7.16213 28.4192 5.913H18.087H18.0869V0.135438C17.4038 0.0465 16.7073 0 16 0C15.2925 0 14.5962 0.0465 13.913 0.135438V5.91294V5.913H3.58072C2.56491 7.16213 1.73354 8.567 1.12866 10.0869H13.9129H13.913V16H18.0869V10.087V10.0869Z" fill="#D80027"/>
<path d="M11.826 3.82607V3.826L9.41397 1.41394C8.96804 1.61563 8.53341 1.83782 8.11047 2.078L9.85854 3.82607H11.826Z" fill="#D80027"/>
<path d="M20.174 3.82606L22.5861 1.414C22.1273 1.20656 21.6568 1.02056 21.1762 0.856247L20.174 1.85856V3.82606Z" fill="#D80027"/>
<path d="M32 16C32 24.8365 24.8365 32 16 32C7.1635 32 0 24.8365 0 16H32Z" fill="#F0F0F0"/>
<path d="M29.3331 18.0406C27.9998 18.0406 27.9998 16.8215 26.6664 16.8215C25.3331 16.8215 25.3331 18.0406 23.9998 18.0406C22.6666 18.0406 22.6665 16.8215 21.3333 16.8215C19.9999 16.8215 19.9999 18.0406 18.6666 18.0406C17.3332 18.0406 17.3331 16.8215 15.9997 16.8215C14.6664 16.8215 14.6664 18.0406 13.3331 18.0406C12 18.0406 12 16.8215 10.6667 16.8215C9.33325 16.8215 9.33325 18.0406 7.99982 18.0406C6.66638 18.0406 6.66638 16.8215 5.33294 16.8215C3.99981 16.8215 3.99981 18.0406 2.6665 18.0406C1.34038 18.0406 1.33269 16.8349 0.020752 16.8221C0.0576895 17.5539 0.145064 18.2724 0.277189 18.9751C1.33994 19.1313 1.433 20.1739 2.66656 20.1739C3.99988 20.1739 3.99988 18.9549 5.333 18.9549C6.66644 18.9549 6.66644 20.1739 7.99988 20.1739C9.33332 20.1739 9.33332 18.9549 10.6668 18.9549C12.0001 18.9549 12.0001 20.1739 13.3332 20.1739C14.6665 20.1739 14.6665 18.9549 15.9998 18.9549C17.3332 18.9549 17.3332 20.1739 18.6666 20.1739C20.0001 20.1739 20.0001 18.9549 21.3333 18.9549C22.6666 18.9549 22.6666 20.1739 23.9999 20.1739C25.3331 20.1739 25.3332 18.9549 26.6664 18.9549C27.9999 18.9549 27.9999 20.1739 29.3331 20.1739C30.5668 20.1739 30.6599 19.1313 31.7227 18.9751C31.8549 18.2724 31.9421 17.554 31.9793 16.8221C30.6671 16.8351 30.6593 18.0406 29.3331 18.0406Z" fill="#0052B4"/>
<path d="M26.6664 20.9954C25.3331 20.9954 25.3331 22.2146 23.9999 22.2146C22.6666 22.2146 22.6666 20.9954 21.3333 20.9954C20 20.9954 20 22.2146 18.6666 22.2146C17.3332 22.2146 17.3332 20.9954 15.9997 20.9954C14.6664 20.9954 14.6664 22.2146 13.3332 22.2146C12.0001 22.2146 12.0001 20.9954 10.6667 20.9954C9.33331 20.9954 9.33331 22.2146 7.99987 22.2146C6.66644 22.2146 6.66644 20.9954 5.333 20.9954C3.99987 20.9954 3.99987 22.2146 2.66656 22.2146C1.71387 22.2146 1.44175 21.5923 0.877686 21.2368C1.25319 22.3218 1.74169 23.3538 2.33 24.3186C2.43231 24.3374 2.54369 24.3479 2.66656 24.3479C3.99987 24.3479 3.99987 23.1289 5.333 23.1289C6.66644 23.1289 6.66644 24.3479 7.99987 24.3479C9.33331 24.3479 9.33331 23.1289 10.6667 23.1289C12.0001 23.1289 12.0001 24.3479 13.3332 24.3479C14.6665 24.3479 14.6665 23.1289 15.9997 23.1289C17.3332 23.1289 17.3332 24.3479 18.6666 24.3479C20.0001 24.3479 20.0001 23.1289 21.3333 23.1289C22.6666 23.1289 22.6666 24.3479 23.9999 24.3479C25.3331 24.3479 25.3332 23.1289 26.6664 23.1289C27.9999 23.1289 27.9999 24.3479 29.3331 24.3479C29.4561 24.3479 29.5675 24.3374 29.6698 24.3185C30.2581 23.3538 30.7466 22.3218 31.1222 21.2369C30.5581 21.5922 30.286 22.2146 29.3331 22.2146C27.9999 22.2146 27.9999 20.9954 26.6664 20.9954Z" fill="#0052B4"/>
<path d="M31.9913 15.4973C31.9927 15.5418 31.9943 15.5862 31.9953 15.6308C31.9943 15.5863 31.9926 15.5418 31.9913 15.4973Z" fill="#F0F0F0"/>
<path d="M0.00463867 15.6308C0.00570117 15.5862 0.00720117 15.5418 0.00857617 15.4973C0.00726367 15.5418 0.00563867 15.5863 0.00463867 15.6308Z" fill="#F0F0F0"/>
<path d="M0 16C0 15.8766 0.001875 15.7536 0.0046875 15.6308C0.0018125 15.7536 0 15.8766 0 16Z" fill="#F0F0F0"/>
<path d="M0 16C0 16.2914 0.00825 16.581 0.0238125 16.8686C1.33275 16.8833 1.34144 18.0869 2.66663 18.0869C3.99994 18.0869 3.99994 16.8679 5.33306 16.8679C6.6665 16.8679 6.6665 18.0869 7.99994 18.0869C9.33337 18.0869 9.33338 16.8679 10.6668 16.8679C12.0001 16.8679 12.0001 18.0869 13.3333 18.0869C14.6666 18.0869 14.6666 16.8679 15.9998 16.8679C17.3333 16.8679 17.3333 18.0869 18.6667 18.0869C20.0001 18.0869 20.0001 16.8679 21.3334 16.8679C22.6667 16.8679 22.6667 18.0869 23.9999 18.0869C25.3332 18.0869 25.3333 16.8679 26.6665 16.8679C27.9999 16.8679 27.9999 18.0869 29.3332 18.0869C30.6585 18.0869 30.6672 16.8833 31.9764 16.8686C31.9918 16.5809 32 16.2914 32 16H0Z" fill="#F0F0F0"/>
<path d="M31.9954 15.6308C31.9982 15.7535 32 15.8765 32 16C32 15.8766 31.9982 15.7536 31.9954 15.6308Z" fill="#F0F0F0"/>
<path d="M26.6665 25.1693C25.3332 25.1693 25.3332 26.3884 23.9999 26.3884C22.6667 26.3884 22.6666 25.1693 21.3334 25.1693C20 25.1693 20 26.3884 18.6667 26.3884C17.3332 26.3884 17.3332 25.1693 15.9998 25.1693C14.6665 25.1693 14.6665 26.3884 13.3332 26.3884C12.0001 26.3884 12.0001 25.1693 10.6668 25.1693C9.33336 25.1693 9.33336 26.3884 7.99992 26.3884C6.66648 26.3884 6.66648 25.1693 5.33304 25.1693C4.41217 25.1693 4.12723 25.7508 3.59973 26.1106C4.99904 27.8247 6.74717 29.2425 8.73498 30.2576L16 29.8916L23.265 30.2576C25.2528 29.2424 27.0009 27.8248 28.4002 26.1107C27.8725 25.7509 27.5875 25.1693 26.6665 25.1693Z" fill="#0052B4"/>
<path d="M24.874 25.5509L20.0068 26.4818L19.3902 21.5652L16 25.1812L12.61 21.5652L11.9932 26.4817L7.12622 25.5508L9.51303 29.8916L8.73353 30.2582C10.914 31.3718 13.3836 32 16 32C18.6165 32 21.086 31.3718 23.2665 30.2583L22.4873 29.8917L24.874 25.5509Z" fill="#FFDA44"/>
</g>
<defs>
<clipPath id="clip0_14537_61435">
<rect width="32" height="32" fill="white"/>
</clipPath>
</defs>
</svg>
