<svg width="32" height="32" viewBox="0 0 32 32" fill="none" xmlns="http://www.w3.org/2000/svg">
<g clip-path="url(#clip0_14537_61515)">
<path d="M16.0001 31.9977C24.8354 31.9977 31.9978 24.8354 31.9978 16.0001C31.9978 7.16483 24.8354 0.00243759 16.0001 0.00243759C7.16484 0.00243759 0.00244141 7.16483 0.00244141 16.0001C0.00244141 24.8354 7.16484 31.9977 16.0001 31.9977Z" fill="#F0F0F0"/>
<path d="M2.14566 8.00117C1.42359 9.2517 0.89095 10.5591 0.536255 11.8908L27.2905 27.3375C28.2664 26.3644 29.1324 25.2493 29.8543 23.9988L2.14566 8.00117Z" fill="black"/>
<path d="M23.9988 2.14561C17.5977 -1.55003 9.70502 -0.31832 4.70947 4.66254L31.4637 20.1091C33.2795 13.2925 30.3998 5.84131 23.9988 2.14561Z" fill="#FFDA44"/>
<path d="M8.00126 29.8544C14.4023 33.55 22.2951 32.3183 27.2905 27.3375L0.536286 11.8908C-1.27944 18.7075 1.60012 26.1587 8.00126 29.8544Z" fill="#FFDA44"/>
<path d="M20.5212 14.2611C20.5212 16.758 18.497 18.7822 16.0001 18.7822C13.5032 18.7822 11.479 16.758 11.479 14.2611C11.479 13.4826 11.6758 12.75 12.0225 12.1104C11.0414 13.1138 10.4357 14.4858 10.4357 16C10.4357 19.0731 12.9269 21.5644 16.0001 21.5644C19.0733 21.5644 21.5645 19.0732 21.5645 16C21.5645 14.4858 20.9589 13.1138 19.9777 12.1104C20.3244 12.7501 20.5212 13.4826 20.5212 14.2611Z" fill="#D80027"/>
<path d="M14.9568 9.04457H17.0435V19.4779H14.9568V9.04457Z" fill="#D80027"/>
<path d="M19.4778 11.1312H12.5223C12.5223 11.6114 12.9407 12.0006 13.4208 12.0006H13.3918C13.3918 12.4808 13.7811 12.8701 14.2613 12.8701C14.2613 13.3503 14.6506 13.7395 15.1307 13.7395H16.8696C17.3498 13.7395 17.739 13.3503 17.739 12.8701C18.2192 12.8701 18.6085 12.4808 18.6085 12.0006H18.5795C19.0595 12.0006 19.4778 11.6114 19.4778 11.1312Z" fill="#D80027"/>
<path d="M11.1313 20.1734H20.8691V22.26H11.1313V20.1734Z" fill="#D80027"/>
<path d="M18.0868 20.8689H22.2601V22.9556H18.0868V20.8689Z" fill="#D80027"/>
<path d="M9.74023 20.8689H13.9135V22.9556H9.74023V20.8689Z" fill="#D80027"/>
</g>
<defs>
<clipPath id="clip0_14537_61515">
<rect width="32" height="32" fill="white"/>
</clipPath>
</defs>
</svg>
