<svg width="32" height="32" viewBox="0 0 32 32" fill="none" xmlns="http://www.w3.org/2000/svg">
<g clip-path="url(#clip0_14537_61536)">
<path d="M16 32C24.8366 32 32 24.8366 32 16C32 7.16344 24.8366 0 16 0C7.16344 0 0 7.16344 0 16C0 24.8366 7.16344 32 16 32Z" fill="#F0F0F0"/>
<path d="M25.7422 3.30638C20.0139 -1.1015 11.9859 -1.1015 6.25769 3.30631L15.9999 13.0486L25.7422 3.30638Z" fill="#D80027"/>
<path d="M15.9998 18.9515L6.25769 28.6936C11.9859 33.1015 20.0139 33.1015 25.7422 28.6936L15.9999 18.9514L15.9998 18.9515Z" fill="#D80027"/>
<path d="M13.0486 16L3.30639 6.25775C-1.10148 11.986 -1.10148 20.014 3.30639 25.7423L13.0486 16Z" fill="#6DA544"/>
<path d="M18.9515 16L28.6937 25.7423C33.1015 20.014 33.1015 11.986 28.6937 6.25775L18.9515 16Z" fill="#6DA544"/>
<path d="M16 22.9565C19.8419 22.9565 22.9565 19.842 22.9565 16C22.9565 12.158 19.8419 9.0435 16 9.0435C12.158 9.0435 9.04346 12.158 9.04346 16C9.04346 19.842 12.158 22.9565 16 22.9565Z" fill="#F0F0F0"/>
<path d="M16.0001 11.1304L16.6025 12.1739H17.8074L17.2049 13.2174L17.8074 14.2609H16.6025L16.0001 15.3044L15.3976 14.2609H14.1927L14.7952 13.2174L14.1927 12.1739H15.3976L16.0001 11.1304Z" fill="#D80027"/>
<path d="M12.9379 16L13.5403 17.0435H14.7452L14.1427 18.0869L14.7452 19.1304H13.5403L12.9379 20.1739L12.3354 19.1304H11.1305L11.7329 18.0869L11.1305 17.0435H12.3354L12.9379 16Z" fill="#D80027"/>
<path d="M19.0623 16L19.6647 17.0435H20.8696L20.2671 18.0869L20.8696 19.1304H19.6647L19.0623 20.1739L18.4598 19.1304H17.2549L17.8573 18.0869L17.2549 17.0435H18.4598L19.0623 16Z" fill="#D80027"/>
</g>
<defs>
<clipPath id="clip0_14537_61536">
<rect width="32" height="32" fill="white"/>
</clipPath>
</defs>
</svg>
