<svg width="32" height="32" viewBox="0 0 32 32" fill="none" xmlns="http://www.w3.org/2000/svg">
<g clip-path="url(#clip0_14537_61549)">
<path d="M0 16C0 18.7719 0.705188 21.379 1.94544 23.6522L16 25.0435L30.0546 23.6522C31.2948 21.379 32 18.7719 32 16C32 13.2281 31.2948 10.621 30.0546 8.34781L16 6.9565L1.94544 8.34781C0.705188 10.621 0 13.2281 0 16H0Z" fill="#D80027"/>
<path d="M1.94543 8.34781H30.0545C27.3409 3.37431 22.0647 0 16 0C9.93531 0 4.65912 3.37431 1.94543 8.34781Z" fill="#0052B4"/>
<path d="M16 32C22.0647 32 27.3409 28.6257 30.0546 23.6522H1.94543C4.65912 28.6257 9.93531 32 16 32Z" fill="#0052B4"/>
<path d="M21.5651 19.1304V17.0435H20.1739V14.2609L18.7826 12.8696L17.3913 14.2609V11.4782L16 10.0869L14.6086 11.4782V14.2609L13.2173 12.8696L11.826 14.2609V17.0435H10.4348V19.1304H9.04346V21.2174H22.9565V19.1304H21.5651Z" fill="#F0F0F0"/>
</g>
<defs>
<clipPath id="clip0_14537_61549">
<rect width="32" height="32" fill="white"/>
</clipPath>
</defs>
</svg>
