<svg width="32" height="32" viewBox="0 0 32 32" fill="none" xmlns="http://www.w3.org/2000/svg">
<g clip-path="url(#clip0_14537_61555)">
<path d="M22.9565 1.58763C20.853 0.5705 18.4931 0 16 0C13.5068 0 11.147 0.5705 9.04347 1.58763L7.65216 16L9.04347 30.4124C11.147 31.4295 13.5068 32 16 32C18.4931 32 20.853 31.4295 22.9565 30.4124L24.3478 16L22.9565 1.58763Z" fill="#D80027"/>
<path d="M15.9999 10.4348L17.3811 14.686H21.8516L18.2351 17.3138L19.6164 21.5652L15.9999 18.9376L12.3833 21.5652L13.7649 17.3138L10.1484 14.686H14.6186L15.9999 10.4348Z" fill="#FFDA44"/>
<path d="M9.0435 1.58819C3.69163 4.17606 0 9.65663 0 16C0 22.3434 3.69163 27.8239 9.0435 30.4118V1.58819Z" fill="#496E2D"/>
<path d="M22.9565 1.58819V30.4118C28.3084 27.8239 32 22.3433 32 16C32 9.65669 28.3084 4.17606 22.9565 1.58819Z" fill="#FFDA44"/>
</g>
<defs>
<clipPath id="clip0_14537_61555">
<rect width="32" height="32" fill="white"/>
</clipPath>
</defs>
</svg>
