<svg width="32" height="32" viewBox="0 0 32 32" fill="none" xmlns="http://www.w3.org/2000/svg">
<g clip-path="url(#clip0_14537_61570)">
<path d="M16 32C24.8366 32 32 24.8366 32 16C32 7.16344 24.8366 0 16 0C7.16344 0 0 7.16344 0 16C0 24.8366 7.16344 32 16 32Z" fill="#F0F0F0"/>
<path d="M16 32C20.8495 32 25.1947 29.8423 28.1288 26.4348H3.87122C6.8054 29.8423 11.1506 32 16 32Z" fill="#0052B4"/>
<path d="M32 16C32 7.1635 24.8365 0 16 0C7.1635 0 0 7.1635 0 16C0 17.4442 0.1925 18.8431 0.551188 20.1739H31.4489C31.8075 18.8431 32 17.4442 32 16Z" fill="#0052B4"/>
<path d="M1.27173 22.2609C1.58017 22.9856 1.94073 23.6826 2.34842 24.3478H29.6517C30.0592 23.6826 30.4198 22.9856 30.7284 22.2609H1.27173Z" fill="#D80027"/>
<path d="M11.437 17.0435L11.696 17.8406H12.5342L11.8561 18.3333L12.1151 19.1304L11.437 18.6378L10.7588 19.1304L11.0179 18.3333L10.3398 17.8406H11.178L11.437 17.0435Z" fill="#FFDA44"/>
<path d="M11.437 27.4783L11.696 28.2754H12.5342L11.8561 28.7681L12.1151 29.5652L11.437 29.0726L10.7588 29.5652L11.0179 28.7681L10.3398 28.2754H11.178L11.437 27.4783Z" fill="#FFDA44"/>
<path d="M6.57967 23.9493L6.83867 24.7464H7.67686L6.99879 25.239L7.25779 26.0362L6.57967 25.5436L5.90154 26.0362L6.16067 25.239L5.48254 24.7464H6.32067L6.57967 23.9493Z" fill="#FFDA44"/>
<path d="M8.43496 18.0869L8.69396 18.8841H9.53208L8.85408 19.3768L9.11308 20.1739L8.43496 19.6813L7.75683 20.1739L8.01596 19.3768L7.33777 18.8841H8.17596L8.43496 18.0869Z" fill="#FFDA44"/>
<path d="M5.48254 21.3697L6.32054 21.3697L6.57961 20.5724L6.83867 21.3697L7.67686 21.3696L6.99873 21.8623L7.25779 22.6595L6.57961 22.1668L5.90154 22.6593L6.16054 21.8622L5.48254 21.3697Z" fill="#FFDA44"/>
<path d="M7.75696 28.3694L8.01596 27.5724L7.33777 27.0798H8.17596L8.43502 26.2826L8.69408 27.0797H9.53221L8.85408 27.5724L9.11308 28.3696L8.43496 27.8769L7.75696 28.3694Z" fill="#FFDA44"/>
<path d="M16.2923 23.9493L16.0334 24.7464H15.1952L15.8732 25.239L15.6142 26.0362L16.2923 25.5436L16.9704 26.0362L16.7114 25.239L17.3895 24.7464H16.5513L16.2923 23.9493Z" fill="#FFDA44"/>
<path d="M14.4371 18.0869L14.1782 18.8841H13.34L14.018 19.3768L13.759 20.1739L14.4371 19.6813L15.1152 20.1739L14.8562 19.3768L15.5343 18.8841H14.6961L14.4371 18.0869Z" fill="#FFDA44"/>
<path d="M17.3895 21.3697L16.5514 21.3697L16.2924 20.5724L16.0334 21.3697L15.1952 21.3696L15.8733 21.8623L15.6142 22.6595L16.2924 22.1668L16.9704 22.6593L16.7114 21.8622L17.3895 21.3697Z" fill="#FFDA44"/>
<path d="M15.1151 28.3694L14.8562 27.5724L15.5343 27.0798H14.6961L14.437 26.2826L14.178 27.0797H13.3398L14.018 27.5724L13.759 28.3696L14.4371 27.8769L15.1151 28.3694Z" fill="#FFDA44"/>
</g>
<defs>
<clipPath id="clip0_14537_61570">
<rect width="32" height="32" fill="white"/>
</clipPath>
</defs>
</svg>
