<svg width="32" height="32" viewBox="0 0 32 32" fill="none" xmlns="http://www.w3.org/2000/svg">
<g clip-path="url(#clip0_14537_61587)">
<path d="M32 16C32 24.8365 24.8365 32 16 32C7.1635 32 0 24.8365 0 16C0 16.0038 16 0.00175 16 0C24.8365 0 32 7.1635 32 16Z" fill="#0052B4"/>
<path d="M15.9572 16H16C16 15.9856 16 15.9716 16 15.9572C15.9857 15.9715 15.9715 15.9857 15.9572 16Z" fill="#F0F0F0"/>
<path d="M16 8.34781C16 5.5325 16 3.68781 16 0H15.9973C7.16194 0.0015 0 7.16431 0 16H8.34781V11.2993L13.0485 16H15.9572C15.9715 15.9858 15.9858 15.9715 16.0001 15.9572C16.0001 14.8793 16.0001 13.9174 16.0001 13.0486L11.2992 8.34781H16Z" fill="#F0F0F0"/>
<path d="M22.9565 11.8261C24.4933 11.8261 25.7391 10.5803 25.7391 9.0435C25.7391 7.5067 24.4933 6.26087 22.9565 6.26087C21.4197 6.26087 20.1738 7.5067 20.1738 9.0435C20.1738 10.5803 21.4197 11.8261 22.9565 11.8261Z" fill="#6DA544"/>
<path d="M8.09466 2.08694C5.59223 3.51187 3.51179 5.59225 2.08691 8.09469V16H6.26085V6.261V6.26087H16C16 4.94444 16 3.69031 16 2.08694H8.09466Z" fill="#D80027"/>
<path d="M16 14.0324L10.3153 8.34788H8.34778V8.348L15.9998 16H16C16 16 16 14.6433 16 14.0324Z" fill="#D80027"/>
<path d="M18.0869 8.34781H27.826V12.5217H18.0869V8.34781Z" fill="#D80027"/>
<path d="M18.0869 18.7826V21.5652H19.5509C20.4287 22.4255 21.6303 22.9566 22.9565 22.9566C24.2827 22.9566 25.4842 22.4255 26.362 21.5652H26.4347H27.826V18.7826H18.0869Z" fill="#FFDA44"/>
<path d="M18.0869 11.8261V16C18.0869 19.7274 22.9565 20.8696 22.9565 20.8696C22.9565 20.8696 27.826 19.7274 27.826 16V11.8261H18.0869Z" fill="#338AF3"/>
<path d="M22.9563 14.0556C21.739 14.0556 21.739 15.1686 20.5217 15.1686C19.3043 15.1686 19.3043 14.0556 18.087 14.0556V16.0034C19.3043 16.0034 19.3043 17.1164 20.5217 17.1164C21.739 17.1164 21.739 16.0034 22.9563 16.0034C24.1737 16.0034 24.1737 17.1164 25.3912 17.1164C26.6087 17.1164 26.6087 16.0034 27.8262 16.0034V14.0556C26.6087 14.0556 26.6087 15.1686 25.3912 15.1686C24.1737 15.1686 24.1737 14.0556 22.9563 14.0556Z" fill="#F3F3F3"/>
<path d="M22.9563 10.1565C21.739 10.1565 21.739 11.2696 20.5217 11.2696C19.3043 11.2696 19.3043 10.1565 18.087 10.1565V12.1043C19.3043 12.1043 19.3043 13.2174 20.5217 13.2174C21.739 13.2174 21.739 12.1043 22.9563 12.1043C24.1737 12.1043 24.1737 13.2174 25.3912 13.2174C26.6087 13.2174 26.6087 12.1043 27.8262 12.1043V10.1565C26.6087 10.1565 26.6087 11.2696 25.3912 11.2696C24.1737 11.2696 24.1737 10.1565 22.9563 10.1565Z" fill="#F3F3F3"/>
</g>
<defs>
<clipPath id="clip0_14537_61587">
<rect width="32" height="32" fill="white"/>
</clipPath>
</defs>
</svg>
