<svg width="32" height="32" viewBox="0 0 32 32" fill="none" xmlns="http://www.w3.org/2000/svg">
<g clip-path="url(#clip0_14537_61621)">
<path d="M16 32C24.8366 32 32 24.8366 32 16C32 7.16344 24.8366 0 16 0C7.16344 0 0 7.16344 0 16C0 24.8366 7.16344 32 16 32Z" fill="#F0F0F0"/>
<path d="M16 0C11.5817 0 7.58172 1.79088 4.68628 4.68625L16 16V0Z" fill="black"/>
<path d="M0 16C0 20.4183 1.79088 24.4183 4.68625 27.3137L16 16H0Z" fill="black"/>
<path d="M16 32C20.4183 32 24.4183 30.2091 27.3137 27.3137L16 16V32Z" fill="black"/>
<path d="M32 16C32 11.5817 30.2091 7.58169 27.3137 4.68625L16 16H32Z" fill="black"/>
<path d="M10.4348 11.1304L16 11.8262L21.5652 11.1304V7.79131L19.3391 8.90437L16 5.56519L12.6609 8.90437L10.4348 7.79131V11.1304Z" fill="#FFDA44"/>
<path d="M16 24.3478C12.9313 24.3478 10.4348 21.8512 10.4348 18.7826V13.2177L12.5218 11.1306H19.4783L21.5652 13.2177V18.7826C21.5652 21.8512 19.0687 24.3478 16 24.3478Z" fill="#D80027"/>
<path d="M16 22.2609C14.082 22.2609 12.5217 20.7005 12.5217 18.7826V13.2175H19.4782V18.7826C19.4782 20.7005 17.9179 22.2609 16 22.2609Z" fill="#F0F0F0"/>
<path d="M10.4348 11.1304H12.5218V13.2174H10.4348V11.1304Z" fill="#FFDA44"/>
<path d="M19.4783 11.1304H21.5652V13.2174H19.4783V11.1304Z" fill="#FFDA44"/>
<path d="M19.4783 15.6522H21.5652V17.7391H19.4783V15.6522Z" fill="#FFDA44"/>
<path d="M10.4348 15.6522H12.5218V17.7391H10.4348V15.6522Z" fill="#FFDA44"/>
<path d="M16 22.2609C15.6365 22.2609 15.2861 22.2046 14.9565 22.1008V24.2483C15.2948 24.3128 15.6433 24.3479 16 24.3479C16.3568 24.3479 16.7053 24.3128 17.0435 24.2483V22.1008C16.714 22.2046 16.3635 22.2609 16 22.2609Z" fill="#FFDA44"/>
<path d="M12.5682 19.3473L10.9027 21.0128C11.1915 21.6702 11.6035 22.2614 12.1098 22.757L13.5848 21.282C13.0585 20.7734 12.6918 20.1009 12.5682 19.3473Z" fill="#FFDA44"/>
<path d="M21.0972 21.0129L19.4317 19.3474C19.3081 20.101 18.9415 20.7734 18.4152 21.2822L19.8902 22.7572C20.3964 22.2615 20.8085 21.6703 21.0972 21.0129Z" fill="#FFDA44"/>
<path d="M15.3044 14.3769V15.5363C15.3044 15.9204 15.6159 16.2319 16.0001 16.2319C16.3843 16.2319 16.6957 15.9204 16.6957 15.5363V14.3769H15.3044Z" fill="#0052B4"/>
<path d="M15.3044 19.0146V20.1739C15.3044 20.5581 15.6159 20.8696 16.0001 20.8696C16.3843 20.8696 16.6957 20.5581 16.6957 20.1739V19.0146H15.3044Z" fill="#0052B4"/>
<path d="M17.3914 16.6956V17.8551C17.3914 18.2393 17.7028 18.5508 18.087 18.5508C18.4712 18.5508 18.7826 18.2393 18.7826 17.8551V16.6956H17.3914Z" fill="#0052B4"/>
<path d="M15.3044 16.6956V17.8551C15.3044 18.2393 15.6159 18.5508 16.0001 18.5508C16.3843 18.5508 16.6957 18.2393 16.6957 17.8551V16.6956H15.3044Z" fill="#0052B4"/>
<path d="M13.2174 16.6956V17.8551C13.2174 18.2393 13.5288 18.5508 13.913 18.5508C14.2972 18.5508 14.6087 18.2393 14.6087 17.8551V16.6956H13.2174Z" fill="#0052B4"/>
</g>
<defs>
<clipPath id="clip0_14537_61621">
<rect width="32" height="32" fill="white"/>
</clipPath>
</defs>
</svg>
