<svg width="32" height="32" viewBox="0 0 32 32" fill="none" xmlns="http://www.w3.org/2000/svg">
<g clip-path="url(#clip0_14537_61644)">
<path d="M16 0C14.0429 0 12.1681 0.352063 10.4348 0.995188L9.73914 16L10.4348 31.0048C12.1681 31.648 14.0429 32 16 32C17.9571 32 19.8319 31.648 21.5652 31.0048L22.2609 16L21.5653 0.995188C19.8319 0.352063 17.9571 0 16 0V0Z" fill="#FFDA44"/>
<path d="M32 16C32 9.12057 27.658 3.25588 21.5652 0.995193V31.0049C27.658 28.7441 32 22.8794 32 16Z" fill="#D80027"/>
<path d="M10.4348 31.0048V0.995193C4.342 3.25588 0 9.12057 0 16C0 22.8794 4.342 28.7441 10.4348 31.0048Z" fill="#0052B4"/>
</g>
<defs>
<clipPath id="clip0_14537_61644">
<rect width="32" height="32" fill="white"/>
</clipPath>
</defs>
</svg>
