<svg width="32" height="32" viewBox="0 0 32 32" fill="none" xmlns="http://www.w3.org/2000/svg">
<g clip-path="url(#clip0_14537_61653)">
<path d="M16 32C24.8366 32 32 24.8366 32 16C32 7.16344 24.8366 0 16 0C7.16344 0 0 7.16344 0 16C0 24.8366 7.16344 32 16 32Z" fill="#D80027"/>
<path d="M8.75625 9.73749L10.1375 13.9875H14.6062L10.9937 16.6187L12.375 20.8687L8.75625 18.2437L5.1375 20.8687L6.525 16.6187L2.90625 13.9875H7.375L8.75625 9.73749Z" fill="#FFDA44"/>
<path d="M18.9687 24.7812L17.9125 23.4812L16.35 24.0875L17.2562 22.6812L16.2 21.375L17.8187 21.8062L18.7312 20.4L18.8187 22.075L20.4437 22.5062L18.875 23.1062L18.9687 24.7812Z" fill="#FFDA44"/>
<path d="M21.0687 20.9687L21.5687 19.3687L20.2 18.4L21.875 18.375L22.3687 16.775L22.9125 18.3625L24.5875 18.3437L23.2437 19.3437L23.7812 20.9312L22.4125 19.9625L21.0687 20.9687Z" fill="#FFDA44"/>
<path d="M23.9 11.7437L23.1625 13.25L24.3625 14.4187L22.7063 14.1812L21.9688 15.6812L21.6813 14.0312L20.0188 13.7937L21.5063 13.0125L21.2188 11.3562L22.4188 12.525L23.9 11.7437Z" fill="#FFDA44"/>
<path d="M19.0125 7.18124L18.8875 8.84999L20.4438 9.48125L18.8125 9.88124L18.6938 11.5562L17.8125 10.1312L16.1813 10.5312L17.2625 9.24999L16.375 7.83124L17.9313 8.46249L19.0125 7.18124Z" fill="#FFDA44"/>
</g>
<defs>
<clipPath id="clip0_14537_61653">
<rect width="32" height="32" fill="white"/>
</clipPath>
</defs>
</svg>
