<svg width="32" height="32" viewBox="0 0 32 32" fill="none" xmlns="http://www.w3.org/2000/svg">
<g clip-path="url(#clip0_14537_61661)">
<path d="M16 32C24.8366 32 32 24.8366 32 16C32 7.16344 24.8366 0 16 0C7.16344 0 0 7.16344 0 16C0 24.8366 7.16344 32 16 32Z" fill="#6DA544"/>
<path d="M24.5615 22.9565L25.0006 23.8746L25.9921 23.6455L25.5481 24.5611L26.3454 25.1934L25.3526 25.4171L25.3555 26.4348L24.5615 25.7981L23.7676 26.4348L23.7704 25.4171L22.7777 25.1934L23.575 24.5611L23.131 23.6455L24.1225 23.8746L24.5615 22.9565Z" fill="#FFDA44"/>
<path d="M20.477 13.2174L20.9162 14.1354L21.9077 13.9063L21.4636 14.822L22.2609 15.4543L21.2682 15.678L21.271 16.6956L20.477 16.059L19.6832 16.6956L19.6859 15.678L18.6932 15.4543L19.4905 14.822L19.0465 13.9063L20.038 14.1354L20.477 13.2174Z" fill="#FFDA44"/>
<path d="M24.5615 7.65219L25.0005 8.57025L25.992 8.341L25.5481 9.25675L26.3453 9.88907L25.3526 10.1128L25.3553 11.1304L24.5615 10.4938L23.7676 11.1304L23.7703 10.1128L22.7777 9.88907L23.575 9.25675L23.131 8.341L24.1224 8.57025L24.5615 7.65219Z" fill="#FFDA44"/>
<path d="M28.1291 11.8261L28.5682 12.7441L29.5598 12.5149L29.1157 13.4307L29.913 14.0629L28.9203 14.2867L28.9231 15.3044L28.1291 14.6677L27.3353 15.3044L27.338 14.2867L26.3453 14.0629L27.1426 13.4307L26.6986 12.5149L27.6901 12.7441L28.1291 11.8261Z" fill="#FFDA44"/>
<path d="M25.5781 16.6956L25.9235 17.7586H27.0411L26.1369 18.4154L26.4824 19.4783L25.5781 18.8214L24.674 19.4783L25.0194 18.4154L24.1152 17.7586H25.2328L25.5781 16.6956Z" fill="#FFDA44"/>
<path d="M17.7392 20.5218C15.2419 20.5218 13.2174 18.4973 13.2174 16C13.2174 13.5028 15.2418 11.4783 17.7392 11.4783C18.5178 11.4783 19.2505 11.6752 19.8901 12.0218C18.8867 11.0404 17.5145 10.4348 15.9999 10.4348C12.9264 10.4348 10.4348 12.9264 10.4348 15.9999C10.4348 19.0735 12.9264 21.5651 15.9999 21.5651C17.5144 21.5651 18.8867 20.9595 19.8901 19.9781C19.2505 20.3248 18.5178 20.5218 17.7392 20.5218Z" fill="#FFDA44"/>
<path d="M10.0617 6.26088C9.58042 5.42938 8.68198 4.86957 7.65224 4.86957C6.62249 4.86957 5.72405 5.42938 5.2428 6.26088H10.0617Z" fill="#FFDA44"/>
<path d="M10.0709 6.27695L7.65219 8.69563L5.2335 6.27695C5.00232 6.68263 4.86963 7.15182 4.86963 7.6522C4.86963 9.18901 6.11544 10.4348 7.65225 10.4348C9.18907 10.4348 10.4349 9.18907 10.4349 7.6522C10.4348 7.15182 10.3021 6.68263 10.0709 6.27695Z" fill="#FFDA44"/>
<path d="M6.95654 8V10.3471C7.17886 10.4043 7.41198 10.4347 7.65217 10.4347C7.89236 10.4347 8.12548 10.4043 8.34779 10.3471V8H6.95654Z" fill="#A2001D"/>
</g>
<defs>
<clipPath id="clip0_14537_61661">
<rect width="32" height="32" fill="white"/>
</clipPath>
</defs>
</svg>
