<svg width="32" height="32" viewBox="0 0 32 32" fill="none" xmlns="http://www.w3.org/2000/svg">
<g clip-path="url(#clip0_14537_61677)">
<path d="M16 32C24.8366 32 32 24.8366 32 16C32 7.16344 24.8366 0 16 0C7.16344 0 0 7.16344 0 16C0 24.8366 7.16344 32 16 32Z" fill="#F0F0F0"/>
<path d="M31.9995 15.9537H14.6551C11.2116 19.3973 9.12918 22.0559 7.00293 24.1821L16.0464 24.9971L30.0798 23.6058C31.3045 21.3436 32.0001 18.7531 32.0001 16C32.0001 15.9845 31.9995 15.9692 31.9995 15.9537Z" fill="#D80027"/>
<path d="M7.00289 8.3015H30.0286C27.3075 3.3535 22.0456 0 16 0C11.5934 0 7.60364 1.78194 4.71021 4.664L7.00289 8.3015Z" fill="#FFDA44"/>
<path d="M7.69851 23.6058C6.26014 25.0442 5.70426 26.2493 4.66357 27.2899C7.56076 30.1991 11.5698 32 16 32C22.0835 32 27.3737 28.6047 30.0798 23.6058H7.69851Z" fill="#0052B4"/>
<path d="M4.68628 4.63994C-1.56209 10.8883 -1.56209 21.019 4.68628 27.2674C7.26834 24.6854 9.75166 22.2021 16 15.9537L4.68628 4.63994Z" fill="#6DA544"/>
<path d="M4.2203 15.9537C4.2203 13.6226 5.85861 11.6751 8.04636 11.1974C7.71011 11.1239 7.36124 11.0841 7.00286 11.0841C4.31343 11.0841 2.1333 13.2642 2.1333 15.9537C2.1333 18.6431 4.31343 20.8232 7.00286 20.8232C7.36118 20.8232 7.71005 20.7834 8.04636 20.71C5.85861 20.2322 4.2203 18.2848 4.2203 15.9537Z" fill="#F0F0F0"/>
<path d="M7.9927 11.7798L8.25176 12.5769H9.08988L8.41176 13.0696L8.67082 13.8667L7.9927 13.3741L7.31457 13.8667L7.57363 13.0696L6.89551 12.5769H7.73363L7.9927 11.7798Z" fill="#F0F0F0"/>
<path d="M7.9927 13.8667L8.25176 14.6639H9.08988L8.41176 15.1565L8.67082 15.9537L7.9927 15.461L7.31457 15.9537L7.57363 15.1565L6.89551 14.6639H7.73363L7.9927 13.8667Z" fill="#F0F0F0"/>
<path d="M7.9927 15.9537L8.25176 16.7508H9.08988L8.41176 17.2435L8.67082 18.0406L7.9927 17.5479L7.31457 18.0406L7.57363 17.2435L6.89551 16.7508H7.73363L7.9927 15.9537Z" fill="#F0F0F0"/>
<path d="M7.9927 18.0406L8.25176 18.8377H9.08988L8.41176 19.3304L8.67082 20.1276L7.9927 19.6349L7.31457 20.1276L7.57363 19.3304L6.89551 18.8377H7.73363L7.9927 18.0406Z" fill="#F0F0F0"/>
</g>
<defs>
<clipPath id="clip0_14537_61677">
<rect width="32" height="32" fill="white"/>
</clipPath>
</defs>
</svg>
