<svg width="32" height="32" viewBox="0 0 32 32" fill="none" xmlns="http://www.w3.org/2000/svg">
<g clip-path="url(#clip0_14537_61689)">
<path d="M32 16C32 24.8365 24.8365 32 16 32C7.1635 32 0 24.8365 0 16C0 16.0038 16 0.00175 16 0C24.8365 0 32 7.1635 32 16Z" fill="#0052B4"/>
<path d="M15.9572 16H16C16 15.9856 16 15.9716 16 15.9572C15.9857 15.9715 15.9715 15.9857 15.9572 16Z" fill="#F0F0F0"/>
<path d="M16 8.34781C16 5.5325 16 3.68781 16 0H15.9973C7.16194 0.0015 0 7.16431 0 16H8.34781V11.2993L13.0485 16H15.9572C15.9715 15.9858 15.9858 15.9715 16.0001 15.9572C16.0001 14.8793 16.0001 13.9174 16.0001 13.0486L11.2992 8.34781H16Z" fill="#F0F0F0"/>
<path d="M8.09466 2.08694C5.59223 3.51188 3.51179 5.59226 2.08691 8.09469V16H6.26085V6.26101V6.26088H16C16 4.94444 16 3.69032 16 2.08694H8.09466Z" fill="#D80027"/>
<path d="M16 14.0324L10.3153 8.34789H8.34778V8.34801L15.9998 16H16C16 16 16 14.6433 16 14.0324Z" fill="#D80027"/>
<path d="M21.5652 16L21.8613 16.911H22.8192L22.0443 17.474L22.3403 18.3851L21.5652 17.822L20.7903 18.3851L21.0863 17.474L20.3114 16.911H21.2692L21.5652 16Z" fill="#F0F0F0"/>
<path d="M17.6301 17.6301L18.4835 18.0649L19.1609 17.3876L19.011 18.3337L19.8645 18.7686L18.9184 18.9183L18.7686 19.8646L18.3336 19.011L17.3876 19.1609L18.065 18.4836L17.6301 17.6301Z" fill="#F0F0F0"/>
<path d="M16 21.5652L16.911 21.2692L16.9111 20.3114L17.474 21.0862L18.3851 20.7902L17.822 21.5652L18.3851 22.3402L17.474 22.0442L16.9111 22.8191V21.8613L16 21.5652Z" fill="#F0F0F0"/>
<path d="M17.6301 25.5004L18.0649 24.6469L17.3876 23.9696L18.3337 24.1194L18.7686 23.2659L18.9184 24.2121L19.8645 24.3618L19.011 24.7967L19.1609 25.7429L18.4835 25.0654L17.6301 25.5004Z" fill="#F0F0F0"/>
<path d="M21.5652 27.1304L21.2692 26.2194H20.3113L21.0862 25.6564L20.7902 24.7454L21.5652 25.3084L22.3402 24.7454L22.0442 25.6564L22.8191 26.2194H21.8613L21.5652 27.1304Z" fill="#F0F0F0"/>
<path d="M25.5004 25.5004L24.6469 25.0656L23.9697 25.7429L24.1195 24.7967L23.266 24.3619L24.2121 24.2121L24.362 23.2659L24.7968 24.1194L25.7429 23.9696L25.0655 24.6469L25.5004 25.5004Z" fill="#F0F0F0"/>
<path d="M27.1304 21.5652L26.2194 21.8613V22.8191L25.6564 22.0442L24.7454 22.3402L25.3084 21.5652L24.7454 20.7902L25.6564 21.0862L26.2194 20.3114V21.2692L27.1304 21.5652Z" fill="#F0F0F0"/>
<path d="M25.5004 17.6301L25.0657 18.4836L25.7429 19.1609L24.7968 19.011L24.362 19.8646L24.2121 18.9183L23.266 18.7685L24.1195 18.3337L23.9697 17.3876L24.647 18.0649L25.5004 17.6301Z" fill="#F0F0F0"/>
</g>
<defs>
<clipPath id="clip0_14537_61689">
<rect width="32" height="32" fill="white"/>
</clipPath>
</defs>
</svg>
