<svg width="32" height="32" viewBox="0 0 32 32" fill="none" xmlns="http://www.w3.org/2000/svg">
<g clip-path="url(#clip0_14537_61707)">
<path d="M16 32C24.8366 32 32 24.8366 32 16C32 7.16344 24.8366 0 16 0C7.16344 0 0 7.16344 0 16C0 24.8366 7.16344 32 16 32Z" fill="#FCFCFC"/>
<path d="M21.571 13.5521C21.571 10.1681 18.8278 7.42488 15.4439 7.42488C12.9467 7.42488 10.8 8.91926 9.84554 11.062L9.08985 13.8017L9.78548 14.4973L8.39417 17.2799L9.78548 17.9756L9.08985 18.6712V19.3668L9.78548 20.0624V21.4538L10.4811 22.1494L12.568 21.4538C12.568 21.4538 12.568 22.1494 13.2637 22.8451C13.9593 23.5407 14.655 24.9321 14.655 24.9321C14.655 24.9321 16.742 25.6277 18.1333 23.5408C19.5246 21.4538 20.9159 20.7581 20.9159 20.7581L19.5749 18.076C20.8013 16.9558 21.571 15.3441 21.571 13.5521Z" fill="black"/>
<path d="M22.0704 15.8951C24.8972 15.4183 25.3681 9.88293 25.3681 9.88293H21.4725C23.4898 14.7525 21.3783 15.0801 21.3783 15.0801C21.0922 14.8672 10.8548 10.0175 10.5303 9.89419C10.4522 9.99881 10.1644 10.2736 9.81448 11.1292C9.46454 11.9849 9.37866 12.7546 9.37866 12.7546C9.54254 12.8614 20.4146 16.6577 20.702 16.6894C21.2723 17.0622 21.974 18.1773 21.5818 21.4834L25.3315 20.4267C25.3316 20.4267 24.059 17.0415 22.0704 15.8951Z" fill="#ACABB1"/>
</g>
<defs>
<clipPath id="clip0_14537_61707">
<rect width="32" height="32" fill="white"/>
</clipPath>
</defs>
</svg>
