<svg width="32" height="32" viewBox="0 0 32 32" fill="none" xmlns="http://www.w3.org/2000/svg">
<g clip-path="url(#clip0_14537_61742)">
<path d="M15.9999 31.9999C24.8365 31.9999 31.9999 24.8365 31.9999 16C31.9999 7.16348 24.8365 6.10352e-05 15.9999 6.10352e-05C7.16342 6.10352e-05 0 7.16348 0 16C0 24.8365 7.16342 31.9999 15.9999 31.9999Z" fill="#F0F0F0"/>
<path d="M16 0.00012207C10.7655 0.00012207 6.1184 2.51406 3.19934 6.40012H28.8007C25.8817 2.514 21.2345 0.00012207 16 0.00012207Z" fill="#0052B4"/>
<path d="M16 31.9999C21.2345 31.9999 25.8817 29.486 28.8007 25.5999H3.19934C6.11834 29.4861 10.7655 31.9999 16 31.9999Z" fill="#0052B4"/>
<path d="M0 16C0 17.096 0.1105 18.1661 0.320437 19.2H31.6796C31.8896 18.1661 32 17.096 32 16C32 14.9041 31.8895 13.834 31.6796 12.8H0.320437C0.1105 13.834 0 14.9041 0 16Z" fill="#0052B4"/>
<path d="M4.68636 4.68637C-1.56196 10.9347 -1.56196 21.0654 4.68636 27.3138C7.26842 24.7317 9.75167 22.2484 16 16.0001L4.68636 4.68637Z" fill="#D80027"/>
<path d="M6.47572 11.8262L7.5116 15.0146H10.8645L8.15216 16.9854L9.18804 20.1739L6.47572 18.2032L3.76329 20.1739L4.79941 16.9854L2.08704 15.0146H5.43966L6.47572 11.8262Z" fill="#F0F0F0"/>
</g>
<defs>
<clipPath id="clip0_14537_61742">
<rect width="32" height="32" fill="white"/>
</clipPath>
</defs>
</svg>
