<svg width="32" height="32" viewBox="0 0 32 32" fill="none" xmlns="http://www.w3.org/2000/svg">
<g clip-path="url(#clip0_14537_61759)">
<path d="M16 32C24.8366 32 32 24.8366 32 16C32 7.16344 24.8366 0 16 0C7.16344 0 0 7.16344 0 16C0 24.8366 7.16344 32 16 32Z" fill="#FCFCFC"/>
<path d="M25.0435 13.9131C24.5566 13.9131 23.9537 13.9131 22.9566 13.9131C22.9566 17.7551 19.842 20.8696 16.0001 20.8696C12.158 20.8696 9.0436 17.7551 9.0436 13.9131C8.3711 13.9131 7.62904 13.9131 6.95667 13.9131C6.95667 18.0515 9.73642 21.5407 13.5308 22.6152C13.1148 23.4055 13.1782 24.4004 13.7724 25.142C14.5529 24.5164 15.361 23.8689 16.0465 23.3196C16.732 23.8689 17.5401 24.5165 18.3205 25.142C18.9207 24.3931 18.9797 23.3855 18.5499 22.5914C22.3027 21.4905 25.0435 18.0221 25.0435 13.9131Z" fill="#6DA544"/>
<path d="M10.4348 13.2174C10.4348 13.2174 10.4348 16.6956 13.9131 16.6956L14.6087 17.3912H16C16 17.3912 16.6956 15.3043 18.0869 15.3043C18.0869 15.3043 18.0869 13.913 19.4783 13.913C20.8696 13.913 21.5652 13.913 21.5652 13.913C21.5652 13.913 20.8696 11.1304 24.3478 9.04343L22.9565 8.34781C22.9565 8.34781 18.0869 11.8261 14.6087 11.1304V12.5217H13.2174L12.5218 11.8261L10.4348 13.2174Z" fill="#FFDA44"/>
</g>
<defs>
<clipPath id="clip0_14537_61759">
<rect width="32" height="32" fill="white"/>
</clipPath>
</defs>
</svg>
