<svg width="32" height="32" viewBox="0 0 32 32" fill="none" xmlns="http://www.w3.org/2000/svg">
<g clip-path="url(#clip0_14537_61767)">
<path d="M30.2234 8.66348C29.484 7.23105 28.515 5.88655 27.3142 4.6858C26.1134 3.48498 24.7689 2.51592 23.3365 1.77667L12.0647 12.0645L1.77673 23.3364C2.51605 24.7688 3.48511 26.1134 4.68586 27.3141C5.88661 28.5149 7.23117 29.4839 8.66355 30.2232L19.9354 19.9353L30.2234 8.66348Z" fill="#FFDA44"/>
<path d="M4.68591 27.3142C5.3571 27.9854 6.07329 28.584 6.82447 29.1111L29.111 6.82444C28.584 6.07325 27.9854 5.35707 27.3142 4.68588C26.643 4.01469 25.9268 3.41613 25.1757 2.88913L2.88916 25.1756C3.4161 25.9267 4.01466 26.643 4.68591 27.3142Z" fill="#D80027"/>
<path d="M4.68576 4.68584C-0.362177 9.73378 -1.33124 17.3149 1.77664 23.3365L23.3364 1.77677C17.3148 -1.33104 9.73363 -0.361851 4.68576 4.68584Z" fill="#338AF3"/>
<path d="M27.3141 27.3142C32.362 22.2663 33.331 14.6852 30.2233 8.66364L8.66357 30.2233C14.6851 33.3311 22.2663 32.3621 27.3141 27.3142Z" fill="#338AF3"/>
<path d="M8.52664 4.86905L9.39002 7.52636H12.184L9.92364 9.16861L10.787 11.8259L8.52664 10.1835L6.26614 11.8259L7.12964 9.16861L4.86914 7.52636H7.66314L8.52664 4.86905Z" fill="#FFDA44"/>
</g>
<defs>
<clipPath id="clip0_14537_61767">
<rect width="32" height="32" fill="white"/>
</clipPath>
</defs>
</svg>
