<svg width="32" height="32" viewBox="0 0 32 32" fill="none" xmlns="http://www.w3.org/2000/svg">
<g clip-path="url(#clip0_14537_61774)">
<path d="M16 32C24.8366 32 32 24.8366 32 16C32 7.16344 24.8366 0 16 0C7.16344 0 0 7.16344 0 16C0 24.8366 7.16344 32 16 32Z" fill="#F0F0F0"/>
<path d="M12.5219 13.9131H31.8647C30.842 6.06262 24.1293 0 16.0001 0C14.8054 0 13.6419 0.132063 12.5219 0.380313V13.9131H12.5219Z" fill="#D80027"/>
<path d="M8.34787 13.913V1.94543C3.95456 4.34256 0.809436 8.7395 0.135498 13.9131H8.34787V13.913Z" fill="#D80027"/>
<path d="M8.34781 18.0869H0.135498C0.809436 23.2605 3.95456 27.6574 8.34787 30.0545L8.34781 18.0869Z" fill="#D80027"/>
<path d="M12.5219 18.087V31.6197C13.6419 31.8679 14.8054 32 16.0001 32C24.1293 32 30.842 25.9374 31.8647 18.0869H12.5219V18.087Z" fill="#D80027"/>
</g>
<defs>
<clipPath id="clip0_14537_61774">
<rect width="32" height="32" fill="white"/>
</clipPath>
</defs>
</svg>
