<svg width="32" height="32" viewBox="0 0 32 32" fill="none" xmlns="http://www.w3.org/2000/svg">
<g clip-path="url(#clip0_14537_61781)">
<path d="M14.6087 17.3913C14.6087 17.3913 4.69565 4.68406 4.68628 4.68631C7.58165 1.79088 11.5817 0 16 0C24.8365 0 32 7.1635 32 16L14.6087 17.3913Z" fill="#338AF3"/>
<path d="M14.6087 16C14.6087 16 4.69565 27.3159 4.68628 27.3137C7.58165 30.2091 11.5817 32 16 32C24.8365 32 32 24.8365 32 16H14.6087Z" fill="#6DA544"/>
<path d="M4.68628 4.68625C-1.56209 10.9346 -1.56209 21.0653 4.68628 27.3137C7.26834 24.7317 9.75166 22.2484 16 16L4.68628 4.68625Z" fill="#F0F0F0"/>
<path d="M6.4756 11.826L7.51154 15.0146H10.8644L8.15204 16.9853L9.18791 20.1739L6.4756 18.2032L3.76316 20.1739L4.79929 16.9853L2.08691 15.0146H5.43954L6.4756 11.826Z" fill="#D80027"/>
</g>
<defs>
<clipPath id="clip0_14537_61781">
<rect width="32" height="32" fill="white"/>
</clipPath>
</defs>
</svg>
