<svg width="32" height="32" viewBox="0 0 32 32" fill="none" xmlns="http://www.w3.org/2000/svg">
<g clip-path="url(#clip0_14537_61786)">
<path d="M16 32C24.8366 32 32 24.8366 32 16C32 7.16344 24.8366 0 16 0C7.16344 0 0 7.16344 0 16C0 24.8366 7.16344 32 16 32Z" fill="#F0F0F0"/>
<path d="M19.1304 31.6929C25.4556 30.4382 30.4382 25.4556 31.6929 19.1304H19.1304V31.6929Z" fill="#496E2D"/>
<path d="M0.307068 19.1304C1.56176 25.4556 6.54438 30.4382 12.8696 31.6929V19.1304H0.307068Z" fill="#496E2D"/>
<path d="M31.6929 12.8696C30.4382 6.54444 25.4556 1.56182 19.1304 0.307068V12.8696H31.6929Z" fill="#496E2D"/>
<path d="M12.8696 0.307068C6.54438 1.56182 1.56176 6.54444 0.307068 12.8696H12.8696V0.307068Z" fill="#496E2D"/>
<path d="M14.9565 19.1304H12.8696V31.6929C13.5506 31.828 14.2473 31.9195 14.9565 31.9652V19.1304Z" fill="#FFDA44"/>
<path d="M14.9565 12.8696V0.0348206C14.2473 0.0804456 13.5506 0.172008 12.8696 0.307071V12.8696H14.9565Z" fill="#FFDA44"/>
<path d="M17.0435 0.0348125C16.6984 0.0125 16.3507 0 16 0C15.6493 0 15.3016 0.0125 14.9565 0.0348125V12.8696H17.0434V0.0348125H17.0435Z" fill="black"/>
<path d="M14.9565 31.9652C15.3016 31.9875 15.6493 32 16 32C16.3507 32 16.6984 31.9875 17.0435 31.9652V19.1304H14.9565V31.9652H14.9565Z" fill="black"/>
<path d="M12.8695 14.9565V12.8696H0.30704C0.171915 13.5507 0.080415 14.2473 0.03479 14.9565H12.8695Z" fill="#FFDA44"/>
<path d="M19.1304 14.9565H31.9652C31.9196 14.2473 31.8281 13.5507 31.693 12.8696H19.1305V14.9565H19.1304Z" fill="#FFDA44"/>
<path d="M19.1304 17.0435H31.9652C31.9875 16.6985 32 16.3507 32 16C32 15.6493 31.9875 15.3016 31.9652 14.9565H19.1304V17.0435Z" fill="black"/>
<path d="M0.0348125 14.9565C0.0125625 15.3016 0 15.6493 0 16C0 16.3507 0.0125625 16.6985 0.0348125 17.0435H12.8696V14.9566H0.0348125V14.9565Z" fill="black"/>
<path d="M16 23.6522C20.2262 23.6522 23.6522 20.2262 23.6522 16C23.6522 11.7738 20.2262 8.34781 16 8.34781C11.7738 8.34781 8.34784 11.7738 8.34784 16C8.34784 20.2262 11.7738 23.6522 16 23.6522Z" fill="#D80027"/>
<path d="M17.7434 16.8538C17.1742 15.7154 16.4344 14.5617 16.4344 14.5617C16.4344 14.5617 16.4527 14.0364 16.4527 13.7234C16.4527 13.2519 16.0705 12.8696 15.599 12.8696C15.1523 12.8696 14.7863 13.2128 14.749 13.6498C14.3977 13.6727 14.1198 13.9641 14.1198 14.3211C14.1198 14.5806 14.2669 14.8056 14.4821 14.918C14.5891 14.6678 14.7986 14.4724 15.0577 14.3833C15.1 14.4179 15.1454 14.4488 15.1938 14.4749L15.3032 14.5273C15.3032 14.5273 14.8976 15.6705 14.8976 16.2846C14.8976 18.0111 16.036 18.5436 16.036 18.5436V18.5614L15.4668 19.1305H16.6051V17.9921L17.1743 18.5613C17.1793 18.5506 18.2524 17.8719 17.7434 16.8538Z" fill="#496E2D"/>
<path d="M16 9.73914L16.259 10.5363H17.0971L16.419 11.0289L16.6781 11.8261L16 11.3334L15.3218 11.8261L15.5809 11.0289L14.9028 10.5363H15.741L16 9.73914Z" fill="#496E2D"/>
<path d="M12.3199 10.9349L12.9979 11.4276L13.6761 10.9348L13.4171 11.7321L14.0952 12.2246L13.257 12.2247L12.998 13.0218L12.7389 12.2247L11.9008 12.2246L12.5789 11.7319L12.3199 10.9349Z" fill="#496E2D"/>
<path d="M10.0455 14.0653H10.8836L11.1427 13.2682L11.4017 14.0653L12.2398 14.0653L11.5618 14.558L11.8208 15.3551L11.1427 14.8624L10.4646 15.3551L10.7235 14.5579L10.0455 14.0653Z" fill="#496E2D"/>
<path d="M10.0455 17.9347L10.7235 17.4421L10.4645 16.645L11.1427 17.1376L11.8208 16.645L11.5618 17.4421L12.2399 17.9348L11.4017 17.9348L11.1427 18.7319L10.8836 17.9347H10.0455Z" fill="#496E2D"/>
<path d="M12.3199 21.0651L12.5789 20.2681L11.9008 19.7755H12.7389L12.998 18.9783L13.257 19.7754H14.0952L13.4171 20.2681L13.6761 21.0652L12.9979 20.5725L12.3199 21.0651Z" fill="#496E2D"/>
<path d="M16 22.2609L15.741 21.4639H14.9028L15.5809 20.9711L15.3218 20.174L16 20.6666L16.678 20.174L16.419 20.9711L17.0971 21.4638L16.259 21.4639L16 22.2609Z" fill="#496E2D"/>
<path d="M19.68 21.0651L19.002 20.5725L18.3239 21.0653L18.5828 20.2681L17.9047 19.7755L18.7429 19.7754L19.0018 18.9783L19.261 19.7755H20.0991L19.421 20.2681L19.68 21.0651Z" fill="#496E2D"/>
<path d="M21.9544 17.9347H21.1163L20.8573 18.7319L20.5983 17.9348H19.76L20.4381 17.4421L20.1791 16.645L20.8573 17.1376L21.5353 16.645L21.2764 17.4421L21.9544 17.9347Z" fill="#496E2D"/>
<path d="M21.9544 14.0653L21.2764 14.5579L21.5353 15.3551L20.8573 14.8624L20.1791 15.3552L20.4381 14.558L19.76 14.0654L20.5983 14.0652L20.8572 13.2682L21.1163 14.0653H21.9544Z" fill="#496E2D"/>
<path d="M19.68 10.9349L19.421 11.7319L20.0991 12.2246H19.261L19.002 13.0218L18.7429 12.2247L17.9047 12.2248L18.5828 11.7319L18.3238 10.9349L19.002 11.4275L19.68 10.9349Z" fill="#496E2D"/>
</g>
<defs>
<clipPath id="clip0_14537_61786">
<rect width="32" height="32" fill="white"/>
</clipPath>
</defs>
</svg>
