<svg width="32" height="32" viewBox="0 0 32 32" fill="none" xmlns="http://www.w3.org/2000/svg">
<g clip-path="url(#clip0_14537_61816)">
<path d="M16 32C24.8366 32 32 24.8366 32 16C32 7.16344 24.8366 0 16 0C7.16344 0 0 7.16344 0 16C0 24.8366 7.16344 32 16 32Z" fill="#F0F0F0"/>
<path d="M0.551147 20.174C2.02852 25.6554 6.34458 29.9715 11.8261 31.4489V20.174H0.551147Z" fill="#D80027"/>
<path d="M11.826 0.551178C6.34458 2.02849 2.02846 6.34461 0.551147 11.8261H11.8261V0.551178H11.826Z" fill="#0052B4"/>
<path d="M31.4488 11.8261C29.9715 6.34461 25.6554 2.02849 20.174 0.551178V11.8261H31.4488V11.8261Z" fill="#D80027"/>
<path d="M20.174 31.4488C25.6554 29.9715 29.9715 25.6554 31.4489 20.1739H20.174V31.4488Z" fill="#0052B4"/>
<path d="M20.1739 16C20.1739 18.3052 18.3052 20.1739 16 20.1739C13.6948 20.1739 11.826 18.3052 11.826 16C11.826 13.6947 16 11.826 16 11.826C16 11.826 20.1739 13.6947 20.1739 16Z" fill="#496E2D"/>
<path d="M11.826 16C11.826 13.6947 13.6948 11.826 16 11.826C18.3052 11.826 20.1739 13.6947 20.1739 16" fill="#0052B4"/>
<path d="M13.6522 13.9131V16.5217C13.6522 17.8184 14.7033 18.8696 16 18.8696C17.2967 18.8696 18.3478 17.8184 18.3478 16.5217V13.9131H13.6522Z" fill="#D80027"/>
</g>
<defs>
<clipPath id="clip0_14537_61816">
<rect width="32" height="32" fill="white"/>
</clipPath>
</defs>
</svg>
