<svg width="32" height="32" viewBox="0 0 32 32" fill="none" xmlns="http://www.w3.org/2000/svg">
<g clip-path="url(#clip0_14537_61825)">
<path d="M16 32C24.8366 32 32 24.8366 32 16C32 7.16344 24.8366 0 16 0C7.16344 0 0 7.16344 0 16C0 24.8366 7.16344 32 16 32Z" fill="#FFDA44"/>
<path d="M15.9999 0C12.0826 0 8.49475 1.40856 5.71338 3.74587L22.9564 16L5.71338 28.2541C8.49475 30.5914 12.0826 32 15.9999 32C24.8364 32 31.9999 24.8365 31.9999 16C31.9999 7.1635 24.8364 0 15.9999 0Z" fill="#D80027"/>
<path d="M4.68628 4.68625C-1.56209 10.9346 -1.56209 21.0653 4.68628 27.3137C7.26834 24.7317 9.75166 22.2484 16 16L4.68628 4.68625Z" fill="black"/>
<path d="M4.43623 12.3347L6.87123 14.6392L9.81548 13.0352L8.37642 16.0633L10.8115 18.3679L7.48686 17.9349L6.04761 20.9629L5.43217 17.6672L2.10754 17.2341L5.05167 15.6302L4.43623 12.3347Z" fill="#F0F0F0"/>
</g>
<defs>
<clipPath id="clip0_14537_61825">
<rect width="32" height="32" fill="white"/>
</clipPath>
</defs>
</svg>
