<svg width="32" height="32" viewBox="0 0 32 32" fill="none" xmlns="http://www.w3.org/2000/svg">
<g clip-path="url(#clip0_14537_61837)">
<path d="M16 32C24.8366 32 32 24.8366 32 16C32 7.16344 24.8366 0 16 0C7.16344 0 0 7.16344 0 16C0 24.8366 7.16344 32 16 32Z" fill="#F0F0F0"/>
<path d="M16 0C9.12055 0 3.25587 4.342 0.995178 10.4348H31.0049C28.7441 4.342 22.8794 0 16 0Z" fill="#D80027"/>
<path d="M16 32C22.8794 32 28.7441 27.658 31.0048 21.5652H0.995178C3.25587 27.658 9.12055 32 16 32Z" fill="black"/>
<path d="M21.5652 14.2609H17.3913C17.3913 13.4925 16.7683 12.8696 15.9999 12.8696C15.2316 12.8696 14.6086 13.4925 14.6086 14.2609H10.4347C10.4347 15.0293 11.104 15.6522 11.8724 15.6522H11.826C11.826 16.4206 12.4489 17.0435 13.2173 17.0435C13.2173 17.8119 13.8402 18.4348 14.6086 18.4348H17.3913C18.1597 18.4348 18.7826 17.8119 18.7826 17.0435C19.551 17.0435 20.1739 16.4206 20.1739 15.6522H20.1276C20.8959 15.6522 21.5652 15.0293 21.5652 14.2609Z" fill="#FF9811"/>
</g>
<defs>
<clipPath id="clip0_14537_61837">
<rect width="32" height="32" fill="white"/>
</clipPath>
</defs>
</svg>
