<svg width="32" height="32" viewBox="0 0 32 32" fill="none" xmlns="http://www.w3.org/2000/svg">
<g clip-path="url(#clip0_14537_61861)">
<path d="M14.6087 14.6087C14.6087 14.6087 4.69565 27.316 4.68628 27.3137C7.58165 30.2091 11.5817 32 16 32C24.8365 32 32 24.8365 32 16L14.6087 14.6087Z" fill="#338AF3"/>
<path d="M14.6087 16C14.6087 16 4.69565 4.68406 4.68628 4.68631C7.58165 1.79088 11.5817 0 16 0C24.8365 0 32 7.1635 32 16H14.6087Z" fill="#6DA544"/>
<path d="M4.68628 4.68628C-1.56209 10.9347 -1.56209 21.0653 4.68628 27.3138C4.68584 27.3163 32 16 32 16L4.68628 4.68628Z" fill="#D80027"/>
<path d="M8.34778 9.3913C5.27909 9.3913 2.78259 11.8879 2.78259 14.9565V17.0434C2.78259 20.1121 5.27916 22.6086 8.34778 22.6086C11.4164 22.6086 13.913 20.112 13.913 17.0434V14.9565C13.913 11.8879 11.4165 9.3913 8.34778 9.3913ZM11.826 17.0435C11.826 18.598 10.8009 19.9173 9.39122 20.3616V18.087L10.8677 16.6105L9.39203 15.1348L9.39122 14.6096V13.9131H7.30434V16L5.82884 17.4754L7.30434 18.9509V20.3617C5.89466 19.9174 4.86953 18.598 4.86953 17.0435V14.9566C4.86953 13.0387 6.42991 11.4784 8.34778 11.4784C10.2657 11.4784 11.826 13.0387 11.826 14.9566V17.0435Z" fill="#FFDA44"/>
</g>
<defs>
<clipPath id="clip0_14537_61861">
<rect width="32" height="32" fill="white"/>
</clipPath>
</defs>
</svg>
