<svg width="32" height="32" viewBox="0 0 32 32" fill="none" xmlns="http://www.w3.org/2000/svg">
<g clip-path="url(#clip0_14537_61870)">
<path d="M0 16C0 17.9572 0.352062 19.832 0.99525 21.5654L16 22.9565L31.0047 21.5653C31.648 19.832 32 17.9572 32 16C32 14.0697 31.6581 12.2192 31.0316 10.5059L16 9.04349L0.968375 10.506C0.341938 12.2192 0 14.0697 0 16H0Z" fill="#FFDA44"/>
<path d="M16.0001 32C22.8795 32 28.7442 27.658 31.0049 21.5652H0.995239C3.25593 27.658 9.12061 32 16.0001 32Z" fill="#D80027"/>
<path d="M16.0001 0C9.12061 0 3.25593 4.342 0.995239 10.4348H31.0049C28.7442 4.342 22.8795 0 16.0001 0Z" fill="#6DA544"/>
<path d="M16 23.6522C20.2262 23.6522 23.6522 20.2262 23.6522 16C23.6522 11.7738 20.2262 8.34781 16 8.34781C11.7738 8.34781 8.34778 11.7738 8.34778 16C8.34778 20.2262 11.7738 23.6522 16 23.6522Z" fill="#0052B4"/>
<path d="M15.9984 10.0744L17.3798 14.3258H21.8571L18.2334 16.9534L19.6257 21.2174L15.9984 18.5773L12.3766 21.2125L13.7633 16.9534L10.1429 14.3258H14.617L15.9984 10.0744Z" fill="#FFDA44"/>
<path d="M21.5078 17.0581L17.1256 15.6341L19.8339 11.9066L18.7084 11.0887L15.9999 14.8165L13.2917 11.0888L12.1661 11.9066L14.8744 15.6344L10.4923 17.0581L10.9222 18.3814L15.3044 16.9576V21.5652H16.6957V16.9575L21.0777 18.3814L21.5078 17.0581Z" fill="#FFDA44"/>
</g>
<defs>
<clipPath id="clip0_14537_61870">
<rect width="32" height="32" fill="white"/>
</clipPath>
</defs>
</svg>
