<svg width="32" height="32" viewBox="0 0 32 32" fill="none" xmlns="http://www.w3.org/2000/svg">
<g clip-path="url(#clip0_14537_61878)">
<path d="M16 32C24.8366 32 32 24.8366 32 16C32 7.16344 24.8366 0 16 0C7.16344 0 0 7.16344 0 16C0 24.8366 7.16344 32 16 32Z" fill="#0052B4"/>
<path d="M16.0002 6.26086L16.5182 7.85518H18.1945L16.8383 8.84049L17.3563 10.4348L16.0002 9.44943L14.6439 10.4348L15.162 8.84049L13.8058 7.85518H15.4821L16.0002 6.26086Z" fill="#FFDA44"/>
<path d="M9.1134 9.11334L10.6071 9.87434L11.7925 8.68909L11.5301 10.3447L13.0238 11.1058L11.3681 11.368L11.1059 13.0238L10.3448 11.5301L8.68921 11.7924L9.87452 10.6071L9.1134 9.11334Z" fill="#FFDA44"/>
<path d="M6.26099 16L7.8553 15.4819V13.8056L8.84055 15.1619L10.4349 14.6438L9.44949 16L10.4349 17.3562L8.84055 16.8382L7.8553 18.1944V16.518L6.26099 16Z" fill="#FFDA44"/>
<path d="M9.1134 22.8866L9.87446 21.3929L8.68921 20.2076L10.3449 20.4699L11.1058 18.9763L11.3681 20.6319L13.0238 20.8942L11.5303 21.6553L11.7925 23.3109L10.6071 22.1256L9.1134 22.8866Z" fill="#FFDA44"/>
<path d="M16.0002 25.7391L15.482 24.1448H13.8058L15.162 23.1595L14.6439 21.5653L16.0002 22.5506L17.3563 21.5653L16.8383 23.1595L18.1945 24.1448H16.5182L16.0002 25.7391Z" fill="#FFDA44"/>
<path d="M22.8868 22.8866L21.3931 22.1256L20.2077 23.3109L20.47 21.6552L18.9764 20.8942L20.6321 20.6319L20.8943 18.9763L21.6553 20.4699L23.3109 20.2076L22.1256 21.393L22.8868 22.8866Z" fill="#FFDA44"/>
<path d="M25.7391 16L24.1448 16.518V18.1944L23.1595 16.8381L21.5653 17.3562L22.5506 16L21.5653 14.6438L23.1596 15.1619L24.1448 13.8056V15.482L25.7391 16Z" fill="#FFDA44"/>
<path d="M22.8868 9.11334L22.1257 10.6071L23.311 11.7924L21.6553 11.53L20.8943 13.0237L20.6321 11.368L18.9764 11.1057L20.47 10.3447L20.2077 8.68915L21.3931 9.8744L22.8868 9.11334Z" fill="#FFDA44"/>
</g>
<defs>
<clipPath id="clip0_14537_61878">
<rect width="32" height="32" fill="white"/>
</clipPath>
</defs>
</svg>
