<svg width="32" height="32" viewBox="0 0 32 32" fill="none" xmlns="http://www.w3.org/2000/svg">
<g clip-path="url(#clip0_14537_61889)">
<path d="M32 16C32 24.8365 24.8365 32 16 32C7.1635 32 0 24.8365 0 16C0 16.0038 16 0.00175 16 0C24.8365 0 32 7.1635 32 16Z" fill="#0052B4"/>
<path d="M15.9572 16H16C16 15.9857 16 15.9717 16 15.9572C15.9857 15.9715 15.9715 15.9858 15.9572 16Z" fill="#F0F0F0"/>
<path d="M16 8.34781C16 5.5325 16 3.68781 16 0H15.9973C7.162 0.0015 0 7.16431 0 16H8.34781V11.2993L13.0486 16H15.9572L16.0001 15.9572C16.0001 14.8793 16.0001 13.9174 16.0001 13.0486L11.2992 8.34781H16Z" fill="#F0F0F0"/>
<path d="M8.09466 2.08691C5.59223 3.51185 3.51185 5.59223 2.08691 8.09466V16H6.26085V6.26098V6.26085H16C16 4.94441 16 3.69029 16 2.08691H8.09466Z" fill="#D80027"/>
<path d="M16 14.0324L10.3155 8.34784H8.3479V8.34796L15.9999 16H16C16 16 16 14.6433 16 14.0324Z" fill="#D80027"/>
<path d="M25.7391 18.7827V19.4783H20.1739V18.7827H18.0869V21.5652H19.4782V22.2609H26.4348V21.5652H27.826V18.7827H25.7391Z" fill="#FFDA44"/>
<path d="M18.0869 8.34784V16C18.0869 19.7275 22.9565 20.8696 22.9565 20.8696C22.9565 20.8696 27.826 19.7275 27.826 16V8.34784H18.0869Z" fill="#338AF3"/>
<path d="M22.9563 14.0555C21.739 14.0555 21.739 15.1686 20.5217 15.1686C19.3043 15.1686 19.3043 14.0555 18.087 14.0555V16.0034C19.3043 16.0034 19.3043 17.1164 20.5217 17.1164C21.739 17.1164 21.739 16.0034 22.9563 16.0034C24.1737 16.0034 24.1737 17.1164 25.3912 17.1164C26.6087 17.1164 26.6087 16.0034 27.8262 16.0034V14.0555C26.6087 14.0555 26.6087 15.1686 25.3912 15.1686C24.1737 15.1686 24.1737 14.0555 22.9563 14.0555Z" fill="#F3F3F3"/>
<path d="M22.9563 10.1565C21.739 10.1565 21.739 11.2696 20.5217 11.2696C19.3043 11.2696 19.3043 10.1565 18.087 10.1565V12.1043C19.3043 12.1043 19.3043 13.2174 20.5217 13.2174C21.739 13.2174 21.739 12.1043 22.9563 12.1043C24.1737 12.1043 24.1737 13.2174 25.3912 13.2174C26.6087 13.2174 26.6087 12.1043 27.8262 12.1043V10.1565C26.6087 10.1565 26.6087 11.2696 25.3912 11.2696C24.1737 11.2696 24.1737 10.1565 22.9563 10.1565Z" fill="#F3F3F3"/>
</g>
<defs>
<clipPath id="clip0_14537_61889">
<rect width="32" height="32" fill="white"/>
</clipPath>
</defs>
</svg>
