<svg width="32" height="32" viewBox="0 0 32 32" fill="none" xmlns="http://www.w3.org/2000/svg">
<g clip-path="url(#clip0_14537_61928)">
<path d="M16 32C24.8366 32 32 24.8366 32 16C32 7.16344 24.8366 0 16 0C7.16344 0 0 7.16344 0 16C0 24.8366 7.16344 32 16 32Z" fill="#F0F0F0"/>
<path d="M1.94543 8.34781H30.0545C27.3409 3.37431 22.0647 0 16 0C9.93531 0 4.65912 3.37431 1.94543 8.34781Z" fill="#D80027"/>
<path d="M16 32C22.0647 32 27.3409 28.6257 30.0546 23.6522H1.94543C4.65912 28.6257 9.93531 32 16 32Z" fill="#D80027"/>
<path d="M21.5652 16C21.5652 19.0736 19.0736 20.8696 16 20.8696C12.9264 20.8696 10.4348 19.0736 10.4348 16C10.4348 12.9264 12.9264 10.4348 16 10.4348C19.0736 10.4348 21.5652 12.9264 21.5652 16Z" fill="#FFDA44"/>
<path d="M21.5652 16C21.5652 19.0736 19.0736 21.5652 16 21.5652C12.9264 21.5652 10.4348 19.0736 10.4348 16" fill="#0052B4"/>
<path d="M12.5217 14.6086H13.913V17.3913H12.5217V14.6086Z" fill="#D80027"/>
<path d="M18.0869 14.6086H19.4782V17.3913H18.0869V14.6086Z" fill="#D80027"/>
<path d="M15.3043 12.5217H16.6956V17.3913H15.3043V12.5217Z" fill="#D80027"/>
</g>
<defs>
<clipPath id="clip0_14537_61928">
<rect width="32" height="32" fill="white"/>
</clipPath>
</defs>
</svg>
