<svg width="32" height="32" viewBox="0 0 32 32" fill="none" xmlns="http://www.w3.org/2000/svg">
<g clip-path="url(#clip0_14537_61939)">
<path d="M31.0048 21.5652C31.648 19.832 32 17.9571 32 16C32 14.0429 31.648 12.1682 31.0048 10.4348L16 9.04352L0.995188 10.4348C0.352063 12.1682 0 14.0429 0 16C0 17.9571 0.352063 19.832 0.995188 21.5652L16 22.9565L31.0048 21.5652Z" fill="#FFDA44"/>
<path d="M16 32C22.8794 32 28.7441 27.658 31.0047 21.5652H0.995117C3.25587 27.658 9.12049 32 16 32Z" fill="#0052B4"/>
<path d="M16 0C9.12049 0 3.25587 4.342 0.995117 10.4348H31.0048C28.7441 4.342 22.8794 0 16 0Z" fill="#6DA544"/>
</g>
<defs>
<clipPath id="clip0_14537_61939">
<rect width="32" height="32" fill="white"/>
</clipPath>
</defs>
</svg>
