<svg width="32" height="32" viewBox="0 0 32 32" fill="none" xmlns="http://www.w3.org/2000/svg">
<g clip-path="url(#clip0_14537_61947)">
<path d="M16 32C24.8366 32 32 24.8366 32 16C32 7.16344 24.8366 0 16 0C7.16344 0 0 7.16344 0 16C0 24.8366 7.16344 32 16 32Z" fill="#F0F0F0"/>
<path d="M16 0C9.38529 0 3.70854 4.01413 1.27173 9.73913H30.7283C28.2915 4.01413 22.6147 0 16 0Z" fill="#A2001D"/>
<path d="M16 32C22.6147 32 28.2915 27.9859 30.7282 22.2609H1.27173C3.70854 27.9859 9.38529 32 16 32Z" fill="#496E2D"/>
<path d="M31.4488 11.826H0.551188C0.1925 13.1569 0 14.5558 0 16C0 17.4442 0.1925 18.8431 0.551188 20.1739H31.4489C31.8075 18.8431 32 17.4442 32 16C32 14.5558 31.8075 13.1569 31.4488 11.826Z" fill="#0052B4"/>
</g>
<defs>
<clipPath id="clip0_14537_61947">
<rect width="32" height="32" fill="white"/>
</clipPath>
</defs>
</svg>
