<svg width="32" height="32" viewBox="0 0 32 32" fill="none" xmlns="http://www.w3.org/2000/svg">
<g clip-path="url(#clip0_14537_61960)">
<path d="M0.995239 21.5652C3.25593 27.658 9.12061 32 16.0001 32C22.8795 32 28.7442 27.658 31.0049 21.5652L16.0001 20.174L0.995239 21.5652Z" fill="#FFDA44"/>
<path d="M16.0001 0C9.12061 0 3.25593 4.342 0.995239 10.4348L16.0001 11.8261L31.0049 10.4347C28.7442 4.342 22.8795 0 16.0001 0Z" fill="black"/>
<path d="M0.995188 10.4348C0.352063 12.1681 0 14.0429 0 16C0 17.9571 0.352063 19.8319 0.995188 21.5652H31.0049C31.648 19.8319 32 17.9571 32 16C32 14.0429 31.648 12.1681 31.0048 10.4348H0.995188Z" fill="#D80027"/>
</g>
<defs>
<clipPath id="clip0_14537_61960">
<rect width="32" height="32" fill="white"/>
</clipPath>
</defs>
</svg>
