<svg width="32" height="32" viewBox="0 0 32 32" fill="none" xmlns="http://www.w3.org/2000/svg">
<g clip-path="url(#clip0_14537_61969)">
<path d="M16 32C24.8366 32 32 24.8366 32 16C32 7.16344 24.8366 0 16 0C7.16344 0 0 7.16344 0 16C0 24.8366 7.16344 32 16 32Z" fill="#F9F9F9"/>
<path d="M16 32C22.8794 32 28.7441 27.658 31.0047 21.5652H0.995117C3.25587 27.658 9.12049 32 16 32Z" fill="#D80027"/>
<path d="M22.2608 13.2174V11.1304H22.9565V9.7391H21.5652V10.4348H20.1739V9.7391H18.7826V11.1304H19.4782V13.2174H18.0869V8.34792H18.7826V6.95667H17.3913V7.65216H16.6956V6.95667H15.3043V7.65216H14.6087V6.95667H13.2173V8.34792H13.913V13.2174H12.5217V11.1304H13.2173V9.7391H11.826V10.4348H10.4348V9.7391H9.04347V11.1304H9.73909V13.2174H8.34778V18.7826H23.6522V13.2174H22.2608Z" fill="#D80027"/>
<path d="M16 18.0869C14.8474 18.0869 13.913 19.0213 13.913 20.1739C13.913 21.0824 14.4939 21.8551 15.3043 22.1416V25.0435H13.2174V27.8261H16.6957V22.1417C17.5061 21.8552 18.087 21.0825 18.087 20.1739C18.0869 19.0214 17.1525 18.0869 16 18.0869ZM16 20.8695C15.6158 20.8695 15.3043 20.558 15.3043 20.1739C15.3043 19.7897 15.6158 19.4783 16 19.4783C16.3842 19.4783 16.6956 19.7897 16.6956 20.1739C16.6956 20.558 16.3842 20.8695 16 20.8695Z" fill="#FFDA44"/>
</g>
<defs>
<clipPath id="clip0_14537_61969">
<rect width="32" height="32" fill="white"/>
</clipPath>
</defs>
</svg>
