<svg width="32" height="32" viewBox="0 0 32 32" fill="none" xmlns="http://www.w3.org/2000/svg">
<g clip-path="url(#clip0_14537_61988)">
<path d="M16 32C24.8366 32 32 24.8366 32 16C32 7.16344 24.8366 0 16 0C7.16344 0 0 7.16344 0 16C0 24.8366 7.16344 32 16 32Z" fill="#FFDA44"/>
<path d="M6.98206 2.78262C9.54987 1.02725 12.6547 0 16 0C19.3452 0 22.4501 1.02725 25.0179 2.78262L16 3.47825L6.98206 2.78262Z" fill="#A2001D"/>
<path d="M16 16L14.9789 14.9789L14.7078 15.4646L16 16Z" fill="#0052B4"/>
<path d="M4.68628 4.68628C-1.56209 10.9347 -1.56209 21.0653 4.68628 27.3138C7.26834 24.7317 9.75166 22.2484 16 16L4.68628 4.68628Z" fill="#496E2D"/>
<path d="M27.3137 4.68628C33.5621 10.9347 33.5621 21.0653 27.3137 27.3138C24.7317 24.7317 22.2484 22.2484 16 16L27.3137 4.68628Z" fill="#496E2D"/>
<path d="M16 21.5652C19.0736 21.5652 21.5652 19.0736 21.5652 16C21.5652 12.9264 19.0736 10.4348 16 10.4348C12.9264 10.4348 10.4348 12.9264 10.4348 16C10.4348 19.0736 12.9264 21.5652 16 21.5652Z" fill="#A2001D"/>
<path d="M15.9999 10.4348L17.2473 14.2741H21.2847L18.0186 16.6474L19.266 20.4869L15.9999 18.1141L12.7336 20.4869L13.9813 16.6474L10.7152 14.2741H14.7523L15.9999 10.4348Z" fill="#FFDA44"/>
<path d="M16 0C15.9982 0 15.9964 9.375e-05 15.9946 9.375e-05H16.0053C16.0036 9.375e-05 16.0018 0 16 0Z" fill="#FFDA44"/>
<path d="M16.0054 0H15.9947C11.5789 0.0014375 7.58132 1.79163 4.68713 4.6855H27.3129C24.4187 1.79163 20.4211 0.0014375 16.0054 0Z" fill="#A2001D"/>
<path d="M4.68726 27.3146C7.58263 30.2095 11.5823 32 16.0001 32C20.4179 32 24.4175 30.2095 27.3129 27.3146H4.68726Z" fill="#A2001D"/>
<path d="M16 1.73914L16.2591 2.53626H17.0972L16.4191 3.02895L16.6782 3.82607L16 3.33345L15.322 3.82607L15.581 3.02895L14.9028 2.53626H15.741L16 1.73914Z" fill="#FFDA44"/>
<path d="M12.1201 1.73914L12.3792 2.53626H13.2173L12.5393 3.02895L12.7983 3.82607L12.1201 3.33345L11.4421 3.82607L11.7011 3.02895L11.0229 2.53626H11.8611L12.1201 1.73914Z" fill="#FFDA44"/>
<path d="M19.8798 1.73914L20.1388 2.53626H20.977L20.2989 3.02895L20.558 3.82607L19.8798 3.33345L19.2017 3.82607L19.4608 3.02895L18.7826 2.53626H19.6207L19.8798 1.73914Z" fill="#FFDA44"/>
<path d="M16 28.174L16.2591 28.9711H17.0972L16.4191 29.4638L16.6782 30.2609L16 29.7682L15.322 30.2609L15.581 29.4638L14.9028 28.9711H15.741L16 28.174Z" fill="#FFDA44"/>
<path d="M12.1201 28.174L12.3792 28.9711H13.2173L12.5393 29.4638L12.7983 30.2609L12.1201 29.7682L11.4421 30.2609L11.7011 29.4638L11.0229 28.9711H11.8611L12.1201 28.174Z" fill="#FFDA44"/>
<path d="M19.8798 28.174L20.1388 28.9711H20.977L20.2989 29.4638L20.558 30.2609L19.8798 29.7682L19.2017 30.2609L19.4608 29.4638L18.7826 28.9711H19.6207L19.8798 28.174Z" fill="#FFDA44"/>
<path d="M4.87519 15.7358C5.28612 16.3851 5.093 17.2445 4.44369 17.6555C3.79444 18.0665 2.93494 17.8734 2.52394 17.2241C1.77988 16.0486 2.21131 14.1288 2.21131 14.1288C2.21131 14.1288 4.13106 14.5602 4.87519 15.7358Z" fill="#FFDA44"/>
<path d="M4.0716 17.7634C4.45578 17.7634 4.76723 17.452 4.76723 17.0678C4.76723 16.6836 4.45578 16.3722 4.0716 16.3722C3.68742 16.3722 3.37598 16.6836 3.37598 17.0678C3.37598 17.452 3.68742 17.7634 4.0716 17.7634Z" fill="#A2001D"/>
</g>
<defs>
<clipPath id="clip0_14537_61988">
<rect width="32" height="32" fill="white"/>
</clipPath>
</defs>
</svg>
