<svg width="32" height="32" viewBox="0 0 32 32" fill="none" xmlns="http://www.w3.org/2000/svg">
<g clip-path="url(#clip0_14537_62011)">
<path d="M6.98206 29.2174C9.54981 30.9727 12.6548 32 16 32C19.3452 32 22.4501 30.9727 25.0179 29.2174L16 27.826L6.98206 29.2174Z" fill="#D80027"/>
<path d="M25.0179 2.78262C22.4501 1.02731 19.3452 0 16 0C12.6548 0 9.54981 1.02731 6.98206 2.78262L16 4.17394L25.0179 2.78262Z" fill="#D80027"/>
<path d="M32 16C32 10.7057 28.8302 5.38878 25.0179 2.78265H6.98206C2.76687 5.66415 0 10.5088 0 16C0 21.4915 2.76687 26.3359 6.98206 29.2174H25.0179C29.2332 26.3359 32 21.4915 32 16Z" fill="#0052B4"/>
<path d="M15.0946 26.0998C14.8759 25.9123 9.73914 21.4468 9.73914 16C9.73914 10.5532 14.8759 6.08765 15.0946 5.90021L16 5.12408L16.9054 5.90015C17.1241 6.08765 22.2609 10.5531 22.2609 16C22.2609 21.4469 17.1241 25.9125 16.9054 26.0998L16 26.876L15.0946 26.0998Z" fill="#D80027"/>
<path d="M20.8696 16C20.8696 11.1304 16.0001 6.95648 16.0001 6.95648C16.0001 6.95648 11.1305 11.1305 11.1305 16C11.1305 17.4897 11.5866 18.914 12.2192 20.1739H19.7809C20.4136 18.914 20.8696 17.4897 20.8696 16Z" fill="#338AF3"/>
<path d="M20.8696 16C20.8696 17.4897 20.4136 18.914 19.7809 20.1739L16.0001 20.8696L12.2192 20.1739C11.5866 18.9141 11.1305 17.4897 11.1305 16H20.8696Z" fill="#0052B4"/>
<path d="M16 25.0435C16 25.0435 18.3455 23.0325 19.7809 20.174H12.2191C13.6545 23.0325 16 25.0435 16 25.0435Z" fill="#FFDA44"/>
<path d="M12.8695 13.2173H19.1304L15.9999 16.3478L12.8695 13.2173Z" fill="#6DA544"/>
<path d="M14.9565 15.3044H17.0435V21.5653H14.9565V15.3044Z" fill="#A2001D"/>
</g>
<defs>
<clipPath id="clip0_14537_62011">
<rect width="32" height="32" fill="white"/>
</clipPath>
</defs>
</svg>
