<svg width="32" height="32" viewBox="0 0 32 32" fill="none" xmlns="http://www.w3.org/2000/svg">
<g clip-path="url(#clip0_14537_62022)">
<path d="M16 32C24.8366 32 32 24.8366 32 16C32 7.16344 24.8366 0 16 0C7.16344 0 0 7.16344 0 16C0 24.8366 7.16344 32 16 32Z" fill="#F0F0F0"/>
<path d="M32 16C32 9.65665 28.3084 4.17565 22.9565 1.58765V30.4123C28.3084 27.8244 32 22.3433 32 16Z" fill="#338AF3"/>
<path d="M0 16C0 22.3433 3.69156 27.8244 9.0435 30.4124V1.58765C3.69156 4.17565 0 9.65664 0 16Z" fill="#338AF3"/>
<path d="M20.1811 18.7055L17.4757 16.0001L20.0509 13.4248L19.9342 12.0647L19.197 11.3273L16 14.5243L12.803 11.3273L12.0657 12.0647L11.949 13.4248L14.5242 16.0001L11.8188 18.7055L13.2945 20.1811L16 17.4758L18.7054 20.1811L20.1811 18.7055Z" fill="#ACABB1"/>
<path d="M19.9352 12.0648L18.4595 13.5405C19.0889 14.1699 19.4783 15.0395 19.4783 16C19.4783 17.921 17.921 19.4783 16.0001 19.4783C14.0791 19.4783 12.5218 17.921 12.5218 16C12.5218 15.0395 12.9111 14.1699 13.5406 13.5405L12.0649 12.0648C11.0577 13.0718 10.4348 14.4631 10.4348 16C10.4348 19.0736 12.9264 21.5652 16 21.5652C19.0736 21.5652 21.5652 19.0736 21.5652 16C21.5652 14.4632 20.9423 13.0719 19.9352 12.0648Z" fill="#6DA544"/>
</g>
<defs>
<clipPath id="clip0_14537_62022">
<rect width="32" height="32" fill="white"/>
</clipPath>
</defs>
</svg>
