<svg width="32" height="32" viewBox="0 0 32 32" fill="none" xmlns="http://www.w3.org/2000/svg">
<g clip-path="url(#clip0_14537_62033)">
<path d="M16 0C14.5559 0 13.1569 0.1925 11.8261 0.551188L10.4348 16L11.8261 31.4488C13.1569 31.8075 14.5559 32 16 32C24.8365 32 32 24.8365 32 16C32 7.1635 24.8365 0 16 0Z" fill="#FFDA44"/>
<path d="M10.4348 16L11.8261 31.4488C13.1569 31.8075 14.5559 32 16 32C24.8365 32 32 24.8365 32 16H10.4348Z" fill="#6DA544"/>
<path d="M0 16C0 22.0647 3.37438 27.3409 8.34781 30.0546V1.94543C3.37438 4.65906 0 9.93531 0 16Z" fill="#D80027"/>
<path d="M0 16C0 23.3925 5.01381 29.6128 11.8261 31.4488V0.551208C5.01381 2.38721 0 8.60758 0 16Z" fill="#D80027"/>
<path d="M6.04604 11.826L7.08197 15.0146H10.4348L7.72247 16.9853L8.75835 20.1739L6.04604 18.2032L3.3336 20.1739L4.36972 16.9853L1.65735 15.0146H5.01004L6.04604 11.826Z" fill="black"/>
</g>
<defs>
<clipPath id="clip0_14537_62033">
<rect width="32" height="32" fill="white"/>
</clipPath>
</defs>
</svg>
