<svg width="32" height="32" viewBox="0 0 32 32" fill="none" xmlns="http://www.w3.org/2000/svg">
<g clip-path="url(#clip0_14537_62060)">
<path d="M16 32C24.8366 32 32 24.8366 32 16C32 7.16344 24.8366 0 16 0C7.16344 0 0 7.16344 0 16C0 24.8366 7.16344 32 16 32Z" fill="#F0F0F0"/>
<path d="M16 32C20.0573 32 23.7612 30.489 26.5816 28H5.4184C8.23883 30.489 11.9427 32 16 32Z" fill="#D80027"/>
<path d="M0.504089 20C0.869402 21.4192 1.42478 22.7619 2.14103 24H29.859C30.5752 22.7619 31.1306 21.4192 31.4959 20L16 18.7827L0.504089 20Z" fill="#0052B4"/>
<path d="M31.496 12C31.1307 10.5809 30.5753 9.23812 29.859 8L16 7.65219C16 4.85763 16 2.21656 16 0C14.8115 0 13.6531 0.129687 12.5384 0.3755C12.517 0.38025 2.08698 8.60738 2.08698 16C2.35366 16.0464 16 17.3913 16 17.3913C16 17.3913 16 14.3438 16 12H31.496Z" fill="#0052B4"/>
<path d="M16 9.98265V1.98265H10.9328L12.5389 0.376587C5.94569 1.83071 0.87975 7.35096 0.104375 14.174C0.03625 14.7733 0 15.3824 0 16H8.10437V12.8111L11.3249 16H17.0489L10.9327 9.98265H16Z" fill="#F0F0F0"/>
<path d="M16.0073 16L9.98994 9.98264H8.10437V9.9827L14.1217 16H6.08694V8.00001H29.859C28.9879 6.4942 27.878 5.14395 26.5817 4.00001H6.08694V3.4422C4.47269 4.71826 3.11069 6.29876 2.08694 8.09714V16H0C0 17.3812 0.175 18.7216 0.504062 20H31.4959C31.825 18.7215 32 17.3812 32 16H16.0073Z" fill="#D80027"/>
</g>
<defs>
<clipPath id="clip0_14537_62060">
<rect width="32" height="32" fill="white"/>
</clipPath>
</defs>
</svg>
