<svg width="32" height="32" viewBox="0 0 32 32" fill="none" xmlns="http://www.w3.org/2000/svg">
<g clip-path="url(#clip0_14537_62078)">
<path d="M16 32C24.8366 32 32 24.8366 32 16C32 7.16344 24.8366 0 16 0C7.16344 0 0 7.16344 0 16C0 24.8366 7.16344 32 16 32Z" fill="#D80027"/>
<path d="M17.652 12.1042C17.2883 13.6167 16.6423 13.3282 16.3252 14.6472C14.4575 14.1982 13.3073 12.32 13.7563 10.4522C14.2052 8.58454 16.0835 7.43429 17.9513 7.88336C17.3171 10.5213 17.9773 10.7515 17.652 12.1042Z" fill="#F0F0F0"/>
<path d="M12.8055 13.225C14.1315 14.0381 13.6575 14.5635 14.8139 15.2727C13.8097 16.9103 11.6681 17.4237 10.0305 16.4195C8.39291 15.4154 7.87935 13.2737 8.8836 11.6361C11.1965 13.0544 11.6193 12.4977 12.8055 13.225Z" fill="#F0F0F0"/>
<path d="M12.3736 18.1808C13.5568 17.1709 13.9099 17.784 14.9417 16.9034C16.1889 18.3644 16.0154 20.5599 14.5544 21.8071C13.0933 23.0543 10.8978 22.8806 9.65076 21.4197C11.7141 19.6583 11.3153 19.0839 12.3736 18.1808Z" fill="#F0F0F0"/>
<path d="M16.9534 20.1228C16.3584 18.6855 17.0507 18.539 16.532 17.2856C18.3069 16.5511 20.3414 17.3945 21.076 19.1694C21.8106 20.9443 20.9671 22.9788 19.1922 23.7134C18.1549 21.2066 17.4855 21.4084 16.9534 20.1228Z" fill="#F0F0F0"/>
<path d="M20.2156 16.3672C18.6648 16.4889 18.7392 15.7852 17.387 15.8913C17.2369 13.9763 18.6677 12.3019 20.5828 12.1516C22.4978 12.0017 24.1722 13.4324 24.3223 15.3475C21.6175 15.5596 21.6025 16.2585 20.2156 16.3672Z" fill="#F0F0F0"/>
</g>
<defs>
<clipPath id="clip0_14537_62078">
<rect width="32" height="32" fill="white"/>
</clipPath>
</defs>
</svg>
