<svg width="32" height="32" viewBox="0 0 32 32" fill="none" xmlns="http://www.w3.org/2000/svg">
<g clip-path="url(#clip0_14537_62125)">
<path d="M16 32C24.8366 32 32 24.8366 32 16C32 7.16344 24.8366 0 16 0C7.16344 0 0 7.16344 0 16C0 24.8366 7.16344 32 16 32Z" fill="#D80027"/>
<path d="M21.9241 10.7258L20.7933 14.7614L17.4001 14.1349L15.216 9.63269L9.31558 11.7265L8.85027 10.4153L7.30652 10.2251L8.46971 13.5031L12.5303 12.4647L13.6842 15.7165L10.8772 19.8591L15.6408 23.922L14.7379 24.9806L15.345 26.4127L17.6024 23.7662L14.6728 20.7689L16.912 18.1437L21.9031 18.5033L23.0399 12.3464L24.4081 12.5991L25.3449 11.3573L21.9241 10.7258Z" fill="#F0F0F0"/>
</g>
<defs>
<clipPath id="clip0_14537_62125">
<rect width="32" height="32" fill="white"/>
</clipPath>
</defs>
</svg>
