<svg width="32" height="32" viewBox="0 0 32 32" fill="none" xmlns="http://www.w3.org/2000/svg">
<g clip-path="url(#clip0_14537_62128)">
<path d="M16 32C24.8366 32 32 24.8366 32 16C32 7.16344 24.8366 0 16 0C7.16344 0 0 7.16344 0 16C0 24.8366 7.16344 32 16 32Z" fill="#F0F0F0"/>
<path d="M22.0246 12.5218H18.0082L16 9.04358L13.992 12.5218H9.97546L11.9838 16.0001L9.97546 19.4783H13.992L16 22.9566L18.0082 19.4783H22.0246L20.0162 16.0001L22.0246 12.5218ZM18.4672 16.0001L17.2337 18.1368H14.7665L13.5328 16.0001L14.7665 13.8633H17.2337L18.4672 16.0001ZM16 11.7265L16.4592 12.5218H15.541L16 11.7265ZM12.2992 13.8633H13.2174L12.7583 14.6586L12.2992 13.8633ZM12.2992 18.1368L12.7583 17.3416L13.2175 18.1368H12.2992ZM16 20.2736L15.541 19.4783H16.4592L16 20.2736ZM19.7009 18.1368H18.7827L19.2418 17.3416L19.7009 18.1368ZM18.7827 13.8633H19.7009L19.2418 14.6586L18.7827 13.8633Z" fill="#0052B4"/>
<path d="M25.9598 3.47827H6.0402C4.58001 4.64127 3.32776 6.0539 2.34839 7.65221H29.6516C28.6722 6.05396 27.4199 4.64127 25.9598 3.47827Z" fill="#0052B4"/>
<path d="M6.0402 28.5217H25.9598C27.42 27.3587 28.6722 25.9461 29.6516 24.3478H2.34839C3.32783 25.946 4.58008 27.3587 6.0402 28.5217Z" fill="#0052B4"/>
</g>
<defs>
<clipPath id="clip0_14537_62128">
<rect width="32" height="32" fill="white"/>
</clipPath>
</defs>
</svg>
