<svg width="32" height="32" viewBox="0 0 32 32" fill="none" xmlns="http://www.w3.org/2000/svg">
<g clip-path="url(#clip0_14537_62138)">
<path d="M16 32C17.9571 32 19.8319 31.648 21.5652 31.0048L22.2609 16L21.5653 0.995188C19.8319 0.352063 17.9571 0 16 0C14.0429 0 12.1681 0.352063 10.4348 0.995188L9.73914 16L10.4348 31.0048C12.1681 31.648 14.0429 32 16 32Z" fill="#F0F0F0"/>
<path d="M0 16.0001C0 22.8795 4.342 28.7442 10.4348 31.0049V0.995239C4.342 3.25593 0 9.12061 0 16.0001Z" fill="#FF9811"/>
<path d="M21.5652 0.995239V31.0049C27.658 28.7442 32 22.8795 32 16.0001C32 9.12061 27.658 3.25593 21.5652 0.995239Z" fill="#6DA544"/>
</g>
<defs>
<clipPath id="clip0_14537_62138">
<rect width="32" height="32" fill="white"/>
</clipPath>
</defs>
</svg>
