<svg width="32" height="32" viewBox="0 0 32 32" fill="none" xmlns="http://www.w3.org/2000/svg">
<g clip-path="url(#clip0_14537_62167)">
<path d="M16 32C24.8366 32 32 24.8366 32 16C32 7.16344 24.8366 0 16 0C7.16344 0 0 7.16344 0 16C0 24.8366 7.16344 32 16 32Z" fill="#F0F0F0"/>
<path d="M16 0C9.65665 0 4.17565 3.69156 1.58765 9.0435H30.4123C27.8244 3.69156 22.3433 0 16 0Z" fill="black"/>
<path d="M16 32C9.65665 32 4.17565 28.3085 1.58765 22.9565H30.4123C27.8244 28.3085 22.3433 32 16 32Z" fill="#496E2D"/>
<path d="M31.2444 11.1305H0.755562C0.265437 12.6661 0 14.302 0 16.0001C0 17.6981 0.265437 19.3341 0.755562 20.8696H31.2444C31.7346 19.3341 32 17.6981 32 16.0001C32 14.302 31.7346 12.6661 31.2444 11.1305Z" fill="#A2001D"/>
<path d="M20.9822 7.39385L19.0874 6.51929L16 13.51L12.9126 6.51929L11.0178 7.39385L14.8508 16L11.0178 24.6062L12.9126 25.4808L16 18.4901L19.0874 25.4808L20.9822 24.6062L17.1492 16L20.9822 7.39385Z" fill="#F0F0F0"/>
<path d="M17.2869 8.21811C16.5534 7.41704 16 6.95654 16 6.95654C16 6.95654 15.4465 7.41698 14.713 8.21811V23.7819C15.4465 24.583 16 25.0435 16 25.0435C16 25.0435 16.5534 24.5831 17.2869 23.7819V8.21811Z" fill="#F0F0F0"/>
<path d="M12.5217 11.2027V20.7972C13.2969 22.1706 14.2455 23.2963 14.9565 24.0427V7.95715C14.2455 8.70347 13.2968 9.82928 12.5217 11.2027Z" fill="#A2001D"/>
<path d="M19.4783 11.2027C18.7031 9.82922 17.7545 8.70347 17.0435 7.95715V24.0427C17.7544 23.2963 18.7031 22.1706 19.4783 20.7972V11.2027Z" fill="#A2001D"/>
<path d="M19.4783 11.2026V20.7971C20.263 19.4066 20.8696 17.7623 20.8696 15.9999C20.8696 14.2376 20.263 12.5933 19.4783 11.2026Z" fill="black"/>
<path d="M12.5218 11.2026V20.7971C11.7371 19.4066 11.1305 17.7623 11.1305 15.9999C11.1305 14.2376 11.7371 12.5933 12.5218 11.2026Z" fill="black"/>
</g>
<defs>
<clipPath id="clip0_14537_62167">
<rect width="32" height="32" fill="white"/>
</clipPath>
</defs>
</svg>
