<svg width="32" height="32" viewBox="0 0 32 32" fill="none" xmlns="http://www.w3.org/2000/svg">
<g clip-path="url(#clip0_14537_62180)">
<path d="M0 16C0 7.1635 7.1635 0 16 0C24.8365 0 32 7.1635 32 16" fill="#D80027"/>
<path d="M21.5652 14.8799L19.2911 15.9494L20.5021 18.1519L18.0328 17.6794L17.7199 20.1739L16 18.3393L14.28 20.1739L13.9672 17.6794L11.4979 18.1518L12.7088 15.9494L10.4348 14.8799L12.7088 13.8101L11.4979 11.6079L13.9671 12.0802L14.2801 9.58582L16 11.4204L17.72 9.58582L18.0328 12.0802L20.5022 11.6079L19.2913 13.8103L21.5652 14.8799Z" fill="#FFDA44"/>
<path d="M20.1739 5.21733H17.0435C17.0435 4.64114 16.5762 4.17383 16 4.17383C15.4237 4.17383 14.9565 4.64108 14.9565 5.21733H11.826C11.826 5.79358 12.328 6.26083 12.9043 6.26083H12.8695C12.8695 6.83708 13.3366 7.30433 13.913 7.30433C13.913 7.88058 14.3801 8.34783 14.9565 8.34783H17.0434C17.6196 8.34783 18.0869 7.88064 18.0869 7.30433C18.6631 7.30433 19.1304 6.83714 19.1304 6.26083H19.0956C19.6719 6.26083 20.1739 5.79364 20.1739 5.21733Z" fill="#FFDA44"/>
<path d="M32 16C32 24.8365 24.8365 32 16 32C7.1635 32 0 24.8365 0 16H32Z" fill="#F0F0F0"/>
<path d="M15.9999 32C21.0013 32 25.4659 29.7047 28.4 26.1107C27.8723 25.7509 27.5874 25.1693 26.6664 25.1693C25.333 25.1693 25.333 26.3884 23.9998 26.3884C22.6665 26.3884 22.6665 25.1693 21.3332 25.1693C19.9999 25.1693 19.9999 26.3884 18.6665 26.3884C17.3332 26.3884 17.3331 25.1693 15.9997 25.1693C14.6664 25.1693 14.6664 26.3884 13.3331 26.3884C12 26.3884 12 25.1693 10.6667 25.1693C9.33323 25.1693 9.33323 26.3884 7.9998 26.3884C6.66636 26.3884 6.66636 25.1693 5.33292 25.1693C4.41205 25.1693 4.12711 25.7508 3.59961 26.1106C6.53361 29.7047 10.9985 32 15.9999 32Z" fill="#0052B4"/>
<path d="M29.3331 18.0407C27.9998 18.0407 27.9998 16.8215 26.6664 16.8215C25.3331 16.8215 25.3331 18.0407 23.9998 18.0407C22.6666 18.0407 22.6665 16.8215 21.3333 16.8215C19.9999 16.8215 19.9999 18.0407 18.6666 18.0407C17.3332 18.0407 17.3331 16.8215 15.9997 16.8215C14.6664 16.8215 14.6664 18.0407 13.3331 18.0407C12 18.0407 12 16.8215 10.6667 16.8215C9.33325 16.8215 9.33325 18.0407 7.99982 18.0407C6.66638 18.0407 6.66638 16.8215 5.33294 16.8215C3.99981 16.8215 3.99981 18.0407 2.6665 18.0407C1.34038 18.0407 1.33269 16.835 0.020752 16.8221C0.0576895 17.554 0.145064 18.2725 0.277189 18.9751C1.33994 19.1313 1.433 20.174 2.66656 20.174C3.99988 20.174 3.99988 18.955 5.333 18.955C6.66644 18.955 6.66644 20.174 7.99988 20.174C9.33332 20.174 9.33332 18.955 10.6668 18.955C12.0001 18.955 12.0001 20.174 13.3332 20.174C14.6665 20.174 14.6665 18.955 15.9998 18.955C17.3332 18.955 17.3332 20.174 18.6666 20.174C20.0001 20.174 20.0001 18.955 21.3333 18.955C22.6666 18.955 22.6666 20.174 23.9999 20.174C25.3331 20.174 25.3332 18.955 26.6664 18.955C27.9999 18.955 27.9999 20.174 29.3331 20.174C30.5668 20.174 30.6599 19.1313 31.7227 18.9752C31.8549 18.2725 31.9421 17.554 31.9793 16.8222C30.6671 16.8351 30.6593 18.0407 29.3331 18.0407Z" fill="#0052B4"/>
<path d="M26.6664 20.9955C25.3331 20.9955 25.3331 22.2146 23.9999 22.2146C22.6666 22.2146 22.6666 20.9955 21.3333 20.9955C20 20.9955 20 22.2146 18.6666 22.2146C17.3332 22.2146 17.3332 20.9955 15.9997 20.9955C14.6664 20.9955 14.6664 22.2146 13.3332 22.2146C12.0001 22.2146 12.0001 20.9955 10.6667 20.9955C9.33331 20.9955 9.33331 22.2146 7.99987 22.2146C6.66644 22.2146 6.66644 20.9955 5.333 20.9955C3.99987 20.9955 3.99987 22.2146 2.66656 22.2146C1.71387 22.2146 1.44175 21.5924 0.877686 21.2369C1.25319 22.3218 1.74169 23.3539 2.33 24.3186C2.43231 24.3375 2.54369 24.3479 2.66656 24.3479C3.99987 24.3479 3.99987 23.1289 5.333 23.1289C6.66644 23.1289 6.66644 24.3479 7.99987 24.3479C9.33331 24.3479 9.33331 23.1289 10.6667 23.1289C12.0001 23.1289 12.0001 24.3479 13.3332 24.3479C14.6665 24.3479 14.6665 23.1289 15.9997 23.1289C17.3332 23.1289 17.3332 24.3479 18.6666 24.3479C20.0001 24.3479 20.0001 23.1289 21.3333 23.1289C22.6666 23.1289 22.6666 24.3479 23.9999 24.3479C25.3331 24.3479 25.3332 23.1289 26.6664 23.1289C27.9999 23.1289 27.9999 24.3479 29.3331 24.3479C29.4561 24.3479 29.5675 24.3375 29.6698 24.3185C30.2581 23.3539 30.7466 22.3218 31.1222 21.2369C30.5581 21.5922 30.2859 22.2146 29.3331 22.2146C27.9999 22.2146 27.9999 20.9955 26.6664 20.9955Z" fill="#0052B4"/>
<path d="M31.9504 14.736C30.6672 14.7663 30.6496 15.9537 29.3331 15.9537C27.9998 15.9537 27.9998 14.7346 26.6664 14.7346C25.3331 14.7346 25.3331 15.9537 23.9999 15.9537C22.6666 15.9537 22.6666 14.7346 21.3333 14.7346C20 14.7346 20 15.9537 18.6666 15.9537C17.3332 15.9537 17.3332 14.7346 15.9998 14.7346C14.6664 14.7346 14.6664 15.9537 13.3332 15.9537C12.0001 15.9537 12.0001 14.7346 10.6667 14.7346C9.33331 14.7346 9.33331 15.9537 7.99988 15.9537C6.66644 15.9537 6.66644 14.7346 5.333 14.7346C3.99988 14.7346 3.99988 15.9537 2.66656 15.9537C1.35038 15.9537 1.33256 14.7664 0.0495625 14.736C0.017 15.1531 0 15.5746 0 16.0001C0 16.2915 0.00825 16.5811 0.0238125 16.8686C1.33275 16.8833 1.34144 18.087 2.66663 18.087C3.99994 18.087 3.99994 16.868 5.33306 16.868C6.6665 16.868 6.6665 18.087 7.99994 18.087C9.33337 18.087 9.33338 16.868 10.6668 16.868C12.0001 16.868 12.0001 18.087 13.3333 18.087C14.6666 18.087 14.6666 16.868 15.9998 16.868C17.3333 16.868 17.3333 18.087 18.6667 18.087C20.0001 18.087 20.0001 16.868 21.3334 16.868C22.6667 16.868 22.6667 18.087 23.9999 18.087C25.3332 18.087 25.3333 16.868 26.6665 16.868C27.9999 16.868 27.9999 18.087 29.3332 18.087C30.6585 18.087 30.6672 16.8833 31.9764 16.8686C31.9918 16.581 32 16.2915 32 16.0001C32 15.5746 31.983 15.1531 31.9504 14.736Z" fill="#F0F0F0"/>
</g>
<defs>
<clipPath id="clip0_14537_62180">
<rect width="32" height="32" fill="white"/>
</clipPath>
</defs>
</svg>
