<svg width="32" height="32" viewBox="0 0 32 32" fill="none" xmlns="http://www.w3.org/2000/svg">
<g clip-path="url(#clip0_14537_62191)">
<path d="M16 32C24.8366 32 32 24.8366 32 16C32 7.16344 24.8366 0 16 0C7.16344 0 0 7.16344 0 16C0 24.8366 7.16344 32 16 32Z" fill="#0052B4"/>
<path d="M7.02806 9.73914L7.37344 10.8021H8.49094L7.58687 11.4589L7.93219 12.5218L7.02806 11.8649L6.12387 12.5218L6.46931 11.4589L5.56519 10.8021H6.68262L7.02806 9.73914Z" fill="#F0F0F0"/>
<path d="M10.5063 8.69568L10.8516 9.75862H11.9691L11.0651 10.4154L11.4104 11.4782L10.5063 10.8214L9.60214 11.4782L9.94752 10.4154L9.04346 9.75862H10.161L10.5063 8.69568Z" fill="#F0F0F0"/>
<path d="M13.9845 7.65222L14.3299 8.71516H15.4474L14.5434 9.37203L14.8887 10.4348L13.9845 9.77797L13.0804 10.4348L13.4258 9.37203L12.5217 8.71516H13.6392L13.9845 7.65222Z" fill="#F0F0F0"/>
<path d="M24.9719 9.73914L24.6265 10.8021H23.509L24.4132 11.4589L24.0678 12.5218L24.9719 11.8649L25.8761 12.5218L25.5307 11.4589L26.4348 10.8021H25.3173L24.9719 9.73914Z" fill="#F0F0F0"/>
<path d="M21.4936 8.69568L21.1483 9.75862H20.0308L20.9349 10.4154L20.5895 11.4782L21.4936 10.8214L22.3978 11.4782L22.0524 10.4154L22.9564 9.75862H21.8389L21.4936 8.69568Z" fill="#F0F0F0"/>
<path d="M18.0155 7.65222L17.6701 8.71516H16.5526L17.4567 9.37203L17.1114 10.4348L18.0155 9.77797L18.9196 10.4348L18.5742 9.37203L19.4783 8.71516H18.3608L18.0155 7.65222Z" fill="#F0F0F0"/>
<path d="M18.7827 16.6957L16.0001 13.2174L14.6087 13.913V15.3043L12.5218 16.6957H11.1305V18.4931C13.1697 19.3188 14.6087 21.3169 14.6087 23.6522H16.0001V22.2609L17.3914 20.8696L18.7827 22.2609L20.174 20.8696V19.4783L21.5653 17.3913L18.7827 16.6957Z" fill="#FFDA44"/>
</g>
<defs>
<clipPath id="clip0_14537_62191">
<rect width="32" height="32" fill="white"/>
</clipPath>
</defs>
</svg>
