<svg width="32" height="32" viewBox="0 0 32 32" fill="none" xmlns="http://www.w3.org/2000/svg">
<g clip-path="url(#clip0_14537_62206)">
<path d="M16 32C24.8366 32 32 24.8366 32 16C32 7.16344 24.8366 0 16 0C7.16344 0 0 7.16344 0 16C0 24.8366 7.16344 32 16 32Z" fill="#D80027"/>
<path d="M23.8248 16L20.6276 17.5039L22.3302 20.6006L18.8581 19.9363L18.4184 23.4435L15.9999 20.8641L13.5817 23.4435L13.1417 19.9363L9.66998 20.6005L11.3725 17.5038L8.17517 16L11.3725 14.4962L9.66998 11.3995L13.1416 12.0638L13.5818 8.55652L15.9999 11.136L18.4185 8.55652L18.8581 12.0638L22.3303 11.3995L20.6277 14.4964L23.8248 16Z" fill="#FFDA44"/>
<path d="M16.0001 20.8696C18.6894 20.8696 20.8696 18.6894 20.8696 16.0001C20.8696 13.3107 18.6894 11.1305 16.0001 11.1305C13.3107 11.1305 11.1305 13.3107 11.1305 16.0001C11.1305 18.6894 13.3107 20.8696 16.0001 20.8696Z" fill="#D80027"/>
<path d="M13.5652 16C13.4479 16 13.3321 16.006 13.2178 16.0174C13.222 16.6918 13.466 17.3091 13.869 17.7887C14.084 17.2101 14.405 16.6826 14.8098 16.2311C14.4231 16.0824 14.0037 16 13.5652 16Z" fill="#FFDA44"/>
<path d="M15.0641 18.6208C15.3566 18.7253 15.6715 18.7826 16 18.7826C16.3285 18.7826 16.6435 18.7253 16.936 18.6208C16.7765 17.9951 16.4473 17.4364 16 16.9974C15.5527 17.4364 15.2235 17.9951 15.0641 18.6208Z" fill="#FFDA44"/>
<path d="M18.4097 14.6092C17.9286 13.7775 17.03 13.2174 16 13.2174C14.97 13.2174 14.0715 13.7775 13.5903 14.6092C14.4675 14.6136 15.29 14.8521 16 15.2639C16.7101 14.8521 17.5325 14.6136 18.4097 14.6092Z" fill="#FFDA44"/>
<path d="M17.1902 16.2312C17.595 16.6826 17.916 17.2102 18.131 17.7888C18.534 17.3092 18.778 16.6919 18.7822 16.0175C18.6678 16.0061 18.552 16.0001 18.4347 16.0001C17.9964 16.0001 17.5769 16.0824 17.1902 16.2312Z" fill="#FFDA44"/>
</g>
<defs>
<clipPath id="clip0_14537_62206">
<rect width="32" height="32" fill="white"/>
</clipPath>
</defs>
</svg>
