<svg width="32" height="32" viewBox="0 0 32 32" fill="none" xmlns="http://www.w3.org/2000/svg">
<g clip-path="url(#clip0_14537_62215)">
<path d="M30.4124 9.0435C27.8244 3.69156 22.3434 0 16 0C9.65664 0 4.17565 3.69156 1.58765 9.0435L16 10.4348L30.4124 9.0435Z" fill="#D80027"/>
<path d="M1.58765 22.9565C4.17565 28.3084 9.65664 32 16 32C22.3434 32 27.8244 28.3084 30.4124 22.9565L16 21.5652L1.58765 22.9565Z" fill="#D80027"/>
<path d="M30.4124 9.04346H1.58763C0.5705 11.1469 0 13.5068 0 16C0 18.4931 0.5705 20.853 1.58763 22.9565H30.4123C31.4296 20.853 32 18.4931 32 16C32 13.5068 31.4296 11.1469 30.4124 9.04346Z" fill="#0052B4"/>
<path d="M16 21.5652C19.0736 21.5652 21.5652 19.0736 21.5652 16C21.5652 12.9264 19.0736 10.4348 16 10.4348C12.9264 10.4348 10.4348 12.9264 10.4348 16C10.4348 19.0736 12.9264 21.5652 16 21.5652Z" fill="#F0F0F0"/>
</g>
<defs>
<clipPath id="clip0_14537_62215">
<rect width="32" height="32" fill="white"/>
</clipPath>
</defs>
</svg>
