<svg width="32" height="32" viewBox="0 0 32 32" fill="none" xmlns="http://www.w3.org/2000/svg">
<g clip-path="url(#clip0_14537_62221)">
<path d="M16 32C24.8366 32 32 24.8366 32 16C32 7.16344 24.8366 0 16 0C7.16344 0 0 7.16344 0 16C0 24.8366 7.16344 32 16 32Z" fill="#F0F0F0"/>
<path d="M16 0C8.60752 0 2.38715 5.01381 0.551147 11.8261H31.4488C29.6128 5.01381 23.3924 0 16 0Z" fill="#A2001D"/>
<path d="M16 32C23.3924 32 29.6128 26.9862 31.4488 20.174H0.551147C2.38715 26.9861 8.60752 32 16 32Z" fill="#A2001D"/>
</g>
<defs>
<clipPath id="clip0_14537_62221">
<rect width="32" height="32" fill="white"/>
</clipPath>
</defs>
</svg>
