<svg width="32" height="32" viewBox="0 0 32 32" fill="none" xmlns="http://www.w3.org/2000/svg">
<g clip-path="url(#clip0_14537_62232)">
<path d="M0 16C0 18.4931 0.570438 20.853 1.58763 22.9565L16 23.6522L30.4124 22.9565C31.4296 20.853 32 18.4931 32 16C32 13.5068 31.4296 11.147 30.4124 9.04347L16 8.34778L1.58763 9.0434C0.570438 11.147 0 13.5068 0 16H0Z" fill="#F0F0F0"/>
<path d="M16 32C22.3433 32 27.8244 28.3085 30.4124 22.9565H1.58765C4.17565 28.3085 9.65664 32 16 32Z" fill="#6DA544"/>
<path d="M16 0C9.65665 0 4.17565 3.69156 1.58765 9.0435H30.4123C27.8244 3.69156 22.3433 0 16 0Z" fill="#0052B4"/>
<path d="M17.0435 15.6522V11.8262H14.9565V15.6522L12.4359 18.1729C13.169 19.3729 14.4909 20.174 16 20.174C17.5092 20.174 18.831 19.3729 19.5642 18.1729L17.0435 15.6522Z" fill="black"/>
</g>
<defs>
<clipPath id="clip0_14537_62232">
<rect width="32" height="32" fill="white"/>
</clipPath>
</defs>
</svg>
