<svg width="32" height="32" viewBox="0 0 32 32" fill="none" xmlns="http://www.w3.org/2000/svg">
<g clip-path="url(#clip0_14537_62237)">
<path d="M16 32C24.8366 32 32 24.8366 32 16C32 7.16344 24.8366 0 16 0C7.16344 0 0 7.16344 0 16C0 24.8366 7.16344 32 16 32Z" fill="#F0F0F0"/>
<path d="M3.65723 5.81824H28.3427C27.431 4.71418 26.3735 3.73512 25.2004 2.90918H6.79954C5.62648 3.73499 4.56904 4.71412 3.65723 5.81824Z" fill="#F0F0F0"/>
<path d="M0 16C0 16.4904 0.0233125 16.9753 0.0665 17.4546H31.9335C31.9767 16.9753 32 16.4904 32 16C32 15.5096 31.9767 15.0247 31.9335 14.5455H0.0665C0.0233125 15.0247 0 15.5096 0 16H0Z" fill="#F0F0F0"/>
<path d="M1.74479 23.2727H30.2553C30.7264 22.3511 31.1107 21.3779 31.3975 20.3637H0.602539C0.889352 21.3779 1.27373 22.3511 1.74479 23.2727Z" fill="#F0F0F0"/>
<path d="M6.79954 29.0909H25.2004C26.3734 28.265 27.4309 27.2859 28.3427 26.1819H3.65723C4.56904 27.2858 5.62648 28.265 6.79954 29.0909Z" fill="#F0F0F0"/>
<path d="M0.602417 11.6364H31.3975C31.1107 10.6221 30.7264 9.64889 30.2552 8.72733H1.74473C1.27367 9.64889 0.889292 10.6221 0.602417 11.6364Z" fill="#F0F0F0"/>
<path d="M7.65222 2.90906H25.2005C22.598 1.07669 19.4248 0 16 0C13.9131 0 10.2547 1.07669 7.65222 2.90906Z" fill="#D80027"/>
<path d="M15.3044 8.7273H30.2553C29.7233 7.68649 29.0806 6.71155 28.3428 5.81824H15.3044V8.7273Z" fill="#D80027"/>
<path d="M15.3044 14.5455H31.9336C31.8436 13.5466 31.6627 12.5739 31.3976 11.6364H15.3044V14.5455Z" fill="#D80027"/>
<path d="M0.602528 20.3637H31.3975C31.6627 19.4263 31.8435 18.4535 31.9335 17.4546H0.0665283C0.156528 18.4535 0.337403 19.4262 0.602528 20.3637Z" fill="#D80027"/>
<path d="M3.65725 26.1817H28.3428C29.0806 25.2883 29.7232 24.3134 30.2553 23.2727H1.74475C2.27681 24.3135 2.91944 25.2884 3.65725 26.1817Z" fill="#D80027"/>
<path d="M16 32C19.4248 32 22.5979 30.9233 25.2004 29.0909H6.79956C9.40206 30.9233 12.5752 32 16 32Z" fill="#D80027"/>
<path d="M0.602466 11.6364C0.337341 12.5739 0.156528 13.5466 0.0665283 14.5454H16V0C8.67628 0 2.50197 4.92075 0.602466 11.6364Z" fill="#0052B4"/>
<path d="M9.52431 4.17395L10.5602 7.36239H13.9131L11.2007 9.33314L12.2366 12.5218L9.52431 10.5511L6.81187 12.5218L7.848 9.33314L5.13562 7.36239H8.48831L9.52431 4.17395Z" fill="#F0F0F0"/>
</g>
<defs>
<clipPath id="clip0_14537_62237">
<rect width="32" height="32" fill="white"/>
</clipPath>
</defs>
</svg>
