<svg width="32" height="32" viewBox="0 0 32 32" fill="none" xmlns="http://www.w3.org/2000/svg">
<g clip-path="url(#clip0_14537_62254)">
<path d="M1.58763 9.0435C0.5705 11.147 0 13.5068 0 16C0 18.4932 0.5705 20.853 1.58763 22.9565L16 24.3478L30.4124 22.9565C31.4295 20.853 32 18.4932 32 16C32 13.5068 31.4295 11.147 30.4124 9.0435L16 7.65219L1.58763 9.0435Z" fill="black"/>
<path d="M1.58813 22.9565C4.17601 28.3084 9.65657 32 15.9999 32C22.3433 32 27.8239 28.3084 30.4118 22.9565H1.58813Z" fill="#496E2D"/>
<path d="M1.58813 9.0435H30.4118C27.8239 3.69156 22.3433 0 15.9999 0C9.65657 0 4.17601 3.69156 1.58813 9.0435Z" fill="#D80027"/>
<path d="M19.7241 13.0741L21.0369 14.8832L23.1629 14.1938L21.8481 16.0013L23.1607 17.8103L21.0354 17.1183L19.7206 18.9258L19.7219 16.6908L17.5966 15.9988L19.7227 15.3094L19.7241 13.0741Z" fill="#F0F0F0"/>
<path d="M16.1413 20.5218C13.6441 20.5218 11.6196 18.4973 11.6196 16C11.6196 13.5028 13.6441 11.4783 16.1413 11.4783C16.92 11.4783 17.6527 11.6751 18.2923 12.0218C17.2888 11.0404 15.9165 10.4348 14.4022 10.4348C11.3286 10.4348 8.83704 12.9264 8.83704 15.9999C8.83704 19.0735 11.3287 21.5651 14.4022 21.5651C15.9166 21.5651 17.2888 20.9594 18.2923 19.9781C17.6526 20.3249 16.92 20.5218 16.1413 20.5218Z" fill="#F0F0F0"/>
</g>
<defs>
<clipPath id="clip0_14537_62254">
<rect width="32" height="32" fill="white"/>
</clipPath>
</defs>
</svg>
