<svg width="32" height="32" viewBox="0 0 32 32" fill="none" xmlns="http://www.w3.org/2000/svg">
<g clip-path="url(#clip0_14537_62261)">
<path d="M32 16C32 24.8365 24.8365 32 16 32C7.1635 32 0 24.8365 0 16C0.695625 16 16 13.9131 16 13.9131L32 16Z" fill="#D80027"/>
<path d="M0 16C0 7.1635 7.1635 0 16 0C24.8365 0 32 7.1635 32 16" fill="#0052B4"/>
<path d="M11.8261 11.1304C11.8261 9.97786 10.8917 9.04349 9.73915 9.04349C9.20446 9.04349 8.71715 9.24474 8.34783 9.5753V8.3478H9.04346V6.95649H8.34783V6.26086H6.95652V6.95649H6.2609V8.3478H6.95652V9.5753C6.58721 9.24474 6.0999 9.04349 5.56521 9.04349C4.41265 9.04349 3.47827 9.97786 3.47827 11.1304C3.47827 11.7484 3.74708 12.3034 4.1739 12.6856V13.9131H11.1304V12.6856C11.5573 12.3034 11.8261 11.7484 11.8261 11.1304Z" fill="#FFDA44"/>
</g>
<defs>
<clipPath id="clip0_14537_62261">
<rect width="32" height="32" fill="white"/>
</clipPath>
</defs>
</svg>
