<svg width="32" height="32" viewBox="0 0 32 32" fill="none" xmlns="http://www.w3.org/2000/svg">
<g clip-path="url(#clip0_14537_62289)">
<path d="M22.9565 1.58763C20.853 0.5705 18.4932 0 16 0C13.5068 0 11.147 0.5705 9.04353 1.58763L7.65222 16L9.04353 30.4124C11.147 31.4295 13.5068 32 16 32C18.4932 32 20.853 31.4295 22.9565 30.4124L24.3478 16L22.9565 1.58763Z" fill="#FFDA44"/>
<path d="M9.0435 1.5882C3.69156 4.17613 0 9.6567 0 16C0 22.3433 3.69156 27.8239 9.0435 30.4118V1.5882Z" fill="#0052B4"/>
<path d="M22.9565 1.5882V30.4118C28.3084 27.8239 32 22.3433 32 16C32 9.6567 28.3084 4.17613 22.9565 1.5882Z" fill="#0052B4"/>
<path d="M20.5218 17.3913L21.5652 18.7826V13.2174L20.5218 14.6087H17.3913V11.4783L18.7826 10.4348H13.2174L14.6087 11.4783V14.6087H11.4783L10.4348 13.2174V18.7826L11.4783 17.3913H14.6087V20.5218L13.2174 21.5652H18.7826L17.3913 20.5218V17.3913H20.5218Z" fill="#D80027"/>
<path d="M20.1739 15.3044H16.6956V11.826H15.3044V15.3044H11.826V16.6956H15.3044V20.1739H16.6956V16.6956H20.1739V15.3044Z" fill="#F0F0F0"/>
</g>
<defs>
<clipPath id="clip0_14537_62289">
<rect width="32" height="32" fill="white"/>
</clipPath>
</defs>
</svg>
