<svg width="32" height="32" viewBox="0 0 32 32" fill="none" xmlns="http://www.w3.org/2000/svg">
<g clip-path="url(#clip0_14537_62301)">
<path d="M16 32C24.8366 32 32 24.8366 32 16C32 7.16344 24.8366 0 16 0C7.16344 0 0 7.16344 0 16C0 24.8366 7.16344 32 16 32Z" fill="#F0F0F0"/>
<path d="M15.3043 16H31.9999C31.9999 14.5558 31.8074 13.1569 31.4488 11.826H15.3043V16Z" fill="#D80027"/>
<path d="M15.3043 7.65218H29.6516C28.6721 6.05393 27.4199 4.64124 25.9598 3.47824H15.3043V7.65218Z" fill="#D80027"/>
<path d="M16 32C19.7655 32 23.2266 30.6985 25.9598 28.5217H6.04016C8.77335 30.6985 12.2344 32 16 32Z" fill="#D80027"/>
<path d="M2.34833 24.3478H29.6516C30.4379 23.0648 31.0476 21.6622 31.4488 20.1739H0.551147C0.95221 21.6622 1.56202 23.0648 2.34833 24.3478Z" fill="#D80027"/>
<path d="M16 16C16 7.1635 16 6.12175 16 0C7.1635 0 0 7.1635 0 16H16Z" fill="#0052B4"/>
<path d="M10.6396 13.6956C8.45448 13.6956 6.6831 11.9242 6.6831 9.73913C6.6831 7.55407 8.45454 5.78263 10.6396 5.78263C11.3209 5.78263 11.962 5.95494 12.5217 6.25819C11.6437 5.39963 10.4429 4.86963 9.11785 4.86963C6.42854 4.86963 4.24829 7.04982 4.24829 9.73919C4.24829 12.4286 6.42854 14.6088 9.11785 14.6088C10.4429 14.6088 11.6437 14.0788 12.5217 13.2202C11.962 13.5233 11.321 13.6956 10.6396 13.6956Z" fill="#FFDA44"/>
<path d="M11.7545 6.95651L12.457 8.42539L14.0433 8.05889L13.3329 9.52382L14.6086 10.5355L13.0203 10.8936L13.0247 12.5218L11.7545 11.5031L10.4843 12.5218L10.4886 10.8936L8.90027 10.5355L10.176 9.52382L9.46558 8.05889L11.052 8.42539L11.7545 6.95651Z" fill="#FFDA44"/>
</g>
<defs>
<clipPath id="clip0_14537_62301">
<rect width="32" height="32" fill="white"/>
</clipPath>
</defs>
</svg>
