<svg width="32" height="32" viewBox="0 0 32 32" fill="none" xmlns="http://www.w3.org/2000/svg">
<g clip-path="url(#clip0_14537_62296)">
<path d="M0 16C0 17.9571 0.352063 19.8319 0.995188 21.5652L16 22.2609L31.0048 21.5653C31.648 19.8319 32 17.9571 32 16C32 14.0429 31.648 12.1681 31.0048 10.4348L16 9.73914L0.995188 10.4348C0.352063 12.1681 0 14.0429 0 16H0Z" fill="#D80027"/>
<path d="M16.0001 0C9.12061 0 3.25593 4.342 0.995239 10.4348H31.0049C28.7442 4.342 22.8795 0 16.0001 0Z" fill="black"/>
<path d="M31.0049 21.5652H0.995239C3.25593 27.6579 9.12061 32 16.0001 32C22.8795 32 28.7442 27.6579 31.0049 21.5652Z" fill="#496E2D"/>
<path d="M20.7821 7.65219L18.8281 6.73306L19.8687 4.84062L17.7468 5.24656L17.478 3.10294L16 4.6795L14.522 3.10294L14.2531 5.24656L12.1313 4.84062L13.1718 6.73306L11.2178 7.65219H20.7821Z" fill="#D80027"/>
</g>
<defs>
<clipPath id="clip0_14537_62296">
<rect width="32" height="32" fill="white"/>
</clipPath>
</defs>
</svg>
