<svg width="32" height="32" viewBox="0 0 32 32" fill="none" xmlns="http://www.w3.org/2000/svg">
<g clip-path="url(#clip0_14537_62312)">
<path d="M16 32C24.8366 32 32 24.8366 32 16C32 7.16344 24.8366 0 16 0C7.16344 0 0 7.16344 0 16C0 24.8366 7.16344 32 16 32Z" fill="#D80027"/>
<path d="M5.56519 8.34781H26.4347V23.6522H5.56519V8.34781Z" fill="#6DA544"/>
<path d="M18.5767 20.5218C16.0794 20.5218 14.0549 18.4973 14.0549 16C14.0549 13.5028 16.0794 11.4783 18.5767 11.4783C19.3553 11.4783 20.088 11.6751 20.7276 12.0218C19.7242 11.0404 18.352 10.4348 16.8375 10.4348C13.764 10.4348 11.2723 12.9264 11.2723 15.9999C11.2723 19.0735 13.764 21.5651 16.8375 21.5651C18.352 21.5651 19.7242 20.9594 20.7276 19.9781C20.088 20.3249 19.3553 20.5218 18.5767 20.5218Z" fill="#F0F0F0"/>
</g>
<defs>
<clipPath id="clip0_14537_62312">
<rect width="32" height="32" fill="white"/>
</clipPath>
</defs>
</svg>
