<svg width="32" height="32" viewBox="0 0 32 32" fill="none" xmlns="http://www.w3.org/2000/svg">
<g clip-path="url(#clip0_14537_62316)">
<path d="M21.5651 0.995188C19.8318 0.352063 17.9571 0 16 0C14.0428 0 12.1681 0.352063 10.4348 0.995188L9.04346 16L10.4348 31.0048C12.1681 31.648 14.0428 32 16 32C17.9571 32 19.8318 31.648 21.5651 31.0048L22.9565 16L21.5651 0.995188Z" fill="#FFDA44"/>
<path d="M32 16C32 9.12062 27.658 3.25586 21.5652 0.995239V31.0049C27.658 28.7441 32 22.8795 32 16Z" fill="#D80027"/>
<path d="M0 16C0 22.8795 4.342 28.7441 10.4348 31.0049V0.995239C4.342 3.25586 0 9.12061 0 16Z" fill="#6DA544"/>
</g>
<defs>
<clipPath id="clip0_14537_62316">
<rect width="32" height="32" fill="white"/>
</clipPath>
</defs>
</svg>
