<svg width="32" height="32" viewBox="0 0 32 32" fill="none" xmlns="http://www.w3.org/2000/svg">
<g clip-path="url(#clip0_14537_62324)">
<path d="M16 32C24.8365 32 32 24.8365 32 16C32 13.3148 31.3375 10.7846 30.1686 8.5625L15.9812 16.0187L23.4375 1.83138C21.2154 0.6625 18.6852 0 16 0C7.1635 0 0 7.1635 0 16C0 20.4183 1.79088 24.4183 4.68625 27.3137C7.58169 30.2092 11.5817 32 16 32Z" fill="#0052B4"/>
<path d="M30.1518 8.57995C29.4194 7.18595 28.4672 5.87714 27.2951 4.70501C26.1229 3.53289 24.8143 2.5807 23.4202 1.84839L4.6676 27.3325L30.1518 8.57995Z" fill="#F0F0F0"/>
<path d="M4.6676 27.3324L30.1518 8.57992C29.4194 7.18592 28.4672 5.87711 27.2951 4.70499L4.6676 27.3324Z" fill="#FF9811"/>
<path d="M13.8942 9.38262L11.9402 10.3017L12.9808 12.1942L10.8589 11.7883L10.59 13.9318L9.11202 12.3552L7.63402 13.9318L7.36527 11.7883L5.2434 12.1941L6.28383 10.3017L4.32983 9.38262L6.2839 8.46344L5.2434 6.57106L7.36515 6.97687L7.63408 4.83337L9.11202 6.40994L10.59 4.83337L10.8589 6.97687L12.9808 6.57106L11.9403 8.4635L13.8942 9.38262Z" fill="#F0F0F0"/>
</g>
<defs>
<clipPath id="clip0_14537_62324">
<rect width="32" height="32" fill="white"/>
</clipPath>
</defs>
</svg>
