<svg width="32" height="32" viewBox="0 0 32 32" fill="none" xmlns="http://www.w3.org/2000/svg">
<g clip-path="url(#clip0_14537_62329)">
<path d="M16 32C24.8366 32 32 24.8366 32 16C32 7.16344 24.8366 0 16 0C7.16344 0 0 7.16344 0 16C0 24.8366 7.16344 32 16 32Z" fill="#F0F0F0"/>
<path d="M31.8629 13.913C31.4215 10.5389 29.9059 7.27849 27.3137 4.6863C24.7215 2.09412 21.461 0.578429 18.0869 0.137054L18.087 13.913H31.8629Z" fill="#0052B4"/>
<path d="M13.913 0.137054C10.5389 0.578429 7.27846 2.09405 4.68627 4.68624C2.09415 7.27849 0.57846 10.5389 0.137085 13.9131L13.9131 13.9131L13.913 0.137054Z" fill="#0052B4"/>
<path d="M0.137085 18.087C0.57846 21.4611 2.09415 24.7216 4.68627 27.3137C7.27846 29.9059 10.5388 31.4215 13.9131 31.8631L13.913 18.0871L0.137085 18.087Z" fill="#0052B4"/>
<path d="M18.087 31.8629C21.4612 31.4215 24.7215 29.9059 27.3137 27.3137C29.9059 24.7215 31.4215 21.4611 31.8629 18.087H18.087V31.8629Z" fill="#0052B4"/>
<path d="M21.4618 10.1524C21.4618 9.93964 21.6348 9.7667 21.8476 9.7667H22.6741C23.9806 9.7667 25.0435 8.70383 25.0435 7.39739C25.0435 6.09095 23.9806 5.02801 22.6741 5.02801H21.8892C21.633 4.83558 21.2893 4.71689 20.9102 4.71689C20.1194 4.71689 19.4783 5.2297 19.4783 5.86233C19.4783 6.48883 20.1071 6.99708 20.8874 7.00695L20.887 7.01151H22.6741C22.8869 7.01151 23.0598 7.18451 23.0598 7.39726C23.0598 7.61001 22.8869 7.78295 22.6741 7.78295H21.8476C20.5411 7.78295 19.4783 8.84583 19.4783 10.1523C19.4783 11.4587 20.541 12.5216 21.8476 12.5216H25.0435V10.538H21.8476C21.6348 10.5381 21.4618 10.3651 21.4618 10.1524Z" fill="#F0F0F0"/>
<path d="M8.94004 10.1524C8.94004 9.93964 9.11298 9.7667 9.32579 9.7667H10.1523C11.4588 9.7667 12.5217 8.70383 12.5217 7.39739C12.5217 6.09095 11.4589 5.02801 10.1523 5.02801H9.36742C9.11123 4.83558 8.76754 4.71689 8.38842 4.71689C7.59761 4.71689 6.95654 5.2297 6.95654 5.86233C6.95654 6.48883 7.58536 6.99708 8.36561 7.00695L8.36523 7.01151H10.1524C10.3652 7.01151 10.5381 7.18451 10.5381 7.39726C10.5381 7.61001 10.3652 7.78295 10.1524 7.78295H9.32586C8.01936 7.78295 6.95654 8.84583 6.95654 10.1523C6.95654 11.4587 8.01929 12.5216 9.32586 12.5216H12.5217V10.538H9.32579C9.11298 10.5381 8.94004 10.3651 8.94004 10.1524Z" fill="#F0F0F0"/>
<path d="M21.4618 24.9138C21.4618 24.701 21.6347 24.5281 21.8475 24.5281H22.674C23.9805 24.5281 25.0435 23.4652 25.0435 22.1588C25.0435 20.8523 23.9806 19.7894 22.674 19.7894H21.8891C21.633 19.597 21.2893 19.4783 20.9101 19.4783C20.1193 19.4783 19.4782 19.9911 19.4782 20.6237C19.4782 21.2502 20.107 21.7585 20.8873 21.7683L20.8869 21.7729H22.674C22.8868 21.7729 23.0597 21.9459 23.0597 22.1586C23.0597 22.3714 22.8868 22.5443 22.674 22.5443H21.8475C20.541 22.5443 19.4781 23.6072 19.4781 24.9136C19.4781 26.2201 20.5409 27.283 21.8475 27.283H25.0434V25.2995H21.8475C21.6347 25.2995 21.4618 25.1265 21.4618 24.9138Z" fill="#F0F0F0"/>
<path d="M8.94011 24.9138C8.94011 24.701 9.11304 24.5281 9.32586 24.5281H10.1524C11.4589 24.5281 12.5218 23.4652 12.5218 22.1588C12.5218 20.8523 11.4589 19.7894 10.1524 19.7894H9.36748C9.11129 19.597 8.76761 19.4783 8.38848 19.4783C7.59761 19.4783 6.95654 19.9911 6.95654 20.6237C6.95654 21.2502 7.58536 21.7585 8.36561 21.7683L8.36523 21.7729H10.1524C10.3652 21.7729 10.5381 21.9459 10.5381 22.1586C10.5381 22.3714 10.3652 22.5443 10.1524 22.5443H9.32586C8.01936 22.5443 6.95654 23.6072 6.95654 24.9136C6.95654 26.2201 8.01929 27.283 9.32586 27.283H12.5217V25.2995H9.32586C9.11304 25.2995 8.94011 25.1265 8.94011 24.9138Z" fill="#F0F0F0"/>
</g>
<defs>
<clipPath id="clip0_14537_62329">
<rect width="32" height="32" fill="white"/>
</clipPath>
</defs>
</svg>
