<svg width="32" height="32" viewBox="0 0 32 32" fill="none" xmlns="http://www.w3.org/2000/svg">
<g clip-path="url(#clip0_14537_62346)">
<path d="M1.94543 8.34781L16 9.73913L30.0546 8.34781C27.3409 3.37431 22.0647 0 16 0C9.93531 0 4.65912 3.37431 1.94543 8.34781Z" fill="#D80027"/>
<path d="M1.94544 23.6522L16 25.0435L30.0546 23.6522C31.2948 21.379 32 18.7719 32 16L16 14.6087L0 16C0 18.7719 0.705188 21.379 1.94544 23.6522Z" fill="#FFDA44"/>
<path d="M1.94544 8.34781C0.705188 10.621 0 13.2281 0 16H32C32 13.2281 31.2948 10.621 30.0546 8.34781H16H1.94544Z" fill="#0052B4"/>
<path d="M16 32C22.0647 32 27.3409 28.6257 30.0546 23.6522H1.94543C4.65912 28.6257 9.93531 32 16 32Z" fill="#6DA544"/>
</g>
<defs>
<clipPath id="clip0_14537_62346">
<rect width="32" height="32" fill="white"/>
</clipPath>
</defs>
</svg>
