<svg width="32" height="32" viewBox="0 0 32 32" fill="none" xmlns="http://www.w3.org/2000/svg">
<g clip-path="url(#clip0_14537_62341)">
<path d="M16 32C24.8366 32 32 24.8366 32 16C32 7.16344 24.8366 0 16 0C7.16344 0 0 7.16344 0 16C0 24.8366 7.16344 32 16 32Z" fill="#496E2D"/>
<path d="M16 18.4844C13.3359 18.4844 11.1103 16.6121 10.5642 14.1118C10.4803 14.4961 10.4348 14.8947 10.4348 15.3043C10.4348 18.378 12.9264 20.8695 16 20.8695C19.0736 20.8695 21.5652 18.3779 21.5652 15.3043C21.5652 14.8947 21.5197 14.4961 21.4358 14.1117C20.8898 16.6121 18.6641 18.4844 16 18.4844Z" fill="#FFDA44"/>
<path d="M15.9999 11.1304L16.5179 12.7247H18.1944L16.8382 13.7101L17.3562 15.3044L15.9999 14.319L14.6437 15.3044L15.1618 13.7101L13.8056 12.7247H15.4819L15.9999 11.1304Z" fill="#FFDA44"/>
</g>
<defs>
<clipPath id="clip0_14537_62341">
<rect width="32" height="32" fill="white"/>
</clipPath>
</defs>
</svg>
