<svg width="32" height="32" viewBox="0 0 32 32" fill="none" xmlns="http://www.w3.org/2000/svg">
<g clip-path="url(#clip0_14537_62351)">
<path d="M16 32C24.8366 32 32 24.8366 32 16C32 7.16344 24.8366 0 16 0C7.16344 0 0 7.16344 0 16C0 24.8366 7.16344 32 16 32Z" fill="#338AF3"/>
<path d="M7.65222 17.3913H24.3478V19.4783H7.65222V17.3913Z" fill="#818085"/>
<path d="M10.4348 11.1304L16 11.8262L21.5652 11.1304V7.79131L19.3391 8.90437L16 5.56519L12.6609 8.90437L10.4348 7.79131V11.1304Z" fill="#FFDA44"/>
<path d="M9.04354 21.5653H6.95654V17.7392L7.65223 16.6956L6.95654 15.6522V13.2174H9.04354V21.5653Z" fill="#F0F0F0"/>
<path d="M25.0435 21.5653H22.9565V13.2174H25.0435V15.6521L24.3479 16.7131L25.0435 17.7393V21.5653Z" fill="#F0F0F0"/>
<path d="M6.95654 15.6522H25.0435V17.7391H6.95654V15.6522Z" fill="#ACABB1"/>
<path d="M16 24.3478C12.9313 24.3478 10.4348 21.8512 10.4348 18.7826V11.1305H21.5653V18.7826C21.5652 21.8512 19.0687 24.3478 16 24.3478Z" fill="#F0F0F0"/>
<path d="M16 22.2609C14.082 22.2609 12.5217 20.7005 12.5217 18.7826V13.2175H19.4782V18.7826C19.4782 20.7005 17.9179 22.2609 16 22.2609Z" fill="#0052B4"/>
<path d="M10.4348 11.1304H12.5218V13.2174H10.4348V11.1304Z" fill="#D80027"/>
<path d="M19.4783 11.1304H21.5652V13.2174H19.4783V11.1304Z" fill="#D80027"/>
<path d="M19.4783 15.6522H21.5652V17.7391H19.4783V15.6522Z" fill="#D80027"/>
<path d="M10.4348 15.6522H12.5218V17.7391H10.4348V15.6522Z" fill="#D80027"/>
<path d="M14.9565 11.1304H17.0435V13.2174H14.9565V11.1304Z" fill="#D80027"/>
<path d="M16 22.2609C15.6365 22.2609 15.2861 22.2046 14.9565 22.1007V24.2483C15.2948 24.3128 15.6433 24.3479 16 24.3479C16.3568 24.3479 16.7053 24.3128 17.0435 24.2483V22.1007C16.714 22.2046 16.3635 22.2609 16 22.2609Z" fill="#D80027"/>
<path d="M12.5682 19.3472L10.9027 21.0127C11.1915 21.6702 11.6035 22.2614 12.1098 22.757L13.5848 21.282C13.0585 20.7734 12.6918 20.1009 12.5682 19.3472Z" fill="#D80027"/>
<path d="M21.0972 21.0129L19.4317 19.3474C19.3081 20.101 18.9415 20.7734 18.4152 21.2822L19.8902 22.7572C20.3964 22.2615 20.8085 21.6703 21.0972 21.0129Z" fill="#D80027"/>
</g>
<defs>
<clipPath id="clip0_14537_62351">
<rect width="32" height="32" fill="white"/>
</clipPath>
</defs>
</svg>
