<svg width="32" height="32" viewBox="0 0 32 32" fill="none" xmlns="http://www.w3.org/2000/svg">
<g clip-path="url(#clip0_14537_62370)">
<path d="M16 32C24.8366 32 32 24.8366 32 16C32 7.16344 24.8366 0 16 0C7.16344 0 0 7.16344 0 16C0 24.8366 7.16344 32 16 32Z" fill="#F0F0F0"/>
<path d="M32 16C32 9.65663 28.3085 4.17563 22.9565 1.58763V30.4123C28.3085 27.8244 32 22.3434 32 16Z" fill="#D80027"/>
<path d="M0 16C0 22.3434 3.69156 27.8244 9.0435 30.4124V1.58763C3.69156 4.17563 0 9.65663 0 16Z" fill="#6DA544"/>
<path d="M11.826 16C11.826 18.3052 13.6948 20.1739 16 20.1739C18.3052 20.1739 20.1739 18.3052 20.1739 16V14.6087H11.826V16Z" fill="#6DA544"/>
<path d="M21.5652 13.2174H17.3913C17.3913 12.449 16.7683 11.8261 15.9999 11.8261C15.2316 11.8261 14.6086 12.449 14.6086 13.2174H10.4347C10.4347 13.9858 11.104 14.6087 11.8723 14.6087H11.826C11.826 15.3771 12.4489 16 13.2173 16C13.2173 16.7684 13.8402 17.3913 14.6086 17.3913H17.3913C18.1597 17.3913 18.7826 16.7684 18.7826 16C19.551 16 20.1739 15.3771 20.1739 14.6087H20.1275C20.8959 14.6087 21.5652 13.9858 21.5652 13.2174Z" fill="#FF9811"/>
</g>
<defs>
<clipPath id="clip0_14537_62370">
<rect width="32" height="32" fill="white"/>
</clipPath>
</defs>
</svg>
