<svg width="32" height="32" viewBox="0 0 32 32" fill="none" xmlns="http://www.w3.org/2000/svg">
<g clip-path="url(#clip0_14537_62377)">
<path d="M16 32C24.8366 32 32 24.8366 32 16C32 7.16344 24.8366 0 16 0C7.16344 0 0 7.16344 0 16C0 24.8366 7.16344 32 16 32Z" fill="#338AF3"/>
<path d="M16 6.9565L16.6907 9.08225H18.9259L17.1177 10.3961L17.8083 12.5217L16 11.208L14.1917 12.5217L14.8825 10.3961L13.0742 9.08225H15.3094L16 6.9565Z" fill="#F0F0F0"/>
<path d="M6.95654 16.0001L9.08229 15.3094V13.0741L10.3961 14.8825L12.5218 14.1918L11.208 16.0001L12.5218 17.8083L10.3961 17.1175L9.08229 18.9258V16.6907L6.95654 16.0001Z" fill="#F0F0F0"/>
<path d="M16.0002 25.0435L15.3095 22.9177H13.0742L14.8826 21.6039L14.1919 19.4782L16.0002 20.792L17.8083 19.4782L17.1176 21.6039L18.9259 22.9177H16.6908L16.0002 25.0435Z" fill="#F0F0F0"/>
<path d="M25.0435 15.9999L22.9178 16.6906V18.9258L21.604 17.1175L19.4783 17.8082L20.792 15.9999L19.4783 14.1918L21.604 14.8825L22.9178 13.0741V15.3093L25.0435 15.9999Z" fill="#F0F0F0"/>
</g>
<defs>
<clipPath id="clip0_14537_62377">
<rect width="32" height="32" fill="white"/>
</clipPath>
</defs>
</svg>
