<svg width="32" height="32" viewBox="0 0 32 32" fill="none" xmlns="http://www.w3.org/2000/svg">
<g clip-path="url(#clip0_14537_62394)">
<path d="M16 32C17.9571 32 19.8319 31.648 21.5652 31.0048L22.2609 16L21.5653 0.995188C19.8319 0.352063 17.9571 0 16 0C14.0429 0 12.1681 0.352063 10.4348 0.995188L9.73914 16L10.4348 31.0048C12.1681 31.648 14.0429 32 16 32Z" fill="#0052B4"/>
<path d="M0 16C0 22.8794 4.342 28.7441 10.4348 31.0048V0.995193C4.342 3.25588 0 9.12057 0 16Z" fill="#A2001D"/>
<path d="M21.5652 0.995193V31.0049C27.658 28.7441 32 22.8794 32 16C32 9.12057 27.658 3.25588 21.5652 0.995193Z" fill="#A2001D"/>
<path d="M7.65222 16H9.04353V21.5652H7.65222V16Z" fill="#FFDA44"/>
<path d="M2.08691 16H3.47823V21.5652H2.08691V16Z" fill="#FFDA44"/>
<path d="M5.56514 19.4782C6.33354 19.4782 6.95645 18.8553 6.95645 18.0869C6.95645 17.3185 6.33354 16.6956 5.56514 16.6956C4.79674 16.6956 4.17383 17.3185 4.17383 18.0869C4.17383 18.8553 4.79674 19.4782 5.56514 19.4782Z" fill="#FFDA44"/>
<path d="M5.56513 13.913C5.94931 13.913 6.26076 13.6016 6.26076 13.2174C6.26076 12.8332 5.94931 12.5217 5.56513 12.5217C5.18095 12.5217 4.86951 12.8332 4.86951 13.2174C4.86951 13.6016 5.18095 13.913 5.56513 13.913Z" fill="#FFDA44"/>
<path d="M4.17395 20.1739H6.95658V21.5652H4.17395V20.1739Z" fill="#FFDA44"/>
<path d="M4.17395 14.6087H6.95658V16H4.17395V14.6087Z" fill="#FFDA44"/>
<path d="M5.56521 8.34781L6.05796 9.86406H7.65221L6.36252 10.8012L6.8549 12.3174L5.56521 11.3803L4.27558 12.3174L4.76796 10.8012L3.47827 9.86406H5.07252L5.56521 8.34781Z" fill="#FFDA44"/>
</g>
<defs>
<clipPath id="clip0_14537_62394">
<rect width="32" height="32" fill="white"/>
</clipPath>
</defs>
</svg>
