<svg width="32" height="32" viewBox="0 0 32 32" fill="none" xmlns="http://www.w3.org/2000/svg">
<g clip-path="url(#clip0_14537_62407)">
<path d="M16 32C24.8366 32 32 24.8366 32 16C32 7.16344 24.8366 0 16 0C7.16344 0 0 7.16344 0 16C0 24.8366 7.16344 32 16 32Z" fill="#FFDA44"/>
<path d="M32 16C32 10.5087 29.2332 5.66406 25.0179 2.78262H6.98206C2.76687 5.66406 0 10.5087 0 16C0 21.4914 2.76687 26.3359 6.98206 29.2174H25.0179C29.2332 26.3359 32 21.4914 32 16Z" fill="#A2001D"/>
<path d="M12.5217 11.8261H19.4782V9.0435L18.0869 9.73913L16 7.65219L13.913 9.73913L12.5217 9.0435V11.8261Z" fill="#FFDA44"/>
<path d="M22.2609 16H18.784C18.9203 15.7641 18.9996 15.4912 18.9996 15.1992C18.9996 14.3125 18.2808 13.5938 17.3942 13.5938C16.7816 13.5938 16.2496 13.9371 15.979 14.4414C15.7083 13.937 15.1763 13.5938 14.5637 13.5938C13.6771 13.5938 12.9583 14.3125 12.9583 15.1992C12.9583 15.4913 13.0377 15.7642 13.174 16H9.73901C9.73901 17.0639 10.6657 17.9264 11.7296 17.9264H11.6655C11.6655 18.7991 12.2459 19.5359 13.0417 19.7726L11.4781 21.3363L12.9538 22.812L15.0471 20.7187C15.1291 20.7488 15.214 20.7728 15.3016 20.7893L14.0368 23.6452C14.6429 23.8917 15.3053 24.0285 16 24.0285C16.6946 24.0285 17.3571 23.8917 17.9633 23.6452L16.6984 20.7893C16.786 20.7728 16.8708 20.7488 16.9528 20.7187L19.0461 22.812L20.5217 21.3363L18.9581 19.7727C19.7538 19.5359 20.3343 18.7991 20.3343 17.9264H20.2701C21.3341 17.9264 22.2609 17.0639 22.2609 16Z" fill="#FFDA44"/>
<path d="M16 17.0435L13.7391 18.0869V20.1739L16 21.5652L18.2609 20.1739V18.0869L16 17.0435Z" fill="#6DA544"/>
<path d="M13.7391 16H18.2609V18.7826H13.7391V16Z" fill="#0052B4"/>
</g>
<defs>
<clipPath id="clip0_14537_62407">
<rect width="32" height="32" fill="white"/>
</clipPath>
</defs>
</svg>
