<svg width="32" height="32" viewBox="0 0 32 32" fill="none" xmlns="http://www.w3.org/2000/svg">
<g clip-path="url(#clip0_14537_62415)">
<path d="M32 16C32 24.8365 24.8365 32 16 32C7.1635 32 0 24.8365 0 16C0 16.0038 16 0.00175 16 0C24.8365 0 32 7.1635 32 16Z" fill="#0052B4"/>
<path d="M15.9572 16H16C16 15.9856 16 15.9716 16 15.9572C15.9857 15.9715 15.9715 15.9857 15.9572 16Z" fill="#F0F0F0"/>
<path d="M16 8.34781C16 5.5325 16 3.68781 16 0H15.9973C7.16194 0.0015 0 7.16431 0 16H8.34781V11.2993L13.0485 16H15.9572C15.9715 15.9858 15.9858 15.9715 16.0001 15.9572C16.0001 14.8793 16.0001 13.9174 16.0001 13.0486L11.2992 8.34781H16Z" fill="#F0F0F0"/>
<path d="M8.09466 2.08694C5.59223 3.51187 3.51179 5.59225 2.08691 8.09469V16H6.26085V6.261V6.26087H16C16 4.94444 16 3.69031 16 2.08694H8.09466Z" fill="#D80027"/>
<path d="M16 14.0324L10.3153 8.34788H8.34778V8.348L15.9998 16H16C16 16 16 14.6433 16 14.0324Z" fill="#D80027"/>
<path d="M18.0869 8.34781V15.9999C18.0869 19.7274 22.9565 20.8696 22.9565 20.8696C22.9565 20.8696 27.826 19.7274 27.826 15.9999V8.34781H18.0869Z" fill="#338AF3"/>
<path d="M18.0869 15.9999C18.0869 19.7274 22.9565 20.8696 22.9565 20.8696C22.9565 20.8696 27.826 19.7274 27.826 15.9999H18.0869Z" fill="#A2001D"/>
<path d="M25.0434 11.8262H23.6521V10.4348H22.2608V11.8262H20.8695V13.2174H22.2608V17.3913H23.6521V13.2174H25.0434V11.8262Z" fill="black"/>
</g>
<defs>
<clipPath id="clip0_14537_62415">
<rect width="32" height="32" fill="white"/>
</clipPath>
</defs>
</svg>
