<svg width="32" height="32" viewBox="0 0 32 32" fill="none" xmlns="http://www.w3.org/2000/svg">
<g clip-path="url(#clip0_14537_62427)">
<path d="M16 32C24.8366 32 32 24.8366 32 16C32 7.16344 24.8366 0 16 0C7.16344 0 0 7.16344 0 16C0 24.8366 7.16344 32 16 32Z" fill="#D80027"/>
<path d="M25.4556 13.1306H18.2322L16.0001 6.26087L13.7679 13.1306H6.54456L12.3884 17.3764L10.1562 24.2463L16.0001 20.0005L21.8439 24.2464L19.6117 17.3764L25.4556 13.1306ZM14.0239 16.8449L14.7787 14.5219H17.2213L17.9762 16.8449V16.845L16.0001 18.2807L14.024 16.845L14.0239 16.8449ZM16.7693 13.1306H15.2309L16.0001 10.7631L16.7693 13.1306ZM19.1596 15.9851L18.6842 14.5219H21.1735L19.1596 15.9851ZM13.3159 14.5219L12.8404 15.9851L10.8265 14.5219H13.3159ZM12.8026 20.6038L13.5719 18.2364L14.8166 19.1406L12.8026 20.6038ZM17.1836 19.1407L18.4282 18.2364L19.1975 20.6039L17.1836 19.1407Z" fill="#FFDA44"/>
</g>
<defs>
<clipPath id="clip0_14537_62427">
<rect width="32" height="32" fill="white"/>
</clipPath>
</defs>
</svg>
