<svg width="32" height="32" viewBox="0 0 32 32" fill="none" xmlns="http://www.w3.org/2000/svg">
<g clip-path="url(#clip0_14537_62430)">
<path d="M16 32C24.8366 32 32 24.8366 32 16C32 7.16344 24.8366 0 16 0C7.16344 0 0 7.16344 0 16C0 24.8366 7.16344 32 16 32Z" fill="#F0F0F0"/>
<path d="M8.64814 22.2609L4.68677 27.3132C7.58202 30.2088 11.5816 32 16 32C22.6143 32 28.2902 27.9857 30.7269 22.2609H8.64814Z" fill="#FFDA44"/>
<path d="M30.7518 9.79706C28.3287 4.04138 22.6367 0 16 0C11.5816 0 7.58202 1.79119 4.68677 4.68681L8.69364 9.79706H30.7518Z" fill="#496E2D"/>
<path d="M3.47827 11.7681V20.1739H31.4489C31.8078 18.8432 32 17.4442 32 16C32 14.5349 31.8026 13.1161 31.4337 11.7681H3.47827Z" fill="black"/>
<path d="M4.68628 4.68625C-1.56209 10.9346 -1.56209 21.0653 4.68628 27.3137C7.26834 24.7317 9.75166 22.2484 16 16L4.68628 4.68625Z" fill="#A2001D"/>
<path d="M6.4756 11.8261L7.51154 15.0146H10.8644L8.15204 16.9853L9.18791 20.1739L6.4756 18.2033L3.76316 20.1739L4.79929 16.9853L2.08691 15.0146H5.43954L6.4756 11.8261Z" fill="#FFDA44"/>
<path d="M3.44421 16H9.50821V18.7826H3.44421V16Z" fill="#F0F0F0"/>
<path d="M10.6563 12.8099L9.67248 11.8261L6.47573 15.0228L3.27898 11.8261L2.29517 12.8099L5.49473 16.0038L2.29517 19.2034L3.27898 20.1739L6.47573 16.9829L9.67248 20.1739L10.6563 19.2034L7.45673 16.0038L10.6563 12.8099Z" fill="black"/>
</g>
<defs>
<clipPath id="clip0_14537_62430">
<rect width="32" height="32" fill="white"/>
</clipPath>
</defs>
</svg>
