<svg width="32" height="32" viewBox="0 0 32 32" fill="none" xmlns="http://www.w3.org/2000/svg">
<g clip-path="url(#clip0_14537_62439)">
<path d="M31.0048 21.5652C31.648 19.8319 32 17.9571 32 16C32 14.0429 31.648 12.1681 31.0048 10.4348L16 9.0435L0.995188 10.4348C0.352063 12.1681 0 14.0429 0 16C0 17.9571 0.352063 19.8319 0.995188 21.5652L16 22.9565L31.0048 21.5652Z" fill="#6DA544"/>
<path d="M31.0048 10.4348C28.7441 4.342 22.8794 0 16 0C9.12055 0 3.25587 4.342 0.995178 10.4348H31.0048Z" fill="#FFDA44"/>
<path d="M16 32C22.8794 32 28.7441 27.658 31.0048 21.5652H0.995178C3.25587 27.658 9.12055 32 16 32Z" fill="#D80027"/>
<path d="M26.9718 13.5366H18.5901L16 5.56519L13.4099 13.5366H5.0282L11.8091 18.4632L9.21901 26.4348L16 21.5652L22.781 26.4347L20.1909 18.4632L26.9718 13.5366Z" fill="#F0F0F0"/>
</g>
<defs>
<clipPath id="clip0_14537_62439">
<rect width="32" height="32" fill="white"/>
</clipPath>
</defs>
</svg>
