<svg width="32" height="32" viewBox="0 0 32 32" fill="none" xmlns="http://www.w3.org/2000/svg">
<g clip-path="url(#clip0_14537_62444)">
<path d="M16 32C24.8366 32 32 24.8366 32 16C32 7.16344 24.8366 0 16 0C7.16344 0 0 7.16344 0 16C0 24.8366 7.16344 32 16 32Z" fill="#F0F0F0"/>
<path d="M4.68634 27.3138C5.35752 27.9849 6.07365 28.5835 6.82484 29.1105L29.1104 6.82488C28.5835 6.07369 27.9849 5.35756 27.3136 4.68638C26.6425 4.01519 25.9263 3.41669 25.1751 2.88969L2.88965 25.1753C3.41659 25.9264 4.01515 26.6426 4.68634 27.3138Z" fill="#A2001D"/>
<path d="M4.6862 4.68608C-0.361554 9.73383 -1.33055 17.3146 1.77713 23.3359L23.336 1.77714C17.3146 -1.33055 9.73382 -0.361424 4.6862 4.68608Z" fill="#0052B4"/>
<path d="M27.3136 27.3138C32.3613 22.2661 33.3303 14.6853 30.2227 8.66387L8.66382 30.2228C14.6851 33.3304 22.2659 32.3614 27.3136 27.3138Z" fill="#496E2D"/>
<path d="M13.2174 9.0435L11.4245 9.88681L12.3793 11.6232L10.4325 11.2508L10.1857 13.2174L8.8297 11.7709L7.47364 13.2174L7.22702 11.2508L5.28014 11.6231L6.23483 9.88675L4.44202 9.0435L6.23489 8.20012L5.28014 6.46387L7.22695 6.83625L7.4737 4.86956L8.8297 6.31606L10.1858 4.86956L10.4325 6.83625L12.3793 6.46387L11.4246 8.20019L13.2174 9.0435Z" fill="#FFDA44"/>
</g>
<defs>
<clipPath id="clip0_14537_62444">
<rect width="32" height="32" fill="white"/>
</clipPath>
</defs>
</svg>
