<svg width="32" height="32" viewBox="0 0 32 32" fill="none" xmlns="http://www.w3.org/2000/svg">
<g clip-path="url(#clip0_14537_62450)">
<path d="M16 32C24.8366 32 32 24.8366 32 16C32 7.16344 24.8366 0 16 0C7.16344 0 0 7.16344 0 16C0 24.8366 7.16344 32 16 32Z" fill="#0052B4"/>
<path d="M22.8666 17.1162C22.9254 16.7527 22.9565 16.3799 22.9565 16C22.9565 16.3799 22.9254 16.7527 22.8666 17.1162L25.7391 16L22.8666 14.8838L21.2887 14.2708L18.7253 13.2747L17.7292 10.7113C19.4089 11.2618 20.7381 12.591 21.2887 14.2707L22.8665 14.8838C22.3897 11.9403 20.0596 9.61013 17.1162 9.13338L16 6.26088L14.8837 9.13344C11.9402 9.61031 9.61024 11.9403 9.13343 14.8838L6.26086 16L9.13349 17.1162C9.6103 20.0597 11.9403 22.3897 14.8838 22.8666L16 25.7391L17.1162 22.8666C20.0597 22.3897 22.3897 20.0597 22.8666 17.1162ZM17.6505 14.3496L16 16H21.8978L17.6504 17.6505L16 16V21.8979L14.3495 17.6504L16 16H10.1022L14.3495 14.3496L16 16V10.1022L17.6505 14.3496ZM14.2707 10.7113L13.2746 13.2748L10.7112 14.2708C11.2618 12.591 12.591 11.2619 14.2707 10.7113ZM10.7113 17.7293L13.2746 18.7254L14.2707 21.2887C12.591 20.7381 11.2619 19.409 10.7113 17.7293ZM17.7293 21.2887L18.7254 18.7254L21.2887 17.7293C20.7381 19.409 19.409 20.7381 17.7293 21.2887Z" fill="#F0F0F0"/>
<path d="M21.8978 16H16L17.6505 17.6505L21.8978 16Z" fill="#0052B4"/>
<path d="M10.1022 16H16L14.3495 14.3496L10.1022 16Z" fill="#0052B4"/>
<path d="M16 21.8979V16L14.3495 17.6505L16 21.8979Z" fill="#0052B4"/>
<path d="M16 16L17.6505 14.3496L16 10.1022V16Z" fill="#0052B4"/>
<path d="M15.3043 2.08694H16.6956V4.86956H15.3043V2.08694Z" fill="#F0F0F0"/>
<path d="M2.08691 15.3044H4.86954V16.6957H2.08691V15.3044Z" fill="#F0F0F0"/>
<path d="M15.3043 27.1304H16.6956V29.9131H15.3043V27.1304Z" fill="#F0F0F0"/>
<path d="M27.1304 15.3044H29.913V16.6957H27.1304V15.3044Z" fill="#F0F0F0"/>
</g>
<defs>
<clipPath id="clip0_14537_62450">
<rect width="32" height="32" fill="white"/>
</clipPath>
</defs>
</svg>
