<svg width="32" height="32" viewBox="0 0 32 32" fill="none" xmlns="http://www.w3.org/2000/svg">
<g clip-path="url(#clip0_14537_62463)">
<path d="M16 32C24.8366 32 32 24.8366 32 16C32 7.16344 24.8366 0 16 0C7.16344 0 0 7.16344 0 16C0 24.8366 7.16344 32 16 32Z" fill="#0052B4"/>
<path d="M16 32C24.8366 32 32 24.8366 32 16C32 7.16344 24.8366 0 16 0C7.16344 0 0 7.16344 0 16C0 24.8366 7.16344 32 16 32Z" fill="#FFDA44"/>
<path d="M16 0C7.63223 0 0.766101 6.42381 0.0609131 14.6087H31.9391C31.2339 6.42381 24.3677 0 16 0Z" fill="#0052B4"/>
<path d="M16 32C24.3677 32 31.2339 25.5762 31.9391 17.3913H0.0609131C0.766101 25.5762 7.63223 32 16 32Z" fill="#0052B4"/>
<path d="M13.2175 21.5652L11.4246 22.4086L12.3793 24.1449L10.4325 23.7724L10.1858 25.7391L8.8297 24.2927L7.4737 25.7391L7.22702 23.7724L5.28014 24.1448L6.23489 22.4085L4.44202 21.5652L6.23495 20.7219L5.28014 18.9856L7.22695 19.358L7.47377 17.3913L8.8297 18.8377L10.1858 17.3913L10.4325 19.358L12.3793 18.9856L11.4246 20.7219L13.2175 21.5652Z" fill="#F0F0F0"/>
</g>
<defs>
<clipPath id="clip0_14537_62463">
<rect width="32" height="32" fill="white"/>
</clipPath>
</defs>
</svg>
