<svg width="32" height="32" viewBox="0 0 32 32" fill="none" xmlns="http://www.w3.org/2000/svg">
<g clip-path="url(#clip0_14537_62470)">
<path d="M16 32C24.8366 32 32 24.8366 32 16C32 7.16344 24.8366 0 16 0C7.16344 0 0 7.16344 0 16C0 24.8366 7.16344 32 16 32Z" fill="#F0F0F0"/>
<path d="M31.906 17.739L31.9057 17.7386L31.9056 17.739H31.906Z" fill="#0052B4"/>
<path d="M31.9056 17.7391C31.9056 17.739 31.9057 17.7389 31.9057 17.7386L14.3591 0.0831871C13.5676 0.163875 12.793 0.30225 12.0398 0.494062C5.11862 2.25625 0 16 0 16C0 16 22.3999 30.9897 24.9553 29.2603C25.4666 28.9142 25.9569 28.5394 26.4236 28.1382L16.0247 17.7391H31.9056Z" fill="#0052B4"/>
<path d="M27.8261 16L12.2653 0.439312C5.2305 2.12162 0 8.4495 0 16C0 24.8365 7.1635 32 16 32C19.3518 32 22.4623 30.9686 25.0331 29.2069L11.8261 16H27.8261Z" fill="#D80027"/>
<path d="M15.217 23.6246L13.263 22.7054L14.3035 20.813L12.1817 21.2189L11.9128 19.0753L10.4348 20.6519L8.9569 19.0753L8.68796 21.2189L6.56615 20.8129L7.60671 22.7054L5.65259 23.6246L7.60671 24.5436L6.56615 26.4361L8.68809 26.0303L8.95684 28.1737L10.4348 26.5972L11.9128 28.1737L12.1817 26.0303L14.3035 26.4362L13.2629 24.5438L15.217 23.6246Z" fill="#F0F0F0"/>
<path d="M13.9131 8.87394L12.4919 8.2055L13.2487 6.82906L11.7054 7.12431L11.5098 5.56519L10.4349 6.71187L9.35992 5.56519L9.16429 7.12431L7.62098 6.82906L8.37786 8.2055L6.95654 8.87394L10.4349 9.56969L13.9131 8.87394Z" fill="#F0F0F0"/>
<path d="M14.6087 8.87394C14.6087 11.1791 12.74 13.0479 10.4348 13.0479C8.12961 13.0479 6.26086 11.1791 6.26086 8.87394" fill="#F0F0F0"/>
</g>
<defs>
<clipPath id="clip0_14537_62470">
<rect width="32" height="32" fill="white"/>
</clipPath>
</defs>
</svg>
