<svg width="32" height="32" viewBox="0 0 32 32" fill="none" xmlns="http://www.w3.org/2000/svg">
<g clip-path="url(#clip0_14537_62480)">
<path d="M16 32C24.8366 32 32 24.8366 32 16C32 7.16344 24.8366 0 16 0C7.16344 0 0 7.16344 0 16C0 24.8366 7.16344 32 16 32Z" fill="#F0F0F0"/>
<path d="M16 0C9.12055 0 3.25587 4.342 0.995178 10.4348H31.0049C28.7441 4.342 22.8794 0 16 0Z" fill="#A2001D"/>
<path d="M16 32C22.8794 32 28.7441 27.658 31.0048 21.5652H0.995178C3.25587 27.658 9.12055 32 16 32Z" fill="#0052B4"/>
</g>
<defs>
<clipPath id="clip0_14537_62480">
<rect width="32" height="32" fill="white"/>
</clipPath>
</defs>
</svg>
