<svg width="32" height="32" viewBox="0 0 32 32" fill="none" xmlns="http://www.w3.org/2000/svg">
<g clip-path="url(#clip0_14537_62484)">
<path d="M32 16C32 24.8365 24.8365 32 16 32C7.1635 32 0 24.8365 0 16C0 16.0038 16 0.00175 16 0C24.8365 0 32 7.1635 32 16Z" fill="#0052B4"/>
<path d="M15.9572 16H16C16 15.9856 16 15.9716 16 15.9572C15.9857 15.9715 15.9715 15.9858 15.9572 16Z" fill="#F0F0F0"/>
<path d="M16 8.34781C16 5.5325 16 3.68781 16 0H15.9973C7.162 0.0015 0 7.16431 0 16H8.34781V11.2993L13.0486 16H15.9572C15.9715 15.9858 15.9858 15.9715 16.0001 15.9572C16.0001 14.8793 16.0001 13.9174 16.0001 13.0486L11.2992 8.34781H16Z" fill="#F0F0F0"/>
<path d="M8.09466 2.08694C5.59223 3.51187 3.51185 5.59225 2.08691 8.09469V16H6.26085V6.261V6.26087H16C16 4.94444 16 3.69031 16 2.08694H8.09466Z" fill="#D80027"/>
<path d="M16 14.0324L10.3155 8.34787C10.3155 8.34787 8.3479 8.348 8.3479 8.34787V8.348L16 16H16C16 16 16 14.6433 16 14.0324Z" fill="#D80027"/>
<path d="M27.7081 11.8724L28.0534 12.9353H29.171L28.2669 13.5922L28.6122 14.655L27.7081 13.9982L26.8039 14.655L27.1493 13.5922L26.2451 12.9353H27.3627L27.7081 11.8724Z" fill="#D80027"/>
<path d="M23.7132 19.5246L24.2312 21.1189H25.9075L24.5513 22.1042L25.0694 23.6985L23.7132 22.7132L22.3569 23.6985L22.875 22.1042L21.5188 21.1189H23.1951L23.7132 19.5246Z" fill="#D80027"/>
<path d="M23.8641 7.00288L24.2958 8.33156H25.6928L24.5625 9.1525L24.9943 10.4811L23.8641 9.65994L22.734 10.4811L23.1656 9.1525L22.0355 8.33156H23.4324L23.8641 7.00288Z" fill="#D80027"/>
<path d="M20.0201 11.8261L20.5381 13.4204H22.2144L20.8582 14.4057L21.3763 16L20.0201 15.0147L18.6638 16L19.1819 14.4057L17.8257 13.4204H19.502L20.0201 11.8261Z" fill="#D80027"/>
</g>
<defs>
<clipPath id="clip0_14537_62484">
<rect width="32" height="32" fill="white"/>
</clipPath>
</defs>
</svg>
