<svg width="32" height="32" viewBox="0 0 32 32" fill="none" xmlns="http://www.w3.org/2000/svg">
<g clip-path="url(#clip0_14537_62497)">
<path d="M16 32C24.8366 32 32 24.8366 32 16C32 7.16344 24.8366 0 16 0C7.16344 0 0 7.16344 0 16C0 24.8366 7.16344 32 16 32Z" fill="#F0F0F0"/>
<path d="M16 0C9.65665 0 4.17565 3.69156 1.58765 9.0435H30.4123C27.8244 3.69156 22.3433 0 16 0Z" fill="#338AF3"/>
<path d="M16 32C22.3433 32 27.8244 28.3084 30.4124 22.9565H1.58765C4.17565 28.3084 9.65664 32 16 32Z" fill="#338AF3"/>
<path d="M16.0001 11.1304C13.3107 11.1304 11.1305 13.3106 11.1305 16C11.1305 18.6894 13.3107 20.8696 16.0001 20.8696C18.6894 20.8696 20.8696 18.6894 20.8696 16C20.8696 13.3106 18.6894 11.1304 16.0001 11.1304ZM16.0001 18.7826C14.4633 18.7826 13.2174 17.5369 13.2174 16C13.2174 14.4631 14.4632 13.2174 16.0001 13.2174C17.5369 13.2174 18.7827 14.4631 18.7827 16C18.7827 17.5369 17.5368 18.7826 16.0001 18.7826Z" fill="#FFDA44"/>
<path d="M18.4099 16.6956L16 16L13.5901 16.6956L12.7869 18.0869H19.2131L18.4099 16.6956Z" fill="#0052B4"/>
<path d="M16 12.5218L14.3934 15.3044L16 16L17.6066 15.3044L16 12.5218Z" fill="#338AF3"/>
<path d="M13.5901 16.6956H18.4098L17.6065 15.3044H14.3934L13.5901 16.6956Z" fill="#6DA544"/>
</g>
<defs>
<clipPath id="clip0_14537_62497">
<rect width="32" height="32" fill="white"/>
</clipPath>
</defs>
</svg>
