<svg width="32" height="32" viewBox="0 0 32 32" fill="none" xmlns="http://www.w3.org/2000/svg">
<g clip-path="url(#clip0_14537_62506)">
<path d="M1.58763 9.0435C0.5705 11.147 0 13.5068 0 16C0 18.4932 0.5705 20.853 1.58763 22.9565L16 24.3478L30.4124 22.9565C31.4295 20.853 32 18.4932 32 16C32 13.5068 31.4295 11.147 30.4124 9.0435L16 7.65219L1.58763 9.0435Z" fill="#F0F0F0"/>
<path d="M1.58813 22.9565C4.17601 28.3084 9.65657 32 15.9999 32C22.3433 32 27.8239 28.3084 30.4118 22.9565H1.58813Z" fill="#6DA544"/>
<path d="M1.58813 9.0435H30.4118C27.8239 3.69156 22.3433 0 15.9999 0C9.65664 0 4.17601 3.69156 1.58813 9.0435Z" fill="#FF9811"/>
<path d="M16 21.5652C19.0736 21.5652 21.5652 19.0736 21.5652 16C21.5652 12.9264 19.0736 10.4348 16 10.4348C12.9264 10.4348 10.4348 12.9264 10.4348 16C10.4348 19.0736 12.9264 21.5652 16 21.5652Z" fill="#FF9811"/>
</g>
<defs>
<clipPath id="clip0_14537_62506">
<rect width="32" height="32" fill="white"/>
</clipPath>
</defs>
</svg>
