<svg width="32" height="32" viewBox="0 0 32 32" fill="none" xmlns="http://www.w3.org/2000/svg">
<g clip-path="url(#clip0_14537_62517)">
<path d="M32 16C32 24.8365 24.8365 32 16 32C7.1635 32 0 24.8365 0 16C0 16.0038 16 0.00175 16 0C24.8365 0 32 7.1635 32 16Z" fill="#FFDA44"/>
<path d="M16 7.65219V13.0486L10.4348 7.65219H16Z" fill="#0052B4"/>
<path d="M8.34785 16H13.0485L8.34785 9.73912L7.65222 14.6087L8.34785 16Z" fill="#0052B4"/>
<path d="M15.9572 16H16C16 15.9856 16 15.9716 16 15.9572C15.9857 15.9715 15.9715 15.9858 15.9572 16Z" fill="#F0F0F0"/>
<path d="M16 8.34781C16 5.5325 16 3.68781 16 0H15.9973C7.16194 0.0015 0 7.16431 0 16H8.34781V11.2993L13.0485 16H15.9572C15.9715 15.9858 15.9858 15.9715 16.0001 15.9572C16.0001 14.8793 16.0001 13.9174 16.0001 13.0486L11.2992 8.34781H16Z" fill="#F0F0F0"/>
<path d="M16 14.0324L10.3153 8.34787H8.34778V8.348L15.9998 16H16C16 16 16 14.6433 16 14.0324Z" fill="#D80027"/>
<path d="M8.09466 2.08694C7.47785 2.43819 6.88691 2.82962 6.32491 3.25694H6.98141L5.24629 4.51781L5.90891 6.55762L4.17379 5.297L3.98916 5.43119C3.26873 6.24931 2.62998 7.14106 2.08691 8.09469V16H6.26085V6.261V6.26087H16C16 4.94444 16 3.69031 16 2.08694H8.09466Z" fill="#D80027"/>
<path d="M6.83496 2.8845C6.6624 3.00531 6.49227 3.1295 6.32471 3.25694L5.24627 4.51781L4.17377 5.29694L3.98759 5.43219C3.59471 5.87844 3.22627 6.34669 2.8844 6.835C3.27409 7.02412 3.71152 7.13044 4.17377 7.13044C5.80665 7.13044 7.13027 5.80681 7.13027 4.17394C7.1304 3.71156 7.02415 3.27425 6.83496 2.8845Z" fill="#0052B4"/>
<path d="M3.98779 5.43218L4.17398 5.29693L5.90911 6.55762L5.24642 4.51781L6.98142 3.25694H6.32479C5.47517 3.90312 4.69223 4.63212 3.98779 5.43218Z" fill="#FFDA44"/>
<path d="M11.0589 2.78262L11.4043 3.84544H12.5218L11.6178 4.50237L11.9629 5.56519L11.0589 4.90831L10.1549 5.56519L10.5 4.50237L9.59595 3.84544H10.7135L11.0589 2.78262Z" fill="#FFDA44"/>
<path d="M4.174 9.73912L4.51937 10.8019H5.63687L4.73287 11.4589L5.07806 12.5217L4.174 11.8648L3.26987 12.5217L3.61506 11.4589L2.71106 10.8019H3.82856L4.174 9.73912Z" fill="#FFDA44"/>
</g>
<defs>
<clipPath id="clip0_14537_62517">
<rect width="32" height="32" fill="white"/>
</clipPath>
</defs>
</svg>
