<svg width="32" height="32" viewBox="0 0 32 32" fill="none" xmlns="http://www.w3.org/2000/svg">
<g clip-path="url(#clip0_14537_62534)">
<path d="M22.9565 1.58763C20.853 0.5705 18.4932 0 16 0C13.5068 0 11.147 0.5705 9.04353 1.58763L7.65222 16L9.04353 30.4124C11.147 31.4295 13.5068 32 16 32C18.4932 32 20.853 31.4295 22.9565 30.4124L24.3478 16L22.9565 1.58763Z" fill="#F0F0F0"/>
<path d="M9.0435 1.58819C3.69156 4.17606 0 9.65663 0 16C0 22.3434 3.69156 27.8239 9.0435 30.4118V1.58819Z" fill="#6DA544"/>
<path d="M22.9565 1.58819V30.4118C28.3085 27.8239 32 22.3433 32 16C32 9.65669 28.3085 4.17606 22.9565 1.58819Z" fill="#6DA544"/>
<path d="M20.1739 20.8696L16 7.65219L11.826 20.8696H14.9565V24.3478H17.0435V20.8696H20.1739Z" fill="#6DA544"/>
</g>
<defs>
<clipPath id="clip0_14537_62534">
<rect width="32" height="32" fill="white"/>
</clipPath>
</defs>
</svg>
