<svg width="32" height="32" viewBox="0 0 32 32" fill="none" xmlns="http://www.w3.org/2000/svg">
<g clip-path="url(#clip0_14537_62540)">
<path d="M16 32C24.8366 32 32 24.8366 32 16C32 7.16344 24.8366 0 16 0C7.16344 0 0 7.16344 0 16C0 24.8366 7.16344 32 16 32Z" fill="#F0F0F0"/>
<path d="M16 0C11.1506 0 6.8054 2.15775 3.87122 5.56519H28.1288C25.1947 2.15775 20.8495 0 16 0Z" fill="#0052B4"/>
<path d="M28.1288 26.4348H3.87122C6.8054 29.8423 11.1506 32 16 32C20.8495 32 25.1947 29.8423 28.1288 26.4348Z" fill="#0052B4"/>
<path d="M29.6516 7.65219H2.34838C0.859063 10.0825 0 12.9408 0 16C0 19.0592 0.859063 21.9176 2.34838 24.3478H29.6516C31.1409 21.9176 32 19.0592 32 16C32 12.9408 31.1409 10.0825 29.6516 7.65219Z" fill="#D80027"/>
<path d="M9.84351 22.1565C13.2437 22.1565 16 19.4001 16 16C16 12.5999 13.2437 9.84351 9.84351 9.84351C6.44337 9.84351 3.68701 12.5999 3.68701 16C3.68701 19.4001 6.44337 22.1565 9.84351 22.1565Z" fill="#F0F0F0"/>
<path d="M9.84347 9.84351L11.2248 14.0948H15.7022L12.0786 16.7224L13.4707 20.9864L9.84347 18.3463L6.22172 20.9815L7.60835 16.7224L3.98804 14.0948H8.4621L9.84347 9.84351Z" fill="#D80027"/>
</g>
<defs>
<clipPath id="clip0_14537_62540">
<rect width="32" height="32" fill="white"/>
</clipPath>
</defs>
</svg>
