<svg width="32" height="32" viewBox="0 0 32 32" fill="none" xmlns="http://www.w3.org/2000/svg">
<g clip-path="url(#clip0_14537_62555)">
<path d="M16 32C24.8366 32 32 24.8366 32 16C32 7.16344 24.8366 0 16 0C7.16344 0 0 7.16344 0 16C0 24.8366 7.16344 32 16 32Z" fill="#338AF3"/>
<path d="M15.4956 26.0744C15.0643 26.0535 14.7074 25.7732 14.5676 25.3926C14.3207 25.7147 13.8963 25.8768 13.4782 25.769C13.0594 25.6612 12.7666 25.3148 12.706 24.9126C12.3985 25.1783 11.9505 25.2506 11.5631 25.0608C11.1749 24.8702 10.9579 24.4715 10.9802 24.0659C10.6261 24.2649 10.1725 24.2454 9.83098 23.9811C9.4901 23.7167 9.35723 23.2833 9.46017 22.8903C9.07335 23.0141 8.63373 22.9042 8.35198 22.5765C8.07023 22.2496 8.02704 21.7981 8.2066 21.4343C7.8031 21.4773 7.3941 21.2812 7.18398 20.9042C6.97317 20.5271 7.02192 20.0757 7.2716 19.7549C6.86742 19.7159 6.50567 19.4411 6.37629 19.0293C6.24623 18.6175 6.38535 18.1848 6.69492 17.9211C6.30673 17.8014 6.00898 17.4591 5.96517 17.03C5.92135 16.6008 6.14398 16.2064 6.49942 16.0102C6.14392 15.8154 5.91992 15.421 5.96235 14.9924H5.96304C6.00548 14.5625 6.30323 14.2196 6.69067 14.0985C6.3811 13.8356 6.2406 13.4036 6.36929 12.9917C6.49798 12.5792 6.85898 12.3037 7.26323 12.2633C7.01348 11.9433 6.96342 11.4918 7.17279 11.1141C7.38217 10.7371 7.79123 10.5402 8.19542 10.5826C8.01454 10.2188 8.05698 9.76731 8.33804 9.439C8.61842 9.11138 9.05804 9.00075 9.44554 9.12319C9.34117 8.73081 9.47335 8.29675 9.81423 8.03175C10.1544 7.76663 10.608 7.74644 10.962 7.944C10.9391 7.5385 11.1554 7.13981 11.5429 6.9485C11.9297 6.75788 12.3784 6.82888 12.6865 7.09456C12.7457 6.69256 13.0385 6.34475 13.4566 6.23613C13.874 6.12763 14.2984 6.28831 14.546 6.60969C14.6858 6.22919 15.042 5.94813 15.4733 5.92656C15.9039 5.90438 16.2865 6.14638 16.4646 6.51031C16.6775 6.16525 17.0824 5.96075 17.5088 6.02544C17.9359 6.08944 18.2636 6.40381 18.3652 6.79694C18.6434 6.5005 19.0817 6.383 19.4865 6.53181C19.8921 6.68138 20.1495 7.05563 20.169 7.46188C20.5008 7.22819 20.9544 7.201 21.321 7.42919C21.6876 7.65669 21.8636 8.07475 21.801 8.47613C22.1732 8.31406 22.6225 8.37875 22.9356 8.67506C23.2487 8.97213 23.3377 9.41663 23.1958 9.79713C23.593 9.71294 24.0202 9.866 24.2678 10.2201C24.5154 10.5734 24.5134 11.027 24.2984 11.3714C24.704 11.3686 25.0915 11.6051 25.2633 12.0009C25.4344 12.3974 25.3405 12.842 25.0602 13.1363C25.4588 13.2156 25.7906 13.5251 25.8782 13.9481C25.9652 14.371 25.7836 14.7863 25.4504 15.018C25.8233 15.176 26.0862 15.5453 26.0869 15.9766V15.9906V15.9996C26.0869 16.4309 25.8254 16.801 25.4525 16.9603C25.7864 17.1906 25.9694 17.6059 25.8824 18.0288C25.7962 18.4518 25.465 18.7621 25.0664 18.8428C25.3475 19.1363 25.4428 19.5801 25.2724 19.9774C25.1019 20.3739 24.7144 20.6111 24.3082 20.609C24.5238 20.9534 24.5273 21.4069 24.2804 21.761C24.0334 22.1152 23.607 22.2696 23.2097 22.1861C23.3524 22.5659 23.264 23.0111 22.9517 23.3089C22.6386 23.606 22.1899 23.6713 21.8177 23.5106C21.881 23.9113 21.7057 24.3301 21.3398 24.559C20.9739 24.7879 20.5203 24.7614 20.1878 24.5284C20.169 24.9346 19.913 25.3096 19.5082 25.4599C19.1034 25.6101 19.5082 25.4599 19.5075 25.4599C19.1026 25.6094 18.6644 25.4926 18.3854 25.197C18.2852 25.5908 17.9583 25.9058 17.5312 25.9713C17.1047 26.0359 16.6992 25.8328 16.4856 25.4878C16.3159 25.8377 15.9569 26.0756 15.5479 26.0756C15.5304 26.0758 15.513 26.0751 15.4956 26.0744Z" fill="#F3F3F3"/>
<path d="M16 22.9565C19.842 22.9565 22.9565 19.842 22.9565 16C22.9565 12.158 19.842 9.0435 16 9.0435C12.158 9.0435 9.04352 12.158 9.04352 16C9.04352 19.842 12.158 22.9565 16 22.9565Z" fill="#338AF3"/>
<path d="M17.5227 13.6387C17.8644 13.3852 18.0869 12.98 18.0869 12.5218V11.8261C18.0869 11.0577 17.464 10.4348 16.6956 10.4348H15.3043C14.5359 10.4348 13.913 11.0577 13.913 11.8261V12.5218C13.913 12.98 14.1355 13.3852 14.4773 13.6387L13.2174 26.4348C13.2174 26.4348 13.913 27.1305 16 27.1305C18.087 27.1305 18.7827 26.4348 18.7827 26.4348L17.5227 13.6387Z" fill="#BDBCC1"/>
<path d="M15.9999 10.4348L17.2086 14.1547H21.1201L17.9558 16.4539L19.1643 20.1739L15.9999 17.8749L12.8354 20.1739L14.0443 16.4539L10.8798 14.1547H14.7913L15.9999 10.4348Z" fill="#F0F0F0"/>
</g>
<defs>
<clipPath id="clip0_14537_62555">
<rect width="32" height="32" fill="white"/>
</clipPath>
</defs>
</svg>
