<svg width="32" height="32" viewBox="0 0 32 32" fill="none" xmlns="http://www.w3.org/2000/svg">
<g clip-path="url(#clip0_14537_62548)">
<path d="M16 32C24.8366 32 32 24.8366 32 16C32 7.16344 24.8366 0 16 0C7.16344 0 0 7.16344 0 16C0 24.8366 7.16344 32 16 32Z" fill="#F0F0F0"/>
<path d="M3.87114 5.56519C3.3097 6.21725 2.80002 6.91494 2.34827 7.65212H29.6515C29.1998 6.91494 28.6901 6.21719 28.1286 5.56519H3.87114Z" fill="#D80027"/>
<path d="M3.8712 26.4348H28.1288C28.6902 25.7827 29.1999 25.0851 29.6516 24.3479H2.34839C2.80008 25.085 3.30976 25.7827 3.8712 26.4348Z" fill="#D80027"/>
<path d="M13.9525 13.0741L15.2652 14.8832L17.3913 14.1938L16.0765 16.0013L17.3891 17.8103L15.2638 17.1183L13.949 18.9258L13.9503 16.6908L11.825 15.9988L13.9511 15.3094L13.9525 13.0741Z" fill="#D80027"/>
<path d="M10.3696 20.5217C7.87237 20.5217 5.84787 18.4972 5.84787 16C5.84787 13.5027 7.87237 11.4782 10.3696 11.4782C11.1482 11.4782 11.8809 11.6751 12.5206 12.0217C11.5171 11.0404 10.1448 10.4347 8.6305 10.4347C5.55687 10.4347 3.06531 12.9264 3.06531 15.9999C3.06531 19.0735 5.55693 21.5651 8.6305 21.5651C10.1448 21.5651 11.5171 20.9594 12.5206 19.9781C11.8809 20.3249 11.1483 20.5217 10.3696 20.5217Z" fill="#D80027"/>
</g>
<defs>
<clipPath id="clip0_14537_62548">
<rect width="32" height="32" fill="white"/>
</clipPath>
</defs>
</svg>
