<svg width="32" height="32" viewBox="0 0 32 32" fill="none" xmlns="http://www.w3.org/2000/svg">
<g clip-path="url(#clip0_14537_62569)">
<path d="M16 32C24.8366 32 32 24.8366 32 16C32 7.16344 24.8366 0 16 0C7.16344 0 0 7.16344 0 16C0 24.8366 7.16344 32 16 32Z" fill="#F0F0F0"/>
<path d="M0 16C0 22.0647 3.37438 27.3409 8.34781 30.0546V1.94543C3.37438 4.65906 0 9.93531 0 16Z" fill="#D80027"/>
<path d="M31.0049 21.5652C31.648 19.8319 32 17.9571 32 16C32 14.0429 31.648 12.1681 31.0049 10.4348H0.99525C0.352062 12.1681 0 14.0429 0 16C0 17.9571 0.352062 19.8319 0.99525 21.5652L16 22.9565L31.0049 21.5652Z" fill="#D80027"/>
<path d="M16 32C22.8795 32 28.7441 27.658 31.0049 21.5652H0.995239C3.25586 27.658 9.12061 32 16 32Z" fill="#6DA544"/>
<path d="M0 16C0 23.3924 5.01381 29.6128 11.8261 31.4488V0.551193C5.01381 2.38719 0 8.60757 0 16Z" fill="#D80027"/>
<path d="M9.78851 7.04087L8.31282 5.56519L7.32907 6.54906L6.34532 5.56519L4.86963 7.04087L5.85344 8.02469L4.86951 9.00856L6.34519 10.4842L7.32901 9.50037L8.31282 10.4842L9.78851 9.00856L8.80469 8.02469L9.78851 7.04087Z" fill="#F0F0F0"/>
</g>
<defs>
<clipPath id="clip0_14537_62569">
<rect width="32" height="32" fill="white"/>
</clipPath>
</defs>
</svg>
