<svg width="32" height="32" viewBox="0 0 32 32" fill="none" xmlns="http://www.w3.org/2000/svg">
<g clip-path="url(#clip0_14537_62577)">
<path d="M31.4488 20.1739C31.8075 18.8431 32 17.4442 32 16C32 14.5558 31.8075 13.1569 31.4488 11.8261L14.6087 0.0608826C11.4824 0.330258 8.61344 1.49838 6.26088 3.30595L0.551188 11.8261C0.1925 13.1569 0 14.5558 0 16C0 17.4358 0.190188 18.8269 0.544875 20.1508L6.26081 28.6941C8.61337 30.5016 11.4823 31.6698 14.6086 31.9391L31.4488 20.1739Z" fill="#FFDA44"/>
<path d="M0.551208 20.1739C1.47696 23.6089 3.51733 26.586 6.2609 28.6941V20.1739H0.551208Z" fill="#D80027"/>
<path d="M14.6087 31.9391C15.0673 31.9786 15.5311 32 16 32C23.3925 32 29.6128 26.9862 31.4488 20.1739H14.6087V31.9391Z" fill="#D80027"/>
<path d="M31.4488 11.8261C29.6128 5.01381 23.3925 0 16 0C15.5311 0 15.0673 0.021375 14.6087 0.060875V11.8261H31.4488Z" fill="#D80027"/>
<path d="M6.2609 3.30594C3.51733 5.41406 1.47696 8.39113 0.551208 11.8261H6.2609V3.30594Z" fill="#D80027"/>
<path d="M31.8646 13.9131H12.5218H12.5218V0.38031C11.0431 0.708185 9.64131 1.23962 8.34781 1.94544V13.913H0.135438C0.0465 14.5962 0 15.2927 0 16C0 16.7073 0.0465 17.4038 0.135438 18.0869H8.34775H8.34781V30.0545C9.64131 30.7602 11.0431 31.2918 12.5218 31.6196V18.0871V18.087H31.8646C31.9535 17.4038 32 16.7073 32 16C32 15.2927 31.9535 14.5962 31.8646 13.9131Z" fill="#0052B4"/>
</g>
<defs>
<clipPath id="clip0_14537_62577">
<rect width="32" height="32" fill="white"/>
</clipPath>
</defs>
</svg>
