<svg width="32" height="32" viewBox="0 0 32 32" fill="none" xmlns="http://www.w3.org/2000/svg">
<g clip-path="url(#clip0_14537_62589)">
<path d="M16 32C24.8366 32 32 24.8366 32 16C32 7.16344 24.8366 0 16 0C7.16344 0 0 7.16344 0 16C0 24.8366 7.16344 32 16 32Z" fill="#F0F0F0"/>
<path d="M0 16C0 22.0647 3.37431 27.3409 8.34781 30.0546V1.94543C3.37431 4.65912 0 9.93531 0 16Z" fill="#F0F0F0"/>
<path d="M16 0C13.2281 0 10.621 0.705188 8.34778 1.94544V30.0545C10.621 31.2948 13.2281 32 16 32C24.8365 32 32 24.8365 32 16C32 7.1635 24.8365 0 16 0Z" fill="#496E2D"/>
<path d="M22.8408 18.646C20.8166 20.1086 17.99 19.6533 16.5275 17.6292C15.0648 15.605 15.5201 12.7784 17.5443 11.3159C18.1755 10.8599 18.8846 10.5904 19.606 10.4967C18.2181 10.2891 16.7509 10.6018 15.5236 11.4887C13.0323 13.2888 12.4719 16.7676 14.272 19.259C16.072 21.7502 19.5509 22.3107 22.0423 20.5104C23.2697 19.6236 24.0273 18.329 24.2659 16.946C23.9505 17.6013 23.472 18.19 22.8408 18.646Z" fill="#F0F0F0"/>
<path d="M22.754 10.4349L23.8943 11.6637L25.4153 10.9592L24.5989 12.4232L25.739 13.6522L24.0943 13.3281L23.2779 14.7922L23.0779 13.1279L21.4331 12.8038L22.9542 12.0993L22.754 10.4349Z" fill="#F0F0F0"/>
</g>
<defs>
<clipPath id="clip0_14537_62589">
<rect width="32" height="32" fill="white"/>
</clipPath>
</defs>
</svg>
