<svg width="32" height="32" viewBox="0 0 32 32" fill="none" xmlns="http://www.w3.org/2000/svg">
<g clip-path="url(#clip0_14537_62600)">
<path d="M16 32C24.8366 32 32 24.8366 32 16C32 7.16344 24.8366 0 16 0C7.16344 0 0 7.16344 0 16C0 24.8366 7.16344 32 16 32Z" fill="#F0F0F0"/>
<path d="M9.73908 10.4348H31.0047C28.7441 4.342 22.8793 0 16 0C11.5816 0 7.58202 1.79119 4.68677 4.68681L9.73908 10.4348Z" fill="black"/>
<path d="M9.73908 21.5652H31.0047C28.7441 27.658 22.8793 32 16 32C11.5816 32 7.58202 30.2088 4.68677 27.3132L9.73908 21.5652Z" fill="#6DA544"/>
<path d="M4.68628 4.68625C-1.56209 10.9346 -1.56209 21.0653 4.68628 27.3137C7.26834 24.7317 9.75166 22.2484 16 16L4.68628 4.68625Z" fill="#D80027"/>
</g>
<defs>
<clipPath id="clip0_14537_62600">
<rect width="32" height="32" fill="white"/>
</clipPath>
</defs>
</svg>
