<svg width="32" height="32" viewBox="0 0 32 32" fill="none" xmlns="http://www.w3.org/2000/svg">
<g clip-path="url(#clip0_14537_62611)">
<path d="M27.3138 27.3137C21.0654 33.5621 10.9348 33.5621 4.68627 27.3137C-1.5621 21.0653 -1.5621 10.9346 4.68634 4.68618C10.9347 -1.56219 20.0815 -0.578378 26.3299 5.67006C32.5782 11.9184 33.5621 21.0653 27.3138 27.3137Z" fill="black"/>
<path d="M4.68628 4.68626C10.9347 -1.56212 21.0652 -1.56199 27.3137 4.68632C33.5621 10.9347 33.5621 21.0653 27.3137 27.3138" fill="#A2001D"/>
<path d="M12.2276 21.5652L12.4866 22.3624H13.3247L12.6466 22.8551L12.9057 23.6522L12.2276 23.1596L11.5494 23.6522L11.8084 22.8551L11.1304 22.3624H11.9685L12.2276 21.5652Z" fill="#F0F0F0"/>
<path d="M10.0869 13.9131L10.5187 15.2417H11.9156L10.7854 16.0627L11.2171 17.3914L10.0869 16.5702L8.9568 17.3914L9.38855 16.0627L8.2583 15.2417H9.6553L10.0869 13.9131Z" fill="#F0F0F0"/>
<path d="M10.0869 23.6523L10.5186 24.9809H11.9156L10.7853 25.8019L11.2171 27.1305L10.0869 26.3093L8.9568 27.1305L9.38843 25.8019L8.2583 24.9809H9.65511L10.0869 23.6523Z" fill="#F0F0F0"/>
<path d="M14.1712 17.3914L14.603 18.72H15.9999L14.8697 19.541L15.3014 20.8696L14.1712 20.0484L13.0411 20.8696L13.4728 19.541L12.3427 18.72H13.7396L14.1712 17.3914Z" fill="#F0F0F0"/>
<path d="M6.00245 17.3914L6.43427 18.72H7.83108L6.70095 19.541L7.13258 20.8696L6.00245 20.0484L4.87227 20.8696L5.30408 19.541L4.17383 18.72H5.57077L6.00245 17.3914Z" fill="#F0F0F0"/>
<path d="M26.7843 11.8476C26.0693 11.1325 25.1401 10.7101 24.1417 10.6375L27.1305 8.31294C25.9401 7.12263 24.3448 6.58506 22.788 6.69875C22.6016 6.029 22.2463 5.39638 21.7196 4.86969L20.5391 7.23081C20.4616 7.08969 20.3636 6.95688 20.244 6.83732C19.5647 6.15813 18.4636 6.15813 17.7845 6.83732C17.1053 7.5165 17.1052 8.61763 17.7845 9.29681C17.904 9.41638 18.0369 9.51444 18.178 9.59194L15.8169 10.7725C16.3437 11.2994 16.9768 11.6549 17.6469 11.8412C17.5328 13.3979 18.0698 14.9931 19.2602 16.1834L21.8715 12.8261C22.0679 12.6326 22.3273 12.5258 22.6033 12.5258C22.8821 12.5258 23.1441 12.6343 23.3411 12.8315C23.5383 13.0286 23.6468 13.2906 23.6468 13.5693C23.6468 13.8481 23.5383 14.1101 23.3411 14.3072L24.325 15.2911C24.7848 14.8312 25.0381 14.2198 25.0381 13.5694C25.0381 13.0373 24.8684 12.5314 24.555 12.1131C25.0116 12.2351 25.4432 12.4739 25.8007 12.8315C26.8857 13.9164 26.8857 15.6818 25.8007 16.7667L26.7846 17.7506C27.5729 16.9622 28.0071 15.9141 28.0071 14.7991C28.0069 13.6841 27.5726 12.6359 26.7843 11.8476Z" fill="#FFDA44"/>
</g>
<defs>
<clipPath id="clip0_14537_62611">
<rect width="32" height="32" fill="white"/>
</clipPath>
</defs>
</svg>
