<svg width="32" height="32" viewBox="0 0 32 32" fill="none" xmlns="http://www.w3.org/2000/svg">
<g clip-path="url(#clip0_14537_62621)">
<path d="M16 32C24.8366 32 32 24.8366 32 16C32 7.16344 24.8366 0 16 0C7.16344 0 0 7.16344 0 16C0 24.8366 7.16344 32 16 32Z" fill="#F0F0F0"/>
<path d="M16 0C9.65665 0 4.17565 3.69156 1.58765 9.0435H30.4123C27.8244 3.69156 22.3433 0 16 0Z" fill="#D80027"/>
<path d="M16 32C22.3433 32 27.8244 28.3084 30.4124 22.9565H1.58765C4.17565 28.3084 9.65664 32 16 32Z" fill="#0052B4"/>
<path d="M19.9351 11.3692L18.4594 12.8449C19.0889 13.4743 19.4783 14.3439 19.4783 15.3044C19.4783 17.2254 17.9209 18.7826 16 18.7826C14.0791 18.7826 12.5218 17.2253 12.5218 15.3044C12.5218 14.3439 12.9111 13.4743 13.5406 12.8449L12.0649 11.3692C11.0577 12.3762 10.4348 13.7675 10.4348 15.3044C10.4348 18.378 12.9264 20.8696 16 20.8696C19.0736 20.8696 21.5652 18.378 21.5652 15.3044C21.5651 13.7675 20.9423 12.3762 19.9351 11.3692Z" fill="#6DA544"/>
<path d="M16 13.2174L16.5181 14.8118H18.1944L16.8382 15.797L17.3563 17.3913L16 16.406L14.6438 17.3913L15.1619 15.797L13.8057 14.8118H15.482L16 13.2174Z" fill="#FFDA44"/>
</g>
<defs>
<clipPath id="clip0_14537_62621">
<rect width="32" height="32" fill="white"/>
</clipPath>
</defs>
</svg>
