<svg width="32" height="32" viewBox="0 0 32 32" fill="none" xmlns="http://www.w3.org/2000/svg">
<g clip-path="url(#clip0_14537_62632)">
<path d="M16 32C24.8366 32 32 24.8366 32 16C32 7.16344 24.8366 0 16 0C7.16344 0 0 7.16344 0 16C0 24.8366 7.16344 32 16 32Z" fill="#F0F0F0"/>
<path d="M16 0V16L4.68628 27.3137C7.58172 30.2091 11.5817 32 16 32C24.8365 32 32 24.8365 32 16C32 7.1635 16 0 16 0Z" fill="#D80027"/>
<path d="M16 0C11.5817 0 7.58172 1.79088 4.68628 4.68625C8.6119 8.61188 10.0055 10.0055 16 16H32C32 7.1635 24.8365 0 16 0Z" fill="#0052B4"/>
<path d="M10.9557 16L9.00173 15.0809L10.0423 13.1884L7.92042 13.5944L7.65155 11.4508L6.17354 13.0273L4.69561 11.4508L4.42667 13.5944L2.30486 13.1884L3.34542 15.0809L1.39136 16L3.34542 16.9191L2.30486 18.8116L4.42686 18.4057L4.69554 20.5492L6.17354 18.9727L7.65155 20.5492L7.92042 18.4057L10.0422 18.8116L9.00167 16.9192L10.9557 16Z" fill="#FFDA44"/>
<path d="M4.26711 6.26086L4.91736 7.1698L5.98267 6.83236L5.31905 7.73161L5.9693 8.64055L4.90892 8.28736L4.24536 9.18655L4.25367 8.06905L3.19336 7.7158L4.25886 7.37836L4.26711 6.26086Z" fill="#FFDA44"/>
<path d="M4.26711 22.8134L4.91736 23.7224L5.98267 23.3849L5.31905 24.2842L5.9693 25.1931L4.90892 24.8399L4.24536 25.7391L4.25367 24.6216L3.19336 24.2684L4.25886 23.9309L4.26711 22.8134Z" fill="#FFDA44"/>
<path d="M13.5416 14.5372L12.8914 15.4461L11.826 15.1085L12.4897 16.0079L11.8394 16.9169L12.8998 16.5636L13.5634 17.4628L13.555 16.3454L14.6154 15.9921L13.5499 15.6547L13.5416 14.5372Z" fill="#FFDA44"/>
</g>
<defs>
<clipPath id="clip0_14537_62632">
<rect width="32" height="32" fill="white"/>
</clipPath>
</defs>
</svg>
