<svg width="32" height="32" viewBox="0 0 32 32" fill="none" xmlns="http://www.w3.org/2000/svg">
<g clip-path="url(#clip0_14537_62641)">
<path d="M32 16C32 24.8365 24.8365 32 16 32C7.1635 32 0 24.8365 0 16C0 16.0038 16 0.00175 16 0C24.8365 0 32 7.1635 32 16Z" fill="#0052B4"/>
<path d="M15.9572 16H16C16 15.9856 16 15.9716 16 15.9572C15.9857 15.9715 15.9715 15.9857 15.9572 16Z" fill="#F0F0F0"/>
<path d="M16 8.34781C16 5.5325 16 3.68781 16 0H15.9973C7.16194 0.0015 0 7.16431 0 16H8.34781V11.2993L13.0485 16H15.9572C15.9715 15.9858 15.9858 15.9715 16.0001 15.9572C16.0001 14.8793 16.0001 13.9174 16.0001 13.0486L11.2992 8.34781H16Z" fill="#F0F0F0"/>
<path d="M8.09466 2.08694C5.59223 3.51188 3.51179 5.59226 2.08691 8.09469V16H6.26085V6.26101V6.26088H16C16 4.94444 16 3.69032 16 2.08694H8.09466Z" fill="#D80027"/>
<path d="M16 14.0324L10.3153 8.34787H8.34778V8.34799L15.9998 16H16C16 16 16 14.6433 16 14.0324Z" fill="#D80027"/>
<path d="M25.0435 9.73911L22.9565 10.4348L20.8696 9.73911L20.174 7.99999L20.8696 6.26086H25.0435L24.3478 7.99999L25.0435 9.73911Z" fill="#ACABB1"/>
<path d="M18.0869 9.73914V17.3913C18.0869 21.1188 22.9565 22.2609 22.9565 22.2609C22.9565 22.2609 27.826 21.1188 27.826 17.3913V9.73914H18.0869Z" fill="#338AF3"/>
<path d="M18.5259 19.2041C19.7229 21.5022 22.9565 22.2609 22.9565 22.2609C22.9565 22.2609 26.1901 21.5022 27.3871 19.2041L22.9565 11.8261L18.5259 19.2041Z" fill="#6DA544"/>
<path d="M27.826 17.3139L22.9565 9.73914L18.0869 17.314V17.3913C18.0869 18.0811 18.254 18.6823 18.5259 19.2041L22.9565 12.3119L27.3871 19.2041C27.6589 18.6821 27.826 18.0811 27.826 17.3912V17.3139Z" fill="#FFDA44"/>
</g>
<defs>
<clipPath id="clip0_14537_62641">
<rect width="32" height="32" fill="white"/>
</clipPath>
</defs>
</svg>
