<svg width="32" height="32" viewBox="0 0 32 32" fill="none" xmlns="http://www.w3.org/2000/svg">
<g clip-path="url(#clip0_14537_62663)">
<path d="M16 32C24.8366 32 32 24.8366 32 16C32 7.16344 24.8366 0 16 0C7.16344 0 0 7.16344 0 16C0 24.8366 7.16344 32 16 32Z" fill="#F0F0F0"/>
<path d="M16 0C10.7655 0 6.11834 2.51394 3.19934 6.4H28.8007C25.8817 2.51394 21.2345 0 16 0Z" fill="#D80027"/>
<path d="M16 32C21.2345 32 25.8817 29.4861 28.8007 25.6H3.19934C6.11834 29.4861 10.7655 32 16 32Z" fill="#D80027"/>
<path d="M0 16C0 17.0959 0.1105 18.1661 0.320437 19.2H31.6797C31.8896 18.1661 32 17.0959 32 16C32 14.904 31.8895 13.8339 31.6796 12.8H0.320437C0.1105 13.8339 0 14.904 0 16H0Z" fill="#D80027"/>
<path d="M4.68628 4.68625C-1.56209 10.9346 -1.56209 21.0653 4.68628 27.3137C7.26834 24.7317 9.75166 22.2484 16 16L4.68628 4.68625Z" fill="#0052B4"/>
<path d="M6.4756 11.826L7.51154 15.0146H10.8644L8.15204 16.9853L9.18791 20.1739L6.4756 18.2032L3.76316 20.1739L4.79929 16.9853L2.08691 15.0146H5.43954L6.4756 11.826Z" fill="#F0F0F0"/>
</g>
<defs>
<clipPath id="clip0_14537_62663">
<rect width="32" height="32" fill="white"/>
</clipPath>
</defs>
</svg>
