<svg width="32" height="32" viewBox="0 0 32 32" fill="none" xmlns="http://www.w3.org/2000/svg">
<g clip-path="url(#clip0_14537_62674)">
<path d="M16 32C24.8366 32 32 24.8366 32 16C32 7.16344 24.8366 0 16 0C7.16344 0 0 7.16344 0 16C0 24.8366 7.16344 32 16 32Z" fill="#FCFCFC"/>
<path d="M20.8696 13.2174V14.6087H22.7791C21.9822 15.7162 20.9207 16.6203 19.6875 17.2291C19.3711 16.9004 18.9269 16.6956 18.4347 16.6956C17.6051 16.6956 16.9116 17.2768 16.7379 18.0543C16.4947 18.0756 16.2487 18.0869 16 18.0869C15.7513 18.0869 15.5052 18.0755 15.2621 18.0543C15.0884 17.2769 14.3949 16.6956 13.5652 16.6956C13.0731 16.6956 12.629 16.9004 12.3125 17.2291C11.0792 16.6204 10.0179 15.7161 9.22099 14.6087H11.1304V13.2174H6.26086C6.26086 18.5961 10.6213 22.9565 16 22.9565C21.3788 22.9565 25.7391 18.5961 25.7391 13.2174H20.8696Z" fill="#D80027"/>
</g>
<defs>
<clipPath id="clip0_14537_62674">
<rect width="32" height="32" fill="white"/>
</clipPath>
</defs>
</svg>
