<svg width="32" height="32" viewBox="0 0 32 32" fill="none" xmlns="http://www.w3.org/2000/svg">
<g clip-path="url(#clip0_14537_62677)">
<path d="M16 32C24.8366 32 32 24.8366 32 16C32 7.16344 24.8366 0 16 0C7.16344 0 0 7.16344 0 16C0 24.8366 7.16344 32 16 32Z" fill="#FFDA44"/>
<path d="M18.4333 31.8161C21.0355 31.4191 23.4309 30.3943 25.4618 28.9024L16 16L18.4333 31.8161Z" fill="#D80027"/>
<path d="M13.5668 0.183929C10.9646 0.580929 8.56921 1.60568 6.53821 3.09749L16.0001 16L13.5668 0.183929Z" fill="#D80027"/>
<path d="M6.53821 28.9024C8.56908 30.3943 10.9645 31.419 13.5666 31.8161L16.0001 16L6.53821 28.9024Z" fill="#D80027"/>
<path d="M3.09752 6.53812C1.60565 8.56912 0.581022 10.9644 0.18396 13.5667L16 16L3.09752 6.53812Z" fill="#D80027"/>
<path d="M0.18396 18.4333C0.58096 21.0355 1.60571 23.4309 3.09758 25.4618L16 16L0.18396 18.4333Z" fill="#D80027"/>
<path d="M31.8161 13.5667C31.419 10.9645 30.3943 8.56911 28.9024 6.53818L16 16L31.8161 13.5667Z" fill="#D80027"/>
<path d="M25.4618 3.09743C23.4308 1.60562 21.0355 0.580929 18.4333 0.183929L16 16L25.4618 3.09743Z" fill="#D80027"/>
<path d="M28.9026 25.4618C30.3944 23.4309 31.4191 21.0354 31.8162 18.4333L16 16L28.9026 25.4618Z" fill="#D80027"/>
<path d="M16 21.5652C19.0736 21.5652 21.5652 19.0736 21.5652 16C21.5652 12.9264 19.0736 10.4348 16 10.4348C12.9264 10.4348 10.4348 12.9264 10.4348 16C10.4348 19.0736 12.9264 21.5652 16 21.5652Z" fill="#D80027"/>
<path d="M16 20.1739C18.3052 20.1739 20.1739 18.3052 20.1739 16C20.1739 13.6948 18.3052 11.826 16 11.826C13.6948 11.826 11.826 13.6948 11.826 16C11.826 18.3052 13.6948 20.1739 16 20.1739Z" fill="#FFDA44"/>
</g>
<defs>
<clipPath id="clip0_14537_62677">
<rect width="32" height="32" fill="white"/>
</clipPath>
</defs>
</svg>
