<svg width="32" height="32" viewBox="0 0 32 32" fill="none" xmlns="http://www.w3.org/2000/svg">
<g clip-path="url(#clip0_14537_62702)">
<path d="M0 16C0 18.7719 0.705188 21.379 1.94544 23.6522L16 25.0435L30.0546 23.6522C31.2948 21.379 32 18.7719 32 16L16 14.6087L0 16Z" fill="#FFDA44"/>
<path d="M30.0546 8.34781C27.3409 3.37431 22.0647 0 16 0C9.93531 0 4.65912 3.37431 1.94544 8.34781C0.705188 10.621 0 13.2281 0 16H32C32 13.2281 31.2948 10.621 30.0546 8.34781Z" fill="#338AF3"/>
<path d="M16 32C22.0647 32 27.3409 28.6257 30.0546 23.6522H1.94543C4.65912 28.6257 9.93531 32 16 32Z" fill="#496E2D"/>
<path d="M18.0869 9.36382L20.041 10.283L19.0005 12.1755L21.1224 11.7696L21.3912 13.9131L22.8691 12.3366L24.3471 13.9131L24.6159 11.7696L26.7378 12.1754L25.6973 10.2829L27.6513 9.36382L25.6972 8.44476L26.7378 6.55226L24.616 6.95813L24.347 4.8147L22.8691 6.3912L21.3912 4.8147L21.1224 6.95813L19.0004 6.55226L20.041 8.44482L18.0869 9.36382Z" fill="#FFDA44"/>
</g>
<defs>
<clipPath id="clip0_14537_62702">
<rect width="32" height="32" fill="white"/>
</clipPath>
</defs>
</svg>
