<svg width="32" height="32" viewBox="0 0 32 32" fill="none" xmlns="http://www.w3.org/2000/svg">
<g clip-path="url(#clip0_14537_62716)">
<path d="M1.58763 9.0435C0.5705 11.147 0 13.5068 0 16C0 18.4932 0.5705 20.853 1.58763 22.9565L16 24.3478L30.4124 22.9565C31.4295 20.853 32 18.4932 32 16C32 13.5068 31.4295 11.147 30.4124 9.0435L16 7.65219L1.58763 9.0435Z" fill="#F0F0F0"/>
<path d="M1.58813 22.9565C4.17601 28.3084 9.65664 32 15.9999 32C22.3433 32 27.8239 28.3084 30.4118 22.9565H1.58813Z" fill="#496E2D"/>
<path d="M1.58813 9.0435H30.4118C27.8239 3.69156 22.3433 0 15.9999 0C9.65657 0 4.17601 3.69156 1.58813 9.0435Z" fill="black"/>
<path d="M4.68628 4.68625C-1.56209 10.9346 -1.56209 21.0653 4.68628 27.3137C7.26834 24.7317 9.75166 22.2484 16 16L4.68628 4.68625Z" fill="#D80027"/>
<path d="M20.1739 16C20.1739 13.6689 21.8122 11.7214 24 11.2437C23.6637 11.1702 23.3149 11.1304 22.9565 11.1304C20.267 11.1304 18.0869 13.3106 18.0869 16C18.0869 18.6894 20.267 20.8696 22.9565 20.8696C23.3148 20.8696 23.6637 20.8297 24 20.7563C21.8122 20.2786 20.1739 18.3311 20.1739 16Z" fill="#D80027"/>
<path d="M24.2046 12.8696L24.8954 14.9954H27.1304L25.3222 16.3091L26.0129 18.4348L24.2046 17.1211L22.3964 18.4348L23.0872 16.3091L21.2788 14.9954H23.5139L24.2046 12.8696Z" fill="#D80027"/>
</g>
<defs>
<clipPath id="clip0_14537_62716">
<rect width="32" height="32" fill="white"/>
</clipPath>
</defs>
</svg>
