<svg width="32" height="32" viewBox="0 0 32 32" fill="none" xmlns="http://www.w3.org/2000/svg">
<g clip-path="url(#clip0_14537_62724)">
<path d="M32 16C32 24.8365 24.8365 32 16 32C7.1635 32 0 24.8365 0 16C5.49563 10.5044 10.1565 5.8435 16 0C24.8365 0 32 7.1635 32 16Z" fill="#D80027"/>
<path d="M16 16C16 7.1635 16 6.12175 16 0C7.1635 0 0 7.1635 0 16H16Z" fill="#0052B4"/>
<path d="M12.8159 10.4348L13.075 11.232H13.9131L13.235 11.7246L13.4941 12.5218L12.8159 12.0291L12.1378 12.5218L12.3969 11.7246L11.7188 11.232H12.5569L12.8159 10.4348Z" fill="#F0F0F0"/>
<path d="M8.60621 4.17395L9.0379 5.50264H10.4349L9.30465 6.32358L9.73646 7.6522L8.60621 6.83101L7.47603 7.6522L7.90778 6.32358L6.77759 5.50264H8.17446L8.60621 4.17395Z" fill="#F0F0F0"/>
<path d="M12.7802 5.56519L13.2119 6.89394H14.6088L13.4786 7.71487L13.9103 9.0435L12.7802 8.22231L11.65 9.0435L12.0817 7.71487L10.9515 6.89394H12.3484L12.7802 5.56519Z" fill="#F0F0F0"/>
<path d="M9.48085 11.1305L9.9126 12.4591H11.3095L10.1793 13.2801L10.611 14.6087L9.48085 13.7876L8.35066 14.6087L8.78241 13.2801L7.65222 12.4591H9.04916L9.48085 11.1305Z" fill="#F0F0F0"/>
<path d="M5.82356 7.65219L6.25531 8.98088H7.65225L6.522 9.80182L6.95375 11.1304L5.82356 10.3093L4.69343 11.1304L5.12512 9.80182L3.995 8.98088H5.39187L5.82356 7.65219Z" fill="#F0F0F0"/>
</g>
<defs>
<clipPath id="clip0_14537_62724">
<rect width="32" height="32" fill="white"/>
</clipPath>
</defs>
</svg>
