<svg width="32" height="32" viewBox="0 0 32 32" fill="none" xmlns="http://www.w3.org/2000/svg">
<g clip-path="url(#clip0_14537_62733)">
<path d="M32 16C32 24.8365 24.8365 32 16 32C7.1635 32 0 24.8365 0 16C0.695625 16 16 13.9131 16 13.9131L32 16Z" fill="#338AF3"/>
<path d="M0 16C0 7.1635 7.1635 0 16 0C24.8365 0 32 7.1635 32 16" fill="#F0F0F0"/>
<path d="M22.351 11.0403L16 17.3913L9.64903 11.0403C8.82771 12.2594 8.3479 13.7269 8.3479 15.3043V17.3913C8.3479 20.7423 10.5132 23.5968 13.518 24.63C13.117 25.416 13.1846 26.3969 13.7723 27.1304C14.5528 26.5048 15.3608 25.8573 16.0463 25.308C16.7318 25.8573 17.54 26.5049 18.3204 27.1304C18.915 26.3884 18.9777 25.3928 18.5608 24.6021C21.5246 23.5465 23.6522 20.7129 23.6522 17.3913V15.3044C23.6522 13.7269 23.1723 12.2595 22.351 11.0403Z" fill="#6DA544"/>
<path d="M16 22.9565C12.9313 22.9565 10.4348 20.4599 10.4348 17.3913V15.3044C10.4348 12.2357 12.9314 9.7392 16 9.7392C19.0686 9.7392 21.5652 12.2358 21.5652 15.3044V17.3913C21.5652 20.4599 19.0687 22.9565 16 22.9565Z" fill="#FFDA44"/>
<path d="M19.4782 17.3913V15.3044C19.4782 13.3864 17.9179 11.8261 16 11.8261C14.0821 11.8261 12.5217 13.3865 12.5217 15.3044V17.3913L16 18.0869L19.4782 17.3913Z" fill="#338AF3"/>
<path d="M12.5217 17.3913C12.5217 19.3092 14.0821 20.8695 16 20.8695C17.9179 20.8695 19.4782 19.3092 19.4782 17.3913H12.5217Z" fill="#6DA544"/>
<path d="M20.174 9.73913C20.174 8.58657 19.2396 7.65219 18.087 7.65219C17.5524 7.65219 17.065 7.85344 16.6957 8.18401V6.95651H17.3914V5.56519H16.6957V4.86957H15.3044V5.56519H14.6088V6.95651H15.3044V8.18401C14.9351 7.85344 14.4477 7.65219 13.9131 7.65219C12.7605 7.65219 11.8262 8.58657 11.8262 9.73913C11.8262 10.3571 12.095 10.9121 12.5218 11.2943V12.5218H19.4783V11.2943C19.9052 10.9121 20.174 10.3571 20.174 9.73913Z" fill="#FFDA44"/>
</g>
<defs>
<clipPath id="clip0_14537_62733">
<rect width="32" height="32" fill="white"/>
</clipPath>
</defs>
</svg>
