<svg width="32" height="32" viewBox="0 0 32 32" fill="none" xmlns="http://www.w3.org/2000/svg">
<g clip-path="url(#clip0_14537_62749)">
<path d="M16 32C24.8366 32 32 24.8366 32 16C32 7.16344 24.8366 0 16 0C7.16344 0 0 7.16344 0 16C0 24.8366 7.16344 32 16 32Z" fill="#F0F0F0"/>
<path d="M31.8646 13.9131H18.0871H18.087V0.135438C17.4038 0.0465 16.7073 0 16 0C15.2927 0 14.5962 0.0465 13.9131 0.135438V13.9129V13.913H0.135438C0.0465 14.5962 0 15.2927 0 16C0 16.7073 0.0465 17.4038 0.135438 18.0869H13.9129H13.913V31.8646C14.5962 31.9535 15.2927 32 16 32C16.7073 32 17.4038 31.9536 18.0869 31.8646V18.0871V18.087H31.8646C31.9535 17.4038 32 16.7073 32 16C32 15.2927 31.9535 14.5962 31.8646 13.9131Z" fill="#D80027"/>
<path d="M23.6522 5.56519C22.3556 5.56519 21.2662 6.452 20.9573 7.65212L23.6522 8.34775L26.3471 7.65212C26.0383 6.45206 24.9488 5.56519 23.6522 5.56519Z" fill="black"/>
<path d="M20.8696 11.8261L24.3478 12.5217V11.0428C25.3256 10.791 26.0953 10.0212 26.347 9.04346L23.6522 8.34784H20.174L20.8696 10.4348V11.8261Z" fill="black"/>
<path d="M26.3471 7.65216H20.174V9.04347V10.4348H20.8696V9.04347H26.347C26.4042 8.82116 26.4348 8.58804 26.4348 8.34785C26.4348 8.1076 26.4044 7.87447 26.3471 7.65216Z" fill="#ACABB1"/>
<path d="M9.04345 5.56519C7.74682 5.56519 6.65739 6.452 6.34851 7.65212L9.04345 8.34775L11.7384 7.65212C11.4295 6.45206 10.3401 5.56519 9.04345 5.56519Z" fill="black"/>
<path d="M6.26087 11.8261L9.73912 12.5217V11.0428C10.7169 10.791 11.4866 10.0212 11.7382 9.04346L9.0435 8.34784H5.56519L6.26081 10.4348V11.8261H6.26087Z" fill="black"/>
<path d="M11.7384 7.65216H5.56519V9.04347V10.4348H6.26081V9.04347H11.7382C11.7954 8.82116 11.8261 8.58804 11.8261 8.34785C11.8261 8.1076 11.7957 7.87447 11.7384 7.65216Z" fill="#ACABB1"/>
<path d="M23.6522 19.4783C22.3556 19.4783 21.2662 20.3651 20.9573 21.5652L23.6522 22.2608L26.3471 21.5652C26.0383 20.3651 24.9488 19.4783 23.6522 19.4783Z" fill="black"/>
<path d="M20.8696 25.7391L24.3478 26.4347V24.9558C25.3256 24.7041 26.0953 23.9342 26.347 22.9565L23.6522 22.2609H20.174L20.8696 24.3478V25.7391Z" fill="black"/>
<path d="M26.3471 21.5652H20.174V22.9565V24.3478H20.8696V22.9565H26.347C26.4042 22.7342 26.4348 22.5011 26.4348 22.2609C26.4348 22.0207 26.4044 21.7876 26.3471 21.5652Z" fill="#ACABB1"/>
<path d="M9.04345 19.4783C7.74682 19.4783 6.65739 20.3651 6.34851 21.5652L9.04345 22.2608L11.7384 21.5652C11.4295 20.3651 10.3401 19.4783 9.04345 19.4783Z" fill="black"/>
<path d="M6.26087 25.7391L9.73912 26.4347V24.9558C10.7169 24.7041 11.4866 23.9342 11.7382 22.9565L9.0435 22.2609H5.56519L6.26081 24.3478V25.7391H6.26087Z" fill="black"/>
<path d="M11.7384 21.5652H5.56519V22.9565V24.3478H6.26081V22.9565H11.7382C11.7954 22.7342 11.8261 22.5011 11.8261 22.2609C11.8261 22.0207 11.7957 21.7876 11.7384 21.5652Z" fill="#ACABB1"/>
</g>
<defs>
<clipPath id="clip0_14537_62749">
<rect width="32" height="32" fill="white"/>
</clipPath>
</defs>
</svg>
