<svg width="32" height="32" viewBox="0 0 32 32" fill="none" xmlns="http://www.w3.org/2000/svg">
<g clip-path="url(#clip0_14537_62764)">
<path d="M16 32C24.8366 32 32 24.8366 32 16C32 7.16344 24.8366 0 16 0C7.16344 0 0 7.16344 0 16C0 24.8366 7.16344 32 16 32Z" fill="#6DA544"/>
<path d="M9.04346 19.1304C9.04346 20.283 9.97783 21.2174 11.1304 21.2174H17.3913C17.3913 22.1779 18.1699 22.9565 19.1304 22.9565H21.2173C22.1778 22.9565 22.9565 22.1779 22.9565 21.2174V19.1304H9.04346Z" fill="#F0F0F0"/>
<path d="M23.1304 9.04352V13.9131C23.1304 14.6803 22.5063 15.3044 21.7391 15.3044V17.3913C23.6571 17.3913 25.2174 15.831 25.2174 13.9131V9.04352H23.1304Z" fill="#F0F0F0"/>
<path d="M8.17391 13.9131C8.17391 14.6803 7.54978 15.3044 6.78259 15.3044V17.3913C8.70053 17.3913 10.2608 15.831 10.2608 13.9131V9.04352H8.17391V13.9131Z" fill="#F0F0F0"/>
<path d="M20 9.04352H22.0869V13.9131H20V9.04352Z" fill="#F0F0F0"/>
<path d="M16.8695 11.8261C16.8695 12.0179 16.7134 12.1739 16.5217 12.1739C16.3299 12.1739 16.1739 12.0178 16.1739 11.8261V9.04346H14.0869V11.8261C14.0869 12.0179 13.9309 12.1739 13.7391 12.1739C13.5474 12.1739 13.3913 12.0178 13.3913 11.8261V9.04346H11.3043V11.8261C11.3043 13.1686 12.3966 14.2609 13.7391 14.2609C14.2562 14.2609 14.7357 14.0984 15.1304 13.8224C15.5251 14.0983 16.0047 14.2609 16.5218 14.2609C16.6259 14.2609 16.7283 14.2536 16.8289 14.2408C16.6811 14.8501 16.1323 15.3043 15.4783 15.3043V17.3913C17.3962 17.3913 18.9565 15.8309 18.9565 13.913V11.8261V9.04346H16.8696V11.8261H16.8695Z" fill="#F0F0F0"/>
<path d="M11.3043 15.3044H14.4348V17.3913H11.3043V15.3044Z" fill="#F0F0F0"/>
</g>
<defs>
<clipPath id="clip0_14537_62764">
<rect width="32" height="32" fill="white"/>
</clipPath>
</defs>
</svg>
