<svg width="32" height="32" viewBox="0 0 32 32" fill="none" xmlns="http://www.w3.org/2000/svg">
<g clip-path="url(#clip0_14537_62786)">
<path d="M16 32C24.8366 32 32 24.8366 32 16C32 7.16344 24.8366 0 16 0C7.16344 0 0 7.16344 0 16C0 24.8366 7.16344 32 16 32Z" fill="#F0F0F0"/>
<path d="M16 0C7.1635 0 0 7.1635 0 16C0 17.9571 0.352063 19.8319 0.995188 21.5652H31.0049C31.648 19.8319 32 17.9571 32 16C32 7.1635 24.8365 0 16 0Z" fill="#0052B4"/>
<path d="M16.0001 0C9.12061 0 3.25593 4.342 0.995239 10.4348H31.0049C28.7442 4.342 22.8795 0 16.0001 0Z" fill="#D80027"/>
<path d="M4.13745 9.04352V17.0251C4.13745 21.5654 10.0688 22.9566 10.0688 22.9566C10.0688 22.9566 16 21.5654 16 17.0251V9.04352H4.13745Z" fill="#D80027"/>
<path d="M6.59033 10.4348H13.5469V7.65218L12.1556 8.3478L10.0686 6.26086L7.98164 8.3478L6.59033 7.65218V10.4348Z" fill="#FFDA44"/>
<path d="M14.6087 18.1364L10.0869 13.6147L5.56519 18.1364L7.04087 19.6121L10.0869 16.5661L13.133 19.6121L14.6087 18.1364Z" fill="#FFDA44"/>
<path d="M14.6087 13.913H12.4989C12.6176 13.7083 12.6866 13.4712 12.6866 13.2175C12.6866 12.449 12.0636 11.8262 11.2952 11.8262C10.7643 11.8262 10.3032 12.1236 10.0687 12.5608C9.83412 12.1237 9.37306 11.8262 8.84212 11.8262C8.07375 11.8262 7.45081 12.449 7.45081 13.2175C7.45081 13.4712 7.51981 13.7084 7.63844 13.913H5.56519C5.56519 14.6815 6.2345 15.3044 7.00281 15.3044H6.9565C6.9565 16.0728 7.57937 16.6957 8.34781 16.6957C8.34781 17.376 8.83644 17.9413 9.48175 18.0623L8.3855 20.5374C8.91087 20.751 9.485 20.8696 10.087 20.8696C10.689 20.8696 11.2631 20.751 11.7885 20.5374L10.6922 18.0623C11.3376 17.9414 11.8262 17.3761 11.8262 16.6957C12.5946 16.6957 13.2175 16.0728 13.2175 15.3044H13.1712C13.9394 15.3044 14.6087 14.6814 14.6087 13.913Z" fill="#F0F0F0"/>
</g>
<defs>
<clipPath id="clip0_14537_62786">
<rect width="32" height="32" fill="white"/>
</clipPath>
</defs>
</svg>
