<svg width="32" height="32" viewBox="0 0 32 32" fill="none" xmlns="http://www.w3.org/2000/svg">
<g clip-path="url(#clip0_14537_62796)">
<path d="M16 32C24.8366 32 32 24.8366 32 16C32 7.16344 24.8366 0 16 0C7.16344 0 0 7.16344 0 16C0 24.8366 7.16344 32 16 32Z" fill="#F0F0F0"/>
<path d="M26.8006 4.19606C23.9543 1.59031 20.163 0 16 0C15.3185 0 14.647 0.0429375 13.9878 0.125625L6.26091 9.0435L0.506348 20.0082C0.878098 21.4495 1.44647 22.8116 2.17979 24.0655L16 16L26.8006 4.19606Z" fill="#FFDA44"/>
<path d="M29.3207 24.8649L6.93518 29.1849C9.51199 30.9599 12.6344 32 16 32C21.5576 32 26.4525 29.1661 29.3207 24.8649Z" fill="#6DA544"/>
<path d="M26.8028 4.19818L2.18884 24.081C2.83266 25.179 3.60347 26.1934 4.48141 27.104L32 16C32 11.3276 29.9968 7.12331 26.8028 4.19818Z" fill="#D80027"/>
<path d="M0 16C0 17.3842 0.175875 18.7272 0.506312 20.0082L13.9878 0.12561C6.10112 1.11524 0 7.84499 0 16Z" fill="#0052B4"/>
</g>
<defs>
<clipPath id="clip0_14537_62796">
<rect width="32" height="32" fill="white"/>
</clipPath>
</defs>
</svg>
