<svg width="32" height="32" viewBox="0 0 32 32" fill="none" xmlns="http://www.w3.org/2000/svg">
<g clip-path="url(#clip0_14537_62806)">
<path d="M16 32C24.8366 32 32 24.8366 32 16C32 7.16344 24.8366 0 16 0C7.16344 0 0 7.16344 0 16C0 24.8366 7.16344 32 16 32Z" fill="#F0F0F0"/>
<path d="M0 16.0001C0 7.1635 7.1635 0 16 0C24.8365 0 32 7.1635 32 16.0001" fill="#D80027"/>
<path d="M9.7391 8.34777C9.7391 6.01665 11.3774 4.06927 13.5652 3.59146C13.2289 3.51808 12.8801 3.47827 12.5217 3.47827C9.83222 3.47827 7.6521 5.6584 7.6521 8.34783C7.6521 11.0373 9.83222 13.2174 12.5217 13.2174C12.88 13.2174 13.2288 13.1776 13.5652 13.1041C11.3774 12.6263 9.7391 10.679 9.7391 8.34777Z" fill="#F0F0F0"/>
<path d="M16 3.82611L16.3454 4.88892H17.4629L16.5587 5.54586L16.9041 6.60867L16 5.95186L15.0959 6.60867L15.4412 5.54586L14.5371 4.88892H15.6546L16 3.82611Z" fill="#F0F0F0"/>
<path d="M13.2891 5.91302L13.6344 6.9759H14.7519L13.8478 7.63277L14.1932 8.69559L13.2891 8.03877L12.3848 8.69559L12.7302 7.63277L11.826 6.9759H12.9436L13.2891 5.91302Z" fill="#F0F0F0"/>
<path d="M18.7109 5.91302L19.0564 6.9759H20.1739L19.2697 7.63277L19.6151 8.69559L18.7109 8.03877L17.8068 8.69559L18.1522 7.63277L17.248 6.9759H18.3655L18.7109 5.91302Z" fill="#F0F0F0"/>
<path d="M17.6676 9.04346L18.013 10.1063H19.1305L18.2263 10.7632L18.5717 11.826L17.6676 11.1692L16.7635 11.826L17.1088 10.7632L16.2047 10.1063H17.3221L17.6676 9.04346Z" fill="#F0F0F0"/>
<path d="M14.3324 9.04346L14.6778 10.1063H15.7954L14.8912 10.7632L15.2366 11.826L14.3324 11.1692L13.4283 11.826L13.7736 10.7632L12.8695 10.1063H13.9871L14.3324 9.04346Z" fill="#F0F0F0"/>
</g>
<defs>
<clipPath id="clip0_14537_62806">
<rect width="32" height="32" fill="white"/>
</clipPath>
</defs>
</svg>
