<svg width="32" height="32" viewBox="0 0 32 32" fill="none" xmlns="http://www.w3.org/2000/svg">
<g clip-path="url(#clip0_14537_62816)">
<path d="M6.98206 29.2174C9.54993 30.9727 12.6547 32 16 32C19.3452 32 22.4501 30.9727 25.0179 29.2174L16 27.826L6.98206 29.2174Z" fill="#D80027"/>
<path d="M25.0179 2.78262C22.4501 1.02731 19.3452 0 16 0C12.6547 0 9.54981 1.02731 6.98206 2.78262L16 4.17394L25.0179 2.78262Z" fill="#D80027"/>
<path d="M6.98206 29.2174C9.54993 30.9727 12.6547 32 16 32C19.3452 32 22.4501 30.9727 25.0179 29.2174L16 27.826L6.98206 29.2174Z" fill="#D80027"/>
<path d="M25.0179 2.78262C22.4501 1.02731 19.3452 0 16 0C12.6547 0 9.54981 1.02731 6.98206 2.78262L16 4.17394L25.0179 2.78262Z" fill="#D80027"/>
<path d="M31.9592 14.9565C31.5801 10.0184 28.5797 5.21741 25.0179 2.78259H6.98201C3.03601 5.48016 0.359319 9.89816 0.0335693 14.9565L15.9999 16L31.9592 14.9565Z" fill="#0052B4"/>
<path d="M0.0335693 17.0435C0.359319 22.1019 3.03594 26.5199 6.98194 29.2174H25.0178C28.964 26.5199 31.6405 22.1019 31.9663 17.0435L15.9999 16L0.0335693 17.0435Z" fill="#0052B4"/>
<path d="M31.9592 14.9564H17.0435V2.08691H14.9566V14.9564H0.0336875C0.0115 15.3014 0 15.6494 0 16C0 16.3505 0.0114375 16.6984 0.033625 17.0434H14.9566V29.913H17.0435V17.0434H31.9664C31.9886 16.6984 32 16.3505 32 16C32 15.6519 31.9859 15.3039 31.9592 14.9564Z" fill="#D80027"/>
<path d="M6.26086 16L15.9999 9.8786L25.7391 16L15.9999 22.1214L6.26086 16Z" fill="#F0F0F0"/>
<path d="M10.4348 18.7826H22.9565L20.1739 14.6087L18.7826 16L17.3913 15.3044L16 17.3913H13.2174L11.8261 16L10.4348 18.7826Z" fill="#6DA544"/>
<path d="M16 11.826L16.3454 12.8889H17.4629L16.5588 13.5458L16.9042 14.6087L16 13.9518L15.0959 14.6087L15.4413 13.5458L14.5372 12.8889H15.6547L16 11.826Z" fill="#FFDA44"/>
<path d="M16 8.12964L3.47827 16L16 23.8704L28.5218 16L16 8.12964ZM7.40002 16L16 10.5946L24.6 16L16 21.4055L7.40002 16Z" fill="#D80027"/>
</g>
<defs>
<clipPath id="clip0_14537_62816">
<rect width="32" height="32" fill="white"/>
</clipPath>
</defs>
</svg>
