<svg width="32" height="32" viewBox="0 0 32 32" fill="none" xmlns="http://www.w3.org/2000/svg">
<g clip-path="url(#clip0_14537_62831)">
<path d="M14.6087 17.3913C14.6087 17.3913 4.69565 4.68406 4.68628 4.68631C7.58165 1.79088 11.5817 0 16 0C24.8365 0 32 7.1635 32 16L14.6087 17.3913Z" fill="#D80027"/>
<path d="M14.6087 16C14.6087 16 4.69565 27.3159 4.68628 27.3137C7.58165 30.2091 11.5817 32 16 32C24.8365 32 32 24.8365 32 16H14.6087Z" fill="#0052B4"/>
<path d="M4.68628 4.68628C-1.56209 10.9347 -1.56209 21.0653 4.68628 27.3138C7.26834 24.7317 9.75166 22.2484 16 16L4.68628 4.68628Z" fill="#F0F0F0"/>
<path d="M1.75382 16.0001C1.74507 16.1149 1.73914 16.2307 1.73914 16.3478C1.73914 18.8451 3.76364 20.8696 6.26089 20.8696C8.75814 20.8696 10.7826 18.8451 10.7826 16.3478C10.7826 16.2307 10.7767 16.1149 10.7679 16.0001H1.75382Z" fill="#FFDA44"/>
<path d="M6.26094 13.9131C7.02934 13.9131 7.65225 13.2901 7.65225 12.5217C7.65225 11.7533 7.02934 11.1304 6.26094 11.1304C5.49254 11.1304 4.86963 11.7533 4.86963 12.5217C4.86963 13.2901 5.49254 13.9131 6.26094 13.9131Z" fill="#FFDA44"/>
<path d="M3.13049 12.174V16.6957C3.13049 19.092 6.26093 19.8261 6.26093 19.8261C6.26093 19.8261 9.39137 19.092 9.39137 16.6957V12.174H3.13049Z" fill="#D80027"/>
<path d="M6.26242 18.37C5.68167 18.161 4.52173 17.6269 4.52173 16.6956V13.5652H8.00004V16.6956C8.00004 17.6299 6.84023 18.1627 6.26242 18.37Z" fill="#338AF3"/>
<path d="M6.95653 15.3044V14.6087L6.26091 14.2609L5.56522 14.6087V15.3044L5.21741 15.6522V17.0435H7.30441V15.6522L6.95653 15.3044Z" fill="#F3F3F3"/>
</g>
<defs>
<clipPath id="clip0_14537_62831">
<rect width="32" height="32" fill="white"/>
</clipPath>
</defs>
</svg>
