<svg width="32" height="32" viewBox="0 0 32 32" fill="none" xmlns="http://www.w3.org/2000/svg">
<g clip-path="url(#clip0_14537_62841)">
<path d="M16 32C24.8366 32 32 24.8366 32 16C32 7.16344 24.8366 0 16 0C7.16344 0 0 7.16344 0 16C0 24.8366 7.16344 32 16 32Z" fill="#F0F0F0"/>
<path d="M16 32C24.8365 32 32 24.8365 32 16C32 14.0429 31.648 12.1681 31.0048 10.4348H0.995188C0.352063 12.1681 0 14.0429 0 16C0 24.8365 7.1635 32 16 32Z" fill="#0052B4"/>
<path d="M16.0001 32C22.8795 32 28.7442 27.658 31.0049 21.5652H0.995239C3.25593 27.658 9.12061 32 16.0001 32Z" fill="#D80027"/>
<path d="M4.13733 9.04352V17.0251C4.13733 21.5654 10.0686 22.9566 10.0686 22.9566C10.0686 22.9566 15.9999 21.5654 15.9999 17.0251V9.04352H4.13733Z" fill="#F0F0F0"/>
<path d="M5.52869 9.04352V17.0251C5.52869 17.5581 5.64706 18.0615 5.88156 18.5335H14.2557C14.4902 18.0616 14.6086 17.5581 14.6086 17.0251V9.04352H5.52869Z" fill="#D80027"/>
<path d="M12.8512 14.6087H10.7643V13.2174H12.1556V11.8261H10.7643V10.4348H9.37301V11.8261H7.98176V13.2174H9.37301V14.6087H7.28601V16H9.37301V17.3913H10.7643V16H12.8512V14.6087Z" fill="#F0F0F0"/>
<path d="M7.7794 20.4756C8.67596 21.0391 9.59709 21.3662 10.0687 21.5117C10.5402 21.3662 11.4613 21.0391 12.3579 20.4756C13.262 19.9074 13.8958 19.2575 14.2557 18.5334C13.8588 18.2526 13.3745 18.087 12.8513 18.087C12.6608 18.087 12.4757 18.1096 12.2978 18.151C11.9207 17.2942 11.0648 16.6957 10.0687 16.6957C9.07265 16.6957 8.21665 17.2942 7.83965 18.151C7.66171 18.1096 7.47659 18.087 7.28615 18.087C6.76296 18.087 6.27865 18.2526 5.88171 18.5334C6.2414 19.2574 6.87521 19.9073 7.7794 20.4756Z" fill="#0052B4"/>
</g>
<defs>
<clipPath id="clip0_14537_62841">
<rect width="32" height="32" fill="white"/>
</clipPath>
</defs>
</svg>
