<svg width="32" height="32" viewBox="0 0 32 32" fill="none" xmlns="http://www.w3.org/2000/svg">
<g clip-path="url(#clip0_14537_62854)">
<path d="M27.3141 27.3141C33.3148 21.3135 33.5518 11.7332 28.0275 5.44824L16 15.9999L5.44824 28.0275C11.7332 33.5518 21.3134 33.3148 27.3141 27.3141Z" fill="#496E2D"/>
<path d="M4.68584 4.68587C10.6865 -1.31481 20.2668 -1.55175 26.5517 3.97256L15.9999 16.0002L3.97259 26.5518C-1.55178 20.2668 -1.31478 10.6865 4.68584 4.68587Z" fill="#0052B4"/>
<path d="M26.5517 3.97247L3.97253 26.5517C4.20078 26.8114 4.43778 27.0661 4.68585 27.3141C4.93384 27.5621 5.18866 27.7991 5.44841 28.0274L28.0274 5.44822C27.7992 5.18847 27.5621 4.93372 27.3141 4.68566C27.0662 4.43778 26.8114 4.20072 26.5517 3.97247Z" fill="#FFDA44"/>
<path d="M6.74125 5.56476L7.08669 6.62769H8.20425L7.30013 7.2845L7.64544 8.34744L6.74125 7.6905L5.83707 8.34744L6.18251 7.2845L5.27832 6.62769H6.39594L6.74125 5.56476Z" fill="#F0F0F0"/>
<path d="M12.4499 5.56476L12.7953 6.62769H13.9128L13.0087 7.2845L13.3541 8.34744L12.4499 7.6905L11.5457 8.34744L11.8911 7.2845L10.9869 6.62769H12.1045L12.4499 5.56476Z" fill="#F0F0F0"/>
<path d="M6.74125 11.1302L7.08669 12.1931H8.20425L7.30013 12.85L7.64544 13.9129L6.74125 13.256L5.83707 13.9129L6.18251 12.85L5.27832 12.1931H6.39594L6.74125 11.1302Z" fill="#F0F0F0"/>
<path d="M12.4499 11.1302L12.7953 12.1931H13.9128L13.0087 12.85L13.3541 13.9129L12.4499 13.256L11.5457 13.9129L11.8911 12.85L10.9869 12.1931H12.1045L12.4499 11.1302Z" fill="#F0F0F0"/>
<path d="M9.59557 8.34741L9.941 9.41035H11.0585L10.1544 10.0672L10.4998 11.1302L9.59557 10.4732L8.69138 11.1302L9.03675 10.0672L8.13257 9.41035H9.25019L9.59557 8.34741Z" fill="#F0F0F0"/>
</g>
<defs>
<clipPath id="clip0_14537_62854">
<rect width="32" height="32" fill="white"/>
</clipPath>
</defs>
</svg>
