<svg width="32" height="32" viewBox="0 0 32 32" fill="none" xmlns="http://www.w3.org/2000/svg">
<g clip-path="url(#clip0_14537_62867)">
<path d="M31.0048 21.5652C31.6479 19.8319 32 17.9571 32 16C32 14.0429 31.6479 12.1681 31.0048 10.4348L16 9.04352L0.995188 10.4348C0.352063 12.1681 0 14.0429 0 16C0 17.9571 0.352063 19.8319 0.995188 21.5652L16 22.9565L31.0048 21.5652Z" fill="#F0F0F0"/>
<path d="M16 32C22.8794 32 28.7441 27.658 31.0047 21.5652H0.995117C3.25587 27.658 9.12049 32 16 32Z" fill="#D80027"/>
<path d="M16 0C9.12049 0 3.25587 4.342 0.995117 10.4348H31.0048C28.7441 4.342 22.8794 0 16 0Z" fill="#496E2D"/>
<path d="M16 12.5217L16.8633 15.1788H19.6573L17.397 16.8211L18.2604 19.4782L16 17.8362L13.7396 19.4782L14.6031 16.8211L12.3428 15.1788H15.1367L16 12.5217Z" fill="black"/>
<path d="M20.7537 3.13043V6.37674C20.7537 6.88831 20.3376 7.30431 19.8262 7.30431V8.69562C21.1048 8.69562 22.145 7.65543 22.145 6.37674V3.13043H20.7537Z" fill="#F0F0F0"/>
<path d="M10.7827 6.37674C10.7827 6.88831 10.3666 7.30431 9.8551 7.30431V8.69562C11.1338 8.69562 12.174 7.65543 12.174 6.37674V3.13043H10.7827V6.37674Z" fill="#F0F0F0"/>
<path d="M18.6665 3.13043H20.0578V6.37674H18.6665V3.13043Z" fill="#F0F0F0"/>
<path d="M16.5797 4.98543C16.5797 5.11331 16.4756 5.21737 16.3478 5.21737C16.2199 5.21737 16.1159 5.11331 16.1159 4.98543V3.13043H14.7246V4.98543C14.7246 5.11331 14.6206 5.21737 14.4927 5.21737C14.3648 5.21737 14.2608 5.11331 14.2608 4.98543V3.13043H12.8695V4.98543C12.8695 5.88056 13.5976 6.60868 14.4927 6.60868C14.8374 6.60868 15.1571 6.50037 15.4202 6.31643C15.6834 6.50037 16.0031 6.60868 16.3478 6.60868C16.4172 6.60868 16.4854 6.60381 16.5526 6.59524C16.4539 7.00143 16.0881 7.30431 15.6521 7.30431V8.69562C16.9308 8.69562 17.9709 7.65543 17.9709 6.37674V4.98543V3.13043H16.5796L16.5797 4.98543Z" fill="#F0F0F0"/>
<path d="M12.8696 7.30438H14.9566V8.69569H12.8696V7.30438Z" fill="#F0F0F0"/>
</g>
<defs>
<clipPath id="clip0_14537_62867">
<rect width="32" height="32" fill="white"/>
</clipPath>
</defs>
</svg>
