<svg width="32" height="32" viewBox="0 0 32 32" fill="none" xmlns="http://www.w3.org/2000/svg">
<g clip-path="url(#clip0_14537_62885)">
<path d="M16 32C24.8366 32 32 24.8366 32 16C32 7.16344 24.8366 0 16 0C7.16344 0 0 7.16344 0 16C0 24.8366 7.16344 32 16 32Z" fill="#F0F0F0"/>
<path d="M21.5652 16C21.5652 17.3913 19.0736 20.8696 16 20.8696C12.9264 20.8696 10.4348 17.3913 10.4348 16C10.4348 12.9264 12.9264 10.4348 16 10.4348C19.0736 10.4348 21.5652 12.9264 21.5652 16Z" fill="#D80027"/>
<path d="M21.5652 16C21.5652 19.0736 19.0736 21.5652 16 21.5652C12.9264 21.5652 10.4348 19.0736 10.4348 16" fill="#0052B4"/>
<path d="M21.8984 20.9193L23.3739 19.4438L24.3576 20.4274L22.8821 21.9029L21.8984 20.9193Z" fill="black"/>
<path d="M19.4386 23.3785L20.9141 21.903L21.8977 22.8867L20.4223 24.3621L19.4386 23.3785Z" fill="black"/>
<path d="M24.8496 23.8701L26.3251 22.3946L27.3087 23.3782L25.8333 24.8537L24.8496 23.8701Z" fill="black"/>
<path d="M22.3898 26.3297L23.8652 24.8542L24.8489 25.8378L23.3734 27.3133L22.3898 26.3297Z" fill="black"/>
<path d="M23.3739 22.3948L24.8494 20.9193L25.833 21.903L24.3576 23.3784L23.3739 22.3948Z" fill="black"/>
<path d="M20.9148 24.8539L22.3903 23.3785L23.3739 24.3621L21.8985 25.8376L20.9148 24.8539Z" fill="black"/>
<path d="M24.8561 11.0834L20.9215 7.14885L21.9051 6.16519L25.8397 10.0998L24.8561 11.0834Z" fill="black"/>
<path d="M20.9208 10.1002L19.4453 8.62476L20.4289 7.64114L21.9044 9.11661L20.9208 10.1002Z" fill="black"/>
<path d="M23.3799 12.5599L21.9044 11.0845L22.888 10.1009L24.3635 11.5763L23.3799 12.5599Z" fill="black"/>
<path d="M23.8715 7.14874L22.396 5.67328L23.3797 4.68962L24.8551 6.16508L23.8715 7.14874Z" fill="black"/>
<path d="M26.3319 9.60876L24.8564 8.1333L25.8401 7.14964L27.3156 8.62511L26.3319 9.60876Z" fill="black"/>
<path d="M5.67212 22.392L9.60671 26.3266L8.62305 27.3102L4.68846 23.3756L5.67212 22.392Z" fill="black"/>
<path d="M9.60657 23.3749L11.082 24.8503L10.0984 25.834L8.62295 24.3585L9.60657 23.3749Z" fill="black"/>
<path d="M7.14722 20.9162L8.62268 22.3917L7.63902 23.3753L6.16356 21.8999L7.14722 20.9162Z" fill="black"/>
<path d="M8.6228 19.4403L12.5574 23.3749L11.5737 24.3586L7.63915 20.424L8.6228 19.4403Z" fill="black"/>
<path d="M9.60632 5.67023L5.67174 9.60482L4.68808 8.62116L8.62267 4.68657L9.60632 5.67023Z" fill="black"/>
<path d="M11.0818 7.14551L7.1472 11.0801L6.16354 10.0964L10.0981 6.16185L11.0818 7.14551Z" fill="black"/>
<path d="M12.5587 8.62189L8.62413 12.5565L7.64051 11.5729L11.5751 7.63827L12.5587 8.62189Z" fill="black"/>
</g>
<defs>
<clipPath id="clip0_14537_62885">
<rect width="32" height="32" fill="white"/>
</clipPath>
</defs>
</svg>
