<svg width="32" height="32" viewBox="0 0 32 32" fill="none" xmlns="http://www.w3.org/2000/svg">
<g clip-path="url(#clip0_14537_62907)">
<path d="M16 32C24.8366 32 32 24.8366 32 16C32 7.16344 24.8366 0 16 0C7.16344 0 0 7.16344 0 16C0 24.8366 7.16344 32 16 32Z" fill="#F0F0F0"/>
<path d="M30.7518 9.79706C28.3287 4.04138 22.6367 0 16 0C11.5816 0 7.58202 1.79119 4.68677 4.68681L8.69364 9.79706H30.7518Z" fill="black"/>
<path d="M8.73908 22.145L4.68677 27.3132C7.58202 30.2088 11.5816 32 16 32C22.6591 32 28.3673 27.9316 30.7765 22.145H8.73908Z" fill="#496E2D"/>
<path d="M3.47827 11.7681V20.1739H31.4489C31.8078 18.8432 32 17.4442 32 16C32 14.5349 31.8026 13.1161 31.4337 11.7681H3.47827Z" fill="#A2001D"/>
<path d="M4.68628 4.68628C-1.56209 10.9347 -1.56209 21.0653 4.68628 27.3138C7.26834 24.7317 9.75166 22.2484 16 16L4.68628 4.68628Z" fill="#0052B4"/>
<path d="M5.21157 12.022L7.16438 14.747L10.3599 13.7317L8.37169 16.4313L10.3245 19.1565L7.14276 18.0998L5.15451 20.7993L5.17638 17.4466L1.99451 16.3898L5.18976 15.3745L5.21157 12.022Z" fill="#FFDA44"/>
</g>
<defs>
<clipPath id="clip0_14537_62907">
<rect width="32" height="32" fill="white"/>
</clipPath>
</defs>
</svg>
