<svg width="32" height="32" viewBox="0 0 32 32" fill="none" xmlns="http://www.w3.org/2000/svg">
<g clip-path="url(#clip0_14537_62919)">
<path d="M16 31.9999C24.8365 31.9999 31.9999 24.8365 31.9999 16C31.9999 7.16343 24.8365 0 16 0C7.16343 0 0 7.16343 0 16C0 24.8365 7.16343 31.9999 16 31.9999Z" fill="#FFDA44"/>
<path d="M12.5218 2.78265H6.98213C6.73663 2.95047 6.49638 3.12515 6.26094 3.30597L4.86963 16L6.26094 28.694C6.49638 28.8748 6.73663 29.0495 6.98213 29.2173H12.5218V2.78265Z" fill="#FF9811"/>
<path d="M0.00012207 16.0001C0.00012207 21.1717 2.45437 25.7693 6.261 28.6941V3.30603C2.45437 6.23091 0.00012207 10.8285 0.00012207 16.0001Z" fill="#6DA544"/>
<path d="M25.7391 9.75403V10.1543L25.754 10.1566L25.7391 9.75403Z" fill="#FFDA44"/>
<path d="M30.7247 20.1739H27.7101L26.4348 21.5652V24.3478H23.6522V22.9565H25.0435V20.1739H18.7826V21.913H17.3913V18.5986C16.9645 18.2165 16.6957 17.6614 16.6957 17.0435V8.00003C16.6957 6.84747 17.6301 5.91309 18.7826 5.91309V18.7827H21.5653L22.52 17.987C22.3533 17.5898 22.2609 17.1536 22.2609 16.6957V14.6088H20.174V10.4349H24.3478C24.3478 9.73928 25.3913 9.04359 25.3913 9.04359C25.3913 9.04359 26.4348 9.73922 26.4348 10.4349V11.4784V14.6088C27.2088 14.618 28.4384 14.598 29.7668 14.6088C29.4178 13.9988 29.2174 13.275 29.2174 12.5219C29.2174 11.2943 29.7474 10.1907 30.591 9.42697C29.375 6.73228 27.4346 4.43465 25.018 2.78265H14.6088V29.2174H25.018C27.9567 27.2086 30.191 24.2454 31.275 20.7743L30.7247 20.1739Z" fill="#A2001D"/>
</g>
<defs>
<clipPath id="clip0_14537_62919">
<rect width="32" height="32" fill="white"/>
</clipPath>
</defs>
</svg>
