<svg width="32" height="32" viewBox="0 0 32 32" fill="none" xmlns="http://www.w3.org/2000/svg">
<g clip-path="url(#clip0_14537_62926)">
<path d="M16 32C24.8366 32 32 24.8366 32 16C32 7.16344 24.8366 0 16 0C7.16344 0 0 7.16344 0 16C0 24.8366 7.16344 32 16 32Z" fill="#F0F0F0"/>
<path d="M28.568 12.8695H23.3043C23.3043 11.9091 22.5256 11.1304 21.5652 11.1304L20.1738 13.913C20.1738 13.913 21.6579 18.087 21.6115 18.087H23.3506C24.3112 18.087 25.0897 17.3084 25.0897 16.3478C26.0503 16.3478 26.8289 15.5693 26.8289 14.6087H26.7709C27.7314 14.6087 28.568 13.8301 28.568 12.8695Z" fill="#ACABB1"/>
<path d="M3.43188 12.8695H8.69564C8.69564 11.9091 9.47428 11.1304 10.4348 11.1304L11.8261 13.913C11.8261 13.913 10.342 18.087 10.3884 18.087H8.64929C7.68875 18.087 6.91018 17.3084 6.91018 16.3478C5.94964 16.3478 5.17106 15.5693 5.17106 14.6087H5.22898C4.26845 14.6087 3.43188 13.8301 3.43188 12.8695Z" fill="#ACABB1"/>
<path d="M21.5651 22.2608V22.9564H10.4347V22.2608H7.6521V25.0434H10.4347V25.739H21.5651V25.0434H24.3477V22.2608H21.5651Z" fill="#FFDA44"/>
<path d="M10.4347 11.1304V18.0868C10.4347 22.3468 15.9999 23.6521 15.9999 23.6521C15.9999 23.6521 21.5651 22.3468 21.5651 18.0868V11.1304L15.9999 10.4348L10.4347 11.1304Z" fill="#0052B4"/>
<path d="M10.4348 13.9133H21.5652V18.0872H10.4348V13.9133Z" fill="#D80027"/>
<path d="M18.7825 7.65213V8.69561L18.0868 9.04346L17.3912 8.34777V6.2608H14.6086V8.34777L13.913 9.04346L13.2173 8.69561V7.65213H10.4347V11.1304H21.5651V7.65213H18.7825Z" fill="#FFDA44"/>
</g>
<defs>
<clipPath id="clip0_14537_62926">
<rect width="32" height="32" fill="white"/>
</clipPath>
</defs>
</svg>
