<svg width="32" height="32" viewBox="0 0 32 32" fill="none" xmlns="http://www.w3.org/2000/svg">
<g clip-path="url(#clip0_14537_62940)">
<path d="M23.6522 1.94544C21.379 0.705188 18.7719 0 16 0C13.2282 0 10.621 0.705188 8.34786 1.94544L6.95654 16L8.34786 30.0546C10.621 31.2948 13.2282 32 16 32C18.7719 32 21.379 31.2948 23.6522 30.0546L25.0435 16L23.6522 1.94544Z" fill="#FFDA44"/>
<path d="M8.34781 30.0544V1.94537C3.37431 4.65912 0 9.93531 0 16C0 22.0647 3.37431 27.3409 8.34781 30.0544Z" fill="#338AF3"/>
<path d="M31.9999 16C31.9999 9.93531 28.6256 4.65912 23.6521 1.94537V30.0544C28.6256 27.3409 31.9999 22.0647 31.9999 16Z" fill="#6DA544"/>
<path d="M12.5217 20.1739L9.73901 16L12.5216 11.826L15.3044 16L12.5217 20.1739Z" fill="#6DA544"/>
<path d="M19.4782 20.1739L16.6956 16L19.4782 11.826L22.2608 16L19.4782 20.1739Z" fill="#6DA544"/>
<path d="M15.9999 25.7391L13.2173 21.5652L15.9999 17.3913L18.7825 21.5652L15.9999 25.7391Z" fill="#6DA544"/>
</g>
<defs>
<clipPath id="clip0_14537_62940">
<rect width="32" height="32" fill="white"/>
</clipPath>
</defs>
</svg>
