<svg width="32" height="32" viewBox="0 0 32 32" fill="none" xmlns="http://www.w3.org/2000/svg">
<g clip-path="url(#clip0_14537_62953)">
<path d="M16 32C24.8366 32 32 24.8366 32 16C32 7.16344 24.8366 0 16 0C7.16344 0 0 7.16344 0 16C0 24.8366 7.16344 32 16 32Z" fill="#F0F0F0"/>
<path d="M31.0047 10.4348H0.995125C0.352063 12.1682 0 14.0429 0 16C0 17.9571 0.352063 19.8319 0.995125 21.5652H31.0048C31.648 19.8319 32 17.9571 32 16C32 14.0429 31.648 12.1682 31.0047 10.4348Z" fill="#A2001D"/>
<path d="M16.0464 32C21.5265 32 26.3625 29.2443 29.2461 25.0435H2.84668C5.7303 29.2443 10.5662 32 16.0464 32Z" fill="#6DA544"/>
<path d="M16.0464 0.00012207C21.5265 0.00012207 26.3625 2.75587 29.2461 6.95662H2.84668C5.7303 2.75587 10.5662 0.00012207 16.0464 0.00012207Z" fill="#6DA544"/>
<path d="M15.9999 10.4348L17.3813 14.6861H21.8516L18.2351 17.3138L19.6165 21.5652L15.9999 18.9378L12.3834 21.5652L13.7649 17.3138L10.1483 14.6861H14.6186L15.9999 10.4348Z" fill="#FFDA44"/>
</g>
<defs>
<clipPath id="clip0_14537_62953">
<rect width="32" height="32" fill="white"/>
</clipPath>
</defs>
</svg>
