<svg width="32" height="32" viewBox="0 0 32 32" fill="none" xmlns="http://www.w3.org/2000/svg">
<g clip-path="url(#clip0_14537_62960)">
<path d="M30.4124 22.9565C31.4295 20.8531 32 18.4932 32 16C32 13.5069 31.4295 11.147 30.4124 9.04353L16 8.34784L1.58763 9.04346C0.5705 11.147 0 13.5069 0 16C0 18.4932 0.5705 20.8531 1.58763 22.9565L16 23.6522L30.4124 22.9565Z" fill="#FFDA44"/>
<path d="M16 0C9.65665 0 4.17565 3.69156 1.58765 9.0435H30.4123C27.8244 3.69156 22.3433 0 16 0Z" fill="black"/>
<path d="M16 32C9.65665 32 4.17565 28.3084 1.58765 22.9565H30.4123C27.8244 28.3084 22.3433 32 16 32Z" fill="#0052B4"/>
<path d="M31.2444 11.1304H0.755562C0.265437 12.666 0 14.3019 0 16C0 17.6981 0.265437 19.334 0.755562 20.8696H31.2444C31.7346 19.334 32 17.6981 32 16C32 14.3019 31.7346 12.666 31.2444 11.1304Z" fill="#A2001D"/>
<path d="M5.56519 15.3044H26.4347V16.6957H5.56519V15.3044Z" fill="#FFDA44"/>
<path d="M8.34778 12.5217H23.6522V13.913H8.34778V12.5217Z" fill="#FFDA44"/>
<path d="M23.7515 16C23.7515 16 20.1739 20.1739 16 20.1739C11.8261 20.1739 11.826 16 11.826 16C11.826 16 11.8261 11.826 16 11.826C20.1739 11.826 23.7515 16 23.7515 16Z" fill="#F0F0F0"/>
<path d="M16 20.1739C11.826 20.1739 8.24841 16 8.24841 16C8.24841 16 11.826 11.826 16 11.826" fill="black"/>
<path d="M13.2174 14.6087H14.6087V17.3913H13.2174V14.6087Z" fill="#F0F0F0"/>
<path d="M17.3914 14.6087H18.7827V17.3913H17.3914V14.6087Z" fill="black"/>
<path d="M5.56514 17.3913C6.33354 17.3913 6.95645 16.7684 6.95645 16C6.95645 15.2316 6.33354 14.6087 5.56514 14.6087C4.79674 14.6087 4.17383 15.2316 4.17383 16C4.17383 16.7684 4.79674 17.3913 5.56514 17.3913Z" fill="#0052B4"/>
<path d="M26.4348 17.3913C27.2032 17.3913 27.8261 16.7684 27.8261 16C27.8261 15.2316 27.2032 14.6087 26.4348 14.6087C25.6664 14.6087 25.0435 15.2316 25.0435 16C25.0435 16.7684 25.6664 17.3913 26.4348 17.3913Z" fill="#0052B4"/>
</g>
<defs>
<clipPath id="clip0_14537_62960">
<rect width="32" height="32" fill="white"/>
</clipPath>
</defs>
</svg>
