<svg width="32" height="32" viewBox="0 0 32 32" fill="none" xmlns="http://www.w3.org/2000/svg">
<g clip-path="url(#clip0_14537_62992)">
<path d="M32 16C32 24.8365 24.8365 32 16 32C7.1635 32 0 24.8365 0 16C5.49563 10.5044 10.1565 5.8435 16 0C24.8365 0 32 7.1635 32 16Z" fill="#D80027"/>
<path d="M16 16C16 7.1635 16 6.12175 16 0C7.1635 0 0 7.1635 0 16H16Z" fill="#0052B4"/>
<path d="M13.913 9.36382L11.9589 10.2831L12.9994 12.1755L10.8776 11.7695L10.6087 13.9131L9.13082 12.3366L7.65282 13.9131L7.38401 11.7695L5.26213 12.1754L6.30263 10.2829L4.34863 9.36382L6.3027 8.44476L5.26213 6.55226L7.38394 6.9582L7.65288 4.8147L9.13082 6.3912L10.6088 4.8147L10.8776 6.9582L12.9995 6.55226L11.9589 8.44482L13.913 9.36382Z" fill="#F0F0F0"/>
<path d="M9.13115 12.3418C10.776 12.3418 12.1095 11.0084 12.1095 9.3635C12.1095 7.71863 10.776 6.38519 9.13115 6.38519C7.48627 6.38519 6.15283 7.71863 6.15283 9.3635C6.15283 11.0084 7.48627 12.3418 9.13115 12.3418Z" fill="#0052B4"/>
<path d="M9.13088 10.9508C8.25582 10.9508 7.54395 10.2389 7.54395 9.36379C7.54395 8.48873 8.25588 7.77679 9.13088 7.77679C10.0059 7.77679 10.7179 8.48873 10.7179 9.36379C10.7178 10.2389 10.0058 10.9508 9.13088 10.9508Z" fill="#F0F0F0"/>
</g>
<defs>
<clipPath id="clip0_14537_62992">
<rect width="32" height="32" fill="white"/>
</clipPath>
</defs>
</svg>
