<svg width="32" height="32" viewBox="0 0 32 32" fill="none" xmlns="http://www.w3.org/2000/svg">
<g clip-path="url(#clip0_14537_62998)">
<path d="M1.58763 9.04347C0.5705 11.147 0 13.5068 0 16C0 18.4931 0.5705 20.853 1.58763 22.9565L16 24.3478L30.4124 22.9565C31.4295 20.853 32 18.4931 32 16C32 13.5068 31.4295 11.147 30.4124 9.04347L16 7.65216L1.58763 9.04347Z" fill="#F0F0F0"/>
<path d="M1.58813 22.9565C4.17607 28.3084 9.65664 32 15.9999 32C22.3433 32 27.8239 28.3084 30.4118 22.9565H1.58813Z" fill="#6DA544"/>
<path d="M1.58813 9.0435H30.4118C27.8239 3.69163 22.3433 0 15.9999 0C9.65664 0 4.17607 3.69163 1.58813 9.0435Z" fill="#D80027"/>
<path d="M13.2174 20.174H18.7827V17.8087L17.6696 18.3652L16 16.6957L14.3305 18.3652L13.2174 17.8087V20.174Z" fill="#FFDA44"/>
<path d="M10.0332 17.3914L10.2923 18.1885H11.1304L10.4523 18.6812L10.7113 19.4783L10.0332 18.9857L9.3551 19.4783L9.61416 18.6812L8.93604 18.1885H9.77416L10.0332 17.3914Z" fill="#FFDA44"/>
<path d="M10.8363 14.6087L11.0954 15.4058H11.9335L11.2554 15.8985L11.5144 16.6956L10.8363 16.203L10.1582 16.6956L10.4173 15.8985L9.73914 15.4058H10.5773L10.8363 14.6087Z" fill="#FFDA44"/>
<path d="M13.132 12.5218L13.391 13.3189H14.2291L13.5511 13.8116L13.81 14.6087L13.132 14.1161L12.4539 14.6087L12.7129 13.8116L12.0348 13.3189H12.873L13.132 12.5218Z" fill="#FFDA44"/>
<path d="M21.9667 17.3914L21.7076 18.1885H20.8695L21.5476 18.6812L21.2886 19.4783L21.9667 18.9857L22.6448 19.4783L22.3858 18.6812L23.0639 18.1885H22.2258L21.9667 17.3914Z" fill="#FFDA44"/>
<path d="M21.1637 14.6087L20.9047 15.4058H20.0665L20.7447 15.8985L20.4856 16.6956L21.1637 16.203L21.8418 16.6956L21.5828 15.8985L22.2609 15.4058H21.4228L21.1637 14.6087Z" fill="#FFDA44"/>
<path d="M18.8679 12.5218L18.6088 13.3189H17.7708L18.4488 13.8116L18.1898 14.6087L18.8679 14.1161L19.5459 14.6087L19.2869 13.8116L19.965 13.3189H19.1269L18.8679 12.5218Z" fill="#FFDA44"/>
<path d="M16 11.4782L16.2591 12.2753H17.0972L16.4191 12.768L16.6781 13.5651L16 13.0725L15.3219 13.5651L15.581 12.768L14.9028 12.2753H15.741L16 11.4782Z" fill="#FFDA44"/>
</g>
<defs>
<clipPath id="clip0_14537_62998">
<rect width="32" height="32" fill="white"/>
</clipPath>
</defs>
</svg>
