<svg width="32" height="32" viewBox="0 0 32 32" fill="none" xmlns="http://www.w3.org/2000/svg">
<g clip-path="url(#clip0_14537_63011)">
<path d="M16 32C24.8366 32 32 24.8366 32 16C32 7.16344 24.8366 0 16 0C7.16344 0 0 7.16344 0 16C0 24.8366 7.16344 32 16 32Z" fill="#FFDA44"/>
<path d="M4.68627 27.3138C5.35746 27.985 6.07359 28.5835 6.82477 29.1105L29.1104 6.82484C28.5835 6.07365 27.9849 5.35752 27.3137 4.68634C26.6425 4.01515 25.9264 3.41665 25.1752 2.88965L2.88965 25.1753C3.41652 25.9263 4.01515 26.6425 4.68627 27.3138Z" fill="black"/>
<path d="M4.68612 4.6861C-0.361505 9.73385 -1.33057 17.3145 1.77712 23.336L23.336 1.77717C17.3146 -1.33052 9.73381 -0.361395 4.68612 4.6861Z" fill="#6DA544"/>
<path d="M27.3136 27.3138C32.3613 22.2661 33.3303 14.6853 30.2227 8.66388L8.66382 30.2228C14.6851 33.3304 22.2659 32.3614 27.3136 27.3138Z" fill="#338AF3"/>
</g>
<defs>
<clipPath id="clip0_14537_63011">
<rect width="32" height="32" fill="white"/>
</clipPath>
</defs>
</svg>
