<svg width="32" height="32" viewBox="0 0 32 32" fill="none" xmlns="http://www.w3.org/2000/svg">
<g clip-path="url(#clip0_14537_63016)">
<path d="M16 32C24.8366 32 32 24.8366 32 16C32 7.16344 24.8366 0 16 0C7.16344 0 0 7.16344 0 16C0 24.8366 7.16344 32 16 32Z" fill="#F0F0F0"/>
<path d="M31.0048 10.4348H0.995188C0.352 12.1681 0 14.0429 0 16C0 17.9571 0.352 19.8319 0.995188 21.5652H31.0049C31.648 19.8319 32 17.9571 32 16C32 14.0429 31.648 12.1681 31.0048 10.4348Z" fill="#0052B4"/>
<path d="M16 0C11.1506 0 6.8054 2.15775 3.87122 5.56519H28.1288C25.1947 2.15775 20.8495 0 16 0Z" fill="#D80027"/>
<path d="M28.1288 26.4348H3.87122C6.8054 29.8423 11.1506 32 16 32C20.8495 32 25.1947 29.8423 28.1288 26.4348Z" fill="#D80027"/>
</g>
<defs>
<clipPath id="clip0_14537_63016">
<rect width="32" height="32" fill="white"/>
</clipPath>
</defs>
</svg>
