<svg width="32" height="32" viewBox="0 0 32 32" fill="none" xmlns="http://www.w3.org/2000/svg">
<g clip-path="url(#clip0_14537_63022)">
<path d="M16 32C24.8366 32 32 24.8366 32 16C32 7.16344 24.8366 0 16 0C7.16344 0 0 7.16344 0 16C0 24.8366 7.16344 32 16 32Z" fill="#F0F0F0"/>
<path d="M6.98206 2.78262C9.54987 1.02725 12.6547 0 16 0C19.3452 0 22.4501 1.02725 25.0179 2.78262L16 3.47825L6.98206 2.78262Z" fill="#FFDA44"/>
<path d="M4.68713 27.3128L12.0647 19.9353L16 13.2173L19.9348 19.9349L27.3129 27.3128C30.2085 24.4176 32 20.4183 32 16C32 10.5087 29.2332 5.66403 25.0179 2.78259H6.98206C2.76681 5.66403 0 10.5087 0 16C0 20.4183 1.7915 24.4176 4.68713 27.3128Z" fill="#D80027"/>
<path d="M30.7846 22.1263L19.0864 17.2789L19.9343 19.9342L27.3129 27.3128C28.7862 25.8397 29.9736 24.0809 30.7846 22.1263Z" fill="#0052B4"/>
<path d="M32 16C32 13.8297 31.5674 11.7606 30.7845 9.87366L16 16H32Z" fill="#0052B4"/>
<path d="M27.3129 4.68709C26.6096 3.98397 25.8416 3.34566 25.0179 2.78259H21.477L16 16L27.3129 4.68709Z" fill="#0052B4"/>
<path d="M16 2.78259H10.5231L16 16V2.78259Z" fill="#0052B4"/>
<path d="M4.68714 4.68713C3.21389 6.16026 2.02658 7.91907 1.21558 9.87363L16 16L4.68714 4.68713Z" fill="#0052B4"/>
<path d="M0 16C0 18.1703 0.432562 20.2394 1.2155 22.1263L16 16H0Z" fill="#0052B4"/>
<path d="M6.98206 29.2174C9.54981 30.9728 12.6547 32 16 32C19.3452 32 22.4501 30.9728 25.0179 29.2174H6.98206Z" fill="#FFDA44"/>
<path d="M16 16L19.9352 19.9352C20.9424 18.9281 21.5653 17.5368 21.5653 16C21.5653 12.9264 19.0736 10.4348 16.0001 10.4348C12.9265 10.4348 10.4348 12.9264 10.4348 16C10.4348 17.5368 11.0577 18.9281 12.0649 19.9352L16 16Z" fill="#FFDA44"/>
<path d="M18.4348 24C18.4348 25.3447 17.3446 25.7391 16 25.7391C14.6554 25.7391 13.5652 25.3447 13.5652 24C13.5652 22.6553 14.6554 21.5652 16 21.5652C17.3446 21.5652 18.4348 22.6553 18.4348 24Z" fill="#FFDA44"/>
<path d="M18.4348 24C18.4348 25.3447 17.3446 26.4348 16 26.4348C14.6554 26.4348 13.5652 25.3447 13.5652 24" fill="#0052B4"/>
</g>
<defs>
<clipPath id="clip0_14537_63022">
<rect width="32" height="32" fill="white"/>
</clipPath>
</defs>
</svg>
