<svg width="32" height="32" viewBox="0 0 32 32" fill="none" xmlns="http://www.w3.org/2000/svg">
<g clip-path="url(#clip0_14537_63038)">
<path d="M16 32C24.8366 32 32 24.8366 32 16C32 7.16344 24.8366 0 16 0C7.16344 0 0 7.16344 0 16C0 24.8366 7.16344 32 16 32Z" fill="#FFDA44"/>
<path d="M16.0001 0C15.9884 0.000125 15.3044 6.4 15.3044 6.4H28.8008C25.8818 2.51394 21.2346 0 16.0001 0Z" fill="#496E2D"/>
<path d="M16 32C21.2345 32 25.8817 29.486 28.8007 25.6H3.19934C6.11834 29.486 10.7655 32 16 32Z" fill="#496E2D"/>
<path d="M31.6797 12.8H15.3044L16.0001 19.2H31.6797C31.8897 18.1661 32.0001 17.096 32.0001 16C32.0001 14.9041 31.8896 13.834 31.6797 12.8Z" fill="#496E2D"/>
<path d="M16 19.2C16 15.8609 16 3.7565 16 0C7.1635 0 0 7.1635 0 16C0 17.0959 0.1105 18.1661 0.320375 19.2H16Z" fill="#D80027"/>
<path d="M8.82857 7.65222L9.86457 10.8407H13.2174L10.5051 12.8115L11.5409 16L8.82857 14.0294L6.11619 16L7.15225 12.8115L4.43994 10.8407H7.79263L8.82857 7.65222Z" fill="#F0F0F0"/>
</g>
<defs>
<clipPath id="clip0_14537_63038">
<rect width="32" height="32" fill="white"/>
</clipPath>
</defs>
</svg>
