<svg width="32" height="32" viewBox="0 0 32 32" fill="none" xmlns="http://www.w3.org/2000/svg">
<g clip-path="url(#clip0_14537_63059)">
<path d="M31.4488 11.8261C29.6128 5.01381 23.3924 0 16 0C8.60752 0 2.38715 5.01381 0.551147 11.8261L16 12.5218L31.4488 11.8261Z" fill="#A2001D"/>
<path d="M0.551147 20.174C2.38715 26.9861 8.60752 32 16 32C23.3924 32 29.6128 26.9862 31.4488 20.174L16 19.4783L0.551147 20.174Z" fill="#A2001D"/>
<path d="M31.4488 11.826H0.551188C0.1925 13.1569 0 14.5558 0 16C0 17.4442 0.1925 18.8431 0.551188 20.1739H31.4489C31.8075 18.8431 32 17.4442 32 16C32 14.5558 31.8075 13.1569 31.4488 11.826Z" fill="#6DA544"/>
</g>
<defs>
<clipPath id="clip0_14537_63059">
<rect width="32" height="32" fill="white"/>
</clipPath>
</defs>
</svg>
