<svg width="32" height="32" viewBox="0 0 32 32" fill="none" xmlns="http://www.w3.org/2000/svg">
<g clip-path="url(#clip0_14537_63064)">
<path d="M8.66355 1.77661C7.23117 2.51592 5.88661 3.48499 4.68586 4.68574C3.48505 5.88655 2.51598 7.23111 1.77673 8.66349L12.0647 19.9353L23.3365 30.2232C24.7689 29.4839 26.1135 28.5149 27.3142 27.3142C28.515 26.1134 29.484 24.7688 30.2234 23.3364L19.9354 12.0645L8.66355 1.77661Z" fill="#F0F0F0"/>
<path d="M27.3142 27.3142C27.9854 26.643 28.584 25.9268 29.111 25.1757L6.82441 2.88904C6.07323 3.41598 5.35704 4.0146 4.68585 4.68579C4.01466 5.35698 3.41604 6.07316 2.88904 6.82441L25.1756 29.1109C25.9267 28.584 26.643 27.9854 27.3142 27.3142Z" fill="black"/>
<path d="M4.68575 27.3141C9.73368 32.3621 17.3147 33.3311 23.3364 30.2232L1.77668 8.66345C-1.33113 14.6851 -0.361942 22.2662 4.68575 27.3141Z" fill="#D80027"/>
<path d="M27.3142 4.68582C22.2663 -0.36205 14.6852 -1.33105 8.66357 1.77664L30.2233 23.3365C33.3311 17.3149 32.3621 9.7337 27.3142 4.68582Z" fill="#D80027"/>
</g>
<defs>
<clipPath id="clip0_14537_63064">
<rect width="32" height="32" fill="white"/>
</clipPath>
</defs>
</svg>
