<svg width="32" height="32" viewBox="0 0 32 32" fill="none" xmlns="http://www.w3.org/2000/svg">
<g clip-path="url(#clip0_14537_63070)">
<path d="M16 32C24.8366 32 32 24.8366 32 16C32 7.16344 24.8366 0 16 0C7.16344 0 0 7.16344 0 16C0 24.8366 7.16344 32 16 32Z" fill="#D80027"/>
<path d="M16 23.6522C20.2262 23.6522 23.6522 20.2262 23.6522 16C23.6522 11.7738 20.2262 8.34778 16 8.34778C11.7738 8.34778 8.34778 11.7738 8.34778 16C8.34778 20.2262 11.7738 23.6522 16 23.6522Z" fill="#F0F0F0"/>
<path d="M16.9427 13.0741L18.2554 14.8832L20.3815 14.1938L19.0667 16.0013L20.3793 17.8103L18.2539 17.1183L16.9391 18.9258L16.9405 16.6907L14.8152 15.9987L16.9413 15.3093L16.9427 13.0741Z" fill="#D80027"/>
<path d="M17.7391 20.5217C15.2419 20.5217 13.2174 18.4972 13.2174 15.9999C13.2174 13.5027 15.2419 11.4782 17.7391 11.4782C18.5178 11.4782 19.2504 11.6751 19.8901 12.0217C18.8866 11.0404 17.5144 10.4347 16 10.4347C12.9265 10.4347 10.4348 12.9263 10.4348 15.9999C10.4348 19.0734 12.9265 21.5651 16 21.5651C17.5144 21.5651 18.8867 20.9594 19.8901 19.9781C19.2504 20.3248 18.5178 20.5217 17.7391 20.5217Z" fill="#D80027"/>
</g>
<defs>
<clipPath id="clip0_14537_63070">
<rect width="32" height="32" fill="white"/>
</clipPath>
</defs>
</svg>
