<svg width="32" height="32" viewBox="0 0 32 32" fill="none" xmlns="http://www.w3.org/2000/svg">
<g clip-path="url(#clip0_14537_63109)">
<path d="M32 16C32 24.8365 24.8365 32 16 32C7.1635 32 0 24.8365 0 16C0 16.0038 16 0.00175 16 0C24.8365 0 32 7.1635 32 16Z" fill="#0052B4"/>
<path d="M15.9572 16H16C16 15.9856 16 15.9716 16 15.9572C15.9857 15.9715 15.9715 15.9857 15.9572 16Z" fill="#F0F0F0"/>
<path d="M16 8.34781C16 5.5325 16 3.68781 16 0H15.9973C7.16194 0.0015 0 7.16431 0 16H8.34781V11.2993L13.0485 16H15.9572C15.9715 15.9858 15.9858 15.9715 16.0001 15.9572C16.0001 14.8793 16.0001 13.9174 16.0001 13.0486L11.2992 8.34781H16Z" fill="#F0F0F0"/>
<path d="M8.09466 2.08691C5.59223 3.51185 3.51179 5.59223 2.08691 8.09466V16H6.26085V6.26098V6.26085H16C16 4.94441 16 3.69029 16 2.08691H8.09466Z" fill="#D80027"/>
<path d="M16 14.0325L10.3153 8.3479H8.34778V8.34803L15.9998 16H16C16 16 16 14.6433 16 14.0325Z" fill="#D80027"/>
<path d="M18.0869 8.34778V15.9999C18.0869 19.7274 22.9565 20.8695 22.9565 20.8695C22.9565 20.8695 27.826 19.7274 27.826 15.9999V8.34778H18.0869Z" fill="#FFDA44"/>
<path d="M22.2609 11.1304C22.2609 11.8989 21.638 13.9131 20.8696 13.9131C20.1011 13.9131 19.4783 11.8989 19.4783 11.1304C19.4783 10.362 20.8696 9.73914 20.8696 9.73914C20.8696 9.73914 22.2609 10.362 22.2609 11.1304Z" fill="#FF9811"/>
<path d="M25.9528 12.6458C26.1773 12.0979 26.3519 11.2972 26.3519 10.8986C26.3519 10.2582 25.5171 9.73914 25.5171 9.73914C25.5171 9.73914 24.6823 10.2583 24.6823 10.8986C24.6823 11.2972 24.8569 12.0979 25.0814 12.6458L24.5995 13.7339C24.8827 13.849 25.1924 13.913 25.517 13.913C25.8417 13.913 26.1514 13.849 26.4346 13.7339L25.9528 12.6458Z" fill="#A2001D"/>
<path d="M21.913 15.9999C21.913 15.9999 21.2174 17.3913 21.2174 18.7826H24.6957C24.6956 17.3913 24 15.9999 24 15.9999L22.9565 15.3043L21.913 15.9999Z" fill="#6DA544"/>
<path d="M24 16V15.6521C24 15.0759 23.5328 14.6086 22.9565 14.6086C22.3802 14.6086 21.913 15.0758 21.913 15.6521V16H24Z" fill="#D80027"/>
</g>
<defs>
<clipPath id="clip0_14537_63109">
<rect width="32" height="32" fill="white"/>
</clipPath>
</defs>
</svg>
