<svg width="32" height="32" viewBox="0 0 32 32" fill="none" xmlns="http://www.w3.org/2000/svg">
<g clip-path="url(#clip0_14537_63081)">
<path d="M15.9999 0C14.8052 0 13.6416 0.132063 12.5217 0.380313L11.826 15.9999L12.5217 31.6196C13.6416 31.8679 14.8053 32 15.9999 32C24.8364 32 31.9999 24.8365 31.9999 15.9999C31.9998 7.16344 24.8364 0 15.9999 0V0Z" fill="#496E2D"/>
<path d="M4.17387 5.22314C1.58112 8.06664 0 11.8485 0 15.9999C0 20.1513 1.58119 23.9331 4.17394 26.7768L4.86956 15.9999L4.17387 5.22314Z" fill="#496E2D"/>
<path d="M23.4013 12.0687C24.1885 9.87462 23.3041 7.4883 21.4062 6.2998C21.7475 6.34424 22.0893 6.42462 22.4265 6.54555C24.958 7.4538 26.2739 10.2421 25.3656 12.7734C24.4574 15.305 21.6691 16.6207 19.1377 15.7125C18.8004 15.5915 18.4854 15.4362 18.1937 15.2535C20.4144 15.5427 22.6141 14.2629 23.4013 12.0687Z" fill="#F0F0F0"/>
<path d="M19.0352 5.69836L18.3511 6.58224L17.2993 6.2048L17.9284 7.12843L17.2445 8.01218L18.3173 7.6993L18.9466 8.6228L18.9803 7.5058L20.0532 7.19286L19.0014 6.81555L19.0352 5.69836Z" fill="#F0F0F0"/>
<path d="M20.8822 8.57825L20.1981 9.46206L19.1462 9.08462L19.7754 10.0082L19.0914 10.892L20.1642 10.579L20.7935 11.5027L20.8274 10.3856L21.9002 10.0726L20.8483 9.69525L20.8822 8.57825Z" fill="#F0F0F0"/>
<path d="M15.7787 6.74719L15.0947 7.63094L14.0428 7.25363L14.672 8.17719L13.988 9.061L15.0608 8.74807L15.69 9.67163L15.7239 8.55463L16.7967 8.24169L15.7449 7.86425L15.7787 6.74719Z" fill="#F0F0F0"/>
<path d="M15.7037 10.0461L15.0197 10.93L13.9678 10.5526L14.5971 11.4762L13.913 12.36L14.9859 12.0471L15.6151 12.9706L15.6489 11.8536L16.7218 11.5406L15.6698 11.1632L15.7037 10.0461Z" fill="#F0F0F0"/>
<path d="M18.8429 11.1725L18.1588 12.0562L17.107 11.6789L17.7362 12.6025L17.0521 13.4862L18.1251 13.1733L18.7542 14.0969L18.7881 12.9798L19.8609 12.6669L18.809 12.2895L18.8429 11.1725Z" fill="#F0F0F0"/>
<path d="M4.17395 5.22325V26.7768C6.35395 29.1677 9.24958 30.8942 12.5218 31.6196V0.380371C9.24951 1.10575 6.35401 2.83231 4.17395 5.22325Z" fill="#D80027"/>
<path d="M7.3596 8.42401L5.96204 7.38288V5.91057L7.3596 4.86951H9.33616L10.7337 5.91057V7.38288L9.33616 8.42401H7.3596Z" fill="#F0F0F0"/>
<path d="M8.34791 4.86951H7.3596L5.96204 5.91057V6.63038H8.34791V4.86951Z" fill="#FF9811"/>
<path d="M8.3479 8.42402H9.33615L10.7337 7.3829V6.63184H8.3479V8.42402Z" fill="#FF9811"/>
<path d="M7.3596 27.1303L5.96204 26.0892V24.6169L7.3596 23.5758H9.33616L10.7337 24.6169V26.0892L9.33616 27.1303H7.3596Z" fill="#F0F0F0"/>
<path d="M8.34791 23.5758H7.3596L5.96204 24.6169V25.3367H8.34791V23.5758Z" fill="#FF9811"/>
<path d="M8.3479 27.1303H9.33615L10.7337 26.0891V25.3381H8.3479V27.1303Z" fill="#FF9811"/>
<path d="M7.35948 17.7772L5.96191 16.736V15.2638L7.35948 14.2227H9.33604L10.7336 15.2638V16.736L9.33604 17.7772H7.35948Z" fill="#496E2D"/>
<path d="M10.7826 20.0678H10.1738V19.4591H9.10415L8.34777 18.7028L7.59146 19.4591H6.52177V20.0678H5.91309V21.2852H6.52177V21.8939H7.5914L8.34784 22.6503L9.10415 21.8939H10.1738V21.2852H10.7826V20.0678Z" fill="#496E2D"/>
<path d="M10.7826 10.7146H10.1738V10.1059H9.10415L8.34777 9.34949L7.59146 10.1059H6.52177V10.7146H5.91309V11.932H6.52177V12.5407H7.5914L8.34784 13.2972L9.10415 12.5407H10.1738V11.932H10.7826V10.7146Z" fill="#496E2D"/>
<path d="M7.6521 15.3042H9.04341V16.6955H7.6521V15.3042Z" fill="#D80027"/>
<path d="M8.34772 12.0187C8.73191 12.0187 9.04335 11.7072 9.04335 11.3231C9.04335 10.9389 8.73191 10.6274 8.34772 10.6274C7.96354 10.6274 7.6521 10.9389 7.6521 11.3231C7.6521 11.7072 7.96354 12.0187 8.34772 12.0187Z" fill="#D80027"/>
<path d="M8.34772 21.3723C8.73191 21.3723 9.04335 21.0609 9.04335 20.6767C9.04335 20.2925 8.73191 19.9811 8.34772 19.9811C7.96354 19.9811 7.6521 20.2925 7.6521 20.6767C7.6521 21.0609 7.96354 21.3723 8.34772 21.3723Z" fill="#D80027"/>
</g>
<defs>
<clipPath id="clip0_14537_63081">
<rect width="32" height="32" fill="white"/>
</clipPath>
</defs>
</svg>
