<svg width="32" height="32" viewBox="0 0 32 32" fill="none" xmlns="http://www.w3.org/2000/svg">
<g clip-path="url(#clip0_14537_63076)">
<path d="M16 32C24.8366 32 32 24.8366 32 16C32 7.16344 24.8366 0 16 0C7.16344 0 0 7.16344 0 16C0 24.8366 7.16344 32 16 32Z" fill="#D80027"/>
<path d="M15.3448 13.0742L16.6576 14.8832L18.7837 14.1938L17.4688 16.0013L18.7814 17.8103L16.6561 17.1183L15.3413 18.9258L15.3427 16.6908L13.2173 15.9988L15.3434 15.3094L15.3448 13.0742Z" fill="#F0F0F0"/>
<path d="M11.7621 20.5218C9.26483 20.5218 7.24033 18.4973 7.24033 16C7.24033 13.5028 9.26483 11.4783 11.7621 11.4783C12.5407 11.4783 13.2733 11.6752 13.913 12.0218C12.9095 11.0404 11.5372 10.4348 10.023 10.4348C6.94933 10.4348 4.45776 12.9264 4.45776 15.9999C4.45776 19.0735 6.94939 21.5651 10.023 21.5651C11.5373 21.5651 12.9096 20.9594 13.913 19.9781C13.2733 20.3248 12.5407 20.5218 11.7621 20.5218Z" fill="#F0F0F0"/>
</g>
<defs>
<clipPath id="clip0_14537_63076">
<rect width="32" height="32" fill="white"/>
</clipPath>
</defs>
</svg>
