<svg width="32" height="32" viewBox="0 0 32 32" fill="none" xmlns="http://www.w3.org/2000/svg">
<g clip-path="url(#clip0_14537_63123)">
<path d="M32 16C32 24.8365 24.8365 32 16.0001 32C7.1635 32 0 24.8365 0 16C0 16.0038 16.0001 0.00175 16.0001 0C24.8365 0 32 7.1635 32 16Z" fill="#338AF3"/>
<path d="M7.65222 16H13.0486L8.34785 10.4348L7.65222 12.5218V16Z" fill="#0052B4"/>
<path d="M16.0001 13.0487L10.4348 7.65222H16L16.0001 13.0487Z" fill="#0052B4"/>
<path d="M15.9572 16H16C16 15.9856 16 15.9716 16 15.9572C15.9857 15.9715 15.9715 15.9857 15.9572 16Z" fill="#F0F0F0"/>
<path d="M16.0001 8.34781C16.0001 5.5325 16.0001 3.68775 16.0001 0H15.9974C7.162 0.0015 0 7.16431 0 16H8.34787V11.2993L13.0486 16H15.9573C15.9716 15.9858 15.9858 15.9715 16.0001 15.9572C16.0001 14.8793 16.0001 13.9174 16.0001 13.0486L11.2992 8.34781H16.0001Z" fill="#F0F0F0"/>
<path d="M8.09466 2.08691C5.59223 3.51185 3.51185 5.59223 2.08691 8.09466V16H6.26085V6.26098V6.26085H16C16 4.94441 16 3.69029 16 2.08691H8.09466Z" fill="#D80027"/>
<path d="M16.0001 14.0325L10.3154 8.3479H8.3479V8.34803L16 16H16.0001C16.0001 16 16.0001 14.6433 16.0001 14.0325Z" fill="#D80027"/>
<path d="M17.4629 26.4348L17.8083 27.4977H18.9258L18.0217 28.1546L18.3671 29.2174L17.4629 28.5606L16.5588 29.2174L16.9042 28.1546L16 27.4977H17.1175L17.4629 26.4348Z" fill="#FFDA44"/>
<path d="M26.3632 19.4781L26.7085 20.541H27.8261L26.922 21.198L27.2675 22.2608L26.3632 21.604L25.4591 22.2608L25.8045 21.198L24.9003 20.541H26.0178L26.3632 19.4781Z" fill="#FFDA44"/>
<path d="M28.5934 9.04346L28.9387 10.1063H30.0563L29.1522 10.7632L29.4976 11.826L28.5934 11.1692L27.6893 11.826L28.0347 10.7632L27.1305 10.1063H28.2481L28.5934 9.04346Z" fill="#FFDA44"/>
<path d="M29.1458 16.6956L29.4911 17.7585H30.6087L29.7046 18.4154L30.05 19.4782L29.1458 18.8214L28.2417 19.4782L28.5871 18.4154L27.6829 17.7585H28.8004L29.1458 16.6956Z" fill="#FFDA44"/>
<path d="M19.0653 23.9349L20.0613 24.4423L20.8515 23.6521L20.6767 24.7558L21.6724 25.2632L20.5685 25.438L20.3937 26.5418L19.8865 25.546L18.7826 25.721L19.5728 24.9308L19.0653 23.9349Z" fill="#FFDA44"/>
<path d="M19.0653 19.761L20.0613 20.2683L20.8515 19.4781L20.6767 20.5819L21.6724 21.0892L20.5685 21.2641L20.3937 22.3679L19.8865 21.3721L18.7826 21.547L19.5728 20.7568L19.0653 19.761Z" fill="#FFDA44"/>
<path d="M22.5436 22.4364L23.5396 22.9439L24.3297 22.1537L24.155 23.2574L25.1507 23.7647L24.0468 23.9396L23.872 25.0434L23.3647 24.0476L22.2609 24.2226L23.0511 23.4324L22.5436 22.4364Z" fill="#FFDA44"/>
<path d="M22.5436 13.5001L23.5396 14.0075L24.3297 13.2173L24.155 14.321L25.1507 14.8283L24.0468 15.0032L23.872 16.107L23.3647 15.1113L22.2609 15.2862L23.0511 14.496L22.5436 13.5001Z" fill="#FFDA44"/>
<path d="M25.9147 13.393L26.9106 13.9004L27.7008 13.1102L27.526 14.214L28.5218 14.7213L27.4179 14.8962L27.2431 16L26.7358 15.0042L25.632 15.1791L26.4221 14.3889L25.9147 13.393Z" fill="#FFDA44"/>
</g>
<defs>
<clipPath id="clip0_14537_63123">
<rect width="32" height="32" fill="white"/>
</clipPath>
</defs>
</svg>
