<svg width="32" height="32" viewBox="0 0 32 32" fill="none" xmlns="http://www.w3.org/2000/svg">
<g clip-path="url(#clip0_14537_63145)">
<path d="M27.9246 26.6666C30.4585 23.8359 32 20.0983 32 16C32 11.9018 30.4584 8.16408 27.9245 5.33333L16 4.17395L4.0755 5.33333C1.54156 8.16408 0 11.9018 0 16C0 20.0983 1.5415 23.8359 4.07544 26.6666L16 27.8261L27.9246 26.6666Z" fill="#FFDA44"/>
<path d="M4.0755 5.33331H27.9246C24.9949 2.06037 20.7383 0 16 0C11.2617 0 7.00513 2.06037 4.0755 5.33331Z" fill="black"/>
<path d="M0 16L16 17.3913L32 16C32 14.1298 31.6781 12.3349 31.0882 10.6666H0.91175C0.321938 12.3349 0 14.1298 0 16H0Z" fill="#D80027"/>
<path d="M0.91175 21.3333H31.0884C31.6781 19.6651 32 17.8702 32 16H0C0 17.8702 0.321938 19.6651 0.91175 21.3333Z" fill="black"/>
<path d="M27.9246 26.6666H4.07544C7.00506 29.9396 11.2616 32 16 32C20.7384 32 24.9949 29.9396 27.9246 26.6666Z" fill="#D80027"/>
<path d="M21.3391 16C21.3391 18.949 18.949 21.3391 16 21.3391C13.0511 21.3391 10.6609 18.949 10.6609 16C10.6609 13.0511 13.0511 10.6609 16 10.6609C18.949 10.6609 21.3391 13.0511 21.3391 16Z" fill="#F0F0F0"/>
<path d="M17.9559 16.2723L16 15.4247C16 15.4247 16.4576 13.9058 16.482 13.8019C16.4998 13.7259 16.5093 13.6467 16.5093 13.5654C16.5093 13.2772 16.3925 13.0163 16.2036 12.8275L16.6955 12.3357C16.3808 12.021 15.946 11.8263 15.4657 11.8263C14.9855 11.8263 14.5507 12.0209 14.236 12.3357L14.7279 12.8275C14.539 13.0164 14.4222 13.2772 14.4222 13.5654C14.4222 13.6707 14.4382 13.7723 14.4672 13.8682L13.7267 14.6087H15.0727C15.0727 14.6087 14.5162 15.4446 14.2124 16.131C13.9086 16.8174 14.2166 17.6554 14.9187 17.9675L15.3247 18.1479L16 18.7827V19.4783L15.3044 20.1739H16.6957V18.7826L17.3305 18.1478H18.6435C18.6498 18.1347 18.6564 18.122 18.6624 18.1086C18.9744 17.4065 18.6581 16.5843 17.9559 16.2723Z" fill="black"/>
</g>
<defs>
<clipPath id="clip0_14537_63145">
<rect width="32" height="32" fill="white"/>
</clipPath>
</defs>
</svg>
