<svg width="32" height="32" viewBox="0 0 32 32" fill="none" xmlns="http://www.w3.org/2000/svg">
<g clip-path="url(#clip0_14537_63178)">
<path d="M16 32C24.8366 32 32 24.8366 32 16C32 7.16344 24.8366 0 16 0C7.16344 0 0 7.16344 0 16C0 24.8366 7.16344 32 16 32Z" fill="#338AF3"/>
<path d="M15.9537 10.4348C12.88 10.4348 10.3885 12.9264 10.3885 16C10.3885 19.0736 12.8801 21.5652 15.9537 21.5652C19.0272 21.5652 21.5189 19.0736 21.5189 16C21.5189 12.9264 19.0272 10.4348 15.9537 10.4348ZM14.5624 16C14.5624 15.2316 15.1853 14.6087 15.9537 14.6087C16.7221 14.6087 17.345 15.2316 17.345 16C17.345 16.7684 16.7221 17.3913 15.9537 17.3913C15.1853 17.3913 14.5624 16.7684 14.5624 16ZM17.3962 13.6201C17.1803 13.4889 16.9449 13.387 16.6957 13.3182V11.8932C17.3232 12.0058 17.9019 12.2583 18.3985 12.6179L17.3962 13.6201ZM15.3044 13.2944C15.0434 13.3568 14.7967 13.456 14.5701 13.5862L13.5632 12.5793C14.0722 12.2229 14.664 11.9768 15.3044 11.8766V13.2944ZM14.5701 18.4138C14.7967 18.5439 15.0433 18.6432 15.3044 18.7056V20.1233C14.6639 20.0233 14.0722 19.7769 13.5632 19.4206L14.5701 18.4138ZM16.6957 18.6818C16.9449 18.613 17.1804 18.5112 17.3962 18.38L18.3984 19.3822C17.9018 19.7418 17.3232 19.9943 16.6957 20.1069V18.6819H16.6957V18.6818ZM18.3675 17.3838C18.4901 17.1704 18.5859 16.9397 18.6487 16.6957H20.0688C19.9643 17.3183 19.7222 17.8939 19.3744 18.3905L18.3675 17.3838ZM18.6487 15.3044C18.5859 15.0603 18.4901 14.8298 18.3675 14.6164L19.3744 13.6095C19.7221 14.1062 19.9643 14.6817 20.0687 15.3043H18.6486V15.3044H18.6487ZM12.5716 13.5553L13.5737 14.5575C13.4344 14.7869 13.3274 15.0379 13.2587 15.3044H11.8386C11.9469 14.659 12.2031 14.0641 12.5716 13.5553ZM11.8386 16.6956H13.2587C13.3273 16.9621 13.4344 17.2131 13.5737 17.4425L12.5716 18.4447C12.2031 17.9359 11.9469 17.3411 11.8386 16.6956Z" fill="#F0F0F0"/>
<path d="M24.9972 16C24.9972 13.5263 24.0035 11.285 22.3942 9.65222L20.9185 11.1279C22.1502 12.3829 22.9102 14.1027 22.9102 16C22.9102 19.842 19.7957 22.9565 15.9537 22.9565C12.1117 22.9565 8.99722 19.842 8.99722 16C8.99722 14.079 9.77578 12.3398 11.0347 11.081L9.55903 9.60535C7.92247 11.2419 6.91028 13.5028 6.91028 16C6.91028 20.1385 9.69009 23.6277 13.4844 24.7022C13.0684 25.4925 13.1318 26.4874 13.726 27.229C14.5065 26.6035 15.3146 25.9558 16.0001 25.4066C16.6856 25.9559 17.4937 26.6035 18.2742 27.229C18.8743 26.48 18.9333 25.4725 18.5035 24.6784C22.2563 23.5775 24.9972 20.1091 24.9972 16Z" fill="#F0F0F0"/>
</g>
<defs>
<clipPath id="clip0_14537_63178">
<rect width="32" height="32" fill="white"/>
</clipPath>
</defs>
</svg>
