<svg width="32" height="32" viewBox="0 0 32 32" fill="none" xmlns="http://www.w3.org/2000/svg">
<g clip-path="url(#clip0_14537_63222)">
<path d="M32 16C32 15.2927 31.9535 14.5962 31.8645 13.9131H13.9129C10.6441 10.6445 4.68602 4.68678 4.68627 4.68628C-1.56209 10.9346 -1.56209 21.0652 4.68627 27.3137L13.9131 18.087H31.8645C31.9535 17.4038 32 16.7073 32 16Z" fill="black"/>
<path d="M31.9954 16.3639C31.9947 16.3948 31.994 16.4258 31.9932 16.4566C31.9939 16.4256 31.9947 16.3948 31.9954 16.3639Z" fill="#F0F0F0"/>
<path d="M31.98 16.8011C31.9786 16.8317 31.9765 16.8621 31.9749 16.8926C31.9765 16.8622 31.9785 16.8317 31.98 16.8011Z" fill="#F0F0F0"/>
<path d="M31.9584 17.1499C31.9552 17.1948 31.9521 17.2398 31.9485 17.2846C31.9521 17.2398 31.9552 17.1948 31.9584 17.1499Z" fill="#F0F0F0"/>
<path d="M31.905 14.2561C31.9109 14.3096 31.9168 14.363 31.9221 14.4167C31.9168 14.363 31.9108 14.3096 31.905 14.2561Z" fill="#F0F0F0"/>
<path d="M31.9747 15.1073C31.9764 15.1378 31.9785 15.1682 31.9799 15.1988C31.9784 15.1682 31.9764 15.1377 31.9747 15.1073Z" fill="#F0F0F0"/>
<path d="M31.993 15.5435C31.9939 15.5743 31.9945 15.6053 31.9953 15.6362C31.9946 15.6052 31.9939 15.5743 31.993 15.5435Z" fill="#F0F0F0"/>
<path d="M31.9485 14.7153C31.9521 14.7601 31.9552 14.8051 31.9584 14.85C31.9552 14.8051 31.9521 14.7601 31.9485 14.7153Z" fill="#F0F0F0"/>
<path d="M31.8645 13.9131C31.8717 13.9679 31.8781 14.023 31.8847 14.078C30.935 6.14786 24.1859 0.00012207 16 0.00012207C11.5816 0.00012207 7.58159 1.79106 4.68616 4.68661L13.9126 13.9132H31.8645V13.9131Z" fill="#D80027"/>
<path d="M31.8645 18.087H13.9126L4.68616 27.3135C7.58159 30.209 11.5816 32 16 32C24.1859 32 30.9351 25.8523 31.8847 17.9221C31.8781 17.9771 31.8716 18.0322 31.8645 18.087Z" fill="#6DA544"/>
<path d="M31.922 17.5833C31.9167 17.6369 31.9108 17.6903 31.9049 17.7438C31.9108 17.6903 31.9167 17.6369 31.922 17.5833Z" fill="#F0F0F0"/>
<path d="M31.9585 14.8501C31.9646 14.9357 31.9701 15.0214 31.9747 15.1073C31.97 15.0214 31.9646 14.9357 31.9585 14.8501Z" fill="black"/>
<path d="M31.8846 14.0779C31.8918 14.1372 31.8986 14.1966 31.905 14.2561C31.8985 14.1966 31.8917 14.1373 31.8846 14.0779Z" fill="black"/>
<path d="M31.922 14.4167C31.9317 14.5161 31.9406 14.6156 31.9485 14.7156C31.9406 14.6156 31.9318 14.516 31.922 14.4167Z" fill="black"/>
<path d="M31.9999 16C31.9999 16.1217 31.998 16.2429 31.9954 16.3638C31.998 16.2428 31.9999 16.1216 31.9999 16Z" fill="black"/>
<path d="M31.9747 16.8927C31.97 16.9786 31.9645 17.0644 31.9585 17.1499C31.9645 17.0644 31.9699 16.9786 31.9747 16.8927Z" fill="black"/>
<path d="M31.9485 17.2845C31.9406 17.3844 31.9317 17.484 31.922 17.5832C31.9318 17.484 31.9406 17.3844 31.9485 17.2845Z" fill="black"/>
<path d="M31.905 17.7439C31.8986 17.8034 31.8918 17.8628 31.8846 17.9221C31.8917 17.8628 31.8985 17.8034 31.905 17.7439Z" fill="black"/>
<path d="M31.9954 15.6361C31.998 15.7571 31.9999 15.8784 31.9999 15.9999C31.9999 15.8784 31.998 15.7571 31.9954 15.6361Z" fill="black"/>
<path d="M31.98 15.1989C31.9856 15.3134 31.9899 15.4283 31.9931 15.5434C31.9899 15.4282 31.9857 15.3134 31.98 15.1989Z" fill="black"/>
<path d="M31.9931 16.4567C31.9899 16.5718 31.9856 16.6867 31.98 16.8012C31.9857 16.6867 31.9899 16.5718 31.9931 16.4567Z" fill="black"/>
<path d="M31.9847 15.2986H13.3251L3.74027 5.71521C3.43046 6.04196 3.09465 6.49821 2.88696 6.82315L12.0531 15.9941L2.87927 25.1682C3.0609 25.4913 3.45658 25.9695 3.7344 26.2807L13.3253 16.6899H31.987C31.9969 16.4591 32 16.2274 32 15.9943C32 15.6819 31.9913 15.4516 31.9847 15.2986Z" fill="#FFDA44"/>
<path d="M3.88666 19.4107V18.0705C5.22403 18.0705 6.31197 16.9825 6.31197 15.6452C6.31197 14.699 5.54215 13.9293 4.59603 13.9293C3.95147 13.9293 3.42703 14.4537 3.42703 15.0984C3.42703 15.5105 3.76235 15.8459 4.17459 15.8459C4.40759 15.8459 4.59716 15.6562 4.59716 15.4232H5.93728C5.93728 16.3953 5.14653 17.186 4.17466 17.186C3.02347 17.1861 2.08704 16.2495 2.08704 15.0985C2.08704 13.7149 3.21266 12.5894 4.59609 12.5894C6.28122 12.5894 7.65221 13.9604 7.65221 15.6454C7.65215 17.7215 5.96297 19.4107 3.88666 19.4107Z" fill="#FFDA44"/>
</g>
<defs>
<clipPath id="clip0_14537_63222">
<rect width="32" height="32" fill="white"/>
</clipPath>
</defs>
</svg>
