<svg width="32" height="32" viewBox="0 0 32 32" fill="none" xmlns="http://www.w3.org/2000/svg">
<g clip-path="url(#clip0_14537_63248)">
<path d="M16 0C24.8365 0 32 7.1635 32 16C32 24.8365 24.8365 32 16 32C16 31.3044 13.9131 16 13.9131 16L16 0Z" fill="#F0F0F0"/>
<path d="M16 32C7.1635 32 0 24.8365 0 16C0 7.1635 7.1635 0 16 0" fill="#FFDA44"/>
<path d="M22.1268 13.9229L25.1338 17.9007C24.66 18.6181 24.6625 19.5846 25.2105 20.3094C25.9055 21.2289 27.2143 21.4109 28.1338 20.7158C29.0532 20.0208 29.2352 18.712 28.5401 17.7926C27.9923 17.0677 27.063 16.8017 26.2437 17.0619L21.5573 10.8623L20.4475 11.7013L18.7825 12.9597L20.4605 15.1794L22.1268 13.9229ZM26.4558 18.496C26.7623 18.2642 27.1986 18.325 27.4303 18.6314C27.6619 18.9379 27.6013 19.3742 27.2948 19.6059C26.9884 19.8375 26.5521 19.777 26.3205 19.4704C26.0887 19.1639 26.1493 18.7276 26.4558 18.496Z" fill="#ACABB1"/>
<path d="M27.2844 15.1792L28.9624 12.9596L27.2975 11.7011L26.1876 10.8621L21.5013 17.0616C20.6821 16.8015 19.7528 17.0676 19.2049 17.7923C18.5098 18.7118 18.6918 20.0206 19.6112 20.7156C20.5307 21.4106 21.8395 21.2286 22.5345 20.3092C23.0823 19.5844 23.0848 18.6179 22.6111 17.9005L25.6181 13.9226L27.2844 15.1792ZM21.4246 19.4703C21.193 19.7769 20.7567 19.8374 20.4502 19.6058C20.1437 19.3741 20.0831 18.9377 20.3148 18.6312C20.5464 18.3249 20.9827 18.2641 21.2893 18.4959C21.5957 18.7276 21.6563 19.1639 21.4246 19.4703Z" fill="#FFDA44"/>
</g>
<defs>
<clipPath id="clip0_14537_63248">
<rect width="32" height="32" fill="white"/>
</clipPath>
</defs>
</svg>
