<svg width="32" height="32" viewBox="0 0 32 32" fill="none" xmlns="http://www.w3.org/2000/svg">
<g clip-path="url(#clip0_14537_63253)">
<path d="M30.4124 22.9565C31.4296 20.853 32 18.4932 32 16C32 13.5068 31.4296 11.147 30.4124 9.04353L16 7.65222L1.58763 9.04353C0.570438 11.147 0 13.5068 0 16C0 18.4932 0.570438 20.853 1.58763 22.9565L16 24.3478L30.4124 22.9565Z" fill="#0052B4"/>
<path d="M16 32C22.3433 32 27.8244 28.3085 30.4124 22.9565H1.58765C4.17565 28.3085 9.65664 32 16 32Z" fill="#D80027"/>
<path d="M27.7105 19.1408L26.8654 19.8012L27.2322 20.8087L26.343 20.2092L25.4979 20.8694L25.7934 19.8385L24.9043 19.2387L25.9761 19.2013L26.2719 18.1704L26.6387 19.1782L27.7105 19.1408Z" fill="#F0F0F0"/>
<path d="M25.5463 15.3927L24.9781 16.3023L25.6676 17.1237L24.6269 16.8645L24.0585 17.7738L23.9836 16.704L22.943 16.4445L23.9375 16.0427L23.8627 14.9728L24.5521 15.7945L25.5463 15.3927Z" fill="#F0F0F0"/>
<path d="M22.2309 12.6106L22.008 13.6597L22.9368 14.1959L21.8702 14.3083L21.6472 15.3571L21.211 14.3775L20.1443 14.4894L20.9414 13.7718L20.5052 12.7922L21.434 13.3283L22.2309 12.6106Z" fill="#F0F0F0"/>
<path d="M18.1639 11.1305L18.3133 12.1926L19.3694 12.3787L18.4055 12.8491L18.5548 13.9111L17.8098 13.1396L16.8457 13.6097L17.3493 12.6626L16.6042 11.8912L17.6605 12.0774L18.1639 11.1305Z" fill="#F0F0F0"/>
<path d="M13.8361 11.1305L14.3396 12.0774L15.3956 11.8911L14.6508 12.6628L15.1541 13.6098L14.1902 13.1396L13.4451 13.9109L13.5946 12.8491L12.6306 12.3789L13.6868 12.1926L13.8361 11.1305Z" fill="#F0F0F0"/>
<path d="M9.76916 12.6106L10.5663 13.3283L11.4949 12.7922L11.0588 13.7722L11.8557 14.4897L10.7892 14.3775L10.3528 15.3571L10.1301 14.3082L9.06348 14.1962L9.99223 13.6598L9.76916 12.6106Z" fill="#F0F0F0"/>
<path d="M6.4537 15.3927L7.44826 15.7944L8.13739 14.9729L8.06283 16.043L9.05708 16.4448L8.01651 16.7041L7.94158 17.7738L7.37345 16.8645L6.33276 17.1238L7.02214 16.3022L6.4537 15.3927Z" fill="#F0F0F0"/>
<path d="M4.28967 19.1408L5.36167 19.1782L5.7283 18.1705L6.02424 19.2015L7.09592 19.239L6.2068 19.8387L6.5023 20.8696L5.6573 20.2093L4.76811 20.8089L5.13492 19.8012L4.28967 19.1408Z" fill="#F0F0F0"/>
<path d="M30.4124 9.0435C27.8244 3.69156 22.3433 0 16 0C9.65664 0 4.17565 3.69156 1.58765 9.0435H30.4124Z" fill="#FFDA44"/>
</g>
<defs>
<clipPath id="clip0_14537_63253">
<rect width="32" height="32" fill="white"/>
</clipPath>
</defs>
</svg>
