<svg width="32" height="32" viewBox="0 0 32 32" fill="none" xmlns="http://www.w3.org/2000/svg">
<g clip-path="url(#clip0_14537_63269)">
<path d="M16 32C24.8366 32 32 24.8366 32 16C32 7.16344 24.8366 0 16 0C7.16344 0 0 7.16344 0 16C0 24.8366 7.16344 32 16 32Z" fill="#FCFCFC"/>
<path d="M18.7174 11.1778C18.7174 9.67707 17.5008 8.46045 15.9999 8.46045C14.4991 8.46045 13.2825 9.67707 13.2825 11.1778H7.30432C7.30432 12.6554 8.59145 13.8533 10.069 13.8533H9.98001C9.98001 15.331 11.1778 16.529 12.6556 16.529C12.6556 17.8373 13.5952 18.9244 14.8361 19.1568L14.8292 19.1725H17.1708L17.1638 19.1568C18.4048 18.9243 19.3444 17.8373 19.3444 16.529C20.8221 16.529 22.0199 15.331 22.0199 13.8533H21.9308C23.4084 13.8533 24.6956 12.6554 24.6956 11.1778H18.7174Z" fill="#FFDA44"/>
<path d="M14.8054 18.8951L13.1205 22.6991C14.0095 23.0605 14.9812 23.2613 16 23.2613C17.0188 23.2613 17.9905 23.0605 18.8794 22.6991L17.1946 18.8951H14.8054Z" fill="#FFDA44"/>
<path d="M12.5217 12.5142V17.1948C12.5217 19.8572 16 20.6731 16 20.6731C16 20.6731 19.4782 19.8572 19.4782 17.1948V12.5142H12.5217Z" fill="#F0F0F0"/>
<path d="M3.87992 16.1127L5.7611 21.3742L7.62273 16.1127H9.04348L6.32935 23.0692H5.19279L2.45923 16.1127H3.87992Z" fill="#338AF3"/>
<path d="M25.7391 23.0692V16.1127H27.0912V23.0692H25.7391Z" fill="#338AF3"/>
<path d="M13.9131 14.0256V19.6978C14.3913 20.0497 14.9058 20.2918 15.3044 20.4468V14.0256H13.9131Z" fill="#D80027"/>
<path d="M18.087 14.0256V19.6978C17.6088 20.0497 17.0943 20.2918 16.6957 20.4468V14.0256H18.087Z" fill="#D80027"/>
<path d="M12.5217 12.514H19.4782V14.7213H12.5217V12.514Z" fill="#0052B4"/>
</g>
<defs>
<clipPath id="clip0_14537_63269">
<rect width="32" height="32" fill="white"/>
</clipPath>
</defs>
</svg>
