<svg width="32" height="32" viewBox="0 0 32 32" fill="none" xmlns="http://www.w3.org/2000/svg">
<g clip-path="url(#clip0_14537_63286)">
<path d="M16 32C24.8366 32 32 24.8366 32 16C32 7.16344 24.8366 0 16 0C7.16344 0 0 7.16344 0 16C0 24.8366 7.16344 32 16 32Z" fill="#F0F0F0"/>
<path d="M16.0001 32C22.8795 32 28.7442 27.658 31.0049 21.5652H0.995239C3.25593 27.658 9.12061 32 16.0001 32Z" fill="black"/>
<path d="M16.0001 0C9.12061 0 3.25593 4.342 0.995239 10.4348H31.0049C28.7442 4.342 22.8795 0 16.0001 0Z" fill="#D80027"/>
</g>
<defs>
<clipPath id="clip0_14537_63286">
<rect width="32" height="32" fill="white"/>
</clipPath>
</defs>
</svg>
