<svg width="32" height="32" viewBox="0 0 32 32" fill="none" xmlns="http://www.w3.org/2000/svg">
<g clip-path="url(#clip0_14537_63290)">
<path d="M16 32C24.8366 32 32 24.8366 32 16C32 7.16344 24.8366 0 16 0C7.16344 0 0 7.16344 0 16C0 24.8366 7.16344 32 16 32Z" fill="#496E2D"/>
<path d="M22.2609 16H16V32C17.8702 32 19.6651 31.6781 21.3333 31.0884L22.2609 16Z" fill="#D80027"/>
<path d="M26.6666 27.9246C29.9396 24.9949 32 20.7383 32 16H25.7391L26.6666 27.9246Z" fill="#FF9811"/>
<path d="M21.3333 16V31.0884C23.3206 30.3858 25.1277 29.3021 26.6666 27.9246V16H21.3333Z" fill="black"/>
<path d="M29.5652 10.4348H25.3913C25.3913 9.66643 24.7683 9.04349 23.9999 9.04349C23.2316 9.04349 22.6086 9.66643 22.6086 10.4348H18.4347C18.4347 11.2032 19.104 11.8261 19.8723 11.8261H19.826C19.826 12.5946 20.4488 13.2174 21.2173 13.2174C21.2173 13.9859 21.8401 14.6087 22.6086 14.6087H25.3913C26.1596 14.6087 26.7826 13.9859 26.7826 13.2174C27.5509 13.2174 28.1739 12.5946 28.1739 11.8261H28.1276C28.8959 11.8261 29.5652 11.2032 29.5652 10.4348Z" fill="#FF9811"/>
</g>
<defs>
<clipPath id="clip0_14537_63290">
<rect width="32" height="32" fill="white"/>
</clipPath>
</defs>
</svg>
