<svg width="32" height="32" viewBox="0 0 32 32" fill="none" xmlns="http://www.w3.org/2000/svg">
<g clip-path="url(#clip0_14537_63296)">
<path d="M16 32C24.8366 32 32 24.8366 32 16C32 7.16344 24.8366 0 16 0C7.16344 0 0 7.16344 0 16C0 24.8366 7.16344 32 16 32Z" fill="#F0F0F0"/>
<path d="M30.4686 9.16268C29.6557 7.44555 28.5462 5.89662 27.2062 4.5813L16 3.47824L4.79374 4.58137C4.75799 4.61643 4.72312 4.6523 4.68774 4.68774L9.16274 9.16274L16 9.37155L30.4686 9.16268Z" fill="#FFDA44"/>
<path d="M4.68762 27.3124C4.7465 27.3713 4.80525 27.4302 4.865 27.4882L16.0001 28.5217L27.135 27.4882C28.4888 26.1757 29.6118 24.6267 30.4361 22.9069L9.73912 22.2609C7.95831 24.0417 5.90431 26.0956 4.68762 27.3124Z" fill="#FFDA44"/>
<path d="M31.8409 13.7441L13.2174 13.2174L16 16C15.1758 16.8242 13.9455 18.0546 13.2174 18.7826L31.8312 18.3255C31.9418 17.5662 32 16.7899 32 16C32 15.2341 31.945 14.4813 31.8409 13.7441Z" fill="black"/>
<path d="M16 0C11.6357 0 7.68033 1.74813 4.7937 4.58138H27.2062C24.3196 1.74813 20.3642 0 16 0Z" fill="#6DA544"/>
<path d="M13.7441 13.7441H31.8409C31.6126 12.1266 31.1428 10.587 30.4686 9.16269H9.16272L13.7441 13.7441Z" fill="#D80027"/>
<path d="M9.09314 22.9069H30.4361C31.1183 21.4836 31.5955 19.9438 31.8312 18.3255H13.6745C11.9003 20.0997 10.3967 21.6033 9.09314 22.9069Z" fill="#D80027"/>
<path d="M16 32C20.3285 32 24.2547 30.2805 27.135 27.4882H4.86511C7.74536 30.2805 11.6716 32 16 32Z" fill="#6DA544"/>
<path d="M5.71347 3.74588C5.35778 4.04476 5.01459 4.35807 4.68628 4.68626L16 16L4.68628 27.3138C5.01453 27.642 5.35778 27.9553 5.71347 28.2541L17.9676 16L5.71347 3.74588Z" fill="black"/>
<path d="M6.43281 11.826L7.46875 15.0146H10.8216L8.10919 16.9853L9.14519 20.1739L6.43281 18.2032L3.72038 20.1739L4.7565 16.9853L2.04419 15.0146H5.39681L6.43281 11.826Z" fill="#D80027"/>
<path d="M9.28238 16.2609L6.5825 15.3044C6.5825 15.3044 6.383 13.4329 6.37094 13.3695C6.27931 12.8868 5.85513 12.5218 5.34575 12.5218C4.7695 12.5218 4.30225 12.9889 4.30225 13.5653C4.30225 13.6608 4.31619 13.7529 4.34025 13.8409L3.58325 14.6029H4.92925C4.92925 16 3.88675 16 3.88675 17.3913L4.46506 18.7826H7.94331L8.52306 17.3913H8.52281C8.58088 17.2578 8.61613 17.1201 8.63069 16.9826C9.13044 16.7804 9.28238 16.2609 9.28238 16.2609Z" fill="#FFDA44"/>
</g>
<defs>
<clipPath id="clip0_14537_63296">
<rect width="32" height="32" fill="white"/>
</clipPath>
</defs>
</svg>
