<svg width="10" height="10" viewBox="0 0 10 10" fill="none" xmlns="http://www.w3.org/2000/svg">
<path className="border-circle" d="M4.99862 9.14708C7.28898 9.14708 9.14568 7.29038 9.14568 5.00003C9.14568 2.70967 7.28898 0.852966 4.99862 0.852966C2.70826 0.852966 0.851562 2.70967 0.851562 5.00003C0.851562 7.29038 2.70826 9.14708 4.99862 9.14708Z" stroke="white"/>
<path d="M5.00057 8.64706C7.01479 8.64706 8.64763 7.01421 8.64763 5C8.64763 2.98578 7.01479 1.35294 5.00057 1.35294C2.98636 1.35294 1.35352 2.98578 1.35352 5C1.35352 7.01421 2.98636 8.64706 5.00057 8.64706Z" fill="#FF3838"/>
<path d="M7.04609 4.32706H2.94727V5.67295H7.04609V4.32706Z" fill="white"/>
</svg>
