<svg width="12" height="12" viewBox="0 0 12 12" fill="none" xmlns="http://www.w3.org/2000/svg">
<circle className="border-circle" cx="6" cy="6" r="5" stroke="white"/>
<circle cx="6" cy="6" r="4.5" fill="#E9B90B"/>
<path d="M8.21441 5.75004L7.28951 6.55723L7.56657 7.75899C7.58123 7.82181 7.57704 7.88756 7.55454 7.94802C7.53203 8.00848 7.49221 8.06097 7.44003 8.09891C7.38786 8.13686 7.32566 8.15859 7.26121 8.16138C7.19676 8.16416 7.13291 8.14789 7.07766 8.11459L6.02951 7.47885L4.98361 8.11459C4.92835 8.14789 4.86451 8.16416 4.80006 8.16138C4.73561 8.15859 4.67341 8.13686 4.62123 8.09891C4.56906 8.06097 4.52923 8.00848 4.50673 7.94802C4.48422 7.88756 4.48004 7.82181 4.4947 7.75899L4.77135 6.55846L3.84624 5.75004C3.79731 5.70784 3.76193 5.65213 3.74454 5.58991C3.72714 5.52768 3.72851 5.4617 3.74846 5.40024C3.76841 5.33879 3.80606 5.28459 3.8567 5.24445C3.90733 5.2043 3.96868 5.18 4.03307 5.17459L5.25247 5.06898L5.72845 3.93366C5.75331 3.87409 5.79524 3.82321 5.84895 3.78741C5.90267 3.75162 5.96578 3.73252 6.03033 3.73252C6.09488 3.73252 6.15798 3.75162 6.2117 3.78741C6.26542 3.82321 6.30734 3.87409 6.3322 3.93366L6.80962 5.06898L8.02861 5.17459C8.09299 5.18 8.15435 5.2043 8.20498 5.24445C8.25562 5.28459 8.29327 5.33879 8.31322 5.40024C8.33317 5.4617 8.33454 5.52768 8.31714 5.58991C8.29975 5.65213 8.26436 5.70784 8.21543 5.75004H8.21441Z" fill="white"/>
</svg>
