<svg width="20" height="17" viewBox="0 0 20 17" fill="none" xmlns="http://www.w3.org/2000/svg">
<path d="M19.155 17.9839L18.6966 16.1506C18.4791 15.2612 17.8198 14.5459 16.9511 14.2569L13.5899 13.137C12.7702 12.7956 12.3951 11.4756 12.3141 10.9745C12.9387 10.4551 13.3406 9.7162 13.4371 8.90968C13.4233 8.77193 13.4558 8.63349 13.5295 8.51626C13.6486 8.48643 13.7461 8.40114 13.7915 8.2871C14.0114 7.75457 14.1495 7.19183 14.201 6.61802C14.2011 6.58683 14.1972 6.55579 14.1895 6.5256C14.1348 6.30263 14.0037 6.10587 13.819 5.96948V3.94441C13.819 2.71379 13.4431 2.20887 13.0474 1.91629C12.9719 1.32354 12.3371 0.125 9.9995 0.125C7.92559 0.208502 6.26345 1.8706 6.17994 3.94444V5.96951C5.99524 6.1059 5.86415 6.30266 5.80943 6.52564C5.8017 6.55582 5.79787 6.5869 5.79798 6.61805C5.8494 7.19215 5.98744 7.75515 6.20744 8.28792C6.24053 8.39588 6.32729 8.47892 6.43661 8.50717C6.47941 8.52854 6.55962 8.63933 6.55962 8.90975C6.65669 9.71856 7.0609 10.4592 7.68869 10.9784C7.60848 11.4787 7.23568 12.7979 6.43894 13.131L3.04794 14.2569C2.17984 14.5459 1.52097 15.2605 1.30318 16.1491L0.844834 17.9824C0.792948 18.1869 0.91663 18.3947 1.12109 18.4466C1.15164 18.4544 1.18304 18.4583 1.21455 18.4583H18.7845C18.9954 18.4583 19.1664 18.2872 19.1663 18.0763C19.1663 18.0451 19.1625 18.0141 19.155 17.9839Z" fill="white"/>
</svg>
