<svg width="12" height="12" viewBox="0 0 12 12" fill="none" xmlns="http://www.w3.org/2000/svg">
<circle className="border-circle" cx="6" cy="6" r="5" stroke="white"/>
<circle cx="6" cy="6" r="4.5" fill="#E9538D"/>
<path d="M8.32869 6.02936C8.32921 6.09665 8.30875 6.16243 8.27016 6.21756C8.23157 6.27269 8.17676 6.31443 8.11336 6.33697L6.81234 6.81009L6.33943 8.1109C6.31612 8.1737 6.27415 8.22785 6.21916 8.2661C6.16417 8.30434 6.0988 8.32484 6.03181 8.32484C5.96483 8.32484 5.89945 8.30434 5.84446 8.2661C5.78947 8.22785 5.7475 8.1737 5.7242 8.1109L5.25108 6.80865L3.95027 6.33697C3.88747 6.31367 3.83332 6.2717 3.79507 6.21671C3.75683 6.16172 3.73633 6.09634 3.73633 6.02936C3.73633 5.96237 3.75683 5.897 3.79507 5.84201C3.83332 5.78702 3.88747 5.74505 3.95027 5.72174L5.25252 5.24862L5.7242 3.94781C5.7475 3.88502 5.78947 3.83086 5.84446 3.79262C5.89945 3.75437 5.96483 3.73387 6.03181 3.73387C6.0988 3.73387 6.16417 3.75437 6.21916 3.79262C6.27415 3.83086 6.31612 3.88502 6.33943 3.94781L6.81255 5.25006L8.11336 5.72174C8.17676 5.74428 8.23157 5.78602 8.27016 5.84115C8.30875 5.89628 8.32921 5.96206 8.32869 6.02936Z" fill="white"/>
</svg>
