<svg width="12" height="12" viewBox="0 0 12 12" fill="none" xmlns="http://www.w3.org/2000/svg">
<path className="border-circle" d="M7.27951 2.35372L7.67938 2.05356C6.95968 1.09477 6.46332 0.8125 6 0.8125C5.53706 0.8125 5.04112 1.09432 4.32236 2.05124C4.32125 2.05258 4.31979 2.05368 4.31809 2.05439C4.31671 2.05496 4.31523 2.05525 4.31374 2.05525C3.1979 1.87948 2.67986 2.05429 2.36835 2.35689C2.04679 2.66925 1.87715 3.2087 2.05287 4.31889C2.05285 4.31912 2.0528 4.31935 2.0527 4.31958C2.05255 4.31995 2.05227 4.32034 2.05185 4.32065L2.05185 4.32065L2.05075 4.32147C1.08884 5.04229 0.8125 5.5382 0.8125 6C0.8125 6.4618 1.08884 6.95771 2.05075 7.67853L2.05185 7.67935C2.05227 7.67966 2.05255 7.68005 2.0527 7.68042C2.05286 7.68079 2.0529 7.68118 2.05285 7.68155L2.05278 7.68202C1.89397 8.79273 2.04497 9.32008 2.36334 9.63817C2.68283 9.95739 3.20811 10.1025 4.31636 9.94428L4.31683 9.94421C4.31743 9.94412 4.31804 9.9442 4.31858 9.94443C4.31912 9.94465 4.31952 9.94498 4.3198 9.94535L4.32062 9.94645C5.04032 10.9052 5.53668 11.1875 6 11.1875C6.46332 11.1875 6.95968 10.9052 7.67938 9.94645L7.6802 9.94535C7.68048 9.94498 7.68088 9.94465 7.68142 9.94443C7.68196 9.9442 7.68257 9.94412 7.68317 9.94421L7.6839 9.94431C8.80243 10.1034 9.31552 9.9502 9.63165 9.64311C9.95747 9.32662 10.1054 8.78805 9.94722 7.68202L9.94715 7.68155C9.9471 7.68118 9.94714 7.68079 9.9473 7.68042C9.94745 7.68005 9.94773 7.67967 9.94815 7.67935L9.94925 7.67853C10.9112 6.95771 11.1875 6.4618 11.1875 6C11.1875 5.5382 10.9112 5.04229 9.94925 4.32147L9.94815 4.32065C9.94801 4.32054 9.94788 4.32043 9.94777 4.32031C9.94755 4.32008 9.9474 4.31983 9.9473 4.31958C9.94723 4.31942 9.94718 4.31925 9.94716 4.31908C9.94715 4.31902 9.94714 4.31896 9.94714 4.31889C10.1236 3.20422 9.95073 2.67562 9.63666 2.36183C9.32175 2.04719 8.79616 1.88039 7.68626 2.05525C7.68477 2.05525 7.68329 2.05496 7.68191 2.05439C7.68007 2.05362 7.67853 2.05241 7.67739 2.05092L7.27951 2.35372ZM7.27951 2.35372C7.33417 2.42554 7.4069 2.48161 7.4903 2.51621C7.5737 2.55082 7.66479 2.56272 7.75429 2.55071H4.24571C4.33521 2.56272 4.4263 2.55082 4.5097 2.51621C4.5931 2.48161 4.66583 2.42554 4.72049 2.35372C5.4206 1.42104 5.78675 1.3125 6 1.3125C6.21325 1.3125 6.5794 1.42104 7.27951 2.35372Z" stroke="white"/>
<path d="M9.64941 4.72159C9.57688 4.66755 9.52028 4.59496 9.48559 4.51147C9.45089 4.42798 9.43937 4.33669 9.45225 4.24721C9.62124 3.18589 9.42811 2.86026 9.28326 2.71553C9.13841 2.57081 8.81652 2.38186 7.75429 2.55071C7.66479 2.56272 7.5737 2.55082 7.4903 2.51621C7.4069 2.48161 7.33417 2.42554 7.27951 2.35372C6.5794 1.42104 6.21325 1.3125 6 1.3125C5.78675 1.3125 5.4206 1.42104 4.72049 2.35372C4.66583 2.42554 4.5931 2.48161 4.5097 2.51621C4.4263 2.55082 4.33521 2.56272 4.24571 2.55071C3.18348 2.38186 2.86159 2.57483 2.71674 2.71553C2.57189 2.85624 2.37876 3.18589 2.54775 4.24721C2.56063 4.33669 2.54911 4.42798 2.51441 4.51147C2.47972 4.59496 2.42312 4.66755 2.35059 4.72159C1.41711 5.4211 1.3125 5.78693 1.3125 6C1.3125 6.21307 1.41711 6.5789 2.35059 7.27841C2.42312 7.33245 2.47972 7.40504 2.51441 7.48853C2.54911 7.57202 2.56063 7.66331 2.54775 7.75279C2.39485 8.82215 2.57189 9.13974 2.71674 9.28447C2.86159 9.42919 3.17543 9.60206 4.24571 9.44929C4.33526 9.43642 4.42664 9.44793 4.51019 9.4826C4.59375 9.51727 4.6664 9.57381 4.72049 9.64628C5.4206 10.579 5.78675 10.6875 6 10.6875C6.21325 10.6875 6.5794 10.579 7.27951 9.64628C7.33359 9.57381 7.40625 9.51727 7.48981 9.4826C7.57336 9.44793 7.66474 9.43642 7.75429 9.44929C8.82859 9.60206 9.13841 9.42517 9.28326 9.28447C9.42811 9.14376 9.60515 8.82215 9.45225 7.75279C9.43937 7.66331 9.45089 7.57202 9.48559 7.48853C9.52028 7.40504 9.57688 7.33245 9.64941 7.27841C10.5829 6.5789 10.6875 6.21307 10.6875 6C10.6875 5.78693 10.5829 5.4211 9.64941 4.72159Z" fill="#11A75C"/>
<path d="M5.43772 7.66885C5.36378 7.6693 5.29048 7.65449 5.22203 7.62528C5.15359 7.59607 5.09133 7.55303 5.03883 7.49863L3.91522 6.3247C3.80943 6.21417 3.75 6.06426 3.75 5.90795C3.75 5.75164 3.80943 5.60174 3.91522 5.49121C4.02101 5.38068 4.16449 5.31859 4.3141 5.31859C4.46371 5.31859 4.6072 5.38068 4.71299 5.49121L5.43772 6.25426L7.28606 4.31728C7.33828 4.26226 7.40042 4.2186 7.46888 4.1888C7.53734 4.159 7.61077 4.14365 7.68494 4.14365C7.7591 4.14365 7.83253 4.159 7.90099 4.1888C7.96946 4.2186 8.03159 4.26226 8.08382 4.31728C8.13648 4.37184 8.17827 4.43676 8.20679 4.50829C8.23532 4.57982 8.25 4.65654 8.25 4.73402C8.25 4.81151 8.23532 4.88823 8.20679 4.95976C8.17827 5.03128 8.13648 5.0962 8.08382 5.15077L5.8366 7.49863C5.7841 7.55303 5.72184 7.59607 5.6534 7.62528C5.58495 7.65449 5.51165 7.6693 5.43772 7.66885Z" fill="white"/>
</svg>
