<svg width="12" height="12" viewBox="0 0 12 12" fill="none" xmlns="http://www.w3.org/2000/svg">
<path className="border-circle" d="M7.38261 1.70955C6.75674 0.665106 5.24326 0.665106 4.61739 1.70955C4.47884 1.94076 4.2053 2.05406 3.94384 1.98854C2.76276 1.69256 1.69256 2.76276 1.98854 3.94384C2.05406 4.2053 1.94076 4.47884 1.70955 4.61739C0.665106 5.24326 0.665106 6.75674 1.70955 7.38261C1.94076 7.52116 2.05406 7.7947 1.98854 8.05616C1.69256 9.23724 2.76276 10.3074 3.94384 10.0115C4.2053 9.94594 4.47884 10.0592 4.61739 10.2905C5.24326 11.3349 6.75674 11.3349 7.38261 10.2905C7.52116 10.0592 7.7947 9.94594 8.05616 10.0115C9.23724 10.3074 10.3074 9.23724 10.0115 8.05616C9.94594 7.7947 10.0592 7.52116 10.2905 7.38261C11.3349 6.75674 11.3349 5.24326 10.2905 4.61739C10.0592 4.47884 9.94594 4.2053 10.0115 3.94384C10.3074 2.76276 9.23724 1.69256 8.05616 1.98854C7.7947 2.05406 7.52116 1.94076 7.38261 1.70955Z" stroke="white"/>
<path d="M5.04629 1.96656C5.478 1.2461 6.522 1.2461 6.95371 1.96656C7.20549 2.38672 7.70257 2.59261 8.1777 2.47355C8.99241 2.26938 9.73062 3.00759 9.52645 3.8223C9.40739 4.29743 9.61328 4.79451 10.0334 5.04629C10.7539 5.478 10.7539 6.522 10.0334 6.95371C9.61328 7.20549 9.40739 7.70257 9.52645 8.1777C9.73062 8.99241 8.99241 9.73062 8.1777 9.52645C7.70257 9.40739 7.20549 9.61328 6.95371 10.0334C6.522 10.7539 5.478 10.7539 5.04629 10.0334C4.79451 9.61328 4.29743 9.40739 3.8223 9.52645C3.00759 9.73062 2.26938 8.99241 2.47355 8.1777C2.59261 7.70257 2.38672 7.20549 1.96656 6.95371C1.2461 6.522 1.2461 5.478 1.96656 5.04629C2.38672 4.79451 2.59261 4.29743 2.47355 3.8223C2.26938 3.00759 3.00759 2.26938 3.8223 2.47355C4.29743 2.59261 4.79451 2.38672 5.04629 1.96656Z" fill="#3CAAFA"/>
<path d="M5.4379 7.90385L5.41521 7.86458C5.06861 7.26485 4.14759 5.99213 4.13829 5.97934L4.125 5.96101L4.43879 5.64607L5.43207 6.35046C6.05747 5.52627 6.64092 4.96017 7.0215 4.62959C7.43783 4.26797 7.70883 4.10149 7.71157 4.0999L7.71773 4.09615H8.25L8.19916 4.14214C6.89154 5.32499 5.47422 7.83902 5.4601 7.86428L5.4379 7.90385Z" fill="white"/>
</svg>
