<svg width="28" height="28" viewBox="0 0 32 32" fill="none" xmlns="http://www.w3.org/2000/svg">
  <path className="svg_apple_leaf_light" d="M21.12 2.34332C19.6639 2.44404 17.9619 3.37611 16.9701 4.58984C16.0654 5.6909 15.3211 7.32628 15.6113 8.91557C17.2023 8.96508 18.8462 8.01082 19.7987 6.7766C20.6898 5.62774 21.3641 4.0026 21.12 2.34332Z" fill="#ffffff"></path>
  <path className="svg_apple_body_light" d="M26.8746 11.5069C25.4765 9.75375 23.5116 8.73633 21.656 8.73633C19.2064 8.73633 18.1702 9.90909 16.4682 9.90909C14.7134 9.90909 13.3801 8.73975 11.2616 8.73975C9.18072 8.73975 6.96493 10.0115 5.56 12.1863C3.58491 15.2488 3.92291 21.0068 7.12369 25.9112C8.26914 27.6661 9.79868 29.6395 11.7994 29.6566C13.5799 29.6736 14.0817 28.5145 16.4938 28.5026C18.9059 28.4889 19.3634 29.6719 21.1405 29.6532C23.1429 29.6378 24.7561 27.451 25.9015 25.6962C26.7227 24.438 27.0282 23.8047 27.665 22.3844C23.0337 20.621 22.2911 14.0351 26.8746 11.5069Z" fill="#ffffff"></path>
</svg>