<svg width="28" height="28" viewBox="0 0 32 32" fill="none" xmlns="http://www.w3.org/2000/svg">
    <path class="svg_github_gray" d="M16.0002 2.04814C8.10069 2.04814 1.69507 8.45265 1.69507 16.3533C1.69507 22.6736 5.7939 28.0359 11.4778 29.9274C12.1927 30.0598 12.4552 29.617 12.4552 29.2392C12.4552 28.8981 12.4418 27.7712 12.4358 26.576C8.45608 27.4412 7.61633 24.8881 7.61633 24.8881C6.96557 23.2346 6.02792 22.7949 6.02792 22.7949C4.73008 21.9071 6.12582 21.9254 6.12582 21.9254C7.56224 22.0262 8.31862 23.3995 8.31862 23.3995C9.59456 25.5863 11.6652 24.9541 12.4815 24.5886C12.6099 23.6641 12.9806 23.0329 13.3897 22.6757C10.2124 22.3141 6.87225 21.0874 6.87225 15.6062C6.87225 14.0443 7.43104 12.7682 8.34611 11.7664C8.19759 11.4061 7.70797 9.95121 8.48469 7.98069C8.48469 7.98069 9.68598 7.59625 12.4197 9.44707C13.5607 9.13012 14.7845 8.9712 16.0002 8.96573C17.2159 8.9712 18.4406 9.13001 19.5838 9.44707C22.3142 7.59636 23.5138 7.9808 23.5138 7.9808C24.2924 9.9511 23.8026 11.4062 23.654 11.7664C24.5712 12.7682 25.1262 14.0443 25.1262 15.6062C25.1262 21.1005 21.7797 22.3103 18.5943 22.6644C19.1074 23.1083 19.5646 23.9789 19.5646 25.3135C19.5646 27.2275 19.548 28.768 19.548 29.2392C19.548 29.6199 19.8055 30.0659 20.5306 29.9253C26.2114 28.0318 30.3051 22.6716 30.3051 16.3534C30.3051 8.45265 23.9003 2.04814 16.0002 2.04814ZM7.05285 22.4261C7.02133 22.4971 6.90946 22.5185 6.80765 22.4696C6.70383 22.423 6.6456 22.3261 6.67913 22.2548C6.70998 22.1816 6.82207 22.1612 6.92556 22.2103C7.02949 22.257 7.08872 22.3548 7.05285 22.4261ZM7.75648 23.0539C7.6883 23.1172 7.55487 23.0878 7.46434 22.9879C7.3708 22.8882 7.35325 22.7547 7.42243 22.6906C7.49284 22.6273 7.62214 22.657 7.71591 22.7566C7.80956 22.8576 7.82767 22.99 7.75648 23.0539ZM8.23927 23.8572C8.15154 23.9181 8.00827 23.861 7.91964 23.7339C7.83203 23.6067 7.83203 23.4541 7.92154 23.393C8.01039 23.3319 8.15154 23.3868 8.24128 23.5131C8.32868 23.6424 8.32868 23.795 8.23916 23.8573L8.23927 23.8572ZM9.05555 24.7876C8.97721 24.8741 8.81013 24.8509 8.68787 24.7329C8.56281 24.6175 8.52805 24.4539 8.60673 24.3674C8.68608 24.2807 8.85405 24.305 8.97721 24.4222C9.10126 24.5373 9.13926 24.7021 9.05555 24.7876ZM10.1108 25.1017C10.0761 25.2137 9.91519 25.2647 9.75325 25.2171C9.59143 25.168 9.48559 25.0368 9.51823 24.9236C9.55187 24.8108 9.71347 24.7578 9.87663 24.8087C10.0382 24.8575 10.1444 24.9877 10.1108 25.1017ZM11.3115 25.235C11.3155 25.3529 11.1782 25.4507 11.0081 25.4529C10.8371 25.4567 10.6986 25.3613 10.6967 25.245C10.6967 25.126 10.831 25.0291 11.0021 25.0262C11.1722 25.0229 11.3115 25.1176 11.3115 25.235ZM12.4911 25.1897C12.5114 25.3048 12.3933 25.4231 12.2243 25.4546C12.0584 25.4849 11.9046 25.4138 11.8835 25.2997C11.8629 25.1817 11.9833 25.0634 12.149 25.0329C12.3182 25.0035 12.4695 25.0727 12.4911 25.1897Z" fill="white"></path>
</svg>