<svg width="28" height="28" viewBox="0 0 32 32" fill="none" xmlns="http://www.w3.org/2000/svg">
  <g clip-path="url(#clip0_2625_94071)">
    <path class="svg_linkedin_outer_gray" d="M27.0744 3.00076H4.91912C3.86125 3.00076 3 3.84008 3 4.87358V27.1231C3 28.159 3.86125 29 4.91912 29H27.076C28.1363 29 29 28.159 29 27.1231V4.87358C29 3.84008 28.1363 3.00076 27.0744 3.00076Z" fill="white"></path>
    <path class="svg_linkedin_inner_gray" d="M6.8553 12.7476H10.7187V25.1544H6.8553V12.7476ZM8.78418 6.57257C10.0167 6.57257 11.0186 7.57438 11.0186 8.80695C11.0186 10.0395 10.0167 11.0438 8.78499 11.0438C8.19207 11.0425 7.62379 10.8064 7.20446 10.3872C6.78512 9.96806 6.54887 9.39987 6.54736 8.80695C6.54736 8.51332 6.60524 8.22257 6.71768 7.95133C6.83012 7.68008 6.99492 7.43366 7.20266 7.22614C7.4104 7.01863 7.657 6.8541 7.92837 6.74195C8.19974 6.62981 8.49055 6.57225 8.78418 6.57257ZM13.1311 12.7476H16.8296V14.4433H16.8807C17.3959 13.4683 18.6536 12.4396 20.537 12.4396C24.4419 12.4396 25.1626 15.0096 25.1626 18.3498V25.1553H21.3089V19.12C21.3089 17.6819 21.2829 15.8294 19.3052 15.8294C17.2984 15.8294 16.9896 17.3975 16.9896 19.0144V25.152H13.1367V12.7451L13.1311 12.7476Z" fill="#0177B5"></path>
  </g>
  <defs>
    <clipPath id="clip0_2625_94071">
      <rect width="26" height="26" fill="white" transform="translate(3 3)"></rect>
    </clipPath>
  </defs>
</svg>