<svg width="24" height="18" viewBox="0 0 24 18" fill="none" xmlns="http://www.w3.org/2000/svg">
<g clip-path="url(#clip0_14537_65504)">
<g clip-path="url(#clip1_14537_65504)">
<path d="M20.9048 1H3.09524C1.93807 1 1 1.95513 1 3.13333V14.8667C1 16.0449 1.93807 17 3.09524 17H20.9048C22.0619 17 23 16.0449 23 14.8667V3.13333C23 1.95513 22.0619 1 20.9048 1Z" fill="#F93939"/>
<path fill-rule="evenodd" clip-rule="evenodd" d="M1 1H8V17H1V1Z" fill="#151515"/>
<path fill-rule="evenodd" clip-rule="evenodd" d="M16 1H23V17H16V1Z" fill="#249F58"/>
<path fill-rule="evenodd" clip-rule="evenodd" d="M12 11.6667C13.4457 11.6667 14.6191 10.472 14.6191 9.00001C14.6191 7.52801 13.4457 6.33334 12 6.33334C10.5543 6.33334 9.38098 7.52801 9.38098 9.00001C9.38098 10.472 10.5543 11.6667 12 11.6667ZM12 10.6C12.8675 10.6 13.5715 9.64534 13.5715 8.46668C13.5715 7.28801 12.8675 6.33334 12 6.33334C11.1326 6.33334 10.4286 7.28801 10.4286 8.46668C10.4286 9.64534 11.1326 10.6 12 10.6ZM12 9.53334C12.2892 9.53334 12.5238 9.05548 12.5238 8.46668C12.5238 7.87788 12.2892 7.40001 12 7.40001C11.7109 7.40001 11.4762 7.87788 11.4762 8.46668C11.4762 9.05548 11.7109 9.53334 12 9.53334Z" fill="white"/>
</g>
</g>
<rect x="0.5" y="0.5" width="23" height="17" rx="2.5" stroke="#E9EFF7"/>
<defs>
<clipPath id="clip0_14537_65504">
<rect x="1" y="1" width="22" height="16" rx="2" fill="white"/>
</clipPath>
<clipPath id="clip1_14537_65504">
<rect width="22" height="16" fill="white" transform="translate(1 1)"/>
</clipPath>
</defs>
</svg>
