<svg width="24" height="18" viewBox="0 0 24 18" fill="none" xmlns="http://www.w3.org/2000/svg">
<g clip-path="url(#clip0_14537_65506)">
<g clip-path="url(#clip1_14537_65506)">
<path d="M20.9048 1H3.09524C1.93807 1 1 1.95513 1 3.13333V14.8667C1 16.0449 1.93807 17 3.09524 17H20.9048C22.0619 17 23 16.0449 23 14.8667V3.13333C23 1.95513 22.0619 1 20.9048 1Z" fill="#FFDA2C"/>
<path fill-rule="evenodd" clip-rule="evenodd" d="M1 1H8V17H1V1Z" fill="#1A47B8"/>
<path fill-rule="evenodd" clip-rule="evenodd" d="M16 1H23V17H16V1Z" fill="#F93939"/>
<path fill-rule="evenodd" clip-rule="evenodd" d="M13.5044 11.5973C14.1476 11.3979 14.6191 10.7888 14.6191 10.0667V6.86666C14.6191 5.976 13.9151 5.26666 13.0476 5.26666H10.9524C10.0871 5.26666 9.38098 5.98133 9.38098 6.86666V10.0667C9.38098 10.7941 9.85031 11.4 10.4956 11.5984C10.6905 12.2597 11.2897 12.7333 12 12.7333C12.7145 12.7333 13.3096 12.2533 13.5044 11.5973Z" fill="#D4AF2C"/>
<path fill-rule="evenodd" clip-rule="evenodd" d="M10.4286 6.33334H11.4762V7.93334H10.4286V6.33334ZM12.5238 8.46668H13.5714V10.0667H12.5238V8.46668Z" fill="#AF010D"/>
<path fill-rule="evenodd" clip-rule="evenodd" d="M12.5238 6.33334H13.5714V7.93334H12.5238V6.33334ZM10.4286 8.46668H11.4762V10.0667H10.4286V8.46668Z" fill="#FFDA2C"/>
</g>
</g>
<rect x="0.5" y="0.5" width="23" height="17" rx="2.5" stroke="#E9EFF7"/>
<defs>
<clipPath id="clip0_14537_65506">
<rect x="1" y="1" width="22" height="16" rx="2" fill="white"/>
</clipPath>
<clipPath id="clip1_14537_65506">
<rect width="22" height="16" fill="white" transform="translate(1 1)"/>
</clipPath>
</defs>
</svg>
