<svg width="24" height="18" viewBox="0 0 24 18" fill="none" xmlns="http://www.w3.org/2000/svg">
<g clip-path="url(#clip0_14537_65505)">
<path d="M20.9048 1H3.09524C1.93807 1 1 1.95513 1 3.13333V14.8667C1 16.0449 1.93807 17 3.09524 17H20.9048C22.0619 17 23 16.0449 23 14.8667V3.13333C23 1.95513 22.0619 1 20.9048 1Z" fill="#F93939"/>
<path fill-rule="evenodd" clip-rule="evenodd" d="M12 5.26668L10.4286 4.20001L9.38094 5.26668H10.4286L9.38094 6.33335L7.28571 5.26668V10.6L10.4286 9.53335L9.38094 11.6667H8.33332L9.38094 12.7333L10.4286 11.6667L12 13.8V5.26668ZM13.5714 4.20001L14.619 5.26668H13.5714L14.619 6.33335L16.7143 5.26668V10.6L13.5714 9.53335L14.619 11.6667H15.6667L14.619 12.7333L13.5714 11.6667L12 13.8V5.26668L13.5714 4.20001Z" fill="#151515"/>
</g>
<rect x="0.5" y="0.5" width="23" height="17" rx="2.5" stroke="#E9EFF7"/>
<defs>
<clipPath id="clip0_14537_65505">
<rect x="1" y="1" width="22" height="16" rx="2" fill="white"/>
</clipPath>
</defs>
</svg>
