<svg width="32" height="32" viewBox="0 0 32 32" fill="none" xmlns="http://www.w3.org/2000/svg">
<path d="M8.19676 0.25H18.797L27.7171 9.5564V27.8372C27.7171 29.9984 25.9654 31.75 23.8043 31.75H8.19676C6.03556 31.75 4.28394 29.9983 4.28394 27.8372V4.16283C4.28394 2.00166 6.03556 0.25 8.19676 0.25Z" fill="#201105" stroke="#E47930" stroke-width="0.5"/>
<path fill-rule="evenodd" clip-rule="evenodd" d="M18.8907 0V9.37826H27.9671L18.8907 0Z" fill="#E47930"/>
<path d="M11.6435 23.8771H13.2612C13.3043 23.8771 13.3431 23.8469 13.3518 23.8081L13.8263 22.1041H15.6597L16.1687 23.8081C16.1816 23.8469 16.2204 23.8771 16.2636 23.8771H17.9417C17.9978 23.8771 18.0409 23.8339 18.0409 23.7822C18.0409 23.7649 18.0366 23.752 18.0323 23.739L15.8926 16.8455C15.8797 16.8067 15.8452 16.7808 15.802 16.7808H13.7529C13.7098 16.7808 13.671 16.8067 13.6623 16.8455L11.5485 23.752C11.5399 23.7822 11.5485 23.8124 11.5658 23.8383C11.5831 23.8598 11.6133 23.8771 11.6435 23.8771ZM19.5205 18.2518C20.0641 18.2518 20.4567 17.8851 20.4567 17.3761C20.4437 16.8541 20.0641 16.4918 19.5292 16.4918C19.2574 16.4918 19.0158 16.5867 18.8476 16.7549C18.6923 16.9145 18.6103 17.1388 18.6147 17.3761C18.6103 17.609 18.6923 17.8247 18.8519 17.9844C19.0158 18.1569 19.2531 18.2518 19.5205 18.2518ZM18.7527 18.6746C18.6966 18.6746 18.6535 18.7177 18.6535 18.7695V23.7821C18.6535 23.8339 18.6966 23.877 18.7527 23.877H20.31C20.3617 23.877 20.4049 23.8339 20.4049 23.7821V18.7695C20.4049 18.7177 20.3617 18.6746 20.31 18.6746H18.7527ZM15.375 20.7452H14.1067L14.482 19.3993C14.5467 19.1577 14.6114 18.873 14.6761 18.5969C14.6891 18.5323 14.702 18.4718 14.7193 18.4071C14.8012 18.7393 14.8918 19.0973 14.9824 19.4036L15.375 20.7452Z" fill="#DD732C"/>
</svg>
