<svg width="32" height="32" viewBox="0 0 32 32" fill="none" xmlns="http://www.w3.org/2000/svg">
<path d="M8.19269 0.25H18.7955L27.7149 9.56028V27.8307C27.7149 29.9942 25.969 31.75 23.8073 31.75H8.19269C6.04216 31.75 4.28503 29.9938 4.28503 27.8307V4.15765C4.285 2.00668 6.0417 0.25 8.19269 0.25Z" fill="#092F41" stroke="#455468" stroke-width="0.5"/>
<path opacity="0.302" fill-rule="evenodd" clip-rule="evenodd" d="M18.8901 0V9.3781H27.9646L18.8901 0Z" fill="white"/>
<path d="M12.1398 22.4L11.7894 21.3723H10.0026L9.6522 22.4H8.2157L10.2361 16.981H11.5441L13.5646 22.4H12.1398ZM10.3997 20.2278H11.3924L10.8901 18.7913L10.3997 20.2278ZM13.9967 22.4V16.981H16.3092C16.8697 16.981 17.3252 17.1446 17.6639 17.4599C18.0143 17.7752 18.1778 18.1957 18.1778 18.7212C18.1778 19.2467 18.0143 19.6672 17.6639 19.9825C17.3252 20.2978 16.8697 20.4497 16.3092 20.4497H15.3865V22.4H13.9967ZM15.3865 19.2701H16.1573C16.3558 19.2701 16.5193 19.2234 16.6361 19.13C16.7413 19.0248 16.7996 18.8964 16.7996 18.7212C16.7996 18.546 16.7413 18.4059 16.6361 18.3124C16.5193 18.2073 16.3559 18.1606 16.1573 18.1606H15.3865V19.2701ZM22.0435 22.4L20.5953 20.1693L20.1398 20.6599V22.4H18.75V16.981H20.1398V18.8146L21.8216 16.981H23.6201L21.5646 19.165L23.7836 22.4H22.0435Z" fill="white"/>
</svg>
