<svg width="32" height="32" viewBox="0 0 32 32" fill="none" xmlns="http://www.w3.org/2000/svg">
<path fill-rule="evenodd" clip-rule="evenodd" d="M8.19269 0H18.9022L27.9649 9.45986V27.8307C27.9649 30.1314 26.108 32 23.8073 32H8.19269C5.90364 32 4.03503 30.1314 4.03503 27.8307V4.15765C4.03499 1.8686 5.90364 0 8.19269 0Z" fill="#00A1E0"/>
<path opacity="0.302" fill-rule="evenodd" clip-rule="evenodd" d="M18.8904 0V9.3781H27.9648L18.8904 0Z" fill="white"/>
<path d="M18.1313 23.8715H17.524V22.7153H17.6525C17.9561 22.7153 18.1079 22.5518 18.1079 22.2248V20.5314C18.1079 20.2627 18.178 20.0525 18.2948 19.9124C18.4233 19.7839 18.6102 19.6671 18.8554 19.562C18.6218 19.4686 18.435 19.3518 18.3065 19.2116C18.1781 19.0715 18.108 18.8729 18.108 18.6043V16.9109C18.108 16.5839 17.9562 16.4204 17.6525 16.4204H17.5241V15.2642H18.1314C18.4934 15.2642 18.7854 15.381 19.019 15.6146C19.2525 15.8481 19.3693 16.1401 19.3693 16.4905V18.3007C19.3693 18.7445 19.6146 18.9664 20.1051 18.9664V20.1693C19.6146 20.1693 19.3693 20.3912 19.3693 20.8467V22.6452C19.3693 22.9956 19.2525 23.2876 19.019 23.5211C18.7853 23.7548 18.4933 23.8715 18.1313 23.8715ZM13.8685 23.8715C13.5182 23.8715 13.2145 23.7547 12.9809 23.5211C12.7474 23.2876 12.6306 22.9956 12.6306 22.6452V20.8467C12.6306 20.3912 12.3853 20.1693 11.8948 20.1693V18.9664C12.3853 18.9664 12.6306 18.7445 12.6306 18.3007V16.4905C12.6306 16.1401 12.7474 15.8481 12.9809 15.6146C13.2145 15.381 13.5182 15.2642 13.8685 15.2642H14.4875V16.4204H14.3474C14.0437 16.4204 13.8919 16.5839 13.8919 16.9109V18.6043C13.8919 18.873 13.8335 19.0715 13.705 19.2116C13.5766 19.3518 13.3897 19.4686 13.1444 19.562C13.3897 19.6671 13.5766 19.7839 13.705 19.9124C13.8335 20.0525 13.8919 20.2628 13.8919 20.5314V22.2248C13.8919 22.5518 14.0437 22.7153 14.3474 22.7153H14.4875V23.8715H13.8685Z" fill="white"/>
</svg>
