<svg width="32" height="32" viewBox="0 0 32 32" fill="none" xmlns="http://www.w3.org/2000/svg">
<path fill-rule="evenodd" clip-rule="evenodd" d="M8.19269 0H18.9022L27.9649 9.45986V27.8307C27.9649 30.1314 26.108 32 23.8073 32H8.19269C5.90364 32 4.03503 30.1314 4.03503 27.8307V4.15765C4.03499 1.8686 5.90364 0 8.19269 0Z" fill="#008BF5"/>
<path opacity="0.302" fill-rule="evenodd" clip-rule="evenodd" d="M18.8905 0V9.3781H27.965L18.8905 0Z" fill="white"/>
<path d="M19.6613 16.2803C17.6409 14.2599 14.3708 14.2599 12.3504 16.2803C10.33 18.3007 10.33 21.5708 12.3504 23.5913C14.3708 25.6117 17.6409 25.6117 19.6613 23.5913C21.6701 21.5708 21.6701 18.3007 19.6613 16.2803ZM13.1913 23.5445C12.8876 23.3226 12.619 23.054 12.3971 22.7504C13.0745 22.2365 13.7635 21.7343 14.4409 21.2204C14.5343 21.3489 14.5927 21.4073 14.7212 21.5007C14.2073 22.1781 13.7052 22.8672 13.1913 23.5445ZM17.057 20.9869C16.473 21.5708 15.527 21.5708 14.9548 20.9869C14.3708 20.4029 14.3708 19.4686 14.9548 18.8847C15.5271 18.3124 16.473 18.3124 17.057 18.8847C17.6292 19.4686 17.6292 20.4029 17.057 20.9869ZM17.5592 18.6511C17.4657 18.5226 17.4073 18.4759 17.2905 18.3825C17.7927 17.6934 18.3066 17.016 18.8088 16.327C19.1124 16.5489 19.3811 16.8292 19.6146 17.1328C18.9256 17.635 18.2482 18.1489 17.5592 18.6511Z" fill="white"/>
</svg>
