<svg width="32" height="32" viewBox="0 0 32 32" fill="none" xmlns="http://www.w3.org/2000/svg">
<path d="M8.19676 0H18.9037L27.9671 9.45593V27.8372C27.9671 30.1365 26.1035 32 23.8043 32H8.19676C5.89748 32 4.03394 30.1364 4.03394 27.8372V4.16283C4.03394 1.86359 5.89748 0 8.19676 0Z" fill="#0263D1"/>
<path opacity="0.302" fill-rule="evenodd" clip-rule="evenodd" d="M18.8907 0V9.37826H27.9671L18.8907 0Z" fill="white"/>
<path d="M7.89905 22.8331V17.5357H9.77557C10.1509 17.5357 10.5003 17.5918 10.8239 17.6954C11.1474 17.8032 11.4407 17.9585 11.7039 18.1656C11.967 18.3726 12.1741 18.6487 12.3251 18.9938C12.4761 19.3389 12.5537 19.7358 12.5537 20.1844C12.5537 20.6331 12.4761 21.0299 12.3251 21.375C12.1741 21.7201 11.967 21.9962 11.7039 22.2033C11.4408 22.4103 11.1474 22.5656 10.8239 22.6735C10.5003 22.777 10.1509 22.8331 9.77557 22.8331H7.89905ZM9.22339 21.6813H9.61595C9.82733 21.6813 10.0258 21.6555 10.2026 21.608C10.3838 21.5562 10.5477 21.4743 10.703 21.3664C10.8583 21.2585 10.9791 21.1033 11.0654 20.9005C11.156 20.7021 11.1991 20.4605 11.1991 20.1844C11.1991 19.9084 11.1559 19.6668 11.0654 19.464C10.9791 19.2656 10.8583 19.1103 10.703 19.0024C10.5477 18.8903 10.3838 18.8127 10.2026 18.7609C10.0258 18.7134 9.82733 18.6875 9.61595 18.6875H9.22339V21.6813ZM15.7675 22.8935C14.9695 22.8935 14.3094 22.6347 13.7875 22.1214C13.2655 21.608 13.0066 20.9609 13.0066 20.1845C13.0066 19.408 13.2655 18.7609 13.7875 18.2476C14.3094 17.7342 14.9695 17.4754 15.7675 17.4754C16.5526 17.4754 17.204 17.7343 17.726 18.2476C18.2436 18.7609 18.5025 19.408 18.5025 20.1845C18.5025 20.9609 18.2436 21.608 17.726 22.1214C17.204 22.6347 16.5526 22.8935 15.7675 22.8935ZM14.7494 21.3017C15.0126 21.5951 15.349 21.7417 15.7588 21.7417C16.1687 21.7417 16.5008 21.5951 16.764 21.3017C17.0271 21.0041 17.1565 20.6331 17.1565 20.1844C17.1565 19.7358 17.0271 19.3648 16.764 19.0671C16.5009 18.7738 16.1687 18.6271 15.7588 18.6271C15.349 18.6271 15.0126 18.7738 14.7494 19.0671C14.4863 19.3648 14.3525 19.7358 14.3525 20.1844C14.3525 20.6331 14.4863 21.0041 14.7494 21.3017ZM21.6516 22.8935C20.8794 22.8935 20.2366 22.6519 19.7276 22.1774C19.2142 21.6986 18.9598 21.0343 18.9598 20.1844C18.9598 19.3389 19.2186 18.6746 19.7363 18.1957C20.2582 17.7169 20.8924 17.4753 21.6516 17.4753C22.3375 17.4753 22.8983 17.6436 23.3426 17.9844C23.7826 18.3208 24.0372 18.7695 24.1019 19.3303L22.7646 19.602C22.7085 19.3087 22.5747 19.0715 22.3677 18.8946C22.1606 18.7177 21.9191 18.6271 21.6429 18.6271C21.2633 18.6271 20.9484 18.7609 20.6939 19.0326C20.4394 19.3087 20.3099 19.6883 20.3099 20.1844C20.3099 20.6805 20.4394 21.0601 20.6896 21.3319C20.9441 21.608 21.259 21.7417 21.6429 21.7417C21.919 21.7417 22.1563 21.6641 22.3504 21.5088C22.5445 21.3535 22.6653 21.1464 22.7171 20.8876L24.0845 21.1982C23.9595 21.7331 23.6833 22.1472 23.252 22.4449C22.8249 22.7426 22.29 22.8935 21.6516 22.8935Z" fill="white"/>
</svg>
