<svg width="32" height="32" viewBox="0 0 32 32" fill="none" xmlns="http://www.w3.org/2000/svg">
<path fill-rule="evenodd" clip-rule="evenodd" d="M8.17 0H18.87L27.94 9.46V27.83C27.94 30.13 26.07 32 23.77 32H8.17C5.87 32 4 30.13 4 27.83V4.17C4 1.87 5.87 0 8.17 0Z" fill="#0AC963"/>
<g opacity="0.3">
<path fill-rule="evenodd" clip-rule="evenodd" d="M18.86 0V9.38H27.94L18.86 0Z" fill="white"/>
</g>
<path d="M11.67 20.13H29.69V26.06C29.69 26.96 28.96 27.68 28.07 27.68H11.67C10.77 27.68 10.05 26.95 10.05 26.06V21.76C10.05 20.86 10.78 20.14 11.67 20.14V20.13Z" fill="white"/>
<path d="M13.26 26.64V21.24H17.02V22.3H14.56V23.41H16.83V24.47H14.56V25.58H17.02V26.64H13.26Z" fill="#0AC963"/>
<path d="M17.6901 26.64V21.24H19.9201C20.3201 21.24 20.6701 21.32 20.9701 21.48C21.2601 21.64 21.4901 21.86 21.6501 22.14C21.8101 22.42 21.8901 22.75 21.8901 23.12C21.8901 23.49 21.8101 23.82 21.6501 24.1C21.4901 24.38 21.2601 24.59 20.9601 24.75C20.6601 24.9 20.3001 24.98 19.8901 24.98H18.5101V23.95H19.6401C19.8401 23.95 20.0001 23.92 20.1301 23.85C20.2601 23.78 20.3601 23.69 20.4301 23.56C20.5001 23.44 20.5301 23.29 20.5301 23.13C20.5301 22.97 20.5001 22.82 20.4301 22.7C20.3601 22.58 20.2601 22.48 20.1301 22.42C20.0001 22.35 19.8301 22.32 19.6401 22.32H19.0001V26.67H17.7001L17.6901 26.64Z" fill="#0AC963"/>
<path d="M25.3 22.86C25.28 22.67 25.2 22.52 25.07 22.41C24.93 22.3 24.74 22.25 24.48 22.25C24.31 22.25 24.17 22.27 24.06 22.32C23.95 22.37 23.86 22.42 23.81 22.5C23.75 22.58 23.72 22.66 23.72 22.76C23.72 22.84 23.73 22.91 23.77 22.97C23.81 23.03 23.86 23.09 23.93 23.13C24 23.18 24.08 23.22 24.18 23.25C24.28 23.28 24.39 23.32 24.51 23.34L24.97 23.45C25.24 23.51 25.47 23.59 25.68 23.68C25.89 23.78 26.06 23.89 26.2 24.03C26.34 24.16 26.45 24.32 26.52 24.49C26.59 24.66 26.63 24.86 26.63 25.08C26.63 25.42 26.54 25.71 26.37 25.96C26.2 26.2 25.95 26.39 25.64 26.52C25.33 26.65 24.94 26.71 24.49 26.71C24.04 26.71 23.64 26.64 23.31 26.51C22.97 26.37 22.71 26.17 22.53 25.89C22.34 25.61 22.25 25.27 22.24 24.84H23.49C23.5 25.01 23.55 25.16 23.63 25.27C23.71 25.39 23.83 25.47 23.97 25.53C24.12 25.59 24.28 25.62 24.47 25.62C24.65 25.62 24.8 25.6 24.92 25.55C25.04 25.5 25.14 25.44 25.21 25.35C25.28 25.27 25.31 25.17 25.31 25.06C25.31 24.96 25.28 24.87 25.22 24.8C25.16 24.73 25.06 24.66 24.94 24.61C24.81 24.56 24.65 24.51 24.45 24.46L23.89 24.33C23.42 24.22 23.05 24.05 22.79 23.81C22.52 23.57 22.39 23.25 22.39 22.84C22.39 22.51 22.48 22.21 22.66 21.96C22.84 21.71 23.09 21.51 23.41 21.37C23.73 21.23 24.09 21.16 24.5 21.16C24.91 21.16 25.28 21.23 25.59 21.37C25.9 21.51 26.14 21.71 26.31 21.96C26.48 22.21 26.57 22.51 26.57 22.85H25.32L25.3 22.86Z" fill="#0AC963"/>
<path fill-rule="evenodd" clip-rule="evenodd" d="M29.6799 20.13L27.9399 19.17V20.13H29.6799Z" fill="white"/>
</svg>
