<svg width="32" height="32" viewBox="0 0 32 32" fill="none" xmlns="http://www.w3.org/2000/svg">
<path fill-rule="evenodd" clip-rule="evenodd" d="M8.19967 0H18.9024L27.9679 9.45791V27.8326C27.9679 30.1328 26.1007 32 23.8005 32H8.19967C5.89945 32 4.03223 30.1328 4.03223 27.8326V4.16744C4.03223 1.86723 5.89945 0 8.19967 0Z" fill="#00733B"/>
<path opacity="0.302" fill-rule="evenodd" clip-rule="evenodd" d="M18.8889 0V9.37673H27.968L18.8889 0Z" fill="white"/>
<path fill-rule="evenodd" clip-rule="evenodd" d="M11.0817 23.4757H15.3303V25.0859H11.0817V23.4757ZM16.6563 15.2491H20.9185V16.8457H16.6563V15.2491ZM11.0817 15.2491H15.3303V16.8457H11.0817V15.2491ZM16.6563 17.9552H20.9185V19.5653H16.6563V17.9552ZM11.0817 17.9552H15.3303V19.5653H11.0817V17.9552ZM16.6563 20.7695H20.9185V22.3797H16.6563V20.7695ZM11.0817 20.7695H15.3303V22.3797H11.0817V20.7695ZM16.6563 23.4757H20.9185V25.0859H16.6563V23.4757Z" fill="white"/>
</svg>
