<svg width="32" height="32" viewBox="0 0 32 32" fill="none" xmlns="http://www.w3.org/2000/svg">
<path d="M28.674 6.33897V18.7657C28.674 19.5477 28.0399 20.1816 27.2579 20.1816H4.74187C3.95997 20.1816 3.32593 19.5477 3.32593 18.7657V3.67175C3.32593 2.88969 3.95997 2.2558 4.74187 2.2558H12.9707C13.9745 2.2558 14.9122 2.75584 15.4715 3.58949C16.0308 4.42284 16.9686 4.92317 17.9723 4.92317H27.2579C28.0399 4.92317 28.674 5.55707 28.674 6.33912V6.33897Z" fill="url(#paint0_linear_15147_4780)"/>
<path d="M28.674 6.33897V18.7657C28.674 19.5477 28.0399 20.1816 27.2579 20.1816H4.74187C3.95997 20.1816 3.32593 19.5477 3.32593 18.7657V3.67175C3.32593 2.88969 3.95997 2.2558 4.74187 2.2558H12.9707C13.9745 2.2558 14.9122 2.75584 15.4715 3.58949C16.0308 4.42284 16.9686 4.92317 17.9723 4.92317H27.2579C28.0399 4.92317 28.674 5.55707 28.674 6.33912V6.33897Z" fill="url(#paint1_linear_15147_4780)"/>
<g style="mix-blend-mode:multiply">
<path d="M7.16422 5.87152H26.4749C27.1572 5.87152 27.7112 6.42552 27.7112 7.10777V12.3626H5.92798V7.10777C5.92798 6.42552 6.48197 5.87152 7.16422 5.87152Z" fill="#E6E6E6"/>
</g>
<path d="M6.64325 6.21161H26.3159C26.8983 6.21161 27.3711 6.68453 27.3711 7.26683V12.3626H5.58789V7.26683C5.58789 6.68438 6.06081 6.21161 6.64311 6.21161H6.64325Z" fill="#E6E6E6"/>
<g style="mix-blend-mode:multiply">
<path d="M6.12638 6.90948H25.4371C26.1193 6.90948 26.6733 7.46348 26.6733 8.14573V13.0606H4.89014V8.14573C4.89014 7.46348 5.44413 6.90948 6.12638 6.90948Z" fill="#E6E6E6"/>
</g>
<path d="M5.60541 7.24957H25.278C25.8605 7.24957 26.3332 7.72249 26.3332 8.30479V13.4006H4.55005V8.30479C4.55005 7.72234 5.02297 7.24957 5.60527 7.24957H5.60541Z" fill="white"/>
<path d="M30.9963 13.8804L29.9475 28.43C29.9447 28.4701 29.9402 28.5097 29.934 28.5488C29.8271 29.2312 29.2376 29.7442 28.5354 29.7442H3.49182C2.74412 29.7442 2.12526 29.1628 2.07853 28.4166L1.00282 11.1997C0.951813 10.3844 1.59927 9.69556 2.41597 9.69556H12.701C13.7048 9.69556 14.6425 10.1956 15.2018 11.0292C15.7611 11.8629 16.699 12.3629 17.7026 12.3629H29.5839C30.406 12.3629 31.0552 13.0607 30.9963 13.8807V13.8804Z" fill="url(#paint2_linear_15147_4780)"/>
<g style="mix-blend-mode:screen" opacity="0.3">
<path d="M30.9963 13.8804L29.9476 28.43C29.9448 28.4701 29.9402 28.5097 29.934 28.5488C25.7145 26.3639 21.8848 23.5308 18.5765 20.1816C15.5239 17.0913 12.9157 13.5616 10.8545 9.69538C9.59522 7.33331 8.54015 4.84549 7.71313 2.2558H12.9706C13.9744 2.2558 14.9121 2.75584 15.4714 3.58949C16.0307 4.42284 16.9685 4.92317 17.9722 4.92317H27.2578C28.0398 4.92317 28.6739 5.55707 28.6739 6.33912V12.3628H29.5837C30.4059 12.3628 31.0553 13.0603 30.9963 13.8804Z" fill="#333333"/>
</g>
<defs>
<linearGradient id="paint0_linear_15147_4780" x1="16" y1="20.1816" x2="16" y2="2.2558" gradientUnits="userSpaceOnUse">
<stop stop-color="#FA842A"/>
<stop offset="1" stop-color="#FAC03E"/>
</linearGradient>
<linearGradient id="paint1_linear_15147_4780" x1="16" y1="20.1818" x2="16" y2="2.25567" gradientUnits="userSpaceOnUse">
<stop stop-color="#1B4DFF"/>
<stop offset="1" stop-color="#5177FF"/>
</linearGradient>
<linearGradient id="paint2_linear_15147_4780" x1="16.0001" y1="29.7444" x2="16.0001" y2="9.69541" gradientUnits="userSpaceOnUse">
<stop stop-color="#1B4DFF"/>
<stop offset="1" stop-color="#5177FF"/>
</linearGradient>
</defs>
</svg>
