<svg width="32" height="32" viewBox="0 0 32 32" fill="none" xmlns="http://www.w3.org/2000/svg">
<path d="M8.19429 0.25H18.7904L27.7168 9.55396V27.8389C27.7168 29.9929 25.9597 31.75 23.8057 31.75H8.19429C6.03088 31.75 4.2832 29.9933 4.2832 27.8389V4.16109C4.2832 1.99729 6.0305 0.25 8.19429 0.25Z" fill="#0E1E31" stroke="#8897AE" stroke-width="0.5"/>
<path opacity="0.302" fill-rule="evenodd" clip-rule="evenodd" d="M18.8872 0V9.37475H27.9668L18.8872 0Z" fill="white"/>
<path d="M19.8906 22.458L16.2705 14.4014H15.7197L12.257 22.458H11.2241V23.0089H14.2048V22.458H12.8669L13.7522 20.3824H17.0477L17.9723 22.458H17.0477V23.0089H20.7759V22.458H19.8906ZM13.9982 19.8217L15.3656 16.6443L16.7919 19.8217H13.9982Z" fill="white"/>
</svg>
