<svg width="32" height="32" viewBox="0 0 32 32" fill="none" xmlns="http://www.w3.org/2000/svg">
<path fill-rule="evenodd" clip-rule="evenodd" d="M8.17 0H18.87L27.94 9.46V27.83C27.94 30.13 26.07 32 23.77 32H8.17C5.87 32 4 30.13 4 27.83V4.17C4 1.87 5.87 0 8.17 0Z" fill="#0AC963"/>
<g opacity="0.3">
<path fill-rule="evenodd" clip-rule="evenodd" d="M18.86 0V9.38H27.94L18.86 0Z" fill="white"/>
</g>
<path d="M12.91 20.13H29.68V26.06C29.68 26.96 28.95 27.68 28.06 27.68H12.91C12.01 27.68 11.29 26.95 11.29 26.06V21.76C11.29 20.86 12.02 20.14 12.91 20.14V20.13Z" fill="white"/>
<path d="M18.51 23C18.48 22.89 18.44 22.79 18.38 22.71C18.32 22.62 18.25 22.55 18.17 22.49C18.09 22.43 17.99 22.39 17.88 22.35C17.77 22.32 17.65 22.3 17.52 22.3C17.26 22.3 17.03 22.36 16.84 22.49C16.65 22.62 16.5 22.8 16.4 23.04C16.3 23.28 16.24 23.57 16.24 23.92C16.24 24.27 16.29 24.56 16.39 24.81C16.49 25.05 16.64 25.24 16.83 25.37C17.02 25.5 17.25 25.56 17.52 25.56C17.76 25.56 17.96 25.52 18.13 25.44C18.3 25.36 18.42 25.25 18.51 25.11C18.6 24.97 18.64 24.8 18.64 24.6L18.88 24.63H17.57V23.68H19.9V24.39C19.9 24.87 19.8 25.29 19.59 25.63C19.39 25.97 19.1 26.24 18.75 26.42C18.39 26.6 17.98 26.7 17.52 26.7C17 26.7 16.55 26.59 16.16 26.37C15.77 26.15 15.47 25.83 15.25 25.41C15.03 24.99 14.92 24.5 14.92 23.94C14.92 23.5 14.99 23.1 15.12 22.76C15.25 22.42 15.44 22.13 15.67 21.89C15.91 21.65 16.18 21.47 16.49 21.35C16.8 21.23 17.14 21.17 17.5 21.17C17.81 21.17 18.1 21.21 18.37 21.3C18.64 21.39 18.88 21.52 19.09 21.68C19.3 21.84 19.47 22.04 19.6 22.26C19.73 22.48 19.81 22.73 19.84 23H18.52H18.51Z" fill="#0AC963"/>
<path d="M21.81 21.24V26.64H20.51V21.24H21.81Z" fill="#0AC963"/>
<path d="M22.4801 26.64V21.24H26.1601V22.3H23.7801V23.41H25.9301V24.47H23.7801V26.64H22.4801Z" fill="#0AC963"/>
<path fill-rule="evenodd" clip-rule="evenodd" d="M29.6799 20.13L27.9399 19.17V20.13H29.6799Z" fill="white"/>
</svg>
