<svg width="32" height="32" viewBox="0 0 32 32" fill="none" xmlns="http://www.w3.org/2000/svg">
<path fill-rule="evenodd" clip-rule="evenodd" d="M8.19954 0H18.9023L27.9678 9.45791V27.8326C27.9678 30.1328 26.1006 32 23.8004 32H8.19954C5.89933 32 4.0321 30.1328 4.0321 27.8326V4.16744C4.0321 1.86723 5.89933 0 8.19954 0Z" fill="#0AC963"/>
<path opacity="0.302" fill-rule="evenodd" clip-rule="evenodd" d="M18.8888 0V9.37673H27.9679L18.8888 0Z" fill="white"/>
<path fill-rule="evenodd" clip-rule="evenodd" d="M20.0659 15.9933H11.934C11.3251 15.9933 10.8245 16.4939 10.8245 17.1028V22.2715C10.8245 22.8803 11.3251 23.381 11.934 23.381H20.0659C20.6748 23.381 21.1619 22.8804 21.1619 22.2715V17.1027C21.1619 16.4939 20.6748 15.9933 20.0659 15.9933ZM14.153 17.3869C14.816 17.3869 15.3437 17.9281 15.3437 18.5776C15.3437 19.2406 14.816 19.7818 14.153 19.7818C13.49 19.7818 12.9488 19.2406 12.9488 18.5776C12.9488 17.9281 13.49 17.3869 14.153 17.3869ZM20.4312 22.2715C20.4312 22.4745 20.2689 22.6503 20.0659 22.6503H11.934C11.731 22.6503 11.5687 22.4745 11.5687 22.2715V22.055L13.0435 20.5802L14.2613 21.7979C14.4101 21.9468 14.6401 21.9468 14.7889 21.7979L17.8469 18.74L20.4312 21.3244V22.2715Z" fill="white"/>
</svg>
