<svg width="32" height="32" viewBox="0 0 32 32" fill="none" xmlns="http://www.w3.org/2000/svg">
<path fill-rule="evenodd" clip-rule="evenodd" d="M8.19429 0H18.897L27.9668 9.45343V27.8389C27.9668 30.131 26.0977 32 23.8057 32H8.19429C5.89242 32 4.0332 30.131 4.0332 27.8389V4.16109C4.0332 1.85922 5.89242 0 8.19429 0Z" fill="#008BF5"/>
<path opacity="0.302" fill-rule="evenodd" clip-rule="evenodd" d="M18.8872 0V9.37475H27.9668L18.8872 0Z" fill="white"/>
<path d="M9.39441 23.245V17.4313H10.8798V23.245H9.39441ZM13.8309 23.3138C13.2505 23.3138 12.7292 23.1269 12.2963 22.7728C11.8537 22.4089 11.6176 21.9662 11.5782 21.4448L12.857 21.071C12.8866 21.3563 12.9947 21.5924 13.2014 21.7793C13.4079 21.9662 13.644 22.0646 13.8998 22.0646C14.1162 22.0646 14.2933 22.0155 14.4211 21.9269C14.5589 21.8285 14.6179 21.7007 14.6179 21.5531C14.6179 21.4252 14.5687 21.317 14.4605 21.2285C14.3621 21.1399 14.2244 21.0613 14.0572 21.0121C13.8801 20.953 13.6932 20.9039 13.4866 20.8448C13.2801 20.7858 13.0735 20.7169 12.8669 20.6284C12.6702 20.5398 12.4832 20.4317 12.3062 20.3136C12.139 20.1955 12.0013 20.0185 11.9029 19.802C11.7947 19.5856 11.7455 19.3299 11.7455 19.0348C11.7455 18.5626 11.9422 18.1593 12.3554 17.8445C12.7587 17.5297 13.2506 17.3625 13.8211 17.3625C14.3917 17.3625 14.8934 17.51 15.3164 17.7855C15.7394 18.0609 16.005 18.4249 16.1034 18.8675L14.7754 19.4283C14.7163 19.1725 14.6081 18.9757 14.4409 18.8282C14.2737 18.6807 14.0671 18.6118 13.8212 18.6118C13.6343 18.6118 13.4867 18.6511 13.3785 18.72C13.2703 18.7986 13.2211 18.897 13.2211 19.0249C13.2211 19.1528 13.29 19.2512 13.4376 19.3298C13.5753 19.3987 13.7622 19.4577 13.9688 19.4971C14.1852 19.5364 14.4114 19.5954 14.6672 19.6741C14.9131 19.7528 15.1393 19.861 15.3558 19.9791C15.5722 20.1069 15.7493 20.2939 15.8968 20.5595C16.0345 20.8251 16.1034 21.1399 16.1034 21.5038C16.1034 22.0448 15.8968 22.4777 15.4837 22.8122C15.0606 23.1466 14.5097 23.3139 13.8309 23.3138ZM19.6053 23.3138C18.7298 23.3138 18.0018 23.0286 17.4313 22.458C16.8608 21.8973 16.5755 21.189 16.5755 20.3431C16.5755 19.4872 16.8608 18.779 17.4313 18.2182C18.0018 17.6477 18.7298 17.3624 19.6053 17.3624C20.4611 17.3624 21.1792 17.6477 21.7498 18.2182C22.3203 18.779 22.6056 19.4872 22.6056 20.3431C22.6056 21.1891 22.3203 21.8973 21.7498 22.458C21.1792 23.0286 20.4611 23.3138 19.6053 23.3138ZM18.4839 21.5629C18.779 21.8875 19.1429 22.0449 19.5955 22.0449C20.0382 22.0449 20.4119 21.8875 20.6972 21.5629C20.9825 21.2382 21.1301 20.8349 21.1301 20.3431C21.1301 19.8414 20.9825 19.438 20.6972 19.1135C20.4119 18.7888 20.0382 18.6314 19.5955 18.6314C19.1429 18.6314 18.779 18.7888 18.4839 19.1135C18.1986 19.4381 18.051 19.8414 18.051 20.3431C18.051 20.8349 18.1986 21.2382 18.4839 21.5629Z" fill="white"/>
</svg>
