<svg width="32" height="32" viewBox="0 0 32 32" fill="none" xmlns="http://www.w3.org/2000/svg">
<path fill-rule="evenodd" clip-rule="evenodd" d="M8.19954 0H18.9023L27.9678 9.45791V27.8326C27.9678 30.1328 26.1006 32 23.8004 32H8.19954C5.89933 32 4.0321 30.1328 4.0321 27.8326V4.16744C4.0321 1.86723 5.89933 0 8.19954 0Z" fill="#60A313"/>
<path opacity="0.302" fill-rule="evenodd" clip-rule="evenodd" d="M18.8888 0V9.37673H27.9679L18.8888 0Z" fill="white"/>
<path d="M12.1505 24.1793C11.9611 24.1793 11.7987 24.1523 11.6499 24.0846C11.4875 24.0304 11.3522 23.9357 11.2304 23.814C11.1087 23.6922 11.014 23.5569 10.9463 23.3945C10.8921 23.2457 10.8651 23.0833 10.8651 22.8939V21.1484C10.8651 20.959 10.811 20.8237 10.7163 20.729C10.608 20.6478 10.4592 20.5937 10.2427 20.5937H10.1479V19.2406H10.2427C10.4592 19.2406 10.608 19.2 10.7163 19.1053C10.811 19.0106 10.8651 18.8753 10.8651 18.6859V16.9404C10.8651 16.7645 10.8921 16.5886 10.9463 16.4398C11.0139 16.291 11.1087 16.1421 11.2304 16.0203C11.3522 15.8986 11.4875 15.8039 11.6499 15.7497C11.7987 15.6821 11.9611 15.655 12.1505 15.655H12.8406V16.9675H12.6105C12.4888 16.9675 12.4076 16.9945 12.3535 17.0486C12.2993 17.1163 12.2723 17.211 12.2723 17.3463V18.9835C12.2723 19.1188 12.2452 19.2541 12.2181 19.3624C12.1776 19.4706 12.1234 19.5653 12.0558 19.6465C11.9881 19.7142 11.9069 19.7818 11.8122 19.8495L11.6769 19.9171L11.8122 19.9848C11.9069 20.0524 11.9881 20.1201 12.0558 20.1877C12.2046 20.3366 12.2722 20.5666 12.2722 20.8507V22.5015C12.2722 22.6233 12.2993 22.7315 12.3534 22.7857C12.4076 22.8398 12.4888 22.8804 12.6105 22.8804H12.8405V24.1793L12.1505 24.1793ZM19.8495 24.1793H19.1594V22.8803H19.3894C19.4977 22.8803 19.5924 22.8398 19.6465 22.7856C19.7006 22.7315 19.7277 22.6232 19.7277 22.5015V20.8507C19.7277 20.7155 19.7412 20.5801 19.7818 20.4719C19.8089 20.3637 19.863 20.2689 19.9307 20.1877C19.9983 20.1201 20.0795 20.0524 20.1877 19.9848L20.3095 19.9171L20.1877 19.8495C20.093 19.7818 20.0118 19.7142 19.9442 19.6465C19.863 19.5653 19.8088 19.4706 19.7818 19.3624C19.7412 19.2541 19.7276 19.1188 19.7276 18.9835V17.3463C19.7276 17.211 19.7006 17.1163 19.6465 17.0486C19.5923 16.9945 19.4976 16.9675 19.3894 16.9675H19.1594V15.655H19.8494C20.0253 15.655 20.2012 15.682 20.3501 15.7497C20.5124 15.8039 20.6477 15.8986 20.7695 16.0203C20.8913 16.1421 20.986 16.2774 21.0401 16.4398C21.1077 16.5886 21.1348 16.7645 21.1348 16.9404V18.6859C21.1348 18.8753 21.189 19.0106 21.2837 19.1053C21.3784 19.2 21.5407 19.2406 21.7572 19.2406H21.852V20.5937H21.7572C21.5408 20.5937 21.3784 20.6478 21.2837 20.729C21.1889 20.8237 21.1348 20.959 21.1348 21.1484V22.8939C21.1348 23.2592 21.0131 23.5704 20.7695 23.814C20.6477 23.9357 20.5124 24.0304 20.3501 24.0846C20.2013 24.1523 20.0253 24.1793 19.8495 24.1793ZM15.6549 18.2664H17.1298V19.7818H15.5602V18.2664H15.6549ZM14.8431 23.8816L15.4655 21.3108H17.2245C16.7645 22.2038 16.3179 23.0969 15.8715 24.0034H14.8161L14.8431 23.8816Z" fill="white"/>
</svg>
