<svg width="32" height="32" viewBox="0 0 32 32" fill="none" xmlns="http://www.w3.org/2000/svg">
<path fill-rule="evenodd" clip-rule="evenodd" d="M8.17 0H18.87L27.94 9.46V27.83C27.94 30.13 26.07 32 23.77 32H8.17C5.87 32 4 30.13 4 27.83V4.17C4 1.87 5.87 0 8.17 0Z" fill="#0AC963"/>
<g opacity="0.3">
<path fill-rule="evenodd" clip-rule="evenodd" d="M18.86 0V9.38H27.94L18.86 0Z" fill="white"/>
</g>
<path d="M9.31995 20.13H29.68V26.06C29.68 26.96 28.9499 27.68 28.0599 27.68H9.31995C8.41995 27.68 7.69995 26.95 7.69995 26.06V21.76C7.69995 20.86 8.42995 20.14 9.31995 20.14V20.13Z" fill="white"/>
<path d="M11.81 21.24H13.1V24.97C13.1 25.32 13.01 25.62 12.85 25.89C12.68 26.15 12.46 26.35 12.17 26.5C11.88 26.64 11.54 26.72 11.16 26.72C10.82 26.72 10.52 26.66 10.24 26.54C9.96997 26.42 9.74997 26.24 9.57997 25.99C9.41997 25.74 9.33997 25.43 9.33997 25.04H10.64C10.64 25.18 10.67 25.3 10.72 25.39C10.77 25.48 10.84 25.56 10.92 25.61C11 25.66 11.11 25.68 11.23 25.68C11.35 25.68 11.46 25.65 11.55 25.6C11.64 25.55 11.7 25.47 11.75 25.36C11.79 25.25 11.82 25.12 11.82 24.97V21.24H11.81Z" fill="#0AC963"/>
<path d="M13.77 26.64V21.24H16C16.4 21.24 16.75 21.32 17.05 21.48C17.34 21.64 17.57 21.86 17.73 22.14C17.89 22.42 17.97 22.75 17.97 23.12C17.97 23.49 17.89 23.82 17.73 24.1C17.57 24.38 17.34 24.59 17.04 24.75C16.74 24.9 16.38 24.98 15.97 24.98H14.59V23.95H15.72C15.92 23.95 16.08 23.92 16.21 23.85C16.34 23.78 16.44 23.69 16.51 23.56C16.58 23.44 16.61 23.29 16.61 23.13C16.61 22.97 16.58 22.82 16.51 22.7C16.44 22.58 16.34 22.48 16.21 22.42C16.08 22.35 15.91 22.32 15.72 22.32H15.08V26.67H13.78L13.77 26.64Z" fill="#0AC963"/>
<path d="M18.46 26.64V21.24H22.22V22.3H19.76V23.41H22.03V24.47H19.76V25.58H22.22V26.64H18.46Z" fill="#0AC963"/>
<path d="M26.43 23C26.4 22.89 26.36 22.79 26.3 22.71C26.24 22.62 26.17 22.55 26.09 22.49C26.01 22.43 25.91 22.39 25.8 22.35C25.69 22.32 25.57 22.3 25.44 22.3C25.18 22.3 24.95 22.36 24.76 22.49C24.57 22.62 24.42 22.8 24.32 23.04C24.22 23.28 24.16 23.57 24.16 23.92C24.16 24.27 24.21 24.56 24.31 24.81C24.41 25.05 24.56 25.24 24.75 25.37C24.94 25.5 25.17 25.56 25.44 25.56C25.68 25.56 25.88 25.52 26.05 25.44C26.22 25.36 26.34 25.25 26.43 25.11C26.52 24.97 26.56 24.8 26.56 24.6L26.8 24.63H25.49V23.68H27.82V24.39C27.82 24.87 27.72 25.29 27.51 25.63C27.31 25.97 27.02 26.24 26.67 26.42C26.31 26.6 25.9 26.7 25.44 26.7C24.92 26.7 24.47 26.59 24.08 26.37C23.69 26.15 23.39 25.83 23.17 25.41C22.95 24.99 22.84 24.5 22.84 23.94C22.84 23.5 22.91 23.1 23.04 22.76C23.17 22.42 23.36 22.13 23.59 21.89C23.83 21.65 24.1 21.47 24.41 21.35C24.72 21.23 25.06 21.17 25.42 21.17C25.73 21.17 26.02 21.21 26.29 21.3C26.56 21.39 26.8 21.52 27.01 21.68C27.22 21.84 27.39 22.04 27.52 22.26C27.65 22.48 27.73 22.73 27.76 23H26.44H26.43Z" fill="#0AC963"/>
<path fill-rule="evenodd" clip-rule="evenodd" d="M29.6799 20.13L27.9399 19.17V20.13H29.6799Z" fill="white"/>
</svg>
