<svg width="32" height="32" viewBox="0 0 32 32" fill="none" xmlns="http://www.w3.org/2000/svg">
<path fill-rule="evenodd" clip-rule="evenodd" d="M8.19269 0H18.9022L27.9649 9.45986V27.8307C27.9649 30.1314 26.108 32 23.8073 32H8.19269C5.90364 32 4.03503 30.1314 4.03503 27.8307V4.15765C4.03499 1.8686 5.90364 0 8.19269 0Z" fill="#E0C600"/>
<path opacity="0.302" fill-rule="evenodd" clip-rule="evenodd" d="M18.8905 0V9.3781H27.965L18.8905 0Z" fill="white"/>
<path d="M11.6963 21.7343C11.8247 21.7577 11.9532 21.7694 12.0817 21.7694C12.6189 21.7694 12.8875 21.5124 12.8875 21.0102V16.6657H14.4525V21.1037C14.4525 21.7927 14.2773 22.3183 13.927 22.6803C13.5883 23.0307 13.1094 23.2175 12.5021 23.2175C12.2569 23.2175 11.9882 23.1942 11.6963 23.1358V21.7343ZM17.7693 23.2409C17.1153 23.2409 16.5313 23.0423 16.0408 22.6452C15.5503 22.2365 15.2817 21.7459 15.2467 21.1503L16.6715 20.7416C16.7065 21.0569 16.835 21.3255 17.0569 21.5357C17.2904 21.7459 17.5474 21.8511 17.8394 21.8511C18.0846 21.8511 18.2715 21.7927 18.4233 21.6876C18.5751 21.5824 18.6452 21.454 18.6452 21.2788C18.6452 21.1387 18.5868 21.0102 18.47 20.9168C18.3532 20.8116 18.2014 20.7299 18.0145 20.6715C17.8277 20.6131 17.6175 20.5431 17.3839 20.4846C17.1503 20.4262 16.9167 20.3445 16.6832 20.2394C16.4613 20.1459 16.251 20.0292 16.0642 19.889C15.8773 19.7605 15.7255 19.562 15.597 19.3167C15.4802 19.0715 15.4218 18.7912 15.4218 18.4642C15.4218 17.9269 15.6554 17.4831 16.1109 17.1328C16.5664 16.7708 17.1153 16.5956 17.7576 16.5956C18.3883 16.5956 18.9488 16.7474 19.4277 17.0627C19.8948 17.3664 20.1868 17.7751 20.3036 18.2773L18.8204 18.8963C18.7503 18.616 18.6335 18.3941 18.4467 18.2306C18.2598 18.0671 18.0262 17.9853 17.7576 17.9853C17.5474 17.9853 17.3839 18.032 17.2554 18.1138C17.1386 18.1955 17.0802 18.3123 17.0802 18.4525C17.0802 18.5927 17.162 18.6977 17.3255 18.7912C17.4773 18.8729 17.6759 18.943 17.9211 18.9781C18.1547 19.0131 18.4116 19.0832 18.6919 19.1766C18.9722 19.27 19.2291 19.3868 19.4744 19.5153C19.708 19.6554 19.9065 19.8773 20.07 20.1693C20.2335 20.4613 20.3036 20.8116 20.3036 21.2321C20.3036 21.8277 20.07 22.3182 19.6028 22.6919C19.1357 23.054 18.5284 23.2409 17.7693 23.2409Z" fill="white"/>
</svg>
