<svg width="32" height="32" viewBox="0 0 32 32" fill="none" xmlns="http://www.w3.org/2000/svg">
<path fill-rule="evenodd" clip-rule="evenodd" d="M8.19238 0H18.9022L27.9685 9.45411V27.8392C27.9685 30.135 26.1036 32 23.8016 32H8.19242C5.89658 32 4.03162 30.135 4.03162 27.8392V4.16081C4.03158 1.86496 5.89654 0 8.19238 0Z" fill="#0067BD"/>
<path opacity="0.302" fill-rule="evenodd" clip-rule="evenodd" d="M18.8898 0V9.38028H27.9684L18.8898 0Z" fill="white"/>
<path d="M17.745 19.9916L21.3703 22.2812V17.6096L17.745 19.9916ZM17.1356 20.3978L16.1816 21.0256C16.1262 21.0625 16.0647 21.081 15.9969 21.081C15.9354 21.081 15.8677 21.0625 15.8123 21.0256L14.8644 20.3978L10.6482 23.0629C10.7036 23.383 10.9683 23.6291 11.3006 23.6291H20.6994C21.0318 23.6291 21.2964 23.383 21.3456 23.0629L17.1356 20.3978ZM20.6994 16.2431H11.3006C10.9621 16.2431 10.6974 16.4955 10.6482 16.8156L15.9969 20.3424L21.3457 16.8156C21.2964 16.4955 21.0318 16.2431 20.6994 16.2431ZM10.6298 17.6096V22.2812L14.2489 19.9916L10.6298 17.6096Z" fill="white"/>
</svg>
