<svg width="32" height="32" viewBox="0 0 32 32" fill="none" xmlns="http://www.w3.org/2000/svg">
<path fill-rule="evenodd" clip-rule="evenodd" d="M8.19676 0H18.9037L27.9671 9.45593V27.8372C27.9671 30.1365 26.1035 32 23.8043 32H8.19676C5.89748 32 4.03394 30.1364 4.03394 27.8372V4.16283C4.03394 1.86359 5.89748 0 8.19676 0Z" fill="#EB3023"/>
<path opacity="0.302" fill-rule="evenodd" clip-rule="evenodd" d="M18.8907 0V9.37826H27.9671L18.8907 0Z" fill="white"/>
<path d="M16.7554 17.7902H18.1272V20.3527C18.1272 20.6374 18.2696 20.784 18.5586 20.784C18.7657 20.784 18.9339 20.6546 19.0633 20.4001C19.1971 20.1456 19.2661 19.8005 19.2661 19.3561C19.2661 18.502 18.9814 17.8377 18.4206 17.3631C17.8555 16.8886 17.1178 16.6514 16.2076 16.6514C15.1766 16.6514 14.3397 16.949 13.6969 17.5486C13.0585 18.1439 12.7392 18.9204 12.7392 19.8781C12.7392 20.8703 13.0542 21.677 13.6883 22.2939C14.3224 22.9151 15.1464 23.2213 16.1601 23.2213C17.0833 23.2213 18.0065 22.9711 18.9339 22.4621L19.4084 23.8857C18.2437 24.3731 17.1264 24.6147 16.0523 24.6147C14.6891 24.6147 13.5546 24.1661 12.653 23.2688C11.7514 22.3672 11.3027 21.237 11.3027 19.8781C11.3027 18.5538 11.7686 17.4494 12.7004 16.5738C13.6322 15.6981 14.7969 15.2624 16.2076 15.2624C17.4931 15.2624 18.5629 15.6506 19.4171 16.4271C20.2712 17.2036 20.6983 18.1785 20.6983 19.3562C20.6983 20.2189 20.4912 20.8962 20.0771 21.388C19.6586 21.8841 19.1151 22.13 18.4464 22.13C17.7606 22.13 17.2903 21.9013 17.0358 21.4441C16.777 21.8366 16.3499 22.0307 15.7546 22.0307C15.1507 22.0307 14.6632 21.8366 14.3008 21.4484C13.9342 21.0644 13.753 20.5382 13.753 19.8781C13.753 19.2138 13.9298 18.6918 14.2793 18.3036C14.6287 17.9153 15.0989 17.7255 15.6856 17.7255C16.1515 17.7255 16.5052 17.8549 16.7554 18.1224V17.7902ZM15.3319 20.5942C15.4958 20.7797 15.7029 20.8703 15.9617 20.8703C16.2205 20.8703 16.4276 20.7797 16.5872 20.5985C16.7425 20.4217 16.8245 20.1801 16.8245 19.8781C16.8245 19.5761 16.7425 19.3346 16.5872 19.1534C16.4276 18.9722 16.2205 18.8816 15.9617 18.8816C15.7029 18.8816 15.4958 18.9765 15.3319 19.1577C15.1723 19.3432 15.0903 19.5847 15.0903 19.8781C15.0903 20.1715 15.1723 20.4131 15.3319 20.5942Z" fill="white"/>
</svg>
