<svg width="32" height="32" viewBox="0 0 32 32" fill="none" xmlns="http://www.w3.org/2000/svg">
<path fill-rule="evenodd" clip-rule="evenodd" d="M8.17 0H18.87L27.94 9.46V27.83C27.94 30.13 26.07 32 23.77 32H8.17C5.87 32 4 30.13 4 27.83V4.17C4 1.87 5.87 0 8.17 0Z" fill="#FA0000"/>
<g opacity="0.3">
<path fill-rule="evenodd" clip-rule="evenodd" d="M18.86 0V9.38H27.94L18.86 0Z" fill="white"/>
</g>
<path d="M9.72999 20.13H29.68V26.06C29.68 26.96 28.95 27.68 28.06 27.68H9.72999C8.82999 27.68 8.10999 26.95 8.10999 26.06V21.76C8.10999 20.86 8.83999 20.14 9.72999 20.14V20.13Z" fill="white"/>
<path d="M10.5601 21.24H12.1801L13.5501 24.58H13.6101L14.9801 21.24H16.6001V26.64H15.3301V23.32H15.2901L13.9901 26.6H13.1801L11.8801 23.3H11.8401V26.63H10.5701V21.23L10.5601 21.24Z" fill="#DA3832"/>
<path d="M17.26 26.64V21.24H18.56V23.52H18.63L20.41 21.24H21.95L20.04 23.65L21.99 26.64H20.43L19.09 24.52L18.57 25.18V26.64H17.27H17.26Z" fill="#DA3832"/>
<path d="M23.5501 21.24L24.7601 25.19H24.8001L26.0101 21.24H27.4701L25.6501 26.64H23.9101L22.0901 21.24H23.5501Z" fill="#DA3832"/>
<path fill-rule="evenodd" clip-rule="evenodd" d="M29.6799 20.13L27.9399 19.17V20.13H29.6799Z" fill="white"/>
</svg>
