<svg width="32" height="32" viewBox="0 0 32 32" fill="none" xmlns="http://www.w3.org/2000/svg">
<path fill-rule="evenodd" clip-rule="evenodd" d="M8.19269 0H18.9022L27.9649 9.45986V27.8307C27.9649 30.1314 26.108 32 23.8073 32H8.19269C5.90364 32 4.03503 30.1314 4.03503 27.8307V4.15765C4.03499 1.8686 5.90364 0 8.19269 0Z" fill="#008BF5"/>
<path opacity="0.302" fill-rule="evenodd" clip-rule="evenodd" d="M18.8905 0V9.3781H27.965L18.8905 0Z" fill="white"/>
<path d="M12.07 16.3971C13.0861 15.3927 14.4759 14.7737 16.0058 14.7737C17.5357 14.7737 18.9255 15.3927 19.9299 16.3971C20.9459 17.4015 21.5649 18.7913 21.5649 20.3095V22.7971C21.5649 23.1241 21.4365 23.4277 21.2145 23.6379C21.0043 23.8598 20.7007 23.9883 20.3737 23.9883H19.8014V20.3562H20.4204V20.3095C20.4204 19.1065 19.9182 18.0087 19.124 17.2146C18.3181 16.4087 17.2203 15.9182 16.0058 15.9182C14.7912 15.9182 13.6817 16.4087 12.8759 17.2146C12.0817 18.0087 11.5912 19.1065 11.5912 20.3095V20.3562H12.2101V23.9883H11.6379C11.2992 23.9883 11.0072 23.8598 10.7853 23.6379C10.5751 23.4277 10.4349 23.1241 10.4349 22.7971V20.3095C10.435 18.7913 11.0657 17.4015 12.07 16.3971ZM17.9796 19.7372H18.2949C18.5402 19.7372 18.762 19.8424 18.9139 19.9942C19.0774 20.1577 19.1708 20.3796 19.1708 20.6248V23.7314C19.1708 23.9767 19.0774 24.1986 18.9139 24.3504C18.762 24.5139 18.5402 24.619 18.2949 24.619H17.9796C17.8161 24.619 17.6759 24.549 17.5708 24.4438C17.4657 24.3387 17.4073 24.1986 17.4073 24.0351V20.3095C17.4073 20.1577 17.4657 20.0059 17.5708 19.9124C17.6759 19.8073 17.8161 19.7372 17.9796 19.7372ZM13.7168 19.7372H14.0204C14.1839 19.7372 14.3241 19.8073 14.4292 19.9124C14.5343 20.0059 14.5927 20.1577 14.5927 20.3095V24.0351C14.5927 24.1986 14.5343 24.3387 14.4292 24.4438C14.3241 24.549 14.1839 24.619 14.0204 24.619H13.7168C13.4715 24.619 13.2496 24.5139 13.0861 24.3504C12.9226 24.1986 12.8292 23.9767 12.8292 23.7314V20.6248C12.8292 20.3796 12.9226 20.1577 13.0861 19.9942C13.2496 19.8423 13.4715 19.7372 13.7168 19.7372Z" fill="white"/>
</svg>
