<svg width="32" height="32" viewBox="0 0 32 32" fill="none" xmlns="http://www.w3.org/2000/svg">
<path fill-rule="evenodd" clip-rule="evenodd" d="M8.17 0H18.87L27.94 9.46V27.83C27.94 30.13 26.07 32 23.77 32H8.17C5.87 32 4 30.13 4 27.83V4.17C4 1.87 5.87 0 8.17 0Z" fill="#FA0000"/>
<g opacity="0.3">
<path fill-rule="evenodd" clip-rule="evenodd" d="M18.86 0V9.38H27.94L18.86 0Z" fill="white"/>
</g>
<path d="M10.34 20.13H29.69V26.06C29.69 26.96 28.96 27.68 28.07 27.68H10.34C9.43997 27.68 8.71997 26.95 8.71997 26.06V21.76C8.71997 20.86 9.44997 20.14 10.34 20.14V20.13Z" fill="white"/>
<path d="M11.4301 21.24H13.0501L14.4201 24.58H14.4801L15.8501 21.24H17.4701V26.64H16.2001V23.32H16.1601L14.8601 26.6H14.0501L12.7501 23.3H12.7101V26.63H11.4401V21.23L11.4301 21.24Z" fill="#DA3832"/>
<path d="M18.14 26.64V21.24H20.37C20.77 21.24 21.12 21.32 21.42 21.48C21.71 21.64 21.94 21.86 22.1 22.14C22.26 22.42 22.34 22.75 22.34 23.12C22.34 23.49 22.26 23.82 22.1 24.1C21.94 24.38 21.71 24.59 21.41 24.75C21.11 24.9 20.75 24.98 20.34 24.98H18.96V23.95H20.09C20.29 23.95 20.45 23.92 20.58 23.85C20.71 23.78 20.81 23.69 20.88 23.56C20.95 23.44 20.98 23.29 20.98 23.13C20.98 22.97 20.95 22.82 20.88 22.7C20.81 22.58 20.71 22.48 20.58 22.42C20.45 22.35 20.28 22.32 20.09 22.32H19.45V26.67H18.15L18.14 26.64Z" fill="#DA3832"/>
<path d="M24.87 26.71C24.46 26.71 24.09 26.64 23.78 26.5C23.46 26.36 23.21 26.16 23.03 25.91C22.85 25.66 22.75 25.37 22.75 25.05H24.06C24.06 25.17 24.1 25.27 24.17 25.36C24.24 25.45 24.34 25.52 24.46 25.57C24.58 25.62 24.72 25.65 24.87 25.65C25.02 25.65 25.16 25.62 25.28 25.57C25.4 25.51 25.49 25.44 25.56 25.34C25.63 25.24 25.66 25.13 25.66 25C25.66 24.87 25.63 24.76 25.55 24.66C25.48 24.56 25.37 24.49 25.24 24.43C25.11 24.38 24.95 24.35 24.76 24.35H24.24V23.42H24.76C24.92 23.42 25.06 23.39 25.18 23.34C25.3 23.29 25.4 23.21 25.47 23.12C25.54 23.02 25.57 22.91 25.57 22.79C25.57 22.67 25.54 22.56 25.48 22.47C25.42 22.38 25.34 22.31 25.23 22.26C25.13 22.21 25 22.18 24.87 22.18C24.73 22.18 24.6 22.21 24.48 22.26C24.36 22.31 24.27 22.38 24.2 22.48C24.13 22.57 24.1 22.68 24.09 22.8H22.84C22.84 22.48 22.93 22.2 23.11 21.95C23.29 21.7 23.53 21.51 23.83 21.37C24.13 21.23 24.48 21.16 24.87 21.16C25.26 21.16 25.6 21.23 25.89 21.36C26.18 21.49 26.41 21.68 26.58 21.91C26.74 22.14 26.83 22.41 26.83 22.7C26.83 23 26.73 23.25 26.53 23.45C26.33 23.65 26.07 23.77 25.76 23.81V23.85C26.18 23.9 26.49 24.03 26.71 24.26C26.92 24.48 27.03 24.76 27.03 25.09C27.03 25.4 26.94 25.68 26.75 25.92C26.57 26.16 26.31 26.35 25.99 26.49C25.66 26.63 25.29 26.7 24.87 26.7V26.71Z" fill="#DA3832"/>
<path fill-rule="evenodd" clip-rule="evenodd" d="M29.6799 20.13L27.9399 19.17V20.13H29.6799Z" fill="white"/>
</svg>
