<svg width="32" height="32" viewBox="0 0 32 32" fill="none" xmlns="http://www.w3.org/2000/svg">
<path fill-rule="evenodd" clip-rule="evenodd" d="M8.17 0H18.87L27.94 9.46V27.83C27.94 30.13 26.07 32 23.77 32H8.17C5.87 32 4 30.13 4 27.83V4.17C4 1.87 5.87 0 8.17 0Z" fill="#FA0000"/>
<g opacity="0.3">
<path fill-rule="evenodd" clip-rule="evenodd" d="M18.86 0V9.38H27.94L18.86 0Z" fill="white"/>
</g>
<path d="M9.66004 20.13H29.69V26.06C29.69 26.96 28.96 27.68 28.07 27.68H9.66004C8.76004 27.68 8.04004 26.95 8.04004 26.06V21.76C8.04004 20.86 8.77004 20.14 9.66004 20.14V20.13Z" fill="white"/>
<path d="M11.01 21.24H12.63L14 24.58H14.06L15.43 21.24H17.05V26.64H15.78V23.32H15.74L14.44 26.6H13.63L12.33 23.3H12.29V26.63H11.02V21.23L11.01 21.24Z" fill="#DA3832"/>
<path d="M17.71 26.64V21.24H19.94C20.34 21.24 20.69 21.32 20.99 21.48C21.28 21.64 21.51 21.86 21.67 22.14C21.83 22.42 21.91 22.75 21.91 23.12C21.91 23.49 21.83 23.82 21.67 24.1C21.51 24.38 21.28 24.59 20.98 24.75C20.68 24.9 20.32 24.98 19.91 24.98H18.53V23.95H19.66C19.86 23.95 20.02 23.92 20.15 23.85C20.28 23.78 20.38 23.69 20.45 23.56C20.52 23.44 20.55 23.29 20.55 23.13C20.55 22.97 20.52 22.82 20.45 22.7C20.38 22.58 20.28 22.48 20.15 22.42C20.02 22.35 19.85 22.32 19.66 22.32H19.02V26.67H17.72L17.71 26.64Z" fill="#DA3832"/>
<path d="M22.33 25.74V24.72L24.54 21.24H25.44V22.62H24.92L23.63 24.67V24.71H26.83V25.74H22.33ZM24.93 26.64V25.43L24.96 24.98V21.23H26.18V26.63H24.93V26.64Z" fill="#DA3832"/>
<path fill-rule="evenodd" clip-rule="evenodd" d="M29.6799 20.13L27.9399 19.17V20.13H29.6799Z" fill="white"/>
</svg>
