<svg width="32" height="32" viewBox="0 0 32 32" fill="none" xmlns="http://www.w3.org/2000/svg">
<path fill-rule="evenodd" clip-rule="evenodd" d="M8.17 0H18.87L27.94 9.46V27.83C27.94 30.13 26.07 32 23.77 32H8.17C5.87 32 4 30.13 4 27.83V4.17C4 1.87 5.87 0 8.17 0Z" fill="#FA0000"/>
<g opacity="0.3">
<path fill-rule="evenodd" clip-rule="evenodd" d="M18.86 0V9.38H27.94L18.86 0Z" fill="white"/>
</g>
<path d="M7.95997 20.13H29.69V26.06C29.69 26.96 28.96 27.68 28.07 27.68H7.95997C7.05997 27.68 6.33997 26.95 6.33997 26.06V21.76C6.33997 20.86 7.06997 20.14 7.95997 20.14V20.13Z" fill="white"/>
<path d="M7.66003 21.24H9.28003L10.65 24.58H10.71L12.08 21.24H13.7V26.64H12.43V23.32H12.39L11.09 26.6H10.28L8.98003 23.3H8.94003V26.63H7.67003V21.23L7.66003 21.24Z" fill="#DA3832"/>
<path d="M14.36 26.64V21.24H16.59C16.99 21.24 17.34 21.32 17.64 21.48C17.93 21.64 18.16 21.86 18.32 22.14C18.48 22.42 18.56 22.75 18.56 23.12C18.56 23.49 18.48 23.82 18.32 24.1C18.16 24.38 17.93 24.59 17.63 24.75C17.33 24.9 16.97 24.98 16.56 24.98H15.18V23.95H16.31C16.51 23.95 16.67 23.92 16.8 23.85C16.93 23.78 17.03 23.69 17.1 23.56C17.17 23.44 17.2 23.29 17.2 23.13C17.2 22.97 17.17 22.82 17.1 22.7C17.03 22.58 16.93 22.48 16.8 22.42C16.67 22.35 16.5 22.32 16.31 22.32H15.67V26.67H14.37L14.36 26.64Z" fill="#DA3832"/>
<path d="M19.05 26.64V21.24H22.81V22.3H20.35V23.41H22.62V24.47H20.35V25.58H22.81V26.64H19.05Z" fill="#DA3832"/>
<path d="M27.0301 23C27.0001 22.89 26.9601 22.79 26.9001 22.71C26.8401 22.62 26.7701 22.55 26.6901 22.49C26.6101 22.43 26.5101 22.39 26.4001 22.35C26.2901 22.32 26.1701 22.3 26.0401 22.3C25.7801 22.3 25.5501 22.36 25.3601 22.49C25.1701 22.62 25.0201 22.8 24.9201 23.04C24.8201 23.28 24.7601 23.57 24.7601 23.92C24.7601 24.27 24.8101 24.56 24.9101 24.81C25.0101 25.05 25.1601 25.24 25.3501 25.37C25.5401 25.5 25.7701 25.56 26.0401 25.56C26.2801 25.56 26.4801 25.52 26.6501 25.44C26.8201 25.36 26.9401 25.25 27.0301 25.11C27.1201 24.97 27.1601 24.8 27.1601 24.6L27.4001 24.63H26.0901V23.68H28.4201V24.39C28.4201 24.87 28.3201 25.29 28.1101 25.63C27.9101 25.97 27.6201 26.24 27.2701 26.42C26.9101 26.6 26.5001 26.7 26.0401 26.7C25.5201 26.7 25.0701 26.59 24.6801 26.37C24.2901 26.15 23.9901 25.83 23.7701 25.41C23.5501 24.99 23.4401 24.5 23.4401 23.94C23.4401 23.5 23.5101 23.1 23.6401 22.76C23.7701 22.42 23.9601 22.13 24.1901 21.89C24.4301 21.65 24.7001 21.47 25.0101 21.35C25.3201 21.23 25.6601 21.17 26.0201 21.17C26.3301 21.17 26.6201 21.21 26.8901 21.3C27.1601 21.39 27.4001 21.52 27.6101 21.68C27.8201 21.84 27.9901 22.04 28.1201 22.26C28.2501 22.48 28.3301 22.73 28.3601 23H27.0401H27.0301Z" fill="#DA3832"/>
<path fill-rule="evenodd" clip-rule="evenodd" d="M29.6799 20.13L27.9399 19.17V20.13H29.6799Z" fill="white"/>
</svg>
