<svg width="32" height="32" viewBox="0 0 32 32" fill="none" xmlns="http://www.w3.org/2000/svg">
<path fill-rule="evenodd" clip-rule="evenodd" d="M8.19429 0H18.897L27.9668 9.45343V27.8389C27.9668 30.131 26.0977 32 23.8057 32H8.19429C5.89242 32 4.0332 30.131 4.0332 27.8389V4.16109C4.0332 1.85922 5.89242 0 8.19429 0Z" fill="#9900CC"/>
<path opacity="0.302" fill-rule="evenodd" clip-rule="evenodd" d="M18.8872 0V9.37475H27.9668L18.8872 0Z" fill="white"/>
<path d="M18.8577 21.0317C19.1627 20.5201 19.3693 19.8709 19.4086 19.2315C19.4283 18.8183 19.3398 18.3855 19.143 17.9822C18.8282 17.3428 18.297 16.9886 17.7757 16.6345C17.392 16.3787 17.028 16.1328 16.7723 15.7885L16.723 15.7295C16.5755 15.5229 16.3984 15.2868 16.3689 15.0901C16.3492 14.8933 16.1623 14.7556 15.9754 14.7654C15.7689 14.7851 15.6213 14.9425 15.6213 15.1491V21.8974C15.3065 21.7006 14.913 21.5826 14.4802 21.5826C13.4374 21.5826 12.5914 22.2613 12.5914 23.0975C12.5914 23.9336 13.4374 24.6124 14.4802 24.6124C15.5229 24.6124 16.3787 23.9336 16.3787 23.0975V18.6806C16.9493 18.9068 17.874 19.4577 18.1297 20.7464C18.0805 20.8152 18.0412 20.8939 17.9822 20.9529C17.8445 21.1103 17.8641 21.3464 18.0215 21.494C18.1789 21.6317 18.415 21.612 18.5527 21.4546C18.6511 21.3366 18.7495 21.2087 18.8281 21.0611C18.838 21.0513 18.8479 21.0415 18.8577 21.0317Z" fill="white"/>
</svg>
