<svg width="32" height="32" viewBox="0 0 32 32" fill="none" xmlns="http://www.w3.org/2000/svg">
<path fill-rule="evenodd" clip-rule="evenodd" d="M8.19996 0H18.8986L27.9661 9.45128V27.8341C27.9661 30.1369 26.103 32 23.8081 32H8.19996C5.89712 32 4.03406 30.1369 4.03406 27.8341V4.1659C4.03402 1.86306 5.89708 0 8.19996 0Z" fill="#E5252A"/>
<path opacity="0.302" fill-rule="evenodd" clip-rule="evenodd" d="M18.8903 0V9.37931H27.9657L18.8903 0Z" fill="white"/>
<path d="M8.66333 23.8761V18.031H11.1501C11.7658 18.031 12.2536 18.1989 12.6214 18.5427C12.9892 18.8785 13.1731 19.3343 13.1731 19.902C13.1731 20.4697 12.9892 20.9255 12.6214 21.2614C12.2536 21.6052 11.7658 21.7731 11.1501 21.7731H10.1586V23.8761H8.66333ZM10.1586 20.5018H10.9822C11.2061 20.5018 11.382 20.4538 11.5019 20.3419C11.6219 20.2379 11.6859 20.094 11.6859 19.9021C11.6859 19.7102 11.6219 19.5663 11.5019 19.4623C11.382 19.3503 11.2061 19.3024 10.9822 19.3024H10.1586V20.5018ZM13.7888 23.8761V18.031H15.8597C16.2675 18.031 16.6513 18.0869 17.0111 18.2069C17.3709 18.3268 17.6988 18.4948 17.9866 18.7266C18.2745 18.9505 18.5064 19.2544 18.6743 19.6382C18.8342 20.022 18.9222 20.4618 18.9222 20.9575C18.9222 21.4453 18.8343 21.8851 18.6743 22.2688C18.5064 22.6527 18.2745 22.9565 17.9866 23.1804C17.6988 23.4123 17.3709 23.5802 17.0111 23.7001C16.6513 23.8201 16.2675 23.8761 15.8597 23.8761H13.7888ZM15.252 22.6047H15.6838C15.9157 22.6047 16.1316 22.5807 16.3315 22.5247C16.5234 22.4688 16.7073 22.3808 16.8832 22.2609C17.0511 22.141 17.1871 21.973 17.283 21.7491C17.379 21.5253 17.4269 21.2614 17.4269 20.9575C17.4269 20.6457 17.379 20.3818 17.283 20.1579C17.1871 19.9341 17.0511 19.7662 16.8832 19.6462C16.7073 19.5263 16.5234 19.4383 16.3315 19.3823C16.1316 19.3264 15.9157 19.3024 15.6838 19.3024H15.252V22.6047ZM19.6738 23.8761V18.031H23.8318V19.3024H21.1691V20.2379H23.296V21.5012H21.1691V23.8761H19.6738Z" fill="white"/>
</svg>
