<svg width="32" height="32" viewBox="0 0 32 32" fill="none" xmlns="http://www.w3.org/2000/svg">
<path fill-rule="evenodd" clip-rule="evenodd" d="M8.19954 0H18.9023L27.9678 9.45791V27.8326C27.9678 30.1328 26.1006 32 23.8004 32H8.19954C5.89933 32 4.0321 30.1328 4.0321 27.8326V4.16744C4.0321 1.86723 5.89933 0 8.19954 0Z" fill="#7542ED"/>
<path opacity="0.302" fill-rule="evenodd" clip-rule="evenodd" d="M18.8887 0V9.37673H27.9677L18.8887 0Z" fill="white"/>
<path d="M11.0544 22.9615C10.9732 22.9209 10.892 22.8803 10.8379 22.8127L8.24008 20.2148C8.17244 20.1607 8.13184 20.0795 8.09125 19.9983C8.0642 19.9172 8.03711 19.836 8.03711 19.7413C8.03711 19.6466 8.06416 19.5654 8.09125 19.4842C8.13184 19.403 8.17244 19.3218 8.24008 19.2677L10.8379 16.6699C10.8921 16.6022 10.9733 16.5616 11.0544 16.521C11.1356 16.494 11.2168 16.4669 11.3115 16.4669C11.5009 16.4669 11.6633 16.5481 11.7851 16.6699C11.9204 16.7917 11.988 16.9675 11.988 17.1434C11.988 17.2382 11.9745 17.3193 11.9339 17.4141C11.9068 17.4952 11.8527 17.5629 11.7851 17.6305L9.67428 19.7413L11.7851 21.8521C11.8527 21.9198 11.9068 21.9874 11.9339 22.0686C11.9745 22.1633 11.988 22.2445 11.988 22.3392C11.988 22.5151 11.9204 22.691 11.7851 22.8128C11.6633 22.9346 11.5009 23.0157 11.3115 23.0157C11.2168 23.0157 11.1356 22.9886 11.0544 22.9615ZM14.7483 18.4964C14.6265 18.6182 14.4507 18.6858 14.2747 18.6858C14.0853 18.6858 13.9094 18.6182 13.7876 18.4964C13.6658 18.3746 13.5982 18.1988 13.5982 18.0093C13.5982 17.3463 13.8553 16.751 14.3018 16.318C14.7348 15.8715 15.3301 15.6144 15.9931 15.6144C16.6561 15.6144 17.265 15.8715 17.698 16.318C18.131 16.751 18.4016 17.3463 18.4016 18.0093C18.4016 18.5912 18.1986 19.1189 17.8604 19.5383C17.5627 19.9037 17.1568 20.1878 16.6697 20.3231V21.4732C16.6697 21.6491 16.602 21.825 16.4803 21.9468C16.3585 22.0686 16.1826 22.1498 15.9931 22.1498C15.8173 22.1498 15.6413 22.0686 15.5196 21.9468C15.3978 21.825 15.3166 21.6491 15.3166 21.4732V19.7413C15.3166 19.5519 15.3978 19.3895 15.5196 19.2677C15.6413 19.1459 15.8172 19.0647 15.9931 19.0647C16.2908 19.0647 16.5479 18.943 16.7373 18.7535C16.9268 18.5641 17.0485 18.307 17.0485 18.0093C17.0485 17.7252 16.9268 17.4546 16.7373 17.2651C16.5479 17.0757 16.2908 16.9675 15.9931 16.9675C15.709 16.9675 15.4384 17.0757 15.2489 17.2651C15.0595 17.4546 14.9513 17.7252 14.9513 18.0093C14.9513 18.1987 14.8701 18.3746 14.7483 18.4964ZM16.4802 22.718C16.602 22.8397 16.6696 23.0156 16.6696 23.1915C16.6696 23.381 16.602 23.5569 16.4802 23.6786C16.3584 23.8004 16.1826 23.868 15.9931 23.868C15.8172 23.868 15.6413 23.8004 15.5195 23.6786C15.3977 23.5568 15.3166 23.381 15.3166 23.1915C15.3166 23.0157 15.3977 22.8397 15.5195 22.718C15.6413 22.5962 15.8172 22.515 15.9931 22.515C16.1826 22.515 16.3584 22.5962 16.4802 22.718ZM20.4312 22.9615C20.3365 22.9209 20.2688 22.8803 20.2012 22.8127C20.147 22.745 20.0929 22.6774 20.0523 22.5962C20.0253 22.515 20.0117 22.4203 20.0117 22.3392C20.0117 22.2444 20.0253 22.1497 20.0523 22.0685C20.0929 21.9874 20.1471 21.9197 20.2012 21.8521L22.312 19.7413L20.2012 17.6305C20.147 17.5628 20.0929 17.4952 20.0523 17.414C20.0253 17.3328 20.0117 17.2381 20.0117 17.1434C20.0117 16.9675 20.0794 16.7916 20.2012 16.6698C20.323 16.548 20.4988 16.4669 20.6883 16.4669C20.7695 16.4669 20.8642 16.4939 20.9454 16.521C21.0266 16.5616 21.1077 16.6022 21.1618 16.6698L23.7597 19.2677C23.8138 19.3218 23.8679 19.403 23.895 19.4842C23.9356 19.5654 23.9491 19.6465 23.9491 19.7412C23.9491 19.8359 23.9356 19.9171 23.9085 19.9983C23.8679 20.0795 23.8138 20.1607 23.7597 20.2148L21.1618 22.8127C21.1077 22.8803 21.0265 22.9209 20.9454 22.9615C20.8642 22.9885 20.7694 23.0156 20.6883 23.0156C20.5936 23.0157 20.5124 22.9886 20.4312 22.9615Z" fill="white"/>
</svg>
