<svg width="32" height="32" viewBox="0 0 32 32" fill="none" xmlns="http://www.w3.org/2000/svg">
<path fill-rule="evenodd" clip-rule="evenodd" d="M8.19996 0H18.8986L27.9661 9.45128V27.8341C27.9661 30.1369 26.103 32 23.8081 32H8.19996C5.89712 32 4.03406 30.1369 4.03406 27.8341V4.1659C4.03402 1.86306 5.89708 0 8.19996 0Z" fill="#FA0000"/>
<path opacity="0.302" fill-rule="evenodd" clip-rule="evenodd" d="M18.8905 0V9.37931H27.966L18.8905 0Z" fill="white"/>
<path d="M16.004 14.5208C13.1494 14.5208 10.8306 16.8396 10.8306 19.6942C10.8306 22.5488 13.1494 24.8596 16.004 24.8596C18.8586 24.8596 21.1694 22.5487 21.1694 19.6941C21.1694 16.8396 18.8506 14.5287 16.004 14.5208ZM18.1789 19.8541C18.1389 19.9261 18.083 19.982 18.011 20.022L15.0605 21.5012C14.8765 21.5892 14.6527 21.5173 14.5647 21.3333C14.5328 21.2853 14.5247 21.2294 14.5247 21.1654V18.2149C14.5247 18.007 14.6927 17.8471 14.8926 17.8471C14.9485 17.8471 15.0045 17.8551 15.0605 17.8871L18.011 19.3583C18.1949 19.4543 18.2668 19.6702 18.1789 19.8541Z" fill="white"/>
</svg>
