<svg width="32" height="32" viewBox="0 0 32 32" fill="none" xmlns="http://www.w3.org/2000/svg">
<path fill-rule="evenodd" clip-rule="evenodd" d="M8.17 0H18.87L27.94 9.46V27.83C27.94 30.13 26.07 32 23.77 32H8.17C5.87 32 4 30.13 4 27.83V4.17C4 1.87 5.87 0 8.17 0Z" fill="#0AC963"/>
<g opacity="0.3">
<path fill-rule="evenodd" clip-rule="evenodd" d="M18.86 0V9.38H27.94L18.86 0Z" fill="white"/>
</g>
<path d="M10.79 20.13H29.68V26.06C29.68 26.96 28.95 27.68 28.06 27.68H10.79C9.89004 27.68 9.17004 26.95 9.17004 26.06V21.76C9.17004 20.86 9.90004 20.14 10.79 20.14V20.13Z" fill="white"/>
<path d="M12.01 26.64V21.24H14.24C14.64 21.24 14.99 21.32 15.29 21.48C15.58 21.64 15.81 21.86 15.97 22.14C16.13 22.42 16.21 22.75 16.21 23.12C16.21 23.49 16.13 23.82 15.97 24.1C15.81 24.38 15.58 24.59 15.28 24.75C14.98 24.9 14.62 24.98 14.21 24.98H12.83V23.95H13.96C14.16 23.95 14.32 23.92 14.45 23.85C14.58 23.78 14.68 23.69 14.75 23.56C14.82 23.44 14.85 23.29 14.85 23.13C14.85 22.97 14.82 22.82 14.75 22.7C14.68 22.58 14.58 22.48 14.45 22.42C14.32 22.35 14.15 22.32 13.96 22.32H13.32V26.67H12.02L12.01 26.64Z" fill="#0AC963"/>
<path d="M21.3 21.24V26.64H20.19L18.04 23.52H18.01V26.64H16.71V21.24H17.83L19.95 24.35H19.99V21.24H21.29H21.3Z" fill="#0AC963"/>
<path d="M25.51 23C25.48 22.89 25.44 22.79 25.38 22.71C25.32 22.62 25.25 22.55 25.17 22.49C25.09 22.43 24.99 22.39 24.88 22.35C24.77 22.32 24.65 22.3 24.52 22.3C24.26 22.3 24.03 22.36 23.84 22.49C23.65 22.62 23.5 22.8 23.4 23.04C23.3 23.28 23.24 23.57 23.24 23.92C23.24 24.27 23.29 24.56 23.39 24.81C23.49 25.05 23.64 25.24 23.83 25.37C24.02 25.5 24.25 25.56 24.52 25.56C24.76 25.56 24.96 25.52 25.13 25.44C25.3 25.36 25.42 25.25 25.51 25.11C25.6 24.97 25.64 24.8 25.64 24.6L25.88 24.63H24.57V23.68H26.9V24.39C26.9 24.87 26.8 25.29 26.59 25.63C26.39 25.97 26.1 26.24 25.75 26.42C25.39 26.6 24.98 26.7 24.52 26.7C24 26.7 23.55 26.59 23.16 26.37C22.77 26.15 22.47 25.83 22.25 25.41C22.03 24.99 21.92 24.5 21.92 23.94C21.92 23.5 21.99 23.1 22.12 22.76C22.25 22.42 22.44 22.13 22.67 21.89C22.91 21.65 23.18 21.47 23.49 21.35C23.8 21.23 24.14 21.17 24.5 21.17C24.81 21.17 25.1 21.21 25.37 21.3C25.64 21.39 25.88 21.52 26.09 21.68C26.3 21.84 26.47 22.04 26.6 22.26C26.73 22.48 26.81 22.73 26.84 23H25.52H25.51Z" fill="#0AC963"/>
<path fill-rule="evenodd" clip-rule="evenodd" d="M29.6799 20.13L27.9399 19.17V20.13H29.6799Z" fill="white"/>
</svg>
