<svg width="32" height="32" viewBox="0 0 32 32" fill="none" xmlns="http://www.w3.org/2000/svg">
<path fill-rule="evenodd" clip-rule="evenodd" d="M8.19429 0H18.897L27.9668 9.45343V27.8389C27.9668 30.131 26.0977 32 23.8057 32H8.19429C5.89242 32 4.0332 30.131 4.0332 27.8389V4.16109C4.0332 1.85922 5.89242 0 8.19429 0Z" fill="#E03303"/>
<path opacity="0.302" fill-rule="evenodd" clip-rule="evenodd" d="M18.8872 0V9.37475H27.9668L18.8872 0Z" fill="white"/>
<path d="M15.6016 15.8672C13.2014 15.9853 11.293 17.9822 11.3225 20.412C11.3618 22.8319 13.3292 24.8091 15.7492 24.8387C18.1888 24.878 20.1857 22.9696 20.2939 20.5694C20.3037 20.4513 20.2053 20.3529 20.0873 20.3529H16.0246C15.9065 20.3529 15.8082 20.2546 15.8082 20.1464V16.0738C15.8082 15.9557 15.7197 15.8672 15.6016 15.8672ZM16.6837 15.2081V19.2708C16.6837 19.3889 16.7722 19.4774 16.8902 19.4774H20.9628C21.0808 19.4774 21.1694 19.379 21.1694 19.261C21.0612 16.9591 19.2118 15.1097 16.9001 15.0015C16.782 14.9917 16.6837 15.0901 16.6837 15.2081Z" fill="white"/>
</svg>
