<svg width="32" height="32" viewBox="0 0 32 32" fill="none" xmlns="http://www.w3.org/2000/svg">
<path fill-rule="evenodd" clip-rule="evenodd" d="M8.19996 0H18.8986L27.9661 9.45128V27.8341C27.9661 30.1369 26.103 32 23.8081 32H8.19996C5.89712 32 4.03406 30.1369 4.03406 27.8341V4.1659C4.03402 1.86306 5.89708 0 8.19996 0Z" fill="#E03303"/>
<path opacity="0.302" fill-rule="evenodd" clip-rule="evenodd" d="M18.8906 0V9.37931H27.9661L18.8906 0Z" fill="white"/>
<path d="M9.06348 22.8926V17.0795H11.5342C12.1419 17.0795 12.6297 17.2474 12.9975 17.5912C13.3573 17.927 13.5412 18.3748 13.5412 18.9425C13.5412 19.5023 13.3573 19.958 12.9975 20.2938C12.6297 20.6297 12.1419 20.7976 11.5342 20.7976H10.5427V22.8926H9.06348ZM10.5428 19.5342H11.3664C11.5902 19.5342 11.7581 19.4862 11.8861 19.3823C12.006 19.2783 12.062 19.1264 12.062 18.9425C12.062 18.7506 12.0061 18.6067 11.8861 18.5027C11.7582 18.3988 11.5903 18.3428 11.3664 18.3428H10.5428V19.5342ZM14.1649 22.8926V17.0795H16.6357C17.2434 17.0795 17.7311 17.2474 18.099 17.5912C18.4668 17.927 18.6427 18.3748 18.6427 18.9425C18.6427 19.5023 18.4668 19.958 18.099 20.2938C17.7311 20.6297 17.2434 20.7976 16.6357 20.7976H15.6522V22.8926H14.1649ZM15.6522 19.5342H16.4678C16.6916 19.5342 16.8676 19.4862 16.9875 19.3823C17.1074 19.2783 17.1715 19.1264 17.1715 18.9425C17.1715 18.7506 17.1075 18.6067 16.9875 18.5027C16.8676 18.3988 16.6917 18.3428 16.4678 18.3428H15.6522V19.5342ZM20.7776 22.8926V18.3428H19.1225V17.0795H23.9281V18.3428H22.2649V22.8926H20.7776Z" fill="white"/>
</svg>
