<svg width="32" height="32" viewBox="0 0 32 32" fill="none" xmlns="http://www.w3.org/2000/svg">
<path d="M8.19238 0.25H18.7955L27.7185 9.55462V27.8392C27.7185 29.9967 25.9657 31.75 23.8016 31.75H8.19242C6.03465 31.75 4.28162 29.997 4.28162 27.8392V4.16081C4.28158 2.00303 6.03461 0.25 8.19238 0.25Z" fill="#001E36" stroke="#31A8FF" stroke-width="0.5"/>
<path fill-rule="evenodd" clip-rule="evenodd" d="M12.9933 23.6722V21.2718C13.1226 21.2841 13.2703 21.2903 13.4365 21.2903C14.4459 21.2903 15.2584 21.0256 15.7877 20.5209C16.2247 20.1085 16.4648 19.4869 16.4648 18.779C16.4648 18.0958 16.1817 17.4741 15.6769 17.0741C15.1845 16.6801 14.4644 16.4893 13.4673 16.4893C12.6056 16.4893 11.8793 16.5386 11.3007 16.6371C11.2576 16.6494 11.2207 16.6863 11.2207 16.7356V23.6723C11.2207 23.7277 11.2638 23.7708 11.3192 23.7708H12.8949C12.9502 23.7707 12.9933 23.7276 12.9933 23.6722ZM19.3207 20.4593C18.6744 20.2316 18.5636 20.1269 18.5636 19.9669C18.5636 19.6899 18.8836 19.653 19.0683 19.653C19.4745 19.653 19.8931 19.8007 20.127 19.9299C20.1577 19.9422 20.1885 19.9484 20.2131 19.9361C20.2439 19.9238 20.2624 19.8992 20.2685 19.8684L20.5517 18.7728C20.564 18.7297 20.5455 18.6805 20.5024 18.662C20.207 18.5143 19.6653 18.3604 19.019 18.3604C17.7388 18.3604 16.8463 19.0867 16.8463 20.1269C16.834 20.6316 17.0925 21.3271 18.3605 21.7518C18.9759 21.9611 19.0437 22.0658 19.0437 22.2443C19.0437 22.3243 19.0437 22.5767 18.4651 22.5767C18.0281 22.5767 17.4433 22.3797 17.1479 22.2012C17.1233 22.1889 17.0925 22.1827 17.0617 22.1951C17.031 22.2074 17.0125 22.232 17.0063 22.2628L16.7232 23.4015C16.7109 23.4446 16.7293 23.4876 16.7724 23.5123C17.2033 23.74 17.8188 23.8754 18.4651 23.8754C19.8869 23.8754 20.7732 23.2045 20.7732 22.1274C20.761 21.3149 20.3178 20.804 19.3207 20.4593ZM12.9933 19.85V17.9296C13.0918 17.9111 13.2703 17.8865 13.5534 17.8865C14.2797 17.8865 14.6983 18.2312 14.6983 18.8221C14.6983 19.4807 14.2243 19.8746 13.4242 19.8746C13.2334 19.8746 13.098 19.8623 12.9933 19.85Z" fill="#31A8FF"/>
<path fill-rule="evenodd" clip-rule="evenodd" d="M18.8899 0V9.38028H27.9686L18.8899 0Z" fill="#31A8FF"/>
</svg>
