<svg width="32" height="32" viewBox="0 0 32 32" fill="none" xmlns="http://www.w3.org/2000/svg">
<path fill-rule="evenodd" clip-rule="evenodd" d="M8.19676 0H18.9037L27.9671 9.45593V27.8372C27.9671 30.1365 26.1035 32 23.8043 32H8.19676C5.89748 32 4.03394 30.1364 4.03394 27.8372V4.16283C4.03394 1.86359 5.89748 0 8.19676 0Z" fill="#FA0000"/>
<path opacity="0.302" fill-rule="evenodd" clip-rule="evenodd" d="M18.8907 0V9.37826H27.9671L18.8907 0Z" fill="white"/>
<path d="M19.1496 19.8523C19.1496 19.6582 19.0029 19.5072 18.8045 19.5072C18.6061 19.5072 18.4551 19.6582 18.4551 19.8523C18.4551 21.2111 17.3551 22.3111 16.0005 22.3111C14.646 22.3111 13.5459 21.2111 13.5459 19.8523C13.5459 19.6582 13.395 19.5072 13.1965 19.5072C13.0024 19.5072 12.8514 19.6582 12.8514 19.8523C12.8514 21.4657 14.055 22.8202 15.6554 22.9927V23.9202H14.3914C14.193 23.9202 14.042 24.0712 14.042 24.2653C14.042 24.4638 14.193 24.6147 14.3914 24.6147H17.6095C17.808 24.6147 17.959 24.4638 17.959 24.2653C17.959 24.0712 17.808 23.9202 17.6095 23.9202H16.3499V22.9927C17.946 22.8202 19.1496 21.4656 19.1496 19.8523ZM16.0005 14.7705C14.935 14.7705 14.0679 15.6376 14.0679 16.7031V19.8436C14.0679 20.9178 14.9349 21.7762 16.0005 21.7892C17.066 21.7892 17.9374 20.9178 17.9374 19.8523V16.7032C17.9374 15.6376 17.066 14.7705 16.0005 14.7705Z" fill="white"/>
</svg>
