<svg width="32" height="32" viewBox="0 0 32 32" fill="none" xmlns="http://www.w3.org/2000/svg">
<path fill-rule="evenodd" clip-rule="evenodd" d="M8.19996 0H18.8986L27.9661 9.45128V27.8341C27.9661 30.1369 26.103 32 23.8081 32H8.19996C5.89712 32 4.03406 30.1369 4.03406 27.8341V4.1659C4.03402 1.86306 5.89708 0 8.19996 0Z" fill="#FF9100"/>
<path opacity="0.302" fill-rule="evenodd" clip-rule="evenodd" d="M18.8904 0V9.37931H27.9658L18.8904 0Z" fill="white"/>
<path d="M10.3586 23.3083C9.76688 23.3083 9.25513 23.1324 8.81535 22.7726C8.37557 22.4128 8.13569 21.965 8.0957 21.4453L9.37505 21.0695C9.40703 21.3573 9.51899 21.5972 9.72689 21.7811C9.92678 21.973 10.1667 22.061 10.4226 22.061C10.6385 22.061 10.8143 22.021 10.9423 21.925C11.0782 21.8291 11.1422 21.7012 11.1422 21.5492C11.1422 21.4213 11.0942 21.3174 10.9903 21.2294C10.8783 21.1414 10.7424 21.0695 10.5745 21.0135C10.4065 20.9575 10.2226 20.9015 10.0147 20.8456C9.80682 20.7896 9.59892 20.7176 9.39102 20.6296C9.19113 20.5417 8.99924 20.4378 8.83128 20.3098C8.66337 20.1899 8.52744 20.0219 8.42349 19.8061C8.31953 19.5822 8.26358 19.3263 8.26358 19.0385C8.26358 18.5587 8.47148 18.1589 8.87127 17.847C9.27906 17.5272 9.7748 17.3673 10.3505 17.3673C10.9182 17.3673 11.414 17.5032 11.8378 17.7831C12.2616 18.063 12.5254 18.4228 12.6294 18.8705L11.302 19.4223C11.2381 19.1744 11.1261 18.9825 10.9662 18.8305C10.7983 18.6866 10.5904 18.6146 10.3505 18.6146C10.1586 18.6146 10.0147 18.6466 9.90273 18.7266C9.79878 18.7986 9.74282 18.9025 9.74282 19.0304C9.74282 19.1504 9.81479 19.2464 9.95872 19.3263C10.1027 19.4063 10.2786 19.4622 10.4944 19.4942C10.7104 19.5342 10.9342 19.5901 11.1901 19.6781C11.438 19.7581 11.6699 19.862 11.8778 19.982C12.0937 20.1019 12.2696 20.2938 12.4135 20.5577C12.5574 20.8215 12.6294 21.1414 12.6294 21.5092C12.6294 22.0449 12.4215 22.4767 12.0057 22.8126C11.59 23.1404 11.0383 23.3083 10.3586 23.3083ZM19.1462 23.0525L18.2347 23.8761L17.451 23.0365C17.0352 23.2204 16.5955 23.3084 16.1237 23.3084C15.2522 23.3084 14.5245 23.0285 13.9568 22.4608C13.3811 21.9011 13.0932 21.1894 13.0932 20.3419C13.0932 19.4863 13.3811 18.7746 13.9568 18.2149C14.5245 17.6472 15.2522 17.3674 16.1237 17.3674C16.9873 17.3674 17.7069 17.6472 18.2746 18.2149C18.8423 18.7747 19.1302 19.4863 19.1302 20.3419C19.1302 21.0935 18.8983 21.7412 18.4426 22.2849L19.1462 23.0525ZM16.1157 22.045C16.2357 22.045 16.3636 22.037 16.4916 22.005L15.644 21.0934L16.5715 20.2618L17.4511 21.2214C17.587 20.9415 17.651 20.6457 17.651 20.3418C17.651 19.8461 17.507 19.4383 17.2192 19.1104C16.9313 18.7906 16.5635 18.6307 16.1157 18.6307C15.668 18.6307 15.3001 18.7906 15.0043 19.1104C14.7164 19.4382 14.5725 19.846 14.5725 20.3418C14.5725 20.8296 14.7165 21.2374 15.0043 21.5652C15.3001 21.8851 15.668 22.045 16.1157 22.045ZM19.8899 23.2444V17.4313H21.3771V21.981H23.9039V23.2444H19.8899Z" fill="white"/>
</svg>
