<svg width="32" height="32" viewBox="0 0 32 32" fill="none" xmlns="http://www.w3.org/2000/svg">
<path fill-rule="evenodd" clip-rule="evenodd" d="M8.19676 0H18.9037L27.9671 9.45593V27.8372C27.9671 30.1365 26.1035 32 23.8043 32H8.19676C5.89748 32 4.03394 30.1364 4.03394 27.8372V4.16283C4.03394 1.86359 5.89748 0 8.19676 0Z" fill="#FF6600"/>
<path opacity="0.302" fill-rule="evenodd" clip-rule="evenodd" d="M18.8907 0V9.37826H27.9671L18.8907 0Z" fill="white"/>
<path d="M10.358 22.3974C9.77565 22.3974 9.26233 22.2206 8.82663 21.8625C8.39094 21.5044 8.15368 21.0645 8.11487 20.5425L9.38314 20.1715C9.41334 20.4562 9.5255 20.6935 9.73255 20.8832C9.93531 21.0687 10.1639 21.1636 10.4228 21.1636C10.6385 21.1636 10.811 21.1162 10.9447 21.0213C11.0742 20.9264 11.1432 20.8056 11.1432 20.6503C11.1432 20.5252 11.0871 20.4173 10.9836 20.3267C10.88 20.2405 10.742 20.1671 10.5781 20.1154C10.4098 20.0593 10.22 20.0032 10.0173 19.9471C9.81022 19.8954 9.60313 19.822 9.4004 19.7357C9.19763 19.6451 9.01217 19.5416 8.84394 19.4208C8.6757 19.3001 8.53766 19.1318 8.43412 18.9118C8.33057 18.6961 8.27882 18.4416 8.27882 18.1482C8.27882 17.678 8.48159 17.2812 8.88275 16.9662C9.28824 16.6513 9.77573 16.4917 10.3495 16.4917C10.9146 16.4917 11.4107 16.6298 11.8291 16.9059C12.2519 17.1777 12.515 17.54 12.6185 17.9843L11.2985 18.5365C11.2381 18.2906 11.126 18.0922 10.9577 17.9498C10.7938 17.8031 10.591 17.7298 10.3495 17.7298C10.164 17.7298 10.0173 17.7644 9.90944 17.842C9.80161 17.9153 9.74553 18.0146 9.74553 18.1397C9.74553 18.2648 9.81887 18.364 9.96123 18.4373C10.1036 18.515 10.2804 18.5711 10.4918 18.6099C10.7032 18.6444 10.9361 18.7048 11.182 18.7867C11.4322 18.8687 11.6609 18.9679 11.8722 19.093C12.0836 19.2138 12.2605 19.4036 12.4028 19.6624C12.5452 19.9256 12.6185 20.2405 12.6185 20.6072C12.6185 21.1421 12.4115 21.5735 11.9973 21.9056C11.5788 22.2335 11.0353 22.3974 10.358 22.3974ZM14.7452 22.3327L12.7091 16.5565H14.2103L15.4397 20.5511L16.6864 16.5565H18.179L16.1429 22.3327H14.7452ZM21.052 22.3974C20.2539 22.3974 19.5767 22.1386 19.0159 21.6253C18.4594 21.1076 18.179 20.3829 18.179 19.4468C18.179 18.8126 18.3213 18.2691 18.6103 17.8118C18.8951 17.3546 19.2574 17.0224 19.7017 16.811C20.146 16.5996 20.6335 16.4918 21.1728 16.4918C21.9234 16.4918 22.5359 16.6687 23.0104 17.0224C23.4849 17.3805 23.7783 17.8765 23.8905 18.515L22.4367 18.8083C22.3763 18.4848 22.2296 18.2259 21.9967 18.0362C21.7638 17.842 21.4833 17.7471 21.1598 17.7471C20.7068 17.7471 20.3445 17.8981 20.0641 18.2044C19.788 18.5107 19.6456 18.9248 19.6456 19.4468C19.6456 19.9688 19.7837 20.3829 20.0598 20.6892C20.3359 20.9912 20.6939 21.1465 21.1339 21.1465C21.4704 21.1465 21.7508 21.0689 21.9838 20.9092C22.2124 20.7539 22.3505 20.5469 22.3936 20.2967H20.97V19.1405H23.7568V22.3327H22.4109V21.8237C22.2987 21.9962 22.1132 22.1386 21.8673 22.2421C21.6215 22.3456 21.3496 22.3974 21.052 22.3974Z" fill="white"/>
</svg>
