<svg width="32" height="32" viewBox="0 0 32 32" fill="none" xmlns="http://www.w3.org/2000/svg">
<path fill-rule="evenodd" clip-rule="evenodd" d="M8.17 0H18.87L27.94 9.46V27.83C27.94 30.13 26.07 32 23.77 32H8.17C5.87 32 4 30.13 4 27.83V4.17C4 1.87 5.87 0 8.17 0Z" fill="#0AC963"/>
<g opacity="0.3">
<path fill-rule="evenodd" clip-rule="evenodd" d="M18.86 0V9.38H27.94L18.86 0Z" fill="white"/>
</g>
<path d="M10.67 20.13H29.69V26.06C29.69 26.96 28.96 27.68 28.07 27.68H10.67C9.77005 27.68 9.05005 26.95 9.05005 26.06V21.76C9.05005 20.86 9.78005 20.14 10.67 20.14V20.13Z" fill="white"/>
<path d="M14.84 22.86C14.82 22.67 14.74 22.52 14.61 22.41C14.47 22.3 14.28 22.25 14.02 22.25C13.85 22.25 13.71 22.27 13.6 22.32C13.49 22.37 13.4 22.42 13.35 22.5C13.29 22.58 13.26 22.66 13.26 22.76C13.26 22.84 13.27 22.91 13.31 22.97C13.35 23.03 13.4 23.09 13.47 23.13C13.54 23.18 13.62 23.22 13.72 23.25C13.82 23.28 13.93 23.32 14.05 23.34L14.51 23.45C14.78 23.51 15.01 23.59 15.22 23.68C15.43 23.78 15.6 23.89 15.74 24.03C15.88 24.16 15.99 24.32 16.06 24.49C16.13 24.66 16.17 24.86 16.17 25.08C16.17 25.42 16.08 25.71 15.91 25.96C15.74 26.2 15.49 26.39 15.18 26.52C14.87 26.65 14.48 26.71 14.03 26.71C13.58 26.71 13.18 26.64 12.85 26.51C12.51 26.37 12.25 26.17 12.07 25.89C11.88 25.61 11.79 25.27 11.78 24.84H13.03C13.04 25.01 13.09 25.16 13.17 25.27C13.25 25.39 13.37 25.47 13.51 25.53C13.66 25.59 13.82 25.62 14.01 25.62C14.19 25.62 14.34 25.6 14.46 25.55C14.58 25.5 14.68 25.44 14.75 25.35C14.82 25.27 14.85 25.17 14.85 25.06C14.85 24.96 14.82 24.87 14.76 24.8C14.7 24.73 14.6 24.66 14.48 24.61C14.35 24.56 14.19 24.51 13.99 24.46L13.43 24.33C12.96 24.22 12.59 24.05 12.33 23.81C12.06 23.57 11.93 23.25 11.93 22.84C11.93 22.51 12.02 22.21 12.2 21.96C12.38 21.71 12.63 21.51 12.95 21.37C13.27 21.23 13.63 21.16 14.04 21.16C14.45 21.16 14.82 21.23 15.13 21.37C15.44 21.51 15.68 21.71 15.85 21.96C16.02 22.21 16.11 22.51 16.11 22.85H14.86L14.84 22.86Z" fill="#0AC963"/>
<path d="M17.9001 21.24L19.1101 25.19H19.1501L20.3601 21.24H21.8201L20.0001 26.64H18.2601L16.4401 21.24H17.9001Z" fill="#0AC963"/>
<path d="M25.47 23C25.44 22.89 25.4 22.79 25.34 22.71C25.28 22.62 25.21 22.55 25.13 22.49C25.05 22.43 24.95 22.39 24.84 22.35C24.73 22.32 24.61 22.3 24.48 22.3C24.22 22.3 23.99 22.36 23.8 22.49C23.61 22.62 23.46 22.8 23.36 23.04C23.26 23.28 23.2 23.57 23.2 23.92C23.2 24.27 23.25 24.56 23.35 24.81C23.45 25.05 23.6 25.24 23.79 25.37C23.98 25.5 24.21 25.56 24.48 25.56C24.72 25.56 24.92 25.52 25.09 25.44C25.26 25.36 25.38 25.25 25.47 25.11C25.56 24.97 25.6 24.8 25.6 24.6L25.84 24.63H24.53V23.68H26.86V24.39C26.86 24.87 26.76 25.29 26.55 25.63C26.35 25.97 26.06 26.24 25.71 26.42C25.35 26.6 24.94 26.7 24.48 26.7C23.96 26.7 23.51 26.59 23.12 26.37C22.73 26.15 22.43 25.83 22.21 25.41C21.99 24.99 21.88 24.5 21.88 23.94C21.88 23.5 21.95 23.1 22.08 22.76C22.21 22.42 22.4 22.13 22.63 21.89C22.87 21.65 23.14 21.47 23.45 21.35C23.76 21.23 24.1 21.17 24.46 21.17C24.77 21.17 25.06 21.21 25.33 21.3C25.6 21.39 25.84 21.52 26.05 21.68C26.26 21.84 26.43 22.04 26.56 22.26C26.69 22.48 26.77 22.73 26.8 23H25.48H25.47Z" fill="#0AC963"/>
<path fill-rule="evenodd" clip-rule="evenodd" d="M29.6799 20.13L27.9399 19.17V20.13H29.6799Z" fill="white"/>
</svg>
