<svg width="32" height="32" viewBox="0 0 32 32" fill="none" xmlns="http://www.w3.org/2000/svg">
<path d="M8.19429 0.25H18.7904L27.7168 9.55396V27.8389C27.7168 29.9929 25.9597 31.75 23.8057 31.75H8.19429C6.03088 31.75 4.2832 29.9933 4.2832 27.8389V4.16109C4.2832 1.99729 6.0305 0.25 8.19429 0.25Z" fill="#251D36" stroke="#455468" stroke-width="0.5"/>
<path opacity="0.302" fill-rule="evenodd" clip-rule="evenodd" d="M18.8872 0V9.37475H27.9668L18.8872 0Z" fill="white"/>
<path d="M20.2152 20.8644H11.7848C11.3913 20.8644 11.0765 21.1792 11.0765 21.5727C11.0765 21.9564 11.3913 22.2712 11.7848 22.2712H20.2152C20.6087 22.2712 20.9235 21.9564 20.9235 21.5727C20.9235 21.1792 20.6087 20.8644 20.2152 20.8644ZM20.2152 23.6779H11.7848C11.3913 23.6779 11.0765 23.9927 11.0765 24.3861C11.0765 24.7698 11.3913 25.0846 11.7848 25.0846H20.2152C20.6087 25.0846 20.9235 24.7698 20.9235 24.3861C20.9235 23.9926 20.6087 23.6779 20.2152 23.6779ZM15.9262 15.2475H11.7848C11.3913 15.2475 11.0765 15.5524 11.0765 15.9459C11.0765 16.3394 11.3913 16.6443 11.7848 16.6443H15.9262C16.3197 16.6443 16.6345 16.3394 16.6345 15.9459C16.6345 15.5524 16.3197 15.2475 15.9262 15.2475ZM20.2152 18.051H11.7848C11.3913 18.051 11.0765 18.3658 11.0765 18.7593C11.0765 19.143 11.3913 19.4577 11.7848 19.4577H20.2152C20.6087 19.4577 20.9235 19.1429 20.9235 18.7593C20.9235 18.3658 20.6087 18.051 20.2152 18.051Z" fill="white"/>
</svg>
