<svg width="32" height="32" viewBox="0 0 32 32" fill="none" xmlns="http://www.w3.org/2000/svg">
<path d="M8.19996 0.25H18.792L27.7161 9.55182V27.8341C27.7161 29.9992 25.9646 31.75 23.8081 31.75H8.19996C6.03519 31.75 4.28406 29.9989 4.28406 27.8341V4.1659C4.28402 2.00113 6.03515 0.25 8.19996 0.25Z" fill="#0E1E31" stroke="#455468" stroke-width="0.5"/>
<path opacity="0.302" fill-rule="evenodd" clip-rule="evenodd" d="M18.8906 0V9.37931H27.9661L18.8906 0Z" fill="white"/>
<path d="M10.4628 22.3968V17.8471H8.79968V16.5917H13.6053V17.8471H11.9421V22.3968H10.4628ZM15.4843 22.3968V17.8471H13.8212V16.5917H18.6268V17.8471H16.9636V22.3968H15.4843ZM19.0666 22.3968V16.5917H23.2005V17.8471H20.5538V18.7826H22.6728V20.038H20.5538V22.3968H19.0666Z" fill="white"/>
</svg>
