<svg width="32" height="32" viewBox="0 0 32 32" fill="none" xmlns="http://www.w3.org/2000/svg">
<path d="M8.19996 0.25H18.792L27.7161 9.55182V27.8341C27.7161 29.9992 25.9646 31.75 23.8081 31.75H8.19996C6.03519 31.75 4.28406 29.9989 4.28406 27.8341V4.1659C4.28402 2.00113 6.03515 0.25 8.19996 0.25Z" fill="#251D36" stroke="#455468" stroke-width="0.5"/>
<path opacity="0.302" fill-rule="evenodd" clip-rule="evenodd" d="M18.8905 0V9.37931H27.966L18.8905 0Z" fill="white"/>
<path d="M10.0789 23.3643V18.8146H8.41577V17.5512H13.2214V18.8146H11.5662V23.3643H10.0789ZM18.6267 23.3643H17.0675L16.004 21.5812L14.9405 23.3643H13.3733L15.2204 20.2618L13.6052 17.5512H15.1644L16.004 18.9585L16.8356 17.5512H18.4028L16.7876 20.2699L18.6267 23.3643ZM20.4338 23.3643V18.8146H18.7786V17.5512H23.5842V18.8146H21.921V23.3643H20.4338Z" fill="white"/>
</svg>
