<svg width="32" height="32" viewBox="0 0 32 32" fill="none" xmlns="http://www.w3.org/2000/svg">
<path fill-rule="evenodd" clip-rule="evenodd" d="M8.19238 0H18.9022L27.9685 9.45411V27.8392C27.9685 30.135 26.1036 32 23.8016 32H8.19242C5.89658 32 4.03162 30.135 4.03162 27.8392V4.16081C4.03158 1.86496 5.89654 0 8.19238 0Z" fill="#FF6600"/>
<path opacity="0.302" fill-rule="evenodd" clip-rule="evenodd" d="M18.8895 0V9.38028H27.9682L18.8895 0Z" fill="white"/>
<path d="M21.37 21.1241H21.0191C20.9022 19.4253 19.9236 17.9234 18.5017 17.0987H19.7512C19.8927 17.4865 20.262 17.7696 20.6991 17.7696C21.253 17.7696 21.7024 17.3141 21.7024 16.7601C21.7024 16.2062 21.253 15.7507 20.6991 15.7507C20.2621 15.7507 19.8928 16.0339 19.7512 16.4216H17.0061V16.0892C17.0061 15.9046 16.8522 15.7507 16.6675 15.7507H15.3257C15.1411 15.7507 14.9933 15.9046 14.9933 16.0892V16.4216H12.2421C12.1067 16.0338 11.7373 15.7507 11.3003 15.7507C10.7464 15.7507 10.2909 16.2062 10.2909 16.7601C10.2909 17.3141 10.7464 17.7696 11.3003 17.7696C11.7373 17.7696 12.1066 17.4864 12.2421 17.0987H13.4977C12.0697 17.9234 11.091 19.4253 10.9803 21.1241H10.6294C10.4448 21.1241 10.2909 21.2718 10.2909 21.4565V22.8044C10.2909 22.9891 10.4448 23.1368 10.6294 23.1368H11.9712C12.1559 23.1368 12.3036 22.9891 12.3036 22.8044V21.4565C12.3036 21.2718 12.1559 21.1241 11.9712 21.1241H11.6635C11.8112 19.2468 13.1653 17.665 14.9934 17.2341V17.431C14.9934 17.6157 15.1411 17.7696 15.3258 17.7696H16.6676C16.8522 17.7696 17.0061 17.6157 17.0061 17.431V17.2341C18.828 17.6649 20.1821 19.2468 20.3298 21.1241H20.0282C19.8374 21.1241 19.6897 21.2718 19.6897 21.4565V22.8044C19.6897 22.9891 19.8374 23.1368 20.0282 23.1368H21.37C21.5547 23.1368 21.7024 22.9891 21.7024 22.8044V21.4565C21.7023 21.2718 21.5546 21.1241 21.37 21.1241Z" fill="white"/>
</svg>
