<svg width="32" height="32" viewBox="0 0 32 32" fill="none" xmlns="http://www.w3.org/2000/svg">
<path fill-rule="evenodd" clip-rule="evenodd" d="M8.19954 0H18.9023L27.9678 9.45791V27.8326C27.9678 30.1328 26.1006 32 23.8004 32H8.19954C5.89933 32 4.0321 30.1328 4.0321 27.8326V4.16744C4.0321 1.86723 5.89933 0 8.19954 0Z" fill="#FA0000"/>
<path opacity="0.302" fill-rule="evenodd" clip-rule="evenodd" d="M18.8888 0V9.37673H27.9679L18.8888 0Z" fill="white"/>
<path d="M21.5408 17.1298C21.4325 17.0487 21.2702 17.0487 21.1484 17.1028L18.4558 18.4558V17.4816C18.4558 16.7916 17.9146 16.2504 17.2245 16.2504H11.4875C10.811 16.2504 10.2562 16.7916 10.2562 17.4816V22.3933C10.2562 23.0833 10.811 23.6245 11.4875 23.6245H17.2245C17.9146 23.6245 18.4558 23.0833 18.4558 22.3933V21.4191L21.1484 22.7721C21.3513 22.8668 21.5949 22.7857 21.7031 22.5827C21.7302 22.5286 21.7437 22.4609 21.7437 22.3933V17.4816C21.7437 17.3328 21.6626 17.1975 21.5408 17.1298ZM14.356 21.5814C13.4495 21.5814 12.7188 20.8372 12.7188 19.9306C12.7188 19.0241 13.4495 18.2934 14.356 18.2934C15.2626 18.2934 15.9932 19.0241 15.9932 19.9306C15.9932 20.8372 15.2626 21.5814 14.356 21.5814Z" fill="white"/>
</svg>
