<svg width="32" height="32" viewBox="0 0 32 32" fill="none" xmlns="http://www.w3.org/2000/svg">
<path fill-rule="evenodd" clip-rule="evenodd" d="M8.17 0H18.87L27.94 9.46V27.83C27.94 30.13 26.07 32 23.77 32H8.17C5.87 32 4 30.13 4 27.83V4.17C4 1.87 5.87 0 8.17 0Z" fill="#FA0000"/>
<g opacity="0.3">
<path fill-rule="evenodd" clip-rule="evenodd" d="M18.86 0V9.38H27.94L18.86 0Z" fill="white"/>
</g>
<path d="M9.66004 20.13H29.69V26.06C29.69 26.96 28.96 27.68 28.07 27.68H9.66004C8.76004 27.68 8.04004 26.95 8.04004 26.06V21.76C8.04004 20.86 8.77004 20.14 9.66004 20.14V20.13Z" fill="white"/>
<path d="M11.69 26.64L10.12 21.24H11.56L12.37 24.78H12.41L13.34 21.24H14.52L15.45 24.78H15.49L16.31 21.24H17.75L16.18 26.64H14.92L13.95 23.37H13.91L12.94 26.64H11.69Z" fill="#DA3832"/>
<path d="M18.73 26.64H17.33L19.15 21.24H20.89L22.71 26.64H21.31L20.04 22.6H20L18.73 26.64ZM18.54 24.51H21.47V25.5H18.54V24.51Z" fill="#DA3832"/>
<path d="M23.6401 21.24L24.8501 25.19H24.8901L26.1001 21.24H27.5601L25.7401 26.64H24.0001L22.1801 21.24H23.6401Z" fill="#DA3832"/>
<path fill-rule="evenodd" clip-rule="evenodd" d="M29.6799 20.13L27.9399 19.17V20.13H29.6799Z" fill="white"/>
</svg>
