<svg width="32" height="32" viewBox="0 0 32 32" fill="none" xmlns="http://www.w3.org/2000/svg">
<path fill-rule="evenodd" clip-rule="evenodd" d="M8.17 0H18.87L27.94 9.46V27.83C27.94 30.13 26.07 32 23.77 32H8.17C5.87 32 4 30.13 4 27.83V4.17C4 1.87 5.87 0 8.17 0Z" fill="#0AC963"/>
<g opacity="0.3">
<path fill-rule="evenodd" clip-rule="evenodd" d="M18.86 0V9.38H27.94L18.86 0Z" fill="white"/>
</g>
<path d="M7.47999 20.13H29.68V26.06C29.68 26.96 28.95 27.68 28.06 27.68H7.47999C6.57999 27.68 5.85999 26.95 5.85999 26.06V21.76C5.85999 20.86 6.58999 20.14 7.47999 20.14V20.13Z" fill="white"/>
<path d="M8.57 26.64L7 21.24H8.44L9.25 24.78H9.29L10.22 21.24H11.4L12.33 24.78H12.37L13.19 21.24H14.63L13.06 26.64H11.8L10.83 23.37H10.79L9.82 26.64H8.57Z" fill="#0AC963"/>
<path d="M15.03 26.64V21.24H18.79V22.3H16.33V23.41H18.6V24.47H16.33V25.58H18.79V26.64H15.03Z" fill="#0AC963"/>
<path d="M19.46 26.64V21.24H21.71C22.11 21.24 22.45 21.3 22.73 21.41C23 21.52 23.21 21.68 23.35 21.89C23.49 22.1 23.56 22.33 23.56 22.6C23.56 22.81 23.52 22.99 23.43 23.15C23.34 23.31 23.23 23.44 23.07 23.55C22.92 23.66 22.74 23.73 22.55 23.77V23.82C22.77 23.83 22.97 23.89 23.15 24C23.34 24.11 23.48 24.26 23.6 24.45C23.71 24.64 23.77 24.87 23.77 25.13C23.77 25.42 23.7 25.68 23.55 25.91C23.4 26.14 23.19 26.32 22.91 26.45C22.63 26.58 22.29 26.65 21.89 26.65H19.47L19.46 26.64ZM20.76 23.46H21.48C21.62 23.46 21.75 23.44 21.86 23.39C21.97 23.34 22.06 23.27 22.12 23.18C22.18 23.09 22.21 22.98 22.21 22.86C22.21 22.68 22.15 22.54 22.02 22.43C21.89 22.33 21.72 22.27 21.5 22.27H20.76V23.45V23.46ZM20.76 25.58H21.57C21.85 25.58 22.06 25.53 22.2 25.42C22.33 25.31 22.4 25.16 22.4 24.97C22.4 24.83 22.37 24.71 22.3 24.61C22.23 24.51 22.14 24.43 22.02 24.38C21.9 24.32 21.76 24.3 21.59 24.3H20.76V25.59V25.58Z" fill="#0AC963"/>
<path d="M24.24 26.64V21.24H26.47C26.87 21.24 27.22 21.32 27.52 21.48C27.81 21.64 28.04 21.86 28.2 22.14C28.36 22.42 28.44 22.75 28.44 23.12C28.44 23.49 28.36 23.82 28.2 24.1C28.04 24.38 27.81 24.59 27.51 24.75C27.21 24.9 26.85 24.98 26.44 24.98H25.06V23.95H26.19C26.39 23.95 26.55 23.92 26.68 23.85C26.81 23.78 26.91 23.69 26.98 23.56C27.05 23.44 27.08 23.29 27.08 23.13C27.08 22.97 27.05 22.82 26.98 22.7C26.91 22.58 26.81 22.48 26.68 22.42C26.55 22.35 26.38 22.32 26.19 22.32H25.55V26.67H24.25L24.24 26.64Z" fill="#0AC963"/>
<path fill-rule="evenodd" clip-rule="evenodd" d="M29.6799 20.13L27.9399 19.17V20.13H29.6799Z" fill="white"/>
</svg>
