<svg width="32" height="32" viewBox="0 0 32 32" fill="none" xmlns="http://www.w3.org/2000/svg">
<path d="M8.19238 0H18.9022L27.9685 9.45411V27.8392C27.9685 30.135 26.1036 32 23.8016 32H8.19242C5.89658 32 4.03162 30.135 4.03162 27.8392V4.16081C4.03158 1.86496 5.89654 0 8.19238 0Z" fill="#0263D1"/>
<path opacity="0.302" fill-rule="evenodd" clip-rule="evenodd" d="M18.8894 0V9.38028H27.9681L18.8894 0Z" fill="white"/>
<path d="M20.2189 16.6494H11.7804C11.3926 16.6494 11.0725 16.3355 11.0725 15.9477C11.0725 15.56 11.3926 15.2461 11.7804 15.2461H20.2189C20.6067 15.2461 20.9206 15.56 20.9206 15.9477C20.9206 16.3355 20.6067 16.6494 20.2189 16.6494ZM17.406 25.0879H11.7804C11.3926 25.0879 11.0725 24.774 11.0725 24.3863C11.0725 23.9985 11.3926 23.6846 11.7804 23.6846H17.406C17.7938 23.6846 18.1077 23.9985 18.1077 24.3863C18.1077 24.774 17.7938 25.0879 17.406 25.0879ZM20.2189 22.2751H11.7804C11.3926 22.2751 11.0725 21.9612 11.0725 21.5734C11.0725 21.1857 11.3926 20.8718 11.7804 20.8718H20.2189C20.6067 20.8718 20.9206 21.1857 20.9206 21.5734C20.9206 21.9612 20.6067 22.2751 20.2189 22.2751ZM20.2189 19.4622H11.7804C11.3926 19.4622 11.0725 19.1483 11.0725 18.7606C11.0725 18.3728 11.3926 18.0589 11.7804 18.0589H20.2189C20.6067 18.0589 20.9206 18.3728 20.9206 18.7606C20.9206 19.1483 20.6067 19.4622 20.2189 19.4622Z" fill="white"/>
</svg>
