<svg width="32" height="32" viewBox="0 0 32 32" fill="none" xmlns="http://www.w3.org/2000/svg">
<path fill-rule="evenodd" clip-rule="evenodd" d="M8.19269 0H18.9022L27.9649 9.45986V27.8307C27.9649 30.1314 26.108 32 23.8073 32H8.19269C5.90364 32 4.03503 30.1314 4.03503 27.8307V4.15765C4.03499 1.8686 5.90364 0 8.19269 0Z" fill="#00733B"/>
<path opacity="0.302" fill-rule="evenodd" clip-rule="evenodd" d="M18.8905 0V9.3781H27.965L18.8905 0Z" fill="white"/>
<path d="M13.9854 23.2993H12.4321L11.3693 21.5125L10.3065 23.2993H8.74158L10.5868 20.1927L8.96351 17.4949H10.5284L11.3693 18.8963L12.1985 17.4949H13.7634L12.1517 20.2044L13.9854 23.2993ZM14.5343 23.2993V17.4949H16.0175V22.0379H18.5401V23.2993H14.5343V23.2993ZM20.9926 23.3694C20.4087 23.3694 19.8948 23.1825 19.4511 22.8205C19.0189 22.4701 18.7737 22.0263 18.7387 21.5008L20.0117 21.1271C20.0467 21.4073 20.1635 21.6526 20.362 21.8395C20.5722 22.0263 20.8058 22.1197 21.0628 22.1197C21.273 22.1197 21.4482 22.073 21.5883 21.9796C21.7167 21.8862 21.7868 21.7577 21.7868 21.6059C21.7868 21.4774 21.7284 21.3723 21.6233 21.2789C21.5182 21.1971 21.378 21.1271 21.2145 21.0687C21.051 21.0103 20.8525 20.9519 20.654 20.9052C20.4437 20.8468 20.2335 20.7767 20.035 20.6833C19.8248 20.6015 19.6379 20.4964 19.4744 20.3679C19.2992 20.2511 19.1707 20.076 19.0656 19.8541C18.9605 19.6439 18.9021 19.3869 18.9021 19.0949C18.9021 18.6161 19.1006 18.219 19.5094 17.9037C19.9182 17.5767 20.4087 17.4249 20.9809 17.4249C21.5532 17.4249 22.0554 17.565 22.4758 17.8336C22.8963 18.1139 23.1649 18.476 23.27 18.9198L21.9386 19.4803C21.8802 19.2351 21.7634 19.0366 21.5999 18.8847C21.4364 18.7446 21.2262 18.6629 20.9809 18.6629C20.794 18.6629 20.6539 18.7096 20.5371 18.7797C20.432 18.8497 20.3853 18.9548 20.3853 19.0833C20.3853 19.2001 20.4554 19.3052 20.5955 19.3869C20.7357 19.457 20.9225 19.5154 21.1327 19.5505C21.343 19.5855 21.5765 19.6439 21.8218 19.7256C22.0787 19.8191 22.3006 19.9125 22.5225 20.041C22.7327 20.1578 22.9079 20.3563 23.048 20.6132C23.1999 20.8819 23.2699 21.1972 23.2699 21.5592C23.2699 22.0965 23.0597 22.5403 22.6393 22.8672C22.2188 23.1942 21.67 23.3694 20.9926 23.3694Z" fill="white"/>
</svg>
