<svg width="32" height="32" viewBox="0 0 32 32" fill="none" xmlns="http://www.w3.org/2000/svg">
<path fill-rule="evenodd" clip-rule="evenodd" d="M8.19429 0H18.897L27.9668 9.45343V27.8389C27.9668 30.131 26.0977 32 23.8057 32H8.19429C5.89242 32 4.0332 30.131 4.0332 27.8389V4.16109C4.0332 1.85922 5.89242 0 8.19429 0Z" fill="#FFB11F"/>
<path opacity="0.302" fill-rule="evenodd" clip-rule="evenodd" d="M18.8871 0V9.37475H27.9667L18.8871 0Z" fill="white"/>
<path d="M12.8471 16.6247V14.4408C12.8471 14.2047 12.6602 14.0178 12.4241 14.0178H11.2437C11.0076 14.0178 10.8207 14.2047 10.8207 14.4408V16.6247L10.1616 18.5528C9.9747 19.0938 10.0632 19.6939 10.3977 20.1562C10.7223 20.6185 11.2633 20.894 11.8339 20.894C12.4045 20.894 12.9357 20.6185 13.2701 20.1562C13.6046 19.6939 13.6931 19.0938 13.5062 18.5528L12.8471 16.6247ZM12.5717 19.6545C12.2373 20.1365 11.4306 20.1365 11.0863 19.6545C10.9191 19.4184 10.8699 19.1036 10.9683 18.8282L11.1847 18.1789H12.4733L12.6996 18.8282C12.7882 19.1036 12.7488 19.4184 12.5717 19.6545ZM9.21729 2.29205V3.49219C9.21729 3.72827 9.4042 3.91519 9.64028 3.91519H11.2437V5.70556H9.64028C9.4042 5.70556 9.21729 5.89247 9.21729 6.12855V7.05323C9.21729 7.28931 9.4042 7.48606 9.64028 7.48606H11.2437V9.26656H9.64028C9.4042 9.26656 9.21729 9.45347 9.21729 9.68956V10.6241C9.21729 10.8601 9.4042 11.0471 9.64028 11.0471H11.2437V12.4046C11.2437 12.6406 11.4405 12.8276 11.6766 12.8276H14.0276C14.2539 12.8276 14.4506 12.6406 14.4506 12.4046V11.4701C14.4506 11.2438 14.2539 11.0471 14.0276 11.0471H12.4144V9.26656H14.0276C14.2539 9.26656 14.4506 9.07964 14.4506 8.84356V7.90906C14.4506 7.67297 14.2539 7.48606 14.0276 7.48606H12.4144V5.70556H14.0276C14.2539 5.70556 14.4506 5.50881 14.4506 5.27273V4.34805C14.4506 4.11197 14.2539 3.91523 14.0276 3.91523H12.4144V2.28223C12.4143 2.28223 9.21729 2.29205 9.21729 2.29205Z" fill="white"/>
</svg>
