<svg width="24" height="18" viewBox="0 0 24 18" fill="none" xmlns="http://www.w3.org/2000/svg">
<g clip-path="url(#clip0_14537_65603)">
<g clip-path="url(#clip1_14537_65603)">
<rect width="22" height="16" transform="translate(1 1)" fill="#F93939"/>
<path d="M20.9048 1H3.09524C1.93807 1 1 1.95513 1 3.13333V14.8667C1 16.0449 1.93807 17 3.09524 17H20.9048C22.0619 17 23 16.0449 23 14.8667V3.13333C23 1.95513 22.0619 1 20.9048 1Z" fill="#F93939"/>
<path fill-rule="evenodd" clip-rule="evenodd" d="M1 9H23V17H1V9Z" fill="#151515"/>
<path fill-rule="evenodd" clip-rule="evenodd" d="M14.0439 11.225C14.4986 10.6042 14.7667 9.8341 14.7667 8.99997C14.7667 7.43517 13.8207 6.09544 12.4798 5.5397L11.846 6.44317C12.9292 6.77064 13.7191 7.79144 13.7191 8.99997C13.7191 9.63357 13.5023 10.216 13.1398 10.6725L9.52865 8.46664L12.353 11.3424C11.9811 11.5493 11.5537 11.6666 11.1001 11.6666C10.2201 11.6666 9.44169 11.225 8.96712 10.5466L8.33331 11.4501C9.00484 12.2362 9.99484 12.7333 11.1001 12.7333C11.8439 12.7333 12.5374 12.5072 13.1157 12.1189L13.7191 12.7333L14.7667 11.6666L14.0439 11.225ZM9.52865 6.3333H10.5763V7.39997H9.52865V6.3333Z" fill="#FFDA2C"/>
</g>
</g>
<rect x="0.5" y="0.5" width="23" height="17" rx="2.5" stroke="#E9EFF7"/>
<defs>
<clipPath id="clip0_14537_65603">
<rect x="1" y="1" width="22" height="16" rx="2" fill="white"/>
</clipPath>
<clipPath id="clip1_14537_65603">
<rect width="22" height="16" fill="white" transform="translate(1 1)"/>
</clipPath>
</defs>
</svg>
