<svg width="24" height="18" viewBox="0 0 24 18" fill="none" xmlns="http://www.w3.org/2000/svg">
<g clip-path="url(#clip0_14537_65508)">
<g clip-path="url(#clip1_14537_65508)">
<path d="M20.9048 1H3.09524C1.93807 1 1 1.95513 1 3.13333V14.8667C1 16.0449 1.93807 17 3.09524 17H20.9048C22.0619 17 23 16.0449 23 14.8667V3.13333C23 1.95513 22.0619 1 20.9048 1Z" fill="white"/>
<path fill-rule="evenodd" clip-rule="evenodd" d="M1 12H23V17H1V12ZM1 1H23V6H1V1Z" fill="#3ECBF8"/>
<path d="M12 10.6C12.8679 10.6 13.5714 9.88365 13.5714 8.99999C13.5714 8.11634 12.8679 7.39999 12 7.39999C11.1321 7.39999 10.4286 8.11634 10.4286 8.99999C10.4286 9.88365 11.1321 10.6 12 10.6Z" fill="#FFDA2C"/>
</g>
</g>
<rect x="0.5" y="0.5" width="23" height="17" rx="2.5" stroke="#E9EFF7"/>
<defs>
<clipPath id="clip0_14537_65508">
<rect x="1" y="1" width="22" height="16" rx="2" fill="white"/>
</clipPath>
<clipPath id="clip1_14537_65508">
<rect width="22" height="16" fill="white" transform="translate(1 1)"/>
</clipPath>
</defs>
</svg>
