<svg width="24" height="18" viewBox="0 0 24 18" fill="none" xmlns="http://www.w3.org/2000/svg">
<g clip-path="url(#clip0_14537_65510)">
<g clip-path="url(#clip1_14537_65510)">
<rect width="22" height="16" transform="translate(1 1)" fill="#3ECBF8"/>
<path d="M20.9048 1H3.09524C1.93807 1 1 1.95513 1 3.13333V14.8667C1 16.0449 1.93807 17 3.09524 17H20.9048C22.0619 17 23 16.0449 23 14.8667V3.13333C23 1.95513 22.0619 1 20.9048 1Z" fill="#3ECBF8"/>
<path fill-rule="evenodd" clip-rule="evenodd" d="M5.69855 5.784C6.60998 5.72533 7.28569 5.51733 7.28569 5.26666C7.28569 5.01706 6.60998 4.808 5.69855 4.74933C5.64093 3.82133 5.43664 3.13333 5.19045 3.13333C4.94531 3.13333 4.73998 3.82133 4.68236 4.74933C3.77093 4.808 3.09521 5.016 3.09521 5.26666C3.09521 5.51626 3.77093 5.72533 4.68236 5.784C4.73998 6.712 4.94426 7.4 5.19045 7.4C5.4356 7.4 5.64093 6.712 5.69855 5.784Z" fill="#F93939"/>
<path fill-rule="evenodd" clip-rule="evenodd" d="M5.69855 5.78401C6.60998 5.72534 7.2857 5.51734 7.2857 5.26667C7.2857 5.01707 6.60998 4.80801 5.69855 4.74934C5.64094 3.82134 5.43665 3.13334 5.19046 3.13334C4.94532 3.13334 4.73998 3.82134 4.68236 4.74934C3.77094 4.80801 3.09522 5.01601 3.09522 5.26667C3.09522 5.51627 3.77094 5.72534 4.68236 5.78401C4.73998 6.71201 4.94427 7.40001 5.19046 7.40001C5.4356 7.40001 5.64094 6.71201 5.69855 5.78401ZM5.72998 6.31734L6.22236 5.81601C6.14379 7.09387 5.88189 7.93334 5.19046 7.93334C4.49903 7.93334 4.23713 7.09281 4.1596 5.81707L4.64989 6.31627C3.39693 6.23734 2.57141 5.97067 2.57141 5.26667C2.57141 4.56267 3.39693 4.29601 4.64989 4.21707L4.1596 4.71627C4.23713 3.44054 4.49903 2.60001 5.19046 2.60001C5.88189 2.60001 6.14379 3.44054 6.22132 4.71627L5.73103 4.21707C6.98398 4.29601 7.80951 4.56267 7.80951 5.26667C7.80951 5.97067 6.98398 6.23734 5.73103 6.31627L5.72998 6.31734Z" fill="white"/>
<path fill-rule="evenodd" clip-rule="evenodd" d="M1 11H23V12H1V11ZM1 13H23V14H1V13Z" fill="#FFDA2C"/>
</g>
</g>
<rect x="0.5" y="0.5" width="23" height="17" rx="2.5" stroke="#E9EFF7"/>
<defs>
<clipPath id="clip0_14537_65510">
<rect x="1" y="1" width="22" height="16" rx="2" fill="white"/>
</clipPath>
<clipPath id="clip1_14537_65510">
<rect width="22" height="16" fill="white" transform="translate(1 1)"/>
</clipPath>
</defs>
</svg>
