<svg width="24" height="18" viewBox="0 0 24 18" fill="none" xmlns="http://www.w3.org/2000/svg">
<g clip-path="url(#clip0_14537_65584)">
<g clip-path="url(#clip1_14537_65584)">
<rect width="22" height="16" transform="translate(1 1)" fill="#1A47B8"/>
<path d="M20.9048 1H3.09524C1.93807 1 1 1.95513 1 3.13333V14.8667C1 16.0449 1.93807 17 3.09524 17H20.9048C22.0619 17 23 16.0449 23 14.8667V3.13333C23 1.95513 22.0619 1 20.9048 1Z" fill="#1A47B8"/>
<path opacity="0.5" fill-rule="evenodd" clip-rule="evenodd" d="M5.19049 13.2667L6.23811 12.7333L6.76192 11.6667L7.28573 12.7333L8.33335 13.2667L7.28573 13.8L6.76192 14.8667L6.23811 13.8L5.19049 13.2667ZM15.6667 4.20001V5.26668H16.7143V4.20001H15.6667ZM18.8095 5.26668V6.33335H19.8572V5.26668H18.8095ZM14.6191 7.40001V8.46668H15.6667V7.40001H14.6191ZM17.7619 8.46668V9.53335H18.8095V8.46668H17.7619ZM16.7143 11.6667V12.7333H17.7619V11.6667H16.7143Z" fill="white"/>
<path d="M10.4286 2.06668H3.09523C2.51664 2.06668 2.04761 2.54424 2.04761 3.13335V8.46668C2.04761 9.05579 2.51664 9.53335 3.09523 9.53335H10.4286C11.0071 9.53335 11.4762 9.05579 11.4762 8.46668V3.13335C11.4762 2.54424 11.0071 2.06668 10.4286 2.06668Z" fill="white"/>
<path fill-rule="evenodd" clip-rule="evenodd" d="M6.2381 6.33333H3.09525V5.26666H6.2381V3.13333H7.28572V5.26666H10.4286V6.33333H7.28572V8.46666H6.2381V6.33333ZM8.85715 7.4V8.46666H10.4286V7.4H8.85715ZM8.85715 3.13333V4.2H10.4286V3.13333H8.85715ZM3.09525 7.4V8.46666H4.66667V7.4H3.09525ZM3.09525 3.13333V4.2H4.66667V3.13333H3.09525Z" fill="#F93939"/>
</g>
</g>
<rect x="0.5" y="0.5" width="23" height="17" rx="2.5" stroke="#E9EFF7"/>
<defs>
<clipPath id="clip0_14537_65584">
<rect x="1" y="1" width="22" height="16" rx="2" fill="white"/>
</clipPath>
<clipPath id="clip1_14537_65584">
<rect width="22" height="16" fill="white" transform="translate(1 1)"/>
</clipPath>
</defs>
</svg>
