<svg width="24" height="18" viewBox="0 0 24 18" fill="none" xmlns="http://www.w3.org/2000/svg">
<g clip-path="url(#clip0_14537_65635)">
<g clip-path="url(#clip1_14537_65635)">
<path d="M20.9048 1H3.09524C1.93807 1 1 1.95513 1 3.13333V14.8667C1 16.0449 1.93807 17 3.09524 17H20.9048C22.0619 17 23 16.0449 23 14.8667V3.13333C23 1.95513 22.0619 1 20.9048 1Z" fill="#F93939"/>
<path fill-rule="evenodd" clip-rule="evenodd" d="M1 12H23V17H1V12Z" fill="#249F58"/>
<path fill-rule="evenodd" clip-rule="evenodd" d="M1 1H23V6H1V1Z" fill="#3ECBF8"/>
<path fill-rule="evenodd" clip-rule="evenodd" d="M13.5714 8.46667H14.619V9.53334H13.5714V8.46667Z" fill="white"/>
<path fill-rule="evenodd" clip-rule="evenodd" d="M14.0953 10.6C13.6176 11.2475 12.857 11.6667 12 11.6667C10.5543 11.6667 9.38098 10.472 9.38098 9.00001C9.38098 7.52801 10.5543 6.33334 12 6.33334C12.857 6.33334 13.6176 6.75254 14.0953 7.40001H12.5238C11.6564 7.40001 10.9524 8.11681 10.9524 9.00001C10.9524 9.88321 11.6564 10.6 12.5238 10.6H14.0953Z" fill="white"/>
</g>
</g>
<rect x="0.5" y="0.5" width="23" height="17" rx="2.5" stroke="#E9EFF7"/>
<defs>
<clipPath id="clip0_14537_65635">
<rect x="1" y="1" width="22" height="16" rx="2" fill="white"/>
</clipPath>
<clipPath id="clip1_14537_65635">
<rect width="22" height="16" fill="white" transform="translate(1 1)"/>
</clipPath>
</defs>
</svg>
