<svg width="24" height="18" viewBox="0 0 24 18" fill="none" xmlns="http://www.w3.org/2000/svg">
<g clip-path="url(#clip0_14537_65512)">
<g clip-path="url(#clip1_14537_65512)">
<path d="M20.9048 1H3.09524C1.93807 1 1 1.95513 1 3.13333V14.8667C1 16.0449 1.93807 17 3.09524 17H20.9048C22.0619 17 23 16.0449 23 14.8667V3.13333C23 1.95513 22.0619 1 20.9048 1Z" fill="#FFDA2C"/>
<path fill-rule="evenodd" clip-rule="evenodd" d="M1 1H8V17H1V1ZM16 1H23V17H16V1Z" fill="#1A47B8"/>
<path fill-rule="evenodd" clip-rule="evenodd" d="M11.4762 11.6667H12.5238V12.7333H11.4762V11.6667ZM13.5715 9.53333H14.6191V10.6H13.5715V9.53333ZM9.38098 9.53333H10.4286V10.6H9.38098V9.53333Z" fill="#AE6A3E"/>
<path fill-rule="evenodd" clip-rule="evenodd" d="M12.5238 9.53333V5.26666H11.4762V9.53333H10.4286V10.6H11.4762V11.6667H12.5238V10.6H13.5715V9.53333H12.5238ZM13.5715 6.33333H14.6191V9.53333H13.5715V6.33333ZM9.38098 6.33333H10.4286V9.53333H9.38098V6.33333Z" fill="#151515"/>
</g>
</g>
<rect x="0.5" y="0.5" width="23" height="17" rx="2.5" stroke="#E9EFF7"/>
<defs>
<clipPath id="clip0_14537_65512">
<rect x="1" y="1" width="22" height="16" rx="2" fill="white"/>
</clipPath>
<clipPath id="clip1_14537_65512">
<rect width="22" height="16" fill="white" transform="translate(1 1)"/>
</clipPath>
</defs>
</svg>
