<svg width="24" height="18" viewBox="0 0 24 18" fill="none" xmlns="http://www.w3.org/2000/svg">
<g clip-path="url(#clip0_14537_65513)">
<g clip-path="url(#clip1_14537_65513)">
<rect width="22" height="16" transform="translate(1 1)" fill="#F93939"/>
<path d="M20.9048 1H3.09524C1.93807 1 1 1.95513 1 3.13333V14.8667C1 16.0449 1.93807 17 3.09524 17H20.9048C22.0619 17 23 16.0449 23 14.8667V3.13333C23 1.95513 22.0619 1 20.9048 1Z" fill="#F93939"/>
<path fill-rule="evenodd" clip-rule="evenodd" d="M4.14286 1L6.2381 2.6L4.14286 4.2V1ZM4.14286 4.2L6.2381 5.8L4.14286 7.4V4.2ZM4.14286 7.4L6.2381 9L4.14286 10.6V7.4ZM4.14286 10.6L6.2381 12.2L4.14286 13.8V10.6ZM4.14286 13.8L6.2381 15.4L4.14286 17V13.8ZM3.09524 1L1 2.6L3.09524 4.2V1ZM3.09524 4.2L1 5.8L3.09524 7.4V4.2ZM3.09524 7.4L1 9L3.09524 10.6V7.4ZM3.09524 10.6L1 12.2L3.09524 13.8V10.6ZM3.09524 13.8L1 15.4L3.09524 17V13.8ZM3.09524 1H4.14286V3.13333H3.09524V1ZM3.09524 14.8667H4.14286V17H3.09524V14.8667ZM3.09524 6.33333H4.14286V8.46667H3.09524V6.33333ZM3.09524 4.2H4.14286V5.26667H3.09524V4.2ZM3.09524 12.7333H4.14286V13.8H3.09524V12.7333ZM3.09524 9.53333H4.14286V11.6667H3.09524V9.53333Z" fill="white"/>
<path fill-rule="evenodd" clip-rule="evenodd" d="M6 13H23V17H6V13Z" fill="#249F58"/>
</g>
</g>
<rect x="0.5" y="0.5" width="23" height="17" rx="2.5" stroke="#E9EFF7"/>
<defs>
<clipPath id="clip0_14537_65513">
<rect x="1" y="1" width="22" height="16" rx="2" fill="white"/>
</clipPath>
<clipPath id="clip1_14537_65513">
<rect width="22" height="16" fill="white" transform="translate(1 1)"/>
</clipPath>
</defs>
</svg>
