<svg width="24" height="18" viewBox="0 0 24 18" fill="none" xmlns="http://www.w3.org/2000/svg">
<g clip-path="url(#clip0_14537_65519)">
<g clip-path="url(#clip1_14537_65519)">
<rect width="22" height="16" transform="translate(1 1)" fill="#FF6C2D"/>
<path d="M20.9048 1H3.09524C1.93807 1 1 1.95513 1 3.13333V14.8667C1 16.0449 1.93807 17 3.09524 17H20.9048C22.0619 17 23 16.0449 23 14.8667V3.13333C23 1.95513 22.0619 1 20.9048 1Z" fill="#FF6C2D"/>
<path fill-rule="evenodd" clip-rule="evenodd" d="M1 17L23 1H1V17Z" fill="#FFDA2C"/>
<path fill-rule="evenodd" clip-rule="evenodd" d="M4.14288 11.6667L4.66669 13.2667L6.76193 13.8L7.28574 12.7333L11.4762 13.2667L10.4286 10.6H12.5238L15.6667 11.6667L16.7143 10.6L13.5715 9.53335L14.6191 8.46668H17.7619L18.2857 7.40001H15.6667V6.33335H17.7619L18.8096 5.26668L14.6191 4.20001L12.5238 6.33335L11.4762 7.40001L12.5238 8.46668L9.38098 7.93335L7.28574 11.6667L6.23812 12.7333L4.14288 11.6667Z" fill="white"/>
</g>
</g>
<rect x="0.5" y="0.5" width="23" height="17" rx="2.5" stroke="#E9EFF7"/>
<defs>
<clipPath id="clip0_14537_65519">
<rect x="1" y="1" width="22" height="16" rx="2" fill="white"/>
</clipPath>
<clipPath id="clip1_14537_65519">
<rect width="22" height="16" fill="white" transform="translate(1 1)"/>
</clipPath>
</defs>
</svg>
