<svg width="24" height="18" viewBox="0 0 24 18" fill="none" xmlns="http://www.w3.org/2000/svg">
<g clip-path="url(#clip0_14537_65520)">
<g clip-path="url(#clip1_14537_65520)">
<path d="M20.9048 1H3.09524C1.93807 1 1 1.95513 1 3.13333V14.8667C1 16.0449 1.93807 17 3.09524 17H20.9048C22.0619 17 23 16.0449 23 14.8667V3.13333C23 1.95513 22.0619 1 20.9048 1Z" fill="#FFDA2C"/>
<path fill-rule="evenodd" clip-rule="evenodd" d="M10.4286 8.46667H11.4762V9.53334H10.4286V8.46667ZM12.5238 8.46667H13.5714V9.53334H12.5238V8.46667Z" fill="#03BCDB"/>
<path fill-rule="evenodd" clip-rule="evenodd" d="M13.5715 8.46666H14.6191V10.6H13.5715V8.46666ZM12.5238 7.39999H13.5715V8.46666H12.5238V7.39999ZM10.4286 7.39999H11.4762V8.46666H10.4286V7.39999ZM9.38098 8.46666H10.4286V10.6H9.38098V8.46666Z" fill="#AF010D"/>
<path fill-rule="evenodd" clip-rule="evenodd" d="M11.4762 9.53333H12.5238V10.6H11.4762V9.53333Z" fill="#249F58"/>
<path fill-rule="evenodd" clip-rule="evenodd" d="M11.4762 7.39999H12.5238V8.46666H11.4762V7.39999Z" fill="#151515"/>
<path fill-rule="evenodd" clip-rule="evenodd" d="M12.5238 9.53333H13.5714V10.6H12.5238V9.53333ZM10.4286 9.53333H11.4762V10.6H10.4286V9.53333Z" fill="#D4AF2C"/>
<path fill-rule="evenodd" clip-rule="evenodd" d="M11.4762 8.46667H12.5238V9.53334H11.4762V8.46667Z" fill="#249F58"/>
<path fill-rule="evenodd" clip-rule="evenodd" d="M1 11.6667H23V17H1V11.6667Z" fill="#249F58"/>
<path fill-rule="evenodd" clip-rule="evenodd" d="M1 1H23V6.33333H1V1Z" fill="#F93939"/>
</g>
</g>
<rect x="0.5" y="0.5" width="23" height="17" rx="2.5" stroke="#E9EFF7"/>
<defs>
<clipPath id="clip0_14537_65520">
<rect x="1" y="1" width="22" height="16" rx="2" fill="white"/>
</clipPath>
<clipPath id="clip1_14537_65520">
<rect width="22" height="16" fill="white" transform="translate(1 1)"/>
</clipPath>
</defs>
</svg>
