<svg width="24" height="18" viewBox="0 0 24 18" fill="none" xmlns="http://www.w3.org/2000/svg">
<g clip-path="url(#clip0_14537_65521)">
<g clip-path="url(#clip1_14537_65521)">
<rect width="22" height="16" transform="translate(1 1)" fill="#FFDA2C"/>
<path d="M20.9048 1H3.09524C1.93807 1 1 1.95513 1 3.13333V14.8667C1 16.0449 1.93807 17 3.09524 17H20.9048C22.0619 17 23 16.0449 23 14.8667V3.13333C23 1.95513 22.0619 1 20.9048 1Z" fill="#FFDA2C"/>
<path fill-rule="evenodd" clip-rule="evenodd" d="M1 1L23 15.9333L22.8711 17.1067L1 17V1Z" fill="#1A47B8"/>
<path fill-rule="evenodd" clip-rule="evenodd" d="M2.04761 4.20001H3.09523V5.26668H2.04761V4.20001ZM5.19046 6.33335H6.23808V7.40001H5.19046V6.33335ZM8.33332 8.46668H9.38094V9.53335H8.33332V8.46668ZM11.4762 10.6H12.5238V11.6667H11.4762V10.6ZM14.619 12.7333H15.6667V13.8H14.619V12.7333ZM17.7619 14.8667H18.8095V15.9333H17.7619V14.8667Z" fill="white"/>
</g>
</g>
<rect x="0.5" y="0.5" width="23" height="17" rx="2.5" stroke="#E9EFF7"/>
<defs>
<clipPath id="clip0_14537_65521">
<rect x="1" y="1" width="22" height="16" rx="2" fill="white"/>
</clipPath>
<clipPath id="clip1_14537_65521">
<rect width="22" height="16" fill="white" transform="translate(1 1)"/>
</clipPath>
</defs>
</svg>
