<svg width="24" height="18" viewBox="0 0 24 18" fill="none" xmlns="http://www.w3.org/2000/svg">
<g clip-path="url(#clip0_14537_65699)">
<g clip-path="url(#clip1_14537_65699)">
<rect width="22" height="16" transform="translate(1 1)" fill="#FFDA2C"/>
<path d="M20.9048 1H3.09524C1.93807 1 1 1.95513 1 3.13333V14.8667C1 16.0449 1.93807 17 3.09524 17H20.9048C22.0619 17 23 16.0449 23 14.8667V3.13333C23 1.95513 22.0619 1 20.9048 1Z" fill="#FFDA2C"/>
<path fill-rule="evenodd" clip-rule="evenodd" d="M1 1L23 11.6667V15.9333L1 5.26667V1Z" fill="white"/>
<path fill-rule="evenodd" clip-rule="evenodd" d="M1 4.20001L23 14.8667V17L1 6.33335V4.20001Z" fill="#151515"/>
<path fill-rule="evenodd" clip-rule="evenodd" d="M9.38096 8.46668L10.4286 9.53335V13.8L8.33334 12.7333V10.6L6.2381 8.46668L8.33334 6.33335L9.38096 7.40001V8.46668ZM10.4286 10.6H13.5714V11.6667H10.4286V10.6ZM14.6191 8.46668L13.5714 9.53335V13.8L15.6667 12.7333V10.6L17.7619 8.46668L15.6667 6.33335L14.6191 7.40001V8.46668ZM10.4286 7.40001H13.5714L12 4.20001L10.4286 7.40001Z" fill="#F93939"/>
</g>
</g>
<rect x="0.5" y="0.5" width="23" height="17" rx="2.5" stroke="#E9EFF7"/>
<defs>
<clipPath id="clip0_14537_65699">
<rect x="1" y="1" width="22" height="16" rx="2" fill="white"/>
</clipPath>
<clipPath id="clip1_14537_65699">
<rect width="22" height="16" fill="white" transform="translate(1 1)"/>
</clipPath>
</defs>
</svg>
