<svg width="24" height="18" viewBox="0 0 24 18" fill="none" xmlns="http://www.w3.org/2000/svg">
<g clip-path="url(#clip0_14537_65525)">
<g clip-path="url(#clip1_14537_65525)">
<rect width="22" height="16" transform="translate(1 1)" fill="#F93939"/>
<path d="M20.9048 1H3.09524C1.93807 1 1 1.95513 1 3.13333V14.8667C1 16.0449 1.93807 17 3.09524 17H20.9048C22.0619 17 23 16.0449 23 14.8667V3.13333C23 1.95513 22.0619 1 20.9048 1Z" fill="#F93939"/>
<path fill-rule="evenodd" clip-rule="evenodd" d="M1 9H23V17H1V9Z" fill="#249F58"/>
<path fill-rule="evenodd" clip-rule="evenodd" d="M12 10.8667L9.84503 12.0208L10.2567 9.57813L8.51141 7.8448L10.9209 7.48853L12 5.26666L13.079 7.4896L15.4886 7.84586L13.7432 9.57706L14.1549 12.0219" fill="#FFDA2C"/>
</g>
</g>
<rect x="0.5" y="0.5" width="23" height="17" rx="2.5" stroke="#E9EFF7"/>
<defs>
<clipPath id="clip0_14537_65525">
<rect x="1" y="1" width="22" height="16" rx="2" fill="white"/>
</clipPath>
<clipPath id="clip1_14537_65525">
<rect width="22" height="16" fill="white" transform="translate(1 1)"/>
</clipPath>
</defs>
</svg>
