<svg width="24" height="18" viewBox="0 0 24 18" fill="none" xmlns="http://www.w3.org/2000/svg">
<g clip-path="url(#clip0_14537_65526)">
<g clip-path="url(#clip1_14537_65526)">
<path d="M20.9048 1H3.09524C1.93807 1 1 1.95513 1 3.13333V14.8667C1 16.0449 1.93807 17 3.09524 17H20.9048C22.0619 17 23 16.0449 23 14.8667V3.13333C23 1.95513 22.0619 1 20.9048 1Z" fill="#F93939"/>
<path fill-rule="evenodd" clip-rule="evenodd" d="M1 1L11.4762 9.53333L1 17V1ZM23 1L12.5238 9.53333L23 17V1Z" fill="#00B731"/>
<path fill-rule="evenodd" clip-rule="evenodd" d="M8.49886 7.8864L1 2.6V1H2.57143L9.74448 6.056C10.3657 5.56107 11.1483 5.26667 12 5.26667C12.8507 5.26667 13.6343 5.56107 14.2555 6.056L21.4286 1H23V2.6L15.5011 7.8864C15.609 8.2384 15.6667 8.61173 15.6667 9C15.6667 9.38827 15.609 9.7616 15.5011 10.1136L23 15.4V17H21.4286L14.2555 11.944C13.6332 12.4389 12.8517 12.7333 12 12.7333C11.1493 12.7333 10.3657 12.4389 9.74448 11.944L2.57143 17H1V15.4L8.49886 10.1136C8.39095 9.7616 8.33333 9.38827 8.33333 9C8.33333 8.61173 8.39095 8.2384 8.49886 7.8864Z" fill="white"/>
<path fill-rule="evenodd" clip-rule="evenodd" d="M11.4762 7.39999H12.5238V8.46666H11.4762V7.39999ZM12.5238 9.53333H13.5714V10.6H12.5238V9.53333ZM10.4286 9.53333H11.4762V10.6H10.4286V9.53333Z" fill="#AF010D"/>
</g>
</g>
<rect x="0.5" y="0.5" width="23" height="17" rx="2.5" stroke="#E9EFF7"/>
<defs>
<clipPath id="clip0_14537_65526">
<rect x="1" y="1" width="22" height="16" rx="2" fill="white"/>
</clipPath>
<clipPath id="clip1_14537_65526">
<rect width="22" height="16" fill="white" transform="translate(1 1)"/>
</clipPath>
</defs>
</svg>
