<svg width="24" height="18" viewBox="0 0 24 18" fill="none" xmlns="http://www.w3.org/2000/svg">
<g clip-path="url(#clip0_14537_65527)">
<g clip-path="url(#clip1_14537_65527)">
<rect width="22" height="16" transform="translate(1 1)" fill="#F93939"/>
<path fill-rule="evenodd" clip-rule="evenodd" d="M9.38094 6.33334H9.90475L10.4286 7.40001H9.38094V6.33334ZM10.4286 7.40001H11.4762V8.46668H10.4286V7.40001ZM9.38094 8.46668H10.4286V9.53334H9.38094V8.46668ZM8.33332 9.53334H9.38094V10.6H8.33332V9.53334ZM8.33332 10.6H9.38094V11.6667H8.33332V10.6ZM7.80952 10.6H8.33332V11.6667H7.28571L7.80952 10.6ZM10.4286 9.53334H12.5238V11.6667H10.4286V9.53334ZM14.619 6.33334H14.0952L13.5714 7.40001H14.619V6.33334ZM13.5714 7.40001H12.5238V8.46668H13.5714V7.40001ZM14.619 8.46668H13.5714V9.53334H14.619V8.46668ZM15.6667 9.53334H14.619V10.6H15.6667V9.53334ZM15.6667 10.6H14.619V11.6667H15.6667V10.6ZM16.1905 10.6H15.6667V11.6667H16.7143L16.1905 10.6ZM13.5714 9.53334H12.5238V11.6667H13.5714V9.53334Z" fill="white"/>
<path opacity="0.7" fill-rule="evenodd" clip-rule="evenodd" d="M10.4286 8.46666H11.4762V9.53333H10.4286V8.46666ZM9.38093 9.53333H10.4286V11.6667H9.38093V9.53333ZM9.38093 7.39999H10.4286V8.46666H9.38093V7.39999ZM8.85712 8.46666H9.38093V9.53333H8.33331L8.85712 8.46666ZM13.5714 8.46666H12.5238V9.53333H13.5714V8.46666ZM14.619 9.53333H13.5714V11.6667H14.619V9.53333ZM14.619 7.39999H13.5714V8.46666H14.619V7.39999ZM15.1428 8.46666H14.619V9.53333H15.6666L15.1428 8.46666ZM12.5238 7.39999H11.4762V9.53333H12.5238V7.39999Z" fill="white"/>
<path opacity="0.7" fill-rule="evenodd" clip-rule="evenodd" d="M11.4762 6.33334H12.5238V7.40001H11.4762V6.33334Z" fill="white"/>
<path fill-rule="evenodd" clip-rule="evenodd" d="M1 1H23V5H1V1ZM1 13H23V17H1V13Z" fill="#232C80"/>
</g>
</g>
<rect x="0.5" y="0.5" width="23" height="17" rx="2.5" stroke="#E9EFF7"/>
<defs>
<clipPath id="clip0_14537_65527">
<rect x="1" y="1" width="22" height="16" rx="2" fill="white"/>
</clipPath>
<clipPath id="clip1_14537_65527">
<rect width="22" height="16" fill="white" transform="translate(1 1)"/>
</clipPath>
</defs>
</svg>
