<svg width="24" height="18" viewBox="0 0 24 18" fill="none" xmlns="http://www.w3.org/2000/svg">
<g clip-path="url(#clip0_14537_65530)">
<g clip-path="url(#clip1_14537_65530)">
<rect width="22" height="16" transform="translate(1 1)" fill="white"/>
<path d="M12.2353 13H11.7647L11.8824 11.2703C11.8757 11.1792 11.8281 11.1552 11.6471 11.1622L9.76471 11.3784C9.76471 11.3784 10.1176 10.9459 10.1176 10.7297C10.1176 10.5135 8 9.10811 8 9.10811C8 9.10811 8.47059 9 8.58824 8.89189C8.70588 8.78378 8.11765 7.59459 8.11765 7.59459C8.11765 7.59459 9.31321 8.02703 9.41176 7.91892C9.51032 7.81081 9.64706 7.37838 9.64706 7.37838C9.64706 7.37838 10.5882 8.35135 10.8235 8.35135C11.0588 8.35135 10.3529 5.97297 10.3529 5.97297C10.3529 5.97297 10.9412 6.40541 11.1765 6.40541C11.4118 6.40541 12 5 12 5C12 5 12.5882 6.40541 12.7059 6.40541C12.8235 6.40541 13.6471 5.97297 13.6471 5.97297C13.6471 5.97297 13.0588 8.24324 13.1765 8.35135C13.2941 8.45946 14.3529 7.37838 14.3529 7.37838C14.3529 7.37838 14.4706 7.81081 14.5882 7.91892C14.7059 8.02703 15.8824 7.59459 15.8824 7.59459C15.8824 7.59459 15.2941 8.78378 15.4118 8.89189C15.5294 9 16 9.10811 16 9.10811C16 9.10811 13.8824 10.5135 13.8824 10.7297C13.8824 10.9459 14.1176 11.3784 14.1176 11.3784L12.3529 11.1622C12.2111 11.1248 12.1619 11.1532 12.1176 11.2703L12.2353 13Z" fill="#F93939"/>
<rect x="18" y="1" width="5" height="16" fill="#F93939"/>
<rect x="1" y="1" width="5" height="16" fill="#F93939"/>
</g>
</g>
<rect x="0.5" y="0.5" width="23" height="17" rx="2.5" stroke="#E9EFF7"/>
<defs>
<clipPath id="clip0_14537_65530">
<rect x="1" y="1" width="22" height="16" rx="2" fill="white"/>
</clipPath>
<clipPath id="clip1_14537_65530">
<rect width="22" height="16" fill="white" transform="translate(1 1)"/>
</clipPath>
</defs>
</svg>
