<svg width="24" height="18" viewBox="0 0 24 18" fill="none" xmlns="http://www.w3.org/2000/svg">
<g clip-path="url(#clip0_14537_65657)">
<rect width="22" height="16" transform="translate(1 1)" fill="#1A47B8"/>
<path fill-rule="evenodd" clip-rule="evenodd" d="M1 9.53334H23V10.6H1V9.53334Z" fill="white"/>
<path fill-rule="evenodd" clip-rule="evenodd" d="M1 10.6H23V11.6667H1V10.6Z" fill="#F93939"/>
<path fill-rule="evenodd" clip-rule="evenodd" d="M1 11.6667H23V12.7333H1V11.6667Z" fill="white"/>
<path fill-rule="evenodd" clip-rule="evenodd" d="M6.23811 8.46666H7.28573V9.53333H6.23811V8.46666ZM8.33335 7.39999H9.38097V8.46666H8.33335V7.39999ZM10.4286 8.46666H11.4762V9.53333H10.4286V8.46666ZM11.4762 10.6H12.5238V11.6667H11.4762V10.6ZM5.19049 10.6H6.23811V11.6667H5.19049V10.6ZM10.4286 12.7333H11.4762V13.8H10.4286V12.7333ZM8.33335 13.8H9.38097V14.8667H8.33335V13.8ZM6.23811 12.7333H7.28573V13.8H6.23811V12.7333Z" fill="#FFDA2C"/>
</g>
<rect x="0.5" y="0.5" width="23" height="17" rx="2.5" stroke="#E9EFF7"/>
<defs>
<clipPath id="clip0_14537_65657">
<rect x="1" y="1" width="22" height="16" rx="2" fill="white"/>
</clipPath>
</defs>
</svg>
