<svg width="24" height="18" viewBox="0 0 24 18" fill="none" xmlns="http://www.w3.org/2000/svg">
<g clip-path="url(#clip0_14537_65532)">
<g clip-path="url(#clip1_14537_65532)">
<path d="M20.9048 1H3.09524C1.93807 1 1 1.95513 1 3.13333V14.8667C1 16.0449 1.93807 17 3.09524 17H20.9048C22.0619 17 23 16.0449 23 14.8667V3.13333C23 1.95513 22.0619 1 20.9048 1Z" fill="white"/>
<path fill-rule="evenodd" clip-rule="evenodd" d="M1 12H23V17H1V12Z" fill="#FFDA2C"/>
<path fill-rule="evenodd" clip-rule="evenodd" d="M1 10H23V13H1V10Z" fill="#249F58"/>
<path fill-rule="evenodd" clip-rule="evenodd" d="M1 1H23V7H1V1Z" fill="#1A47B8"/>
<path fill-rule="evenodd" clip-rule="evenodd" d="M4.14288 3.13333H5.1905V4.2H4.14288V3.13333Z" fill="#FFDA2C"/>
<path fill-rule="evenodd" clip-rule="evenodd" d="M3.09521 3.13333H4.14283V4.2H3.09521V3.13333ZM5.19045 3.13333H6.23807V4.2H5.19045V3.13333ZM4.14283 4.2H5.19045V5.26667H4.14283V4.2ZM4.14283 2.06667H5.19045V3.13333H4.14283V2.06667Z" fill="#D4AF2C"/>
<path fill-rule="evenodd" clip-rule="evenodd" d="M10 1H14V17H10V1Z" fill="#F93939"/>
</g>
</g>
<rect x="0.5" y="0.5" width="23" height="17" rx="2.5" stroke="#E9EFF7"/>
<defs>
<clipPath id="clip0_14537_65532">
<rect x="1" y="1" width="22" height="16" rx="2" fill="white"/>
</clipPath>
<clipPath id="clip1_14537_65532">
<rect width="22" height="16" fill="white" transform="translate(1 1)"/>
</clipPath>
</defs>
</svg>
