<svg width="24" height="18" viewBox="0 0 24 18" fill="none" xmlns="http://www.w3.org/2000/svg">
<g clip-path="url(#clip0_14537_65533)">
<g clip-path="url(#clip1_14537_65533)">
<rect width="22" height="16" transform="translate(1 1)" fill="white"/>
<path d="M20.9048 1H3.09524C1.93807 1 1 1.95513 1 3.13333V14.8667C1 16.0449 1.93807 17 3.09524 17H20.9048C22.0619 17 23 16.0449 23 14.8667V3.13333C23 1.95513 22.0619 1 20.9048 1Z" fill="white"/>
<path fill-rule="evenodd" clip-rule="evenodd" d="M1 1H10V9H1V1Z" fill="#1A47B8"/>
<path fill-rule="evenodd" clip-rule="evenodd" d="M5.49124 6.57553L3.95124 7.40006L4.24457 5.655L3 4.41766L4.72124 4.1638L5.49124 2.57446L6.26124 4.1638L7.98248 4.4198L6.73581 5.655L7.03124 7.40006" fill="white"/>
<path fill-rule="evenodd" clip-rule="evenodd" d="M1 9H23V17H1V9Z" fill="#F93939"/>
</g>
</g>
<rect x="0.5" y="0.5" width="23" height="17" rx="2.5" stroke="#E9EFF7"/>
<defs>
<clipPath id="clip0_14537_65533">
<rect x="1" y="1" width="22" height="16" rx="2" fill="white"/>
</clipPath>
<clipPath id="clip1_14537_65533">
<rect width="22" height="16" fill="white" transform="translate(1 1)"/>
</clipPath>
</defs>
</svg>
