<svg width="24" height="18" viewBox="0 0 24 18" fill="none" xmlns="http://www.w3.org/2000/svg">
<g clip-path="url(#clip0_14537_65599)">
<g clip-path="url(#clip1_14537_65599)">
<rect width="22" height="16" transform="translate(1 1)" fill="#F93939"/>
<path d="M20.9048 1H3.09524C1.93807 1 1 1.95513 1 3.13333V14.8667C1 16.0449 1.93807 17 3.09524 17H20.9048C22.0619 17 23 16.0449 23 14.8667V3.13333C23 1.95513 22.0619 1 20.9048 1Z" fill="#F93939"/>
<path fill-rule="evenodd" clip-rule="evenodd" d="M6.75992 8.712L5.21991 9.53653L5.51325 7.7904L4.26868 6.55306L5.98992 6.30026L6.75992 4.71093L7.52887 6.30026L9.25011 6.55306L8.00344 7.7904L8.29887 9.53546L6.75992 8.712ZM10.4287 4.2H11.4763V5.26666H10.4287V4.2ZM11.4763 6.33333H12.5239V7.4H11.4763V6.33333ZM11.4763 8.46666H12.5239V9.53333H11.4763V8.46666ZM10.4287 10.6H11.4763V11.6667H10.4287V10.6Z" fill="#FFDA2C"/>
</g>
</g>
<rect x="0.5" y="0.5" width="23" height="17" rx="2.5" stroke="#E9EFF7"/>
<defs>
<clipPath id="clip0_14537_65599">
<rect x="1" y="1" width="22" height="16" rx="2" fill="white"/>
</clipPath>
<clipPath id="clip1_14537_65599">
<rect width="22" height="16" fill="white" transform="translate(1 1)"/>
</clipPath>
</defs>
</svg>
