<svg width="24" height="18" viewBox="0 0 24 18" fill="none" xmlns="http://www.w3.org/2000/svg">
<g clip-path="url(#clip0_14537_65537)">
<g clip-path="url(#clip1_14537_65537)">
<rect width="22" height="16" transform="translate(1 1)" fill="white"/>
<path fill-rule="evenodd" clip-rule="evenodd" d="M1 7.39999H23V10.6H1V7.39999ZM1 13.8H23V17H1V13.8Z" fill="#1A47B8"/>
<rect x="1" y="1" width="22" height="3" fill="#1A47B8"/>
<path fill-rule="evenodd" clip-rule="evenodd" d="M1 1L13.5714 9L1 17V1Z" fill="#F93939"/>
<path fill-rule="evenodd" clip-rule="evenodd" d="M5.58645 10.3333L4.04645 11.1579L4.33979 9.41173L3.09521 8.17439L4.81645 7.92159L5.58645 6.33333L6.35645 7.92266L8.07769 8.17546L6.83102 9.4128L7.12436 11.1579" fill="white"/>
</g>
</g>
<rect x="0.5" y="0.5" width="23" height="17" rx="2.5" stroke="#E9EFF7"/>
<defs>
<clipPath id="clip0_14537_65537">
<rect x="1" y="1" width="22" height="16" rx="2" fill="white"/>
</clipPath>
<clipPath id="clip1_14537_65537">
<rect width="22" height="16" fill="white" transform="translate(1 1)"/>
</clipPath>
</defs>
</svg>
