<svg width="24" height="18" viewBox="0 0 24 18" fill="none" xmlns="http://www.w3.org/2000/svg">
<g clip-path="url(#clip0_14537_65517)">
<rect width="22" height="16" transform="translate(1 1)" fill="#1A47B8"/>
<path fill-rule="evenodd" clip-rule="evenodd" d="M6.23809 6.33333H5.70945C5.4165 6.33333 5.19047 6.57211 5.19047 6.86666C5.19047 7.1526 5.42283 7.4 5.70945 7.4H6.23809V7.93825C6.23809 8.23653 6.47261 8.46666 6.7619 8.46666C7.04273 8.46666 7.28571 8.23008 7.28571 7.93825V7.4H7.81435C8.1073 7.4 8.33333 7.16122 8.33333 6.86666C8.33333 6.58073 8.10097 6.33333 7.81435 6.33333H7.28571V5.79508C7.28571 5.4968 7.05119 5.26666 6.7619 5.26666C6.48107 5.26666 6.23809 5.50324 6.23809 5.79508V6.33333ZM4.14285 4.2H5.19047V5.26666H4.14285V4.2Z" fill="white"/>
<path d="M23 11H1V13H23V11Z" fill="#FFDA2C"/>
</g>
<rect x="0.5" y="0.5" width="23" height="17" rx="2.5" stroke="#E9EFF7"/>
<defs>
<clipPath id="clip0_14537_65517">
<rect x="1" y="1" width="22" height="16" rx="2" fill="white"/>
</clipPath>
</defs>
</svg>
