<svg width="24" height="18" viewBox="0 0 24 18" fill="none" xmlns="http://www.w3.org/2000/svg">
<g clip-path="url(#clip0_14537_65541)">
<g clip-path="url(#clip1_14537_65541)">
<rect width="22" height="16" transform="translate(1 1)" fill="white"/>
<rect x="1" y="1" width="10" height="6" fill="#1A47B8"/>
<rect x="14" y="1" width="9" height="6" fill="#F93939"/>
<rect x="14" y="11" width="9" height="6" fill="#1A47B8"/>
<rect x="1" y="11" width="10" height="6" fill="#F93939"/>
<ellipse cx="12.5" cy="9" rx="1.5" ry="2" fill="#249F58"/>
<circle cx="11.5" cy="7.5" r="0.5" fill="#232C80"/>
<circle cx="0.5" cy="0.5" r="0.5" transform="matrix(-1 0 0 1 14 10)" fill="#232C80"/>
<circle cx="13.5" cy="7.5" r="0.5" fill="#F93939"/>
<ellipse cx="12.5" cy="9" rx="0.5" ry="1" fill="white"/>
<circle cx="0.5" cy="0.5" r="0.5" transform="matrix(-1 0 0 1 12 10)" fill="#F93939"/>
</g>
</g>
<rect x="0.5" y="0.5" width="23" height="17" rx="2.5" stroke="#E9EFF7"/>
<defs>
<clipPath id="clip0_14537_65541">
<rect x="1" y="1" width="22" height="16" rx="2" fill="white"/>
</clipPath>
<clipPath id="clip1_14537_65541">
<rect width="22" height="16" fill="white" transform="translate(1 1)"/>
</clipPath>
</defs>
</svg>
