<svg width="24" height="18" viewBox="0 0 24 18" fill="none" xmlns="http://www.w3.org/2000/svg">
<g clip-path="url(#clip0_14537_65542)">
<g clip-path="url(#clip1_14537_65542)">
<path d="M20.9048 1H3.09524C1.93807 1 1 1.95513 1 3.13333V14.8667C1 16.0449 1.93807 17 3.09524 17H20.9048C22.0619 17 23 16.0449 23 14.8667V3.13333C23 1.95513 22.0619 1 20.9048 1Z" fill="#1A47B8"/>
<path fill-rule="evenodd" clip-rule="evenodd" d="M1 13H23V17H1V13Z" fill="#F93939"/>
<path fill-rule="evenodd" clip-rule="evenodd" d="M1 1H23V9H1V1Z" fill="#FFDA2C"/>
<path fill-rule="evenodd" clip-rule="evenodd" d="M7.28571 5.26667H10.4286L12 6.33334L13.5714 5.26667H16.7143L13.5714 6.33334L12.5238 7.4H11.4762L10.4286 6.33334L7.28571 5.26667Z" fill="#151515"/>
<path d="M12 11.6667C12.8679 11.6667 13.5714 10.7115 13.5714 9.53333C13.5714 8.35513 12.8679 7.4 12 7.4C11.1321 7.4 10.4286 8.35513 10.4286 9.53333C10.4286 10.7115 11.1321 11.6667 12 11.6667Z" fill="#3ECBF8"/>
<path fill-rule="evenodd" clip-rule="evenodd" d="M9.38093 8.46667V10.6L11.4762 11.6667H12.5238L14.619 10.6V8.46667L15.6666 10.6L14.619 11.6667L12.5238 12.7333H11.4762L9.38093 11.6667L8.33331 10.6L9.38093 8.46667Z" fill="#FFDA2C"/>
</g>
</g>
<rect x="0.5" y="0.5" width="23" height="17" rx="2.5" stroke="#E9EFF7"/>
<defs>
<clipPath id="clip0_14537_65542">
<rect x="1" y="1" width="22" height="16" rx="2" fill="white"/>
</clipPath>
<clipPath id="clip1_14537_65542">
<rect width="22" height="16" fill="white" transform="translate(1 1)"/>
</clipPath>
</defs>
</svg>
