<svg width="24" height="18" viewBox="0 0 24 18" fill="none" xmlns="http://www.w3.org/2000/svg">
<g clip-path="url(#clip0_14537_65674)">
<g clip-path="url(#clip1_14537_65674)">
<rect width="22" height="16" transform="translate(1 1)" fill="#3A99FF"/>
<path d="M20.9048 1H3.09524C1.93807 1 1 1.95513 1 3.13333V14.8667C1 16.0449 1.93807 17 3.09524 17H20.9048C22.0619 17 23 16.0449 23 14.8667V3.13333C23 1.95513 22.0619 1 20.9048 1Z" fill="#3A99FF"/>
<path fill-rule="evenodd" clip-rule="evenodd" d="M1 1H23V9H1V1Z" fill="#249F58"/>
<path fill-rule="evenodd" clip-rule="evenodd" d="M1 1L23 9L1 17V1Z" fill="#F93939"/>
<path fill-rule="evenodd" clip-rule="evenodd" d="M10.4286 9C10.4286 7.528 9.25526 6.33334 7.80955 5.8C6.36384 6.33334 5.1905 7.528 5.1905 9C5.1905 10.2907 6.09145 11.3659 7.28574 11.6133V7.9312C7.28574 7.63787 7.52879 7.4 7.80955 7.4C8.09869 7.4 8.33336 7.62934 8.33336 7.9312V11.6133C9.52765 11.3659 10.4286 10.2907 10.4286 9ZM11.4762 9C11.4762 6.93814 9.8346 5.26667 7.80955 5.8C5.7845 5.26667 4.14288 6.93814 4.14288 9C4.14288 11.0619 5.7845 12.7333 7.80955 12.7333C9.8346 12.7333 11.4762 11.0619 11.4762 9Z" fill="#FFDA2C"/>
</g>
</g>
<rect x="0.5" y="0.5" width="23" height="17" rx="2.5" stroke="#E9EFF7"/>
<defs>
<clipPath id="clip0_14537_65674">
<rect x="1" y="1" width="22" height="16" rx="2" fill="white"/>
</clipPath>
<clipPath id="clip1_14537_65674">
<rect width="22" height="16" fill="white" transform="translate(1 1)"/>
</clipPath>
</defs>
</svg>
