<svg width="24" height="18" viewBox="0 0 24 18" fill="none" xmlns="http://www.w3.org/2000/svg">
<g clip-path="url(#clip0_14537_65574)">
<g clip-path="url(#clip1_14537_65574)">
<rect width="22" height="16" transform="translate(1 1)" fill="#1A47B8"/>
<path d="M20.9048 1H3.09524C1.93807 1 1 1.95513 1 3.13333V14.8667C1 16.0449 1.93807 17 3.09524 17H20.9048C22.0619 17 23 16.0449 23 14.8667V3.13333C23 1.95513 22.0619 1 20.9048 1Z" fill="#1A47B8"/>
<path fill-rule="evenodd" clip-rule="evenodd" d="M12 3L12.2763 3.61976L12.9511 3.69098L12.447 4.14524L12.5878 4.80902L12 4.47L11.4122 4.80902L11.553 4.14524L11.049 3.69098L11.7237 3.61976L12 3ZM7.27627 8.61976L7.00001 8L6.72375 8.61976L6.04895 8.69098L6.55301 9.14524L6.41222 9.80902L7.00001 9.47L7.58779 9.80902L7.447 9.14524L7.95106 8.69098L7.27627 8.61976ZM17.2763 8.61976L17 8L16.7237 8.61976L16.049 8.69098L16.553 9.14524L16.4122 9.80902L17 9.47L17.5878 9.80902L17.447 9.14524L17.9511 8.69098L17.2763 8.61976ZM12.2763 13.6198L12 13L11.7237 13.6198L11.049 13.691L11.553 14.1452L11.4122 14.809L12 14.47L12.5878 14.809L12.447 14.1452L12.9511 13.691L12.2763 13.6198ZM8.50001 11.5L8.77627 12.1198L9.45106 12.191L8.947 12.6452L9.08779 13.309L8.50001 12.97L7.91222 13.309L8.05301 12.6452L7.54895 12.191L8.22375 12.1198L8.50001 11.5ZM8.77627 5.11976L8.50001 4.5L8.22375 5.11976L7.54895 5.19098L8.05301 5.64524L7.91222 6.30902L8.50001 5.97L9.08779 6.30902L8.947 5.64524L9.45106 5.19098L8.77627 5.11976ZM15.5 11.5L15.7763 12.1198L16.4511 12.191L15.947 12.6452L16.0878 13.309L15.5 12.97L14.9122 13.309L15.053 12.6452L14.549 12.191L15.2237 12.1198L15.5 11.5ZM15.7763 5.11976L15.5 4.5L15.2237 5.11976L14.549 5.19098L15.053 5.64524L14.9122 6.30902L15.5 5.97L16.0878 6.30902L15.947 5.64524L16.4511 5.19098L15.7763 5.11976Z" fill="#FFFF00"/>
</g>
</g>
<rect x="0.5" y="0.5" width="23" height="17" rx="2.5" stroke="#E9EFF7"/>
<defs>
<clipPath id="clip0_14537_65574">
<rect x="1" y="1" width="22" height="16" rx="2" fill="white"/>
</clipPath>
<clipPath id="clip1_14537_65574">
<rect width="22" height="16" fill="white" transform="translate(1 1)"/>
</clipPath>
</defs>
</svg>
