<svg width="24" height="18" viewBox="0 0 24 18" fill="none" xmlns="http://www.w3.org/2000/svg">
<g clip-path="url(#clip0_14537_65680)">
<rect width="22" height="16" transform="translate(1 1)" fill="#3ECBF8"/>
<path fill-rule="evenodd" clip-rule="evenodd" d="M19.8571 11.6667V7.93333C19.8571 7.04267 19.1531 6.33333 18.2857 6.33333H16.1904C15.3251 6.33333 14.619 7.048 14.619 7.93333V11.6667C14.619 11.8608 15.6666 13.8 17.2381 13.8C18.8095 13.8 19.8571 11.8555 19.8571 11.6667Z" fill="white"/>
<path fill-rule="evenodd" clip-rule="evenodd" d="M17.7619 9.53333V10.7259H19.8571V11.752H17.7619V13.8H16.7143V11.752H14.619V10.7259H16.7143V9.53333H14.619V6.33333H19.8571V9.53333H17.7619Z" fill="#F93939"/>
<path fill-rule="evenodd" clip-rule="evenodd" d="M15.6667 7.4H18.8095V8.46667H15.6667V7.4Z" fill="#FFDA2C"/>
<path d="M10.4286 2.06667H3.09523C2.51664 2.06667 2.04761 2.54423 2.04761 3.13333V8.46667C2.04761 9.05577 2.51664 9.53333 3.09523 9.53333H10.4286C11.0071 9.53333 11.4762 9.05577 11.4762 8.46667V3.13333C11.4762 2.54423 11.0071 2.06667 10.4286 2.06667Z" fill="white"/>
<path fill-rule="evenodd" clip-rule="evenodd" d="M6.23807 6.33333H3.09521V5.26667H6.23807V3.13333H7.28569V5.26667H10.4285V6.33333H7.28569V8.46667H6.23807V6.33333ZM8.85712 7.4V8.46667H10.4285V7.4H8.85712ZM8.85712 3.13333V4.2H10.4285V3.13333H8.85712ZM3.09521 7.4V8.46667H4.66664V7.4H3.09521ZM3.09521 3.13333V4.2H4.66664V3.13333H3.09521Z" fill="#F93939"/>
</g>
<rect x="0.5" y="0.5" width="23" height="17" rx="2.5" stroke="#E9EFF7"/>
<defs>
<clipPath id="clip0_14537_65680">
<rect x="1" y="1" width="22" height="16" rx="2" fill="white"/>
</clipPath>
</defs>
</svg>
