<svg width="24" height="18" viewBox="0 0 24 18" fill="none" xmlns="http://www.w3.org/2000/svg">
<g clip-path="url(#clip0_14537_65553)">
<rect width="22" height="16" transform="translate(1 1)" fill="#F93939"/>
<path fill-rule="evenodd" clip-rule="evenodd" d="M4.14288 4.2H19.8572V13.8H4.14288V4.2Z" fill="#FFDA2C"/>
<path fill-rule="evenodd" clip-rule="evenodd" d="M4.14288 4.2L12 9L4.14288 13.8V4.2Z" fill="#249F58"/>
<path fill-rule="evenodd" clip-rule="evenodd" d="M5.19049 8.46667H6.23811V9.53333H5.19049V8.46667Z" fill="#FFDA2C"/>
<path fill-rule="evenodd" clip-rule="evenodd" d="M19.8571 4.2L12 9L19.8571 13.8V4.2Z" fill="#249F58"/>
<path fill-rule="evenodd" clip-rule="evenodd" d="M8.33331 2.06667H9.38093V3.13333H8.33331V2.06667ZM11.4762 2.06667H12.5238V3.13333H11.4762V2.06667ZM14.619 2.06667H15.6666V3.13333H14.619V2.06667ZM8.33331 14.8667H9.38093V15.9333H8.33331V14.8667ZM11.4762 14.8667H12.5238V15.9333H11.4762V14.8667ZM14.619 14.8667H15.6666V15.9333H14.619V14.8667Z" fill="#FFDA2C"/>
<path d="M12 11.6667C13.4465 11.6667 14.6191 10.4728 14.6191 9C14.6191 7.52724 13.4465 6.33333 12 6.33333C10.5536 6.33333 9.38098 7.52724 9.38098 9C9.38098 10.4728 10.5536 11.6667 12 11.6667Z" fill="#F93939"/>
<path fill-rule="evenodd" clip-rule="evenodd" d="M12 10.3333L10.46 11.1579L10.7534 9.41173L9.50879 8.1744L11.23 7.9216L12 6.33333L12.77 7.92267L14.4913 8.17547L13.2446 9.4128L13.5379 11.1579" fill="#FFDA2C"/>
</g>
<rect x="0.5" y="0.5" width="23" height="17" rx="2.5" stroke="#E9EFF7"/>
<defs>
<clipPath id="clip0_14537_65553">
<rect x="1" y="1" width="22" height="16" rx="2" fill="white"/>
</clipPath>
</defs>
</svg>
