<svg width="24" height="18" viewBox="0 0 24 18" fill="none" xmlns="http://www.w3.org/2000/svg">
<g clip-path="url(#clip0_14537_65554)">
<g clip-path="url(#clip1_14537_65554)">
<rect width="22" height="16" transform="translate(1 1)" fill="white"/>
<rect x="17" y="1" width="6" height="16" fill="#3ECBF8"/>
<rect x="1" y="1" width="6" height="16" fill="#3ECBF8"/>
<path d="M12.5 10C12.7761 10 13 9.55228 13 9C13 8.44772 12.7761 8 12.5 8C12.2239 8 12 8.44772 12 9C12 9.55228 12.2239 10 12.5 10Z" fill="#FFDA2C"/>
<path fill-rule="evenodd" clip-rule="evenodd" d="M15 9.5C15 8.12 13.88 7 12.5 7C11.12 7 10 8.12 10 9.5C10 10.88 11.12 12 12.5 12C13.88 12 15 10.88 15 9.5ZM12.5 11C13.328 11 14 10.105 14 9C14 7.895 13.328 7 12.5 7C11.672 7 11 7.895 11 9C11 10.105 11.672 11 12.5 11Z" fill="#249F58"/>
</g>
</g>
<rect x="0.5" y="0.5" width="23" height="17" rx="2.5" stroke="#E9EFF7"/>
<defs>
<clipPath id="clip0_14537_65554">
<rect x="1" y="1" width="22" height="16" rx="2" fill="white"/>
</clipPath>
<clipPath id="clip1_14537_65554">
<rect width="22" height="16" fill="white" transform="translate(1 1)"/>
</clipPath>
</defs>
</svg>
