<svg width="24" height="18" viewBox="0 0 24 18" fill="none" xmlns="http://www.w3.org/2000/svg">
<g clip-path="url(#clip0_14537_65556)">
<g clip-path="url(#clip1_14537_65556)">
<rect width="22" height="16" transform="translate(1 1)" fill="#FFDA2C"/>
<path d="M20.9048 1H3.09524C1.93807 1 1 1.95513 1 3.13333V14.8667C1 16.0449 1.93807 17 3.09524 17H20.9048C22.0619 17 23 16.0449 23 14.8667V3.13333C23 1.95513 22.0619 1 20.9048 1Z" fill="#FFDA2C"/>
<path fill-rule="evenodd" clip-rule="evenodd" d="M1 9H23V17H1V9Z" fill="#249F58"/>
<path fill-rule="evenodd" clip-rule="evenodd" d="M1 1H10V17H1V1Z" fill="#F93939"/>
<path fill-rule="evenodd" clip-rule="evenodd" d="M5.49124 10.3333L3.95124 11.1578L4.24457 9.41165L3 8.17432L4.72124 7.92152L5.49124 6.33325L6.26124 7.92259L7.98248 8.17539L6.73581 9.41272L7.02914 11.1578" fill="#151515"/>
</g>
</g>
<rect x="0.5" y="0.5" width="23" height="17" rx="2.5" stroke="#E9EFF7"/>
<defs>
<clipPath id="clip0_14537_65556">
<rect x="1" y="1" width="22" height="16" rx="2" fill="white"/>
</clipPath>
<clipPath id="clip1_14537_65556">
<rect width="22" height="16" fill="white" transform="translate(1 1)"/>
</clipPath>
</defs>
</svg>
