<svg width="24" height="18" viewBox="0 0 24 18" fill="none" xmlns="http://www.w3.org/2000/svg">
<g clip-path="url(#clip0_14537_65559)">
<rect width="22" height="16" transform="translate(1 1)" fill="#F93939"/>
<path fill-rule="evenodd" clip-rule="evenodd" d="M1 1H23V9H1V1Z" fill="#1A47B8"/>
<path fill-rule="evenodd" clip-rule="evenodd" d="M7.28571 6.33333H16.0159V11.6667H7.28571V6.33333Z" fill="white"/>
<path fill-rule="evenodd" clip-rule="evenodd" d="M10.7779 8.11108H12.5239V11.6666H10.7779V8.11108Z" fill="#FFDA2C"/>
<path fill-rule="evenodd" clip-rule="evenodd" d="M9.03162 9C9.03162 7.528 10.1945 6.33333 11.6507 6.33333C13.0964 6.33333 14.2697 7.51733 14.2697 9V11.6667H9.03162V9ZM10.7776 9.00889C10.7776 8.51111 11.1827 8.11111 11.6507 8.11111C12.1326 8.11111 12.5237 8.49156 12.5237 9.00889V11.6667H10.7776V9.00889Z" fill="#249F58"/>
</g>
<rect x="0.5" y="0.5" width="23" height="17" rx="2.5" stroke="#E9EFF7"/>
<defs>
<clipPath id="clip0_14537_65559">
<rect x="1" y="1" width="22" height="16" rx="2" fill="white"/>
</clipPath>
</defs>
</svg>
