<svg width="24" height="18" viewBox="0 0 24 18" fill="none" xmlns="http://www.w3.org/2000/svg">
<g clip-path="url(#clip0_14537_65569)">
<rect width="22" height="16" transform="translate(1 1)" fill="#F93939"/>
<path fill-rule="evenodd" clip-rule="evenodd" d="M11.6385 9.01493C8.7974 7.7904 10.0566 4.01867 12.7752 4.2064C12.2242 4.4944 12.1445 5.032 12.4588 5.52907C12.8108 6.088 12.4274 6.98507 11.9518 7.20373C11.1703 7.56107 11.0142 8.51573 11.6375 9.01493H11.6385ZM11.8764 8.8848C12.1414 5.75627 16.0564 5.8096 16.7164 8.49867C16.2785 8.056 15.7525 8.14453 15.3838 8.6032C14.9721 9.1152 14.0156 9.0192 13.6657 8.62773C13.0895 7.98347 12.1466 8.1264 11.8764 8.88587V8.8848ZM11.9727 9.19733C14.9899 8.54133 16.0836 12.3675 13.7505 13.7989C14.0397 13.2411 13.8029 12.7536 13.2645 12.5296C12.6631 12.2779 12.4725 11.3189 12.7385 10.8635C13.1765 10.1136 12.7658 9.23893 11.9738 9.19627L11.9727 9.19733ZM8.0714 12.712C8.67902 12.8187 9.0614 12.4379 9.10436 11.848C9.1536 11.1867 9.9896 10.7067 10.4977 10.824C11.3337 11.016 12.0241 10.3483 11.8177 9.56747C13.364 12.2875 10.1279 14.5275 8.07036 12.7109L8.0714 12.712ZM7.44598 6.86667C7.56645 7.4832 8.0515 7.70933 8.60883 7.53867C9.23217 7.3488 9.97283 7.97173 10.0472 8.49867C10.1708 9.36053 11.0299 9.77653 11.671 9.30293C9.73293 11.7456 6.51674 9.4736 7.44598 6.8656V6.86667Z" fill="white"/>
</g>
<rect x="0.5" y="0.5" width="23" height="17" rx="2.5" stroke="#E9EFF7"/>
<defs>
<clipPath id="clip0_14537_65569">
<rect x="1" y="1" width="22" height="16" rx="2" fill="white"/>
</clipPath>
</defs>
</svg>
