<svg width="24" height="18" viewBox="0 0 24 18" fill="none" xmlns="http://www.w3.org/2000/svg">
<g clip-path="url(#clip0_14537_65564)">
<g clip-path="url(#clip1_14537_65564)">
<rect width="22" height="16" transform="translate(1 1)" fill="white"/>
<path fill-rule="evenodd" clip-rule="evenodd" d="M12 11.6667C13.4457 11.6667 14.6191 10.472 14.6191 9C14.6191 7.528 13.4457 6.33334 12 6.33334C10.5543 6.33334 9.38098 7.528 9.38098 9C9.38098 10.472 10.5543 11.6667 12 11.6667ZM12 10.6C12.8675 10.6 13.5715 9.8832 13.5715 9C13.5715 8.1168 12.8675 7.4 12 7.4C11.1326 7.4 10.4286 8.1168 10.4286 9C10.4286 9.8832 11.1326 10.6 12 10.6Z" fill="#1A47B8"/>
<path d="M12 9.53333C12.2893 9.53333 12.5238 9.29455 12.5238 9C12.5238 8.70545 12.2893 8.46667 12 8.46667C11.7107 8.46667 11.4762 8.70545 11.4762 9C11.4762 9.29455 11.7107 9.53333 12 9.53333Z" fill="#1A47B8"/>
<path fill-rule="evenodd" clip-rule="evenodd" d="M1 12H23V17H1V12Z" fill="#249F58"/>
<path fill-rule="evenodd" clip-rule="evenodd" d="M1 1H23V6H1V1Z" fill="#FF6C2D"/>
</g>
</g>
<rect x="0.5" y="0.5" width="23" height="17" rx="2.5" stroke="#E9EFF7"/>
<defs>
<clipPath id="clip0_14537_65564">
<rect x="1" y="1" width="22" height="16" rx="2" fill="white"/>
</clipPath>
<clipPath id="clip1_14537_65564">
<rect width="22" height="16" fill="white" transform="translate(1 1)"/>
</clipPath>
</defs>
</svg>
