<svg width="24" height="18" viewBox="0 0 24 18" fill="none" xmlns="http://www.w3.org/2000/svg">
<g clip-path="url(#clip0_14537_65682)">
<rect width="22" height="16" transform="translate(1 1)" fill="white"/>
<path fill-rule="evenodd" clip-rule="evenodd" d="M1 12.7333H23V14.8667H1V12.7333ZM1 3.13333H23V5.26666H1V3.13333ZM11.3452 10.6H9.38095L10.3636 9L9.38095 7.4H11.3452L12 6.33333L12.6548 7.4H14.619L13.6364 9L14.619 10.6H12.6548L12 11.6667L11.3452 10.6ZM10.9524 9L12 7.93333L13.0476 9L12 10.0667L10.9524 9Z" fill="#1A47B8"/>
</g>
<rect x="0.5" y="0.5" width="23" height="17" rx="2.5" stroke="#E9EFF7"/>
<defs>
<clipPath id="clip0_14537_65682">
<rect x="1" y="1" width="22" height="16" rx="2" fill="white"/>
</clipPath>
</defs>
</svg>
