<svg width="24" height="18" viewBox="0 0 24 18" fill="none" xmlns="http://www.w3.org/2000/svg">
<g clip-path="url(#clip0_14537_65571)">
<rect width="22" height="16" transform="translate(1 1)" fill="#03BCDB"/>
<path fill-rule="evenodd" clip-rule="evenodd" d="M3.09521 3.66133C3.09521 3.37013 3.33826 3.13333 3.61902 3.13333C3.90817 3.13333 4.14283 3.36373 4.14283 3.66133V5.80533C4.14283 6.09653 3.89979 6.33333 3.61902 6.33333C3.32988 6.33333 3.09521 6.10293 3.09521 5.80533V3.66133ZM4.14283 5.79466C4.14283 5.50346 4.38588 5.26666 4.66664 5.26666C4.95579 5.26666 5.19045 5.49706 5.19045 5.79466V7.93866C5.19045 8.22987 4.94741 8.46666 4.66664 8.46666C4.3775 8.46666 4.14283 8.23627 4.14283 7.93866V5.79466ZM4.14283 10.0613C4.14283 9.77013 4.38588 9.53333 4.66664 9.53333C4.95579 9.53333 5.19045 9.76373 5.19045 10.0613V12.2053C5.19045 12.4965 4.94741 12.7333 4.66664 12.7333C4.3775 12.7333 4.14283 12.5029 4.14283 12.2053V10.0613ZM3.09521 12.1947C3.09521 11.9035 3.33826 11.6667 3.61902 11.6667C3.90817 11.6667 4.14283 11.8971 4.14283 12.1947V14.3387C4.14283 14.6299 3.89979 14.8667 3.61902 14.8667C3.32988 14.8667 3.09521 14.6363 3.09521 14.3387V12.1947ZM3.09521 7.93333C3.09521 7.63893 3.33826 7.4 3.61902 7.4C3.90817 7.4 4.14283 7.64746 4.14283 7.93333C4.14283 8.22773 3.89979 8.46666 3.61902 8.46666C3.32988 8.46666 3.09521 8.2192 3.09521 7.93333ZM4.14283 3.66666C4.14283 3.37226 4.38588 3.13333 4.66664 3.13333C4.95579 3.13333 5.19045 3.3808 5.19045 3.66666C5.19045 3.96106 4.94741 4.2 4.66664 4.2C4.3775 4.2 4.14283 3.95253 4.14283 3.66666ZM3.09521 9C3.09521 8.7056 3.33826 8.46666 3.61902 8.46666C3.90817 8.46666 4.14283 8.71413 4.14283 9C4.14283 9.2944 3.89979 9.53333 3.61902 9.53333C3.32988 9.53333 3.09521 9.28586 3.09521 9ZM4.14283 14.3333C4.14283 14.0389 4.38588 13.8 4.66664 13.8C4.95579 13.8 5.19045 14.0475 5.19045 14.3333C5.19045 14.6277 4.94741 14.8667 4.66664 14.8667C4.3775 14.8667 4.14283 14.6192 4.14283 14.3333ZM3.09521 10.0667C3.09521 9.77226 3.33826 9.53333 3.61902 9.53333C3.90817 9.53333 4.14283 9.7808 4.14283 10.0667C4.14283 10.3611 3.89979 10.6 3.61902 10.6C3.32988 10.6 3.09521 10.3525 3.09521 10.0667Z" fill="#FFDA2C"/>
<path d="M13.0476 10.6C14.4941 10.6 15.6667 9.40609 15.6667 7.93333C15.6667 6.46057 14.4941 5.26666 13.0476 5.26666C11.6012 5.26666 10.4286 6.46057 10.4286 7.93333C10.4286 9.40609 11.6012 10.6 13.0476 10.6Z" fill="#FFDA2C"/>
<path fill-rule="evenodd" clip-rule="evenodd" d="M9.38098 8.46666L10.4286 10.6L13.0476 11.6667L15.6667 10.6L16.7143 8.46666V11.6667L13.0476 12.7333L9.38098 11.6667V8.46666Z" fill="#FFDA2C"/>
</g>
<rect x="0.5" y="0.5" width="23" height="17" rx="2.5" stroke="#E9EFF7"/>
<defs>
<clipPath id="clip0_14537_65571">
<rect x="1" y="1" width="22" height="16" rx="2" fill="white"/>
</clipPath>
</defs>
</svg>
