<svg width="24" height="18" viewBox="0 0 24 18" fill="none" xmlns="http://www.w3.org/2000/svg">
<g clip-path="url(#clip0_14537_65518)">
<g clip-path="url(#clip1_14537_65518)">
<rect width="22" height="16" transform="translate(1 1)" fill="#151515"/>
<path fill-rule="evenodd" clip-rule="evenodd" d="M1 11.6667H23V12.7333H1V11.6667Z" fill="white"/>
<path fill-rule="evenodd" clip-rule="evenodd" d="M1 12.7333H23V17H1V12.7333Z" fill="#0A6A30"/>
<path fill-rule="evenodd" clip-rule="evenodd" d="M1 6.33333H23V11.6667H1V6.33333Z" fill="#F93939"/>
<path fill-rule="evenodd" clip-rule="evenodd" d="M1 5.26666H23V6.33333H1V5.26666Z" fill="white"/>
<path fill-rule="evenodd" clip-rule="evenodd" d="M14.0051 7.30826C14.0806 7.30826 14.529 6.59359 14.529 5.70826C14.529 4.82506 14.0806 4.10826 14.0051 4.10826C13.9318 4.10826 13.4813 4.82506 13.4813 5.70826C13.4813 6.59359 13.9318 7.30826 14.0051 7.30826ZM10.9262 6.83999C10.8738 6.89333 10.0567 6.71199 9.44486 6.08586C8.832 5.46079 8.65181 4.63093 8.70524 4.57759C8.75762 4.52426 9.57267 4.70559 10.1866 5.33173C10.8005 5.95679 10.9796 6.78666 10.9272 6.84106L10.9262 6.83999ZM12.8947 11.6752C12.947 11.6251 13.7642 11.7957 14.377 12.3792C14.9899 12.9659 15.1701 13.7413 15.1177 13.7915C15.0653 13.8416 14.2482 13.6709 13.6343 13.0875C13.0214 12.5008 12.8412 11.7253 12.8947 11.6752ZM10.9262 11.6752C10.8738 11.6251 10.0567 11.7957 9.44486 12.3792C8.832 12.9659 8.65181 13.7413 8.70524 13.7915C8.75762 13.8416 9.57267 13.6709 10.1866 13.0875C10.8005 12.5008 10.9796 11.7253 10.9272 11.6752H10.9262Z" fill="white"/>
<path fill-rule="evenodd" clip-rule="evenodd" d="M12 13.8C12.374 13.8 14.6191 11.6507 14.6191 9C14.6191 6.34933 12.374 4.2 12 4.2C11.626 4.2 9.38098 6.34933 9.38098 9C9.38098 11.6507 11.626 13.8 12 13.8Z" fill="#F93939"/>
<path fill-rule="evenodd" clip-rule="evenodd" d="M9.90479 10.6C9.97812 10.6 10.4286 9.88319 10.4286 8.99999C10.4286 8.11679 9.97812 7.39999 9.90479 7.39999C9.83146 7.39999 9.38098 8.11679 9.38098 8.99999C9.38098 9.88319 9.83146 10.6 9.90479 10.6ZM14.0953 10.6C14.1686 10.6 14.6191 9.88319 14.6191 8.99999C14.6191 8.11679 14.1686 7.39999 14.0953 7.39999C14.0219 7.39999 13.5715 8.11679 13.5715 8.99999C13.5715 9.88319 14.0219 10.6 14.0953 10.6Z" fill="#151515"/>
<path d="M12.5238 8.99999C12.5238 8.11634 12.2893 7.39999 12 7.39999C11.7107 7.39999 11.4762 8.11634 11.4762 8.99999C11.4762 9.88365 11.7107 10.6 12 10.6C12.2893 10.6 12.5238 9.88365 12.5238 8.99999Z" fill="white"/>
</g>
</g>
<rect x="0.5" y="0.5" width="23" height="17" rx="2.5" stroke="#E9EFF7"/>
<defs>
<clipPath id="clip0_14537_65518">
<rect x="1" y="1" width="22" height="16" rx="2" fill="white"/>
</clipPath>
<clipPath id="clip1_14537_65518">
<rect width="22" height="16" fill="white" transform="translate(1 1)"/>
</clipPath>
</defs>
</svg>
