<svg width="28" height="19" viewBox="0 0 28 19" fill="none" xmlns="http://www.w3.org/2000/svg">
<g clip-path="url(#clip0_14537_65502)">
<g clip-path="url(#clip1_14537_65502)">
<path d="M26.5984 17.7467H1.25225C1.0023 17.7467 0.799622 17.544 0.799622 17.2941V1.00012C0.799622 0.750164 1.0023 0.547485 1.25225 0.547485H26.5984C26.8484 0.547485 27.0511 0.750164 27.0511 1.00012V17.2941C27.051 17.5441 26.8483 17.7467 26.5984 17.7467Z" fill="white"/>
<path d="M16.4379 5.38022C14.3582 3.99376 11.5491 4.56058 10.1636 6.6367C9.46855 7.67296 9.75107 9.08105 10.7909 9.7743C11.8299 10.4676 13.2335 10.186 13.9267 9.14611C14.62 8.10626 16.0245 7.82821 17.0635 8.51782C18.1042 9.21108 18.3841 10.6192 17.6899 11.6554C19.0764 9.57583 18.5159 6.76672 16.4379 5.38022Z" fill="#FF4B55"/>
<path d="M10.1636 6.63678C9.46862 7.67304 9.75113 9.08113 10.7909 9.77439C11.83 10.4676 13.2335 10.1861 13.9268 9.1462C14.62 8.10635 16.0245 7.8283 17.0635 8.51791C18.1043 9.21116 18.3841 10.6193 17.6899 11.6555C16.3053 13.7388 13.4971 14.2985 11.4174 12.912C9.33952 11.5256 8.77716 8.71654 10.1636 6.63678Z" fill="#41479B"/>
<path d="M18.7414 3.6708L19.5636 4.90656C19.6326 5.01039 19.6047 5.15057 19.5011 5.21994L19.2926 5.35956C19.1886 5.42918 19.0478 5.40119 18.9784 5.297L18.1552 4.06155C18.0859 3.95762 18.114 3.81718 18.2179 3.74781L18.4274 3.60794C18.5315 3.53847 18.6721 3.56661 18.7414 3.6708Z" fill="#464655"/>
<path d="M20.0102 5.5761L20.835 6.8111C20.9046 6.91539 20.8762 7.05649 20.7716 7.1256L20.5622 7.26399C20.4583 7.33269 20.3184 7.30444 20.2492 7.20092L19.4249 5.96721C19.3555 5.86333 19.3834 5.72279 19.4873 5.65332L19.6962 5.51365C19.8001 5.44418 19.9407 5.47212 20.0102 5.5761Z" fill="#464655"/>
<path d="M19.6218 3.08331L21.7152 6.22491C21.7845 6.32889 21.7564 6.46938 21.6524 6.5387L21.4421 6.67888C21.3381 6.74825 21.1976 6.7201 21.1282 6.61612L19.0341 3.47472C18.9648 3.37069 18.993 3.2301 19.097 3.16083L19.308 3.02039C19.412 2.95123 19.5525 2.97933 19.6218 3.08331Z" fill="#464655"/>
<path d="M20.4998 2.49675L21.3238 3.73493C21.3932 3.83922 21.3647 3.98001 21.2601 4.04907L21.0506 4.18751C20.9466 4.25621 20.8067 4.22796 20.7376 4.12424L19.913 2.8877C19.8437 2.78372 19.8718 2.64319 19.9758 2.57387L20.186 2.43379C20.2899 2.36442 20.4305 2.39257 20.4998 2.49675Z" fill="#464655"/>
<path d="M21.7692 4.4061L22.5918 5.64171C22.661 5.74559 22.633 5.88587 22.5293 5.95524L22.3203 6.09491C22.2163 6.16448 22.0755 6.13639 22.0062 6.0322L21.1835 4.79659C21.1144 4.69272 21.1424 4.55244 21.2461 4.48306L21.455 4.3434C21.559 4.27382 21.6998 4.30187 21.7692 4.4061Z" fill="#464655"/>
<path d="M7.60521 11.0946L9.69835 14.2328C9.76767 14.3367 9.73968 14.4772 9.6357 14.5466L9.4261 14.6866C9.32212 14.756 9.18158 14.728 9.11216 14.6239L7.01902 11.4857C6.9497 11.3818 6.97769 11.2413 7.08167 11.1719L7.29127 11.0319C7.39525 10.9625 7.53584 10.9906 7.60521 11.0946Z" fill="#464655"/>
<path d="M6.72668 11.6817L7.54847 12.9143C7.61774 13.0182 7.58979 13.1584 7.48607 13.2279L7.2776 13.3674C7.17367 13.437 7.03298 13.4091 6.9635 13.305L6.14074 12.0727C6.07131 11.9688 6.09931 11.8282 6.20329 11.7588L6.41279 11.619C6.51672 11.5496 6.6573 11.5776 6.72668 11.6817Z" fill="#464655"/>
<path d="M7.99648 13.5876L8.81919 14.8234C8.88841 14.9273 8.86036 15.0676 8.75654 15.1369L8.54745 15.2767C8.44342 15.3462 8.30278 15.3182 8.23336 15.2141L7.41013 13.9786C7.34086 13.8746 7.36896 13.7342 7.47278 13.6648L7.68238 13.5249C7.78647 13.4553 7.92711 13.4835 7.99648 13.5876Z" fill="#464655"/>
<path d="M5.84782 12.2684L7.93963 15.4068C8.0089 15.5107 7.98085 15.6511 7.87713 15.7205L7.66809 15.8603C7.56411 15.9298 7.42347 15.9018 7.35405 15.7977L5.26101 12.6598C5.19164 12.5558 5.21979 12.4152 5.32377 12.3459L5.53409 12.2057C5.63796 12.1364 5.7785 12.1645 5.84782 12.2684Z" fill="#464655"/>
<path d="M7.01949 6.81134L9.11232 3.67056C9.18169 3.56648 9.32228 3.53838 9.42631 3.6078L9.63586 3.74772C9.73979 3.81709 9.76778 3.95758 9.69852 4.06151L7.60486 7.20055C7.53565 7.30427 7.39562 7.33247 7.29169 7.26367L7.08296 7.12549C6.97847 7.05637 6.95007 6.91553 7.01949 6.81134Z" fill="#464655"/>
<path d="M6.1403 6.22514L8.23349 3.08374C8.30287 2.97966 8.44356 2.95156 8.54759 3.02109L8.75663 3.16085C8.8604 3.23023 8.8884 3.37051 8.81918 3.47444L6.72655 6.61599C6.65718 6.72007 6.51659 6.74822 6.41256 6.67875L6.20296 6.53882C6.09908 6.4695 6.07104 6.32907 6.1403 6.22514Z" fill="#464655"/>
<path d="M5.26057 5.64168L7.35397 2.49715C7.42334 2.39302 7.56408 2.36487 7.66811 2.4344L7.87715 2.57417C7.98092 2.64354 8.00892 2.78372 7.9398 2.88764L5.84769 6.03263C5.77842 6.13677 5.63778 6.16497 5.53375 6.09559L5.32343 5.95542C5.2195 5.8861 5.1914 5.74566 5.26057 5.64168Z" fill="#464655"/>
<path d="M18.1556 14.2328L18.9783 13.0005C19.0478 12.8965 19.1885 12.8685 19.2924 12.9381L19.5009 13.0777C19.6046 13.1471 19.6325 13.2874 19.5633 13.3913L18.7415 14.6239C18.6721 14.7279 18.5315 14.756 18.4276 14.6866L18.2181 14.5467C18.1141 14.4773 18.0861 14.3368 18.1556 14.2328Z" fill="#464655"/>
<path d="M19.4246 12.3333L20.2487 11.0949C20.3181 10.9908 20.4586 10.9626 20.5627 11.032L20.7727 11.172C20.8767 11.2413 20.9048 11.382 20.8354 11.486L20.0095 12.7224C19.9403 12.8262 19.8003 12.8543 19.6963 12.7853L19.4881 12.6473C19.3837 12.5782 19.3553 12.4375 19.4246 12.3333Z" fill="#464655"/>
<path d="M19.0341 14.8229L19.8574 13.5874C19.9267 13.4833 20.0672 13.4552 20.1713 13.5246L20.3817 13.6649C20.4856 13.7342 20.5137 13.8746 20.4445 13.9786L19.6217 15.2143C19.5525 15.3183 19.412 15.3465 19.3079 15.2772L19.0969 15.1368C18.993 15.0675 18.9648 14.927 19.0341 14.8229Z" fill="#464655"/>
<path d="M20.3047 12.9138L21.1284 11.6811C21.1978 11.5773 21.3382 11.5493 21.4421 11.6185L21.6525 11.7587C21.7565 11.8281 21.7846 11.9687 21.7151 12.0727L20.8914 13.3054C20.822 13.4092 20.6816 13.4372 20.5777 13.3679L20.3673 13.2278C20.2632 13.1585 20.2351 13.0178 20.3047 12.9138Z" fill="#464655"/>
<path d="M19.9132 15.4066L20.7374 14.1732C20.8066 14.0696 20.9464 14.0414 21.0503 14.1101L21.2598 14.2485C21.3644 14.3176 21.3929 14.4586 21.3233 14.5629L20.4998 15.7979C20.4304 15.9019 20.2899 15.9299 20.1859 15.8607L19.9757 15.7206C19.8717 15.6512 19.8437 15.5105 19.9132 15.4066Z" fill="#464655"/>
<path d="M21.1838 13.5038L22.006 12.2689C22.0754 12.1647 22.2161 12.1366 22.3201 12.2062L22.5289 12.3457C22.6327 12.4152 22.6607 12.5556 22.5914 12.6595L21.7685 13.8927C21.6993 13.9965 21.5592 14.0246 21.4552 13.9557L21.2471 13.8178C21.1428 13.7487 21.1145 13.6079 21.1838 13.5038Z" fill="#464655"/>
</g>
</g>
<rect x="0.5" y="0.5" width="27" height="17.25" rx="2.5" stroke="#E9EFF7"/>
<defs>
<clipPath id="clip0_14537_65502">
<rect x="1" y="1" width="26" height="16.25" rx="2" fill="white"/>
</clipPath>
<clipPath id="clip1_14537_65502">
<rect width="26.2514" height="26.2514" fill="white" transform="translate(0.798828 -3.9787)"/>
</clipPath>
</defs>
</svg>
