<svg width="24" height="18" viewBox="0 0 24 18" fill="none" xmlns="http://www.w3.org/2000/svg">
<g clip-path="url(#clip0_14537_65625)">
<rect width="22" height="16" transform="translate(1 1)" fill="#F93939"/>
<path fill-rule="evenodd" clip-rule="evenodd" d="M11.692 11.1173C11.7936 11.128 11.8963 11.1333 12 11.1333C12.1048 11.1333 12.2064 11.128 12.308 11.1173L12 10.3333L11.692 11.1173ZM10.2715 10.536C9.72355 10.0944 9.38098 9.45013 9.38098 8.73333C9.38098 7.88746 9.8587 7.144 10.5795 6.71733L11.4762 8.99999L10.2715 10.536ZM13.4206 6.71733C14.1414 7.144 14.6191 7.88746 14.6191 8.73333C14.6191 9.4512 14.2755 10.0955 13.7286 10.536L12.5238 8.99999L13.4206 6.71733ZM13.3158 6.65759C12.9282 6.45066 12.4798 6.33333 12 6.33333C11.5202 6.33333 11.0708 6.45066 10.6842 6.65759L12 8.33226L13.3158 6.65759Z" fill="#FFDA2C"/>
<path fill-rule="evenodd" clip-rule="evenodd" d="M12 13.8C14.6033 13.8 16.7143 11.6507 16.7143 9C16.7143 6.34933 14.6033 4.2 12 4.2C9.39666 4.2 7.28571 6.34933 7.28571 9C7.28571 11.6507 9.39666 13.8 12 13.8ZM12 12.7333C14.025 12.7333 15.6667 11.0619 15.6667 9C15.6667 6.93813 14.025 5.26666 12 5.26666C9.97494 5.26666 8.33332 6.93813 8.33332 9C8.33332 11.0619 9.97494 12.7333 12 12.7333Z" fill="#FFDA2C"/>
</g>
<rect x="0.5" y="0.5" width="23" height="17" rx="2.5" stroke="#E9EFF7"/>
<defs>
<clipPath id="clip0_14537_65625">
<rect x="1" y="1" width="22" height="16" rx="2" fill="white"/>
</clipPath>
</defs>
</svg>
