<svg width="24" height="18" viewBox="0 0 24 18" fill="none" xmlns="http://www.w3.org/2000/svg">
<g clip-path="url(#clip0_14537_65587)">
<rect width="22" height="16" transform="translate(1 1)" fill="white"/>
<rect x="1" y="1" width="22" height="1.14872" fill="#AF010D"/>
<rect x="1" y="3.29742" width="22" height="1.14872" fill="#AF010D"/>
<rect x="1" y="5.59488" width="22" height="1.14872" fill="#AF010D"/>
<rect x="1" y="7.8923" width="22" height="1.14872" fill="#AF010D"/>
<rect x="1" y="10.1898" width="22" height="1.14872" fill="#AF010D"/>
<rect x="1" y="12.4872" width="22" height="1.14872" fill="#AF010D"/>
<rect x="1" y="14.7846" width="22" height="1.14872" fill="#AF010D"/>
<path fill-rule="evenodd" clip-rule="evenodd" d="M1 1H12.5238V10.1947H1V1Z" fill="#1A47B8"/>
<path fill-rule="evenodd" clip-rule="evenodd" d="M8.33331 5.26666H9.38093V6.33333H8.33331V5.26666Z" fill="#FFDA2C"/>
<path fill-rule="evenodd" clip-rule="evenodd" d="M8.85717 7.4C8.37946 8.04746 7.61888 8.46666 6.76193 8.46666C5.31622 8.46666 4.14288 7.272 4.14288 5.8C4.14288 4.328 5.31622 3.13333 6.76193 3.13333C7.61888 3.13333 8.37946 3.55253 8.85717 4.2H7.28574C6.41831 4.2 5.71431 4.9168 5.71431 5.8C5.71431 6.6832 6.41831 7.4 7.28574 7.4H8.85717Z" fill="#FFDA2C"/>
</g>
<rect x="0.5" y="0.5" width="23" height="17" rx="2.5" stroke="#E9EFF7"/>
<defs>
<clipPath id="clip0_14537_65587">
<rect x="1" y="1" width="22" height="16" rx="2" fill="white"/>
</clipPath>
</defs>
</svg>
