<svg width="24" height="18" viewBox="0 0 24 18" fill="none" xmlns="http://www.w3.org/2000/svg">
<g clip-path="url(#clip0_14537_65702)">
<rect width="22" height="16" transform="translate(1 1)" fill="#3A99FF"/>
<path fill-rule="evenodd" clip-rule="evenodd" d="M11.4762 5.26668H10.9471C10.6538 5.26668 10.4286 5.50561 10.4286 5.80001C10.4286 6.08588 10.6611 6.33335 10.9471 6.33335H11.4762V6.87201C11.4762 7.17068 11.7109 7.40001 12 7.40001C12.2808 7.40001 12.5238 7.16321 12.5238 6.87201V6.33335H13.0529C13.3462 6.33335 13.5714 6.09441 13.5714 5.80001C13.5714 5.51415 13.3389 5.26668 13.0529 5.26668H12.5238V4.72801C12.5238 4.42935 12.2891 4.20001 12 4.20001C11.7192 4.20001 11.4762 4.43681 11.4762 4.72801V5.26668ZM15.6667 8.46668H15.1376C14.8443 8.46668 14.6191 8.70561 14.6191 9.00001C14.6191 9.28588 14.8516 9.53335 15.1376 9.53335H15.6667V10.072C15.6667 10.3707 15.9013 10.6 16.1905 10.6C16.4712 10.6 16.7143 10.3632 16.7143 10.072V9.53335H17.2433C17.5367 9.53335 17.7619 9.29441 17.7619 9.00001C17.7619 8.71415 17.5293 8.46668 17.2433 8.46668H16.7143V7.92801C16.7143 7.62935 16.4796 7.40001 16.1905 7.40001C15.9097 7.40001 15.6667 7.63681 15.6667 7.92801V8.46668ZM11.4762 11.6667H10.9471C10.6538 11.6667 10.4286 11.9056 10.4286 12.2C10.4286 12.4859 10.6611 12.7333 10.9471 12.7333H11.4762V13.272C11.4762 13.5707 11.7109 13.8 12 13.8C12.2808 13.8 12.5238 13.5632 12.5238 13.272V12.7333H13.0529C13.3462 12.7333 13.5714 12.4944 13.5714 12.2C13.5714 11.9141 13.3389 11.6667 13.0529 11.6667H12.5238V11.128C12.5238 10.8293 12.2891 10.6 12 10.6C11.7192 10.6 11.4762 10.8368 11.4762 11.128V11.6667ZM7.28572 8.46668H6.75667C6.46334 8.46668 6.2381 8.70561 6.2381 9.00001C6.2381 9.28588 6.47067 9.53335 6.75667 9.53335H7.28572V10.072C7.28572 10.3707 7.52038 10.6 7.80953 10.6C8.09029 10.6 8.33334 10.3632 8.33334 10.072V9.53335H8.86238C9.15572 9.53335 9.38096 9.29441 9.38096 9.00001C9.38096 8.71415 9.14838 8.46668 8.86238 8.46668H8.33334V7.92801C8.33334 7.62935 8.09867 7.40001 7.80953 7.40001C7.52876 7.40001 7.28572 7.63681 7.28572 7.92801V8.46668Z" fill="white"/>
</g>
<rect x="0.5" y="0.5" width="23" height="17" rx="2.5" stroke="#E9EFF7"/>
<defs>
<clipPath id="clip0_14537_65702">
<rect x="1" y="1" width="22" height="16" rx="2" fill="white"/>
</clipPath>
</defs>
</svg>
