<svg width="24" height="18" viewBox="0 0 24 18" fill="none" xmlns="http://www.w3.org/2000/svg">
<g clip-path="url(#clip0_14537_65594)">
<g clip-path="url(#clip1_14537_65594)">
<rect width="22" height="16" transform="translate(1 1)" fill="#1A47B8"/>
<path fill-rule="evenodd" clip-rule="evenodd" d="M1 1H8.33333V17H1V1Z" fill="#F93939"/>
<path fill-rule="evenodd" clip-rule="evenodd" d="M3.09521 8.46667H4.14283V12.7333H3.09521V8.46667ZM6.23807 8.46667H7.28569V12.7333H6.23807V8.46667Z" fill="#FFDA2C"/>
<path d="M5.1905 12.7333C5.76909 12.7333 6.23812 12.2558 6.23812 11.6667C6.23812 11.0776 5.76909 10.6 5.1905 10.6C4.61192 10.6 4.14288 11.0776 4.14288 11.6667C4.14288 12.2558 4.61192 12.7333 5.1905 12.7333Z" fill="#FFDA2C"/>
<path d="M5.1905 9.53333C5.76909 9.53333 6.23812 9.05576 6.23812 8.46666C6.23812 7.87756 5.76909 7.39999 5.1905 7.39999C4.61192 7.39999 4.14288 7.87756 4.14288 8.46666C4.14288 9.05576 4.61192 9.53333 5.1905 9.53333Z" fill="#FFDA2C"/>
<path fill-rule="evenodd" clip-rule="evenodd" d="M5.1905 4.20001L6.23812 6.33335H4.14288L5.1905 4.20001Z" fill="#FFDA2C"/>
<path fill-rule="evenodd" clip-rule="evenodd" d="M15.6667 1H23V17H15.6667V1Z" fill="#F93939"/>
</g>
</g>
<rect x="0.5" y="0.5" width="23" height="17" rx="2.5" stroke="#E9EFF7"/>
<defs>
<clipPath id="clip0_14537_65594">
<rect x="1" y="1" width="22" height="16" rx="2" fill="white"/>
</clipPath>
<clipPath id="clip1_14537_65594">
<rect width="22" height="16" fill="white" transform="translate(1 1)"/>
</clipPath>
</defs>
</svg>
