<svg width="24" height="18" viewBox="0 0 24 18" fill="none" xmlns="http://www.w3.org/2000/svg">
<g clip-path="url(#clip0_14537_65609)">
<g clip-path="url(#clip1_14537_65609)">
<rect width="22" height="16" transform="translate(1 1)" fill="#1A47B8"/>
<path d="M20.9048 1H3.09524C1.93807 1 1 1.95513 1 3.13333V14.8667C1 16.0449 1.93807 17 3.09524 17H20.9048C22.0619 17 23 16.0449 23 14.8667V3.13333C23 1.95513 22.0619 1 20.9048 1Z" fill="#1A47B8"/>
<path fill-rule="evenodd" clip-rule="evenodd" d="M16.7143 5.26666V6.33333H17.7619V5.26666H16.7143ZM18.8095 7.4V8.46666H19.8571V7.4H18.8095ZM14.619 8.46666V9.53333H15.6666V8.46666H14.619ZM16.7143 12.7333V13.8H17.7619V12.7333H16.7143Z" fill="#F93939"/>
<path d="M10.4286 2.06668H3.09523C2.51664 2.06668 2.04761 2.54424 2.04761 3.13335V8.46668C2.04761 9.05579 2.51664 9.53335 3.09523 9.53335H10.4286C11.0071 9.53335 11.4762 9.05579 11.4762 8.46668V3.13335C11.4762 2.54424 11.0071 2.06668 10.4286 2.06668Z" fill="white"/>
<path fill-rule="evenodd" clip-rule="evenodd" d="M6.23807 6.33333H3.09521V5.26666H6.23807V3.13333H7.28569V5.26666H10.4285V6.33333H7.28569V8.46666H6.23807V6.33333ZM8.85712 7.4V8.46666H10.4285V7.4H8.85712ZM8.85712 3.13333V4.2H10.4285V3.13333H8.85712ZM3.09521 7.4V8.46666H4.66664V7.4H3.09521ZM3.09521 3.13333V4.2H4.66664V3.13333H3.09521Z" fill="#F93939"/>
</g>
</g>
<rect x="0.5" y="0.5" width="23" height="17" rx="2.5" stroke="#E9EFF7"/>
<defs>
<clipPath id="clip0_14537_65609">
<rect x="1" y="1" width="22" height="16" rx="2" fill="white"/>
</clipPath>
<clipPath id="clip1_14537_65609">
<rect width="22" height="16" fill="white" transform="translate(1 1)"/>
</clipPath>
</defs>
</svg>
