<svg width="24" height="18" viewBox="0 0 24 18" fill="none" xmlns="http://www.w3.org/2000/svg">
<g clip-path="url(#clip0_14537_65610)">
<g clip-path="url(#clip1_14537_65610)">
<rect width="22" height="16" transform="translate(1 1)" fill="#F93939"/>
<path d="M20.9048 1H3.09524C1.93807 1 1 1.95513 1 3.13333V14.8667C1 16.0449 1.93807 17 3.09524 17H20.9048C22.0619 17 23 16.0449 23 14.8667V3.13333C23 1.95513 22.0619 1 20.9048 1Z" fill="#F93939"/>
<path fill-rule="evenodd" clip-rule="evenodd" d="M7 12H23V17H7V12Z" fill="#249F58"/>
<path fill-rule="evenodd" clip-rule="evenodd" d="M7 1H23V6H7V1ZM5.7939 5.1632C5.73628 5.25173 5.67028 5.33387 5.59485 5.41173C4.9799 6.0368 3.98466 6.0368 3.37181 5.41173C2.7579 4.78773 2.7579 3.7744 3.37181 3.1504C3.44723 3.07147 3.52895 3.00427 3.6159 2.9456C3.38019 3.3936 3.574 4.1104 4.11247 4.6576C4.65095 5.20373 5.3539 5.40213 5.79495 5.16213L5.7939 5.1632Z" fill="white"/>
<path fill-rule="evenodd" clip-rule="evenodd" d="M3.53944 5.16319C3.59706 5.25172 3.66306 5.33385 3.73849 5.41172C4.35344 6.03679 5.34868 6.03679 5.96153 5.41172C6.57544 4.78772 6.57544 3.77439 5.96153 3.15039C5.88611 3.07145 5.80439 3.00425 5.71744 2.94559C5.95315 3.39359 5.75934 4.11039 5.22087 4.65759C4.68239 5.20372 3.97944 5.40212 3.53839 5.16212L3.53944 5.16319Z" fill="white"/>
</g>
</g>
<rect x="0.5" y="0.5" width="23" height="17" rx="2.5" stroke="#E9EFF7"/>
<defs>
<clipPath id="clip0_14537_65610">
<rect x="1" y="1" width="22" height="16" rx="2" fill="white"/>
</clipPath>
<clipPath id="clip1_14537_65610">
<rect width="22" height="16" fill="white" transform="translate(1 1)"/>
</clipPath>
</defs>
</svg>
