<svg width="24" height="18" viewBox="0 0 24 18" fill="none" xmlns="http://www.w3.org/2000/svg">
<g clip-path="url(#clip0_14537_65688)">
<rect width="22" height="16" transform="translate(1 1)" fill="#0A6A30"/>
<path fill-rule="evenodd" clip-rule="evenodd" d="M17.7347 7.37227C17.6655 8.008 17.4686 8.46667 17.2381 8.46667C17.0076 8.46667 16.8107 8.008 16.7415 7.37227C16.1171 7.30187 15.6667 7.10133 15.6667 6.86667C15.6667 6.632 16.1171 6.43147 16.7415 6.36107C16.8107 5.72533 17.0076 5.26667 17.2381 5.26667C17.4686 5.26667 17.6655 5.72533 17.7347 6.36107C18.359 6.43147 18.8095 6.632 18.8095 6.86667C18.8095 7.10133 18.359 7.30187 17.7347 7.37227ZM1 1H7V17H1V1Z" fill="white"/>
<path fill-rule="evenodd" clip-rule="evenodd" d="M19.8257 8.43255C19.8467 8.61921 19.8572 8.80801 19.8572 9.00001C19.8572 11.6507 17.7462 13.8 15.1429 13.8C12.5395 13.8 10.4286 11.6507 10.4286 9.00001C10.4286 6.34935 12.5395 4.20001 15.1429 4.20001C15.3314 4.20001 15.5169 4.21068 15.7002 4.23201C13.9067 4.47735 12.5238 6.04215 12.5238 7.93335C12.5238 9.99521 14.1654 11.6667 16.1905 11.6667C18.049 11.6667 19.5848 10.2587 19.8257 8.43255Z" fill="white"/>
</g>
<rect x="0.5" y="0.5" width="23" height="17" rx="2.5" stroke="#E9EFF7"/>
<defs>
<clipPath id="clip0_14537_65688">
<rect x="1" y="1" width="22" height="16" rx="2" fill="white"/>
</clipPath>
</defs>
</svg>
