<svg width="24" height="18" viewBox="0 0 24 18" fill="none" xmlns="http://www.w3.org/2000/svg">
<g clip-path="url(#clip0_14537_65677)">
<g clip-path="url(#clip1_14537_65677)">
<rect width="22" height="16" transform="translate(1 1)" fill="white"/>
<path d="M20.9048 1H3.09524C1.93807 1 1 1.95513 1 3.13333V14.8667C1 16.0449 1.93807 17 3.09524 17H20.9048C22.0619 17 23 16.0449 23 14.8667V3.13333C23 1.95513 22.0619 1 20.9048 1Z" fill="white"/>
<path fill-rule="evenodd" clip-rule="evenodd" d="M7.25849 6.30561C7.18935 6.94135 6.9924 7.40001 6.76192 7.40001C6.53144 7.40001 6.33449 6.94135 6.26535 6.30561C5.64097 6.23521 5.19049 6.03468 5.19049 5.80001C5.19049 5.56535 5.64097 5.36481 6.26535 5.29441C6.33449 4.65868 6.53144 4.20001 6.76192 4.20001C6.9924 4.20001 7.18935 4.65868 7.25849 5.29441C7.88287 5.36481 8.33335 5.56535 8.33335 5.80001C8.33335 6.03468 7.88287 6.23521 7.25849 6.30561Z" fill="#1A47B8"/>
<path fill-rule="evenodd" clip-rule="evenodd" d="M17.7347 13.7723C17.6655 14.408 17.4686 14.8667 17.2381 14.8667C17.0076 14.8667 16.8107 14.408 16.7415 13.7723C16.1172 13.7019 15.6667 13.5013 15.6667 13.2667C15.6667 13.032 16.1172 12.8315 16.7415 12.7611C16.8107 12.1253 17.0066 11.6667 17.2381 11.6667C17.4686 11.6667 17.6655 12.1253 17.7347 12.7611C18.3591 12.8315 18.8095 13.0309 18.8095 13.2667C18.8095 13.5013 18.3591 13.7019 17.7347 13.7723Z" fill="#F93939"/>
<path fill-rule="evenodd" clip-rule="evenodd" d="M1 9H12V17H1V9Z" fill="#1A47B8"/>
<path fill-rule="evenodd" clip-rule="evenodd" d="M12 1H23V9H12V1Z" fill="#F93939"/>
</g>
</g>
<rect x="0.5" y="0.5" width="23" height="17" rx="2.5" stroke="#E9EFF7"/>
<defs>
<clipPath id="clip0_14537_65677">
<rect x="1" y="1" width="22" height="16" rx="2" fill="white"/>
</clipPath>
<clipPath id="clip1_14537_65677">
<rect width="22" height="16" fill="white" transform="translate(1 1)"/>
</clipPath>
</defs>
</svg>
