<svg width="24" height="18" viewBox="0 0 24 18" fill="none" xmlns="http://www.w3.org/2000/svg">
<g clip-path="url(#clip0_14537_65663)">
<g clip-path="url(#clip1_14537_65663)">
<rect width="22" height="16" transform="translate(1 1)" fill="#AF010D"/>
<path fill-rule="evenodd" clip-rule="evenodd" d="M13.5714 4.2L15.6667 6.33333C15.6667 6.33333 13.5714 5.26666 12.5238 6.33333L11.4762 7.4H14.6191L19.8571 10.6L17.7619 7.4H19.8571C19.8571 7.4 19.8571 6.33333 18.8095 5.26666C17.7619 4.2 16.7143 4.2 16.7143 4.2V3.13333L15.6667 4.2H13.5714Z" fill="#FFDA2C"/>
<path fill-rule="evenodd" clip-rule="evenodd" d="M1 1L23 17H1V1Z" fill="#151515"/>
<path d="M6.76191 9.53334C7.0512 9.53334 7.28572 9.29456 7.28572 9.00001C7.28572 8.70546 7.0512 8.46667 6.76191 8.46667C6.47262 8.46667 6.2381 8.70546 6.2381 9.00001C6.2381 9.29456 6.47262 9.53334 6.76191 9.53334Z" fill="white"/>
<path d="M4.66669 11.6667C4.95598 11.6667 5.1905 11.4279 5.1905 11.1333C5.1905 10.8388 4.95598 10.6 4.66669 10.6C4.3774 10.6 4.14288 10.8388 4.14288 11.1333C4.14288 11.4279 4.3774 11.6667 4.66669 11.6667Z" fill="white"/>
<path d="M8.85712 11.6667C9.14641 11.6667 9.38093 11.4279 9.38093 11.1333C9.38093 10.8388 9.14641 10.6 8.85712 10.6C8.56783 10.6 8.33331 10.8388 8.33331 11.1333C8.33331 11.4279 8.56783 11.6667 8.85712 11.6667Z" fill="white"/>
<path d="M6.76191 14.8667C7.0512 14.8667 7.28572 14.6279 7.28572 14.3333C7.28572 14.0388 7.0512 13.8 6.76191 13.8C6.47262 13.8 6.2381 14.0388 6.2381 14.3333C6.2381 14.6279 6.47262 14.8667 6.76191 14.8667Z" fill="white"/>
<path d="M7.80952 13.8C8.09881 13.8 8.33332 13.5612 8.33332 13.2667C8.33332 12.9721 8.09881 12.7333 7.80952 12.7333C7.52022 12.7333 7.28571 12.9721 7.28571 13.2667C7.28571 13.5612 7.52022 13.8 7.80952 13.8Z" fill="white"/>
</g>
</g>
<rect x="0.5" y="0.5" width="23" height="17" rx="2.5" stroke="#E9EFF7"/>
<defs>
<clipPath id="clip0_14537_65663">
<rect x="1" y="1" width="22" height="16" rx="2" fill="white"/>
</clipPath>
<clipPath id="clip1_14537_65663">
<rect width="22" height="16" fill="white" transform="translate(1 1)"/>
</clipPath>
</defs>
</svg>
