<svg width="24" height="18" viewBox="0 0 24 18" fill="none" xmlns="http://www.w3.org/2000/svg">
<g clip-path="url(#clip0_14537_65619)">
<g clip-path="url(#clip1_14537_65619)">
<rect width="22" height="16" transform="translate(1 1)" fill="white"/>
<path fill-rule="evenodd" clip-rule="evenodd" d="M1 12H23V17H1V12Z" fill="#1A47B8"/>
<path fill-rule="evenodd" clip-rule="evenodd" d="M13.96 9C13.9867 9.10778 14 9.21889 14 9.33333C14 10.2533 13.104 11 12 11C10.896 11 10 10.2533 10 9.33333C10 9.21889 10.0133 9.10778 10.04 9C10.2267 9.50667 11.032 9.88889 12 9.88889C12.968 9.88889 13.7733 9.50667 13.96 9Z" fill="#249F58"/>
<path d="M12 8C12.5523 8 13 7.77614 13 7.5C13 7.22386 12.5523 7 12 7C11.4477 7 11 7.22386 11 7.5C11 7.77614 11.4477 8 12 8Z" fill="#FFDA2C"/>
<path fill-rule="evenodd" clip-rule="evenodd" d="M1 1H23V6H1V1Z" fill="#F93939"/>
</g>
</g>
<rect x="0.5" y="0.5" width="23" height="17" rx="2.5" stroke="#E9EFF7"/>
<defs>
<clipPath id="clip0_14537_65619">
<rect x="1" y="1" width="22" height="16" rx="2" fill="white"/>
</clipPath>
<clipPath id="clip1_14537_65619">
<rect width="22" height="16" fill="white" transform="translate(1 1)"/>
</clipPath>
</defs>
</svg>
