<svg width="24" height="19" viewBox="0 0 24 19" fill="none" xmlns="http://www.w3.org/2000/svg">
<g clip-path="url(#clip0_14537_65624)">
<g clip-path="url(#clip1_14537_65624)">
<rect width="22" height="16" transform="translate(1 1.125)" fill="#1A47B8"/>
<path d="M23 1.125H1V9.125H23V1.125Z" fill="#F93939"/>
<path fill-rule="evenodd" clip-rule="evenodd" d="M1 1.125L11.4762 9.125L1 17.125V1.125Z" fill="white"/>
<path fill-rule="evenodd" clip-rule="evenodd" d="M2.04761 6.45831H4.14285L5.19046 7.52498L6.23808 6.45831H8.33332L6.23808 7.52498H4.14285L2.04761 6.45831Z" fill="#AE6A3E"/>
<path d="M5.1905 11.7917C5.76909 11.7917 6.23812 10.8366 6.23812 9.65836C6.23812 8.48015 5.76909 7.52502 5.1905 7.52502C4.61192 7.52502 4.14288 8.48015 4.14288 9.65836C4.14288 10.8366 4.61192 11.7917 5.1905 11.7917Z" fill="#3ECBF8"/>
<path fill-rule="evenodd" clip-rule="evenodd" d="M4.14283 8.59167V10.725H5.19045H6.23807V8.59167L7.28569 10.725L6.23807 11.7917H4.14283L3.09521 10.725L4.14283 8.59167Z" fill="#FFDA2C"/>
</g>
</g>
<rect x="0.5" y="0.625" width="23" height="17" rx="2.5" stroke="#E9EFF7"/>
<defs>
<clipPath id="clip0_14537_65624">
<rect x="1" y="1.125" width="22" height="16" rx="2" fill="white"/>
</clipPath>
<clipPath id="clip1_14537_65624">
<rect width="22" height="16" fill="white" transform="translate(1 1.125)"/>
</clipPath>
</defs>
</svg>
