<svg width="24" height="19" viewBox="0 0 24 19" fill="none" xmlns="http://www.w3.org/2000/svg">
<g clip-path="url(#clip0_14537_65620)">
<g clip-path="url(#clip1_14537_65620)">
<rect width="22" height="16" transform="translate(1 1.125)" fill="#1A47B8"/>
<path fill-rule="evenodd" clip-rule="evenodd" d="M1 11.7917H23V17.125H1V11.7917Z" fill="#F93939"/>
<path fill-rule="evenodd" clip-rule="evenodd" d="M1 1.125H23V6.45833H1V1.125ZM11.4029 11.7917H11.4762V6.45833H4.14286V11.7917H4.21619C4.168 11.9645 4.14286 12.1437 4.14286 12.325C4.14286 13.797 7.80952 14.9917 7.80952 14.9917C7.80952 14.9917 11.4762 13.797 11.4762 12.325C11.4762 12.1437 11.451 11.9645 11.4029 11.7917Z" fill="white"/>
<path fill-rule="evenodd" clip-rule="evenodd" d="M10.4286 11.7917V5.39166H5.19049V11.7917C5.19049 12.9703 7.80954 13.925 7.80954 13.925C7.80954 13.925 10.4286 12.9703 10.4286 11.7917Z" fill="#F93939"/>
<path fill-rule="evenodd" clip-rule="evenodd" d="M7.28572 9.65831V8.59165H6.2381V7.52498H7.28572V6.45831H8.33334V7.52498H9.38096V8.59165H8.33334V9.65831H9.90477V10.725H8.33334V11.7916H7.28572V10.725H5.71429V9.65831H7.28572Z" fill="white"/>
<path fill-rule="evenodd" clip-rule="evenodd" d="M7.80954 13.925C7.80954 13.925 10.4286 12.9703 10.4286 11.7917C10.4286 10.613 9.38097 10.725 7.80954 11.7917C6.23811 10.725 5.19049 10.613 5.19049 11.7917C5.19049 12.9703 7.80954 13.925 7.80954 13.925Z" fill="#1A47B8"/>
</g>
</g>
<rect x="0.5" y="0.625" width="23" height="17" rx="2.5" stroke="#E9EFF7"/>
<defs>
<clipPath id="clip0_14537_65620">
<rect x="1" y="1.125" width="22" height="16" rx="2" fill="white"/>
</clipPath>
<clipPath id="clip1_14537_65620">
<rect width="22" height="16" fill="white" transform="translate(1 1.125)"/>
</clipPath>
</defs>
</svg>
