<svg width="24" height="19" viewBox="0 0 24 19" fill="none" xmlns="http://www.w3.org/2000/svg">
<g clip-path="url(#clip0_14537_65659)">
<g clip-path="url(#clip1_14537_65659)">
<rect width="22" height="16" transform="translate(1 1.125)" fill="#1A47B8"/>
<path fill-rule="evenodd" clip-rule="evenodd" d="M1 12.125H23V17.125H1V12.125Z" fill="#F93939"/>
<path fill-rule="evenodd" clip-rule="evenodd" d="M1 1.125H23V6.125H1V1.125Z" fill="white"/>
<path d="M7.80951 4.32501H5.71428C5.13569 4.32501 4.66666 4.80258 4.66666 5.39168V8.05835C4.66666 8.64745 5.13569 9.12501 5.71428 9.12501H7.80951C8.3881 9.12501 8.85713 8.64745 8.85713 8.05835V5.39168C8.85713 4.80258 8.3881 4.32501 7.80951 4.32501Z" fill="#F93939"/>
<path d="M7.28573 4.32501H6.23811C5.65953 4.32501 5.19049 4.80258 5.19049 5.39168V7.52501C5.19049 8.11412 5.65953 8.59168 6.23811 8.59168H7.28573C7.86431 8.59168 8.33335 8.11412 8.33335 7.52501V5.39168C8.33335 4.80258 7.86431 4.32501 7.28573 4.32501Z" fill="#1A47B8"/>
<path fill-rule="evenodd" clip-rule="evenodd" d="M6.2381 5.39166H7.28572V6.45833H6.2381V5.39166Z" fill="#FFDA2C"/>
<path fill-rule="evenodd" clip-rule="evenodd" d="M5.19049 7.52497L6.76192 6.99164L8.33335 7.52497L7.28573 8.59164H6.23811L5.19049 7.52497Z" fill="white"/>
</g>
</g>
<rect x="0.5" y="0.625" width="23" height="17" rx="2.5" stroke="#E9EFF7"/>
<defs>
<clipPath id="clip0_14537_65659">
<rect x="1" y="1.125" width="22" height="16" rx="2" fill="white"/>
</clipPath>
<clipPath id="clip1_14537_65659">
<rect width="22" height="16" fill="white" transform="translate(1 1.125)"/>
</clipPath>
</defs>
</svg>
