<svg width="24" height="19" viewBox="0 0 24 19" fill="none" xmlns="http://www.w3.org/2000/svg">
<g clip-path="url(#clip0_14537_65607)">
<g clip-path="url(#clip1_14537_65607)">
<rect width="22" height="16" transform="translate(1 1.25)" fill="#1A47B8"/>
<path fill-rule="evenodd" clip-rule="evenodd" d="M1 17.25H23V1.25L1 17.25Z" fill="#FFDA2C"/>
<path fill-rule="evenodd" clip-rule="evenodd" d="M3.09521 17.25H23V3.38336L3.09521 17.25Z" fill="#249F58"/>
<path fill-rule="evenodd" clip-rule="evenodd" d="M6.36588 7.28523L5.71845 7.65003L5.84207 6.87776L5.31826 6.33163L6.04112 6.21856L6.36588 5.5167L6.69064 6.21856L7.4135 6.33163L6.88969 6.87776L7.01331 7.65003L6.36588 7.28523ZM4.27064 5.1519L3.62321 5.5167L3.74683 4.74443L3.22302 4.1983L3.94588 4.08523L4.27064 3.38336L4.5954 4.08523L5.31826 4.1983L4.79445 4.74443L4.91807 5.5167L4.27064 5.1519ZM8.46112 5.1519L7.81369 5.5167L7.93731 4.74443L7.4135 4.1983L8.13635 4.08523L8.46112 3.38336L8.78588 4.08523L9.50874 4.1983L8.98493 4.74443L9.10855 5.5167L8.46112 5.1519ZM8.46112 9.41856L7.81369 9.78336L7.93731 9.0111L7.4135 8.46496L8.13635 8.35189L8.46112 7.65003L8.78588 8.35189L9.50874 8.46496L8.98493 9.0111L9.10855 9.78336L8.46112 9.41856ZM4.27064 9.41856L3.62321 9.78336L3.74683 9.0111L3.22302 8.46496L3.94588 8.35189L4.27064 7.65003L4.5954 8.35189L5.31826 8.46496L4.79445 9.0111L4.91807 9.78336L4.27064 9.41856Z" fill="white"/>
</g>
</g>
<rect x="0.5" y="0.75" width="23" height="17" rx="2.5" stroke="#E9EFF7"/>
<defs>
<clipPath id="clip0_14537_65607">
<rect x="1" y="1.25" width="22" height="16" rx="2" fill="white"/>
</clipPath>
<clipPath id="clip1_14537_65607">
<rect width="22" height="16" fill="white" transform="translate(1 1.25)"/>
</clipPath>
</defs>
</svg>
