<svg width="24" height="19" viewBox="0 0 24 19" fill="none" xmlns="http://www.w3.org/2000/svg">
<g clip-path="url(#clip0_14537_65608)">
<g clip-path="url(#clip1_14537_65608)">
<rect width="22" height="16" transform="translate(1 1.125)" fill="white"/>
<path fill-rule="evenodd" clip-rule="evenodd" d="M1 1.125H23V5.39167H1V1.125Z" fill="#151515"/>
<path fill-rule="evenodd" clip-rule="evenodd" d="M1 12.8583H23V17.125H1V12.8583Z" fill="#249F58"/>
<path fill-rule="evenodd" clip-rule="evenodd" d="M1 6.45831H23V11.7916H1V6.45831Z" fill="#F93939"/>
<path fill-rule="evenodd" clip-rule="evenodd" d="M1 1.125L13.5714 9.125L1 17.125V1.125Z" fill="#1A47B8"/>
<path fill-rule="evenodd" clip-rule="evenodd" d="M5.95853 10.4391L4.5652 11.4983L4.58615 9.72763L3.16663 8.70363L4.8271 8.17883L5.34358 6.48816L6.34929 7.93349L8.08834 7.91216L7.04701 9.33083L7.60539 11.0076L5.95853 10.4391Z" fill="#FFDA2C"/>
</g>
</g>
<rect x="0.5" y="0.625" width="23" height="17" rx="2.5" stroke="#E9EFF7"/>
<defs>
<clipPath id="clip0_14537_65608">
<rect x="1" y="1.125" width="22" height="16" rx="2" fill="white"/>
</clipPath>
<clipPath id="clip1_14537_65608">
<rect width="22" height="16" fill="white" transform="translate(1 1.125)"/>
</clipPath>
</defs>
</svg>
