<svg width="24" height="19" viewBox="0 0 24 19" fill="none" xmlns="http://www.w3.org/2000/svg">
<g clip-path="url(#clip0_14537_65691)">
<g clip-path="url(#clip1_14537_65691)">
<rect width="22" height="16" transform="translate(1 1.25)" fill="white"/>
<path d="M20.9048 1.25H3.09524C1.93807 1.25 1 2.20513 1 3.38333V15.1167C1 16.2949 1.93807 17.25 3.09524 17.25H20.9048C22.0619 17.25 23 16.2949 23 15.1167V3.38333C23 2.20513 22.0619 1.25 20.9048 1.25Z" fill="white"/>
<path fill-rule="evenodd" clip-rule="evenodd" d="M1 11.9167H23V17.25H1V11.9167Z" fill="#1A47B8"/>
<path fill-rule="evenodd" clip-rule="evenodd" d="M1 1.25H23V6.58333H1V1.25Z" fill="#F93939"/>
<path fill-rule="evenodd" clip-rule="evenodd" d="M9.39457 11.9167L3.09524 17.2852H1V1.25H3.09524L9.38095 6.58333H23V11.9167H9.39457Z" fill="white"/>
<path fill-rule="evenodd" clip-rule="evenodd" d="M9.06667 10.85L1.52381 17.25L1 17.2852V1.25H1.52381L9.06667 7.65H23V10.85H9.06667Z" fill="#249F58"/>
<path fill-rule="evenodd" clip-rule="evenodd" d="M1 4.45001L7.28571 9.25001L1 14.05V4.45001Z" fill="#FFDA2C"/>
<path fill-rule="evenodd" clip-rule="evenodd" d="M1 5.51666L5.97619 9.25L1 12.9833V5.51666Z" fill="#151515"/>
</g>
</g>
<rect x="0.5" y="0.75" width="23" height="17" rx="2.5" stroke="#E9EFF7"/>
<defs>
<clipPath id="clip0_14537_65691">
<rect x="1" y="1.25" width="22" height="16" rx="2" fill="white"/>
</clipPath>
<clipPath id="clip1_14537_65691">
<rect width="22" height="16" fill="white" transform="translate(1 1.25)"/>
</clipPath>
</defs>
</svg>
