<svg width="24" height="19" viewBox="0 0 24 19" fill="none" xmlns="http://www.w3.org/2000/svg">
<g clip-path="url(#clip0_14537_65579)">
<g clip-path="url(#clip1_14537_65579)">
<rect width="22" height="16" transform="translate(1 1.125)" fill="#FFDA2C"/>
<rect x="1" y="1.125" width="22" height="16" fill="#FFDA2C"/>
<rect opacity="0.3" x="1" y="1.125" width="22" height="16" fill="#FF6C2D"/>
<path fill-rule="evenodd" clip-rule="evenodd" d="M3.09521 3.25836H6.23807V14.9917H3.09521V3.25836Z" fill="#0A6A30"/>
<path fill-rule="evenodd" clip-rule="evenodd" d="M6.2381 3.25836H9.38096V14.9917H6.2381V3.25836Z" fill="#FF6C2D"/>
<path opacity="0.2" fill-rule="evenodd" clip-rule="evenodd" d="M6.2381 3.25836H9.38096V14.9917H6.2381V3.25836Z" fill="#151515"/>
<path fill-rule="evenodd" clip-rule="evenodd" d="M10.4286 3.25836H20.9048V14.9917H10.4286V3.25836ZM14.1319 12.4488L14.1927 12.4019L14.2178 12.4488C14.2524 12.5128 14.3477 12.5107 14.4106 12.4488L14.4598 12.3987L14.5017 12.4467C14.5541 12.5107 14.6526 12.5107 14.7155 12.4467C14.7615 12.4019 14.7678 12.4008 14.7972 12.436C14.8139 12.4552 14.8653 12.4787 14.9103 12.4861C14.992 12.5011 14.9941 12.5 15.0413 12.4029C15.0832 12.3219 15.0884 12.2899 15.079 12.2109C15.0727 12.1576 15.0654 12.0744 15.0633 12.0243C15.0612 11.9325 15.0612 11.9315 15.1596 11.8856C15.212 11.86 15.2749 11.8259 15.299 11.8088C15.3377 11.7811 15.4456 11.6093 15.4456 11.5741C15.4456 11.5656 15.4037 11.5528 15.3514 11.5443C15.1471 11.5123 15.1125 11.3629 15.2466 11.0856C15.4635 10.6355 15.5944 10.1949 15.5955 9.91438C15.5955 9.78958 15.6007 9.74692 15.6133 9.77572C15.6615 9.88558 15.5745 10.3517 15.4425 10.6877L15.3901 10.8232L15.4404 10.8072C15.4676 10.7965 15.6321 10.7037 15.8039 10.5981C16.2754 10.3101 16.4377 10.2525 16.7436 10.2696C16.9993 10.2845 17.1082 10.3517 17.2884 10.6088C17.3848 10.7443 17.477 10.8413 17.6446 10.9843C18.005 11.2893 18.0196 11.3149 18.0364 11.6733C18.0542 12.036 18.0469 12.0573 17.8426 12.1171C17.6697 12.1683 17.5597 12.2771 17.5315 12.4296C17.5168 12.5117 17.5493 12.5149 17.6362 12.4381L17.6991 12.3827L17.7284 12.4381C17.7661 12.5128 17.8457 12.5128 17.9117 12.4381L17.961 12.3848L18.0113 12.4381C18.0909 12.5235 18.1967 12.5043 18.226 12.3955C18.2313 12.3763 18.247 12.3827 18.2784 12.4189C18.336 12.4872 18.4837 12.5171 18.5005 12.4616C18.5068 12.4424 18.4942 12.3923 18.4743 12.3507C18.3884 12.1757 18.3612 12.0915 18.3591 11.9965C18.3591 11.8643 18.3874 11.8003 18.4995 11.6915C18.6356 11.5603 18.6775 11.3928 18.5749 11.3928C18.512 11.3928 18.4471 11.3149 18.4073 11.1901C18.3235 10.9395 18.3392 10.6568 18.4638 10.1875C18.5896 9.70745 18.6042 9.62212 18.6053 9.30212C18.6053 9.04292 18.6021 8.99812 18.5581 8.85625C18.5319 8.77092 18.4775 8.64079 18.4387 8.57038L18.3685 8.44239L18.4596 8.33785C18.7394 8.02425 18.6828 7.51012 18.3444 7.31385C18.2428 7.25198 18.2166 7.24665 18.0364 7.24985C17.9275 7.24985 17.764 7.26905 17.6697 7.29252C17.5734 7.31385 17.412 7.33305 17.301 7.33305C17.125 7.33305 17.0956 7.32878 17.0286 7.27972C16.9574 7.22852 16.9448 7.20505 16.9312 7.08772C16.9291 7.06212 16.9165 7.03865 16.9039 7.03438C16.8798 7.02372 16.7677 7.15172 16.7531 7.21145C16.7447 7.23918 16.7374 7.23705 16.7143 7.20078C16.6986 7.17412 16.6766 7.11545 16.6651 7.07065C16.6368 6.95545 16.6714 6.86798 16.7698 6.80398L16.8484 6.75492L16.8044 6.71652C16.7101 6.63758 16.5498 6.69092 16.4922 6.82318C16.4755 6.85838 16.4576 6.88932 16.4524 6.88932C16.4472 6.88932 16.4157 6.85412 16.3833 6.81145C16.2617 6.65145 16.3036 6.41252 16.4671 6.33892C16.553 6.30052 16.6295 6.33038 16.6452 6.40825C16.6693 6.52772 16.7457 6.37092 16.7321 6.22905C16.7216 6.13518 16.7216 6.13092 16.7709 6.13092C16.8379 6.13092 16.9804 6.25038 17.0255 6.34425C17.0778 6.45092 17.0726 6.62158 17.015 6.74745L16.9731 6.84665L17.0296 6.83172C17.1135 6.80825 17.1973 6.73572 17.2392 6.65038C17.2832 6.55865 17.2884 6.38052 17.2496 6.28345C17.2109 6.19065 17.2151 6.17678 17.2706 6.20878C17.367 6.26212 17.4173 6.31972 17.456 6.42212C17.4916 6.51278 17.4937 6.53518 17.4749 6.63012C17.4644 6.68878 17.4382 6.76558 17.4183 6.80078C17.3869 6.85732 17.3869 6.86692 17.411 6.86692C17.456 6.86692 17.5524 6.80825 17.5859 6.76025C17.6027 6.73465 17.6278 6.67492 17.6415 6.62372L17.6656 6.53412L17.6938 6.60238C17.7336 6.69838 17.8091 6.78692 17.9034 6.84132C18.005 6.90105 18.0469 6.90532 17.9945 6.84985C17.9589 6.81252 17.8929 6.55118 17.9128 6.52665C17.9233 6.51172 18.0616 6.65465 18.2166 6.84452C18.3654 7.02585 18.4576 7.08345 18.5937 7.08345C18.7687 7.08345 18.8693 6.87865 18.7928 6.68558C18.7456 6.57252 18.644 6.55758 18.5854 6.65358C18.5581 6.69838 18.5508 6.73358 18.5581 6.77945C18.5686 6.83705 18.5644 6.84345 18.5267 6.84345C18.4743 6.84345 18.3758 6.75812 18.1998 6.55758C17.9306 6.25358 17.6027 5.99545 17.367 5.90158C17.2151 5.83972 16.8914 5.81625 16.7384 5.85465C16.5708 5.89518 16.3717 6.02532 16.2649 6.16398C16.0742 6.40932 16.0721 6.73465 16.2576 7.03225L16.3099 7.11758L16.2743 7.19225C16.2219 7.30318 16.2261 7.45145 16.2848 7.56025C16.311 7.60825 16.3372 7.64772 16.3435 7.64772C16.3497 7.64772 16.356 7.61572 16.3581 7.57838C16.3634 7.48239 16.3937 7.41838 16.4461 7.39385C16.4922 7.37038 16.5226 7.38105 16.7374 7.49625C16.9626 7.61892 17.3324 7.62638 17.7263 7.51758C17.9201 7.46638 18.1475 7.46958 18.248 7.52612C18.4314 7.63065 18.4743 7.90158 18.3392 8.10745C18.2805 8.19492 18.2239 8.23118 18.0354 8.30159C17.8908 8.35492 17.8573 8.35918 17.5294 8.35492C17.2496 8.35065 17.1491 8.35812 17.0349 8.39012C16.9113 8.42532 16.8358 8.42852 16.4713 8.41678L16.0501 8.40185L16.0973 8.45519C16.1224 8.48292 16.1601 8.51919 16.1779 8.53305C16.2094 8.55652 16.2094 8.55972 16.1612 8.58319C16.1329 8.59812 16.0721 8.60878 16.025 8.60878H15.938L15.9276 8.70905C15.9213 8.76452 15.9213 8.82638 15.9276 8.85092C15.938 8.88612 15.9349 8.89038 15.9066 8.87758C15.8898 8.86692 15.8396 8.85092 15.7956 8.83812C15.7516 8.82532 15.6929 8.80078 15.6646 8.78158C15.6164 8.74958 15.6122 8.74958 15.5934 8.79225C15.5787 8.83065 15.432 8.97785 15.41 8.97785C15.4069 8.97785 15.4027 8.94905 15.3996 8.91385C15.3996 8.87972 15.3786 8.78905 15.3535 8.71332C15.3304 8.63865 15.3053 8.55545 15.299 8.52985C15.2885 8.49145 15.2854 8.48932 15.2728 8.51918C15.2655 8.53732 15.2539 8.58852 15.2476 8.63332C15.2424 8.67598 15.2204 8.75065 15.1995 8.79332L15.1617 8.87225L15.1376 8.80398C15.1125 8.73145 15.0696 8.65465 15.0538 8.65465C15.0486 8.65465 15.0392 8.67918 15.0329 8.70798C15.0224 8.76665 14.9208 8.93198 14.8967 8.93198C14.8862 8.93198 14.8789 8.88505 14.8789 8.82852C14.8789 8.77092 14.8716 8.72505 14.8611 8.72505C14.8527 8.72505 14.8443 8.73892 14.8443 8.75705C14.8443 8.79972 14.7574 8.93092 14.7291 8.93092C14.7155 8.93092 14.6955 8.94585 14.683 8.96505C14.6516 9.01412 14.6254 9.00772 14.6379 8.95438C14.6453 8.92772 14.6411 8.86905 14.6296 8.82105L14.6013 8.70905C14.5971 8.69198 14.5667 8.69625 14.5007 8.72505C14.3938 8.77092 14.3582 8.76345 14.4127 8.70372C14.4336 8.68238 14.4651 8.60985 14.4808 8.54158C14.4976 8.47332 14.5227 8.41359 14.5374 8.40612C14.5562 8.39972 14.5552 8.40932 14.5321 8.45092C14.5164 8.48078 14.5028 8.52132 14.5028 8.54052C14.5028 8.55972 14.4892 8.60452 14.4745 8.64185C14.4598 8.68025 14.4504 8.71332 14.4536 8.71652C14.4577 8.72185 14.4976 8.70158 14.5436 8.67172L14.6275 8.61839V8.66639C14.6275 8.69305 14.6379 8.76238 14.6484 8.82212L14.6715 8.92878L14.728 8.89358C14.7856 8.85732 14.8412 8.72825 14.8412 8.62905C14.8412 8.57785 14.8621 8.58638 14.8705 8.63972L14.8998 8.76772L14.925 8.86798L14.9637 8.80398C14.9847 8.76878 15.013 8.70052 15.0245 8.65145C15.0455 8.56825 15.0748 8.53198 15.0748 8.59278C15.0748 8.63758 15.1649 8.79545 15.1816 8.78265C15.19 8.77625 15.2068 8.71652 15.2183 8.65038C15.2435 8.51172 15.2833 8.41785 15.3095 8.43705C15.3199 8.44558 15.322 8.45838 15.3168 8.46905C15.3126 8.47972 15.3325 8.57038 15.3629 8.66958C15.3943 8.76878 15.4257 8.86905 15.431 8.89145C15.4415 8.92878 15.4519 8.92345 15.5169 8.84558C15.5588 8.79759 15.5944 8.74425 15.5986 8.72612C15.6049 8.70052 15.6143 8.70158 15.651 8.73252C15.7034 8.77732 15.8815 8.84985 15.8951 8.83065C15.9003 8.82425 15.9056 8.76132 15.9056 8.69198L15.9087 8.56398L15.9611 8.57785C15.9894 8.58638 16.048 8.58532 16.092 8.57785L16.1716 8.56185L16.1015 8.49572C16.0627 8.45945 16.0229 8.41252 16.0135 8.39118C16.003 8.36985 15.9674 8.34852 15.9296 8.34532C15.8217 8.33252 15.6321 8.18852 15.6321 8.12132C15.6321 8.10745 15.6583 8.12879 15.6908 8.16932C15.762 8.25678 15.8605 8.31225 15.9464 8.31225H16.0114L15.9716 8.24185C15.9485 8.19918 15.9276 8.12239 15.9223 8.05732C15.915 7.95598 15.9066 7.93998 15.828 7.86532C15.7809 7.82052 15.7212 7.75332 15.6971 7.71598L15.6531 7.64878L15.63 7.72878C15.6175 7.77358 15.6017 7.80878 15.5965 7.80878C15.5902 7.80878 15.5651 7.78318 15.5441 7.75225C15.52 7.72025 15.4959 7.69465 15.4917 7.69465C15.4844 7.69465 15.4645 7.73732 15.4446 7.79065L15.41 7.88345L15.3828 7.83012C15.3671 7.79812 15.3325 7.74692 15.3042 7.71279C15.2759 7.67652 15.2602 7.64878 15.2707 7.64878C15.2812 7.64878 15.3168 7.68505 15.3493 7.72878L15.409 7.80985L15.4331 7.75012C15.4467 7.71598 15.4519 7.66158 15.4456 7.61785C15.4352 7.55385 15.4373 7.55172 15.4561 7.59118C15.4666 7.61678 15.5012 7.66585 15.5326 7.69785L15.5892 7.76185L15.6279 7.66585C15.6667 7.56985 15.6677 7.56985 15.6845 7.62532C15.7086 7.70212 15.8783 7.89198 16.0229 8.00078C16.0438 8.01785 16.0355 7.95812 15.9946 7.82478C15.9841 7.78958 15.9736 7.72558 15.9736 7.68292C15.9736 7.61892 15.9611 7.59012 15.9003 7.52825C15.8144 7.43865 15.7872 7.37572 15.7704 7.23172C15.7641 7.17305 15.7495 7.10798 15.7369 7.08772C15.7191 7.05572 15.7159 7.07385 15.7212 7.18158C15.7233 7.25625 15.7159 7.34585 15.7044 7.38425L15.6835 7.45252L15.6667 7.39492C15.6562 7.36292 15.6175 7.30958 15.5776 7.27225C15.5357 7.23705 15.5096 7.20185 15.5148 7.19438C15.52 7.18798 15.5619 7.21998 15.6059 7.26692C15.674 7.33838 15.6897 7.34585 15.6981 7.31492C15.7086 7.27758 15.6981 7.11652 15.6772 7.00558C15.6667 6.94798 15.6667 6.94798 15.7191 7.01625C15.7568 7.06958 15.7767 7.12932 15.7924 7.23598C15.8134 7.37145 15.8238 7.39598 15.916 7.50265C15.9716 7.56985 16.0208 7.61998 16.0229 7.61572C16.0271 7.61145 16.0334 7.44078 16.0386 7.23705C16.0491 6.84772 16.0386 6.75492 15.9684 6.63438L15.9328 6.57252L15.9883 6.49038C16.0616 6.38372 16.0952 6.29838 16.1098 6.18105L16.1224 6.08505L16.0596 6.16718C16.0072 6.23332 15.9831 6.24825 15.9234 6.24825C15.8636 6.24825 15.8396 6.23545 15.8008 6.17678C15.7526 6.10745 15.6667 6.04132 15.585 6.00825C15.5536 5.99758 15.5431 6.00185 15.5431 6.02958C15.5431 6.05092 15.5274 6.10852 15.5064 6.15972L15.4697 6.25358L15.3922 6.14905C15.344 6.08505 15.2875 6.03598 15.2456 6.02105C15.1376 5.98265 15.1324 5.98585 15.1324 6.09572C15.1324 6.25892 15.08 6.28985 14.9857 6.18105C14.9156 6.09572 14.8558 6.07865 14.7207 6.09892L14.6159 6.11492L14.6369 6.17892C14.6516 6.23225 14.6474 6.25358 14.6138 6.31438C14.5594 6.41252 14.4881 6.45518 14.3792 6.45518C14.3289 6.45518 14.266 6.46905 14.2388 6.48718C14.2126 6.50318 14.1466 6.52345 14.0921 6.52985C14.0376 6.53732 13.98 6.55118 13.9633 6.55865C13.9381 6.57145 13.935 6.56078 13.9423 6.48185C13.9559 6.36025 13.8941 6.27172 13.7956 6.27172C13.6699 6.27172 13.6123 6.42425 13.6616 6.62585C13.6708 6.65993 13.6801 6.71248 13.6865 6.74848L13.6888 6.76132C13.6961 6.79865 13.7516 6.89785 13.8229 6.99278C13.8899 7.08452 13.9528 7.17945 13.9633 7.20398C13.9737 7.22852 14.0083 7.26798 14.0397 7.29145L14.0974 7.33412L14.09 7.25198C14.0816 7.16025 14.0963 7.14532 14.1319 7.20932C14.1456 7.23385 14.178 7.27118 14.2053 7.29465C14.2472 7.32878 14.2545 7.32985 14.2545 7.29892C14.2545 7.27759 14.2629 7.23492 14.2734 7.19865L14.2943 7.13465L14.3257 7.22212C14.3446 7.27012 14.4054 7.37998 14.4598 7.46745C14.5667 7.63278 14.6316 7.81945 14.5981 7.86212C14.5845 7.88025 14.5478 7.87812 14.4724 7.85785C14.4127 7.84292 14.3394 7.83438 14.309 7.83972C14.2461 7.85038 14.243 7.83972 14.2807 7.77572C14.3205 7.70852 14.3142 7.69785 14.2356 7.69785C14.1445 7.69785 13.9193 7.63812 13.8323 7.59118C13.7485 7.54852 13.7276 7.55918 13.7035 7.66585L13.6584 7.86318L13.6343 7.96985L13.7255 7.95919C13.7757 7.95172 13.8407 7.93785 13.869 7.92505C13.8983 7.91438 13.9245 7.90798 13.9276 7.91118C13.9308 7.91545 13.9172 7.95812 13.8994 8.00505L13.8637 8.09038L13.9214 8.07545C13.9528 8.06692 13.9999 8.04558 14.0261 8.02852C14.0722 7.99865 14.0754 8.00078 14.112 8.07865C14.156 8.17465 14.1916 8.17145 14.199 8.06798C14.2074 7.96345 14.2336 7.97945 14.2828 8.11918C14.3278 8.25358 14.3771 8.30052 14.3855 8.22158C14.3886 8.19598 14.4127 8.15225 14.441 8.12559C14.4965 8.07225 14.5384 8.08932 14.5615 8.17252C14.5876 8.25785 14.5321 8.34745 14.3729 8.47972C14.0481 8.74425 13.8616 9.10692 13.8072 9.56772C13.759 9.98372 13.9098 10.4147 14.2126 10.724C14.3572 10.8733 14.5876 11.028 14.573 10.9693C14.5122 10.7155 14.5143 10.2333 14.5772 10.1512C14.5876 10.1384 14.5835 10.1885 14.5698 10.2621C14.5196 10.5373 14.5416 10.756 14.6715 11.2691C14.7867 11.7341 14.772 11.9325 14.6065 12.0627C14.5541 12.1053 14.5185 12.1117 14.376 12.1096C14.221 12.1075 14.2042 12.1117 14.1539 12.1651C14.1057 12.2184 14.0439 12.3891 14.0439 12.468C14.0439 12.5107 14.0785 12.5053 14.1487 12.4509L14.1319 12.4488ZM12.9586 11.5955C12.9754 11.5667 12.9879 11.5208 12.9879 11.4941C12.9879 11.4536 13.0016 11.4429 13.0686 11.4301L13.1493 11.4152L13.0969 11.3565C13.0319 11.2883 13.0256 11.2349 13.0822 11.2349C13.1377 11.2349 13.2331 11.156 13.2477 11.0963C13.2551 11.0707 13.2509 11.0344 13.2394 11.0152C13.2079 10.9672 13.1482 10.9747 13.1377 11.028C13.1252 11.0856 13.1063 11.0867 13.0613 11.028C12.9942 10.9427 12.9921 10.7635 13.0581 10.6589C13.0875 10.6099 13.0875 10.6056 13.0476 10.5565C13.0057 10.5011 12.9743 10.3933 12.9953 10.3677C13.0015 10.3603 13.0351 10.3677 13.0686 10.3827C13.1189 10.404 13.1388 10.4061 13.1587 10.3827C13.2215 10.3187 13.1535 10.2333 13.0539 10.2525C13.0152 10.26 12.9995 10.2525 12.9932 10.2248C12.989 10.2035 12.9544 10.1747 12.9146 10.1608C12.8455 10.1373 12.8444 10.1395 12.8444 10.2035C12.8444 10.2749 12.813 10.2888 12.7575 10.2429C12.7103 10.2056 12.6653 10.2344 12.6653 10.3016C12.6653 10.3635 12.7124 10.3944 12.7952 10.3869C12.858 10.3816 12.8612 10.4467 12.8004 10.5384L12.7564 10.6056L12.791 10.6728C12.8434 10.772 12.8381 10.9373 12.7805 11.0195L12.7386 11.0835L12.7093 11.0323C12.6695 10.9608 12.615 10.9661 12.5993 11.0429C12.5888 11.0931 12.5993 11.1155 12.6443 11.1688C12.6757 11.204 12.7208 11.2328 12.7449 11.2328C12.8056 11.2328 12.8035 11.2968 12.7407 11.3629L12.6915 11.4141L12.769 11.4301C12.8109 11.4387 12.8444 11.4557 12.8444 11.4675C12.8444 11.5101 12.8968 11.6467 12.9146 11.6467C12.9251 11.6467 12.946 11.6253 12.9596 11.5965L12.9586 11.5955ZM13.2236 9.28078C13.3976 9.17732 13.4122 8.91385 13.2488 8.84345C13.1807 8.81572 13.1377 8.83278 13.1126 8.89358C13.0916 8.94158 13.1053 9.02799 13.1335 9.02799C13.1419 9.02799 13.1493 9.04292 13.1493 9.06212C13.1493 9.15385 12.8842 9.19545 12.7763 9.12078C12.7386 9.09412 12.7239 9.02692 12.7554 9.02692C12.7763 9.02692 12.7941 8.95652 12.7826 8.90745C12.7658 8.84132 12.7155 8.81785 12.6443 8.84345C12.4819 8.90105 12.4872 9.15918 12.6516 9.27012C12.7878 9.35865 13.0854 9.36398 13.2257 9.28078H13.2236ZM13.1157 9.07812C13.1262 9.06745 13.122 9.04612 13.1053 9.02799C13.0686 8.98852 13.0707 8.92985 13.1105 8.86265C13.1419 8.81252 13.1451 8.73785 13.1555 7.98159C13.1734 6.67598 13.2446 5.69572 13.3389 5.46105C13.3766 5.36718 13.3703 5.36505 13.2739 5.45572C13.1482 5.57092 13.0539 5.72238 12.9701 5.93572C12.8109 6.34105 12.7554 6.88718 12.7554 8.05198C12.7554 8.71332 12.7596 8.79865 12.7868 8.86265C12.814 8.92025 12.8151 8.94265 12.7973 9.00559C12.7847 9.04612 12.7795 9.08558 12.7847 9.09092C12.8203 9.13785 13.078 9.12612 13.1168 9.07705L13.1157 9.07812ZM12.5238 4.32503H11.4762V5.3917H12.5238V4.32503ZM19.8572 4.32503H18.8095V5.3917H19.8572V4.32503ZM12.5238 12.8584H11.4762V13.925H12.5238V12.8584ZM19.8572 12.8584H18.8095V13.925H19.8572V12.8584Z" fill="#AF010D"/>
</g>
</g>
<rect x="0.5" y="0.625" width="23" height="17" rx="2.5" stroke="#E9EFF7"/>
<defs>
<clipPath id="clip0_14537_65579">
<rect x="1" y="1.125" width="22" height="16" rx="2" fill="white"/>
</clipPath>
<clipPath id="clip1_14537_65579">
<rect width="22" height="16" fill="white" transform="translate(1 1.125)"/>
</clipPath>
</defs>
</svg>
