<svg width="24" height="19" viewBox="0 0 24 19" fill="none" xmlns="http://www.w3.org/2000/svg">
<g clip-path="url(#clip0_14537_65668)">
<g clip-path="url(#clip1_14537_65668)">
<rect width="22" height="16" transform="translate(1 1.25)" fill="white"/>
<path fill-rule="evenodd" clip-rule="evenodd" d="M1 12.9833H23V17.25H1V12.9833ZM1 1.25H23V5.51667H1V1.25Z" fill="#0A6A30"/>
<path opacity="0.2" fill-rule="evenodd" clip-rule="evenodd" d="M1 12.9833H23V17.25H1V12.9833ZM1 1.25H23V5.51667H1V1.25Z" fill="#1A47B8"/>
<path fill-rule="evenodd" clip-rule="evenodd" d="M1 6.25H23V12.25H1V6.25Z" fill="#AF010D"/>
<path fill-rule="evenodd" clip-rule="evenodd" d="M12 10.3955L10.7637 11.25L10.9992 9.44036L10 8.15803L11.3818 7.89603L12 6.25L12.6182 7.89714L14 8.15913L12.9992 9.44147L13.2347 11.25" fill="#FFDA2C"/>
</g>
</g>
<rect x="0.5" y="0.75" width="23" height="17" rx="2.5" stroke="#E9EFF7"/>
<defs>
<clipPath id="clip0_14537_65668">
<rect x="1" y="1.25" width="22" height="16" rx="2" fill="white"/>
</clipPath>
<clipPath id="clip1_14537_65668">
<rect width="22" height="16" fill="white" transform="translate(1 1.25)"/>
</clipPath>
</defs>
</svg>
