<svg width="24" height="19" viewBox="0 0 24 19" fill="none" xmlns="http://www.w3.org/2000/svg">
<g clip-path="url(#clip0_14537_65641)">
<g clip-path="url(#clip1_14537_65641)">
<rect width="22" height="16" transform="translate(1 1.25)" fill="white"/>
<path fill-rule="evenodd" clip-rule="evenodd" d="M1 12.25H23V17.25H1V12.25Z" fill="#151515"/>
<path fill-rule="evenodd" clip-rule="evenodd" d="M1 1.25H23V6.25H1V1.25Z" fill="#AF010D"/>
<path fill-rule="evenodd" clip-rule="evenodd" d="M7.80954 10.5833L6.26954 11.4078L6.56287 9.66171L5.3183 8.42438L7.03954 8.17158L7.80954 6.58331L8.57954 8.17265L10.3008 8.42545L9.05411 9.66278L9.34744 11.4078L7.80954 10.5833ZM16.1905 10.5833L14.6505 11.4078L14.9438 9.66171L13.6992 8.42438L15.4205 8.17158L16.1905 6.58331L16.9605 8.17265L18.6817 8.42545L17.4351 9.66278L17.7284 11.4078" fill="#249F58"/>
</g>
</g>
<rect x="0.5" y="0.75" width="23" height="17" rx="2.5" stroke="#E9EFF7"/>
<defs>
<clipPath id="clip0_14537_65641">
<rect x="1" y="1.25" width="22" height="16" rx="2" fill="white"/>
</clipPath>
<clipPath id="clip1_14537_65641">
<rect width="22" height="16" fill="white" transform="translate(1 1.25)"/>
</clipPath>
</defs>
</svg>
