<svg width="24" height="19" viewBox="0 0 24 19" fill="none" xmlns="http://www.w3.org/2000/svg">
<g clip-path="url(#clip0_14537_65670)">
<g clip-path="url(#clip1_14537_65670)">
<rect width="22" height="16" transform="translate(1 1.25)" fill="white"/>
<path fill-rule="evenodd" clip-rule="evenodd" d="M1 12.25H23V17.25H1V12.25Z" fill="#249F58"/>
<path fill-rule="evenodd" clip-rule="evenodd" d="M13.54 8.93002C13.561 9.03349 13.5714 9.14016 13.5714 9.25002C13.5714 10.1332 12.8674 10.85 12 10.85C11.1326 10.85 10.4286 10.1332 10.4286 9.25002C10.4286 9.14016 10.4391 9.03349 10.46 8.93002C10.6067 9.41642 11.2394 9.78336 12 9.78336C12.7606 9.78336 13.3934 9.41642 13.54 8.93002ZM12 8.71669C12.2892 8.71669 12.5238 8.47776 12.5238 8.18336C12.5238 7.88896 12.2892 7.65002 12 7.65002C11.7109 7.65002 11.4762 7.88896 11.4762 8.18336C11.4762 8.47776 11.7109 8.71669 12 8.71669Z" fill="#FFDA2C"/>
<path fill-rule="evenodd" clip-rule="evenodd" d="M1 1.25H23V6.25H1V1.25Z" fill="#AF010D"/>
</g>
</g>
<rect x="0.5" y="0.75" width="23" height="17" rx="2.5" stroke="#E9EFF7"/>
<defs>
<clipPath id="clip0_14537_65670">
<rect x="1" y="1.25" width="22" height="16" rx="2" fill="white"/>
</clipPath>
<clipPath id="clip1_14537_65670">
<rect width="22" height="16" fill="white" transform="translate(1 1.25)"/>
</clipPath>
</defs>
</svg>
