<svg width="24" height="19" viewBox="0 0 24 19" fill="none" xmlns="http://www.w3.org/2000/svg">
<g clip-path="url(#clip0_14537_65514)">
<g clip-path="url(#clip1_14537_65514)">
<rect width="22" height="16" transform="translate(1 1.25)" fill="#FFDA2C"/>
<path fill-rule="evenodd" clip-rule="evenodd" d="M8.33333 1.25H23V4.45H8.33333V1.25ZM8.33333 7.65H23V10.85H8.33333V7.65ZM1 14.05H23V17.25H1V14.05Z" fill="#0A6A30"/>
<path fill-rule="evenodd" clip-rule="evenodd" d="M1 1.25H10.4286V10.85H1V1.25Z" fill="#F93939"/>
<path fill-rule="evenodd" clip-rule="evenodd" d="M5.65141 7.54011L4.0716 8.38598L4.37331 6.59398L3.09521 5.32785L4.8615 5.06651L5.65141 3.43665L6.44131 5.06545L8.2076 5.32678L6.9295 6.59611L7.23121 8.38598" fill="white"/>
</g>
</g>
<rect x="0.5" y="0.75" width="23" height="17" rx="2.5" stroke="#E9EFF7"/>
<defs>
<clipPath id="clip0_14537_65514">
<rect x="1" y="1.25" width="22" height="16" rx="2" fill="white"/>
</clipPath>
<clipPath id="clip1_14537_65514">
<rect width="22" height="16" fill="white" transform="translate(1 1.25)"/>
</clipPath>
</defs>
</svg>
