<svg width="24" height="19" viewBox="0 0 24 19" fill="none" xmlns="http://www.w3.org/2000/svg">
<g clip-path="url(#clip0_14537_65615)">
<g clip-path="url(#clip1_14537_65615)">
<rect width="22" height="16" transform="translate(1 1.25)" fill="#AF010D"/>
<path d="M20.9048 1.25H3.09524C1.93807 1.25 1 2.20513 1 3.38333V15.1167C1 16.2949 1.93807 17.25 3.09524 17.25H20.9048C22.0619 17.25 23 16.2949 23 15.1167V3.38333C23 2.20513 22.0619 1.25 20.9048 1.25Z" fill="#AF010D"/>
<path fill-rule="evenodd" clip-rule="evenodd" d="M1 1.25H13V12.25H1V1.25Z" fill="white"/>
<path fill-rule="evenodd" clip-rule="evenodd" d="M8.33336 5.5167V3.38336H6.23812V5.5167H4.14288V7.65003H6.23812V9.78336H8.33336V7.65003H10.4286V5.5167H8.33336Z" fill="#AF010D"/>
</g>
</g>
<rect x="0.5" y="0.75" width="23" height="17" rx="2.5" stroke="#E9EFF7"/>
<defs>
<clipPath id="clip0_14537_65615">
<rect x="1" y="1.25" width="22" height="16" rx="2" fill="white"/>
</clipPath>
<clipPath id="clip1_14537_65615">
<rect width="22" height="16" fill="white" transform="translate(1 1.25)"/>
</clipPath>
</defs>
</svg>
