<svg width="24" height="19" viewBox="0 0 24 19" fill="none" xmlns="http://www.w3.org/2000/svg">
<g clip-path="url(#clip0_14537_65673)">
<rect width="22" height="16" transform="translate(1 1.25)" fill="#F93939"/>
<path d="M12 12.9833C14.025 12.9833 15.6666 11.3119 15.6666 9.25C15.6666 7.18813 14.025 5.51666 12 5.51666C9.97494 5.51666 8.33331 7.18813 8.33331 9.25C8.33331 11.3119 9.97494 12.9833 12 12.9833Z" fill="white"/>
<path fill-rule="evenodd" clip-rule="evenodd" d="M13.5714 8.71667H14.619V9.78334H13.5714V8.71667Z" fill="#F93939"/>
<path fill-rule="evenodd" clip-rule="evenodd" d="M14.0953 10.85C13.6176 11.4974 12.857 11.9166 12 11.9166C10.5543 11.9166 9.38098 10.722 9.38098 9.24998C9.38098 7.77798 10.5543 6.58331 12 6.58331C12.857 6.58331 13.6176 7.00251 14.0953 7.64998H12.5238C11.6564 7.64998 10.9524 8.36678 10.9524 9.24998C10.9524 10.1332 11.6564 10.85 12.5238 10.85H14.0953Z" fill="#F93939"/>
</g>
<rect x="0.5" y="0.75" width="23" height="17" rx="2.5" stroke="#E9EFF7"/>
<defs>
<clipPath id="clip0_14537_65673">
<rect x="1" y="1.25" width="22" height="16" rx="2" fill="white"/>
</clipPath>
</defs>
</svg>
