<svg width="24" height="19" viewBox="0 0 24 19" fill="none" xmlns="http://www.w3.org/2000/svg">
<g clip-path="url(#clip0_14537_65611)">
<rect width="22" height="16" transform="translate(1 1.25)" fill="#F93939"/>
<path fill-rule="evenodd" clip-rule="evenodd" d="M15.6687 10.4788L14.4514 11.1295L14.684 9.75026L13.6992 8.77213L15.0611 8.56946L15.6687 7.31506L16.2764 8.57053L17.6383 8.7732L16.6535 9.7492L16.8861 11.1284" fill="white"/>
<path fill-rule="evenodd" clip-rule="evenodd" d="M10.9524 12.9833C12.9774 12.9833 14.619 11.3119 14.619 9.25C14.619 7.18813 12.9774 5.51666 10.9524 5.51666C8.92732 5.51666 7.28571 7.18813 7.28571 9.25C7.28571 11.3119 8.92732 12.9833 10.9524 12.9833ZM12 11.9167C13.4457 11.9167 14.619 10.722 14.619 9.25C14.619 7.778 13.4457 6.58333 12 6.58333C10.5543 6.58333 9.38094 7.778 9.38094 9.25C9.38094 10.722 10.5543 11.9167 12 11.9167Z" fill="white"/>
</g>
<rect x="0.5" y="0.75" width="23" height="17" rx="2.5" stroke="#E9EFF7"/>
<defs>
<clipPath id="clip0_14537_65611">
<rect x="1" y="1.25" width="22" height="16" rx="2" fill="white"/>
</clipPath>
</defs>
</svg>
