<svg width="24" height="19" viewBox="0 0 24 19" fill="none" xmlns="http://www.w3.org/2000/svg">
<g clip-path="url(#clip0_14537_65618)">
<g clip-path="url(#clip1_14537_65618)">
<rect width="22" height="16" transform="translate(1 1.25)" fill="#249F58"/>
<path fill-rule="evenodd" clip-rule="evenodd" d="M3.09525 1.25H4.14286V17.25H3.09525V1.25ZM5.19048 1.25H6.2381V17.25H5.19048V1.25ZM7.28572 1.25H8.33334V17.25H7.28572V1.25Z" fill="#D4AF2C"/>
<path fill-rule="evenodd" clip-rule="evenodd" d="M6.2381 1.25L8.33334 2.85L6.2381 4.45V1.25ZM6.2381 4.45L8.33334 6.05L6.2381 7.65V4.45ZM6.2381 7.65L8.33334 9.25L6.2381 10.85V7.65ZM6.2381 10.85L8.33334 12.45L6.2381 14.05V10.85ZM6.2381 14.05L8.33334 15.65L6.2381 17.25V14.05ZM5.19048 1.25L3.09525 2.85L5.19048 4.45V1.25ZM5.19048 4.45L3.09525 6.05L5.19048 7.65V4.45ZM5.19048 7.65L3.09525 9.25L5.19048 10.85V7.65ZM5.19048 10.85L3.09525 12.45L5.19048 14.05V10.85ZM5.19048 14.05L3.09525 15.65L5.19048 17.25V14.05ZM5.19048 1.25H6.2381V3.38333H5.19048V1.25ZM5.19048 15.1167H6.2381V17.25H5.19048V15.1167ZM5.19048 6.58333H6.2381V8.71667H5.19048V6.58333ZM5.19048 4.45H6.2381V5.51667H5.19048V4.45ZM5.19048 12.9833H6.2381V14.05H5.19048V12.9833ZM5.19048 9.78333H6.2381V11.9167H5.19048V9.78333Z" fill="#AE6A3E"/>
<path fill-rule="evenodd" clip-rule="evenodd" d="M12.771 4.46495C12.8622 4.45428 12.9544 4.45001 13.0476 4.45001C14.4933 4.45001 15.6667 5.64468 15.6667 7.11668C15.6667 8.58868 14.4933 9.78335 13.0476 9.78335C11.6019 9.78335 10.4286 8.58868 10.4286 7.11668C10.4286 7.02068 10.4338 6.92788 10.4432 6.83508C10.5647 7.89535 11.4489 8.71668 12.5238 8.71668C13.6814 8.71668 14.619 7.76201 14.619 6.58335C14.619 5.49001 13.8124 4.58868 12.771 4.46495ZM11.4762 5.51668H12.5238V6.58335H11.4762V5.51668Z" fill="white"/>
<path opacity="0.5" fill-rule="evenodd" clip-rule="evenodd" d="M9.38095 5.5167H10.4286V6.58336H9.38095V5.5167ZM11.4762 3.38336H12.5238V4.45003H11.4762V3.38336Z" fill="white"/>
</g>
</g>
<rect x="0.5" y="0.75" width="23" height="17" rx="2.5" stroke="#E9EFF7"/>
<defs>
<clipPath id="clip0_14537_65618">
<rect x="1" y="1.25" width="22" height="16" rx="2" fill="white"/>
</clipPath>
<clipPath id="clip1_14537_65618">
<rect width="22" height="16" fill="white" transform="translate(1 1.25)"/>
</clipPath>
</defs>
</svg>
