<svg width="24" height="19" viewBox="0 0 24 19" fill="none" xmlns="http://www.w3.org/2000/svg">
<g clip-path="url(#clip0_14537_65683)">
<rect width="22" height="16" transform="translate(1 1.25)" fill="#3A99FF"/>
<path fill-rule="evenodd" clip-rule="evenodd" d="M15.6667 6.58331V7.64998H16.7143V6.58331H15.6667ZM18.8096 6.58331V7.64998H19.8572V6.58331H18.8096ZM13.5715 9.78331V10.85H14.6191V9.78331H13.5715ZM17.7619 10.85V11.9166H18.8096V10.85H17.7619ZM13.5715 12.9833V14.05H14.6191V12.9833H13.5715ZM9.38098 11.9166V12.9833H10.4286V11.9166H9.38098Z" fill="#FFDA2C"/>
<path d="M10.4286 2.31665H3.09523C2.51664 2.31665 2.04761 2.79421 2.04761 3.38332V8.71665C2.04761 9.30575 2.51664 9.78332 3.09523 9.78332H10.4286C11.0071 9.78332 11.4762 9.30575 11.4762 8.71665V3.38332C11.4762 2.79421 11.0071 2.31665 10.4286 2.31665Z" fill="white"/>
<path fill-rule="evenodd" clip-rule="evenodd" d="M6.23807 6.58336H3.09521V5.5167H6.23807V3.38336H7.28569V5.5167H10.4285V6.58336H7.28569V8.7167H6.23807V6.58336ZM8.85712 7.65003V8.7167H10.4285V7.65003H8.85712ZM8.85712 3.38336V4.45003H10.4285V3.38336H8.85712ZM3.09521 7.65003V8.7167H4.66664V7.65003H3.09521ZM3.09521 3.38336V4.45003H4.66664V3.38336H3.09521Z" fill="#F93939"/>
</g>
<rect x="0.5" y="0.75" width="23" height="17" rx="2.5" stroke="#E9EFF7"/>
<defs>
<clipPath id="clip0_14537_65683">
<rect x="1" y="1.25" width="22" height="16" rx="2" fill="white"/>
</clipPath>
</defs>
</svg>
