<svg width="24" height="19" viewBox="0 0 24 19" fill="none" xmlns="http://www.w3.org/2000/svg">
<g clip-path="url(#clip0_14537_65686)">
<g clip-path="url(#clip1_14537_65686)">
<rect width="22" height="16" transform="translate(1 1.25)" fill="#FFDA2C"/>
<path fill-rule="evenodd" clip-rule="evenodd" d="M1 1.25H23V3.38333H1V1.25Z" fill="#151515"/>
<path fill-rule="evenodd" clip-rule="evenodd" d="M1 5.51666H23V8.71666H1V5.51666Z" fill="#F93939"/>
<path fill-rule="evenodd" clip-rule="evenodd" d="M1 8.71667H23V11.9167H1V8.71667Z" fill="#151515"/>
<path d="M11.4762 11.9167C13.2119 11.9167 14.619 10.484 14.619 8.71666C14.619 6.94935 13.2119 5.51666 11.4762 5.51666C9.74042 5.51666 8.33331 6.94935 8.33331 8.71666C8.33331 10.484 9.74042 11.9167 11.4762 11.9167Z" fill="white"/>
<path fill-rule="evenodd" clip-rule="evenodd" d="M11.4762 5.51666L10.4286 8.71666L11.4762 10.85L12.5238 8.71666V11.9167L13.5714 8.71666L12.5238 7.65L11.4762 8.71666V5.51666Z" fill="#151515"/>
<rect x="1" y="14.05" width="22" height="3.2" fill="#F93939"/>
</g>
</g>
<rect x="0.5" y="0.75" width="23" height="17" rx="2.5" stroke="#E9EFF7"/>
<defs>
<clipPath id="clip0_14537_65686">
<rect x="1" y="1.25" width="22" height="16" rx="2" fill="white"/>
</clipPath>
<clipPath id="clip1_14537_65686">
<rect width="22" height="16" fill="white" transform="translate(1 1.25)"/>
</clipPath>
</defs>
</svg>
