<svg width="24" height="19" viewBox="0 0 24 19" fill="none" xmlns="http://www.w3.org/2000/svg">
<g clip-path="url(#clip0_14537_65516)">
<g clip-path="url(#clip1_14537_65516)">
<rect width="22" height="16" transform="translate(1 1.25)" fill="white"/>
<path fill-rule="evenodd" clip-rule="evenodd" d="M1 1.25H10.4286V8.71667H1V1.25Z" fill="#1A47B8"/>
<path fill-rule="evenodd" clip-rule="evenodd" d="M10.4286 1.25V2.31667H23V1.25H10.4286ZM10.4286 3.38333V4.45H23V3.38333H10.4286ZM10.4286 5.51667V6.58333H23V5.51667H10.4286ZM10.4286 7.65V8.71667H23V7.65H10.4286ZM1 9.78333V10.85H23V9.78333H1ZM1 11.9167V12.9833H23V11.9167H1ZM1 14.05V15.1167H23V14.05H1ZM1 16.1833V17.25H23V16.1833H1Z" fill="#F93939"/>
<path fill-rule="evenodd" clip-rule="evenodd" d="M2.04761 2.31665V3.38332H3.09523V2.31665H2.04761ZM4.14285 2.31665V3.38332H5.19046V2.31665H4.14285ZM6.23808 2.31665V3.38332H7.2857V2.31665H6.23808ZM8.33332 2.31665V3.38332H9.38094V2.31665H8.33332ZM7.2857 3.38332V4.44998H8.33332V3.38332H7.2857ZM5.19046 3.38332V4.44998H6.23808V3.38332H5.19046ZM3.09523 3.38332V4.44998H4.14285V3.38332H3.09523ZM2.04761 4.44998V5.51665H3.09523V4.44998H2.04761ZM4.14285 4.44998V5.51665H5.19046V4.44998H4.14285ZM6.23808 4.44998V5.51665H7.2857V4.44998H6.23808ZM8.33332 4.44998V5.51665H9.38094V4.44998H8.33332ZM2.04761 6.58332V7.64998H3.09523V6.58332H2.04761ZM4.14285 6.58332V7.64998H5.19046V6.58332H4.14285ZM6.23808 6.58332V7.64998H7.2857V6.58332H6.23808ZM8.33332 6.58332V7.64998H9.38094V6.58332H8.33332ZM7.2857 5.51665V6.58332H8.33332V5.51665H7.2857ZM5.19046 5.51665V6.58332H6.23808V5.51665H5.19046ZM3.09523 5.51665V6.58332H4.14285V5.51665H3.09523Z" fill="white"/>
</g>
</g>
<rect x="0.5" y="0.75" width="23" height="17" rx="2.5" stroke="#E9EFF7"/>
<defs>
<clipPath id="clip0_14537_65516">
<rect x="1" y="1.25" width="22" height="16" rx="2" fill="white"/>
</clipPath>
<clipPath id="clip1_14537_65516">
<rect width="22" height="16" fill="white" transform="translate(1 1.25)"/>
</clipPath>
</defs>
</svg>
