<svg width="24" height="19" viewBox="0 0 24 19" fill="none" xmlns="http://www.w3.org/2000/svg">
<g clip-path="url(#clip0_14537_65692)">
<g clip-path="url(#clip1_14537_65692)">
<rect width="22" height="16" transform="translate(1 1.25)" fill="#1A47B8"/>
<path fill-rule="evenodd" clip-rule="evenodd" d="M3.34035 1.25H1V3.91667L20.6469 17.25L23 17.25V14.5833L3.34035 1.25Z" fill="white"/>
<path d="M1.78058 1.25L23 15.6878V17.25H22.2377L1 2.79726V1.25H1.78058Z" fill="#F93939"/>
<path fill-rule="evenodd" clip-rule="evenodd" d="M20.9048 1.25H23.0001V3.91667C23.0001 3.91667 9.39128 12.7999 3.0953 17.25H1.00006V14.5833L20.9048 1.25Z" fill="white"/>
<path d="M23 1.25H22.2895L1 15.7002V17.25H1.78058L23 2.80895V1.25Z" fill="#F93939"/>
<path fill-rule="evenodd" clip-rule="evenodd" d="M9.00075 1.25H15.0176V6.18527H23V12.3115H15.0176V17.25H9.00075V12.3115H1V6.18527H9.00075V1.25Z" fill="white"/>
<path fill-rule="evenodd" clip-rule="evenodd" d="M10.2632 1.25H13.7368V7.40385H23V11.0962H13.7368V17.25H10.2632V11.0962H1V7.40385H10.2632V1.25Z" fill="#F93939"/>
</g>
</g>
<rect x="0.5" y="0.75" width="23" height="17" rx="2.5" stroke="#E9EFF7"/>
<defs>
<clipPath id="clip0_14537_65692">
<rect x="1" y="1.25" width="22" height="16" rx="2" fill="white"/>
</clipPath>
<clipPath id="clip1_14537_65692">
<rect width="22" height="16" fill="white" transform="translate(1 1.25)"/>
</clipPath>
</defs>
</svg>
