<svg width="24" height="19" viewBox="0 0 24 19" fill="none" xmlns="http://www.w3.org/2000/svg">
<g clip-path="url(#clip0_14537_65577)">
<rect width="22" height="16" transform="translate(1 1.25)" fill="white"/>
<path fill-rule="evenodd" clip-rule="evenodd" d="M11.4762 4.45001H23V6.58335H11.4762V4.45001ZM11.4762 8.71668H23V10.85H11.4762V8.71668ZM1 12.9833H23V15.1167H1V12.9833Z" fill="#3A99FF"/>
<path fill-rule="evenodd" clip-rule="evenodd" d="M8.2076 8.5887C7.96664 9.9167 7.41141 10.85 6.76188 10.85C6.11236 10.85 5.55712 9.91776 5.31617 8.5887C4.01188 8.34336 3.09521 7.77803 3.09521 7.1167C3.09521 6.45536 4.01083 5.89003 5.31617 5.6447C5.55712 4.3167 6.11236 3.38336 6.76188 3.38336C7.41141 3.38336 7.96664 4.31563 8.2076 5.6447C9.51188 5.89003 10.4285 6.45536 10.4285 7.1167C10.4285 7.77803 9.51293 8.34336 8.2076 8.5887Z" fill="#D4AF2C"/>
<path fill-rule="evenodd" clip-rule="evenodd" d="M7.4816 7.84949C7.41455 9.55936 7.11807 10.85 6.76188 10.85C6.40569 10.85 6.10922 9.55936 6.04217 7.84949C4.36283 7.78123 3.09521 7.47936 3.09521 7.1167C3.09521 6.75403 4.36283 6.45216 6.04217 6.3839C6.10922 4.67403 6.40569 3.38336 6.76188 3.38336C7.11807 3.38336 7.41455 4.67403 7.4816 6.3839C9.16093 6.45216 10.4285 6.75403 10.4285 7.1167C10.4285 7.47936 9.16093 7.78123 7.4816 7.84949Z" fill="#FFDA2C"/>
<path d="M6.76192 8.71666C7.6298 8.71666 8.33335 8.00032 8.33335 7.11666C8.33335 6.23301 7.6298 5.51666 6.76192 5.51666C5.89404 5.51666 5.19049 6.23301 5.19049 7.11666C5.19049 8.00032 5.89404 8.71666 6.76192 8.71666Z" fill="#FFDA2C"/>
</g>
<rect x="0.5" y="0.75" width="23" height="17" rx="2.5" stroke="#E9EFF7"/>
<defs>
<clipPath id="clip0_14537_65577">
<rect x="1" y="1.25" width="22" height="16" rx="2" fill="white"/>
</clipPath>
</defs>
</svg>
