<svg width="24" height="19" viewBox="0 0 24 19" fill="none" xmlns="http://www.w3.org/2000/svg">
<g clip-path="url(#clip0_14537_65679)">
<g clip-path="url(#clip1_14537_65679)">
<rect width="22" height="16" transform="translate(1 1.25)" fill="#F93939"/>
<path fill-rule="evenodd" clip-rule="evenodd" d="M1 13.25H23V17.25H1V13.25Z" fill="#00B731"/>
<path fill-rule="evenodd" clip-rule="evenodd" d="M1 1.25H23V5.25H1V1.25Z" fill="#03BCDB"/>
<path fill-rule="evenodd" clip-rule="evenodd" d="M1 6.69444H23V12.25H1V6.69444ZM6.2381 5.48889C6.07467 5.55 5.89762 5.58333 5.71429 5.58333C4.84686 5.58333 4.14286 4.83667 4.14286 3.91667C4.14286 2.99667 4.84686 2.25 5.71429 2.25C5.89762 2.25 6.07467 2.28333 6.2381 2.34444C5.62733 2.57333 5.19048 3.19111 5.19048 3.91667C5.19048 4.64222 5.62733 5.26111 6.2381 5.48889Z" fill="white"/>
<path opacity="0.5" fill-rule="evenodd" clip-rule="evenodd" d="M7 3.25H8.2V4.25H7V3.25ZM8.2 2.25H9.4V3.25H8.2V2.25ZM9.4 3.25H10.6V4.25H9.4V3.25ZM10.6 2.25H11.8V3.25H10.6V2.25ZM11.8 3.25H13V4.25H11.8V3.25ZM10.6 4.25H11.8V5.25H10.6V4.25ZM8.2 4.25H9.4V5.25H8.2V4.25Z" fill="#1A47B8"/>
</g>
</g>
<rect x="0.5" y="0.75" width="23" height="17" rx="2.5" stroke="#E9EFF7"/>
<defs>
<clipPath id="clip0_14537_65679">
<rect x="1" y="1.25" width="22" height="16" rx="2" fill="white"/>
</clipPath>
<clipPath id="clip1_14537_65679">
<rect width="22" height="16" fill="white" transform="translate(1 1.25)"/>
</clipPath>
</defs>
</svg>
