<svg width="24" height="19" viewBox="0 0 24 19" fill="none" xmlns="http://www.w3.org/2000/svg">
<g clip-path="url(#clip0_14537_65649)">
<g clip-path="url(#clip1_14537_65649)">
<path d="M20.9048 1.25H3.09524C1.93807 1.25 1 2.20513 1 3.38333V15.1167C1 16.2949 1.93807 17.25 3.09524 17.25H20.9048C22.0619 17.25 23 16.2949 23 15.1167V3.38333C23 2.20513 22.0619 1.25 20.9048 1.25Z" fill="white"/>
<path fill-rule="evenodd" clip-rule="evenodd" d="M1 10.85H23V17.25H1V10.85Z" fill="#249F58"/>
<path fill-rule="evenodd" clip-rule="evenodd" d="M1 1.25H23V7.65H1V1.25Z" fill="#AF010D"/>
<path fill-rule="evenodd" clip-rule="evenodd" d="M10.6465 10.85L3.09524 17.2852H1V1.25H3.09524L10.6381 7.65H23V10.85H10.6465Z" fill="#151515"/>
<path fill-rule="evenodd" clip-rule="evenodd" d="M10.3238 9.78333L1.52381 17.25L1 17.2852V1.25H1.52381L10.3238 8.71667H23V9.78333H10.3238Z" fill="#FFDA2C"/>
<path fill-rule="evenodd" clip-rule="evenodd" d="M1 2.31665L9.38095 9.24998L1 16.1833V2.31665Z" fill="#151515"/>
<path fill-rule="evenodd" clip-rule="evenodd" d="M2.7317 11.2201C2.31266 10.7326 2.04761 10.0308 2.04761 9.24998C2.04761 7.77798 2.98523 6.58331 4.14285 6.58331C5.30046 6.58331 6.23808 7.77798 6.23808 9.24998C6.23808 10.722 5.30046 11.9166 4.14285 11.9166V10.85C4.72113 10.85 5.19046 10.1332 5.19046 9.24998C5.19046 8.36678 4.72113 7.64998 4.14285 7.64998C3.56456 7.64998 3.09523 8.36678 3.09523 9.24998C3.09523 9.74065 3.2398 10.178 3.46608 10.4724L2.73275 11.219L2.7317 11.2201Z" fill="#FFDA2C"/>
</g>
</g>
<rect x="0.5" y="0.75" width="23" height="17" rx="2.5" stroke="#E9EFF7"/>
<defs>
<clipPath id="clip0_14537_65649">
<rect x="1" y="1.25" width="22" height="16" rx="2" fill="white"/>
</clipPath>
<clipPath id="clip1_14537_65649">
<rect width="22" height="16" fill="white" transform="translate(1 1.25)"/>
</clipPath>
</defs>
</svg>
