<svg width="24" height="19" viewBox="0 0 24 19" fill="none" xmlns="http://www.w3.org/2000/svg">
<g clip-path="url(#clip0_14537_65667)">
<g clip-path="url(#clip1_14537_65667)">
<rect width="22" height="16" transform="translate(1 1.25)" fill="white"/>
<mask id="mask0_14537_65667" style="mask-type:alpha" maskUnits="userSpaceOnUse" x="1" y="1" width="22" height="17">
<path d="M20.9048 1.25H3.09524C1.93807 1.25 1 2.20513 1 3.38333V15.1167C1 16.2949 1.93807 17.25 3.09524 17.25H20.9048C22.0619 17.25 23 16.2949 23 15.1167V3.38333C23 2.20513 22.0619 1.25 20.9048 1.25Z" fill="white"/>
</mask>
<g mask="url(#mask0_14537_65667)">
<path d="M20.9048 1.25H3.09524C1.93807 1.25 1 2.20513 1 3.38333V15.1167C1 16.2949 1.93807 17.25 3.09524 17.25H20.9048C22.0619 17.25 23 16.2949 23 15.1167V3.38333C23 2.20513 22.0619 1.25 20.9048 1.25Z" fill="white"/>
<path fill-rule="evenodd" clip-rule="evenodd" d="M16.9762 10.85L17.7619 11.65L15.4047 14.05L14.619 13.25L16.9762 10.85Z" fill="#3A99FF"/>
<path fill-rule="evenodd" clip-rule="evenodd" d="M8.07142 10.85L7.28571 11.65L9.64285 14.05L10.4286 13.25L8.07142 10.85Z" fill="#249F58"/>
<path fill-rule="evenodd" clip-rule="evenodd" d="M8.33332 10.85H9.38094V11.9166L7.28571 12.9833L8.33332 10.85Z" fill="#FFDA2C"/>
<path fill-rule="evenodd" clip-rule="evenodd" d="M4.14288 8.71667H5.1905V11.9167H4.14288V8.71667ZM18.8096 8.71667H19.8572V11.9167H18.8096V8.71667Z" fill="#3A99FF"/>
<path fill-rule="evenodd" clip-rule="evenodd" d="M12.5238 5.51668V4.45001H10.4286V5.51668L11.4762 6.58335V8.71668H12.5238V5.51668ZM5.19049 5.51668L9.38097 6.58335V9.78335L5.19049 6.58335V5.51668ZM18.8095 5.51668L14.6191 6.58335V9.78335L18.8095 6.58335V5.51668ZM9.38097 12.9833L12 14.05L14.6191 12.9833L13.5714 11.9167H10.4286L9.38097 12.9833Z" fill="#FFDA2C"/>
<path fill-rule="evenodd" clip-rule="evenodd" d="M9.38098 7.65002H14.6191V11.9167L12 12.9834L9.38098 11.9167V7.65002Z" fill="#AF010D"/>
<path fill-rule="evenodd" clip-rule="evenodd" d="M9.38098 6.58331H14.6191V8.71665H9.38098V6.58331Z" fill="#232C80"/>
<path fill-rule="evenodd" clip-rule="evenodd" d="M10.4286 8.71667H11.4762V11.9167H10.4286V8.71667ZM12.5238 8.71667H13.5714V11.9167H12.5238V8.71667Z" fill="white"/>
<path fill-rule="evenodd" clip-rule="evenodd" d="M15.6666 10.85H14.619V11.9166L16.7143 12.9833L15.6666 10.85Z" fill="#FFDA2C"/>
</g>
</g>
</g>
<rect x="0.5" y="0.75" width="23" height="17" rx="2.5" stroke="#E9EFF7"/>
<defs>
<clipPath id="clip0_14537_65667">
<rect x="1" y="1.25" width="22" height="16" rx="2" fill="white"/>
</clipPath>
<clipPath id="clip1_14537_65667">
<rect width="22" height="16" fill="white" transform="translate(1 1.25)"/>
</clipPath>
</defs>
</svg>
